<?xml version="1.0" encoding="utf-8" standalone="no"?>
<!DOCTYPE svg PUBLIC "-//W3C//DTD SVG 1.1//EN"
  "http://www.w3.org/Graphics/SVG/1.1/DTD/svg11.dtd">
<svg height="648pt" version="1.1" viewBox="0 0 1152 648" width="1152pt" xmlns="http://www.w3.org/2000/svg" xmlns:xlink="http://www.w3.org/1999/xlink">
 <metadata>
  <rdf:RDF xmlns:cc="http://creativecommons.org/ns#" xmlns:dc="http://purl.org/dc/elements/1.1/" xmlns:rdf="http://www.w3.org/1999/02/22-rdf-syntax-ns#">
   <cc:Work>
    <dc:type rdf:resource="http://purl.org/dc/dcmitype/StillImage"/>
    <dc:date>2022-06-17T09:46:23.689484</dc:date>
    <dc:format>image/svg+xml</dc:format>
    <dc:creator>
     <cc:Agent>
      <dc:title>Matplotlib v3.4.2, https://matplotlib.org/</dc:title>
     </cc:Agent>
    </dc:creator>
   </cc:Work>
  </rdf:RDF>
 </metadata>
 <defs>
  <style type="text/css">*{stroke-linecap:butt;stroke-linejoin:round;}</style>
 </defs>
 <g id="figure_1">
  <g id="patch_1">
   <path d="M 0 648 
L 1152 648 
L 1152 0 
L 0 0 
z
" style="fill:#ffffff;"/>
  </g>
  <g id="axes_1">
   <g id="patch_2">
    <path d="M 50.87 600.28 
L 1144.8 600.28 
L 1144.8 26.16 
L 50.87 26.16 
z
" style="fill:none;"/>
   </g>
   <g id="line2d_1">
    <path clip-path="url(#pe9c3ed9ba2)" d="M 50.87 552.436667 
L 1144.8 552.436667 
" style="fill:none;stroke:#000000;stroke-linecap:square;stroke-width:2;"/>
   </g>
   <g id="line2d_2">
    <path clip-path="url(#pe9c3ed9ba2)" d="M 50.87 329.586085 
L 1144.8 329.586085 
" style="fill:none;stroke:#bfbfbf;stroke-linecap:square;stroke-width:2;"/>
   </g>
   <g id="line2d_3">
    <path clip-path="url(#pe9c3ed9ba2)" d="M 76.993701 551.407895 
L 83.524627 551.005736 
L 90.055552 550.191108 
L 96.586478 548.964009 
L 103.117403 547.324442 
L 109.648328 545.272404 
L 112.913791 544.09171 
L 116.179254 542.775019 
L 119.444716 541.277504 
L 122.710179 539.598905 
L 125.975642 537.739222 
L 129.241104 535.698455 
L 132.506567 533.476603 
L 135.77203 531.073668 
L 139.037493 528.489649 
L 152.099343 517.410498 
L 165.161194 506.07822 
L 174.957582 497.555925 
L 181.488507 492.139877 
L 188.019433 486.960057 
L 194.550358 482.016464 
L 201.081284 477.339174 
L 204.346746 475.1878 
L 207.612209 473.180177 
L 210.877672 471.316306 
L 214.143134 469.596187 
L 217.408597 468.01982 
L 220.67406 466.587205 
L 223.939522 465.298341 
L 227.204985 464.153229 
L 230.470448 463.159282 
L 233.73591 462.389669 
L 237.001373 461.863072 
L 240.266836 461.579491 
L 243.532299 461.538926 
L 246.797761 461.741376 
L 250.063224 462.186843 
L 253.328687 462.875326 
L 256.594149 463.806825 
L 259.859612 464.98134 
L 266.390537 467.851039 
L 272.921463 470.979399 
L 279.452388 474.343883 
L 285.983313 477.944493 
L 292.514239 481.781228 
L 299.045164 485.891558 
L 305.57609 490.438395 
L 312.107015 495.440663 
L 318.63794 500.898362 
L 334.965254 515.323161 
L 341.496179 520.905862 
L 348.027104 526.080483 
L 354.55803 530.751636 
L 361.088955 534.926621 
L 367.619881 538.654837 
L 374.150806 541.945531 
L 380.681731 544.789283 
L 383.947194 546.027851 
L 387.212657 547.142382 
L 390.478119 548.132874 
L 393.743582 548.999327 
L 397.009045 549.741972 
L 403.53997 550.886807 
L 410.070896 551.589743 
L 416.601821 551.850888 
L 423.132746 551.731994 
L 429.663672 551.285273 
L 436.194597 550.510726 
L 439.46006 549.97987 
L 442.725522 549.308691 
L 445.990985 548.49639 
L 449.256448 547.542966 
L 452.52191 546.448418 
L 455.787373 545.212748 
L 462.318299 542.394091 
L 468.849224 539.298113 
L 475.380149 535.937188 
L 481.911075 532.296976 
L 488.442 528.259172 
L 494.972925 523.797476 
L 501.503851 518.912302 
L 511.300239 511.173597 
L 521.096627 503.201193 
L 527.627552 497.682706 
L 534.158478 491.669781 
L 540.689403 485.126141 
L 547.220328 478.052192 
L 553.751254 470.880229 
L 560.282179 463.992377 
L 566.813104 457.388636 
L 576.609493 447.744775 
L 583.140418 440.883455 
L 589.671343 433.604168 
L 596.202269 425.910354 
L 632.122358 382.689007 
L 641.918746 370.179194 
L 651.715134 357.473292 
L 654.980597 353.542333 
L 658.24606 349.804734 
L 661.511522 346.260495 
L 664.776985 342.909616 
L 668.042448 339.752097 
L 671.30791 336.787938 
L 681.104299 328.335664 
L 687.635224 322.475251 
L 697.431612 313.306658 
L 703.962537 307.141666 
L 707.228 304.459534 
L 710.493463 302.10369 
L 713.758925 300.074135 
L 717.024388 298.370831 
L 720.289851 296.993821 
L 723.555313 295.943117 
L 726.820776 295.218721 
L 730.086239 294.810185 
L 733.351701 294.608361 
L 736.617164 294.584206 
L 739.882627 294.737721 
L 743.14809 295.068906 
L 746.413552 295.577753 
L 749.679015 296.264272 
L 752.944478 297.128464 
L 756.20994 298.170329 
L 759.475403 299.400718 
L 762.740866 300.895672 
L 766.006328 302.669877 
L 769.271791 304.723335 
L 772.537254 307.056045 
L 775.802716 309.668005 
L 779.068179 312.559219 
L 782.333642 315.729685 
L 785.599104 319.179404 
L 792.13003 326.755593 
L 798.660955 334.710941 
L 805.191881 342.993926 
L 811.722806 351.604546 
L 818.253731 360.5428 
L 831.315582 378.970104 
L 844.377433 397.755289 
L 857.439284 416.897239 
L 873.766597 441.067269 
L 880.297522 450.17365 
L 886.828448 458.806519 
L 893.359373 466.965876 
L 899.890299 474.651722 
L 906.421224 481.863875 
L 912.952149 488.602452 
L 919.483075 494.867468 
L 926.014 500.658923 
L 932.544925 505.976815 
L 939.075851 510.842629 
L 945.606776 515.365381 
L 952.137701 519.560287 
L 958.668627 523.427345 
L 965.199552 526.966558 
L 971.730478 530.177923 
L 978.261403 533.061442 
L 984.792328 535.617115 
L 991.323254 537.84494 
L 997.854179 539.74492 
L 1004.385104 541.317052 
L 1010.91603 542.583507 
L 1020.712418 544.277123 
L 1030.508806 545.799846 
L 1040.305194 547.151674 
L 1050.101582 548.332609 
L 1059.89797 549.342649 
L 1069.694358 550.181795 
L 1079.490746 550.850048 
L 1089.287134 551.347406 
L 1099.083522 551.67387 
L 1108.87991 551.82944 
L 1118.676299 551.814116 
L 1125.207224 551.708959 
L 1125.207224 551.708959 
" style="fill:none;stroke:#bf00bf;stroke-linecap:square;stroke-width:2;"/>
   </g>
   <g id="line2d_4">
    <path clip-path="url(#pe9c3ed9ba2)" d="M 76.993701 552.292224 
L 90.055552 552.123988 
L 103.117403 551.755599 
L 116.179254 551.184629 
L 129.241104 550.348711 
L 142.302955 549.221826 
L 158.630269 547.519948 
L 171.692119 545.9648 
L 181.488507 544.617004 
L 191.284896 543.081951 
L 204.346746 540.773672 
L 230.470448 535.917995 
L 266.390537 529.018805 
L 272.921463 527.508667 
L 279.452388 525.78907 
L 285.983313 523.860014 
L 292.514239 521.721499 
L 302.310627 518.190571 
L 312.107015 514.444341 
L 325.168866 509.150331 
L 344.761642 501.10051 
L 351.292567 497.92145 
L 357.823493 494.307975 
L 364.354418 490.548168 
L 370.885343 486.965463 
L 380.681731 481.794148 
L 383.947194 479.872295 
L 387.212657 477.792766 
L 390.478119 475.555558 
L 393.743582 473.160674 
L 400.274507 467.995957 
L 413.336358 457.3605 
L 419.867284 451.891763 
L 426.398209 446.081386 
L 432.929134 439.89784 
L 442.725522 430.066007 
L 459.052836 413.414419 
L 468.849224 403.113286 
L 478.645612 392.406102 
L 481.911075 388.829124 
L 485.176537 385.432589 
L 488.442 382.219081 
L 491.707463 379.1886 
L 494.972925 376.341147 
L 498.238388 373.676722 
L 504.769313 368.835663 
L 511.300239 364.363576 
L 517.831164 360.219737 
L 524.36209 356.402162 
L 530.893015 352.611674 
L 537.42394 348.633636 
L 543.954866 344.468049 
L 550.485791 340.293471 
L 553.751254 338.54051 
L 557.016716 337.056668 
L 560.282179 335.841946 
L 563.547642 334.896344 
L 566.813104 334.21986 
L 570.078567 333.812497 
L 576.609493 333.313502 
L 583.140418 332.626528 
L 589.671343 331.742183 
L 599.467731 330.186219 
L 602.733194 329.83713 
L 605.998657 329.61881 
L 609.264119 329.531259 
L 612.529582 329.574478 
L 615.795045 329.748465 
L 619.060507 330.053221 
L 625.591433 330.949675 
L 632.122358 332.019927 
L 638.653284 333.254149 
L 645.184209 334.65234 
L 648.449672 335.439703 
L 651.715134 336.406697 
L 654.980597 337.565669 
L 658.24606 338.91662 
L 661.511522 340.45955 
L 664.776985 342.194459 
L 668.042448 344.121346 
L 671.30791 346.240213 
L 677.838836 350.777057 
L 684.369761 355.043651 
L 690.900687 358.996149 
L 697.431612 362.634551 
L 703.962537 366.070996 
L 707.228 367.939948 
L 710.493463 369.942899 
L 713.758925 372.079851 
L 720.289851 376.755756 
L 726.820776 381.967662 
L 739.882627 393.293228 
L 756.20994 407.705179 
L 769.271791 419.500926 
L 782.333642 431.685091 
L 798.660955 447.132216 
L 808.457343 456.006124 
L 818.253731 464.542955 
L 828.050119 472.735873 
L 837.846507 480.576135 
L 847.642896 488.06371 
L 857.439284 495.198598 
L 867.235672 501.980797 
L 873.766597 506.269319 
L 880.297522 510.320791 
L 886.828448 514.135147 
L 893.359373 517.712389 
L 899.890299 521.052515 
L 906.421224 524.155526 
L 912.952149 527.021423 
L 919.483075 529.650203 
L 926.014 532.041869 
L 932.544925 534.19642 
L 939.075851 536.1295 
L 948.872239 538.766871 
L 958.668627 541.109488 
L 968.465015 543.15735 
L 978.261403 544.910459 
L 988.057791 546.368814 
L 997.854179 547.532414 
L 1007.650567 548.40126 
L 1023.977881 549.491846 
L 1043.570657 550.557944 
L 1063.163433 551.359812 
L 1082.756209 551.897451 
L 1102.348985 552.17086 
L 1121.941761 552.180039 
L 1125.207224 552.15588 
L 1125.207224 552.15588 
" style="fill:none;stroke:#ff8000;stroke-linecap:square;stroke-width:2;"/>
   </g>
   <g id="line2d_5">
    <path clip-path="url(#pe9c3ed9ba2)" d="M 76.993701 547.842703 
L 80.259164 547.166184 
L 83.524627 546.019168 
L 86.79009 544.401654 
L 90.055552 542.313642 
L 93.321015 539.755133 
L 96.586478 536.726126 
L 99.85194 533.226622 
L 103.117403 529.256619 
L 106.382866 524.816119 
L 109.648328 519.905122 
L 112.913791 514.523626 
L 116.179254 508.487373 
L 119.444716 501.54513 
L 122.710179 493.695443 
L 125.975642 484.93831 
L 129.241104 475.273732 
L 132.506567 464.701709 
L 135.77203 453.222242 
L 139.037493 440.835329 
L 145.568418 414.275674 
L 152.099343 387.004159 
L 158.630269 359.084973 
L 168.426657 315.991811 
L 174.957582 287.065997 
L 181.488507 258.847277 
L 188.019433 231.337324 
L 194.550358 204.536137 
L 201.081284 178.603936 
L 204.346746 166.429349 
L 207.612209 154.883148 
L 210.877672 143.965333 
L 214.143134 133.675904 
L 217.408597 124.014862 
L 220.67406 114.982205 
L 223.939522 106.577934 
L 227.204985 98.80205 
L 230.470448 91.699134 
L 233.73591 85.709233 
L 237.001373 80.944702 
L 240.266836 77.405542 
L 243.532299 75.091752 
L 246.797761 74.003333 
L 250.063224 74.140285 
L 253.328687 75.502607 
L 256.594149 78.0903 
L 259.859612 81.903364 
L 263.125075 86.815068 
L 266.390537 92.08019 
L 269.656 97.577018 
L 272.921463 103.305552 
L 276.186925 109.265792 
L 282.717851 121.881391 
L 289.248776 135.423814 
L 295.779701 149.899788 
L 299.045164 157.796657 
L 302.310627 166.395522 
L 305.57609 175.696382 
L 308.841552 185.699237 
L 312.107015 196.404087 
L 315.372478 207.810932 
L 318.63794 219.919773 
L 325.168866 245.837488 
L 334.965254 285.692264 
L 341.496179 312.560392 
L 344.761642 325.413404 
L 348.027104 337.654683 
L 351.292567 349.284231 
L 354.55803 360.302047 
L 357.823493 370.708131 
L 364.354418 390.254132 
L 370.885343 408.561093 
L 377.416269 425.628057 
L 380.681731 433.592744 
L 383.947194 441.081963 
L 387.212657 448.095713 
L 390.478119 454.633995 
L 393.743582 460.696808 
L 397.009045 466.288545 
L 400.274507 471.577926 
L 403.53997 476.651357 
L 406.805433 481.508838 
L 410.070896 486.150369 
L 413.336358 490.575949 
L 416.601821 494.785491 
L 419.867284 498.765407 
L 423.132746 502.505902 
L 426.398209 506.006976 
L 429.663672 509.268629 
L 432.929134 512.29086 
L 436.194597 515.073671 
L 442.725522 520.105788 
L 449.256448 524.617486 
L 455.787373 528.610248 
L 462.318299 532.113836 
L 468.849224 535.210871 
L 475.380149 537.906193 
L 481.911075 540.211481 
L 488.442 542.223092 
L 494.972925 543.962449 
L 501.503851 545.429646 
L 508.034776 546.665274 
L 514.565701 547.70267 
L 521.096627 548.541835 
L 530.893015 549.490428 
L 540.689403 550.21819 
L 553.751254 550.894264 
L 573.34403 551.653953 
L 589.671343 552.031 
L 612.529582 552.228184 
L 654.980597 552.396827 
L 733.351701 552.436453 
L 1125.207224 552.435391 
L 1125.207224 552.435391 
" style="fill:none;stroke:#0000ff;stroke-linecap:square;stroke-width:2;"/>
   </g>
   <g id="matplotlib.axis_1">
    <g id="xtick_1">
     <g id="line2d_6">
      <defs>
       <path d="M 0 0 
L 0 3.5 
" id="m15917d939d" style="stroke:#000000;stroke-width:0.8;"/>
      </defs>
      <g>
       <use style="stroke:#000000;stroke-width:0.8;" x="99.85194" xlink:href="#m15917d939d" y="600.28"/>
      </g>
     </g>
     <g id="text_1">
      <!-- 400 -->
      <g transform="translate(88.39944 616.398125)scale(0.12 -0.12)">
       <defs>
        <path d="M 2419 4116 
L 825 1625 
L 2419 1625 
L 2419 4116 
z
M 2253 4666 
L 3047 4666 
L 3047 1625 
L 3713 1625 
L 3713 1100 
L 3047 1100 
L 3047 0 
L 2419 0 
L 2419 1100 
L 313 1100 
L 313 1709 
L 2253 4666 
z
" id="DejaVuSans-34" transform="scale(0.015625)"/>
        <path d="M 2034 4250 
Q 1547 4250 1301 3770 
Q 1056 3291 1056 2328 
Q 1056 1369 1301 889 
Q 1547 409 2034 409 
Q 2525 409 2770 889 
Q 3016 1369 3016 2328 
Q 3016 3291 2770 3770 
Q 2525 4250 2034 4250 
z
M 2034 4750 
Q 2819 4750 3233 4129 
Q 3647 3509 3647 2328 
Q 3647 1150 3233 529 
Q 2819 -91 2034 -91 
Q 1250 -91 836 529 
Q 422 1150 422 2328 
Q 422 3509 836 4129 
Q 1250 4750 2034 4750 
z
" id="DejaVuSans-30" transform="scale(0.015625)"/>
       </defs>
       <use xlink:href="#DejaVuSans-34"/>
       <use x="63.623047" xlink:href="#DejaVuSans-30"/>
       <use x="127.246094" xlink:href="#DejaVuSans-30"/>
      </g>
     </g>
    </g>
    <g id="xtick_2">
     <g id="line2d_7">
      <g>
       <use style="stroke:#000000;stroke-width:0.8;" x="181.488507" xlink:href="#m15917d939d" y="600.28"/>
      </g>
     </g>
     <g id="text_2">
      <!-- 425 -->
      <g transform="translate(170.036007 616.398125)scale(0.12 -0.12)">
       <defs>
        <path d="M 1228 531 
L 3431 531 
L 3431 0 
L 469 0 
L 469 531 
Q 828 903 1448 1529 
Q 2069 2156 2228 2338 
Q 2531 2678 2651 2914 
Q 2772 3150 2772 3378 
Q 2772 3750 2511 3984 
Q 2250 4219 1831 4219 
Q 1534 4219 1204 4116 
Q 875 4013 500 3803 
L 500 4441 
Q 881 4594 1212 4672 
Q 1544 4750 1819 4750 
Q 2544 4750 2975 4387 
Q 3406 4025 3406 3419 
Q 3406 3131 3298 2873 
Q 3191 2616 2906 2266 
Q 2828 2175 2409 1742 
Q 1991 1309 1228 531 
z
" id="DejaVuSans-32" transform="scale(0.015625)"/>
        <path d="M 691 4666 
L 3169 4666 
L 3169 4134 
L 1269 4134 
L 1269 2991 
Q 1406 3038 1543 3061 
Q 1681 3084 1819 3084 
Q 2600 3084 3056 2656 
Q 3513 2228 3513 1497 
Q 3513 744 3044 326 
Q 2575 -91 1722 -91 
Q 1428 -91 1123 -41 
Q 819 9 494 109 
L 494 744 
Q 775 591 1075 516 
Q 1375 441 1709 441 
Q 2250 441 2565 725 
Q 2881 1009 2881 1497 
Q 2881 1984 2565 2268 
Q 2250 2553 1709 2553 
Q 1456 2553 1204 2497 
Q 953 2441 691 2322 
L 691 4666 
z
" id="DejaVuSans-35" transform="scale(0.015625)"/>
       </defs>
       <use xlink:href="#DejaVuSans-34"/>
       <use x="63.623047" xlink:href="#DejaVuSans-32"/>
       <use x="127.246094" xlink:href="#DejaVuSans-35"/>
      </g>
     </g>
    </g>
    <g id="xtick_3">
     <g id="line2d_8">
      <g>
       <use style="stroke:#000000;stroke-width:0.8;" x="263.125075" xlink:href="#m15917d939d" y="600.28"/>
      </g>
     </g>
     <g id="text_3">
      <!-- 450 -->
      <g transform="translate(251.672575 616.398125)scale(0.12 -0.12)">
       <use xlink:href="#DejaVuSans-34"/>
       <use x="63.623047" xlink:href="#DejaVuSans-35"/>
       <use x="127.246094" xlink:href="#DejaVuSans-30"/>
      </g>
     </g>
    </g>
    <g id="xtick_4">
     <g id="line2d_9">
      <g>
       <use style="stroke:#000000;stroke-width:0.8;" x="344.761642" xlink:href="#m15917d939d" y="600.28"/>
      </g>
     </g>
     <g id="text_4">
      <!-- 475 -->
      <g transform="translate(333.309142 616.398125)scale(0.12 -0.12)">
       <defs>
        <path d="M 525 4666 
L 3525 4666 
L 3525 4397 
L 1831 0 
L 1172 0 
L 2766 4134 
L 525 4134 
L 525 4666 
z
" id="DejaVuSans-37" transform="scale(0.015625)"/>
       </defs>
       <use xlink:href="#DejaVuSans-34"/>
       <use x="63.623047" xlink:href="#DejaVuSans-37"/>
       <use x="127.246094" xlink:href="#DejaVuSans-35"/>
      </g>
     </g>
    </g>
    <g id="xtick_5">
     <g id="line2d_10">
      <g>
       <use style="stroke:#000000;stroke-width:0.8;" x="426.398209" xlink:href="#m15917d939d" y="600.28"/>
      </g>
     </g>
     <g id="text_5">
      <!-- 500 -->
      <g transform="translate(414.945709 616.398125)scale(0.12 -0.12)">
       <use xlink:href="#DejaVuSans-35"/>
       <use x="63.623047" xlink:href="#DejaVuSans-30"/>
       <use x="127.246094" xlink:href="#DejaVuSans-30"/>
      </g>
     </g>
    </g>
    <g id="xtick_6">
     <g id="line2d_11">
      <g>
       <use style="stroke:#000000;stroke-width:0.8;" x="508.034776" xlink:href="#m15917d939d" y="600.28"/>
      </g>
     </g>
     <g id="text_6">
      <!-- 525 -->
      <g transform="translate(496.582276 616.398125)scale(0.12 -0.12)">
       <use xlink:href="#DejaVuSans-35"/>
       <use x="63.623047" xlink:href="#DejaVuSans-32"/>
       <use x="127.246094" xlink:href="#DejaVuSans-35"/>
      </g>
     </g>
    </g>
    <g id="xtick_7">
     <g id="line2d_12">
      <g>
       <use style="stroke:#000000;stroke-width:0.8;" x="589.671343" xlink:href="#m15917d939d" y="600.28"/>
      </g>
     </g>
     <g id="text_7">
      <!-- 550 -->
      <g transform="translate(578.218843 616.398125)scale(0.12 -0.12)">
       <use xlink:href="#DejaVuSans-35"/>
       <use x="63.623047" xlink:href="#DejaVuSans-35"/>
       <use x="127.246094" xlink:href="#DejaVuSans-30"/>
      </g>
     </g>
    </g>
    <g id="xtick_8">
     <g id="line2d_13">
      <g>
       <use style="stroke:#000000;stroke-width:0.8;" x="671.30791" xlink:href="#m15917d939d" y="600.28"/>
      </g>
     </g>
     <g id="text_8">
      <!-- 575 -->
      <g transform="translate(659.85541 616.398125)scale(0.12 -0.12)">
       <use xlink:href="#DejaVuSans-35"/>
       <use x="63.623047" xlink:href="#DejaVuSans-37"/>
       <use x="127.246094" xlink:href="#DejaVuSans-35"/>
      </g>
     </g>
    </g>
    <g id="xtick_9">
     <g id="line2d_14">
      <g>
       <use style="stroke:#000000;stroke-width:0.8;" x="752.944478" xlink:href="#m15917d939d" y="600.28"/>
      </g>
     </g>
     <g id="text_9">
      <!-- 600 -->
      <g transform="translate(741.491978 616.398125)scale(0.12 -0.12)">
       <defs>
        <path d="M 2113 2584 
Q 1688 2584 1439 2293 
Q 1191 2003 1191 1497 
Q 1191 994 1439 701 
Q 1688 409 2113 409 
Q 2538 409 2786 701 
Q 3034 994 3034 1497 
Q 3034 2003 2786 2293 
Q 2538 2584 2113 2584 
z
M 3366 4563 
L 3366 3988 
Q 3128 4100 2886 4159 
Q 2644 4219 2406 4219 
Q 1781 4219 1451 3797 
Q 1122 3375 1075 2522 
Q 1259 2794 1537 2939 
Q 1816 3084 2150 3084 
Q 2853 3084 3261 2657 
Q 3669 2231 3669 1497 
Q 3669 778 3244 343 
Q 2819 -91 2113 -91 
Q 1303 -91 875 529 
Q 447 1150 447 2328 
Q 447 3434 972 4092 
Q 1497 4750 2381 4750 
Q 2619 4750 2861 4703 
Q 3103 4656 3366 4563 
z
" id="DejaVuSans-36" transform="scale(0.015625)"/>
       </defs>
       <use xlink:href="#DejaVuSans-36"/>
       <use x="63.623047" xlink:href="#DejaVuSans-30"/>
       <use x="127.246094" xlink:href="#DejaVuSans-30"/>
      </g>
     </g>
    </g>
    <g id="xtick_10">
     <g id="line2d_15">
      <g>
       <use style="stroke:#000000;stroke-width:0.8;" x="834.581045" xlink:href="#m15917d939d" y="600.28"/>
      </g>
     </g>
     <g id="text_10">
      <!-- 625 -->
      <g transform="translate(823.128545 616.398125)scale(0.12 -0.12)">
       <use xlink:href="#DejaVuSans-36"/>
       <use x="63.623047" xlink:href="#DejaVuSans-32"/>
       <use x="127.246094" xlink:href="#DejaVuSans-35"/>
      </g>
     </g>
    </g>
    <g id="xtick_11">
     <g id="line2d_16">
      <g>
       <use style="stroke:#000000;stroke-width:0.8;" x="916.217612" xlink:href="#m15917d939d" y="600.28"/>
      </g>
     </g>
     <g id="text_11">
      <!-- 650 -->
      <g transform="translate(904.765112 616.398125)scale(0.12 -0.12)">
       <use xlink:href="#DejaVuSans-36"/>
       <use x="63.623047" xlink:href="#DejaVuSans-35"/>
       <use x="127.246094" xlink:href="#DejaVuSans-30"/>
      </g>
     </g>
    </g>
    <g id="xtick_12">
     <g id="line2d_17">
      <g>
       <use style="stroke:#000000;stroke-width:0.8;" x="997.854179" xlink:href="#m15917d939d" y="600.28"/>
      </g>
     </g>
     <g id="text_12">
      <!-- 675 -->
      <g transform="translate(986.401679 616.398125)scale(0.12 -0.12)">
       <use xlink:href="#DejaVuSans-36"/>
       <use x="63.623047" xlink:href="#DejaVuSans-37"/>
       <use x="127.246094" xlink:href="#DejaVuSans-35"/>
      </g>
     </g>
    </g>
    <g id="xtick_13">
     <g id="line2d_18">
      <g>
       <use style="stroke:#000000;stroke-width:0.8;" x="1079.490746" xlink:href="#m15917d939d" y="600.28"/>
      </g>
     </g>
     <g id="text_13">
      <!-- 700 -->
      <g transform="translate(1068.038246 616.398125)scale(0.12 -0.12)">
       <use xlink:href="#DejaVuSans-37"/>
       <use x="63.623047" xlink:href="#DejaVuSans-30"/>
       <use x="127.246094" xlink:href="#DejaVuSans-30"/>
      </g>
     </g>
    </g>
    <g id="text_14">
     <!-- Wavelength $\lambda$ (nm) -->
     <g transform="translate(530.495 633.53375)scale(0.14 -0.14)">
      <defs>
       <path d="M 213 4666 
L 850 4666 
L 1831 722 
L 2809 4666 
L 3519 4666 
L 4500 722 
L 5478 4666 
L 6119 4666 
L 4947 0 
L 4153 0 
L 3169 4050 
L 2175 0 
L 1381 0 
L 213 4666 
z
" id="DejaVuSans-57" transform="scale(0.015625)"/>
       <path d="M 2194 1759 
Q 1497 1759 1228 1600 
Q 959 1441 959 1056 
Q 959 750 1161 570 
Q 1363 391 1709 391 
Q 2188 391 2477 730 
Q 2766 1069 2766 1631 
L 2766 1759 
L 2194 1759 
z
M 3341 1997 
L 3341 0 
L 2766 0 
L 2766 531 
Q 2569 213 2275 61 
Q 1981 -91 1556 -91 
Q 1019 -91 701 211 
Q 384 513 384 1019 
Q 384 1609 779 1909 
Q 1175 2209 1959 2209 
L 2766 2209 
L 2766 2266 
Q 2766 2663 2505 2880 
Q 2244 3097 1772 3097 
Q 1472 3097 1187 3025 
Q 903 2953 641 2809 
L 641 3341 
Q 956 3463 1253 3523 
Q 1550 3584 1831 3584 
Q 2591 3584 2966 3190 
Q 3341 2797 3341 1997 
z
" id="DejaVuSans-61" transform="scale(0.015625)"/>
       <path d="M 191 3500 
L 800 3500 
L 1894 563 
L 2988 3500 
L 3597 3500 
L 2284 0 
L 1503 0 
L 191 3500 
z
" id="DejaVuSans-76" transform="scale(0.015625)"/>
       <path d="M 3597 1894 
L 3597 1613 
L 953 1613 
Q 991 1019 1311 708 
Q 1631 397 2203 397 
Q 2534 397 2845 478 
Q 3156 559 3463 722 
L 3463 178 
Q 3153 47 2828 -22 
Q 2503 -91 2169 -91 
Q 1331 -91 842 396 
Q 353 884 353 1716 
Q 353 2575 817 3079 
Q 1281 3584 2069 3584 
Q 2775 3584 3186 3129 
Q 3597 2675 3597 1894 
z
M 3022 2063 
Q 3016 2534 2758 2815 
Q 2500 3097 2075 3097 
Q 1594 3097 1305 2825 
Q 1016 2553 972 2059 
L 3022 2063 
z
" id="DejaVuSans-65" transform="scale(0.015625)"/>
       <path d="M 603 4863 
L 1178 4863 
L 1178 0 
L 603 0 
L 603 4863 
z
" id="DejaVuSans-6c" transform="scale(0.015625)"/>
       <path d="M 3513 2113 
L 3513 0 
L 2938 0 
L 2938 2094 
Q 2938 2591 2744 2837 
Q 2550 3084 2163 3084 
Q 1697 3084 1428 2787 
Q 1159 2491 1159 1978 
L 1159 0 
L 581 0 
L 581 3500 
L 1159 3500 
L 1159 2956 
Q 1366 3272 1645 3428 
Q 1925 3584 2291 3584 
Q 2894 3584 3203 3211 
Q 3513 2838 3513 2113 
z
" id="DejaVuSans-6e" transform="scale(0.015625)"/>
       <path d="M 2906 1791 
Q 2906 2416 2648 2759 
Q 2391 3103 1925 3103 
Q 1463 3103 1205 2759 
Q 947 2416 947 1791 
Q 947 1169 1205 825 
Q 1463 481 1925 481 
Q 2391 481 2648 825 
Q 2906 1169 2906 1791 
z
M 3481 434 
Q 3481 -459 3084 -895 
Q 2688 -1331 1869 -1331 
Q 1566 -1331 1297 -1286 
Q 1028 -1241 775 -1147 
L 775 -588 
Q 1028 -725 1275 -790 
Q 1522 -856 1778 -856 
Q 2344 -856 2625 -561 
Q 2906 -266 2906 331 
L 2906 616 
Q 2728 306 2450 153 
Q 2172 0 1784 0 
Q 1141 0 747 490 
Q 353 981 353 1791 
Q 353 2603 747 3093 
Q 1141 3584 1784 3584 
Q 2172 3584 2450 3431 
Q 2728 3278 2906 2969 
L 2906 3500 
L 3481 3500 
L 3481 434 
z
" id="DejaVuSans-67" transform="scale(0.015625)"/>
       <path d="M 1172 4494 
L 1172 3500 
L 2356 3500 
L 2356 3053 
L 1172 3053 
L 1172 1153 
Q 1172 725 1289 603 
Q 1406 481 1766 481 
L 2356 481 
L 2356 0 
L 1766 0 
Q 1100 0 847 248 
Q 594 497 594 1153 
L 594 3053 
L 172 3053 
L 172 3500 
L 594 3500 
L 594 4494 
L 1172 4494 
z
" id="DejaVuSans-74" transform="scale(0.015625)"/>
       <path d="M 3513 2113 
L 3513 0 
L 2938 0 
L 2938 2094 
Q 2938 2591 2744 2837 
Q 2550 3084 2163 3084 
Q 1697 3084 1428 2787 
Q 1159 2491 1159 1978 
L 1159 0 
L 581 0 
L 581 4863 
L 1159 4863 
L 1159 2956 
Q 1366 3272 1645 3428 
Q 1925 3584 2291 3584 
Q 2894 3584 3203 3211 
Q 3513 2838 3513 2113 
z
" id="DejaVuSans-68" transform="scale(0.015625)"/>
       <path id="DejaVuSans-20" transform="scale(0.015625)"/>
       <path d="M 2350 4316 
L 3125 0 
L 2516 0 
L 2038 2588 
L 328 0 
L -281 0 
L 1903 3356 
L 1794 3975 
Q 1725 4369 1391 4369 
L 1091 4369 
L 1184 4863 
L 1550 4856 
Q 2253 4847 2350 4316 
z
" id="DejaVuSans-Oblique-3bb" transform="scale(0.015625)"/>
       <path d="M 1984 4856 
Q 1566 4138 1362 3434 
Q 1159 2731 1159 2009 
Q 1159 1288 1364 580 
Q 1569 -128 1984 -844 
L 1484 -844 
Q 1016 -109 783 600 
Q 550 1309 550 2009 
Q 550 2706 781 3412 
Q 1013 4119 1484 4856 
L 1984 4856 
z
" id="DejaVuSans-28" transform="scale(0.015625)"/>
       <path d="M 3328 2828 
Q 3544 3216 3844 3400 
Q 4144 3584 4550 3584 
Q 5097 3584 5394 3201 
Q 5691 2819 5691 2113 
L 5691 0 
L 5113 0 
L 5113 2094 
Q 5113 2597 4934 2840 
Q 4756 3084 4391 3084 
Q 3944 3084 3684 2787 
Q 3425 2491 3425 1978 
L 3425 0 
L 2847 0 
L 2847 2094 
Q 2847 2600 2669 2842 
Q 2491 3084 2119 3084 
Q 1678 3084 1418 2786 
Q 1159 2488 1159 1978 
L 1159 0 
L 581 0 
L 581 3500 
L 1159 3500 
L 1159 2956 
Q 1356 3278 1631 3431 
Q 1906 3584 2284 3584 
Q 2666 3584 2933 3390 
Q 3200 3197 3328 2828 
z
" id="DejaVuSans-6d" transform="scale(0.015625)"/>
       <path d="M 513 4856 
L 1013 4856 
Q 1481 4119 1714 3412 
Q 1947 2706 1947 2009 
Q 1947 1309 1714 600 
Q 1481 -109 1013 -844 
L 513 -844 
Q 928 -128 1133 580 
Q 1338 1288 1338 2009 
Q 1338 2731 1133 3434 
Q 928 4138 513 4856 
z
" id="DejaVuSans-29" transform="scale(0.015625)"/>
      </defs>
      <use transform="translate(0 0.015625)" xlink:href="#DejaVuSans-57"/>
      <use transform="translate(98.876953 0.015625)" xlink:href="#DejaVuSans-61"/>
      <use transform="translate(160.15625 0.015625)" xlink:href="#DejaVuSans-76"/>
      <use transform="translate(219.335938 0.015625)" xlink:href="#DejaVuSans-65"/>
      <use transform="translate(280.859375 0.015625)" xlink:href="#DejaVuSans-6c"/>
      <use transform="translate(308.642578 0.015625)" xlink:href="#DejaVuSans-65"/>
      <use transform="translate(370.166016 0.015625)" xlink:href="#DejaVuSans-6e"/>
      <use transform="translate(433.544922 0.015625)" xlink:href="#DejaVuSans-67"/>
      <use transform="translate(497.021484 0.015625)" xlink:href="#DejaVuSans-74"/>
      <use transform="translate(536.230469 0.015625)" xlink:href="#DejaVuSans-68"/>
      <use transform="translate(599.609375 0.015625)" xlink:href="#DejaVuSans-20"/>
      <use transform="translate(631.396484 0.015625)" xlink:href="#DejaVuSans-Oblique-3bb"/>
      <use transform="translate(690.576172 0.015625)" xlink:href="#DejaVuSans-20"/>
      <use transform="translate(722.363281 0.015625)" xlink:href="#DejaVuSans-28"/>
      <use transform="translate(761.376953 0.015625)" xlink:href="#DejaVuSans-6e"/>
      <use transform="translate(824.755859 0.015625)" xlink:href="#DejaVuSans-6d"/>
      <use transform="translate(922.167969 0.015625)" xlink:href="#DejaVuSans-29"/>
     </g>
    </g>
   </g>
   <g id="matplotlib.axis_2">
    <g id="ytick_1">
     <g id="line2d_19">
      <defs>
       <path d="M 0 0 
L -3.5 0 
" id="m75d2b0f673" style="stroke:#000000;stroke-width:0.8;"/>
      </defs>
      <g>
       <use style="stroke:#000000;stroke-width:0.8;" x="50.87" xlink:href="#m75d2b0f673" y="552.436667"/>
      </g>
     </g>
     <g id="text_15">
      <!-- 0.0 -->
      <g transform="translate(24.78625 556.995729)scale(0.12 -0.12)">
       <defs>
        <path d="M 684 794 
L 1344 794 
L 1344 0 
L 684 0 
L 684 794 
z
" id="DejaVuSans-2e" transform="scale(0.015625)"/>
       </defs>
       <use xlink:href="#DejaVuSans-30"/>
       <use x="63.623047" xlink:href="#DejaVuSans-2e"/>
       <use x="95.410156" xlink:href="#DejaVuSans-30"/>
      </g>
     </g>
    </g>
    <g id="ytick_2">
     <g id="line2d_20">
      <g>
       <use style="stroke:#000000;stroke-width:0.8;" x="50.87" xlink:href="#m75d2b0f673" y="441.011376"/>
      </g>
     </g>
     <g id="text_16">
      <!-- 0.5 -->
      <g transform="translate(24.78625 445.570439)scale(0.12 -0.12)">
       <use xlink:href="#DejaVuSans-30"/>
       <use x="63.623047" xlink:href="#DejaVuSans-2e"/>
       <use x="95.410156" xlink:href="#DejaVuSans-35"/>
      </g>
     </g>
    </g>
    <g id="ytick_3">
     <g id="line2d_21">
      <g>
       <use style="stroke:#000000;stroke-width:0.8;" x="50.87" xlink:href="#m75d2b0f673" y="329.586085"/>
      </g>
     </g>
     <g id="text_17">
      <!-- 1.0 -->
      <g transform="translate(24.78625 334.145148)scale(0.12 -0.12)">
       <defs>
        <path d="M 794 531 
L 1825 531 
L 1825 4091 
L 703 3866 
L 703 4441 
L 1819 4666 
L 2450 4666 
L 2450 531 
L 3481 531 
L 3481 0 
L 794 0 
L 794 531 
z
" id="DejaVuSans-31" transform="scale(0.015625)"/>
       </defs>
       <use xlink:href="#DejaVuSans-31"/>
       <use x="63.623047" xlink:href="#DejaVuSans-2e"/>
       <use x="95.410156" xlink:href="#DejaVuSans-30"/>
      </g>
     </g>
    </g>
    <g id="ytick_4">
     <g id="line2d_22">
      <g>
       <use style="stroke:#000000;stroke-width:0.8;" x="50.87" xlink:href="#m75d2b0f673" y="218.160795"/>
      </g>
     </g>
     <g id="text_18">
      <!-- 1.5 -->
      <g transform="translate(24.78625 222.719857)scale(0.12 -0.12)">
       <use xlink:href="#DejaVuSans-31"/>
       <use x="63.623047" xlink:href="#DejaVuSans-2e"/>
       <use x="95.410156" xlink:href="#DejaVuSans-35"/>
      </g>
     </g>
    </g>
    <g id="ytick_5">
     <g id="line2d_23">
      <g>
       <use style="stroke:#000000;stroke-width:0.8;" x="50.87" xlink:href="#m75d2b0f673" y="106.735504"/>
      </g>
     </g>
     <g id="text_19">
      <!-- 2.0 -->
      <g transform="translate(24.78625 111.294567)scale(0.12 -0.12)">
       <use xlink:href="#DejaVuSans-32"/>
       <use x="63.623047" xlink:href="#DejaVuSans-2e"/>
       <use x="95.410156" xlink:href="#DejaVuSans-30"/>
      </g>
     </g>
    </g>
    <g id="text_20">
     <!-- Function Value (Y arbitrarily set to peak at 1.0) -->
     <g transform="translate(17.874687 477.112969)rotate(-90)scale(0.14 -0.14)">
      <defs>
       <path d="M 628 4666 
L 3309 4666 
L 3309 4134 
L 1259 4134 
L 1259 2759 
L 3109 2759 
L 3109 2228 
L 1259 2228 
L 1259 0 
L 628 0 
L 628 4666 
z
" id="DejaVuSans-46" transform="scale(0.015625)"/>
       <path d="M 544 1381 
L 544 3500 
L 1119 3500 
L 1119 1403 
Q 1119 906 1312 657 
Q 1506 409 1894 409 
Q 2359 409 2629 706 
Q 2900 1003 2900 1516 
L 2900 3500 
L 3475 3500 
L 3475 0 
L 2900 0 
L 2900 538 
Q 2691 219 2414 64 
Q 2138 -91 1772 -91 
Q 1169 -91 856 284 
Q 544 659 544 1381 
z
M 1991 3584 
L 1991 3584 
z
" id="DejaVuSans-75" transform="scale(0.015625)"/>
       <path d="M 3122 3366 
L 3122 2828 
Q 2878 2963 2633 3030 
Q 2388 3097 2138 3097 
Q 1578 3097 1268 2742 
Q 959 2388 959 1747 
Q 959 1106 1268 751 
Q 1578 397 2138 397 
Q 2388 397 2633 464 
Q 2878 531 3122 666 
L 3122 134 
Q 2881 22 2623 -34 
Q 2366 -91 2075 -91 
Q 1284 -91 818 406 
Q 353 903 353 1747 
Q 353 2603 823 3093 
Q 1294 3584 2113 3584 
Q 2378 3584 2631 3529 
Q 2884 3475 3122 3366 
z
" id="DejaVuSans-63" transform="scale(0.015625)"/>
       <path d="M 603 3500 
L 1178 3500 
L 1178 0 
L 603 0 
L 603 3500 
z
M 603 4863 
L 1178 4863 
L 1178 4134 
L 603 4134 
L 603 4863 
z
" id="DejaVuSans-69" transform="scale(0.015625)"/>
       <path d="M 1959 3097 
Q 1497 3097 1228 2736 
Q 959 2375 959 1747 
Q 959 1119 1226 758 
Q 1494 397 1959 397 
Q 2419 397 2687 759 
Q 2956 1122 2956 1747 
Q 2956 2369 2687 2733 
Q 2419 3097 1959 3097 
z
M 1959 3584 
Q 2709 3584 3137 3096 
Q 3566 2609 3566 1747 
Q 3566 888 3137 398 
Q 2709 -91 1959 -91 
Q 1206 -91 779 398 
Q 353 888 353 1747 
Q 353 2609 779 3096 
Q 1206 3584 1959 3584 
z
" id="DejaVuSans-6f" transform="scale(0.015625)"/>
       <path d="M 1831 0 
L 50 4666 
L 709 4666 
L 2188 738 
L 3669 4666 
L 4325 4666 
L 2547 0 
L 1831 0 
z
" id="DejaVuSans-56" transform="scale(0.015625)"/>
       <path d="M -13 4666 
L 666 4666 
L 1959 2747 
L 3244 4666 
L 3922 4666 
L 2272 2222 
L 2272 0 
L 1638 0 
L 1638 2222 
L -13 4666 
z
" id="DejaVuSans-59" transform="scale(0.015625)"/>
       <path d="M 2631 2963 
Q 2534 3019 2420 3045 
Q 2306 3072 2169 3072 
Q 1681 3072 1420 2755 
Q 1159 2438 1159 1844 
L 1159 0 
L 581 0 
L 581 3500 
L 1159 3500 
L 1159 2956 
Q 1341 3275 1631 3429 
Q 1922 3584 2338 3584 
Q 2397 3584 2469 3576 
Q 2541 3569 2628 3553 
L 2631 2963 
z
" id="DejaVuSans-72" transform="scale(0.015625)"/>
       <path d="M 3116 1747 
Q 3116 2381 2855 2742 
Q 2594 3103 2138 3103 
Q 1681 3103 1420 2742 
Q 1159 2381 1159 1747 
Q 1159 1113 1420 752 
Q 1681 391 2138 391 
Q 2594 391 2855 752 
Q 3116 1113 3116 1747 
z
M 1159 2969 
Q 1341 3281 1617 3432 
Q 1894 3584 2278 3584 
Q 2916 3584 3314 3078 
Q 3713 2572 3713 1747 
Q 3713 922 3314 415 
Q 2916 -91 2278 -91 
Q 1894 -91 1617 61 
Q 1341 213 1159 525 
L 1159 0 
L 581 0 
L 581 4863 
L 1159 4863 
L 1159 2969 
z
" id="DejaVuSans-62" transform="scale(0.015625)"/>
       <path d="M 2059 -325 
Q 1816 -950 1584 -1140 
Q 1353 -1331 966 -1331 
L 506 -1331 
L 506 -850 
L 844 -850 
Q 1081 -850 1212 -737 
Q 1344 -625 1503 -206 
L 1606 56 
L 191 3500 
L 800 3500 
L 1894 763 
L 2988 3500 
L 3597 3500 
L 2059 -325 
z
" id="DejaVuSans-79" transform="scale(0.015625)"/>
       <path d="M 2834 3397 
L 2834 2853 
Q 2591 2978 2328 3040 
Q 2066 3103 1784 3103 
Q 1356 3103 1142 2972 
Q 928 2841 928 2578 
Q 928 2378 1081 2264 
Q 1234 2150 1697 2047 
L 1894 2003 
Q 2506 1872 2764 1633 
Q 3022 1394 3022 966 
Q 3022 478 2636 193 
Q 2250 -91 1575 -91 
Q 1294 -91 989 -36 
Q 684 19 347 128 
L 347 722 
Q 666 556 975 473 
Q 1284 391 1588 391 
Q 1994 391 2212 530 
Q 2431 669 2431 922 
Q 2431 1156 2273 1281 
Q 2116 1406 1581 1522 
L 1381 1569 
Q 847 1681 609 1914 
Q 372 2147 372 2553 
Q 372 3047 722 3315 
Q 1072 3584 1716 3584 
Q 2034 3584 2315 3537 
Q 2597 3491 2834 3397 
z
" id="DejaVuSans-73" transform="scale(0.015625)"/>
       <path d="M 1159 525 
L 1159 -1331 
L 581 -1331 
L 581 3500 
L 1159 3500 
L 1159 2969 
Q 1341 3281 1617 3432 
Q 1894 3584 2278 3584 
Q 2916 3584 3314 3078 
Q 3713 2572 3713 1747 
Q 3713 922 3314 415 
Q 2916 -91 2278 -91 
Q 1894 -91 1617 61 
Q 1341 213 1159 525 
z
M 3116 1747 
Q 3116 2381 2855 2742 
Q 2594 3103 2138 3103 
Q 1681 3103 1420 2742 
Q 1159 2381 1159 1747 
Q 1159 1113 1420 752 
Q 1681 391 2138 391 
Q 2594 391 2855 752 
Q 3116 1113 3116 1747 
z
" id="DejaVuSans-70" transform="scale(0.015625)"/>
       <path d="M 581 4863 
L 1159 4863 
L 1159 1991 
L 2875 3500 
L 3609 3500 
L 1753 1863 
L 3688 0 
L 2938 0 
L 1159 1709 
L 1159 0 
L 581 0 
L 581 4863 
z
" id="DejaVuSans-6b" transform="scale(0.015625)"/>
      </defs>
      <use xlink:href="#DejaVuSans-46"/>
      <use x="52.019531" xlink:href="#DejaVuSans-75"/>
      <use x="115.398438" xlink:href="#DejaVuSans-6e"/>
      <use x="178.777344" xlink:href="#DejaVuSans-63"/>
      <use x="233.757812" xlink:href="#DejaVuSans-74"/>
      <use x="272.966797" xlink:href="#DejaVuSans-69"/>
      <use x="300.75" xlink:href="#DejaVuSans-6f"/>
      <use x="361.931641" xlink:href="#DejaVuSans-6e"/>
      <use x="425.310547" xlink:href="#DejaVuSans-20"/>
      <use x="457.097656" xlink:href="#DejaVuSans-56"/>
      <use x="517.755859" xlink:href="#DejaVuSans-61"/>
      <use x="579.035156" xlink:href="#DejaVuSans-6c"/>
      <use x="606.818359" xlink:href="#DejaVuSans-75"/>
      <use x="670.197266" xlink:href="#DejaVuSans-65"/>
      <use x="731.720703" xlink:href="#DejaVuSans-20"/>
      <use x="763.507812" xlink:href="#DejaVuSans-28"/>
      <use x="802.521484" xlink:href="#DejaVuSans-59"/>
      <use x="863.605469" xlink:href="#DejaVuSans-20"/>
      <use x="895.392578" xlink:href="#DejaVuSans-61"/>
      <use x="956.671875" xlink:href="#DejaVuSans-72"/>
      <use x="997.785156" xlink:href="#DejaVuSans-62"/>
      <use x="1061.261719" xlink:href="#DejaVuSans-69"/>
      <use x="1089.044922" xlink:href="#DejaVuSans-74"/>
      <use x="1128.253906" xlink:href="#DejaVuSans-72"/>
      <use x="1169.367188" xlink:href="#DejaVuSans-61"/>
      <use x="1230.646484" xlink:href="#DejaVuSans-72"/>
      <use x="1271.759766" xlink:href="#DejaVuSans-69"/>
      <use x="1299.542969" xlink:href="#DejaVuSans-6c"/>
      <use x="1327.326172" xlink:href="#DejaVuSans-79"/>
      <use x="1386.505859" xlink:href="#DejaVuSans-20"/>
      <use x="1418.292969" xlink:href="#DejaVuSans-73"/>
      <use x="1470.392578" xlink:href="#DejaVuSans-65"/>
      <use x="1531.916016" xlink:href="#DejaVuSans-74"/>
      <use x="1571.125" xlink:href="#DejaVuSans-20"/>
      <use x="1602.912109" xlink:href="#DejaVuSans-74"/>
      <use x="1642.121094" xlink:href="#DejaVuSans-6f"/>
      <use x="1703.302734" xlink:href="#DejaVuSans-20"/>
      <use x="1735.089844" xlink:href="#DejaVuSans-70"/>
      <use x="1798.566406" xlink:href="#DejaVuSans-65"/>
      <use x="1860.089844" xlink:href="#DejaVuSans-61"/>
      <use x="1921.369141" xlink:href="#DejaVuSans-6b"/>
      <use x="1979.279297" xlink:href="#DejaVuSans-20"/>
      <use x="2011.066406" xlink:href="#DejaVuSans-61"/>
      <use x="2072.345703" xlink:href="#DejaVuSans-74"/>
      <use x="2111.554688" xlink:href="#DejaVuSans-20"/>
      <use x="2143.341797" xlink:href="#DejaVuSans-31"/>
      <use x="2206.964844" xlink:href="#DejaVuSans-2e"/>
      <use x="2238.751953" xlink:href="#DejaVuSans-30"/>
      <use x="2302.375" xlink:href="#DejaVuSans-29"/>
     </g>
    </g>
   </g>
   <g id="patch_3">
    <path d="M 50.87 600.28 
L 50.87 26.16 
" style="fill:none;stroke:#000000;stroke-linecap:square;stroke-linejoin:miter;stroke-width:0.8;"/>
   </g>
   <g id="patch_4">
    <path d="M 1144.8 600.28 
L 1144.8 26.16 
" style="fill:none;stroke:#000000;stroke-linecap:square;stroke-linejoin:miter;stroke-width:0.8;"/>
   </g>
   <g id="patch_5">
    <path d="M 50.87 600.28 
L 1144.8 600.28 
" style="fill:none;stroke:#000000;stroke-linecap:square;stroke-linejoin:miter;stroke-width:0.8;"/>
   </g>
   <g id="patch_6">
    <path d="M 50.87 26.16 
L 1144.8 26.16 
" style="fill:none;stroke:#000000;stroke-linecap:square;stroke-linejoin:miter;stroke-width:0.8;"/>
   </g>
   <g id="text_21">
    <!-- CIE 170-2 10$\degree$ Color Matching Functions -->
    <g transform="translate(438.315 20.16)scale(0.16 -0.16)">
     <defs>
      <path d="M 4122 4306 
L 4122 3641 
Q 3803 3938 3442 4084 
Q 3081 4231 2675 4231 
Q 1875 4231 1450 3742 
Q 1025 3253 1025 2328 
Q 1025 1406 1450 917 
Q 1875 428 2675 428 
Q 3081 428 3442 575 
Q 3803 722 4122 1019 
L 4122 359 
Q 3791 134 3420 21 
Q 3050 -91 2638 -91 
Q 1578 -91 968 557 
Q 359 1206 359 2328 
Q 359 3453 968 4101 
Q 1578 4750 2638 4750 
Q 3056 4750 3426 4639 
Q 3797 4528 4122 4306 
z
" id="DejaVuSans-43" transform="scale(0.015625)"/>
      <path d="M 628 4666 
L 1259 4666 
L 1259 0 
L 628 0 
L 628 4666 
z
" id="DejaVuSans-49" transform="scale(0.015625)"/>
      <path d="M 628 4666 
L 3578 4666 
L 3578 4134 
L 1259 4134 
L 1259 2753 
L 3481 2753 
L 3481 2222 
L 1259 2222 
L 1259 531 
L 3634 531 
L 3634 0 
L 628 0 
L 628 4666 
z
" id="DejaVuSans-45" transform="scale(0.015625)"/>
      <path d="M 313 2009 
L 1997 2009 
L 1997 1497 
L 313 1497 
L 313 2009 
z
" id="DejaVuSans-2d" transform="scale(0.015625)"/>
      <path d="M 1600 4347 
Q 1350 4347 1178 4173 
Q 1006 4000 1006 3750 
Q 1006 3503 1178 3333 
Q 1350 3163 1600 3163 
Q 1850 3163 2022 3333 
Q 2194 3503 2194 3750 
Q 2194 3997 2020 4172 
Q 1847 4347 1600 4347 
z
M 1600 4750 
Q 1800 4750 1984 4673 
Q 2169 4597 2303 4453 
Q 2447 4313 2519 4134 
Q 2591 3956 2591 3750 
Q 2591 3338 2302 3052 
Q 2013 2766 1594 2766 
Q 1172 2766 890 3047 
Q 609 3328 609 3750 
Q 609 4169 896 4459 
Q 1184 4750 1600 4750 
z
" id="DejaVuSans-b0" transform="scale(0.015625)"/>
      <path d="M 628 4666 
L 1569 4666 
L 2759 1491 
L 3956 4666 
L 4897 4666 
L 4897 0 
L 4281 0 
L 4281 4097 
L 3078 897 
L 2444 897 
L 1241 4097 
L 1241 0 
L 628 0 
L 628 4666 
z
" id="DejaVuSans-4d" transform="scale(0.015625)"/>
     </defs>
     <use transform="translate(0 0.015625)" xlink:href="#DejaVuSans-43"/>
     <use transform="translate(69.824219 0.015625)" xlink:href="#DejaVuSans-49"/>
     <use transform="translate(99.316406 0.015625)" xlink:href="#DejaVuSans-45"/>
     <use transform="translate(162.5 0.015625)" xlink:href="#DejaVuSans-20"/>
     <use transform="translate(194.287109 0.015625)" xlink:href="#DejaVuSans-31"/>
     <use transform="translate(257.910156 0.015625)" xlink:href="#DejaVuSans-37"/>
     <use transform="translate(321.533203 0.015625)" xlink:href="#DejaVuSans-30"/>
     <use transform="translate(385.15625 0.015625)" xlink:href="#DejaVuSans-2d"/>
     <use transform="translate(421.240234 0.015625)" xlink:href="#DejaVuSans-32"/>
     <use transform="translate(484.863281 0.015625)" xlink:href="#DejaVuSans-20"/>
     <use transform="translate(516.650391 0.015625)" xlink:href="#DejaVuSans-31"/>
     <use transform="translate(580.273438 0.015625)" xlink:href="#DejaVuSans-30"/>
     <use transform="translate(643.896484 0.015625)" xlink:href="#DejaVuSans-b0"/>
     <use transform="translate(693.896484 0.015625)" xlink:href="#DejaVuSans-20"/>
     <use transform="translate(725.683594 0.015625)" xlink:href="#DejaVuSans-43"/>
     <use transform="translate(795.507812 0.015625)" xlink:href="#DejaVuSans-6f"/>
     <use transform="translate(856.689453 0.015625)" xlink:href="#DejaVuSans-6c"/>
     <use transform="translate(884.472656 0.015625)" xlink:href="#DejaVuSans-6f"/>
     <use transform="translate(945.654297 0.015625)" xlink:href="#DejaVuSans-72"/>
     <use transform="translate(986.767578 0.015625)" xlink:href="#DejaVuSans-20"/>
     <use transform="translate(1018.554688 0.015625)" xlink:href="#DejaVuSans-4d"/>
     <use transform="translate(1104.833984 0.015625)" xlink:href="#DejaVuSans-61"/>
     <use transform="translate(1166.113281 0.015625)" xlink:href="#DejaVuSans-74"/>
     <use transform="translate(1205.322266 0.015625)" xlink:href="#DejaVuSans-63"/>
     <use transform="translate(1260.302734 0.015625)" xlink:href="#DejaVuSans-68"/>
     <use transform="translate(1323.681641 0.015625)" xlink:href="#DejaVuSans-69"/>
     <use transform="translate(1351.464844 0.015625)" xlink:href="#DejaVuSans-6e"/>
     <use transform="translate(1414.84375 0.015625)" xlink:href="#DejaVuSans-67"/>
     <use transform="translate(1478.320312 0.015625)" xlink:href="#DejaVuSans-20"/>
     <use transform="translate(1510.107422 0.015625)" xlink:href="#DejaVuSans-46"/>
     <use transform="translate(1567.626953 0.015625)" xlink:href="#DejaVuSans-75"/>
     <use transform="translate(1631.005859 0.015625)" xlink:href="#DejaVuSans-6e"/>
     <use transform="translate(1694.384766 0.015625)" xlink:href="#DejaVuSans-63"/>
     <use transform="translate(1749.365234 0.015625)" xlink:href="#DejaVuSans-74"/>
     <use transform="translate(1788.574219 0.015625)" xlink:href="#DejaVuSans-69"/>
     <use transform="translate(1816.357422 0.015625)" xlink:href="#DejaVuSans-6f"/>
     <use transform="translate(1877.539062 0.015625)" xlink:href="#DejaVuSans-6e"/>
     <use transform="translate(1940.917969 0.015625)" xlink:href="#DejaVuSans-73"/>
    </g>
   </g>
   <g id="legend_1">
    <g id="patch_7">
     <path d="M 1001 75.15125 
L 1137.8 75.15125 
Q 1139.8 75.15125 1139.8 73.15125 
L 1139.8 33.16 
Q 1139.8 31.16 1137.8 31.16 
L 1001 31.16 
Q 999 31.16 999 33.16 
L 999 73.15125 
Q 999 75.15125 1001 75.15125 
z
" style="fill:#ffffff;opacity:0.8;stroke:#cccccc;stroke-linejoin:miter;"/>
    </g>
    <g id="line2d_24">
     <path d="M 1003 38.66 
L 1023 38.66 
" style="fill:none;stroke:#bf00bf;stroke-linecap:square;stroke-width:2;"/>
    </g>
    <g id="line2d_25"/>
    <g id="text_22">
     <!-- Color Matching Function X -->
     <g transform="translate(1031 42.16)scale(0.08 -0.08)">
      <defs>
       <path d="M 403 4666 
L 1081 4666 
L 2241 2931 
L 3406 4666 
L 4084 4666 
L 2584 2425 
L 4184 0 
L 3506 0 
L 2194 1984 
L 872 0 
L 191 0 
L 1856 2491 
L 403 4666 
z
" id="DejaVuSans-58" transform="scale(0.015625)"/>
      </defs>
      <use xlink:href="#DejaVuSans-43"/>
      <use x="69.824219" xlink:href="#DejaVuSans-6f"/>
      <use x="131.005859" xlink:href="#DejaVuSans-6c"/>
      <use x="158.789062" xlink:href="#DejaVuSans-6f"/>
      <use x="219.970703" xlink:href="#DejaVuSans-72"/>
      <use x="261.083984" xlink:href="#DejaVuSans-20"/>
      <use x="292.871094" xlink:href="#DejaVuSans-4d"/>
      <use x="379.150391" xlink:href="#DejaVuSans-61"/>
      <use x="440.429688" xlink:href="#DejaVuSans-74"/>
      <use x="479.638672" xlink:href="#DejaVuSans-63"/>
      <use x="534.619141" xlink:href="#DejaVuSans-68"/>
      <use x="597.998047" xlink:href="#DejaVuSans-69"/>
      <use x="625.78125" xlink:href="#DejaVuSans-6e"/>
      <use x="689.160156" xlink:href="#DejaVuSans-67"/>
      <use x="752.636719" xlink:href="#DejaVuSans-20"/>
      <use x="784.423828" xlink:href="#DejaVuSans-46"/>
      <use x="836.443359" xlink:href="#DejaVuSans-75"/>
      <use x="899.822266" xlink:href="#DejaVuSans-6e"/>
      <use x="963.201172" xlink:href="#DejaVuSans-63"/>
      <use x="1018.181641" xlink:href="#DejaVuSans-74"/>
      <use x="1057.390625" xlink:href="#DejaVuSans-69"/>
      <use x="1085.173828" xlink:href="#DejaVuSans-6f"/>
      <use x="1146.355469" xlink:href="#DejaVuSans-6e"/>
      <use x="1209.734375" xlink:href="#DejaVuSans-20"/>
      <use x="1241.521484" xlink:href="#DejaVuSans-58"/>
     </g>
    </g>
    <g id="line2d_26">
     <path d="M 1003 52.32375 
L 1023 52.32375 
" style="fill:none;stroke:#ff8000;stroke-linecap:square;stroke-width:2;"/>
    </g>
    <g id="line2d_27"/>
    <g id="text_23">
     <!-- Color Matching Function Y -->
     <g transform="translate(1031 55.82375)scale(0.08 -0.08)">
      <use xlink:href="#DejaVuSans-43"/>
      <use x="69.824219" xlink:href="#DejaVuSans-6f"/>
      <use x="131.005859" xlink:href="#DejaVuSans-6c"/>
      <use x="158.789062" xlink:href="#DejaVuSans-6f"/>
      <use x="219.970703" xlink:href="#DejaVuSans-72"/>
      <use x="261.083984" xlink:href="#DejaVuSans-20"/>
      <use x="292.871094" xlink:href="#DejaVuSans-4d"/>
      <use x="379.150391" xlink:href="#DejaVuSans-61"/>
      <use x="440.429688" xlink:href="#DejaVuSans-74"/>
      <use x="479.638672" xlink:href="#DejaVuSans-63"/>
      <use x="534.619141" xlink:href="#DejaVuSans-68"/>
      <use x="597.998047" xlink:href="#DejaVuSans-69"/>
      <use x="625.78125" xlink:href="#DejaVuSans-6e"/>
      <use x="689.160156" xlink:href="#DejaVuSans-67"/>
      <use x="752.636719" xlink:href="#DejaVuSans-20"/>
      <use x="784.423828" xlink:href="#DejaVuSans-46"/>
      <use x="836.443359" xlink:href="#DejaVuSans-75"/>
      <use x="899.822266" xlink:href="#DejaVuSans-6e"/>
      <use x="963.201172" xlink:href="#DejaVuSans-63"/>
      <use x="1018.181641" xlink:href="#DejaVuSans-74"/>
      <use x="1057.390625" xlink:href="#DejaVuSans-69"/>
      <use x="1085.173828" xlink:href="#DejaVuSans-6f"/>
      <use x="1146.355469" xlink:href="#DejaVuSans-6e"/>
      <use x="1209.734375" xlink:href="#DejaVuSans-20"/>
      <use x="1241.521484" xlink:href="#DejaVuSans-59"/>
     </g>
    </g>
    <g id="line2d_28">
     <path d="M 1003 65.9875 
L 1023 65.9875 
" style="fill:none;stroke:#0000ff;stroke-linecap:square;stroke-width:2;"/>
    </g>
    <g id="line2d_29"/>
    <g id="text_24">
     <!-- Color Matching Function Z -->
     <g transform="translate(1031 69.4875)scale(0.08 -0.08)">
      <defs>
       <path d="M 359 4666 
L 4025 4666 
L 4025 4184 
L 1075 531 
L 4097 531 
L 4097 0 
L 288 0 
L 288 481 
L 3238 4134 
L 359 4134 
L 359 4666 
z
" id="DejaVuSans-5a" transform="scale(0.015625)"/>
      </defs>
      <use xlink:href="#DejaVuSans-43"/>
      <use x="69.824219" xlink:href="#DejaVuSans-6f"/>
      <use x="131.005859" xlink:href="#DejaVuSans-6c"/>
      <use x="158.789062" xlink:href="#DejaVuSans-6f"/>
      <use x="219.970703" xlink:href="#DejaVuSans-72"/>
      <use x="261.083984" xlink:href="#DejaVuSans-20"/>
      <use x="292.871094" xlink:href="#DejaVuSans-4d"/>
      <use x="379.150391" xlink:href="#DejaVuSans-61"/>
      <use x="440.429688" xlink:href="#DejaVuSans-74"/>
      <use x="479.638672" xlink:href="#DejaVuSans-63"/>
      <use x="534.619141" xlink:href="#DejaVuSans-68"/>
      <use x="597.998047" xlink:href="#DejaVuSans-69"/>
      <use x="625.78125" xlink:href="#DejaVuSans-6e"/>
      <use x="689.160156" xlink:href="#DejaVuSans-67"/>
      <use x="752.636719" xlink:href="#DejaVuSans-20"/>
      <use x="784.423828" xlink:href="#DejaVuSans-46"/>
      <use x="836.443359" xlink:href="#DejaVuSans-75"/>
      <use x="899.822266" xlink:href="#DejaVuSans-6e"/>
      <use x="963.201172" xlink:href="#DejaVuSans-63"/>
      <use x="1018.181641" xlink:href="#DejaVuSans-74"/>
      <use x="1057.390625" xlink:href="#DejaVuSans-69"/>
      <use x="1085.173828" xlink:href="#DejaVuSans-6f"/>
      <use x="1146.355469" xlink:href="#DejaVuSans-6e"/>
      <use x="1209.734375" xlink:href="#DejaVuSans-20"/>
      <use x="1241.521484" xlink:href="#DejaVuSans-5a"/>
     </g>
    </g>
   </g>
  </g>
 </g>
 <defs>
  <clipPath id="pe9c3ed9ba2">
   <rect height="574.12" width="1093.93" x="50.87" y="26.16"/>
  </clipPath>
 </defs>
</svg>
