<?xml version="1.0" encoding="utf-8" standalone="no"?>
<!DOCTYPE svg PUBLIC "-//W3C//DTD SVG 1.1//EN"
  "http://www.w3.org/Graphics/SVG/1.1/DTD/svg11.dtd">
<svg height="648pt" version="1.1" viewBox="0 0 648 648" width="648pt" xmlns="http://www.w3.org/2000/svg" xmlns:xlink="http://www.w3.org/1999/xlink">
 <metadata>
  <rdf:RDF xmlns:cc="http://creativecommons.org/ns#" xmlns:dc="http://purl.org/dc/elements/1.1/" xmlns:rdf="http://www.w3.org/1999/02/22-rdf-syntax-ns#">
   <cc:Work>
    <dc:type rdf:resource="http://purl.org/dc/dcmitype/StillImage"/>
    <dc:date>2022-06-18T04:33:38.301485</dc:date>
    <dc:format>image/svg+xml</dc:format>
    <dc:creator>
     <cc:Agent>
      <dc:title>Matplotlib v3.4.2, https://matplotlib.org/</dc:title>
     </cc:Agent>
    </dc:creator>
   </cc:Work>
  </rdf:RDF>
 </metadata>
 <defs>
  <style type="text/css">*{stroke-linecap:butt;stroke-linejoin:round;}</style>
 </defs>
 <g id="figure_1">
  <g id="patch_1">
   <path d="M 0 648 
L 648 648 
L 648 0 
L 0 0 
z
" style="fill:#ffffff;"/>
  </g>
  <g id="axes_1">
   <g id="patch_2">
    <path d="M 56.615 603.16 
L 635.055 603.16 
L 635.055 24.72 
L 56.615 24.72 
z
" style="fill:none;"/>
   </g>
   <g id="line2d_1">
    <path clip-path="url(#pecfa060f31)" d="M 56.615 562.731398 
L 635.055 562.731398 
" style="fill:none;stroke:#000000;stroke-linecap:square;stroke-width:2;"/>
   </g>
   <g id="line2d_2">
    <path clip-path="url(#pecfa060f31)" d="M 97.043602 603.16 
L 97.043602 24.72 
" style="fill:none;stroke:#000000;stroke-linecap:square;stroke-width:2;"/>
   </g>
   <g id="line2d_3">
    <path clip-path="url(#pecfa060f31)" d="M 155.290699 -1 
L 649 492.709301 
" style="fill:none;stroke:#808080;stroke-dasharray:5.55,2.4;stroke-dashoffset:0;stroke-width:1.5;"/>
   </g>
   <g id="line2d_4">
    <path clip-path="url(#pecfa060f31)" d="M 206.238147 559.438644 
L 205.250445 559.643897 
L 204.793913 559.758963 
L 204.012708 559.711692 
L 203.397571 559.413765 
L 202.284229 558.602083 
L 200.277727 556.883556 
L 196.752975 553.718307 
L 190.148185 547.835013 
L 187.52157 545.242607 
L 184.615686 542.073626 
L 182.481056 539.467536 
L 180.083329 536.177892 
L 177.332318 531.974561 
L 174.242329 526.779175 
L 170.873071 520.542597 
L 167.187849 513.037804 
L 163.135659 503.963138 
L 158.699086 493.065453 
L 153.826507 480.193608 
L 148.468784 465.164119 
L 145.630074 456.733823 
L 142.719837 447.645473 
L 139.777257 437.886008 
L 136.845872 427.470979 
L 133.936879 416.408469 
L 131.045301 404.68915 
L 128.161808 392.308046 
L 125.275828 379.262669 
L 122.39358 365.576033 
L 119.556114 351.320908 
L 116.795151 336.581261 
L 114.144279 321.452878 
L 111.635218 306.039007 
L 109.299688 290.45658 
L 107.161948 274.783344 
L 105.243145 259.077143 
L 103.559449 243.405151 
L 102.123922 227.843871 
L 100.952737 212.515211 
L 100.075747 197.557872 
L 99.520321 183.046492 
L 99.305116 169.012169 
L 99.443817 155.445574 
L 99.933314 142.337377 
L 100.782315 129.759728 
L 102.011966 117.804058 
L 103.63844 106.564284 
L 105.670444 96.131839 
L 108.093672 86.537199 
L 110.878892 77.818304 
L 114.006822 70.059744 
L 117.456936 63.328693 
L 121.208711 57.674909 
L 125.236643 53.087817 
L 129.496574 49.497135 
L 133.943098 46.846263 
L 138.539519 45.074868 
L 143.257848 44.123863 
L 148.078804 43.945355 
L 152.985592 44.44356 
L 157.960176 45.498436 
L 162.986384 47.000514 
L 168.049289 48.848412 
L 173.140805 50.986152 
L 178.240407 53.375793 
L 183.313263 55.959492 
L 188.333252 58.683136 
L 198.136877 64.378593 
L 207.662477 70.319109 
L 217.008326 76.574969 
L 226.222316 83.15177 
L 235.332435 90.015302 
L 244.380978 97.165567 
L 253.385982 104.578307 
L 262.349937 112.217447 
L 271.277816 120.053754 
L 284.634804 132.13071 
L 297.983706 144.533583 
L 315.771047 161.448289 
L 337.985009 182.987404 
L 364.487513 209.043949 
L 399.083823 243.41448 
L 507.030679 350.914756 
L 541.156151 384.889709 
L 554.004982 397.714283 
L 554.004982 397.714283 
L 206.238147 559.438644 
L 206.238147 559.438644 
" style="fill:none;stroke:#bf0000;stroke-dasharray:9.6,2.4,1.5,2.4;stroke-dashoffset:0;stroke-width:1.5;"/>
   </g>
   <g id="line2d_5">
    <defs>
     <path d="M 0 8 
C 2.121625 8 4.156639 7.15707 5.656854 5.656854 
C 7.15707 4.156639 8 2.121625 8 0 
C 8 -2.121625 7.15707 -4.156639 5.656854 -5.656854 
C 4.156639 -7.15707 2.121625 -8 0 -8 
C -2.121625 -8 -4.156639 -7.15707 -5.656854 -5.656854 
C -7.15707 -4.156639 -8 -2.121625 -8 0 
C -8 2.121625 -7.15707 4.156639 -5.656854 5.656854 
C -4.156639 7.15707 -2.121625 8 0 8 
z
" id="mc7fb2ac4a0" style="stroke:#bf0000;"/>
    </defs>
    <g clip-path="url(#pecfa060f31)">
     <use style="fill-opacity:0;stroke:#bf0000;" x="291.542497" xlink:href="#mc7fb2ac4a0" y="358.088034"/>
    </g>
   </g>
   <g id="matplotlib.axis_1">
    <g id="xtick_1">
     <g id="line2d_6">
      <defs>
       <path d="M 0 0 
L 0 3.5 
" id="m84fff4cc7c" style="stroke:#000000;stroke-width:0.8;"/>
      </defs>
      <g>
       <use style="stroke:#000000;stroke-width:0.8;" x="97.043602" xlink:href="#m84fff4cc7c" y="603.16"/>
      </g>
     </g>
     <g id="text_1">
      <!-- 0.0 -->
      <g transform="translate(87.501727 619.278125)scale(0.12 -0.12)">
       <defs>
        <path d="M 2034 4250 
Q 1547 4250 1301 3770 
Q 1056 3291 1056 2328 
Q 1056 1369 1301 889 
Q 1547 409 2034 409 
Q 2525 409 2770 889 
Q 3016 1369 3016 2328 
Q 3016 3291 2770 3770 
Q 2525 4250 2034 4250 
z
M 2034 4750 
Q 2819 4750 3233 4129 
Q 3647 3509 3647 2328 
Q 3647 1150 3233 529 
Q 2819 -91 2034 -91 
Q 1250 -91 836 529 
Q 422 1150 422 2328 
Q 422 3509 836 4129 
Q 1250 4750 2034 4750 
z
" id="DejaVuSans-30" transform="scale(0.015625)"/>
        <path d="M 684 794 
L 1344 794 
L 1344 0 
L 684 0 
L 684 794 
z
" id="DejaVuSans-2e" transform="scale(0.015625)"/>
       </defs>
       <use xlink:href="#DejaVuSans-30"/>
       <use x="63.623047" xlink:href="#DejaVuSans-2e"/>
       <use x="95.410156" xlink:href="#DejaVuSans-30"/>
      </g>
     </g>
    </g>
    <g id="xtick_2">
     <g id="line2d_7">
      <g>
       <use style="stroke:#000000;stroke-width:0.8;" x="159.241452" xlink:href="#m84fff4cc7c" y="603.16"/>
      </g>
     </g>
     <g id="text_2">
      <!-- 0.1 -->
      <g transform="translate(149.699577 619.278125)scale(0.12 -0.12)">
       <defs>
        <path d="M 794 531 
L 1825 531 
L 1825 4091 
L 703 3866 
L 703 4441 
L 1819 4666 
L 2450 4666 
L 2450 531 
L 3481 531 
L 3481 0 
L 794 0 
L 794 531 
z
" id="DejaVuSans-31" transform="scale(0.015625)"/>
       </defs>
       <use xlink:href="#DejaVuSans-30"/>
       <use x="63.623047" xlink:href="#DejaVuSans-2e"/>
       <use x="95.410156" xlink:href="#DejaVuSans-31"/>
      </g>
     </g>
    </g>
    <g id="xtick_3">
     <g id="line2d_8">
      <g>
       <use style="stroke:#000000;stroke-width:0.8;" x="221.439301" xlink:href="#m84fff4cc7c" y="603.16"/>
      </g>
     </g>
     <g id="text_3">
      <!-- 0.2 -->
      <g transform="translate(211.897426 619.278125)scale(0.12 -0.12)">
       <defs>
        <path d="M 1228 531 
L 3431 531 
L 3431 0 
L 469 0 
L 469 531 
Q 828 903 1448 1529 
Q 2069 2156 2228 2338 
Q 2531 2678 2651 2914 
Q 2772 3150 2772 3378 
Q 2772 3750 2511 3984 
Q 2250 4219 1831 4219 
Q 1534 4219 1204 4116 
Q 875 4013 500 3803 
L 500 4441 
Q 881 4594 1212 4672 
Q 1544 4750 1819 4750 
Q 2544 4750 2975 4387 
Q 3406 4025 3406 3419 
Q 3406 3131 3298 2873 
Q 3191 2616 2906 2266 
Q 2828 2175 2409 1742 
Q 1991 1309 1228 531 
z
" id="DejaVuSans-32" transform="scale(0.015625)"/>
       </defs>
       <use xlink:href="#DejaVuSans-30"/>
       <use x="63.623047" xlink:href="#DejaVuSans-2e"/>
       <use x="95.410156" xlink:href="#DejaVuSans-32"/>
      </g>
     </g>
    </g>
    <g id="xtick_4">
     <g id="line2d_9">
      <g>
       <use style="stroke:#000000;stroke-width:0.8;" x="283.637151" xlink:href="#m84fff4cc7c" y="603.16"/>
      </g>
     </g>
     <g id="text_4">
      <!-- 0.3 -->
      <g transform="translate(274.095276 619.278125)scale(0.12 -0.12)">
       <defs>
        <path d="M 2597 2516 
Q 3050 2419 3304 2112 
Q 3559 1806 3559 1356 
Q 3559 666 3084 287 
Q 2609 -91 1734 -91 
Q 1441 -91 1130 -33 
Q 819 25 488 141 
L 488 750 
Q 750 597 1062 519 
Q 1375 441 1716 441 
Q 2309 441 2620 675 
Q 2931 909 2931 1356 
Q 2931 1769 2642 2001 
Q 2353 2234 1838 2234 
L 1294 2234 
L 1294 2753 
L 1863 2753 
Q 2328 2753 2575 2939 
Q 2822 3125 2822 3475 
Q 2822 3834 2567 4026 
Q 2313 4219 1838 4219 
Q 1578 4219 1281 4162 
Q 984 4106 628 3988 
L 628 4550 
Q 988 4650 1302 4700 
Q 1616 4750 1894 4750 
Q 2613 4750 3031 4423 
Q 3450 4097 3450 3541 
Q 3450 3153 3228 2886 
Q 3006 2619 2597 2516 
z
" id="DejaVuSans-33" transform="scale(0.015625)"/>
       </defs>
       <use xlink:href="#DejaVuSans-30"/>
       <use x="63.623047" xlink:href="#DejaVuSans-2e"/>
       <use x="95.410156" xlink:href="#DejaVuSans-33"/>
      </g>
     </g>
    </g>
    <g id="xtick_5">
     <g id="line2d_10">
      <g>
       <use style="stroke:#000000;stroke-width:0.8;" x="345.835" xlink:href="#m84fff4cc7c" y="603.16"/>
      </g>
     </g>
     <g id="text_5">
      <!-- 0.4 -->
      <g transform="translate(336.293125 619.278125)scale(0.12 -0.12)">
       <defs>
        <path d="M 2419 4116 
L 825 1625 
L 2419 1625 
L 2419 4116 
z
M 2253 4666 
L 3047 4666 
L 3047 1625 
L 3713 1625 
L 3713 1100 
L 3047 1100 
L 3047 0 
L 2419 0 
L 2419 1100 
L 313 1100 
L 313 1709 
L 2253 4666 
z
" id="DejaVuSans-34" transform="scale(0.015625)"/>
       </defs>
       <use xlink:href="#DejaVuSans-30"/>
       <use x="63.623047" xlink:href="#DejaVuSans-2e"/>
       <use x="95.410156" xlink:href="#DejaVuSans-34"/>
      </g>
     </g>
    </g>
    <g id="xtick_6">
     <g id="line2d_11">
      <g>
       <use style="stroke:#000000;stroke-width:0.8;" x="408.032849" xlink:href="#m84fff4cc7c" y="603.16"/>
      </g>
     </g>
     <g id="text_6">
      <!-- 0.5 -->
      <g transform="translate(398.490974 619.278125)scale(0.12 -0.12)">
       <defs>
        <path d="M 691 4666 
L 3169 4666 
L 3169 4134 
L 1269 4134 
L 1269 2991 
Q 1406 3038 1543 3061 
Q 1681 3084 1819 3084 
Q 2600 3084 3056 2656 
Q 3513 2228 3513 1497 
Q 3513 744 3044 326 
Q 2575 -91 1722 -91 
Q 1428 -91 1123 -41 
Q 819 9 494 109 
L 494 744 
Q 775 591 1075 516 
Q 1375 441 1709 441 
Q 2250 441 2565 725 
Q 2881 1009 2881 1497 
Q 2881 1984 2565 2268 
Q 2250 2553 1709 2553 
Q 1456 2553 1204 2497 
Q 953 2441 691 2322 
L 691 4666 
z
" id="DejaVuSans-35" transform="scale(0.015625)"/>
       </defs>
       <use xlink:href="#DejaVuSans-30"/>
       <use x="63.623047" xlink:href="#DejaVuSans-2e"/>
       <use x="95.410156" xlink:href="#DejaVuSans-35"/>
      </g>
     </g>
    </g>
    <g id="xtick_7">
     <g id="line2d_12">
      <g>
       <use style="stroke:#000000;stroke-width:0.8;" x="470.230699" xlink:href="#m84fff4cc7c" y="603.16"/>
      </g>
     </g>
     <g id="text_7">
      <!-- 0.6 -->
      <g transform="translate(460.688824 619.278125)scale(0.12 -0.12)">
       <defs>
        <path d="M 2113 2584 
Q 1688 2584 1439 2293 
Q 1191 2003 1191 1497 
Q 1191 994 1439 701 
Q 1688 409 2113 409 
Q 2538 409 2786 701 
Q 3034 994 3034 1497 
Q 3034 2003 2786 2293 
Q 2538 2584 2113 2584 
z
M 3366 4563 
L 3366 3988 
Q 3128 4100 2886 4159 
Q 2644 4219 2406 4219 
Q 1781 4219 1451 3797 
Q 1122 3375 1075 2522 
Q 1259 2794 1537 2939 
Q 1816 3084 2150 3084 
Q 2853 3084 3261 2657 
Q 3669 2231 3669 1497 
Q 3669 778 3244 343 
Q 2819 -91 2113 -91 
Q 1303 -91 875 529 
Q 447 1150 447 2328 
Q 447 3434 972 4092 
Q 1497 4750 2381 4750 
Q 2619 4750 2861 4703 
Q 3103 4656 3366 4563 
z
" id="DejaVuSans-36" transform="scale(0.015625)"/>
       </defs>
       <use xlink:href="#DejaVuSans-30"/>
       <use x="63.623047" xlink:href="#DejaVuSans-2e"/>
       <use x="95.410156" xlink:href="#DejaVuSans-36"/>
      </g>
     </g>
    </g>
    <g id="xtick_8">
     <g id="line2d_13">
      <g>
       <use style="stroke:#000000;stroke-width:0.8;" x="532.428548" xlink:href="#m84fff4cc7c" y="603.16"/>
      </g>
     </g>
     <g id="text_8">
      <!-- 0.7 -->
      <g transform="translate(522.886673 619.278125)scale(0.12 -0.12)">
       <defs>
        <path d="M 525 4666 
L 3525 4666 
L 3525 4397 
L 1831 0 
L 1172 0 
L 2766 4134 
L 525 4134 
L 525 4666 
z
" id="DejaVuSans-37" transform="scale(0.015625)"/>
       </defs>
       <use xlink:href="#DejaVuSans-30"/>
       <use x="63.623047" xlink:href="#DejaVuSans-2e"/>
       <use x="95.410156" xlink:href="#DejaVuSans-37"/>
      </g>
     </g>
    </g>
    <g id="xtick_9">
     <g id="line2d_14">
      <g>
       <use style="stroke:#000000;stroke-width:0.8;" x="594.626398" xlink:href="#m84fff4cc7c" y="603.16"/>
      </g>
     </g>
     <g id="text_9">
      <!-- 0.8 -->
      <g transform="translate(585.084523 619.278125)scale(0.12 -0.12)">
       <defs>
        <path d="M 2034 2216 
Q 1584 2216 1326 1975 
Q 1069 1734 1069 1313 
Q 1069 891 1326 650 
Q 1584 409 2034 409 
Q 2484 409 2743 651 
Q 3003 894 3003 1313 
Q 3003 1734 2745 1975 
Q 2488 2216 2034 2216 
z
M 1403 2484 
Q 997 2584 770 2862 
Q 544 3141 544 3541 
Q 544 4100 942 4425 
Q 1341 4750 2034 4750 
Q 2731 4750 3128 4425 
Q 3525 4100 3525 3541 
Q 3525 3141 3298 2862 
Q 3072 2584 2669 2484 
Q 3125 2378 3379 2068 
Q 3634 1759 3634 1313 
Q 3634 634 3220 271 
Q 2806 -91 2034 -91 
Q 1263 -91 848 271 
Q 434 634 434 1313 
Q 434 1759 690 2068 
Q 947 2378 1403 2484 
z
M 1172 3481 
Q 1172 3119 1398 2916 
Q 1625 2713 2034 2713 
Q 2441 2713 2670 2916 
Q 2900 3119 2900 3481 
Q 2900 3844 2670 4047 
Q 2441 4250 2034 4250 
Q 1625 4250 1398 4047 
Q 1172 3844 1172 3481 
z
" id="DejaVuSans-38" transform="scale(0.015625)"/>
       </defs>
       <use xlink:href="#DejaVuSans-30"/>
       <use x="63.623047" xlink:href="#DejaVuSans-2e"/>
       <use x="95.410156" xlink:href="#DejaVuSans-38"/>
      </g>
     </g>
    </g>
    <g id="text_10">
     <!-- x -->
     <g transform="translate(341.691875 636.411562)scale(0.14 -0.14)">
      <defs>
       <path d="M 3513 3500 
L 2247 1797 
L 3578 0 
L 2900 0 
L 1881 1375 
L 863 0 
L 184 0 
L 1544 1831 
L 300 3500 
L 978 3500 
L 1906 2253 
L 2834 3500 
L 3513 3500 
z
" id="DejaVuSans-78" transform="scale(0.015625)"/>
      </defs>
      <use xlink:href="#DejaVuSans-78"/>
     </g>
    </g>
   </g>
   <g id="matplotlib.axis_2">
    <g id="ytick_1">
     <g id="line2d_15">
      <defs>
       <path d="M 0 0 
L -3.5 0 
" id="mc76292b7e1" style="stroke:#000000;stroke-width:0.8;"/>
      </defs>
      <g>
       <use style="stroke:#000000;stroke-width:0.8;" x="56.615" xlink:href="#mc76292b7e1" y="562.731398"/>
      </g>
     </g>
     <g id="text_11">
      <!-- 0.0 -->
      <g transform="translate(30.53125 567.29046)scale(0.12 -0.12)">
       <use xlink:href="#DejaVuSans-30"/>
       <use x="63.623047" xlink:href="#DejaVuSans-2e"/>
       <use x="95.410156" xlink:href="#DejaVuSans-30"/>
      </g>
     </g>
    </g>
    <g id="ytick_2">
     <g id="line2d_16">
      <g>
       <use style="stroke:#000000;stroke-width:0.8;" x="56.615" xlink:href="#mc76292b7e1" y="500.533548"/>
      </g>
     </g>
     <g id="text_12">
      <!-- 0.1 -->
      <g transform="translate(30.53125 505.092611)scale(0.12 -0.12)">
       <use xlink:href="#DejaVuSans-30"/>
       <use x="63.623047" xlink:href="#DejaVuSans-2e"/>
       <use x="95.410156" xlink:href="#DejaVuSans-31"/>
      </g>
     </g>
    </g>
    <g id="ytick_3">
     <g id="line2d_17">
      <g>
       <use style="stroke:#000000;stroke-width:0.8;" x="56.615" xlink:href="#mc76292b7e1" y="438.335699"/>
      </g>
     </g>
     <g id="text_13">
      <!-- 0.2 -->
      <g transform="translate(30.53125 442.894761)scale(0.12 -0.12)">
       <use xlink:href="#DejaVuSans-30"/>
       <use x="63.623047" xlink:href="#DejaVuSans-2e"/>
       <use x="95.410156" xlink:href="#DejaVuSans-32"/>
      </g>
     </g>
    </g>
    <g id="ytick_4">
     <g id="line2d_18">
      <g>
       <use style="stroke:#000000;stroke-width:0.8;" x="56.615" xlink:href="#mc76292b7e1" y="376.137849"/>
      </g>
     </g>
     <g id="text_14">
      <!-- 0.3 -->
      <g transform="translate(30.53125 380.696912)scale(0.12 -0.12)">
       <use xlink:href="#DejaVuSans-30"/>
       <use x="63.623047" xlink:href="#DejaVuSans-2e"/>
       <use x="95.410156" xlink:href="#DejaVuSans-33"/>
      </g>
     </g>
    </g>
    <g id="ytick_5">
     <g id="line2d_19">
      <g>
       <use style="stroke:#000000;stroke-width:0.8;" x="56.615" xlink:href="#mc76292b7e1" y="313.94"/>
      </g>
     </g>
     <g id="text_15">
      <!-- 0.4 -->
      <g transform="translate(30.53125 318.499062)scale(0.12 -0.12)">
       <use xlink:href="#DejaVuSans-30"/>
       <use x="63.623047" xlink:href="#DejaVuSans-2e"/>
       <use x="95.410156" xlink:href="#DejaVuSans-34"/>
      </g>
     </g>
    </g>
    <g id="ytick_6">
     <g id="line2d_20">
      <g>
       <use style="stroke:#000000;stroke-width:0.8;" x="56.615" xlink:href="#mc76292b7e1" y="251.742151"/>
      </g>
     </g>
     <g id="text_16">
      <!-- 0.5 -->
      <g transform="translate(30.53125 256.301213)scale(0.12 -0.12)">
       <use xlink:href="#DejaVuSans-30"/>
       <use x="63.623047" xlink:href="#DejaVuSans-2e"/>
       <use x="95.410156" xlink:href="#DejaVuSans-35"/>
      </g>
     </g>
    </g>
    <g id="ytick_7">
     <g id="line2d_21">
      <g>
       <use style="stroke:#000000;stroke-width:0.8;" x="56.615" xlink:href="#mc76292b7e1" y="189.544301"/>
      </g>
     </g>
     <g id="text_17">
      <!-- 0.6 -->
      <g transform="translate(30.53125 194.103364)scale(0.12 -0.12)">
       <use xlink:href="#DejaVuSans-30"/>
       <use x="63.623047" xlink:href="#DejaVuSans-2e"/>
       <use x="95.410156" xlink:href="#DejaVuSans-36"/>
      </g>
     </g>
    </g>
    <g id="ytick_8">
     <g id="line2d_22">
      <g>
       <use style="stroke:#000000;stroke-width:0.8;" x="56.615" xlink:href="#mc76292b7e1" y="127.346452"/>
      </g>
     </g>
     <g id="text_18">
      <!-- 0.7 -->
      <g transform="translate(30.53125 131.905514)scale(0.12 -0.12)">
       <use xlink:href="#DejaVuSans-30"/>
       <use x="63.623047" xlink:href="#DejaVuSans-2e"/>
       <use x="95.410156" xlink:href="#DejaVuSans-37"/>
      </g>
     </g>
    </g>
    <g id="ytick_9">
     <g id="line2d_23">
      <g>
       <use style="stroke:#000000;stroke-width:0.8;" x="56.615" xlink:href="#mc76292b7e1" y="65.148602"/>
      </g>
     </g>
     <g id="text_19">
      <!-- 0.8 -->
      <g transform="translate(30.53125 69.707665)scale(0.12 -0.12)">
       <use xlink:href="#DejaVuSans-30"/>
       <use x="63.623047" xlink:href="#DejaVuSans-2e"/>
       <use x="95.410156" xlink:href="#DejaVuSans-38"/>
      </g>
     </g>
    </g>
    <g id="text_20">
     <!-- y -->
     <g transform="translate(23.619687 318.083125)rotate(-90)scale(0.14 -0.14)">
      <defs>
       <path d="M 2059 -325 
Q 1816 -950 1584 -1140 
Q 1353 -1331 966 -1331 
L 506 -1331 
L 506 -850 
L 844 -850 
Q 1081 -850 1212 -737 
Q 1344 -625 1503 -206 
L 1606 56 
L 191 3500 
L 800 3500 
L 1894 763 
L 2988 3500 
L 3597 3500 
L 2059 -325 
z
" id="DejaVuSans-79" transform="scale(0.015625)"/>
      </defs>
      <use xlink:href="#DejaVuSans-79"/>
     </g>
    </g>
   </g>
   <g id="line2d_24">
    <path clip-path="url(#pecfa060f31)" d="M 210.379279 550.305511 
L 206.425362 551.423207 
L 203.500819 551.681328 
L 202.170407 551.359143 
L 200.76598 550.7608 
L 199.328588 549.867639 
L 197.909855 548.744967 
L 196.3773 547.210546 
L 193.693462 544.061469 
L 192.142248 541.920619 
L 190.346596 539.042725 
L 187.818254 534.607396 
L 184.506218 528.211591 
L 174.543367 508.010974 
L 170.80341 499.873629 
L 168.683085 494.910863 
L 159.250159 470.853979 
L 153.83708 456.208251 
L 151.01703 448.100761 
L 148.143489 439.409234 
L 145.23574 430.106301 
L 139.223696 409.388198 
L 132.359541 385.405951 
L 128.758286 372.449517 
L 125.153298 359.010428 
L 121.631034 345.214323 
L 118.281058 331.191818 
L 115.184227 317.062332 
L 112.43135 302.954616 
L 110.097065 288.990577 
L 108.055731 274.704353 
L 106.141904 259.704719 
L 104.396632 244.234248 
L 102.864077 228.536755 
L 101.585289 212.854189 
L 100.604429 197.430366 
L 99.965035 182.507858 
L 99.706292 168.329237 
L 99.879202 155.140183 
L 100.517974 143.180158 
L 101.668012 132.211567 
L 103.307548 121.848784 
L 105.384956 112.117308 
L 107.849857 103.040776 
L 110.64876 94.644066 
L 113.730041 86.947704 
L 117.043943 79.988387 
L 120.536974 73.777932 
L 124.160621 68.347438 
L 127.856417 63.716808 
L 131.750002 60.060818 
L 135.950845 57.450374 
L 140.411675 55.751129 
L 145.087709 54.844906 
L 149.926702 54.589895 
L 154.884492 54.873517 
L 159.912566 55.564536 
L 164.963032 56.535444 
L 174.937701 58.808153 
L 179.901089 60.202629 
L 184.978922 62.102151 
L 190.123306 64.412802 
L 195.326778 67.082333 
L 200.545799 70.01745 
L 205.749894 73.152843 
L 216.003209 79.706009 
L 230.545066 89.244049 
L 235.163879 92.45719 
L 244.172615 99.121068 
L 252.954951 106.031871 
L 265.970473 116.710619 
L 278.996569 127.653709 
L 287.592934 135.175295 
L 300.37086 146.704288 
L 317.274991 162.309729 
L 329.92479 174.230569 
L 342.438997 186.301305 
L 354.67518 198.384481 
L 545.091409 388.80071 
L 539.595607 383.304908 
L 210.379279 550.305511 
L 210.379279 550.305511 
" style="fill:none;stroke:#008000;stroke-dasharray:1.5,2.475;stroke-dashoffset:0;stroke-width:1.5;"/>
   </g>
   <g id="line2d_25">
    <defs>
     <path d="M 0 6 
C 1.591219 6 3.117479 5.367802 4.242641 4.242641 
C 5.367802 3.117479 6 1.591219 6 0 
C 6 -1.591219 5.367802 -3.117479 4.242641 -4.242641 
C 3.117479 -5.367802 1.591219 -6 0 -6 
C -1.591219 -6 -3.117479 -5.367802 -4.242641 -4.242641 
C -5.367802 -3.117479 -6 -1.591219 -6 0 
C -6 1.591219 -5.367802 3.117479 -4.242641 4.242641 
C -3.117479 5.367802 -1.591219 6 0 6 
z
" id="m8bc116d6e1" style="stroke:#008000;"/>
    </defs>
    <g clip-path="url(#pecfa060f31)">
     <use style="fill-opacity:0;stroke:#008000;" x="292.232893" xlink:href="#m8bc116d6e1" y="356.856516"/>
    </g>
   </g>
   <g id="patch_3">
    <path d="M 56.615 603.16 
L 56.615 24.72 
" style="fill:none;stroke:#000000;stroke-linecap:square;stroke-linejoin:miter;stroke-width:0.8;"/>
   </g>
   <g id="patch_4">
    <path d="M 635.055 603.16 
L 635.055 24.72 
" style="fill:none;stroke:#000000;stroke-linecap:square;stroke-linejoin:miter;stroke-width:0.8;"/>
   </g>
   <g id="patch_5">
    <path d="M 56.615 603.16 
L 635.055 603.16 
" style="fill:none;stroke:#000000;stroke-linecap:square;stroke-linejoin:miter;stroke-width:0.8;"/>
   </g>
   <g id="patch_6">
    <path d="M 56.615 24.72 
L 635.055 24.72 
" style="fill:none;stroke:#000000;stroke-linecap:square;stroke-linejoin:miter;stroke-width:0.8;"/>
   </g>
   <g id="line2d_26">
    <path clip-path="url(#pecfa060f31)" d="M 200.528384 551.349191 
L 200.416428 551.119059 
L 200.161417 551.08796 
L 199.800669 551.262114 
L 199.122713 551.921412 
L 198.550492 552.381676 
L 197.343854 552.817061 
L 196.522843 552.879258 
L 195.540117 552.642907 
L 194.246401 552.083126 
L 192.728774 551.019543 
L 190.564289 549.215805 
L 188.393584 546.870946 
L 187.186945 545.347099 
L 185.806153 543.244812 
L 180.338962 534.195025 
L 177.676894 529.244076 
L 174.517243 522.862576 
L 170.549021 514.385009 
L 167.408029 507.238477 
L 163.819213 498.624074 
L 159.726595 488.249473 
L 155.067976 475.834782 
L 149.893115 461.299145 
L 144.307748 444.723418 
L 138.398952 426.057843 
L 135.326378 415.851176 
L 132.191607 405.003871 
L 129.000857 393.47861 
L 125.791448 381.306491 
L 122.594479 368.524833 
L 119.459707 355.208273 
L 116.430672 341.431449 
L 113.550911 327.293878 
L 110.863964 312.851538 
L 108.407149 298.197724 
L 106.230225 283.407076 
L 104.370509 268.572889 
L 102.846662 253.77602 
L 101.652463 238.997811 
L 100.750594 224.225822 
L 100.091297 209.416514 
L 99.643472 194.557448 
L 99.369802 179.636184 
L 99.307604 164.764678 
L 99.487978 150.073546 
L 99.973121 135.705843 
L 100.806572 121.810843 
L 102.03187 108.575141 
L 103.717431 96.291065 
L 105.900576 85.232288 
L 108.612402 75.604061 
L 111.85913 67.52456 
L 115.597221 61.018665 
L 119.714718 55.831364 
L 124.068568 51.707647 
L 128.528154 48.404941 
L 132.993959 45.711774 
L 137.378908 43.478871 
L 141.720317 41.731112 
L 146.067947 40.524474 
L 150.490214 39.896275 
L 155.024437 39.877616 
L 159.714155 40.468495 
L 164.522049 41.600496 
L 169.41702 43.174102 
L 174.361749 45.114675 
L 179.312698 47.353797 
L 184.244987 49.829272 
L 189.133738 52.49756 
L 193.960291 55.321342 
L 198.699767 58.26952 
L 207.88017 64.408448 
L 216.755803 70.845925 
L 225.631436 77.712568 
L 234.687443 85.114112 
L 243.780769 92.863964 
L 252.724819 100.738212 
L 265.755269 112.568243 
L 282.604666 128.335397 
L 303.217034 148.101874 
L 325.01738 169.410857 
L 359.219977 203.221608 
L 410.881511 254.671669 
L 546.914428 390.623729 
L 541.241984 384.951285 
L 200.528384 551.349191 
L 200.528384 551.349191 
" style="fill:none;stroke:#0000bf;stroke-dasharray:5.55,2.4;stroke-dashoffset:0;stroke-width:1.5;"/>
   </g>
   <g id="text_21">
    <!-- Comparison of CIE Standard Chromaticity Spaces -->
    <g transform="translate(148.36 18.72)scale(0.16 -0.16)">
     <defs>
      <path d="M 4122 4306 
L 4122 3641 
Q 3803 3938 3442 4084 
Q 3081 4231 2675 4231 
Q 1875 4231 1450 3742 
Q 1025 3253 1025 2328 
Q 1025 1406 1450 917 
Q 1875 428 2675 428 
Q 3081 428 3442 575 
Q 3803 722 4122 1019 
L 4122 359 
Q 3791 134 3420 21 
Q 3050 -91 2638 -91 
Q 1578 -91 968 557 
Q 359 1206 359 2328 
Q 359 3453 968 4101 
Q 1578 4750 2638 4750 
Q 3056 4750 3426 4639 
Q 3797 4528 4122 4306 
z
" id="DejaVuSans-43" transform="scale(0.015625)"/>
      <path d="M 1959 3097 
Q 1497 3097 1228 2736 
Q 959 2375 959 1747 
Q 959 1119 1226 758 
Q 1494 397 1959 397 
Q 2419 397 2687 759 
Q 2956 1122 2956 1747 
Q 2956 2369 2687 2733 
Q 2419 3097 1959 3097 
z
M 1959 3584 
Q 2709 3584 3137 3096 
Q 3566 2609 3566 1747 
Q 3566 888 3137 398 
Q 2709 -91 1959 -91 
Q 1206 -91 779 398 
Q 353 888 353 1747 
Q 353 2609 779 3096 
Q 1206 3584 1959 3584 
z
" id="DejaVuSans-6f" transform="scale(0.015625)"/>
      <path d="M 3328 2828 
Q 3544 3216 3844 3400 
Q 4144 3584 4550 3584 
Q 5097 3584 5394 3201 
Q 5691 2819 5691 2113 
L 5691 0 
L 5113 0 
L 5113 2094 
Q 5113 2597 4934 2840 
Q 4756 3084 4391 3084 
Q 3944 3084 3684 2787 
Q 3425 2491 3425 1978 
L 3425 0 
L 2847 0 
L 2847 2094 
Q 2847 2600 2669 2842 
Q 2491 3084 2119 3084 
Q 1678 3084 1418 2786 
Q 1159 2488 1159 1978 
L 1159 0 
L 581 0 
L 581 3500 
L 1159 3500 
L 1159 2956 
Q 1356 3278 1631 3431 
Q 1906 3584 2284 3584 
Q 2666 3584 2933 3390 
Q 3200 3197 3328 2828 
z
" id="DejaVuSans-6d" transform="scale(0.015625)"/>
      <path d="M 1159 525 
L 1159 -1331 
L 581 -1331 
L 581 3500 
L 1159 3500 
L 1159 2969 
Q 1341 3281 1617 3432 
Q 1894 3584 2278 3584 
Q 2916 3584 3314 3078 
Q 3713 2572 3713 1747 
Q 3713 922 3314 415 
Q 2916 -91 2278 -91 
Q 1894 -91 1617 61 
Q 1341 213 1159 525 
z
M 3116 1747 
Q 3116 2381 2855 2742 
Q 2594 3103 2138 3103 
Q 1681 3103 1420 2742 
Q 1159 2381 1159 1747 
Q 1159 1113 1420 752 
Q 1681 391 2138 391 
Q 2594 391 2855 752 
Q 3116 1113 3116 1747 
z
" id="DejaVuSans-70" transform="scale(0.015625)"/>
      <path d="M 2194 1759 
Q 1497 1759 1228 1600 
Q 959 1441 959 1056 
Q 959 750 1161 570 
Q 1363 391 1709 391 
Q 2188 391 2477 730 
Q 2766 1069 2766 1631 
L 2766 1759 
L 2194 1759 
z
M 3341 1997 
L 3341 0 
L 2766 0 
L 2766 531 
Q 2569 213 2275 61 
Q 1981 -91 1556 -91 
Q 1019 -91 701 211 
Q 384 513 384 1019 
Q 384 1609 779 1909 
Q 1175 2209 1959 2209 
L 2766 2209 
L 2766 2266 
Q 2766 2663 2505 2880 
Q 2244 3097 1772 3097 
Q 1472 3097 1187 3025 
Q 903 2953 641 2809 
L 641 3341 
Q 956 3463 1253 3523 
Q 1550 3584 1831 3584 
Q 2591 3584 2966 3190 
Q 3341 2797 3341 1997 
z
" id="DejaVuSans-61" transform="scale(0.015625)"/>
      <path d="M 2631 2963 
Q 2534 3019 2420 3045 
Q 2306 3072 2169 3072 
Q 1681 3072 1420 2755 
Q 1159 2438 1159 1844 
L 1159 0 
L 581 0 
L 581 3500 
L 1159 3500 
L 1159 2956 
Q 1341 3275 1631 3429 
Q 1922 3584 2338 3584 
Q 2397 3584 2469 3576 
Q 2541 3569 2628 3553 
L 2631 2963 
z
" id="DejaVuSans-72" transform="scale(0.015625)"/>
      <path d="M 603 3500 
L 1178 3500 
L 1178 0 
L 603 0 
L 603 3500 
z
M 603 4863 
L 1178 4863 
L 1178 4134 
L 603 4134 
L 603 4863 
z
" id="DejaVuSans-69" transform="scale(0.015625)"/>
      <path d="M 2834 3397 
L 2834 2853 
Q 2591 2978 2328 3040 
Q 2066 3103 1784 3103 
Q 1356 3103 1142 2972 
Q 928 2841 928 2578 
Q 928 2378 1081 2264 
Q 1234 2150 1697 2047 
L 1894 2003 
Q 2506 1872 2764 1633 
Q 3022 1394 3022 966 
Q 3022 478 2636 193 
Q 2250 -91 1575 -91 
Q 1294 -91 989 -36 
Q 684 19 347 128 
L 347 722 
Q 666 556 975 473 
Q 1284 391 1588 391 
Q 1994 391 2212 530 
Q 2431 669 2431 922 
Q 2431 1156 2273 1281 
Q 2116 1406 1581 1522 
L 1381 1569 
Q 847 1681 609 1914 
Q 372 2147 372 2553 
Q 372 3047 722 3315 
Q 1072 3584 1716 3584 
Q 2034 3584 2315 3537 
Q 2597 3491 2834 3397 
z
" id="DejaVuSans-73" transform="scale(0.015625)"/>
      <path d="M 3513 2113 
L 3513 0 
L 2938 0 
L 2938 2094 
Q 2938 2591 2744 2837 
Q 2550 3084 2163 3084 
Q 1697 3084 1428 2787 
Q 1159 2491 1159 1978 
L 1159 0 
L 581 0 
L 581 3500 
L 1159 3500 
L 1159 2956 
Q 1366 3272 1645 3428 
Q 1925 3584 2291 3584 
Q 2894 3584 3203 3211 
Q 3513 2838 3513 2113 
z
" id="DejaVuSans-6e" transform="scale(0.015625)"/>
      <path id="DejaVuSans-20" transform="scale(0.015625)"/>
      <path d="M 2375 4863 
L 2375 4384 
L 1825 4384 
Q 1516 4384 1395 4259 
Q 1275 4134 1275 3809 
L 1275 3500 
L 2222 3500 
L 2222 3053 
L 1275 3053 
L 1275 0 
L 697 0 
L 697 3053 
L 147 3053 
L 147 3500 
L 697 3500 
L 697 3744 
Q 697 4328 969 4595 
Q 1241 4863 1831 4863 
L 2375 4863 
z
" id="DejaVuSans-66" transform="scale(0.015625)"/>
      <path d="M 628 4666 
L 1259 4666 
L 1259 0 
L 628 0 
L 628 4666 
z
" id="DejaVuSans-49" transform="scale(0.015625)"/>
      <path d="M 628 4666 
L 3578 4666 
L 3578 4134 
L 1259 4134 
L 1259 2753 
L 3481 2753 
L 3481 2222 
L 1259 2222 
L 1259 531 
L 3634 531 
L 3634 0 
L 628 0 
L 628 4666 
z
" id="DejaVuSans-45" transform="scale(0.015625)"/>
      <path d="M 3425 4513 
L 3425 3897 
Q 3066 4069 2747 4153 
Q 2428 4238 2131 4238 
Q 1616 4238 1336 4038 
Q 1056 3838 1056 3469 
Q 1056 3159 1242 3001 
Q 1428 2844 1947 2747 
L 2328 2669 
Q 3034 2534 3370 2195 
Q 3706 1856 3706 1288 
Q 3706 609 3251 259 
Q 2797 -91 1919 -91 
Q 1588 -91 1214 -16 
Q 841 59 441 206 
L 441 856 
Q 825 641 1194 531 
Q 1563 422 1919 422 
Q 2459 422 2753 634 
Q 3047 847 3047 1241 
Q 3047 1584 2836 1778 
Q 2625 1972 2144 2069 
L 1759 2144 
Q 1053 2284 737 2584 
Q 422 2884 422 3419 
Q 422 4038 858 4394 
Q 1294 4750 2059 4750 
Q 2388 4750 2728 4690 
Q 3069 4631 3425 4513 
z
" id="DejaVuSans-53" transform="scale(0.015625)"/>
      <path d="M 1172 4494 
L 1172 3500 
L 2356 3500 
L 2356 3053 
L 1172 3053 
L 1172 1153 
Q 1172 725 1289 603 
Q 1406 481 1766 481 
L 2356 481 
L 2356 0 
L 1766 0 
Q 1100 0 847 248 
Q 594 497 594 1153 
L 594 3053 
L 172 3053 
L 172 3500 
L 594 3500 
L 594 4494 
L 1172 4494 
z
" id="DejaVuSans-74" transform="scale(0.015625)"/>
      <path d="M 2906 2969 
L 2906 4863 
L 3481 4863 
L 3481 0 
L 2906 0 
L 2906 525 
Q 2725 213 2448 61 
Q 2172 -91 1784 -91 
Q 1150 -91 751 415 
Q 353 922 353 1747 
Q 353 2572 751 3078 
Q 1150 3584 1784 3584 
Q 2172 3584 2448 3432 
Q 2725 3281 2906 2969 
z
M 947 1747 
Q 947 1113 1208 752 
Q 1469 391 1925 391 
Q 2381 391 2643 752 
Q 2906 1113 2906 1747 
Q 2906 2381 2643 2742 
Q 2381 3103 1925 3103 
Q 1469 3103 1208 2742 
Q 947 2381 947 1747 
z
" id="DejaVuSans-64" transform="scale(0.015625)"/>
      <path d="M 3513 2113 
L 3513 0 
L 2938 0 
L 2938 2094 
Q 2938 2591 2744 2837 
Q 2550 3084 2163 3084 
Q 1697 3084 1428 2787 
Q 1159 2491 1159 1978 
L 1159 0 
L 581 0 
L 581 4863 
L 1159 4863 
L 1159 2956 
Q 1366 3272 1645 3428 
Q 1925 3584 2291 3584 
Q 2894 3584 3203 3211 
Q 3513 2838 3513 2113 
z
" id="DejaVuSans-68" transform="scale(0.015625)"/>
      <path d="M 3122 3366 
L 3122 2828 
Q 2878 2963 2633 3030 
Q 2388 3097 2138 3097 
Q 1578 3097 1268 2742 
Q 959 2388 959 1747 
Q 959 1106 1268 751 
Q 1578 397 2138 397 
Q 2388 397 2633 464 
Q 2878 531 3122 666 
L 3122 134 
Q 2881 22 2623 -34 
Q 2366 -91 2075 -91 
Q 1284 -91 818 406 
Q 353 903 353 1747 
Q 353 2603 823 3093 
Q 1294 3584 2113 3584 
Q 2378 3584 2631 3529 
Q 2884 3475 3122 3366 
z
" id="DejaVuSans-63" transform="scale(0.015625)"/>
      <path d="M 3597 1894 
L 3597 1613 
L 953 1613 
Q 991 1019 1311 708 
Q 1631 397 2203 397 
Q 2534 397 2845 478 
Q 3156 559 3463 722 
L 3463 178 
Q 3153 47 2828 -22 
Q 2503 -91 2169 -91 
Q 1331 -91 842 396 
Q 353 884 353 1716 
Q 353 2575 817 3079 
Q 1281 3584 2069 3584 
Q 2775 3584 3186 3129 
Q 3597 2675 3597 1894 
z
M 3022 2063 
Q 3016 2534 2758 2815 
Q 2500 3097 2075 3097 
Q 1594 3097 1305 2825 
Q 1016 2553 972 2059 
L 3022 2063 
z
" id="DejaVuSans-65" transform="scale(0.015625)"/>
     </defs>
     <use xlink:href="#DejaVuSans-43"/>
     <use x="69.824219" xlink:href="#DejaVuSans-6f"/>
     <use x="131.005859" xlink:href="#DejaVuSans-6d"/>
     <use x="228.417969" xlink:href="#DejaVuSans-70"/>
     <use x="291.894531" xlink:href="#DejaVuSans-61"/>
     <use x="353.173828" xlink:href="#DejaVuSans-72"/>
     <use x="394.287109" xlink:href="#DejaVuSans-69"/>
     <use x="422.070312" xlink:href="#DejaVuSans-73"/>
     <use x="474.169922" xlink:href="#DejaVuSans-6f"/>
     <use x="535.351562" xlink:href="#DejaVuSans-6e"/>
     <use x="598.730469" xlink:href="#DejaVuSans-20"/>
     <use x="630.517578" xlink:href="#DejaVuSans-6f"/>
     <use x="691.699219" xlink:href="#DejaVuSans-66"/>
     <use x="726.904297" xlink:href="#DejaVuSans-20"/>
     <use x="758.691406" xlink:href="#DejaVuSans-43"/>
     <use x="828.515625" xlink:href="#DejaVuSans-49"/>
     <use x="858.007812" xlink:href="#DejaVuSans-45"/>
     <use x="921.191406" xlink:href="#DejaVuSans-20"/>
     <use x="952.978516" xlink:href="#DejaVuSans-53"/>
     <use x="1016.455078" xlink:href="#DejaVuSans-74"/>
     <use x="1055.664062" xlink:href="#DejaVuSans-61"/>
     <use x="1116.943359" xlink:href="#DejaVuSans-6e"/>
     <use x="1180.322266" xlink:href="#DejaVuSans-64"/>
     <use x="1243.798828" xlink:href="#DejaVuSans-61"/>
     <use x="1305.078125" xlink:href="#DejaVuSans-72"/>
     <use x="1344.441406" xlink:href="#DejaVuSans-64"/>
     <use x="1407.917969" xlink:href="#DejaVuSans-20"/>
     <use x="1439.705078" xlink:href="#DejaVuSans-43"/>
     <use x="1509.529297" xlink:href="#DejaVuSans-68"/>
     <use x="1572.908203" xlink:href="#DejaVuSans-72"/>
     <use x="1611.771484" xlink:href="#DejaVuSans-6f"/>
     <use x="1672.953125" xlink:href="#DejaVuSans-6d"/>
     <use x="1770.365234" xlink:href="#DejaVuSans-61"/>
     <use x="1831.644531" xlink:href="#DejaVuSans-74"/>
     <use x="1870.853516" xlink:href="#DejaVuSans-69"/>
     <use x="1898.636719" xlink:href="#DejaVuSans-63"/>
     <use x="1953.617188" xlink:href="#DejaVuSans-69"/>
     <use x="1981.400391" xlink:href="#DejaVuSans-74"/>
     <use x="2020.609375" xlink:href="#DejaVuSans-79"/>
     <use x="2079.789062" xlink:href="#DejaVuSans-20"/>
     <use x="2111.576172" xlink:href="#DejaVuSans-53"/>
     <use x="2175.052734" xlink:href="#DejaVuSans-70"/>
     <use x="2238.529297" xlink:href="#DejaVuSans-61"/>
     <use x="2299.808594" xlink:href="#DejaVuSans-63"/>
     <use x="2354.789062" xlink:href="#DejaVuSans-65"/>
     <use x="2416.3125" xlink:href="#DejaVuSans-73"/>
    </g>
   </g>
   <g id="line2d_27">
    <path clip-path="url(#pecfa060f31)" d="M 208.017005 547.405848 
L 207.87395 547.150837 
L 207.525642 547.157056 
L 207.02184 547.443166 
L 206.076432 548.382354 
L 205.466893 548.935915 
L 204.583684 549.35886 
L 203.445463 549.688509 
L 202.655551 549.713388 
L 201.747462 549.508135 
L 200.416428 548.967014 
L 199.452361 548.382354 
L 197.878756 547.107298 
L 195.509018 544.942813 
L 193.804797 543.027119 
L 191.820685 540.526766 
L 190.197321 538.113489 
L 188.287847 534.748585 
L 180.674831 520.74163 
L 178.286433 515.81556 
L 174.137837 506.628938 
L 170.804032 498.916404 
L 166.997523 489.648925 
L 162.705872 478.546609 
L 157.897978 465.310906 
L 152.499205 449.605949 
L 146.534431 431.276243 
L 140.140492 410.483502 
L 133.510201 387.520056 
L 130.151517 375.204882 
L 126.780394 362.323707 
L 123.43415 348.857873 
L 120.143883 334.813598 
L 116.953134 320.271741 
L 113.905439 305.313158 
L 111.038118 290.056026 
L 108.400929 274.6123 
L 106.018752 259.106376 
L 103.947563 243.65021 
L 102.230903 228.355759 
L 100.918528 213.347418 
L 100.066418 198.749583 
L 99.70567 184.64933 
L 99.798967 171.05288 
L 100.27789 157.904255 
L 101.074023 145.153696 
L 102.125166 132.757665 
L 103.369123 120.691282 
L 104.824553 109.041625 
L 106.528774 97.926869 
L 108.525325 87.452751 
L 110.839085 77.725007 
L 113.513593 68.874253 
L 116.592386 61.087083 
L 120.081686 54.51277 
L 123.99393 49.257052 
L 128.32912 45.338587 
L 133.043717 42.720058 
L 138.019545 41.152672 
L 143.119769 40.368979 
L 148.219993 40.157506 
L 153.20826 40.313001 
L 158.022374 40.704847 
L 162.712092 41.370364 
L 167.352051 42.384189 
L 172.029329 43.789861 
L 176.812344 45.655796 
L 181.757073 47.988215 
L 186.819978 50.731141 
L 191.96996 53.803714 
L 197.16348 57.12508 
L 202.350781 60.633038 
L 212.607206 68.015923 
L 222.533983 75.63516 
L 231.988056 83.260616 
L 241.087602 90.898512 
L 250.143609 98.7541 
L 259.36133 106.982876 
L 273.163033 119.658797 
L 290.752585 136.253184 
L 311.433369 156.200034 
L 331.504615 175.823455 
L 360.476374 204.471785 
L 403.871813 247.674411 
L 474.186482 317.908223 
L 546.230251 389.939552 
L 540.738181 384.447482 
L 208.017005 547.405848 
L 208.017005 547.405848 
" style="fill:none;stroke:#0000ff;stroke-linecap:square;stroke-width:1.5;"/>
   </g>
   <g id="line2d_28">
    <defs>
     <path d="M 0 4 
C 1.060812 4 2.078319 3.578535 2.828427 2.828427 
C 3.578535 2.078319 4 1.060812 4 0 
C 4 -1.060812 3.578535 -2.078319 2.828427 -2.828427 
C 2.078319 -3.578535 1.060812 -4 0 -4 
C -1.060812 -4 -2.078319 -3.578535 -2.828427 -2.828427 
C -3.578535 -2.078319 -4 -1.060812 -4 0 
C -4 1.060812 -3.578535 2.078319 -2.828427 2.828427 
C -2.078319 3.578535 -1.060812 4 0 4 
z
" id="m4e13a95993" style="stroke:#0000ff;"/>
    </defs>
    <g clip-path="url(#pecfa060f31)">
     <use style="fill-opacity:0;stroke:#0000ff;" x="292.220454" xlink:href="#m4e13a95993" y="356.669923"/>
    </g>
   </g>
   <g id="legend_1">
    <g id="patch_7">
     <path d="M 388.695 149.1925 
L 628.055 149.1925 
Q 630.055 149.1925 630.055 147.1925 
L 630.055 31.72 
Q 630.055 29.72 628.055 29.72 
L 388.695 29.72 
Q 386.695 29.72 386.695 31.72 
L 386.695 147.1925 
Q 386.695 149.1925 388.695 149.1925 
z
" style="fill:#ffffff;opacity:0.8;stroke:#cccccc;stroke-linejoin:miter;"/>
    </g>
    <g id="line2d_29">
     <path d="M 390.695 39.338125 
L 410.695 39.338125 
" style="fill:none;stroke:#0000ff;stroke-linecap:square;stroke-width:1.5;"/>
    </g>
    <g id="line2d_30"/>
    <g id="text_22">
     <!-- CIE 170-2 10$\degree$ Spectrum Locus -->
     <g transform="translate(418.695 42.838125)scale(0.12 -0.12)">
      <defs>
       <path d="M 313 2009 
L 1997 2009 
L 1997 1497 
L 313 1497 
L 313 2009 
z
" id="DejaVuSans-2d" transform="scale(0.015625)"/>
       <path d="M 1600 4347 
Q 1350 4347 1178 4173 
Q 1006 4000 1006 3750 
Q 1006 3503 1178 3333 
Q 1350 3163 1600 3163 
Q 1850 3163 2022 3333 
Q 2194 3503 2194 3750 
Q 2194 3997 2020 4172 
Q 1847 4347 1600 4347 
z
M 1600 4750 
Q 1800 4750 1984 4673 
Q 2169 4597 2303 4453 
Q 2447 4313 2519 4134 
Q 2591 3956 2591 3750 
Q 2591 3338 2302 3052 
Q 2013 2766 1594 2766 
Q 1172 2766 890 3047 
Q 609 3328 609 3750 
Q 609 4169 896 4459 
Q 1184 4750 1600 4750 
z
" id="DejaVuSans-b0" transform="scale(0.015625)"/>
       <path d="M 544 1381 
L 544 3500 
L 1119 3500 
L 1119 1403 
Q 1119 906 1312 657 
Q 1506 409 1894 409 
Q 2359 409 2629 706 
Q 2900 1003 2900 1516 
L 2900 3500 
L 3475 3500 
L 3475 0 
L 2900 0 
L 2900 538 
Q 2691 219 2414 64 
Q 2138 -91 1772 -91 
Q 1169 -91 856 284 
Q 544 659 544 1381 
z
M 1991 3584 
L 1991 3584 
z
" id="DejaVuSans-75" transform="scale(0.015625)"/>
       <path d="M 628 4666 
L 1259 4666 
L 1259 531 
L 3531 531 
L 3531 0 
L 628 0 
L 628 4666 
z
" id="DejaVuSans-4c" transform="scale(0.015625)"/>
      </defs>
      <use transform="translate(0 0.78125)" xlink:href="#DejaVuSans-43"/>
      <use transform="translate(69.824219 0.78125)" xlink:href="#DejaVuSans-49"/>
      <use transform="translate(99.316406 0.78125)" xlink:href="#DejaVuSans-45"/>
      <use transform="translate(162.5 0.78125)" xlink:href="#DejaVuSans-20"/>
      <use transform="translate(194.287109 0.78125)" xlink:href="#DejaVuSans-31"/>
      <use transform="translate(257.910156 0.78125)" xlink:href="#DejaVuSans-37"/>
      <use transform="translate(321.533203 0.78125)" xlink:href="#DejaVuSans-30"/>
      <use transform="translate(385.15625 0.78125)" xlink:href="#DejaVuSans-2d"/>
      <use transform="translate(421.240234 0.78125)" xlink:href="#DejaVuSans-32"/>
      <use transform="translate(484.863281 0.78125)" xlink:href="#DejaVuSans-20"/>
      <use transform="translate(516.650391 0.78125)" xlink:href="#DejaVuSans-31"/>
      <use transform="translate(580.273438 0.78125)" xlink:href="#DejaVuSans-30"/>
      <use transform="translate(643.896484 0.78125)" xlink:href="#DejaVuSans-b0"/>
      <use transform="translate(693.896484 0.78125)" xlink:href="#DejaVuSans-20"/>
      <use transform="translate(725.683594 0.78125)" xlink:href="#DejaVuSans-53"/>
      <use transform="translate(789.160156 0.78125)" xlink:href="#DejaVuSans-70"/>
      <use transform="translate(852.636719 0.78125)" xlink:href="#DejaVuSans-65"/>
      <use transform="translate(914.160156 0.78125)" xlink:href="#DejaVuSans-63"/>
      <use transform="translate(969.140625 0.78125)" xlink:href="#DejaVuSans-74"/>
      <use transform="translate(1008.349609 0.78125)" xlink:href="#DejaVuSans-72"/>
      <use transform="translate(1049.462891 0.78125)" xlink:href="#DejaVuSans-75"/>
      <use transform="translate(1112.841797 0.78125)" xlink:href="#DejaVuSans-6d"/>
      <use transform="translate(1210.253906 0.78125)" xlink:href="#DejaVuSans-20"/>
      <use transform="translate(1242.041016 0.78125)" xlink:href="#DejaVuSans-4c"/>
      <use transform="translate(1297.753906 0.78125)" xlink:href="#DejaVuSans-6f"/>
      <use transform="translate(1358.935547 0.78125)" xlink:href="#DejaVuSans-63"/>
      <use transform="translate(1413.916016 0.78125)" xlink:href="#DejaVuSans-75"/>
      <use transform="translate(1477.294922 0.78125)" xlink:href="#DejaVuSans-73"/>
     </g>
    </g>
    <g id="line2d_31">
     <path d="M 390.695 55.97625 
L 410.695 55.97625 
" style="fill:none;stroke:#0000bf;stroke-dasharray:5.55,2.4;stroke-dashoffset:0;stroke-width:1.5;"/>
    </g>
    <g id="line2d_32"/>
    <g id="text_23">
     <!-- CIE 170-2 2$\degree$ Spectrum Locus -->
     <g transform="translate(418.695 59.47625)scale(0.12 -0.12)">
      <use transform="translate(0 0.78125)" xlink:href="#DejaVuSans-43"/>
      <use transform="translate(69.824219 0.78125)" xlink:href="#DejaVuSans-49"/>
      <use transform="translate(99.316406 0.78125)" xlink:href="#DejaVuSans-45"/>
      <use transform="translate(162.5 0.78125)" xlink:href="#DejaVuSans-20"/>
      <use transform="translate(194.287109 0.78125)" xlink:href="#DejaVuSans-31"/>
      <use transform="translate(257.910156 0.78125)" xlink:href="#DejaVuSans-37"/>
      <use transform="translate(321.533203 0.78125)" xlink:href="#DejaVuSans-30"/>
      <use transform="translate(385.15625 0.78125)" xlink:href="#DejaVuSans-2d"/>
      <use transform="translate(421.240234 0.78125)" xlink:href="#DejaVuSans-32"/>
      <use transform="translate(484.863281 0.78125)" xlink:href="#DejaVuSans-20"/>
      <use transform="translate(516.650391 0.78125)" xlink:href="#DejaVuSans-32"/>
      <use transform="translate(580.273438 0.78125)" xlink:href="#DejaVuSans-b0"/>
      <use transform="translate(630.273438 0.78125)" xlink:href="#DejaVuSans-20"/>
      <use transform="translate(662.060547 0.78125)" xlink:href="#DejaVuSans-53"/>
      <use transform="translate(725.537109 0.78125)" xlink:href="#DejaVuSans-70"/>
      <use transform="translate(789.013672 0.78125)" xlink:href="#DejaVuSans-65"/>
      <use transform="translate(850.537109 0.78125)" xlink:href="#DejaVuSans-63"/>
      <use transform="translate(905.517578 0.78125)" xlink:href="#DejaVuSans-74"/>
      <use transform="translate(944.726562 0.78125)" xlink:href="#DejaVuSans-72"/>
      <use transform="translate(985.839844 0.78125)" xlink:href="#DejaVuSans-75"/>
      <use transform="translate(1049.21875 0.78125)" xlink:href="#DejaVuSans-6d"/>
      <use transform="translate(1146.630859 0.78125)" xlink:href="#DejaVuSans-20"/>
      <use transform="translate(1178.417969 0.78125)" xlink:href="#DejaVuSans-4c"/>
      <use transform="translate(1234.130859 0.78125)" xlink:href="#DejaVuSans-6f"/>
      <use transform="translate(1295.3125 0.78125)" xlink:href="#DejaVuSans-63"/>
      <use transform="translate(1350.292969 0.78125)" xlink:href="#DejaVuSans-75"/>
      <use transform="translate(1413.671875 0.78125)" xlink:href="#DejaVuSans-73"/>
     </g>
    </g>
    <g id="line2d_33">
     <path d="M 390.695 72.614375 
L 410.695 72.614375 
" style="fill:none;stroke:#008000;stroke-dasharray:1.5,2.475;stroke-dashoffset:0;stroke-width:1.5;"/>
    </g>
    <g id="line2d_34"/>
    <g id="text_24">
     <!-- CIE 1964 10$\degree$ Spectrum Locus -->
     <g transform="translate(418.695 76.114375)scale(0.12 -0.12)">
      <defs>
       <path d="M 703 97 
L 703 672 
Q 941 559 1184 500 
Q 1428 441 1663 441 
Q 2288 441 2617 861 
Q 2947 1281 2994 2138 
Q 2813 1869 2534 1725 
Q 2256 1581 1919 1581 
Q 1219 1581 811 2004 
Q 403 2428 403 3163 
Q 403 3881 828 4315 
Q 1253 4750 1959 4750 
Q 2769 4750 3195 4129 
Q 3622 3509 3622 2328 
Q 3622 1225 3098 567 
Q 2575 -91 1691 -91 
Q 1453 -91 1209 -44 
Q 966 3 703 97 
z
M 1959 2075 
Q 2384 2075 2632 2365 
Q 2881 2656 2881 3163 
Q 2881 3666 2632 3958 
Q 2384 4250 1959 4250 
Q 1534 4250 1286 3958 
Q 1038 3666 1038 3163 
Q 1038 2656 1286 2365 
Q 1534 2075 1959 2075 
z
" id="DejaVuSans-39" transform="scale(0.015625)"/>
      </defs>
      <use transform="translate(0 0.78125)" xlink:href="#DejaVuSans-43"/>
      <use transform="translate(69.824219 0.78125)" xlink:href="#DejaVuSans-49"/>
      <use transform="translate(99.316406 0.78125)" xlink:href="#DejaVuSans-45"/>
      <use transform="translate(162.5 0.78125)" xlink:href="#DejaVuSans-20"/>
      <use transform="translate(194.287109 0.78125)" xlink:href="#DejaVuSans-31"/>
      <use transform="translate(257.910156 0.78125)" xlink:href="#DejaVuSans-39"/>
      <use transform="translate(321.533203 0.78125)" xlink:href="#DejaVuSans-36"/>
      <use transform="translate(385.15625 0.78125)" xlink:href="#DejaVuSans-34"/>
      <use transform="translate(448.779297 0.78125)" xlink:href="#DejaVuSans-20"/>
      <use transform="translate(480.566406 0.78125)" xlink:href="#DejaVuSans-31"/>
      <use transform="translate(544.189453 0.78125)" xlink:href="#DejaVuSans-30"/>
      <use transform="translate(607.8125 0.78125)" xlink:href="#DejaVuSans-b0"/>
      <use transform="translate(657.8125 0.78125)" xlink:href="#DejaVuSans-20"/>
      <use transform="translate(689.599609 0.78125)" xlink:href="#DejaVuSans-53"/>
      <use transform="translate(753.076172 0.78125)" xlink:href="#DejaVuSans-70"/>
      <use transform="translate(816.552734 0.78125)" xlink:href="#DejaVuSans-65"/>
      <use transform="translate(878.076172 0.78125)" xlink:href="#DejaVuSans-63"/>
      <use transform="translate(933.056641 0.78125)" xlink:href="#DejaVuSans-74"/>
      <use transform="translate(972.265625 0.78125)" xlink:href="#DejaVuSans-72"/>
      <use transform="translate(1013.378906 0.78125)" xlink:href="#DejaVuSans-75"/>
      <use transform="translate(1076.757812 0.78125)" xlink:href="#DejaVuSans-6d"/>
      <use transform="translate(1174.169922 0.78125)" xlink:href="#DejaVuSans-20"/>
      <use transform="translate(1205.957031 0.78125)" xlink:href="#DejaVuSans-4c"/>
      <use transform="translate(1261.669922 0.78125)" xlink:href="#DejaVuSans-6f"/>
      <use transform="translate(1322.851562 0.78125)" xlink:href="#DejaVuSans-63"/>
      <use transform="translate(1377.832031 0.78125)" xlink:href="#DejaVuSans-75"/>
      <use transform="translate(1441.210938 0.78125)" xlink:href="#DejaVuSans-73"/>
     </g>
    </g>
    <g id="line2d_35">
     <path d="M 390.695 89.2525 
L 410.695 89.2525 
" style="fill:none;stroke:#bf0000;stroke-dasharray:9.6,2.4,1.5,2.4;stroke-dashoffset:0;stroke-width:1.5;"/>
    </g>
    <g id="line2d_36"/>
    <g id="text_25">
     <!-- CIE 1931 2$\degree$ Spectrum Locus -->
     <g transform="translate(418.695 92.7525)scale(0.12 -0.12)">
      <use transform="translate(0 0.78125)" xlink:href="#DejaVuSans-43"/>
      <use transform="translate(69.824219 0.78125)" xlink:href="#DejaVuSans-49"/>
      <use transform="translate(99.316406 0.78125)" xlink:href="#DejaVuSans-45"/>
      <use transform="translate(162.5 0.78125)" xlink:href="#DejaVuSans-20"/>
      <use transform="translate(194.287109 0.78125)" xlink:href="#DejaVuSans-31"/>
      <use transform="translate(257.910156 0.78125)" xlink:href="#DejaVuSans-39"/>
      <use transform="translate(321.533203 0.78125)" xlink:href="#DejaVuSans-33"/>
      <use transform="translate(385.15625 0.78125)" xlink:href="#DejaVuSans-31"/>
      <use transform="translate(448.779297 0.78125)" xlink:href="#DejaVuSans-20"/>
      <use transform="translate(480.566406 0.78125)" xlink:href="#DejaVuSans-32"/>
      <use transform="translate(544.189453 0.78125)" xlink:href="#DejaVuSans-b0"/>
      <use transform="translate(594.189453 0.78125)" xlink:href="#DejaVuSans-20"/>
      <use transform="translate(625.976562 0.78125)" xlink:href="#DejaVuSans-53"/>
      <use transform="translate(689.453125 0.78125)" xlink:href="#DejaVuSans-70"/>
      <use transform="translate(752.929688 0.78125)" xlink:href="#DejaVuSans-65"/>
      <use transform="translate(814.453125 0.78125)" xlink:href="#DejaVuSans-63"/>
      <use transform="translate(869.433594 0.78125)" xlink:href="#DejaVuSans-74"/>
      <use transform="translate(908.642578 0.78125)" xlink:href="#DejaVuSans-72"/>
      <use transform="translate(949.755859 0.78125)" xlink:href="#DejaVuSans-75"/>
      <use transform="translate(1013.134766 0.78125)" xlink:href="#DejaVuSans-6d"/>
      <use transform="translate(1110.546875 0.78125)" xlink:href="#DejaVuSans-20"/>
      <use transform="translate(1142.333984 0.78125)" xlink:href="#DejaVuSans-4c"/>
      <use transform="translate(1198.046875 0.78125)" xlink:href="#DejaVuSans-6f"/>
      <use transform="translate(1259.228516 0.78125)" xlink:href="#DejaVuSans-63"/>
      <use transform="translate(1314.208984 0.78125)" xlink:href="#DejaVuSans-75"/>
      <use transform="translate(1377.587891 0.78125)" xlink:href="#DejaVuSans-73"/>
     </g>
    </g>
    <g id="line2d_37"/>
    <g id="line2d_38">
     <g>
      <use style="fill-opacity:0;stroke:#0000ff;" x="400.695" xlink:href="#m4e13a95993" y="105.8925"/>
     </g>
    </g>
    <g id="text_26">
     <!-- D65 Chromaticity in CIE 170-2 10$\degree$ -->
     <g transform="translate(418.695 109.3925)scale(0.12 -0.12)">
      <defs>
       <path d="M 1259 4147 
L 1259 519 
L 2022 519 
Q 2988 519 3436 956 
Q 3884 1394 3884 2338 
Q 3884 3275 3436 3711 
Q 2988 4147 2022 4147 
L 1259 4147 
z
M 628 4666 
L 1925 4666 
Q 3281 4666 3915 4102 
Q 4550 3538 4550 2338 
Q 4550 1131 3912 565 
Q 3275 0 1925 0 
L 628 0 
L 628 4666 
z
" id="DejaVuSans-44" transform="scale(0.015625)"/>
      </defs>
      <use transform="translate(0 0.015625)" xlink:href="#DejaVuSans-44"/>
      <use transform="translate(77.001953 0.015625)" xlink:href="#DejaVuSans-36"/>
      <use transform="translate(140.625 0.015625)" xlink:href="#DejaVuSans-35"/>
      <use transform="translate(204.248047 0.015625)" xlink:href="#DejaVuSans-20"/>
      <use transform="translate(236.035156 0.015625)" xlink:href="#DejaVuSans-43"/>
      <use transform="translate(305.859375 0.015625)" xlink:href="#DejaVuSans-68"/>
      <use transform="translate(369.238281 0.015625)" xlink:href="#DejaVuSans-72"/>
      <use transform="translate(410.351562 0.015625)" xlink:href="#DejaVuSans-6f"/>
      <use transform="translate(471.533203 0.015625)" xlink:href="#DejaVuSans-6d"/>
      <use transform="translate(568.945312 0.015625)" xlink:href="#DejaVuSans-61"/>
      <use transform="translate(630.224609 0.015625)" xlink:href="#DejaVuSans-74"/>
      <use transform="translate(669.433594 0.015625)" xlink:href="#DejaVuSans-69"/>
      <use transform="translate(697.216797 0.015625)" xlink:href="#DejaVuSans-63"/>
      <use transform="translate(752.197266 0.015625)" xlink:href="#DejaVuSans-69"/>
      <use transform="translate(779.980469 0.015625)" xlink:href="#DejaVuSans-74"/>
      <use transform="translate(819.189453 0.015625)" xlink:href="#DejaVuSans-79"/>
      <use transform="translate(878.369141 0.015625)" xlink:href="#DejaVuSans-20"/>
      <use transform="translate(910.15625 0.015625)" xlink:href="#DejaVuSans-69"/>
      <use transform="translate(937.939453 0.015625)" xlink:href="#DejaVuSans-6e"/>
      <use transform="translate(1001.318359 0.015625)" xlink:href="#DejaVuSans-20"/>
      <use transform="translate(1033.105469 0.015625)" xlink:href="#DejaVuSans-43"/>
      <use transform="translate(1102.929688 0.015625)" xlink:href="#DejaVuSans-49"/>
      <use transform="translate(1132.421875 0.015625)" xlink:href="#DejaVuSans-45"/>
      <use transform="translate(1195.605469 0.015625)" xlink:href="#DejaVuSans-20"/>
      <use transform="translate(1227.392578 0.015625)" xlink:href="#DejaVuSans-31"/>
      <use transform="translate(1291.015625 0.015625)" xlink:href="#DejaVuSans-37"/>
      <use transform="translate(1354.638672 0.015625)" xlink:href="#DejaVuSans-30"/>
      <use transform="translate(1418.261719 0.015625)" xlink:href="#DejaVuSans-2d"/>
      <use transform="translate(1454.345703 0.015625)" xlink:href="#DejaVuSans-32"/>
      <use transform="translate(1517.96875 0.015625)" xlink:href="#DejaVuSans-20"/>
      <use transform="translate(1549.755859 0.015625)" xlink:href="#DejaVuSans-31"/>
      <use transform="translate(1613.378906 0.015625)" xlink:href="#DejaVuSans-30"/>
      <use transform="translate(1677.001953 0.015625)" xlink:href="#DejaVuSans-b0"/>
     </g>
    </g>
    <g id="line2d_39"/>
    <g id="line2d_40">
     <g>
      <use style="fill-opacity:0;stroke:#008000;" x="400.695" xlink:href="#m8bc116d6e1" y="122.5325"/>
     </g>
    </g>
    <g id="text_27">
     <!-- D65 Chromaticity in CIE 1964 10$\degree$ -->
     <g transform="translate(418.695 126.0325)scale(0.12 -0.12)">
      <use transform="translate(0 0.015625)" xlink:href="#DejaVuSans-44"/>
      <use transform="translate(77.001953 0.015625)" xlink:href="#DejaVuSans-36"/>
      <use transform="translate(140.625 0.015625)" xlink:href="#DejaVuSans-35"/>
      <use transform="translate(204.248047 0.015625)" xlink:href="#DejaVuSans-20"/>
      <use transform="translate(236.035156 0.015625)" xlink:href="#DejaVuSans-43"/>
      <use transform="translate(305.859375 0.015625)" xlink:href="#DejaVuSans-68"/>
      <use transform="translate(369.238281 0.015625)" xlink:href="#DejaVuSans-72"/>
      <use transform="translate(410.351562 0.015625)" xlink:href="#DejaVuSans-6f"/>
      <use transform="translate(471.533203 0.015625)" xlink:href="#DejaVuSans-6d"/>
      <use transform="translate(568.945312 0.015625)" xlink:href="#DejaVuSans-61"/>
      <use transform="translate(630.224609 0.015625)" xlink:href="#DejaVuSans-74"/>
      <use transform="translate(669.433594 0.015625)" xlink:href="#DejaVuSans-69"/>
      <use transform="translate(697.216797 0.015625)" xlink:href="#DejaVuSans-63"/>
      <use transform="translate(752.197266 0.015625)" xlink:href="#DejaVuSans-69"/>
      <use transform="translate(779.980469 0.015625)" xlink:href="#DejaVuSans-74"/>
      <use transform="translate(819.189453 0.015625)" xlink:href="#DejaVuSans-79"/>
      <use transform="translate(878.369141 0.015625)" xlink:href="#DejaVuSans-20"/>
      <use transform="translate(910.15625 0.015625)" xlink:href="#DejaVuSans-69"/>
      <use transform="translate(937.939453 0.015625)" xlink:href="#DejaVuSans-6e"/>
      <use transform="translate(1001.318359 0.015625)" xlink:href="#DejaVuSans-20"/>
      <use transform="translate(1033.105469 0.015625)" xlink:href="#DejaVuSans-43"/>
      <use transform="translate(1102.929688 0.015625)" xlink:href="#DejaVuSans-49"/>
      <use transform="translate(1132.421875 0.015625)" xlink:href="#DejaVuSans-45"/>
      <use transform="translate(1195.605469 0.015625)" xlink:href="#DejaVuSans-20"/>
      <use transform="translate(1227.392578 0.015625)" xlink:href="#DejaVuSans-31"/>
      <use transform="translate(1291.015625 0.015625)" xlink:href="#DejaVuSans-39"/>
      <use transform="translate(1354.638672 0.015625)" xlink:href="#DejaVuSans-36"/>
      <use transform="translate(1418.261719 0.015625)" xlink:href="#DejaVuSans-34"/>
      <use transform="translate(1481.884766 0.015625)" xlink:href="#DejaVuSans-20"/>
      <use transform="translate(1513.671875 0.015625)" xlink:href="#DejaVuSans-31"/>
      <use transform="translate(1577.294922 0.015625)" xlink:href="#DejaVuSans-30"/>
      <use transform="translate(1640.917969 0.015625)" xlink:href="#DejaVuSans-b0"/>
     </g>
    </g>
    <g id="line2d_41"/>
    <g id="line2d_42">
     <g>
      <use style="fill-opacity:0;stroke:#bf0000;" x="400.695" xlink:href="#mc7fb2ac4a0" y="139.1725"/>
     </g>
    </g>
    <g id="text_28">
     <!-- D65 Chromaticity in CIE 1931 2$\degree$ -->
     <g transform="translate(418.695 142.6725)scale(0.12 -0.12)">
      <use transform="translate(0 0.015625)" xlink:href="#DejaVuSans-44"/>
      <use transform="translate(77.001953 0.015625)" xlink:href="#DejaVuSans-36"/>
      <use transform="translate(140.625 0.015625)" xlink:href="#DejaVuSans-35"/>
      <use transform="translate(204.248047 0.015625)" xlink:href="#DejaVuSans-20"/>
      <use transform="translate(236.035156 0.015625)" xlink:href="#DejaVuSans-43"/>
      <use transform="translate(305.859375 0.015625)" xlink:href="#DejaVuSans-68"/>
      <use transform="translate(369.238281 0.015625)" xlink:href="#DejaVuSans-72"/>
      <use transform="translate(410.351562 0.015625)" xlink:href="#DejaVuSans-6f"/>
      <use transform="translate(471.533203 0.015625)" xlink:href="#DejaVuSans-6d"/>
      <use transform="translate(568.945312 0.015625)" xlink:href="#DejaVuSans-61"/>
      <use transform="translate(630.224609 0.015625)" xlink:href="#DejaVuSans-74"/>
      <use transform="translate(669.433594 0.015625)" xlink:href="#DejaVuSans-69"/>
      <use transform="translate(697.216797 0.015625)" xlink:href="#DejaVuSans-63"/>
      <use transform="translate(752.197266 0.015625)" xlink:href="#DejaVuSans-69"/>
      <use transform="translate(779.980469 0.015625)" xlink:href="#DejaVuSans-74"/>
      <use transform="translate(819.189453 0.015625)" xlink:href="#DejaVuSans-79"/>
      <use transform="translate(878.369141 0.015625)" xlink:href="#DejaVuSans-20"/>
      <use transform="translate(910.15625 0.015625)" xlink:href="#DejaVuSans-69"/>
      <use transform="translate(937.939453 0.015625)" xlink:href="#DejaVuSans-6e"/>
      <use transform="translate(1001.318359 0.015625)" xlink:href="#DejaVuSans-20"/>
      <use transform="translate(1033.105469 0.015625)" xlink:href="#DejaVuSans-43"/>
      <use transform="translate(1102.929688 0.015625)" xlink:href="#DejaVuSans-49"/>
      <use transform="translate(1132.421875 0.015625)" xlink:href="#DejaVuSans-45"/>
      <use transform="translate(1195.605469 0.015625)" xlink:href="#DejaVuSans-20"/>
      <use transform="translate(1227.392578 0.015625)" xlink:href="#DejaVuSans-31"/>
      <use transform="translate(1291.015625 0.015625)" xlink:href="#DejaVuSans-39"/>
      <use transform="translate(1354.638672 0.015625)" xlink:href="#DejaVuSans-33"/>
      <use transform="translate(1418.261719 0.015625)" xlink:href="#DejaVuSans-31"/>
      <use transform="translate(1481.884766 0.015625)" xlink:href="#DejaVuSans-20"/>
      <use transform="translate(1513.671875 0.015625)" xlink:href="#DejaVuSans-32"/>
      <use transform="translate(1577.294922 0.015625)" xlink:href="#DejaVuSans-b0"/>
     </g>
    </g>
   </g>
  </g>
 </g>
 <defs>
  <clipPath id="pecfa060f31">
   <rect height="578.44" width="578.44" x="56.615" y="24.72"/>
  </clipPath>
 </defs>
</svg>
