<?xml version="1.0" encoding="utf-8" standalone="no"?>
<!DOCTYPE svg PUBLIC "-//W3C//DTD SVG 1.1//EN"
  "http://www.w3.org/Graphics/SVG/1.1/DTD/svg11.dtd">
<svg height="648pt" version="1.1" viewBox="0 0 1152 648" width="1152pt" xmlns="http://www.w3.org/2000/svg" xmlns:xlink="http://www.w3.org/1999/xlink">
 <metadata>
  <rdf:RDF xmlns:cc="http://creativecommons.org/ns#" xmlns:dc="http://purl.org/dc/elements/1.1/" xmlns:rdf="http://www.w3.org/1999/02/22-rdf-syntax-ns#">
   <cc:Work>
    <dc:type rdf:resource="http://purl.org/dc/dcmitype/StillImage"/>
    <dc:date>2022-06-20T08:55:44.176403</dc:date>
    <dc:format>image/svg+xml</dc:format>
    <dc:creator>
     <cc:Agent>
      <dc:title>Matplotlib v3.4.2, https://matplotlib.org/</dc:title>
     </cc:Agent>
    </dc:creator>
   </cc:Work>
  </rdf:RDF>
 </metadata>
 <defs>
  <style type="text/css">*{stroke-linecap:butt;stroke-linejoin:round;}</style>
 </defs>
 <g id="figure_1">
  <g id="patch_1">
   <path d="M 0 648 
L 1152 648 
L 1152 0 
L 0 0 
z
" style="fill:#ffffff;"/>
  </g>
  <g id="axes_1">
   <g id="patch_2">
    <path d="M 89.39 168.28 
L 1144.8 168.28 
L 1144.8 24.72 
L 89.39 24.72 
z
" style="fill:none;"/>
   </g>
   <g id="line2d_1">
    <path clip-path="url(#pd4650cf1cf)" d="M 89.39 156.316667 
L 1144.8 156.316667 
" style="fill:none;stroke:#000000;stroke-linecap:square;stroke-width:2;"/>
   </g>
   <g id="line2d_2">
    <path clip-path="url(#pd4650cf1cf)" d="M 114.51881 153.511642 
L 124.570333 152.673688 
L 134.621857 151.444472 
L 144.673381 149.541154 
L 154.724905 147.66737 
L 164.776429 145.110155 
L 174.827952 141.890063 
L 184.879476 137.061686 
L 194.931 131.908161 
L 204.982524 126.731643 
L 215.034048 120.630542 
L 225.085571 113.443988 
L 235.137095 107.124806 
L 245.188619 101.283359 
L 255.240143 97.369191 
L 265.291667 95.133022 
L 275.34319 93.064846 
L 285.394714 92.074304 
L 295.446238 92.719182 
L 305.497762 94.287636 
L 315.549286 97.420673 
L 325.60081 100.859505 
L 335.652333 104.479878 
L 345.703857 108.106444 
L 355.755381 112.038031 
L 365.806905 114.556383 
L 375.858429 115.945231 
L 385.909952 116.72791 
L 395.961476 116.699653 
L 406.013 116.148836 
L 416.064524 115.983165 
L 426.116048 114.190204 
L 436.167571 111.395475 
L 446.219095 109.01686 
L 456.270619 108.174571 
L 466.322143 107.775102 
L 476.373667 108.338693 
L 486.42519 108.537266 
L 496.476714 108.007351 
L 506.528238 106.635922 
L 516.579762 108.054962 
L 526.631286 112.319052 
L 536.68281 115.430026 
L 546.734333 117.252405 
L 556.785857 120.129195 
L 566.837381 123.922593 
L 576.888905 127.489162 
L 586.940429 131.095987 
L 596.991952 134.008775 
L 607.043476 135.602002 
L 617.095 134.818936 
L 627.146524 133.189633 
L 637.198048 132.460449 
L 647.249571 128.592847 
L 657.301095 131.423225 
L 667.352619 140.676446 
L 677.404143 145.544267 
L 687.455667 141.575598 
L 697.50719 123.520609 
L 707.558714 106.73966 
L 717.610238 81.900642 
L 727.661762 36.683333 
L 737.713286 60.037507 
L 747.76481 111.900617 
L 757.816333 141.471589 
L 767.867857 150.848986 
L 777.919381 153.217232 
L 787.970905 153.521927 
L 798.022429 153.669571 
L 808.073952 153.986297 
L 818.125476 154.145333 
L 828.177 154.394459 
L 838.228524 154.317929 
L 848.280048 154.188222 
L 858.331571 154.39833 
L 868.383095 153.406704 
L 878.434619 151.333573 
L 888.486143 150.984658 
L 898.537667 151.153805 
L 908.58919 144.658044 
L 918.640714 117.349179 
L 928.692238 88.317678 
L 938.743762 98.258705 
L 948.795286 134.576546 
L 958.84681 150.544392 
L 968.898333 154.139682 
L 978.949857 154.733697 
L 989.001381 155.482824 
L 999.052905 155.665274 
L 1009.104429 155.541393 
L 1019.155952 155.627673 
L 1029.207476 155.527764 
L 1039.259 155.629794 
L 1049.310524 155.906 
L 1059.362048 155.668731 
L 1069.413571 155.560464 
L 1079.465095 155.537936 
L 1089.516619 155.843111 
L 1099.568143 156.011105 
L 1109.619667 155.803977 
L 1119.67119 155.881858 
" style="fill:none;stroke:#bfbfbf;stroke-linecap:square;stroke-width:1.5;"/>
   </g>
   <g id="matplotlib.axis_1">
    <g id="xtick_1">
     <g id="line2d_3">
      <defs>
       <path d="M 0 0 
L 0 3.5 
" id="maa65800b49" style="stroke:#000000;stroke-width:0.8;"/>
      </defs>
      <g>
       <use style="stroke:#000000;stroke-width:0.8;" x="164.776429" xlink:href="#maa65800b49" y="168.28"/>
      </g>
     </g>
     <g id="text_1">
      <!-- 400 -->
      <g transform="translate(153.323929 184.398125)scale(0.12 -0.12)">
       <defs>
        <path d="M 2419 4116 
L 825 1625 
L 2419 1625 
L 2419 4116 
z
M 2253 4666 
L 3047 4666 
L 3047 1625 
L 3713 1625 
L 3713 1100 
L 3047 1100 
L 3047 0 
L 2419 0 
L 2419 1100 
L 313 1100 
L 313 1709 
L 2253 4666 
z
" id="DejaVuSans-34" transform="scale(0.015625)"/>
        <path d="M 2034 4250 
Q 1547 4250 1301 3770 
Q 1056 3291 1056 2328 
Q 1056 1369 1301 889 
Q 1547 409 2034 409 
Q 2525 409 2770 889 
Q 3016 1369 3016 2328 
Q 3016 3291 2770 3770 
Q 2525 4250 2034 4250 
z
M 2034 4750 
Q 2819 4750 3233 4129 
Q 3647 3509 3647 2328 
Q 3647 1150 3233 529 
Q 2819 -91 2034 -91 
Q 1250 -91 836 529 
Q 422 1150 422 2328 
Q 422 3509 836 4129 
Q 1250 4750 2034 4750 
z
" id="DejaVuSans-30" transform="scale(0.015625)"/>
       </defs>
       <use xlink:href="#DejaVuSans-34"/>
       <use x="63.623047" xlink:href="#DejaVuSans-30"/>
       <use x="127.246094" xlink:href="#DejaVuSans-30"/>
      </g>
     </g>
    </g>
    <g id="xtick_2">
     <g id="line2d_4">
      <g>
       <use style="stroke:#000000;stroke-width:0.8;" x="290.420476" xlink:href="#maa65800b49" y="168.28"/>
      </g>
     </g>
     <g id="text_2">
      <!-- 450 -->
      <g transform="translate(278.967976 184.398125)scale(0.12 -0.12)">
       <defs>
        <path d="M 691 4666 
L 3169 4666 
L 3169 4134 
L 1269 4134 
L 1269 2991 
Q 1406 3038 1543 3061 
Q 1681 3084 1819 3084 
Q 2600 3084 3056 2656 
Q 3513 2228 3513 1497 
Q 3513 744 3044 326 
Q 2575 -91 1722 -91 
Q 1428 -91 1123 -41 
Q 819 9 494 109 
L 494 744 
Q 775 591 1075 516 
Q 1375 441 1709 441 
Q 2250 441 2565 725 
Q 2881 1009 2881 1497 
Q 2881 1984 2565 2268 
Q 2250 2553 1709 2553 
Q 1456 2553 1204 2497 
Q 953 2441 691 2322 
L 691 4666 
z
" id="DejaVuSans-35" transform="scale(0.015625)"/>
       </defs>
       <use xlink:href="#DejaVuSans-34"/>
       <use x="63.623047" xlink:href="#DejaVuSans-35"/>
       <use x="127.246094" xlink:href="#DejaVuSans-30"/>
      </g>
     </g>
    </g>
    <g id="xtick_3">
     <g id="line2d_5">
      <g>
       <use style="stroke:#000000;stroke-width:0.8;" x="416.064524" xlink:href="#maa65800b49" y="168.28"/>
      </g>
     </g>
     <g id="text_3">
      <!-- 500 -->
      <g transform="translate(404.612024 184.398125)scale(0.12 -0.12)">
       <use xlink:href="#DejaVuSans-35"/>
       <use x="63.623047" xlink:href="#DejaVuSans-30"/>
       <use x="127.246094" xlink:href="#DejaVuSans-30"/>
      </g>
     </g>
    </g>
    <g id="xtick_4">
     <g id="line2d_6">
      <g>
       <use style="stroke:#000000;stroke-width:0.8;" x="541.708571" xlink:href="#maa65800b49" y="168.28"/>
      </g>
     </g>
     <g id="text_4">
      <!-- 550 -->
      <g transform="translate(530.256071 184.398125)scale(0.12 -0.12)">
       <use xlink:href="#DejaVuSans-35"/>
       <use x="63.623047" xlink:href="#DejaVuSans-35"/>
       <use x="127.246094" xlink:href="#DejaVuSans-30"/>
      </g>
     </g>
    </g>
    <g id="xtick_5">
     <g id="line2d_7">
      <g>
       <use style="stroke:#000000;stroke-width:0.8;" x="667.352619" xlink:href="#maa65800b49" y="168.28"/>
      </g>
     </g>
     <g id="text_5">
      <!-- 600 -->
      <g transform="translate(655.900119 184.398125)scale(0.12 -0.12)">
       <defs>
        <path d="M 2113 2584 
Q 1688 2584 1439 2293 
Q 1191 2003 1191 1497 
Q 1191 994 1439 701 
Q 1688 409 2113 409 
Q 2538 409 2786 701 
Q 3034 994 3034 1497 
Q 3034 2003 2786 2293 
Q 2538 2584 2113 2584 
z
M 3366 4563 
L 3366 3988 
Q 3128 4100 2886 4159 
Q 2644 4219 2406 4219 
Q 1781 4219 1451 3797 
Q 1122 3375 1075 2522 
Q 1259 2794 1537 2939 
Q 1816 3084 2150 3084 
Q 2853 3084 3261 2657 
Q 3669 2231 3669 1497 
Q 3669 778 3244 343 
Q 2819 -91 2113 -91 
Q 1303 -91 875 529 
Q 447 1150 447 2328 
Q 447 3434 972 4092 
Q 1497 4750 2381 4750 
Q 2619 4750 2861 4703 
Q 3103 4656 3366 4563 
z
" id="DejaVuSans-36" transform="scale(0.015625)"/>
       </defs>
       <use xlink:href="#DejaVuSans-36"/>
       <use x="63.623047" xlink:href="#DejaVuSans-30"/>
       <use x="127.246094" xlink:href="#DejaVuSans-30"/>
      </g>
     </g>
    </g>
    <g id="xtick_6">
     <g id="line2d_8">
      <g>
       <use style="stroke:#000000;stroke-width:0.8;" x="792.996667" xlink:href="#maa65800b49" y="168.28"/>
      </g>
     </g>
     <g id="text_6">
      <!-- 650 -->
      <g transform="translate(781.544167 184.398125)scale(0.12 -0.12)">
       <use xlink:href="#DejaVuSans-36"/>
       <use x="63.623047" xlink:href="#DejaVuSans-35"/>
       <use x="127.246094" xlink:href="#DejaVuSans-30"/>
      </g>
     </g>
    </g>
    <g id="xtick_7">
     <g id="line2d_9">
      <g>
       <use style="stroke:#000000;stroke-width:0.8;" x="918.640714" xlink:href="#maa65800b49" y="168.28"/>
      </g>
     </g>
     <g id="text_7">
      <!-- 700 -->
      <g transform="translate(907.188214 184.398125)scale(0.12 -0.12)">
       <defs>
        <path d="M 525 4666 
L 3525 4666 
L 3525 4397 
L 1831 0 
L 1172 0 
L 2766 4134 
L 525 4134 
L 525 4666 
z
" id="DejaVuSans-37" transform="scale(0.015625)"/>
       </defs>
       <use xlink:href="#DejaVuSans-37"/>
       <use x="63.623047" xlink:href="#DejaVuSans-30"/>
       <use x="127.246094" xlink:href="#DejaVuSans-30"/>
      </g>
     </g>
    </g>
    <g id="xtick_8">
     <g id="line2d_10">
      <g>
       <use style="stroke:#000000;stroke-width:0.8;" x="1044.284762" xlink:href="#maa65800b49" y="168.28"/>
      </g>
     </g>
     <g id="text_8">
      <!-- 750 -->
      <g transform="translate(1032.832262 184.398125)scale(0.12 -0.12)">
       <use xlink:href="#DejaVuSans-37"/>
       <use x="63.623047" xlink:href="#DejaVuSans-35"/>
       <use x="127.246094" xlink:href="#DejaVuSans-30"/>
      </g>
     </g>
    </g>
    <g id="text_9">
     <!-- Wavelength $\lambda$ (nm) -->
     <g transform="translate(549.755 201.53375)scale(0.14 -0.14)">
      <defs>
       <path d="M 213 4666 
L 850 4666 
L 1831 722 
L 2809 4666 
L 3519 4666 
L 4500 722 
L 5478 4666 
L 6119 4666 
L 4947 0 
L 4153 0 
L 3169 4050 
L 2175 0 
L 1381 0 
L 213 4666 
z
" id="DejaVuSans-57" transform="scale(0.015625)"/>
       <path d="M 2194 1759 
Q 1497 1759 1228 1600 
Q 959 1441 959 1056 
Q 959 750 1161 570 
Q 1363 391 1709 391 
Q 2188 391 2477 730 
Q 2766 1069 2766 1631 
L 2766 1759 
L 2194 1759 
z
M 3341 1997 
L 3341 0 
L 2766 0 
L 2766 531 
Q 2569 213 2275 61 
Q 1981 -91 1556 -91 
Q 1019 -91 701 211 
Q 384 513 384 1019 
Q 384 1609 779 1909 
Q 1175 2209 1959 2209 
L 2766 2209 
L 2766 2266 
Q 2766 2663 2505 2880 
Q 2244 3097 1772 3097 
Q 1472 3097 1187 3025 
Q 903 2953 641 2809 
L 641 3341 
Q 956 3463 1253 3523 
Q 1550 3584 1831 3584 
Q 2591 3584 2966 3190 
Q 3341 2797 3341 1997 
z
" id="DejaVuSans-61" transform="scale(0.015625)"/>
       <path d="M 191 3500 
L 800 3500 
L 1894 563 
L 2988 3500 
L 3597 3500 
L 2284 0 
L 1503 0 
L 191 3500 
z
" id="DejaVuSans-76" transform="scale(0.015625)"/>
       <path d="M 3597 1894 
L 3597 1613 
L 953 1613 
Q 991 1019 1311 708 
Q 1631 397 2203 397 
Q 2534 397 2845 478 
Q 3156 559 3463 722 
L 3463 178 
Q 3153 47 2828 -22 
Q 2503 -91 2169 -91 
Q 1331 -91 842 396 
Q 353 884 353 1716 
Q 353 2575 817 3079 
Q 1281 3584 2069 3584 
Q 2775 3584 3186 3129 
Q 3597 2675 3597 1894 
z
M 3022 2063 
Q 3016 2534 2758 2815 
Q 2500 3097 2075 3097 
Q 1594 3097 1305 2825 
Q 1016 2553 972 2059 
L 3022 2063 
z
" id="DejaVuSans-65" transform="scale(0.015625)"/>
       <path d="M 603 4863 
L 1178 4863 
L 1178 0 
L 603 0 
L 603 4863 
z
" id="DejaVuSans-6c" transform="scale(0.015625)"/>
       <path d="M 3513 2113 
L 3513 0 
L 2938 0 
L 2938 2094 
Q 2938 2591 2744 2837 
Q 2550 3084 2163 3084 
Q 1697 3084 1428 2787 
Q 1159 2491 1159 1978 
L 1159 0 
L 581 0 
L 581 3500 
L 1159 3500 
L 1159 2956 
Q 1366 3272 1645 3428 
Q 1925 3584 2291 3584 
Q 2894 3584 3203 3211 
Q 3513 2838 3513 2113 
z
" id="DejaVuSans-6e" transform="scale(0.015625)"/>
       <path d="M 2906 1791 
Q 2906 2416 2648 2759 
Q 2391 3103 1925 3103 
Q 1463 3103 1205 2759 
Q 947 2416 947 1791 
Q 947 1169 1205 825 
Q 1463 481 1925 481 
Q 2391 481 2648 825 
Q 2906 1169 2906 1791 
z
M 3481 434 
Q 3481 -459 3084 -895 
Q 2688 -1331 1869 -1331 
Q 1566 -1331 1297 -1286 
Q 1028 -1241 775 -1147 
L 775 -588 
Q 1028 -725 1275 -790 
Q 1522 -856 1778 -856 
Q 2344 -856 2625 -561 
Q 2906 -266 2906 331 
L 2906 616 
Q 2728 306 2450 153 
Q 2172 0 1784 0 
Q 1141 0 747 490 
Q 353 981 353 1791 
Q 353 2603 747 3093 
Q 1141 3584 1784 3584 
Q 2172 3584 2450 3431 
Q 2728 3278 2906 2969 
L 2906 3500 
L 3481 3500 
L 3481 434 
z
" id="DejaVuSans-67" transform="scale(0.015625)"/>
       <path d="M 1172 4494 
L 1172 3500 
L 2356 3500 
L 2356 3053 
L 1172 3053 
L 1172 1153 
Q 1172 725 1289 603 
Q 1406 481 1766 481 
L 2356 481 
L 2356 0 
L 1766 0 
Q 1100 0 847 248 
Q 594 497 594 1153 
L 594 3053 
L 172 3053 
L 172 3500 
L 594 3500 
L 594 4494 
L 1172 4494 
z
" id="DejaVuSans-74" transform="scale(0.015625)"/>
       <path d="M 3513 2113 
L 3513 0 
L 2938 0 
L 2938 2094 
Q 2938 2591 2744 2837 
Q 2550 3084 2163 3084 
Q 1697 3084 1428 2787 
Q 1159 2491 1159 1978 
L 1159 0 
L 581 0 
L 581 4863 
L 1159 4863 
L 1159 2956 
Q 1366 3272 1645 3428 
Q 1925 3584 2291 3584 
Q 2894 3584 3203 3211 
Q 3513 2838 3513 2113 
z
" id="DejaVuSans-68" transform="scale(0.015625)"/>
       <path id="DejaVuSans-20" transform="scale(0.015625)"/>
       <path d="M 2350 4316 
L 3125 0 
L 2516 0 
L 2038 2588 
L 328 0 
L -281 0 
L 1903 3356 
L 1794 3975 
Q 1725 4369 1391 4369 
L 1091 4369 
L 1184 4863 
L 1550 4856 
Q 2253 4847 2350 4316 
z
" id="DejaVuSans-Oblique-3bb" transform="scale(0.015625)"/>
       <path d="M 1984 4856 
Q 1566 4138 1362 3434 
Q 1159 2731 1159 2009 
Q 1159 1288 1364 580 
Q 1569 -128 1984 -844 
L 1484 -844 
Q 1016 -109 783 600 
Q 550 1309 550 2009 
Q 550 2706 781 3412 
Q 1013 4119 1484 4856 
L 1984 4856 
z
" id="DejaVuSans-28" transform="scale(0.015625)"/>
       <path d="M 3328 2828 
Q 3544 3216 3844 3400 
Q 4144 3584 4550 3584 
Q 5097 3584 5394 3201 
Q 5691 2819 5691 2113 
L 5691 0 
L 5113 0 
L 5113 2094 
Q 5113 2597 4934 2840 
Q 4756 3084 4391 3084 
Q 3944 3084 3684 2787 
Q 3425 2491 3425 1978 
L 3425 0 
L 2847 0 
L 2847 2094 
Q 2847 2600 2669 2842 
Q 2491 3084 2119 3084 
Q 1678 3084 1418 2786 
Q 1159 2488 1159 1978 
L 1159 0 
L 581 0 
L 581 3500 
L 1159 3500 
L 1159 2956 
Q 1356 3278 1631 3431 
Q 1906 3584 2284 3584 
Q 2666 3584 2933 3390 
Q 3200 3197 3328 2828 
z
" id="DejaVuSans-6d" transform="scale(0.015625)"/>
       <path d="M 513 4856 
L 1013 4856 
Q 1481 4119 1714 3412 
Q 1947 2706 1947 2009 
Q 1947 1309 1714 600 
Q 1481 -109 1013 -844 
L 513 -844 
Q 928 -128 1133 580 
Q 1338 1288 1338 2009 
Q 1338 2731 1133 3434 
Q 928 4138 513 4856 
z
" id="DejaVuSans-29" transform="scale(0.015625)"/>
      </defs>
      <use transform="translate(0 0.015625)" xlink:href="#DejaVuSans-57"/>
      <use transform="translate(98.876953 0.015625)" xlink:href="#DejaVuSans-61"/>
      <use transform="translate(160.15625 0.015625)" xlink:href="#DejaVuSans-76"/>
      <use transform="translate(219.335938 0.015625)" xlink:href="#DejaVuSans-65"/>
      <use transform="translate(280.859375 0.015625)" xlink:href="#DejaVuSans-6c"/>
      <use transform="translate(308.642578 0.015625)" xlink:href="#DejaVuSans-65"/>
      <use transform="translate(370.166016 0.015625)" xlink:href="#DejaVuSans-6e"/>
      <use transform="translate(433.544922 0.015625)" xlink:href="#DejaVuSans-67"/>
      <use transform="translate(497.021484 0.015625)" xlink:href="#DejaVuSans-74"/>
      <use transform="translate(536.230469 0.015625)" xlink:href="#DejaVuSans-68"/>
      <use transform="translate(599.609375 0.015625)" xlink:href="#DejaVuSans-20"/>
      <use transform="translate(631.396484 0.015625)" xlink:href="#DejaVuSans-Oblique-3bb"/>
      <use transform="translate(690.576172 0.015625)" xlink:href="#DejaVuSans-20"/>
      <use transform="translate(722.363281 0.015625)" xlink:href="#DejaVuSans-28"/>
      <use transform="translate(761.376953 0.015625)" xlink:href="#DejaVuSans-6e"/>
      <use transform="translate(824.755859 0.015625)" xlink:href="#DejaVuSans-6d"/>
      <use transform="translate(922.167969 0.015625)" xlink:href="#DejaVuSans-29"/>
     </g>
    </g>
   </g>
   <g id="matplotlib.axis_2">
    <g id="ytick_1">
     <g id="line2d_11">
      <defs>
       <path d="M 0 0 
L -3.5 0 
" id="m62fc4dae6c" style="stroke:#000000;stroke-width:0.8;"/>
      </defs>
      <g>
       <use style="stroke:#000000;stroke-width:0.8;" x="89.39" xlink:href="#m62fc4dae6c" y="156.316667"/>
      </g>
     </g>
     <g id="text_10">
      <!-- 0.000 -->
      <g transform="translate(48.03625 160.875729)scale(0.12 -0.12)">
       <defs>
        <path d="M 684 794 
L 1344 794 
L 1344 0 
L 684 0 
L 684 794 
z
" id="DejaVuSans-2e" transform="scale(0.015625)"/>
       </defs>
       <use xlink:href="#DejaVuSans-30"/>
       <use x="63.623047" xlink:href="#DejaVuSans-2e"/>
       <use x="95.410156" xlink:href="#DejaVuSans-30"/>
       <use x="159.033203" xlink:href="#DejaVuSans-30"/>
       <use x="222.65625" xlink:href="#DejaVuSans-30"/>
      </g>
     </g>
    </g>
    <g id="ytick_2">
     <g id="line2d_12">
      <g>
       <use style="stroke:#000000;stroke-width:0.8;" x="89.39" xlink:href="#m62fc4dae6c" y="117.60852"/>
      </g>
     </g>
     <g id="text_11">
      <!-- 0.001 -->
      <g transform="translate(48.03625 122.167583)scale(0.12 -0.12)">
       <defs>
        <path d="M 794 531 
L 1825 531 
L 1825 4091 
L 703 3866 
L 703 4441 
L 1819 4666 
L 2450 4666 
L 2450 531 
L 3481 531 
L 3481 0 
L 794 0 
L 794 531 
z
" id="DejaVuSans-31" transform="scale(0.015625)"/>
       </defs>
       <use xlink:href="#DejaVuSans-30"/>
       <use x="63.623047" xlink:href="#DejaVuSans-2e"/>
       <use x="95.410156" xlink:href="#DejaVuSans-30"/>
       <use x="159.033203" xlink:href="#DejaVuSans-30"/>
       <use x="222.65625" xlink:href="#DejaVuSans-31"/>
      </g>
     </g>
    </g>
    <g id="ytick_3">
     <g id="line2d_13">
      <g>
       <use style="stroke:#000000;stroke-width:0.8;" x="89.39" xlink:href="#m62fc4dae6c" y="78.900373"/>
      </g>
     </g>
     <g id="text_12">
      <!-- 0.002 -->
      <g transform="translate(48.03625 83.459436)scale(0.12 -0.12)">
       <defs>
        <path d="M 1228 531 
L 3431 531 
L 3431 0 
L 469 0 
L 469 531 
Q 828 903 1448 1529 
Q 2069 2156 2228 2338 
Q 2531 2678 2651 2914 
Q 2772 3150 2772 3378 
Q 2772 3750 2511 3984 
Q 2250 4219 1831 4219 
Q 1534 4219 1204 4116 
Q 875 4013 500 3803 
L 500 4441 
Q 881 4594 1212 4672 
Q 1544 4750 1819 4750 
Q 2544 4750 2975 4387 
Q 3406 4025 3406 3419 
Q 3406 3131 3298 2873 
Q 3191 2616 2906 2266 
Q 2828 2175 2409 1742 
Q 1991 1309 1228 531 
z
" id="DejaVuSans-32" transform="scale(0.015625)"/>
       </defs>
       <use xlink:href="#DejaVuSans-30"/>
       <use x="63.623047" xlink:href="#DejaVuSans-2e"/>
       <use x="95.410156" xlink:href="#DejaVuSans-30"/>
       <use x="159.033203" xlink:href="#DejaVuSans-30"/>
       <use x="222.65625" xlink:href="#DejaVuSans-32"/>
      </g>
     </g>
    </g>
    <g id="ytick_4">
     <g id="line2d_14">
      <g>
       <use style="stroke:#000000;stroke-width:0.8;" x="89.39" xlink:href="#m62fc4dae6c" y="40.192227"/>
      </g>
     </g>
     <g id="text_13">
      <!-- 0.003 -->
      <g transform="translate(48.03625 44.751289)scale(0.12 -0.12)">
       <defs>
        <path d="M 2597 2516 
Q 3050 2419 3304 2112 
Q 3559 1806 3559 1356 
Q 3559 666 3084 287 
Q 2609 -91 1734 -91 
Q 1441 -91 1130 -33 
Q 819 25 488 141 
L 488 750 
Q 750 597 1062 519 
Q 1375 441 1716 441 
Q 2309 441 2620 675 
Q 2931 909 2931 1356 
Q 2931 1769 2642 2001 
Q 2353 2234 1838 2234 
L 1294 2234 
L 1294 2753 
L 1863 2753 
Q 2328 2753 2575 2939 
Q 2822 3125 2822 3475 
Q 2822 3834 2567 4026 
Q 2313 4219 1838 4219 
Q 1578 4219 1281 4162 
Q 984 4106 628 3988 
L 628 4550 
Q 988 4650 1302 4700 
Q 1616 4750 1894 4750 
Q 2613 4750 3031 4423 
Q 3450 4097 3450 3541 
Q 3450 3153 3228 2886 
Q 3006 2619 2597 2516 
z
" id="DejaVuSans-33" transform="scale(0.015625)"/>
       </defs>
       <use xlink:href="#DejaVuSans-30"/>
       <use x="63.623047" xlink:href="#DejaVuSans-2e"/>
       <use x="95.410156" xlink:href="#DejaVuSans-30"/>
       <use x="159.033203" xlink:href="#DejaVuSans-30"/>
       <use x="222.65625" xlink:href="#DejaVuSans-33"/>
      </g>
     </g>
    </g>
    <g id="text_14">
     <!-- Spectral Radiance -->
     <g transform="translate(25.44775 159.891563)rotate(-90)scale(0.14 -0.14)">
      <defs>
       <path d="M 3425 4513 
L 3425 3897 
Q 3066 4069 2747 4153 
Q 2428 4238 2131 4238 
Q 1616 4238 1336 4038 
Q 1056 3838 1056 3469 
Q 1056 3159 1242 3001 
Q 1428 2844 1947 2747 
L 2328 2669 
Q 3034 2534 3370 2195 
Q 3706 1856 3706 1288 
Q 3706 609 3251 259 
Q 2797 -91 1919 -91 
Q 1588 -91 1214 -16 
Q 841 59 441 206 
L 441 856 
Q 825 641 1194 531 
Q 1563 422 1919 422 
Q 2459 422 2753 634 
Q 3047 847 3047 1241 
Q 3047 1584 2836 1778 
Q 2625 1972 2144 2069 
L 1759 2144 
Q 1053 2284 737 2584 
Q 422 2884 422 3419 
Q 422 4038 858 4394 
Q 1294 4750 2059 4750 
Q 2388 4750 2728 4690 
Q 3069 4631 3425 4513 
z
" id="DejaVuSans-53" transform="scale(0.015625)"/>
       <path d="M 1159 525 
L 1159 -1331 
L 581 -1331 
L 581 3500 
L 1159 3500 
L 1159 2969 
Q 1341 3281 1617 3432 
Q 1894 3584 2278 3584 
Q 2916 3584 3314 3078 
Q 3713 2572 3713 1747 
Q 3713 922 3314 415 
Q 2916 -91 2278 -91 
Q 1894 -91 1617 61 
Q 1341 213 1159 525 
z
M 3116 1747 
Q 3116 2381 2855 2742 
Q 2594 3103 2138 3103 
Q 1681 3103 1420 2742 
Q 1159 2381 1159 1747 
Q 1159 1113 1420 752 
Q 1681 391 2138 391 
Q 2594 391 2855 752 
Q 3116 1113 3116 1747 
z
" id="DejaVuSans-70" transform="scale(0.015625)"/>
       <path d="M 3122 3366 
L 3122 2828 
Q 2878 2963 2633 3030 
Q 2388 3097 2138 3097 
Q 1578 3097 1268 2742 
Q 959 2388 959 1747 
Q 959 1106 1268 751 
Q 1578 397 2138 397 
Q 2388 397 2633 464 
Q 2878 531 3122 666 
L 3122 134 
Q 2881 22 2623 -34 
Q 2366 -91 2075 -91 
Q 1284 -91 818 406 
Q 353 903 353 1747 
Q 353 2603 823 3093 
Q 1294 3584 2113 3584 
Q 2378 3584 2631 3529 
Q 2884 3475 3122 3366 
z
" id="DejaVuSans-63" transform="scale(0.015625)"/>
       <path d="M 2631 2963 
Q 2534 3019 2420 3045 
Q 2306 3072 2169 3072 
Q 1681 3072 1420 2755 
Q 1159 2438 1159 1844 
L 1159 0 
L 581 0 
L 581 3500 
L 1159 3500 
L 1159 2956 
Q 1341 3275 1631 3429 
Q 1922 3584 2338 3584 
Q 2397 3584 2469 3576 
Q 2541 3569 2628 3553 
L 2631 2963 
z
" id="DejaVuSans-72" transform="scale(0.015625)"/>
       <path d="M 2841 2188 
Q 3044 2119 3236 1894 
Q 3428 1669 3622 1275 
L 4263 0 
L 3584 0 
L 2988 1197 
Q 2756 1666 2539 1819 
Q 2322 1972 1947 1972 
L 1259 1972 
L 1259 0 
L 628 0 
L 628 4666 
L 2053 4666 
Q 2853 4666 3247 4331 
Q 3641 3997 3641 3322 
Q 3641 2881 3436 2590 
Q 3231 2300 2841 2188 
z
M 1259 4147 
L 1259 2491 
L 2053 2491 
Q 2509 2491 2742 2702 
Q 2975 2913 2975 3322 
Q 2975 3731 2742 3939 
Q 2509 4147 2053 4147 
L 1259 4147 
z
" id="DejaVuSans-52" transform="scale(0.015625)"/>
       <path d="M 2906 2969 
L 2906 4863 
L 3481 4863 
L 3481 0 
L 2906 0 
L 2906 525 
Q 2725 213 2448 61 
Q 2172 -91 1784 -91 
Q 1150 -91 751 415 
Q 353 922 353 1747 
Q 353 2572 751 3078 
Q 1150 3584 1784 3584 
Q 2172 3584 2448 3432 
Q 2725 3281 2906 2969 
z
M 947 1747 
Q 947 1113 1208 752 
Q 1469 391 1925 391 
Q 2381 391 2643 752 
Q 2906 1113 2906 1747 
Q 2906 2381 2643 2742 
Q 2381 3103 1925 3103 
Q 1469 3103 1208 2742 
Q 947 2381 947 1747 
z
" id="DejaVuSans-64" transform="scale(0.015625)"/>
       <path d="M 603 3500 
L 1178 3500 
L 1178 0 
L 603 0 
L 603 3500 
z
M 603 4863 
L 1178 4863 
L 1178 4134 
L 603 4134 
L 603 4863 
z
" id="DejaVuSans-69" transform="scale(0.015625)"/>
      </defs>
      <use xlink:href="#DejaVuSans-53"/>
      <use x="63.476562" xlink:href="#DejaVuSans-70"/>
      <use x="126.953125" xlink:href="#DejaVuSans-65"/>
      <use x="188.476562" xlink:href="#DejaVuSans-63"/>
      <use x="243.457031" xlink:href="#DejaVuSans-74"/>
      <use x="282.666016" xlink:href="#DejaVuSans-72"/>
      <use x="323.779297" xlink:href="#DejaVuSans-61"/>
      <use x="385.058594" xlink:href="#DejaVuSans-6c"/>
      <use x="412.841797" xlink:href="#DejaVuSans-20"/>
      <use x="444.628906" xlink:href="#DejaVuSans-52"/>
      <use x="511.861328" xlink:href="#DejaVuSans-61"/>
      <use x="573.140625" xlink:href="#DejaVuSans-64"/>
      <use x="636.617188" xlink:href="#DejaVuSans-69"/>
      <use x="664.400391" xlink:href="#DejaVuSans-61"/>
      <use x="725.679688" xlink:href="#DejaVuSans-6e"/>
      <use x="789.058594" xlink:href="#DejaVuSans-63"/>
      <use x="844.039062" xlink:href="#DejaVuSans-65"/>
     </g>
     <!-- (units unknown) -->
     <g transform="translate(41.124688 153.201094)rotate(-90)scale(0.14 -0.14)">
      <defs>
       <path d="M 544 1381 
L 544 3500 
L 1119 3500 
L 1119 1403 
Q 1119 906 1312 657 
Q 1506 409 1894 409 
Q 2359 409 2629 706 
Q 2900 1003 2900 1516 
L 2900 3500 
L 3475 3500 
L 3475 0 
L 2900 0 
L 2900 538 
Q 2691 219 2414 64 
Q 2138 -91 1772 -91 
Q 1169 -91 856 284 
Q 544 659 544 1381 
z
M 1991 3584 
L 1991 3584 
z
" id="DejaVuSans-75" transform="scale(0.015625)"/>
       <path d="M 2834 3397 
L 2834 2853 
Q 2591 2978 2328 3040 
Q 2066 3103 1784 3103 
Q 1356 3103 1142 2972 
Q 928 2841 928 2578 
Q 928 2378 1081 2264 
Q 1234 2150 1697 2047 
L 1894 2003 
Q 2506 1872 2764 1633 
Q 3022 1394 3022 966 
Q 3022 478 2636 193 
Q 2250 -91 1575 -91 
Q 1294 -91 989 -36 
Q 684 19 347 128 
L 347 722 
Q 666 556 975 473 
Q 1284 391 1588 391 
Q 1994 391 2212 530 
Q 2431 669 2431 922 
Q 2431 1156 2273 1281 
Q 2116 1406 1581 1522 
L 1381 1569 
Q 847 1681 609 1914 
Q 372 2147 372 2553 
Q 372 3047 722 3315 
Q 1072 3584 1716 3584 
Q 2034 3584 2315 3537 
Q 2597 3491 2834 3397 
z
" id="DejaVuSans-73" transform="scale(0.015625)"/>
       <path d="M 581 4863 
L 1159 4863 
L 1159 1991 
L 2875 3500 
L 3609 3500 
L 1753 1863 
L 3688 0 
L 2938 0 
L 1159 1709 
L 1159 0 
L 581 0 
L 581 4863 
z
" id="DejaVuSans-6b" transform="scale(0.015625)"/>
       <path d="M 1959 3097 
Q 1497 3097 1228 2736 
Q 959 2375 959 1747 
Q 959 1119 1226 758 
Q 1494 397 1959 397 
Q 2419 397 2687 759 
Q 2956 1122 2956 1747 
Q 2956 2369 2687 2733 
Q 2419 3097 1959 3097 
z
M 1959 3584 
Q 2709 3584 3137 3096 
Q 3566 2609 3566 1747 
Q 3566 888 3137 398 
Q 2709 -91 1959 -91 
Q 1206 -91 779 398 
Q 353 888 353 1747 
Q 353 2609 779 3096 
Q 1206 3584 1959 3584 
z
" id="DejaVuSans-6f" transform="scale(0.015625)"/>
       <path d="M 269 3500 
L 844 3500 
L 1563 769 
L 2278 3500 
L 2956 3500 
L 3675 769 
L 4391 3500 
L 4966 3500 
L 4050 0 
L 3372 0 
L 2619 2869 
L 1863 0 
L 1184 0 
L 269 3500 
z
" id="DejaVuSans-77" transform="scale(0.015625)"/>
      </defs>
      <use xlink:href="#DejaVuSans-28"/>
      <use x="39.013672" xlink:href="#DejaVuSans-75"/>
      <use x="102.392578" xlink:href="#DejaVuSans-6e"/>
      <use x="165.771484" xlink:href="#DejaVuSans-69"/>
      <use x="193.554688" xlink:href="#DejaVuSans-74"/>
      <use x="232.763672" xlink:href="#DejaVuSans-73"/>
      <use x="284.863281" xlink:href="#DejaVuSans-20"/>
      <use x="316.650391" xlink:href="#DejaVuSans-75"/>
      <use x="380.029297" xlink:href="#DejaVuSans-6e"/>
      <use x="443.408203" xlink:href="#DejaVuSans-6b"/>
      <use x="501.318359" xlink:href="#DejaVuSans-6e"/>
      <use x="564.697266" xlink:href="#DejaVuSans-6f"/>
      <use x="625.878906" xlink:href="#DejaVuSans-77"/>
      <use x="707.666016" xlink:href="#DejaVuSans-6e"/>
      <use x="771.044922" xlink:href="#DejaVuSans-29"/>
     </g>
    </g>
   </g>
   <g id="line2d_15">
    <path clip-path="url(#pd4650cf1cf)" d="M 114.51881 156.14457 
L 124.570333 156.280939 
L 134.621857 156.167098 
L 144.673381 156.091347 
L 154.724905 156.189356 
L 164.776429 156.170621 
L 174.827952 156.255043 
L 184.879476 156.140158 
L 194.931 155.947468 
L 204.982524 155.920295 
L 215.034048 155.978822 
L 225.085571 155.991983 
L 235.137095 155.746109 
L 245.188619 155.699272 
L 255.240143 155.721722 
L 265.291667 155.715142 
L 275.34319 155.706239 
L 285.394714 155.578889 
L 295.446238 155.550245 
L 305.497762 155.620694 
L 315.549286 155.556439 
L 325.60081 155.186389 
L 335.652333 155.102392 
L 345.703857 155.249096 
L 355.755381 155.46083 
L 365.806905 155.563793 
L 375.858429 155.319158 
L 385.909952 155.006396 
L 395.961476 154.64912 
L 406.013 154.651829 
L 416.064524 155.380317 
L 426.116048 155.472442 
L 436.167571 154.70215 
L 446.219095 154.018951 
L 456.270619 154.628217 
L 466.322143 155.242903 
L 476.373667 155.485216 
L 486.42519 155.140713 
L 496.476714 153.615225 
L 506.528238 151.013651 
L 516.579762 151.242029 
L 526.631286 153.580775 
L 536.68281 154.492739 
L 546.734333 153.919084 
L 556.785857 154.006952 
L 566.837381 154.689763 
L 576.888905 154.992461 
L 586.940429 155.211936 
L 596.991952 155.222 
L 607.043476 154.09598 
L 617.095 150.87043 
L 627.146524 147.026711 
L 637.198048 144.069409 
L 647.249571 138.56124 
L 657.301095 139.98957 
L 667.352619 147.847324 
L 677.404143 151.551694 
L 687.455667 146.569955 
L 697.50719 128.005528 
L 707.558714 110.834594 
L 717.610238 85.829132 
L 727.661762 40.772849 
L 737.713286 63.339698 
L 747.76481 114.124787 
L 757.816333 142.950744 
L 767.867857 151.992967 
L 777.919381 154.126173 
L 787.970905 154.317778 
L 798.022429 154.348357 
L 808.073952 154.532221 
L 818.125476 154.651055 
L 828.177 154.749374 
L 838.228524 154.59609 
L 848.280048 154.470675 
L 858.331571 154.637507 
L 868.383095 153.695738 
L 878.434619 151.613627 
L 888.486143 151.226545 
L 898.537667 151.365895 
L 908.58919 144.951955 
L 918.640714 118.119471 
L 928.692238 89.545114 
L 938.743762 99.376983 
L 948.795286 135.015574 
L 958.84681 150.719469 
L 968.898333 154.296876 
L 978.949857 154.934786 
L 989.001381 155.513473 
L 999.052905 155.723658 
L 1009.104429 155.712432 
L 1019.155952 155.732948 
L 1029.207476 155.591276 
L 1039.259 155.661725 
L 1049.310524 155.951417 
L 1059.362048 155.786365 
L 1069.413571 155.783268 
L 1079.465095 155.765076 
L 1089.516619 156.12901 
L 1099.568143 156.223883 
L 1109.619667 156.014124 
L 1119.67119 156.031504 
" style="fill:none;stroke:#ff0000;stroke-linecap:square;stroke-width:2;"/>
   </g>
   <g id="patch_3">
    <path d="M 89.39 168.28 
L 89.39 24.72 
" style="fill:none;stroke:#000000;stroke-linecap:square;stroke-linejoin:miter;stroke-width:0.8;"/>
   </g>
   <g id="patch_4">
    <path d="M 1144.8 168.28 
L 1144.8 24.72 
" style="fill:none;stroke:#000000;stroke-linecap:square;stroke-linejoin:miter;stroke-width:0.8;"/>
   </g>
   <g id="patch_5">
    <path d="M 89.39 168.28 
L 1144.8 168.28 
" style="fill:none;stroke:#000000;stroke-linecap:square;stroke-linejoin:miter;stroke-width:0.8;"/>
   </g>
   <g id="patch_6">
    <path d="M 89.39 24.72 
L 1144.8 24.72 
" style="fill:none;stroke:#000000;stroke-linecap:square;stroke-linejoin:miter;stroke-width:0.8;"/>
   </g>
   <g id="text_15">
    <!-- CRT Red Phosphor Spectrum -->
    <g transform="translate(502.76125 18.72)scale(0.16 -0.16)">
     <defs>
      <path d="M 4122 4306 
L 4122 3641 
Q 3803 3938 3442 4084 
Q 3081 4231 2675 4231 
Q 1875 4231 1450 3742 
Q 1025 3253 1025 2328 
Q 1025 1406 1450 917 
Q 1875 428 2675 428 
Q 3081 428 3442 575 
Q 3803 722 4122 1019 
L 4122 359 
Q 3791 134 3420 21 
Q 3050 -91 2638 -91 
Q 1578 -91 968 557 
Q 359 1206 359 2328 
Q 359 3453 968 4101 
Q 1578 4750 2638 4750 
Q 3056 4750 3426 4639 
Q 3797 4528 4122 4306 
z
" id="DejaVuSans-43" transform="scale(0.015625)"/>
      <path d="M -19 4666 
L 3928 4666 
L 3928 4134 
L 2272 4134 
L 2272 0 
L 1638 0 
L 1638 4134 
L -19 4134 
L -19 4666 
z
" id="DejaVuSans-54" transform="scale(0.015625)"/>
      <path d="M 1259 4147 
L 1259 2394 
L 2053 2394 
Q 2494 2394 2734 2622 
Q 2975 2850 2975 3272 
Q 2975 3691 2734 3919 
Q 2494 4147 2053 4147 
L 1259 4147 
z
M 628 4666 
L 2053 4666 
Q 2838 4666 3239 4311 
Q 3641 3956 3641 3272 
Q 3641 2581 3239 2228 
Q 2838 1875 2053 1875 
L 1259 1875 
L 1259 0 
L 628 0 
L 628 4666 
z
" id="DejaVuSans-50" transform="scale(0.015625)"/>
     </defs>
     <use xlink:href="#DejaVuSans-43"/>
     <use x="69.824219" xlink:href="#DejaVuSans-52"/>
     <use x="132.056641" xlink:href="#DejaVuSans-54"/>
     <use x="193.140625" xlink:href="#DejaVuSans-20"/>
     <use x="224.927734" xlink:href="#DejaVuSans-52"/>
     <use x="289.910156" xlink:href="#DejaVuSans-65"/>
     <use x="351.433594" xlink:href="#DejaVuSans-64"/>
     <use x="414.910156" xlink:href="#DejaVuSans-20"/>
     <use x="446.697266" xlink:href="#DejaVuSans-50"/>
     <use x="507" xlink:href="#DejaVuSans-68"/>
     <use x="570.378906" xlink:href="#DejaVuSans-6f"/>
     <use x="631.560547" xlink:href="#DejaVuSans-73"/>
     <use x="683.660156" xlink:href="#DejaVuSans-70"/>
     <use x="747.136719" xlink:href="#DejaVuSans-68"/>
     <use x="810.515625" xlink:href="#DejaVuSans-6f"/>
     <use x="871.697266" xlink:href="#DejaVuSans-72"/>
     <use x="912.810547" xlink:href="#DejaVuSans-20"/>
     <use x="944.597656" xlink:href="#DejaVuSans-53"/>
     <use x="1008.074219" xlink:href="#DejaVuSans-70"/>
     <use x="1071.550781" xlink:href="#DejaVuSans-65"/>
     <use x="1133.074219" xlink:href="#DejaVuSans-63"/>
     <use x="1188.054688" xlink:href="#DejaVuSans-74"/>
     <use x="1227.263672" xlink:href="#DejaVuSans-72"/>
     <use x="1268.376953" xlink:href="#DejaVuSans-75"/>
     <use x="1331.755859" xlink:href="#DejaVuSans-6d"/>
    </g>
   </g>
   <g id="legend_1">
    <g id="patch_7">
     <path d="M 937.059375 79.384875 
L 1137.8 79.384875 
Q 1139.8 79.384875 1139.8 77.384875 
L 1139.8 31.72 
Q 1139.8 29.72 1137.8 29.72 
L 937.059375 29.72 
Q 935.059375 29.72 935.059375 31.72 
L 935.059375 77.384875 
Q 935.059375 79.384875 937.059375 79.384875 
z
" style="fill:#ffffff;opacity:0.8;stroke:#cccccc;stroke-linejoin:miter;"/>
    </g>
    <g id="line2d_16">
     <path d="M 939.059375 39.338125 
L 959.059375 39.338125 
" style="fill:none;stroke:#ff0000;stroke-linecap:square;stroke-width:2;"/>
    </g>
    <g id="line2d_17"/>
    <g id="text_16">
     <!-- Red Spectrum -->
     <g transform="translate(967.059375 42.838125)scale(0.12 -0.12)">
      <use xlink:href="#DejaVuSans-52"/>
      <use x="64.982422" xlink:href="#DejaVuSans-65"/>
      <use x="126.505859" xlink:href="#DejaVuSans-64"/>
      <use x="189.982422" xlink:href="#DejaVuSans-20"/>
      <use x="221.769531" xlink:href="#DejaVuSans-53"/>
      <use x="285.246094" xlink:href="#DejaVuSans-70"/>
      <use x="348.722656" xlink:href="#DejaVuSans-65"/>
      <use x="410.246094" xlink:href="#DejaVuSans-63"/>
      <use x="465.226562" xlink:href="#DejaVuSans-74"/>
      <use x="504.435547" xlink:href="#DejaVuSans-72"/>
      <use x="545.548828" xlink:href="#DejaVuSans-75"/>
      <use x="608.927734" xlink:href="#DejaVuSans-6d"/>
     </g>
    </g>
    <g id="line2d_18">
     <path d="M 939.059375 63.918375 
L 959.059375 63.918375 
" style="fill:none;stroke:#bfbfbf;stroke-linecap:square;stroke-width:1.5;"/>
    </g>
    <g id="line2d_19"/>
    <g id="text_17">
     <!-- White Spectrum -->
     <g transform="translate(967.059375 59.451875)scale(0.12 -0.12)">
      <use xlink:href="#DejaVuSans-57"/>
      <use x="98.876953" xlink:href="#DejaVuSans-68"/>
      <use x="162.255859" xlink:href="#DejaVuSans-69"/>
      <use x="190.039062" xlink:href="#DejaVuSans-74"/>
      <use x="229.248047" xlink:href="#DejaVuSans-65"/>
      <use x="290.771484" xlink:href="#DejaVuSans-20"/>
      <use x="322.558594" xlink:href="#DejaVuSans-53"/>
      <use x="386.035156" xlink:href="#DejaVuSans-70"/>
      <use x="449.511719" xlink:href="#DejaVuSans-65"/>
      <use x="511.035156" xlink:href="#DejaVuSans-63"/>
      <use x="566.015625" xlink:href="#DejaVuSans-74"/>
      <use x="605.224609" xlink:href="#DejaVuSans-72"/>
      <use x="646.337891" xlink:href="#DejaVuSans-75"/>
      <use x="709.716797" xlink:href="#DejaVuSans-6d"/>
     </g>
     <!-- (sum of all three phorphors) -->
     <g transform="translate(967.059375 72.88925)scale(0.12 -0.12)">
      <defs>
       <path d="M 2375 4863 
L 2375 4384 
L 1825 4384 
Q 1516 4384 1395 4259 
Q 1275 4134 1275 3809 
L 1275 3500 
L 2222 3500 
L 2222 3053 
L 1275 3053 
L 1275 0 
L 697 0 
L 697 3053 
L 147 3053 
L 147 3500 
L 697 3500 
L 697 3744 
Q 697 4328 969 4595 
Q 1241 4863 1831 4863 
L 2375 4863 
z
" id="DejaVuSans-66" transform="scale(0.015625)"/>
      </defs>
      <use xlink:href="#DejaVuSans-28"/>
      <use x="39.013672" xlink:href="#DejaVuSans-73"/>
      <use x="91.113281" xlink:href="#DejaVuSans-75"/>
      <use x="154.492188" xlink:href="#DejaVuSans-6d"/>
      <use x="251.904297" xlink:href="#DejaVuSans-20"/>
      <use x="283.691406" xlink:href="#DejaVuSans-6f"/>
      <use x="344.873047" xlink:href="#DejaVuSans-66"/>
      <use x="380.078125" xlink:href="#DejaVuSans-20"/>
      <use x="411.865234" xlink:href="#DejaVuSans-61"/>
      <use x="473.144531" xlink:href="#DejaVuSans-6c"/>
      <use x="500.927734" xlink:href="#DejaVuSans-6c"/>
      <use x="528.710938" xlink:href="#DejaVuSans-20"/>
      <use x="560.498047" xlink:href="#DejaVuSans-74"/>
      <use x="599.707031" xlink:href="#DejaVuSans-68"/>
      <use x="663.085938" xlink:href="#DejaVuSans-72"/>
      <use x="701.949219" xlink:href="#DejaVuSans-65"/>
      <use x="763.472656" xlink:href="#DejaVuSans-65"/>
      <use x="824.996094" xlink:href="#DejaVuSans-20"/>
      <use x="856.783203" xlink:href="#DejaVuSans-70"/>
      <use x="920.259766" xlink:href="#DejaVuSans-68"/>
      <use x="983.638672" xlink:href="#DejaVuSans-6f"/>
      <use x="1044.820312" xlink:href="#DejaVuSans-72"/>
      <use x="1085.933594" xlink:href="#DejaVuSans-70"/>
      <use x="1149.410156" xlink:href="#DejaVuSans-68"/>
      <use x="1212.789062" xlink:href="#DejaVuSans-6f"/>
      <use x="1273.970703" xlink:href="#DejaVuSans-72"/>
      <use x="1315.083984" xlink:href="#DejaVuSans-73"/>
      <use x="1367.183594" xlink:href="#DejaVuSans-29"/>
     </g>
    </g>
   </g>
  </g>
  <g id="axes_2">
   <g id="patch_8">
    <path d="M 89.39 384.28 
L 1144.8 384.28 
L 1144.8 240.72 
L 89.39 240.72 
z
" style="fill:none;"/>
   </g>
   <g id="line2d_20">
    <path clip-path="url(#pc9f685f7f9)" d="M 89.39 372.316667 
L 1144.8 372.316667 
" style="fill:none;stroke:#000000;stroke-linecap:square;stroke-width:2;"/>
   </g>
   <g id="line2d_21">
    <path clip-path="url(#pc9f685f7f9)" d="M 114.51881 369.511642 
L 124.570333 368.673688 
L 134.621857 367.444472 
L 144.673381 365.541154 
L 154.724905 363.66737 
L 164.776429 361.110155 
L 174.827952 357.890063 
L 184.879476 353.061686 
L 194.931 347.908161 
L 204.982524 342.731643 
L 215.034048 336.630542 
L 225.085571 329.443988 
L 235.137095 323.124806 
L 245.188619 317.283359 
L 255.240143 313.369191 
L 265.291667 311.133022 
L 275.34319 309.064846 
L 285.394714 308.074304 
L 295.446238 308.719182 
L 305.497762 310.287636 
L 315.549286 313.420673 
L 325.60081 316.859505 
L 335.652333 320.479878 
L 345.703857 324.106444 
L 355.755381 328.038031 
L 365.806905 330.556383 
L 375.858429 331.945231 
L 385.909952 332.72791 
L 395.961476 332.699653 
L 406.013 332.148836 
L 416.064524 331.983165 
L 426.116048 330.190204 
L 436.167571 327.395475 
L 446.219095 325.01686 
L 456.270619 324.174571 
L 466.322143 323.775102 
L 476.373667 324.338693 
L 486.42519 324.537266 
L 496.476714 324.007351 
L 506.528238 322.635922 
L 516.579762 324.054962 
L 526.631286 328.319052 
L 536.68281 331.430026 
L 546.734333 333.252405 
L 556.785857 336.129195 
L 566.837381 339.922593 
L 576.888905 343.489162 
L 586.940429 347.095987 
L 596.991952 350.008775 
L 607.043476 351.602002 
L 617.095 350.818936 
L 627.146524 349.189633 
L 637.198048 348.460449 
L 647.249571 344.592847 
L 657.301095 347.423225 
L 667.352619 356.676446 
L 677.404143 361.544267 
L 687.455667 357.575598 
L 697.50719 339.520609 
L 707.558714 322.73966 
L 717.610238 297.900642 
L 727.661762 252.683333 
L 737.713286 276.037507 
L 747.76481 327.900617 
L 757.816333 357.471589 
L 767.867857 366.848986 
L 777.919381 369.217232 
L 787.970905 369.521927 
L 798.022429 369.669571 
L 808.073952 369.986297 
L 818.125476 370.145333 
L 828.177 370.394459 
L 838.228524 370.317929 
L 848.280048 370.188222 
L 858.331571 370.39833 
L 868.383095 369.406704 
L 878.434619 367.333573 
L 888.486143 366.984658 
L 898.537667 367.153805 
L 908.58919 360.658044 
L 918.640714 333.349179 
L 928.692238 304.317678 
L 938.743762 314.258705 
L 948.795286 350.576546 
L 958.84681 366.544392 
L 968.898333 370.139682 
L 978.949857 370.733697 
L 989.001381 371.482824 
L 999.052905 371.665274 
L 1009.104429 371.541393 
L 1019.155952 371.627673 
L 1029.207476 371.527764 
L 1039.259 371.629794 
L 1049.310524 371.906 
L 1059.362048 371.668731 
L 1069.413571 371.560464 
L 1079.465095 371.537936 
L 1089.516619 371.843111 
L 1099.568143 372.011105 
L 1109.619667 371.803977 
L 1119.67119 371.881858 
" style="fill:none;stroke:#bfbfbf;stroke-linecap:square;stroke-width:1.5;"/>
   </g>
   <g id="matplotlib.axis_3">
    <g id="xtick_9">
     <g id="line2d_22">
      <g>
       <use style="stroke:#000000;stroke-width:0.8;" x="164.776429" xlink:href="#maa65800b49" y="384.28"/>
      </g>
     </g>
     <g id="text_18">
      <!-- 400 -->
      <g transform="translate(153.323929 400.398125)scale(0.12 -0.12)">
       <use xlink:href="#DejaVuSans-34"/>
       <use x="63.623047" xlink:href="#DejaVuSans-30"/>
       <use x="127.246094" xlink:href="#DejaVuSans-30"/>
      </g>
     </g>
    </g>
    <g id="xtick_10">
     <g id="line2d_23">
      <g>
       <use style="stroke:#000000;stroke-width:0.8;" x="290.420476" xlink:href="#maa65800b49" y="384.28"/>
      </g>
     </g>
     <g id="text_19">
      <!-- 450 -->
      <g transform="translate(278.967976 400.398125)scale(0.12 -0.12)">
       <use xlink:href="#DejaVuSans-34"/>
       <use x="63.623047" xlink:href="#DejaVuSans-35"/>
       <use x="127.246094" xlink:href="#DejaVuSans-30"/>
      </g>
     </g>
    </g>
    <g id="xtick_11">
     <g id="line2d_24">
      <g>
       <use style="stroke:#000000;stroke-width:0.8;" x="416.064524" xlink:href="#maa65800b49" y="384.28"/>
      </g>
     </g>
     <g id="text_20">
      <!-- 500 -->
      <g transform="translate(404.612024 400.398125)scale(0.12 -0.12)">
       <use xlink:href="#DejaVuSans-35"/>
       <use x="63.623047" xlink:href="#DejaVuSans-30"/>
       <use x="127.246094" xlink:href="#DejaVuSans-30"/>
      </g>
     </g>
    </g>
    <g id="xtick_12">
     <g id="line2d_25">
      <g>
       <use style="stroke:#000000;stroke-width:0.8;" x="541.708571" xlink:href="#maa65800b49" y="384.28"/>
      </g>
     </g>
     <g id="text_21">
      <!-- 550 -->
      <g transform="translate(530.256071 400.398125)scale(0.12 -0.12)">
       <use xlink:href="#DejaVuSans-35"/>
       <use x="63.623047" xlink:href="#DejaVuSans-35"/>
       <use x="127.246094" xlink:href="#DejaVuSans-30"/>
      </g>
     </g>
    </g>
    <g id="xtick_13">
     <g id="line2d_26">
      <g>
       <use style="stroke:#000000;stroke-width:0.8;" x="667.352619" xlink:href="#maa65800b49" y="384.28"/>
      </g>
     </g>
     <g id="text_22">
      <!-- 600 -->
      <g transform="translate(655.900119 400.398125)scale(0.12 -0.12)">
       <use xlink:href="#DejaVuSans-36"/>
       <use x="63.623047" xlink:href="#DejaVuSans-30"/>
       <use x="127.246094" xlink:href="#DejaVuSans-30"/>
      </g>
     </g>
    </g>
    <g id="xtick_14">
     <g id="line2d_27">
      <g>
       <use style="stroke:#000000;stroke-width:0.8;" x="792.996667" xlink:href="#maa65800b49" y="384.28"/>
      </g>
     </g>
     <g id="text_23">
      <!-- 650 -->
      <g transform="translate(781.544167 400.398125)scale(0.12 -0.12)">
       <use xlink:href="#DejaVuSans-36"/>
       <use x="63.623047" xlink:href="#DejaVuSans-35"/>
       <use x="127.246094" xlink:href="#DejaVuSans-30"/>
      </g>
     </g>
    </g>
    <g id="xtick_15">
     <g id="line2d_28">
      <g>
       <use style="stroke:#000000;stroke-width:0.8;" x="918.640714" xlink:href="#maa65800b49" y="384.28"/>
      </g>
     </g>
     <g id="text_24">
      <!-- 700 -->
      <g transform="translate(907.188214 400.398125)scale(0.12 -0.12)">
       <use xlink:href="#DejaVuSans-37"/>
       <use x="63.623047" xlink:href="#DejaVuSans-30"/>
       <use x="127.246094" xlink:href="#DejaVuSans-30"/>
      </g>
     </g>
    </g>
    <g id="xtick_16">
     <g id="line2d_29">
      <g>
       <use style="stroke:#000000;stroke-width:0.8;" x="1044.284762" xlink:href="#maa65800b49" y="384.28"/>
      </g>
     </g>
     <g id="text_25">
      <!-- 750 -->
      <g transform="translate(1032.832262 400.398125)scale(0.12 -0.12)">
       <use xlink:href="#DejaVuSans-37"/>
       <use x="63.623047" xlink:href="#DejaVuSans-35"/>
       <use x="127.246094" xlink:href="#DejaVuSans-30"/>
      </g>
     </g>
    </g>
    <g id="text_26">
     <!-- Wavelength $\lambda$ (nm) -->
     <g transform="translate(549.755 417.53375)scale(0.14 -0.14)">
      <use transform="translate(0 0.015625)" xlink:href="#DejaVuSans-57"/>
      <use transform="translate(98.876953 0.015625)" xlink:href="#DejaVuSans-61"/>
      <use transform="translate(160.15625 0.015625)" xlink:href="#DejaVuSans-76"/>
      <use transform="translate(219.335938 0.015625)" xlink:href="#DejaVuSans-65"/>
      <use transform="translate(280.859375 0.015625)" xlink:href="#DejaVuSans-6c"/>
      <use transform="translate(308.642578 0.015625)" xlink:href="#DejaVuSans-65"/>
      <use transform="translate(370.166016 0.015625)" xlink:href="#DejaVuSans-6e"/>
      <use transform="translate(433.544922 0.015625)" xlink:href="#DejaVuSans-67"/>
      <use transform="translate(497.021484 0.015625)" xlink:href="#DejaVuSans-74"/>
      <use transform="translate(536.230469 0.015625)" xlink:href="#DejaVuSans-68"/>
      <use transform="translate(599.609375 0.015625)" xlink:href="#DejaVuSans-20"/>
      <use transform="translate(631.396484 0.015625)" xlink:href="#DejaVuSans-Oblique-3bb"/>
      <use transform="translate(690.576172 0.015625)" xlink:href="#DejaVuSans-20"/>
      <use transform="translate(722.363281 0.015625)" xlink:href="#DejaVuSans-28"/>
      <use transform="translate(761.376953 0.015625)" xlink:href="#DejaVuSans-6e"/>
      <use transform="translate(824.755859 0.015625)" xlink:href="#DejaVuSans-6d"/>
      <use transform="translate(922.167969 0.015625)" xlink:href="#DejaVuSans-29"/>
     </g>
    </g>
   </g>
   <g id="matplotlib.axis_4">
    <g id="ytick_5">
     <g id="line2d_30">
      <g>
       <use style="stroke:#000000;stroke-width:0.8;" x="89.39" xlink:href="#m62fc4dae6c" y="372.316667"/>
      </g>
     </g>
     <g id="text_27">
      <!-- 0.000 -->
      <g transform="translate(48.03625 376.875729)scale(0.12 -0.12)">
       <use xlink:href="#DejaVuSans-30"/>
       <use x="63.623047" xlink:href="#DejaVuSans-2e"/>
       <use x="95.410156" xlink:href="#DejaVuSans-30"/>
       <use x="159.033203" xlink:href="#DejaVuSans-30"/>
       <use x="222.65625" xlink:href="#DejaVuSans-30"/>
      </g>
     </g>
    </g>
    <g id="ytick_6">
     <g id="line2d_31">
      <g>
       <use style="stroke:#000000;stroke-width:0.8;" x="89.39" xlink:href="#m62fc4dae6c" y="333.60852"/>
      </g>
     </g>
     <g id="text_28">
      <!-- 0.001 -->
      <g transform="translate(48.03625 338.167583)scale(0.12 -0.12)">
       <use xlink:href="#DejaVuSans-30"/>
       <use x="63.623047" xlink:href="#DejaVuSans-2e"/>
       <use x="95.410156" xlink:href="#DejaVuSans-30"/>
       <use x="159.033203" xlink:href="#DejaVuSans-30"/>
       <use x="222.65625" xlink:href="#DejaVuSans-31"/>
      </g>
     </g>
    </g>
    <g id="ytick_7">
     <g id="line2d_32">
      <g>
       <use style="stroke:#000000;stroke-width:0.8;" x="89.39" xlink:href="#m62fc4dae6c" y="294.900373"/>
      </g>
     </g>
     <g id="text_29">
      <!-- 0.002 -->
      <g transform="translate(48.03625 299.459436)scale(0.12 -0.12)">
       <use xlink:href="#DejaVuSans-30"/>
       <use x="63.623047" xlink:href="#DejaVuSans-2e"/>
       <use x="95.410156" xlink:href="#DejaVuSans-30"/>
       <use x="159.033203" xlink:href="#DejaVuSans-30"/>
       <use x="222.65625" xlink:href="#DejaVuSans-32"/>
      </g>
     </g>
    </g>
    <g id="ytick_8">
     <g id="line2d_33">
      <g>
       <use style="stroke:#000000;stroke-width:0.8;" x="89.39" xlink:href="#m62fc4dae6c" y="256.192227"/>
      </g>
     </g>
     <g id="text_30">
      <!-- 0.003 -->
      <g transform="translate(48.03625 260.751289)scale(0.12 -0.12)">
       <use xlink:href="#DejaVuSans-30"/>
       <use x="63.623047" xlink:href="#DejaVuSans-2e"/>
       <use x="95.410156" xlink:href="#DejaVuSans-30"/>
       <use x="159.033203" xlink:href="#DejaVuSans-30"/>
       <use x="222.65625" xlink:href="#DejaVuSans-33"/>
      </g>
     </g>
    </g>
    <g id="text_31">
     <!-- Spectral Radiance -->
     <g transform="translate(25.44775 375.891563)rotate(-90)scale(0.14 -0.14)">
      <use xlink:href="#DejaVuSans-53"/>
      <use x="63.476562" xlink:href="#DejaVuSans-70"/>
      <use x="126.953125" xlink:href="#DejaVuSans-65"/>
      <use x="188.476562" xlink:href="#DejaVuSans-63"/>
      <use x="243.457031" xlink:href="#DejaVuSans-74"/>
      <use x="282.666016" xlink:href="#DejaVuSans-72"/>
      <use x="323.779297" xlink:href="#DejaVuSans-61"/>
      <use x="385.058594" xlink:href="#DejaVuSans-6c"/>
      <use x="412.841797" xlink:href="#DejaVuSans-20"/>
      <use x="444.628906" xlink:href="#DejaVuSans-52"/>
      <use x="511.861328" xlink:href="#DejaVuSans-61"/>
      <use x="573.140625" xlink:href="#DejaVuSans-64"/>
      <use x="636.617188" xlink:href="#DejaVuSans-69"/>
      <use x="664.400391" xlink:href="#DejaVuSans-61"/>
      <use x="725.679688" xlink:href="#DejaVuSans-6e"/>
      <use x="789.058594" xlink:href="#DejaVuSans-63"/>
      <use x="844.039062" xlink:href="#DejaVuSans-65"/>
     </g>
     <!-- (units unknown) -->
     <g transform="translate(41.124688 369.201094)rotate(-90)scale(0.14 -0.14)">
      <use xlink:href="#DejaVuSans-28"/>
      <use x="39.013672" xlink:href="#DejaVuSans-75"/>
      <use x="102.392578" xlink:href="#DejaVuSans-6e"/>
      <use x="165.771484" xlink:href="#DejaVuSans-69"/>
      <use x="193.554688" xlink:href="#DejaVuSans-74"/>
      <use x="232.763672" xlink:href="#DejaVuSans-73"/>
      <use x="284.863281" xlink:href="#DejaVuSans-20"/>
      <use x="316.650391" xlink:href="#DejaVuSans-75"/>
      <use x="380.029297" xlink:href="#DejaVuSans-6e"/>
      <use x="443.408203" xlink:href="#DejaVuSans-6b"/>
      <use x="501.318359" xlink:href="#DejaVuSans-6e"/>
      <use x="564.697266" xlink:href="#DejaVuSans-6f"/>
      <use x="625.878906" xlink:href="#DejaVuSans-77"/>
      <use x="707.666016" xlink:href="#DejaVuSans-6e"/>
      <use x="771.044922" xlink:href="#DejaVuSans-29"/>
     </g>
    </g>
   </g>
   <g id="line2d_34">
    <path clip-path="url(#pc9f685f7f9)" d="M 114.51881 372.224928 
L 124.570333 372.290306 
L 134.621857 372.300951 
L 144.673381 372.222993 
L 154.724905 372.05887 
L 164.776429 372.109965 
L 174.827952 372.118868 
L 184.879476 372.085192 
L 194.931 372.013195 
L 204.982524 371.930746 
L 215.034048 371.879265 
L 225.085571 371.767011 
L 235.137095 371.654757 
L 245.188619 371.550245 
L 255.240143 371.484442 
L 265.291667 371.3838 
L 275.34319 371.337351 
L 285.394714 371.132197 
L 295.446238 370.876724 
L 305.497762 370.555446 
L 315.549286 370.152881 
L 325.60081 369.510326 
L 335.652333 368.569718 
L 345.703857 367.327187 
L 355.755381 365.461454 
L 365.806905 363.166061 
L 375.858429 360.379074 
L 385.909952 357.181781 
L 395.961476 353.65934 
L 406.013 349.889167 
L 416.064524 345.832553 
L 426.116048 341.77981 
L 436.167571 337.939962 
L 446.219095 334.692348 
L 456.270619 331.905362 
L 466.322143 329.815122 
L 476.373667 329.157083 
L 486.42519 329.002251 
L 496.476714 329.466748 
L 506.528238 330.279619 
L 516.579762 331.131199 
L 526.631286 332.756941 
L 536.68281 334.696219 
L 546.734333 336.914196 
L 556.785857 339.530866 
L 566.837381 342.468815 
L 576.888905 345.584821 
L 586.940429 348.85953 
L 596.991952 351.646516 
L 607.043476 354.290283 
L 617.095 356.674705 
L 627.146524 358.865586 
L 637.198048 361.095175 
L 647.249571 362.717046 
L 657.301095 364.060219 
L 667.352619 365.364684 
L 677.404143 366.48722 
L 687.455667 367.516856 
L 697.50719 368.143928 
L 707.558714 368.662618 
L 717.610238 369.045828 
L 727.661762 369.204532 
L 737.713286 369.781283 
L 747.76481 370.466417 
L 757.816333 370.973494 
L 767.867857 371.248322 
L 777.919381 371.426379 
L 787.970905 371.538633 
L 798.022429 371.681853 
L 808.073952 371.797978 
L 818.125476 371.863781 
L 828.177 371.967132 
L 838.228524 372.044161 
L 848.280048 372.074741 
L 858.331571 372.119642 
L 868.383095 372.078999 
L 878.434619 372.110739 
L 888.486143 372.130093 
L 898.537667 372.123513 
L 908.58919 372.18893 
L 918.640714 371.948552 
L 928.692238 371.708949 
L 938.743762 371.747657 
L 948.795286 372.051129 
L 958.84681 372.191639 
L 968.898333 372.25125 
L 978.949857 372.266733 
L 989.001381 372.305751 
L 999.052905 372.270217 
L 1009.104429 372.182736 
L 1019.155952 372.232283 
L 1029.207476 372.268281 
L 1039.259 372.300796 
L 1049.310524 372.299829 
L 1059.362048 372.287248 
L 1069.413571 372.190478 
L 1079.465095 372.131642 
L 1089.516619 372.111126 
L 1099.568143 372.289919 
L 1109.619667 372.292203 
L 1119.67119 372.29019 
" style="fill:none;stroke:#00ff00;stroke-linecap:square;stroke-width:2;"/>
   </g>
   <g id="patch_9">
    <path d="M 89.39 384.28 
L 89.39 240.72 
" style="fill:none;stroke:#000000;stroke-linecap:square;stroke-linejoin:miter;stroke-width:0.8;"/>
   </g>
   <g id="patch_10">
    <path d="M 1144.8 384.28 
L 1144.8 240.72 
" style="fill:none;stroke:#000000;stroke-linecap:square;stroke-linejoin:miter;stroke-width:0.8;"/>
   </g>
   <g id="patch_11">
    <path d="M 89.39 384.28 
L 1144.8 384.28 
" style="fill:none;stroke:#000000;stroke-linecap:square;stroke-linejoin:miter;stroke-width:0.8;"/>
   </g>
   <g id="patch_12">
    <path d="M 89.39 240.72 
L 1144.8 240.72 
" style="fill:none;stroke:#000000;stroke-linecap:square;stroke-linejoin:miter;stroke-width:0.8;"/>
   </g>
   <g id="text_32">
    <!-- CRT Green Phosphor Spectrum -->
    <g transform="translate(493.73875 234.72)scale(0.16 -0.16)">
     <defs>
      <path d="M 3809 666 
L 3809 1919 
L 2778 1919 
L 2778 2438 
L 4434 2438 
L 4434 434 
Q 4069 175 3628 42 
Q 3188 -91 2688 -91 
Q 1594 -91 976 548 
Q 359 1188 359 2328 
Q 359 3472 976 4111 
Q 1594 4750 2688 4750 
Q 3144 4750 3555 4637 
Q 3966 4525 4313 4306 
L 4313 3634 
Q 3963 3931 3569 4081 
Q 3175 4231 2741 4231 
Q 1884 4231 1454 3753 
Q 1025 3275 1025 2328 
Q 1025 1384 1454 906 
Q 1884 428 2741 428 
Q 3075 428 3337 486 
Q 3600 544 3809 666 
z
" id="DejaVuSans-47" transform="scale(0.015625)"/>
     </defs>
     <use xlink:href="#DejaVuSans-43"/>
     <use x="69.824219" xlink:href="#DejaVuSans-52"/>
     <use x="132.056641" xlink:href="#DejaVuSans-54"/>
     <use x="193.140625" xlink:href="#DejaVuSans-20"/>
     <use x="224.927734" xlink:href="#DejaVuSans-47"/>
     <use x="302.417969" xlink:href="#DejaVuSans-72"/>
     <use x="341.28125" xlink:href="#DejaVuSans-65"/>
     <use x="402.804688" xlink:href="#DejaVuSans-65"/>
     <use x="464.328125" xlink:href="#DejaVuSans-6e"/>
     <use x="527.707031" xlink:href="#DejaVuSans-20"/>
     <use x="559.494141" xlink:href="#DejaVuSans-50"/>
     <use x="619.796875" xlink:href="#DejaVuSans-68"/>
     <use x="683.175781" xlink:href="#DejaVuSans-6f"/>
     <use x="744.357422" xlink:href="#DejaVuSans-73"/>
     <use x="796.457031" xlink:href="#DejaVuSans-70"/>
     <use x="859.933594" xlink:href="#DejaVuSans-68"/>
     <use x="923.3125" xlink:href="#DejaVuSans-6f"/>
     <use x="984.494141" xlink:href="#DejaVuSans-72"/>
     <use x="1025.607422" xlink:href="#DejaVuSans-20"/>
     <use x="1057.394531" xlink:href="#DejaVuSans-53"/>
     <use x="1120.871094" xlink:href="#DejaVuSans-70"/>
     <use x="1184.347656" xlink:href="#DejaVuSans-65"/>
     <use x="1245.871094" xlink:href="#DejaVuSans-63"/>
     <use x="1300.851562" xlink:href="#DejaVuSans-74"/>
     <use x="1340.060547" xlink:href="#DejaVuSans-72"/>
     <use x="1381.173828" xlink:href="#DejaVuSans-75"/>
     <use x="1444.552734" xlink:href="#DejaVuSans-6d"/>
    </g>
   </g>
   <g id="legend_2">
    <g id="patch_13">
     <path d="M 937.059375 295.384875 
L 1137.8 295.384875 
Q 1139.8 295.384875 1139.8 293.384875 
L 1139.8 247.72 
Q 1139.8 245.72 1137.8 245.72 
L 937.059375 245.72 
Q 935.059375 245.72 935.059375 247.72 
L 935.059375 293.384875 
Q 935.059375 295.384875 937.059375 295.384875 
z
" style="fill:#ffffff;opacity:0.8;stroke:#cccccc;stroke-linejoin:miter;"/>
    </g>
    <g id="line2d_35">
     <path d="M 939.059375 255.338125 
L 959.059375 255.338125 
" style="fill:none;stroke:#00ff00;stroke-linecap:square;stroke-width:2;"/>
    </g>
    <g id="line2d_36"/>
    <g id="text_33">
     <!-- Green Spectrum -->
     <g transform="translate(967.059375 258.838125)scale(0.12 -0.12)">
      <use xlink:href="#DejaVuSans-47"/>
      <use x="77.490234" xlink:href="#DejaVuSans-72"/>
      <use x="116.353516" xlink:href="#DejaVuSans-65"/>
      <use x="177.876953" xlink:href="#DejaVuSans-65"/>
      <use x="239.400391" xlink:href="#DejaVuSans-6e"/>
      <use x="302.779297" xlink:href="#DejaVuSans-20"/>
      <use x="334.566406" xlink:href="#DejaVuSans-53"/>
      <use x="398.042969" xlink:href="#DejaVuSans-70"/>
      <use x="461.519531" xlink:href="#DejaVuSans-65"/>
      <use x="523.042969" xlink:href="#DejaVuSans-63"/>
      <use x="578.023438" xlink:href="#DejaVuSans-74"/>
      <use x="617.232422" xlink:href="#DejaVuSans-72"/>
      <use x="658.345703" xlink:href="#DejaVuSans-75"/>
      <use x="721.724609" xlink:href="#DejaVuSans-6d"/>
     </g>
    </g>
    <g id="line2d_37">
     <path d="M 939.059375 279.918375 
L 959.059375 279.918375 
" style="fill:none;stroke:#bfbfbf;stroke-linecap:square;stroke-width:1.5;"/>
    </g>
    <g id="line2d_38"/>
    <g id="text_34">
     <!-- White Spectrum -->
     <g transform="translate(967.059375 275.451875)scale(0.12 -0.12)">
      <use xlink:href="#DejaVuSans-57"/>
      <use x="98.876953" xlink:href="#DejaVuSans-68"/>
      <use x="162.255859" xlink:href="#DejaVuSans-69"/>
      <use x="190.039062" xlink:href="#DejaVuSans-74"/>
      <use x="229.248047" xlink:href="#DejaVuSans-65"/>
      <use x="290.771484" xlink:href="#DejaVuSans-20"/>
      <use x="322.558594" xlink:href="#DejaVuSans-53"/>
      <use x="386.035156" xlink:href="#DejaVuSans-70"/>
      <use x="449.511719" xlink:href="#DejaVuSans-65"/>
      <use x="511.035156" xlink:href="#DejaVuSans-63"/>
      <use x="566.015625" xlink:href="#DejaVuSans-74"/>
      <use x="605.224609" xlink:href="#DejaVuSans-72"/>
      <use x="646.337891" xlink:href="#DejaVuSans-75"/>
      <use x="709.716797" xlink:href="#DejaVuSans-6d"/>
     </g>
     <!-- (sum of all three phorphors) -->
     <g transform="translate(967.059375 288.88925)scale(0.12 -0.12)">
      <use xlink:href="#DejaVuSans-28"/>
      <use x="39.013672" xlink:href="#DejaVuSans-73"/>
      <use x="91.113281" xlink:href="#DejaVuSans-75"/>
      <use x="154.492188" xlink:href="#DejaVuSans-6d"/>
      <use x="251.904297" xlink:href="#DejaVuSans-20"/>
      <use x="283.691406" xlink:href="#DejaVuSans-6f"/>
      <use x="344.873047" xlink:href="#DejaVuSans-66"/>
      <use x="380.078125" xlink:href="#DejaVuSans-20"/>
      <use x="411.865234" xlink:href="#DejaVuSans-61"/>
      <use x="473.144531" xlink:href="#DejaVuSans-6c"/>
      <use x="500.927734" xlink:href="#DejaVuSans-6c"/>
      <use x="528.710938" xlink:href="#DejaVuSans-20"/>
      <use x="560.498047" xlink:href="#DejaVuSans-74"/>
      <use x="599.707031" xlink:href="#DejaVuSans-68"/>
      <use x="663.085938" xlink:href="#DejaVuSans-72"/>
      <use x="701.949219" xlink:href="#DejaVuSans-65"/>
      <use x="763.472656" xlink:href="#DejaVuSans-65"/>
      <use x="824.996094" xlink:href="#DejaVuSans-20"/>
      <use x="856.783203" xlink:href="#DejaVuSans-70"/>
      <use x="920.259766" xlink:href="#DejaVuSans-68"/>
      <use x="983.638672" xlink:href="#DejaVuSans-6f"/>
      <use x="1044.820312" xlink:href="#DejaVuSans-72"/>
      <use x="1085.933594" xlink:href="#DejaVuSans-70"/>
      <use x="1149.410156" xlink:href="#DejaVuSans-68"/>
      <use x="1212.789062" xlink:href="#DejaVuSans-6f"/>
      <use x="1273.970703" xlink:href="#DejaVuSans-72"/>
      <use x="1315.083984" xlink:href="#DejaVuSans-73"/>
      <use x="1367.183594" xlink:href="#DejaVuSans-29"/>
     </g>
    </g>
   </g>
  </g>
  <g id="axes_3">
   <g id="patch_14">
    <path d="M 89.39 600.28 
L 1144.8 600.28 
L 1144.8 456.72 
L 89.39 456.72 
z
" style="fill:none;"/>
   </g>
   <g id="line2d_39">
    <path clip-path="url(#p947cdd5b1f)" d="M 89.39 588.316667 
L 1144.8 588.316667 
" style="fill:none;stroke:#000000;stroke-linecap:square;stroke-width:2;"/>
   </g>
   <g id="line2d_40">
    <path clip-path="url(#p947cdd5b1f)" d="M 114.51881 585.511642 
L 124.570333 584.673688 
L 134.621857 583.444472 
L 144.673381 581.541154 
L 154.724905 579.66737 
L 164.776429 577.110155 
L 174.827952 573.890063 
L 184.879476 569.061686 
L 194.931 563.908161 
L 204.982524 558.731643 
L 215.034048 552.630542 
L 225.085571 545.443988 
L 235.137095 539.124806 
L 245.188619 533.283359 
L 255.240143 529.369191 
L 265.291667 527.133022 
L 275.34319 525.064846 
L 285.394714 524.074304 
L 295.446238 524.719182 
L 305.497762 526.287636 
L 315.549286 529.420673 
L 325.60081 532.859505 
L 335.652333 536.479878 
L 345.703857 540.106444 
L 355.755381 544.038031 
L 365.806905 546.556383 
L 375.858429 547.945231 
L 385.909952 548.72791 
L 395.961476 548.699653 
L 406.013 548.148836 
L 416.064524 547.983165 
L 426.116048 546.190204 
L 436.167571 543.395475 
L 446.219095 541.01686 
L 456.270619 540.174571 
L 466.322143 539.775102 
L 476.373667 540.338693 
L 486.42519 540.537266 
L 496.476714 540.007351 
L 506.528238 538.635922 
L 516.579762 540.054962 
L 526.631286 544.319052 
L 536.68281 547.430026 
L 546.734333 549.252405 
L 556.785857 552.129195 
L 566.837381 555.922593 
L 576.888905 559.489162 
L 586.940429 563.095987 
L 596.991952 566.008775 
L 607.043476 567.602002 
L 617.095 566.818936 
L 627.146524 565.189633 
L 637.198048 564.460449 
L 647.249571 560.592847 
L 657.301095 563.423225 
L 667.352619 572.676446 
L 677.404143 577.544267 
L 687.455667 573.575598 
L 697.50719 555.520609 
L 707.558714 538.73966 
L 717.610238 513.900642 
L 727.661762 468.683333 
L 737.713286 492.037507 
L 747.76481 543.900617 
L 757.816333 573.471589 
L 767.867857 582.848986 
L 777.919381 585.217232 
L 787.970905 585.521927 
L 798.022429 585.669571 
L 808.073952 585.986297 
L 818.125476 586.145333 
L 828.177 586.394459 
L 838.228524 586.317929 
L 848.280048 586.188222 
L 858.331571 586.39833 
L 868.383095 585.406704 
L 878.434619 583.333573 
L 888.486143 582.984658 
L 898.537667 583.153805 
L 908.58919 576.658044 
L 918.640714 549.349179 
L 928.692238 520.317678 
L 938.743762 530.258705 
L 948.795286 566.576546 
L 958.84681 582.544392 
L 968.898333 586.139682 
L 978.949857 586.733697 
L 989.001381 587.482824 
L 999.052905 587.665274 
L 1009.104429 587.541393 
L 1019.155952 587.627673 
L 1029.207476 587.527764 
L 1039.259 587.629794 
L 1049.310524 587.906 
L 1059.362048 587.668731 
L 1069.413571 587.560464 
L 1079.465095 587.537936 
L 1089.516619 587.843111 
L 1099.568143 588.011105 
L 1109.619667 587.803977 
L 1119.67119 587.881858 
" style="fill:none;stroke:#bfbfbf;stroke-linecap:square;stroke-width:1.5;"/>
   </g>
   <g id="matplotlib.axis_5">
    <g id="xtick_17">
     <g id="line2d_41">
      <g>
       <use style="stroke:#000000;stroke-width:0.8;" x="164.776429" xlink:href="#maa65800b49" y="600.28"/>
      </g>
     </g>
     <g id="text_35">
      <!-- 400 -->
      <g transform="translate(153.323929 616.398125)scale(0.12 -0.12)">
       <use xlink:href="#DejaVuSans-34"/>
       <use x="63.623047" xlink:href="#DejaVuSans-30"/>
       <use x="127.246094" xlink:href="#DejaVuSans-30"/>
      </g>
     </g>
    </g>
    <g id="xtick_18">
     <g id="line2d_42">
      <g>
       <use style="stroke:#000000;stroke-width:0.8;" x="290.420476" xlink:href="#maa65800b49" y="600.28"/>
      </g>
     </g>
     <g id="text_36">
      <!-- 450 -->
      <g transform="translate(278.967976 616.398125)scale(0.12 -0.12)">
       <use xlink:href="#DejaVuSans-34"/>
       <use x="63.623047" xlink:href="#DejaVuSans-35"/>
       <use x="127.246094" xlink:href="#DejaVuSans-30"/>
      </g>
     </g>
    </g>
    <g id="xtick_19">
     <g id="line2d_43">
      <g>
       <use style="stroke:#000000;stroke-width:0.8;" x="416.064524" xlink:href="#maa65800b49" y="600.28"/>
      </g>
     </g>
     <g id="text_37">
      <!-- 500 -->
      <g transform="translate(404.612024 616.398125)scale(0.12 -0.12)">
       <use xlink:href="#DejaVuSans-35"/>
       <use x="63.623047" xlink:href="#DejaVuSans-30"/>
       <use x="127.246094" xlink:href="#DejaVuSans-30"/>
      </g>
     </g>
    </g>
    <g id="xtick_20">
     <g id="line2d_44">
      <g>
       <use style="stroke:#000000;stroke-width:0.8;" x="541.708571" xlink:href="#maa65800b49" y="600.28"/>
      </g>
     </g>
     <g id="text_38">
      <!-- 550 -->
      <g transform="translate(530.256071 616.398125)scale(0.12 -0.12)">
       <use xlink:href="#DejaVuSans-35"/>
       <use x="63.623047" xlink:href="#DejaVuSans-35"/>
       <use x="127.246094" xlink:href="#DejaVuSans-30"/>
      </g>
     </g>
    </g>
    <g id="xtick_21">
     <g id="line2d_45">
      <g>
       <use style="stroke:#000000;stroke-width:0.8;" x="667.352619" xlink:href="#maa65800b49" y="600.28"/>
      </g>
     </g>
     <g id="text_39">
      <!-- 600 -->
      <g transform="translate(655.900119 616.398125)scale(0.12 -0.12)">
       <use xlink:href="#DejaVuSans-36"/>
       <use x="63.623047" xlink:href="#DejaVuSans-30"/>
       <use x="127.246094" xlink:href="#DejaVuSans-30"/>
      </g>
     </g>
    </g>
    <g id="xtick_22">
     <g id="line2d_46">
      <g>
       <use style="stroke:#000000;stroke-width:0.8;" x="792.996667" xlink:href="#maa65800b49" y="600.28"/>
      </g>
     </g>
     <g id="text_40">
      <!-- 650 -->
      <g transform="translate(781.544167 616.398125)scale(0.12 -0.12)">
       <use xlink:href="#DejaVuSans-36"/>
       <use x="63.623047" xlink:href="#DejaVuSans-35"/>
       <use x="127.246094" xlink:href="#DejaVuSans-30"/>
      </g>
     </g>
    </g>
    <g id="xtick_23">
     <g id="line2d_47">
      <g>
       <use style="stroke:#000000;stroke-width:0.8;" x="918.640714" xlink:href="#maa65800b49" y="600.28"/>
      </g>
     </g>
     <g id="text_41">
      <!-- 700 -->
      <g transform="translate(907.188214 616.398125)scale(0.12 -0.12)">
       <use xlink:href="#DejaVuSans-37"/>
       <use x="63.623047" xlink:href="#DejaVuSans-30"/>
       <use x="127.246094" xlink:href="#DejaVuSans-30"/>
      </g>
     </g>
    </g>
    <g id="xtick_24">
     <g id="line2d_48">
      <g>
       <use style="stroke:#000000;stroke-width:0.8;" x="1044.284762" xlink:href="#maa65800b49" y="600.28"/>
      </g>
     </g>
     <g id="text_42">
      <!-- 750 -->
      <g transform="translate(1032.832262 616.398125)scale(0.12 -0.12)">
       <use xlink:href="#DejaVuSans-37"/>
       <use x="63.623047" xlink:href="#DejaVuSans-35"/>
       <use x="127.246094" xlink:href="#DejaVuSans-30"/>
      </g>
     </g>
    </g>
    <g id="text_43">
     <!-- Wavelength $\lambda$ (nm) -->
     <g transform="translate(549.755 633.53375)scale(0.14 -0.14)">
      <use transform="translate(0 0.015625)" xlink:href="#DejaVuSans-57"/>
      <use transform="translate(98.876953 0.015625)" xlink:href="#DejaVuSans-61"/>
      <use transform="translate(160.15625 0.015625)" xlink:href="#DejaVuSans-76"/>
      <use transform="translate(219.335938 0.015625)" xlink:href="#DejaVuSans-65"/>
      <use transform="translate(280.859375 0.015625)" xlink:href="#DejaVuSans-6c"/>
      <use transform="translate(308.642578 0.015625)" xlink:href="#DejaVuSans-65"/>
      <use transform="translate(370.166016 0.015625)" xlink:href="#DejaVuSans-6e"/>
      <use transform="translate(433.544922 0.015625)" xlink:href="#DejaVuSans-67"/>
      <use transform="translate(497.021484 0.015625)" xlink:href="#DejaVuSans-74"/>
      <use transform="translate(536.230469 0.015625)" xlink:href="#DejaVuSans-68"/>
      <use transform="translate(599.609375 0.015625)" xlink:href="#DejaVuSans-20"/>
      <use transform="translate(631.396484 0.015625)" xlink:href="#DejaVuSans-Oblique-3bb"/>
      <use transform="translate(690.576172 0.015625)" xlink:href="#DejaVuSans-20"/>
      <use transform="translate(722.363281 0.015625)" xlink:href="#DejaVuSans-28"/>
      <use transform="translate(761.376953 0.015625)" xlink:href="#DejaVuSans-6e"/>
      <use transform="translate(824.755859 0.015625)" xlink:href="#DejaVuSans-6d"/>
      <use transform="translate(922.167969 0.015625)" xlink:href="#DejaVuSans-29"/>
     </g>
    </g>
   </g>
   <g id="matplotlib.axis_6">
    <g id="ytick_9">
     <g id="line2d_49">
      <g>
       <use style="stroke:#000000;stroke-width:0.8;" x="89.39" xlink:href="#m62fc4dae6c" y="588.316667"/>
      </g>
     </g>
     <g id="text_44">
      <!-- 0.000 -->
      <g transform="translate(48.03625 592.875729)scale(0.12 -0.12)">
       <use xlink:href="#DejaVuSans-30"/>
       <use x="63.623047" xlink:href="#DejaVuSans-2e"/>
       <use x="95.410156" xlink:href="#DejaVuSans-30"/>
       <use x="159.033203" xlink:href="#DejaVuSans-30"/>
       <use x="222.65625" xlink:href="#DejaVuSans-30"/>
      </g>
     </g>
    </g>
    <g id="ytick_10">
     <g id="line2d_50">
      <g>
       <use style="stroke:#000000;stroke-width:0.8;" x="89.39" xlink:href="#m62fc4dae6c" y="549.60852"/>
      </g>
     </g>
     <g id="text_45">
      <!-- 0.001 -->
      <g transform="translate(48.03625 554.167583)scale(0.12 -0.12)">
       <use xlink:href="#DejaVuSans-30"/>
       <use x="63.623047" xlink:href="#DejaVuSans-2e"/>
       <use x="95.410156" xlink:href="#DejaVuSans-30"/>
       <use x="159.033203" xlink:href="#DejaVuSans-30"/>
       <use x="222.65625" xlink:href="#DejaVuSans-31"/>
      </g>
     </g>
    </g>
    <g id="ytick_11">
     <g id="line2d_51">
      <g>
       <use style="stroke:#000000;stroke-width:0.8;" x="89.39" xlink:href="#m62fc4dae6c" y="510.900373"/>
      </g>
     </g>
     <g id="text_46">
      <!-- 0.002 -->
      <g transform="translate(48.03625 515.459436)scale(0.12 -0.12)">
       <use xlink:href="#DejaVuSans-30"/>
       <use x="63.623047" xlink:href="#DejaVuSans-2e"/>
       <use x="95.410156" xlink:href="#DejaVuSans-30"/>
       <use x="159.033203" xlink:href="#DejaVuSans-30"/>
       <use x="222.65625" xlink:href="#DejaVuSans-32"/>
      </g>
     </g>
    </g>
    <g id="ytick_12">
     <g id="line2d_52">
      <g>
       <use style="stroke:#000000;stroke-width:0.8;" x="89.39" xlink:href="#m62fc4dae6c" y="472.192227"/>
      </g>
     </g>
     <g id="text_47">
      <!-- 0.003 -->
      <g transform="translate(48.03625 476.751289)scale(0.12 -0.12)">
       <use xlink:href="#DejaVuSans-30"/>
       <use x="63.623047" xlink:href="#DejaVuSans-2e"/>
       <use x="95.410156" xlink:href="#DejaVuSans-30"/>
       <use x="159.033203" xlink:href="#DejaVuSans-30"/>
       <use x="222.65625" xlink:href="#DejaVuSans-33"/>
      </g>
     </g>
    </g>
    <g id="text_48">
     <!-- Spectral Radiance -->
     <g transform="translate(25.44775 591.891562)rotate(-90)scale(0.14 -0.14)">
      <use xlink:href="#DejaVuSans-53"/>
      <use x="63.476562" xlink:href="#DejaVuSans-70"/>
      <use x="126.953125" xlink:href="#DejaVuSans-65"/>
      <use x="188.476562" xlink:href="#DejaVuSans-63"/>
      <use x="243.457031" xlink:href="#DejaVuSans-74"/>
      <use x="282.666016" xlink:href="#DejaVuSans-72"/>
      <use x="323.779297" xlink:href="#DejaVuSans-61"/>
      <use x="385.058594" xlink:href="#DejaVuSans-6c"/>
      <use x="412.841797" xlink:href="#DejaVuSans-20"/>
      <use x="444.628906" xlink:href="#DejaVuSans-52"/>
      <use x="511.861328" xlink:href="#DejaVuSans-61"/>
      <use x="573.140625" xlink:href="#DejaVuSans-64"/>
      <use x="636.617188" xlink:href="#DejaVuSans-69"/>
      <use x="664.400391" xlink:href="#DejaVuSans-61"/>
      <use x="725.679688" xlink:href="#DejaVuSans-6e"/>
      <use x="789.058594" xlink:href="#DejaVuSans-63"/>
      <use x="844.039062" xlink:href="#DejaVuSans-65"/>
     </g>
     <!-- (units unknown) -->
     <g transform="translate(41.124688 585.201094)rotate(-90)scale(0.14 -0.14)">
      <use xlink:href="#DejaVuSans-28"/>
      <use x="39.013672" xlink:href="#DejaVuSans-75"/>
      <use x="102.392578" xlink:href="#DejaVuSans-6e"/>
      <use x="165.771484" xlink:href="#DejaVuSans-69"/>
      <use x="193.554688" xlink:href="#DejaVuSans-74"/>
      <use x="232.763672" xlink:href="#DejaVuSans-73"/>
      <use x="284.863281" xlink:href="#DejaVuSans-20"/>
      <use x="316.650391" xlink:href="#DejaVuSans-75"/>
      <use x="380.029297" xlink:href="#DejaVuSans-6e"/>
      <use x="443.408203" xlink:href="#DejaVuSans-6b"/>
      <use x="501.318359" xlink:href="#DejaVuSans-6e"/>
      <use x="564.697266" xlink:href="#DejaVuSans-6f"/>
      <use x="625.878906" xlink:href="#DejaVuSans-77"/>
      <use x="707.666016" xlink:href="#DejaVuSans-6e"/>
      <use x="771.044922" xlink:href="#DejaVuSans-29"/>
     </g>
    </g>
   </g>
   <g id="line2d_53">
    <path clip-path="url(#p947cdd5b1f)" d="M 114.51881 585.775477 
L 124.570333 584.735776 
L 134.621857 583.609756 
L 144.673381 581.860148 
L 154.724905 580.052477 
L 164.776429 577.462902 
L 174.827952 574.149485 
L 184.879476 569.46967 
L 194.931 564.580831 
L 204.982524 559.513935 
L 215.034048 553.405789 
L 225.085571 546.318328 
L 235.137095 540.357273 
L 245.188619 534.667175 
L 255.240143 530.796361 
L 265.291667 528.667413 
L 275.34319 526.654589 
L 285.394714 525.996551 
L 295.446238 526.925546 
L 305.497762 528.744829 
L 315.549286 532.344687 
L 325.60081 536.796124 
L 335.652333 541.441101 
L 345.703857 546.163495 
L 355.755381 551.749081 
L 365.806905 556.459862 
L 375.858429 560.880332 
L 385.909952 565.173066 
L 395.961476 569.024526 
L 406.013 572.241173 
L 416.064524 575.403629 
L 426.116048 577.571285 
L 436.167571 579.386697 
L 446.219095 580.938894 
L 456.270619 582.274325 
L 466.322143 583.350411 
L 476.373667 584.329728 
L 486.42519 585.027635 
L 496.476714 585.558711 
L 506.528238 585.975985 
L 516.579762 586.315068 
L 526.631286 586.614669 
L 536.68281 586.874401 
L 546.734333 587.052459 
L 556.785857 587.22471 
L 566.837381 587.397348 
L 576.888905 587.545213 
L 586.940429 587.657854 
L 596.991952 587.773591 
L 607.043476 587.849072 
L 617.095 587.907134 
L 627.146524 587.930669 
L 637.198048 587.929198 
L 647.249571 587.947894 
L 657.301095 588.006769 
L 667.352619 588.097772 
L 677.404143 588.138687 
L 687.455667 588.12212 
L 697.50719 588.004485 
L 707.558714 587.875781 
L 717.610238 587.659015 
L 727.661762 587.339286 
L 737.713286 587.549858 
L 747.76481 587.942746 
L 757.816333 588.180685 
L 767.867857 588.241031 
L 777.919381 588.298013 
L 787.970905 588.298849 
L 798.022429 588.272694 
L 808.073952 588.289432 
L 818.125476 588.26383 
L 828.177 588.311286 
L 838.228524 588.311011 
L 848.280048 588.276139 
L 858.331571 588.274513 
L 868.383095 588.265301 
L 878.434619 588.242541 
L 888.486143 588.261353 
L 898.537667 588.297731 
L 908.58919 588.150493 
L 918.640714 587.914489 
L 928.692238 587.696949 
L 938.743762 587.767398 
L 948.795286 588.143177 
L 958.84681 588.266617 
L 968.898333 588.22489 
L 978.949857 588.165511 
L 989.001381 588.296933 
L 999.052905 588.304733 
L 1009.104429 588.279557 
L 1019.155952 588.295776 
L 1029.207476 588.30154 
L 1039.259 588.300607 
L 1049.310524 588.288088 
L 1059.362048 588.228451 
L 1069.413571 588.220051 
L 1079.465095 588.274552 
L 1089.516619 588.236309 
L 1099.568143 588.130635 
L 1109.619667 588.130984 
L 1119.67119 588.193497 
" style="fill:none;stroke:#0000ff;stroke-linecap:square;stroke-width:2;"/>
   </g>
   <g id="patch_15">
    <path d="M 89.39 600.28 
L 89.39 456.72 
" style="fill:none;stroke:#000000;stroke-linecap:square;stroke-linejoin:miter;stroke-width:0.8;"/>
   </g>
   <g id="patch_16">
    <path d="M 1144.8 600.28 
L 1144.8 456.72 
" style="fill:none;stroke:#000000;stroke-linecap:square;stroke-linejoin:miter;stroke-width:0.8;"/>
   </g>
   <g id="patch_17">
    <path d="M 89.39 600.28 
L 1144.8 600.28 
" style="fill:none;stroke:#000000;stroke-linecap:square;stroke-linejoin:miter;stroke-width:0.8;"/>
   </g>
   <g id="patch_18">
    <path d="M 89.39 456.72 
L 1144.8 456.72 
" style="fill:none;stroke:#000000;stroke-linecap:square;stroke-linejoin:miter;stroke-width:0.8;"/>
   </g>
   <g id="text_49">
    <!-- CRT Blue Phosphor Spectrum -->
    <g transform="translate(500.2575 450.72)scale(0.16 -0.16)">
     <defs>
      <path d="M 1259 2228 
L 1259 519 
L 2272 519 
Q 2781 519 3026 730 
Q 3272 941 3272 1375 
Q 3272 1813 3026 2020 
Q 2781 2228 2272 2228 
L 1259 2228 
z
M 1259 4147 
L 1259 2741 
L 2194 2741 
Q 2656 2741 2882 2914 
Q 3109 3088 3109 3444 
Q 3109 3797 2882 3972 
Q 2656 4147 2194 4147 
L 1259 4147 
z
M 628 4666 
L 2241 4666 
Q 2963 4666 3353 4366 
Q 3744 4066 3744 3513 
Q 3744 3084 3544 2831 
Q 3344 2578 2956 2516 
Q 3422 2416 3680 2098 
Q 3938 1781 3938 1306 
Q 3938 681 3513 340 
Q 3088 0 2303 0 
L 628 0 
L 628 4666 
z
" id="DejaVuSans-42" transform="scale(0.015625)"/>
     </defs>
     <use xlink:href="#DejaVuSans-43"/>
     <use x="69.824219" xlink:href="#DejaVuSans-52"/>
     <use x="132.056641" xlink:href="#DejaVuSans-54"/>
     <use x="193.140625" xlink:href="#DejaVuSans-20"/>
     <use x="224.927734" xlink:href="#DejaVuSans-42"/>
     <use x="293.53125" xlink:href="#DejaVuSans-6c"/>
     <use x="321.314453" xlink:href="#DejaVuSans-75"/>
     <use x="384.693359" xlink:href="#DejaVuSans-65"/>
     <use x="446.216797" xlink:href="#DejaVuSans-20"/>
     <use x="478.003906" xlink:href="#DejaVuSans-50"/>
     <use x="538.306641" xlink:href="#DejaVuSans-68"/>
     <use x="601.685547" xlink:href="#DejaVuSans-6f"/>
     <use x="662.867188" xlink:href="#DejaVuSans-73"/>
     <use x="714.966797" xlink:href="#DejaVuSans-70"/>
     <use x="778.443359" xlink:href="#DejaVuSans-68"/>
     <use x="841.822266" xlink:href="#DejaVuSans-6f"/>
     <use x="903.003906" xlink:href="#DejaVuSans-72"/>
     <use x="944.117188" xlink:href="#DejaVuSans-20"/>
     <use x="975.904297" xlink:href="#DejaVuSans-53"/>
     <use x="1039.380859" xlink:href="#DejaVuSans-70"/>
     <use x="1102.857422" xlink:href="#DejaVuSans-65"/>
     <use x="1164.380859" xlink:href="#DejaVuSans-63"/>
     <use x="1219.361328" xlink:href="#DejaVuSans-74"/>
     <use x="1258.570312" xlink:href="#DejaVuSans-72"/>
     <use x="1299.683594" xlink:href="#DejaVuSans-75"/>
     <use x="1363.0625" xlink:href="#DejaVuSans-6d"/>
    </g>
   </g>
   <g id="legend_3">
    <g id="patch_19">
     <path d="M 937.059375 511.384875 
L 1137.8 511.384875 
Q 1139.8 511.384875 1139.8 509.384875 
L 1139.8 463.72 
Q 1139.8 461.72 1137.8 461.72 
L 937.059375 461.72 
Q 935.059375 461.72 935.059375 463.72 
L 935.059375 509.384875 
Q 935.059375 511.384875 937.059375 511.384875 
z
" style="fill:#ffffff;opacity:0.8;stroke:#cccccc;stroke-linejoin:miter;"/>
    </g>
    <g id="line2d_54">
     <path d="M 939.059375 471.338125 
L 959.059375 471.338125 
" style="fill:none;stroke:#0000ff;stroke-linecap:square;stroke-width:2;"/>
    </g>
    <g id="line2d_55"/>
    <g id="text_50">
     <!-- Blue Spectrum -->
     <g transform="translate(967.059375 474.838125)scale(0.12 -0.12)">
      <use xlink:href="#DejaVuSans-42"/>
      <use x="68.603516" xlink:href="#DejaVuSans-6c"/>
      <use x="96.386719" xlink:href="#DejaVuSans-75"/>
      <use x="159.765625" xlink:href="#DejaVuSans-65"/>
      <use x="221.289062" xlink:href="#DejaVuSans-20"/>
      <use x="253.076172" xlink:href="#DejaVuSans-53"/>
      <use x="316.552734" xlink:href="#DejaVuSans-70"/>
      <use x="380.029297" xlink:href="#DejaVuSans-65"/>
      <use x="441.552734" xlink:href="#DejaVuSans-63"/>
      <use x="496.533203" xlink:href="#DejaVuSans-74"/>
      <use x="535.742188" xlink:href="#DejaVuSans-72"/>
      <use x="576.855469" xlink:href="#DejaVuSans-75"/>
      <use x="640.234375" xlink:href="#DejaVuSans-6d"/>
     </g>
    </g>
    <g id="line2d_56">
     <path d="M 939.059375 495.918375 
L 959.059375 495.918375 
" style="fill:none;stroke:#bfbfbf;stroke-linecap:square;stroke-width:1.5;"/>
    </g>
    <g id="line2d_57"/>
    <g id="text_51">
     <!-- White Spectrum -->
     <g transform="translate(967.059375 491.451875)scale(0.12 -0.12)">
      <use xlink:href="#DejaVuSans-57"/>
      <use x="98.876953" xlink:href="#DejaVuSans-68"/>
      <use x="162.255859" xlink:href="#DejaVuSans-69"/>
      <use x="190.039062" xlink:href="#DejaVuSans-74"/>
      <use x="229.248047" xlink:href="#DejaVuSans-65"/>
      <use x="290.771484" xlink:href="#DejaVuSans-20"/>
      <use x="322.558594" xlink:href="#DejaVuSans-53"/>
      <use x="386.035156" xlink:href="#DejaVuSans-70"/>
      <use x="449.511719" xlink:href="#DejaVuSans-65"/>
      <use x="511.035156" xlink:href="#DejaVuSans-63"/>
      <use x="566.015625" xlink:href="#DejaVuSans-74"/>
      <use x="605.224609" xlink:href="#DejaVuSans-72"/>
      <use x="646.337891" xlink:href="#DejaVuSans-75"/>
      <use x="709.716797" xlink:href="#DejaVuSans-6d"/>
     </g>
     <!-- (sum of all three phorphors) -->
     <g transform="translate(967.059375 504.88925)scale(0.12 -0.12)">
      <use xlink:href="#DejaVuSans-28"/>
      <use x="39.013672" xlink:href="#DejaVuSans-73"/>
      <use x="91.113281" xlink:href="#DejaVuSans-75"/>
      <use x="154.492188" xlink:href="#DejaVuSans-6d"/>
      <use x="251.904297" xlink:href="#DejaVuSans-20"/>
      <use x="283.691406" xlink:href="#DejaVuSans-6f"/>
      <use x="344.873047" xlink:href="#DejaVuSans-66"/>
      <use x="380.078125" xlink:href="#DejaVuSans-20"/>
      <use x="411.865234" xlink:href="#DejaVuSans-61"/>
      <use x="473.144531" xlink:href="#DejaVuSans-6c"/>
      <use x="500.927734" xlink:href="#DejaVuSans-6c"/>
      <use x="528.710938" xlink:href="#DejaVuSans-20"/>
      <use x="560.498047" xlink:href="#DejaVuSans-74"/>
      <use x="599.707031" xlink:href="#DejaVuSans-68"/>
      <use x="663.085938" xlink:href="#DejaVuSans-72"/>
      <use x="701.949219" xlink:href="#DejaVuSans-65"/>
      <use x="763.472656" xlink:href="#DejaVuSans-65"/>
      <use x="824.996094" xlink:href="#DejaVuSans-20"/>
      <use x="856.783203" xlink:href="#DejaVuSans-70"/>
      <use x="920.259766" xlink:href="#DejaVuSans-68"/>
      <use x="983.638672" xlink:href="#DejaVuSans-6f"/>
      <use x="1044.820312" xlink:href="#DejaVuSans-72"/>
      <use x="1085.933594" xlink:href="#DejaVuSans-70"/>
      <use x="1149.410156" xlink:href="#DejaVuSans-68"/>
      <use x="1212.789062" xlink:href="#DejaVuSans-6f"/>
      <use x="1273.970703" xlink:href="#DejaVuSans-72"/>
      <use x="1315.083984" xlink:href="#DejaVuSans-73"/>
      <use x="1367.183594" xlink:href="#DejaVuSans-29"/>
     </g>
    </g>
   </g>
  </g>
 </g>
 <defs>
  <clipPath id="pd4650cf1cf">
   <rect height="143.56" width="1055.41" x="89.39" y="24.72"/>
  </clipPath>
  <clipPath id="pc9f685f7f9">
   <rect height="143.56" width="1055.41" x="89.39" y="240.72"/>
  </clipPath>
  <clipPath id="p947cdd5b1f">
   <rect height="143.56" width="1055.41" x="89.39" y="456.72"/>
  </clipPath>
 </defs>
</svg>
