<?xml version="1.0" encoding="utf-8" standalone="no"?>
<!DOCTYPE svg PUBLIC "-//W3C//DTD SVG 1.1//EN"
  "http://www.w3.org/Graphics/SVG/1.1/DTD/svg11.dtd">
<svg xmlns:xlink="http://www.w3.org/1999/xlink" width="288pt" height="230.4pt" viewBox="0 0 288 230.4" xmlns="http://www.w3.org/2000/svg" version="1.1">
 <metadata>
  <rdf:RDF xmlns:dc="http://purl.org/dc/elements/1.1/" xmlns:cc="http://creativecommons.org/ns#" xmlns:rdf="http://www.w3.org/1999/02/22-rdf-syntax-ns#">
   <cc:Work>
    <dc:type rdf:resource="http://purl.org/dc/dcmitype/StillImage"/>
    <dc:date>2022-07-04T03:18:04.239644</dc:date>
    <dc:format>image/svg+xml</dc:format>
    <dc:creator>
     <cc:Agent>
      <dc:title>Matplotlib v3.5.2, https://matplotlib.org/</dc:title>
     </cc:Agent>
    </dc:creator>
   </cc:Work>
  </rdf:RDF>
 </metadata>
 <defs>
  <style type="text/css">*{stroke-linejoin: round; stroke-linecap: butt}</style>
 </defs>
 <g id="figure_1">
  <g id="patch_1">
   <path d="M 0 230.4 
L 288 230.4 
L 288 0 
L 0 0 
z
" style="fill: #ffffff"/>
  </g>
  <g id="axes_1">
   <g id="patch_2">
    <path d="M 68.7125 192.535 
L 254.0475 192.535 
L 254.0475 7.2 
L 68.7125 7.2 
L 68.7125 192.535 
z
" style="fill: none"/>
   </g>
   <g id="line2d_1">
    <path d="M 68.7125 179.581478 
L 254.0475 179.581478 
" clip-path="url(#p81f7daf648)" style="fill: none; stroke: #404040; stroke-width: 2; stroke-linecap: square"/>
   </g>
   <g id="line2d_2">
    <path d="M 81.666022 192.535 
L 81.666022 7.2 
" clip-path="url(#p81f7daf648)" style="fill: none; stroke: #404040; stroke-width: 2; stroke-linecap: square"/>
   </g>
   <g id="line2d_3">
    <path d="M 100.369489 -1 
L 280.950968 179.581478 
" clip-path="url(#p81f7daf648)" style="fill: none; stroke-dasharray: 1.5,2.475; stroke-dashoffset: 0; stroke: #bfbfbf; stroke-width: 1.5"/>
   </g>
   <g id="line2d_4">
    <path d="M 117.22237 174.671765 
L 117.107825 174.580633 
L 116.843904 174.733878 
L 116.121892 175.296213 
L 115.504517 175.410622 
L 114.89099 175.220385 
L 114.241961 174.802375 
L 112.958828 173.606162 
L 111.866561 172.235013 
L 110.900199 170.614918 
L 107.697557 164.548446 
L 105.299712 159.135245 
L 103.411971 154.46597 
L 101.164482 148.367497 
L 98.499271 140.50288 
L 95.475096 130.800898 
L 93.350807 123.441986 
L 91.193955 115.370114 
L 89.067286 106.556288 
L 87.067927 97.103003 
L 85.304445 87.266147 
L 83.877871 77.3458 
L 83.327814 72.445946 
L 82.908124 67.637149 
L 82.635051 62.959076 
L 82.519102 58.443118 
L 82.547917 54.085478 
L 82.95826 45.786914 
L 83.693273 37.949112 
L 84.705707 30.655285 
L 85.344009 27.299267 
L 86.086161 24.183322 
L 86.943883 21.347107 
L 87.928599 18.851778 
L 89.047108 16.746647 
L 90.301471 15.061067 
L 91.689986 13.806915 
L 93.201113 12.967399 
L 94.794993 12.464257 
L 96.428448 12.214495 
L 98.062441 12.145799 
L 101.203937 12.321748 
L 104.193998 12.859204 
L 105.692495 13.31078 
L 107.225149 13.907117 
L 110.431724 15.534566 
L 113.744368 17.582584 
L 117.059468 19.874891 
L 121.872927 23.513932 
L 126.369354 27.175633 
L 132.191717 32.226821 
L 139.535376 38.964786 
L 149.063183 48.06854 
L 162.163411 60.920664 
L 189.472807 88.116849 
L 225.587028 124.217539 
L 225.587028 124.217539 
" clip-path="url(#p81f7daf648)" style="fill: none; stroke-dasharray: 5.55,2.4; stroke-dashoffset: 0; stroke: #3333cc; stroke-width: 1.5"/>
   </g>
   <g id="line2d_5">
    <path d="M 117.22237 174.671765 
L 225.587028 124.217539 
" clip-path="url(#p81f7daf648)" style="fill: none; stroke-dasharray: 5.55,2.4; stroke-dashoffset: 0; stroke: #3333cc; stroke-width: 1.5"/>
   </g>
   <g id="line2d_6">
    <path d="M 114.823034 175.934604 
L 114.705899 175.850198 
L 114.457758 176.026354 
L 114.016196 176.33932 
L 113.539399 176.424269 
L 112.971909 176.251541 
L 112.324461 175.828449 
L 111.302245 174.911551 
L 110.40925 173.812262 
L 108.619094 170.894434 
L 107.18749 168.232088 
L 105.218024 164.091019 
L 103.06223 159.041108 
L 100.258193 151.73965 
L 97.71852 144.505094 
L 94.915576 135.790751 
L 92.926861 129.043817 
L 90.876032 121.451127 
L 88.847805 113.090254 
L 86.95422 104.145221 
L 85.307366 94.823592 
L 84.01268 85.332033 
L 83.14358 75.856065 
L 82.643514 66.37808 
L 82.412163 56.835827 
L 82.450032 47.36291 
L 82.605226 42.759421 
L 82.871215 38.307782 
L 83.264058 34.066842 
L 83.803394 30.131712 
L 84.503792 26.589121 
L 85.372908 23.503266 
L 86.412271 20.915656 
L 87.611329 18.829505 
L 88.929935 17.168973 
L 90.324197 15.84769 
L 91.754235 14.788828 
L 93.184022 13.924874 
L 94.589182 13.209518 
L 95.979929 12.65006 
L 97.374303 12.263075 
L 98.789737 12.06157 
L 100.243031 12.055604 
L 101.745246 12.246289 
L 103.287187 12.60842 
L 106.438614 13.735416 
L 109.605471 15.244626 
L 112.718162 17.005041 
L 115.724813 18.922966 
L 120.022968 21.978538 
L 124.31121 25.34633 
L 130.123414 30.294003 
L 137.086136 36.609871 
L 146.396258 45.447918 
L 158.874855 57.66451 
L 182.220263 80.878323 
L 225.807649 124.438159 
L 225.807649 124.438159 
" clip-path="url(#p81f7daf648)" style="fill: none; stroke-dasharray: 9.6,2.4,1.5,2.4; stroke-dashoffset: 0; stroke: #33cc33; stroke-width: 1.5"/>
   </g>
   <g id="line2d_7">
    <path d="M 114.823034 175.934604 
L 225.807649 124.438159 
" clip-path="url(#p81f7daf648)" style="fill: none; stroke-dasharray: 9.6,2.4,1.5,2.4; stroke-dashoffset: 0; stroke: #33cc33; stroke-width: 1.5"/>
   </g>
   <g id="line2d_8">
    <path d="M 117.979342 175.600088 
L 116.188283 176.032979 
L 115.564376 176.000541 
L 114.78437 175.683486 
L 113.984152 175.100185 
L 113.075689 174.132578 
L 112.136174 172.913606 
L 110.965108 170.96083 
L 109.351121 167.839585 
L 105.932176 160.83202 
L 104.619659 157.851453 
L 100.744049 147.877262 
L 98.959303 142.853319 
L 97.106971 137.087775 
L 92.981473 122.765493 
L 90.672468 114.308207 
L 88.470624 105.395156 
L 86.596251 96.347817 
L 85.194438 87.296151 
L 84.021946 77.533436 
L 83.121105 67.479071 
L 82.60199 57.755922 
L 82.519102 53.213084 
L 82.574577 48.987289 
L 82.779295 45.155199 
L 83.147676 41.640792 
L 83.672957 38.320566 
L 84.338674 35.202463 
L 85.1283 32.29427 
L 86.025123 29.603999 
L 87.012521 27.138133 
L 88.074217 24.90832 
L 89.193481 22.918429 
L 90.354488 21.178441 
L 91.538697 19.694738 
L 92.786191 18.523343 
L 94.132181 17.68689 
L 95.561457 17.142546 
L 97.059559 16.852084 
L 98.610084 16.770503 
L 100.198562 16.861311 
L 103.427649 17.393782 
L 108.213992 18.568771 
L 109.840833 19.177365 
L 113.156498 20.773002 
L 116.496134 22.718187 
L 122.929404 26.873061 
L 125.920526 28.903249 
L 130.220187 32.136024 
L 135.790999 36.674287 
L 141.345579 41.37981 
L 148.170184 47.529286 
L 157.625672 56.390704 
L 165.504794 64.135305 
L 225.222745 123.853256 
L 225.222745 123.853256 
" clip-path="url(#p81f7daf648)" style="fill: none; stroke-dasharray: 1.5,2.475; stroke-dashoffset: 0; stroke: #cc3333; stroke-width: 1.5"/>
   </g>
   <g id="line2d_9">
    <path d="M 117.979342 175.600088 
L 225.222745 123.853256 
" clip-path="url(#p81f7daf648)" style="fill: none; stroke-dasharray: 1.5,2.475; stroke-dashoffset: 0; stroke: #cc3333; stroke-width: 1.5"/>
   </g>
   <g id="line2d_10">
    <path d="M 116.652533 178.526496 
L 115.742267 178.518511 
L 115.012038 177.952244 
L 110.946605 174.273487 
L 109.390679 172.566534 
L 108.272423 171.073528 
L 106.907883 168.934497 
L 105.321399 166.063892 
L 103.50652 162.275073 
L 101.42066 157.260163 
L 99.020239 150.821356 
L 97.233362 145.619241 
L 95.358077 139.580363 
L 93.486773 132.69895 
L 91.636546 124.977044 
L 89.788341 116.411921 
L 87.994608 107.121932 
L 86.341235 97.335888 
L 84.908083 87.321614 
L 83.753671 77.267741 
L 82.918498 67.370411 
L 82.459659 57.928482 
L 82.434967 49.085082 
L 82.591842 44.885091 
L 82.863906 40.855229 
L 83.257989 37.024683 
L 83.779098 33.42332 
L 84.430153 30.080617 
L 85.206543 27.006501 
L 86.098957 24.212971 
L 87.101172 21.727175 
L 88.206625 19.570479 
L 89.408601 17.758909 
L 90.699207 16.289227 
L 92.064051 15.138806 
L 93.488707 14.289407 
L 94.961493 13.721851 
L 96.473376 13.417074 
L 98.018028 13.359835 
L 99.590056 13.519541 
L 101.183939 13.857579 
L 104.416534 14.930869 
L 107.681808 16.381485 
L 110.915714 18.082033 
L 115.591732 20.847324 
L 120.103324 23.814542 
L 124.518174 27.009901 
L 128.87358 30.411821 
L 134.630995 35.234624 
L 140.34553 40.312784 
L 147.473009 46.931833 
L 157.442894 56.522595 
L 172.946631 71.80088 
L 228.078688 126.709198 
L 228.078688 126.709198 
" clip-path="url(#p81f7daf648)" style="fill: none; stroke: #333333; stroke-width: 1.5; stroke-linecap: square"/>
   </g>
   <g id="line2d_11">
    <path d="M 116.652533 178.526496 
L 228.078688 126.709198 
" clip-path="url(#p81f7daf648)" style="fill: none; stroke: #333333; stroke-width: 1.5; stroke-linecap: square"/>
   </g>
   <g id="matplotlib.axis_1">
    <g id="xtick_1">
     <g id="line2d_12">
      <defs>
       <path id="mc602fc3563" d="M 0 0 
L 0 3.5 
" style="stroke: #000000; stroke-width: 0.8"/>
      </defs>
      <g>
       <use xlink:href="#mc602fc3563" x="81.666022" y="192.535" style="stroke: #000000; stroke-width: 0.8"/>
      </g>
     </g>
     <g id="text_1">
      <!-- 0.0 -->
      <g transform="translate(75.276959 206.474063)scale(0.1 -0.1)">
       <defs>
        <path id="CMUSerif-Roman-30" d="M 250 2047 
Q 250 2988 488 3500 
Q 819 4263 1600 4263 
Q 1766 4263 1939 4217 
Q 2113 4172 2333 4000 
Q 2553 3828 2688 3547 
Q 2944 3003 2944 2047 
Q 2944 1113 2706 603 
Q 2359 -141 1594 -141 
Q 1306 -141 1014 6 
Q 722 153 538 506 
Q 250 1034 250 2047 
z
M 781 2125 
Q 781 1159 850 775 
Q 928 359 1142 179 
Q 1356 0 1594 0 
Q 1850 0 2064 192 
Q 2278 384 2344 800 
Q 2416 1209 2413 2125 
Q 2413 3016 2350 3372 
Q 2266 3788 2042 3955 
Q 1819 4122 1594 4122 
Q 1509 4122 1420 4097 
Q 1331 4072 1203 4000 
Q 1075 3928 976 3750 
Q 878 3572 831 3303 
Q 781 2956 781 2125 
z
" transform="scale(0.015625)"/>
        <path id="CMUSerif-Roman-2e" d="M 641 103 
Q 544 206 544 340 
Q 544 475 641 573 
Q 738 672 884 672 
Q 1025 672 1120 580 
Q 1216 488 1216 339 
Q 1216 191 1114 95 
Q 1013 0 884 0 
Q 738 0 641 103 
z
" transform="scale(0.015625)"/>
       </defs>
       <use xlink:href="#CMUSerif-Roman-30"/>
       <use xlink:href="#CMUSerif-Roman-2e" x="50"/>
       <use xlink:href="#CMUSerif-Roman-30" x="77.783203"/>
      </g>
     </g>
    </g>
    <g id="xtick_2">
     <g id="line2d_13">
      <g>
       <use xlink:href="#mc602fc3563" x="101.594516" y="192.535" style="stroke: #000000; stroke-width: 0.8"/>
      </g>
     </g>
     <g id="text_2">
      <!-- 0.1 -->
      <g transform="translate(95.205454 206.474063)scale(0.1 -0.1)">
       <defs>
        <path id="CMUSerif-Roman-31" d="M 569 3653 
L 569 3853 
Q 1338 3853 1734 4263 
Q 1844 4263 1862 4238 
Q 1881 4213 1881 4097 
L 1881 506 
Q 1881 316 1975 256 
Q 2069 197 2478 197 
L 2681 197 
L 2681 0 
Q 2456 19 1643 19 
Q 831 19 609 0 
L 609 197 
L 813 197 
Q 1216 197 1312 255 
Q 1409 313 1409 506 
L 1409 3822 
Q 1075 3653 569 3653 
z
" transform="scale(0.015625)"/>
       </defs>
       <use xlink:href="#CMUSerif-Roman-30"/>
       <use xlink:href="#CMUSerif-Roman-2e" x="50"/>
       <use xlink:href="#CMUSerif-Roman-31" x="77.783203"/>
      </g>
     </g>
    </g>
    <g id="xtick_3">
     <g id="line2d_14">
      <g>
       <use xlink:href="#mc602fc3563" x="121.523011" y="192.535" style="stroke: #000000; stroke-width: 0.8"/>
      </g>
     </g>
     <g id="text_3">
      <!-- 0.2 -->
      <g transform="translate(115.133948 206.474063)scale(0.1 -0.1)">
       <defs>
        <path id="CMUSerif-Roman-32" d="M 319 0 
Q 319 116 330 150 
Q 341 184 391 238 
L 1619 1606 
Q 2291 2363 2291 3022 
Q 2291 3450 2067 3756 
Q 1844 4063 1434 4063 
Q 1153 4063 915 3891 
Q 678 3719 569 3413 
Q 588 3419 653 3419 
Q 813 3419 902 3319 
Q 991 3219 991 3084 
Q 991 2913 880 2830 
Q 769 2747 659 2747 
Q 616 2747 558 2756 
Q 500 2766 409 2855 
Q 319 2944 319 3103 
Q 319 3550 658 3906 
Q 997 4263 1516 4263 
Q 2103 4263 2489 3914 
Q 2875 3566 2875 3022 
Q 2875 2831 2817 2657 
Q 2759 2484 2682 2350 
Q 2606 2216 2400 2000 
Q 2194 1784 2028 1631 
Q 1863 1478 1491 1153 
L 813 494 
L 1966 494 
Q 2528 494 2572 544 
Q 2634 634 2713 1113 
L 2875 1113 
L 2694 0 
L 319 0 
z
" transform="scale(0.015625)"/>
       </defs>
       <use xlink:href="#CMUSerif-Roman-30"/>
       <use xlink:href="#CMUSerif-Roman-2e" x="50"/>
       <use xlink:href="#CMUSerif-Roman-32" x="77.783203"/>
      </g>
     </g>
    </g>
    <g id="xtick_4">
     <g id="line2d_15">
      <g>
       <use xlink:href="#mc602fc3563" x="141.451505" y="192.535" style="stroke: #000000; stroke-width: 0.8"/>
      </g>
     </g>
     <g id="text_4">
      <!-- 0.3 -->
      <g transform="translate(135.062443 206.474063)scale(0.1 -0.1)">
       <defs>
        <path id="CMUSerif-Roman-33" d="M 269 863 
Q 269 1053 378 1143 
Q 488 1234 628 1234 
Q 775 1234 879 1139 
Q 984 1044 984 878 
Q 984 700 861 600 
Q 738 500 563 525 
Q 716 269 998 153 
Q 1281 38 1544 38 
Q 1819 38 2042 275 
Q 2266 513 2266 1094 
Q 2266 1588 2073 1872 
Q 1881 2156 1503 2156 
L 1222 2156 
Q 1125 2156 1097 2165 
Q 1069 2175 1069 2228 
Q 1069 2291 1166 2303 
Q 1263 2303 1416 2322 
Q 1788 2334 1984 2656 
Q 2163 2956 2163 3384 
Q 2163 3775 1977 3939 
Q 1791 4103 1550 4103 
Q 1325 4103 1078 4009 
Q 831 3916 697 3706 
Q 1094 3706 1094 3384 
Q 1094 3244 1005 3151 
Q 916 3059 769 3059 
Q 628 3059 534 3148 
Q 441 3238 441 3391 
Q 441 3756 767 4009 
Q 1094 4263 1575 4263 
Q 2050 4263 2401 4013 
Q 2753 3763 2753 3378 
Q 2753 3000 2503 2690 
Q 2253 2381 1856 2253 
Q 2344 2156 2634 1826 
Q 2925 1497 2925 1094 
Q 2925 594 2531 226 
Q 2138 -141 1563 -141 
Q 1031 -141 650 146 
Q 269 434 269 863 
z
" transform="scale(0.015625)"/>
       </defs>
       <use xlink:href="#CMUSerif-Roman-30"/>
       <use xlink:href="#CMUSerif-Roman-2e" x="50"/>
       <use xlink:href="#CMUSerif-Roman-33" x="77.783203"/>
      </g>
     </g>
    </g>
    <g id="xtick_5">
     <g id="line2d_16">
      <g>
       <use xlink:href="#mc602fc3563" x="161.38" y="192.535" style="stroke: #000000; stroke-width: 0.8"/>
      </g>
     </g>
     <g id="text_5">
      <!-- 0.4 -->
      <g transform="translate(154.990938 206.474063)scale(0.1 -0.1)">
       <defs>
        <path id="CMUSerif-Roman-34" d="M 178 1056 
L 178 1253 
L 2144 4256 
Q 2194 4334 2272 4331 
Q 2344 4331 2359 4303 
Q 2375 4275 2375 4166 
L 2375 1253 
L 3016 1253 
L 3016 1056 
L 2375 1056 
L 2375 500 
Q 2375 316 2451 256 
Q 2528 197 2859 197 
L 2994 197 
L 2994 0 
Q 2731 19 2125 19 
Q 1522 19 1259 0 
L 1259 197 
L 1394 197 
Q 1725 197 1803 255 
Q 1881 313 1881 500 
L 1881 1056 
L 178 1056 
z
M 359 1253 
L 1919 1253 
L 1919 3641 
L 359 1253 
z
" transform="scale(0.015625)"/>
       </defs>
       <use xlink:href="#CMUSerif-Roman-30"/>
       <use xlink:href="#CMUSerif-Roman-2e" x="50"/>
       <use xlink:href="#CMUSerif-Roman-34" x="77.783203"/>
      </g>
     </g>
    </g>
    <g id="xtick_6">
     <g id="line2d_17">
      <g>
       <use xlink:href="#mc602fc3563" x="181.308495" y="192.535" style="stroke: #000000; stroke-width: 0.8"/>
      </g>
     </g>
     <g id="text_6">
      <!-- 0.5 -->
      <g transform="translate(174.919432 206.474063)scale(0.1 -0.1)">
       <defs>
        <path id="CMUSerif-Roman-35" d="M 319 1031 
Q 319 1222 422 1295 
Q 525 1369 634 1369 
Q 781 1369 867 1276 
Q 953 1184 953 1056 
Q 953 928 867 836 
Q 781 744 634 744 
Q 563 744 525 756 
Q 609 463 867 250 
Q 1125 38 1466 38 
Q 1894 38 2150 453 
Q 2303 722 2303 1331 
Q 2303 1869 2188 2138 
Q 2009 2547 1644 2547 
Q 1125 2547 819 2100 
Q 781 2044 738 2041 
Q 675 2041 661 2077 
Q 647 2113 647 2209 
L 647 4103 
Q 647 4256 709 4256 
Q 734 4256 788 4238 
Q 1191 4059 1638 4056 
Q 2097 4056 2509 4244 
Q 2541 4263 2559 4263 
Q 2622 4263 2625 4191 
Q 2625 4166 2573 4092 
Q 2522 4019 2412 3923 
Q 2303 3828 2162 3737 
Q 2022 3647 1817 3586 
Q 1613 3525 1388 3525 
Q 1119 3525 844 3609 
L 844 2363 
Q 1175 2688 1656 2688 
Q 2169 2688 2522 2275 
Q 2875 1863 2875 1288 
Q 2875 684 2458 271 
Q 2041 -141 1478 -141 
Q 966 -141 642 225 
Q 319 591 319 1031 
z
" transform="scale(0.015625)"/>
       </defs>
       <use xlink:href="#CMUSerif-Roman-30"/>
       <use xlink:href="#CMUSerif-Roman-2e" x="50"/>
       <use xlink:href="#CMUSerif-Roman-35" x="77.783203"/>
      </g>
     </g>
    </g>
    <g id="xtick_7">
     <g id="line2d_18">
      <g>
       <use xlink:href="#mc602fc3563" x="201.236989" y="192.535" style="stroke: #000000; stroke-width: 0.8"/>
      </g>
     </g>
     <g id="text_7">
      <!-- 0.6 -->
      <g transform="translate(194.847927 206.474063)scale(0.1 -0.1)">
       <defs>
        <path id="CMUSerif-Roman-36" d="M 269 2022 
Q 269 3028 781 3645 
Q 1294 4263 1953 4263 
Q 2338 4263 2552 4067 
Q 2766 3872 2766 3572 
Q 2766 3406 2669 3334 
Q 2572 3263 2472 3263 
Q 2356 3263 2265 3341 
Q 2175 3419 2175 3559 
Q 2175 3847 2528 3847 
Q 2363 4103 1966 4103 
Q 1844 4103 1719 4067 
Q 1594 4031 1431 3912 
Q 1269 3794 1144 3606 
Q 1019 3419 931 3066 
Q 844 2713 844 2253 
L 844 2100 
Q 1106 2734 1643 2732 
Q 2181 2731 2553 2322 
Q 2925 1913 2925 1306 
Q 2925 684 2537 271 
Q 2150 -141 1606 -141 
Q 1363 -141 1142 -39 
Q 922 63 717 294 
Q 513 525 391 969 
Q 269 1413 269 2022 
z
M 856 1447 
Q 856 819 972 519 
Q 991 469 1033 400 
Q 1075 331 1148 242 
Q 1222 153 1344 95 
Q 1466 38 1606 38 
Q 2034 38 2241 453 
Q 2350 684 2350 1313 
Q 2350 1953 2234 2188 
Q 2038 2584 1638 2584 
Q 1369 2584 1183 2400 
Q 997 2216 926 1969 
Q 856 1722 856 1447 
z
" transform="scale(0.015625)"/>
       </defs>
       <use xlink:href="#CMUSerif-Roman-30"/>
       <use xlink:href="#CMUSerif-Roman-2e" x="50"/>
       <use xlink:href="#CMUSerif-Roman-36" x="77.783203"/>
      </g>
     </g>
    </g>
    <g id="xtick_8">
     <g id="line2d_19">
      <g>
       <use xlink:href="#mc602fc3563" x="221.165484" y="192.535" style="stroke: #000000; stroke-width: 0.8"/>
      </g>
     </g>
     <g id="text_8">
      <!-- 0.7 -->
      <g transform="translate(214.776421 206.474063)scale(0.1 -0.1)">
       <defs>
        <path id="CMUSerif-Roman-37" d="M 359 3009 
L 569 4325 
L 728 4325 
Q 747 4247 780 4212 
Q 813 4178 995 4150 
Q 1178 4122 1550 4122 
L 3103 4122 
Q 3103 3975 3047 3897 
L 2181 2681 
Q 1906 2297 1784 1588 
Q 1713 1113 1716 538 
L 1716 213 
Q 1716 -141 1420 -141 
Q 1125 -141 1125 213 
Q 1125 1434 1913 2619 
Q 1997 2741 2308 3175 
Q 2619 3609 2631 3628 
L 1306 3628 
Q 725 3628 678 3591 
Q 616 3534 519 3009 
L 359 3009 
z
" transform="scale(0.015625)"/>
       </defs>
       <use xlink:href="#CMUSerif-Roman-30"/>
       <use xlink:href="#CMUSerif-Roman-2e" x="50"/>
       <use xlink:href="#CMUSerif-Roman-37" x="77.783203"/>
      </g>
     </g>
    </g>
    <g id="xtick_9">
     <g id="line2d_20">
      <g>
       <use xlink:href="#mc602fc3563" x="241.093978" y="192.535" style="stroke: #000000; stroke-width: 0.8"/>
      </g>
     </g>
     <g id="text_9">
      <!-- 0.8 -->
      <g transform="translate(234.704916 206.474063)scale(0.1 -0.1)">
       <defs>
        <path id="CMUSerif-Roman-38" d="M 269 966 
Q 269 1681 1191 2144 
Q 794 2413 722 2491 
Q 441 2803 441 3194 
Q 441 3641 780 3952 
Q 1119 4263 1600 4263 
Q 2059 4263 2406 3997 
Q 2753 3731 2753 3309 
Q 2753 2716 1978 2316 
Q 2491 1997 2613 1863 
Q 2925 1516 2925 1075 
Q 2925 563 2531 211 
Q 2138 -141 1594 -141 
Q 1063 -141 666 168 
Q 269 478 269 966 
z
M 588 966 
Q 588 569 886 303 
Q 1184 38 1600 38 
Q 2003 38 2304 269 
Q 2606 500 2606 844 
Q 2606 978 2561 1093 
Q 2516 1209 2427 1301 
Q 2338 1394 2283 1436 
Q 2228 1478 2125 1550 
L 1338 2047 
Q 588 1631 588 966 
z
M 722 3444 
Q 722 3138 1044 2925 
L 1838 2413 
Q 2472 2784 2472 3309 
Q 2472 3650 2212 3876 
Q 1953 4103 1594 4103 
Q 1241 4103 981 3917 
Q 722 3731 722 3444 
z
" transform="scale(0.015625)"/>
       </defs>
       <use xlink:href="#CMUSerif-Roman-30"/>
       <use xlink:href="#CMUSerif-Roman-2e" x="50"/>
       <use xlink:href="#CMUSerif-Roman-38" x="77.783203"/>
      </g>
     </g>
    </g>
    <g id="text_10">
     <!-- x -->
     <g transform="translate(158.21875 220.74)scale(0.12 -0.12)">
      <defs>
       <path id="CMUSerif-Roman-78" d="M 78 0 
L 78 197 
Q 578 197 897 581 
Q 897 581 1497 1344 
L 863 2169 
Q 638 2456 539 2507 
Q 441 2559 109 2559 
L 109 2759 
Q 372 2741 716 2741 
Q 906 2741 1409 2759 
L 1409 2559 
Q 1184 2547 1184 2400 
Q 1184 2350 1241 2284 
L 1741 1638 
L 2138 2138 
Q 2234 2253 2234 2363 
Q 2234 2541 2047 2559 
L 2047 2759 
Q 2297 2741 2663 2741 
Q 2938 2741 3188 2759 
L 3188 2559 
Q 2700 2547 2425 2228 
Q 2303 2094 1838 1503 
L 2694 397 
Q 2797 263 2912 230 
Q 3028 197 3303 197 
L 3303 0 
Q 3016 19 2688 19 
Q 2572 19 1997 0 
L 1997 197 
Q 2113 203 2170 254 
Q 2228 306 2228 359 
Q 2228 384 2094 569 
L 1606 1209 
Q 1119 634 1056 500 
Q 1031 444 1031 397 
Q 1031 225 1216 197 
L 1216 0 
Q 756 19 609 19 
Q 328 19 78 0 
z
" transform="scale(0.015625)"/>
      </defs>
      <use xlink:href="#CMUSerif-Roman-78"/>
     </g>
    </g>
   </g>
   <g id="matplotlib.axis_2">
    <g id="ytick_1">
     <g id="line2d_21">
      <defs>
       <path id="mfe7a6a8821" d="M 0 0 
L -3.5 0 
" style="stroke: #000000; stroke-width: 0.8"/>
      </defs>
      <g>
       <use xlink:href="#mfe7a6a8821" x="68.7125" y="179.581478" style="stroke: #000000; stroke-width: 0.8"/>
      </g>
     </g>
     <g id="text_11">
      <!-- 0.0 -->
      <g transform="translate(48.934375 183.05101)scale(0.1 -0.1)">
       <use xlink:href="#CMUSerif-Roman-30"/>
       <use xlink:href="#CMUSerif-Roman-2e" x="50"/>
       <use xlink:href="#CMUSerif-Roman-30" x="77.783203"/>
      </g>
     </g>
    </g>
    <g id="ytick_2">
     <g id="line2d_22">
      <g>
       <use xlink:href="#mfe7a6a8821" x="68.7125" y="159.652984" style="stroke: #000000; stroke-width: 0.8"/>
      </g>
     </g>
     <g id="text_12">
      <!-- 0.1 -->
      <g transform="translate(48.934375 163.122515)scale(0.1 -0.1)">
       <use xlink:href="#CMUSerif-Roman-30"/>
       <use xlink:href="#CMUSerif-Roman-2e" x="50"/>
       <use xlink:href="#CMUSerif-Roman-31" x="77.783203"/>
      </g>
     </g>
    </g>
    <g id="ytick_3">
     <g id="line2d_23">
      <g>
       <use xlink:href="#mfe7a6a8821" x="68.7125" y="139.724489" style="stroke: #000000; stroke-width: 0.8"/>
      </g>
     </g>
     <g id="text_13">
      <!-- 0.2 -->
      <g transform="translate(48.934375 143.19402)scale(0.1 -0.1)">
       <use xlink:href="#CMUSerif-Roman-30"/>
       <use xlink:href="#CMUSerif-Roman-2e" x="50"/>
       <use xlink:href="#CMUSerif-Roman-32" x="77.783203"/>
      </g>
     </g>
    </g>
    <g id="ytick_4">
     <g id="line2d_24">
      <g>
       <use xlink:href="#mfe7a6a8821" x="68.7125" y="119.795995" style="stroke: #000000; stroke-width: 0.8"/>
      </g>
     </g>
     <g id="text_14">
      <!-- 0.3 -->
      <g transform="translate(48.934375 123.265526)scale(0.1 -0.1)">
       <use xlink:href="#CMUSerif-Roman-30"/>
       <use xlink:href="#CMUSerif-Roman-2e" x="50"/>
       <use xlink:href="#CMUSerif-Roman-33" x="77.783203"/>
      </g>
     </g>
    </g>
    <g id="ytick_5">
     <g id="line2d_25">
      <g>
       <use xlink:href="#mfe7a6a8821" x="68.7125" y="99.8675" style="stroke: #000000; stroke-width: 0.8"/>
      </g>
     </g>
     <g id="text_15">
      <!-- 0.4 -->
      <g transform="translate(48.934375 103.337031)scale(0.1 -0.1)">
       <use xlink:href="#CMUSerif-Roman-30"/>
       <use xlink:href="#CMUSerif-Roman-2e" x="50"/>
       <use xlink:href="#CMUSerif-Roman-34" x="77.783203"/>
      </g>
     </g>
    </g>
    <g id="ytick_6">
     <g id="line2d_26">
      <g>
       <use xlink:href="#mfe7a6a8821" x="68.7125" y="79.939005" style="stroke: #000000; stroke-width: 0.8"/>
      </g>
     </g>
     <g id="text_16">
      <!-- 0.5 -->
      <g transform="translate(48.934375 83.408537)scale(0.1 -0.1)">
       <use xlink:href="#CMUSerif-Roman-30"/>
       <use xlink:href="#CMUSerif-Roman-2e" x="50"/>
       <use xlink:href="#CMUSerif-Roman-35" x="77.783203"/>
      </g>
     </g>
    </g>
    <g id="ytick_7">
     <g id="line2d_27">
      <g>
       <use xlink:href="#mfe7a6a8821" x="68.7125" y="60.010511" style="stroke: #000000; stroke-width: 0.8"/>
      </g>
     </g>
     <g id="text_17">
      <!-- 0.6 -->
      <g transform="translate(48.934375 63.480042)scale(0.1 -0.1)">
       <use xlink:href="#CMUSerif-Roman-30"/>
       <use xlink:href="#CMUSerif-Roman-2e" x="50"/>
       <use xlink:href="#CMUSerif-Roman-36" x="77.783203"/>
      </g>
     </g>
    </g>
    <g id="ytick_8">
     <g id="line2d_28">
      <g>
       <use xlink:href="#mfe7a6a8821" x="68.7125" y="40.082016" style="stroke: #000000; stroke-width: 0.8"/>
      </g>
     </g>
     <g id="text_18">
      <!-- 0.7 -->
      <g transform="translate(48.934375 43.551547)scale(0.1 -0.1)">
       <use xlink:href="#CMUSerif-Roman-30"/>
       <use xlink:href="#CMUSerif-Roman-2e" x="50"/>
       <use xlink:href="#CMUSerif-Roman-37" x="77.783203"/>
      </g>
     </g>
    </g>
    <g id="ytick_9">
     <g id="line2d_29">
      <g>
       <use xlink:href="#mfe7a6a8821" x="68.7125" y="20.153522" style="stroke: #000000; stroke-width: 0.8"/>
      </g>
     </g>
     <g id="text_19">
      <!-- 0.8 -->
      <g transform="translate(48.934375 23.623053)scale(0.1 -0.1)">
       <use xlink:href="#CMUSerif-Roman-30"/>
       <use xlink:href="#CMUSerif-Roman-2e" x="50"/>
       <use xlink:href="#CMUSerif-Roman-38" x="77.783203"/>
      </g>
     </g>
    </g>
    <g id="text_20">
     <!-- y -->
     <g transform="translate(42.4725 103.02875)rotate(-90)scale(0.12 -0.12)">
      <defs>
       <path id="CMUSerif-Roman-79" d="M 122 -794 
Q 122 -659 201 -589 
Q 281 -519 391 -519 
Q 506 -519 582 -592 
Q 659 -666 659 -788 
Q 659 -1025 409 -1056 
Q 531 -1172 709 -1172 
Q 900 -1172 1054 -1031 
Q 1209 -891 1276 -756 
Q 1344 -622 1441 -378 
Q 1531 -188 1600 0 
L 641 2338 
Q 578 2491 481 2525 
Q 384 2559 122 2559 
L 122 2759 
Q 409 2741 744 2741 
Q 941 2741 1441 2759 
L 1441 2559 
Q 1081 2559 1081 2394 
Q 1081 2375 1119 2278 
L 1831 556 
L 2478 2131 
Q 2516 2222 2516 2284 
Q 2516 2547 2216 2559 
L 2216 2759 
Q 2638 2741 2772 2741 
Q 3034 2741 3250 2759 
L 3250 2559 
Q 2822 2559 2656 2150 
L 1528 -581 
Q 1222 -1309 709 -1313 
Q 466 -1313 294 -1163 
Q 122 -1013 122 -794 
z
" transform="scale(0.015625)"/>
      </defs>
      <use xlink:href="#CMUSerif-Roman-79"/>
     </g>
    </g>
   </g>
   <g id="line2d_30">
    <defs>
     <path id="m8219985d9f" d="M 0 2 
C 0.530406 2 1.03916 1.789267 1.414214 1.414214 
C 1.789267 1.03916 2 0.530406 2 0 
C 2 -0.530406 1.789267 -1.03916 1.414214 -1.414214 
C 1.03916 -1.789267 0.530406 -2 0 -2 
C -0.530406 -2 -1.03916 -1.789267 -1.414214 -1.414214 
C -1.789267 -1.03916 -2 -0.530406 -2 0 
C -2 0.530406 -1.789267 1.03916 -1.414214 1.414214 
C -1.03916 1.789267 -0.530406 2 0 2 
z
" style="stroke: #3333cc"/>
    </defs>
    <g clip-path="url(#p81f7daf648)">
     <use xlink:href="#m8219985d9f" x="144.199245" y="113.562631" style="fill-opacity: 0; stroke: #3333cc"/>
    </g>
   </g>
   <g id="line2d_31">
    <defs>
     <path id="mda95b26de4" d="M 0 2.75 
C 0.729309 2.75 1.428845 2.460243 1.944544 1.944544 
C 2.460243 1.428845 2.75 0.729309 2.75 0 
C 2.75 -0.729309 2.460243 -1.428845 1.944544 -1.944544 
C 1.428845 -2.460243 0.729309 -2.75 0 -2.75 
C -0.729309 -2.75 -1.428845 -2.460243 -1.944544 -1.944544 
C -2.460243 -1.428845 -2.75 -0.729309 -2.75 0 
C -2.75 0.729309 -2.460243 1.428845 -1.944544 1.944544 
C -1.428845 2.460243 -0.729309 2.75 0 2.75 
z
" style="stroke: #33cc33"/>
    </defs>
    <g clip-path="url(#p81f7daf648)">
     <use xlink:href="#mda95b26de4" x="144.132913" y="113.656512" style="fill-opacity: 0; stroke: #33cc33"/>
    </g>
   </g>
   <g id="line2d_32">
    <defs>
     <path id="mc655bbf846" d="M 0 3.5 
C 0.928211 3.5 1.81853 3.131218 2.474874 2.474874 
C 3.131218 1.81853 3.5 0.928211 3.5 0 
C 3.5 -0.928211 3.131218 -1.81853 2.474874 -2.474874 
C 1.81853 -3.131218 0.928211 -3.5 0 -3.5 
C -0.928211 -3.5 -1.81853 -3.131218 -2.474874 -2.474874 
C -3.131218 -1.81853 -3.5 -0.928211 -3.5 0 
C -3.5 0.928211 -3.131218 1.81853 -2.474874 2.474874 
C -1.81853 3.131218 -0.928211 3.5 0 3.5 
z
" style="stroke: #cc3333"/>
    </defs>
    <g clip-path="url(#p81f7daf648)">
     <use xlink:href="#mc655bbf846" x="144.20635" y="113.618363" style="fill-opacity: 0; stroke: #cc3333"/>
    </g>
   </g>
   <g id="line2d_33">
    <defs>
     <path id="m77cf1e08ad" d="M 0 4.25 
C 1.127113 4.25 2.208214 3.802193 3.005204 3.005204 
C 3.802193 2.208214 4.25 1.127113 4.25 0 
C 4.25 -1.127113 3.802193 -2.208214 3.005204 -3.005204 
C 2.208214 -3.802193 1.127113 -4.25 0 -4.25 
C -1.127113 -4.25 -2.208214 -3.802193 -3.005204 -3.005204 
C -3.802193 -2.208214 -4.25 -1.127113 -4.25 0 
C -4.25 1.127113 -3.802193 2.208214 -3.005204 3.005204 
C -2.208214 3.802193 -1.127113 4.25 0 4.25 
z
" style="stroke: #333333"/>
    </defs>
    <g clip-path="url(#p81f7daf648)">
     <use xlink:href="#m77cf1e08ad" x="143.987794" y="114.012072" style="fill-opacity: 0; stroke: #333333"/>
    </g>
   </g>
   <g id="patch_3">
    <path d="M 68.7125 192.535 
L 68.7125 7.2 
" style="fill: none; stroke: #000000; stroke-width: 0.8; stroke-linejoin: miter; stroke-linecap: square"/>
   </g>
   <g id="patch_4">
    <path d="M 254.0475 192.535 
L 254.0475 7.2 
" style="fill: none; stroke: #000000; stroke-width: 0.8; stroke-linejoin: miter; stroke-linecap: square"/>
   </g>
   <g id="patch_5">
    <path d="M 68.7125 192.535 
L 254.0475 192.535 
" style="fill: none; stroke: #000000; stroke-width: 0.8; stroke-linejoin: miter; stroke-linecap: square"/>
   </g>
   <g id="patch_6">
    <path d="M 68.7125 7.2 
L 254.0475 7.2 
" style="fill: none; stroke: #000000; stroke-width: 0.8; stroke-linejoin: miter; stroke-linecap: square"/>
   </g>
   <g id="legend_1">
    <g id="patch_7">
     <path d="M 159.525 100.41 
L 247.0475 100.41 
Q 249.0475 100.41 249.0475 98.41 
L 249.0475 14.2 
Q 249.0475 12.2 247.0475 12.2 
L 159.525 12.2 
Q 157.525 12.2 157.525 14.2 
L 157.525 98.41 
Q 157.525 100.41 159.525 100.41 
z
" style="fill: #ffffff; opacity: 0.8; stroke: #cccccc; stroke-linejoin: miter"/>
    </g>
    <g id="text_21">
     <!-- CIE 170-2 10$^\circ$ -->
     <g transform="translate(161.525 21.75125)scale(0.08 -0.08)">
      <defs>
       <path id="CMUSerif-Roman-43" d="M 359 2188 
Q 359 3153 1018 3833 
Q 1678 4513 2584 4513 
Q 2866 4513 3116 4409 
Q 3366 4306 3481 4217 
Q 3597 4128 3763 3963 
L 4084 4434 
Q 4134 4513 4186 4513 
Q 4238 4513 4247 4483 
Q 4256 4453 4256 4359 
L 4256 2841 
Q 4256 2738 4243 2713 
Q 4231 2688 4153 2688 
Q 4091 2688 4077 2706 
Q 4063 2725 4050 2797 
Q 3953 3488 3570 3900 
Q 3188 4313 2656 4313 
Q 2503 4313 2333 4278 
Q 2163 4244 1917 4112 
Q 1672 3981 1483 3764 
Q 1294 3547 1156 3136 
Q 1019 2725 1019 2181 
Q 1019 1644 1156 1231 
Q 1294 819 1483 605 
Q 1672 391 1917 259 
Q 2163 128 2336 92 
Q 2509 56 2663 56 
Q 3213 56 3634 447 
Q 4056 838 4097 1497 
Q 4103 1528 4103 1542 
Q 4103 1556 4109 1572 
Q 4116 1588 4131 1594 
Q 4147 1600 4172 1600 
Q 4256 1600 4256 1491 
Q 4256 881 3789 370 
Q 3322 -141 2584 -141 
Q 1675 -141 1017 534 
Q 359 1209 359 2188 
z
" transform="scale(0.015625)"/>
       <path id="CMUSerif-Roman-49" d="M 178 0 
L 178 197 
L 347 197 
Q 706 197 789 255 
Q 872 313 872 500 
L 872 3872 
Q 872 4056 787 4114 
Q 703 4172 347 4172 
L 178 4172 
L 178 4372 
Q 403 4353 1159 4353 
Q 1909 4353 2131 4372 
L 2131 4172 
L 1966 4172 
Q 1606 4172 1523 4114 
Q 1441 4056 1441 3872 
L 1441 500 
Q 1441 316 1523 256 
Q 1606 197 1966 197 
L 2131 197 
L 2131 0 
Q 1906 19 1153 19 
Q 403 19 178 0 
z
" transform="scale(0.015625)"/>
       <path id="CMUSerif-Roman-45" d="M 213 0 
L 213 197 
L 366 197 
Q 713 197 792 255 
Q 872 313 872 500 
L 872 3853 
Q 872 4038 790 4095 
Q 709 4153 366 4153 
L 213 4153 
L 213 4353 
L 3816 4353 
L 3994 2913 
L 3834 2913 
Q 3791 3278 3733 3489 
Q 3675 3700 3536 3862 
Q 3397 4025 3170 4089 
Q 2944 4153 2578 4153 
L 1753 4153 
Q 1534 4153 1487 4108 
Q 1441 4063 1441 3897 
L 1441 2363 
L 2016 2363 
Q 2456 2363 2581 2516 
Q 2706 2669 2706 3109 
L 2869 3109 
L 2869 1416 
L 2706 1416 
Q 2706 1850 2581 2006 
Q 2456 2163 2016 2163 
L 1441 2163 
L 1441 453 
Q 1441 288 1489 242 
Q 1538 197 1753 197 
L 2606 197 
Q 2881 197 3082 233 
Q 3284 269 3425 358 
Q 3566 447 3661 550 
Q 3756 653 3823 839 
Q 3891 1025 3930 1197 
Q 3969 1369 4013 1650 
L 4172 1650 
L 3903 0 
L 213 0 
z
" transform="scale(0.015625)"/>
       <path id="CMUSerif-Roman-20" transform="scale(0.015625)"/>
       <path id="CMUSerif-Roman-2d" d="M 63 1191 
L 63 1569 
L 1766 1569 
L 1766 1191 
L 63 1191 
z
" transform="scale(0.015625)"/>
       <path id="Cmsy10-b1" d="M 1600 359 
Q 1269 359 983 526 
Q 697 694 528 984 
Q 359 1275 359 1600 
Q 359 1925 528 2215 
Q 697 2506 983 2673 
Q 1269 2841 1600 2841 
Q 1931 2841 2215 2672 
Q 2500 2503 2667 2214 
Q 2834 1925 2834 1600 
Q 2834 1275 2667 986 
Q 2500 697 2215 528 
Q 1931 359 1600 359 
z
M 1600 616 
Q 2000 616 2289 908 
Q 2578 1200 2578 1600 
Q 2578 1856 2445 2086 
Q 2313 2316 2088 2450 
Q 1863 2584 1600 2584 
Q 1403 2584 1225 2507 
Q 1047 2431 906 2290 
Q 766 2150 691 1973 
Q 616 1797 616 1600 
Q 616 1200 905 908 
Q 1194 616 1600 616 
z
" transform="scale(0.015625)"/>
      </defs>
      <use xlink:href="#CMUSerif-Roman-43" transform="translate(0 0.484375)"/>
      <use xlink:href="#CMUSerif-Roman-49" transform="translate(72.167969 0.484375)"/>
      <use xlink:href="#CMUSerif-Roman-45" transform="translate(108.251953 0.484375)"/>
      <use xlink:href="#CMUSerif-Roman-20" transform="translate(176.220703 0.484375)"/>
      <use xlink:href="#CMUSerif-Roman-31" transform="translate(209.472656 0.484375)"/>
      <use xlink:href="#CMUSerif-Roman-37" transform="translate(259.472656 0.484375)"/>
      <use xlink:href="#CMUSerif-Roman-30" transform="translate(309.472656 0.484375)"/>
      <use xlink:href="#CMUSerif-Roman-2d" transform="translate(359.472656 0.484375)"/>
      <use xlink:href="#CMUSerif-Roman-32" transform="translate(392.724609 0.484375)"/>
      <use xlink:href="#CMUSerif-Roman-20" transform="translate(442.724609 0.484375)"/>
      <use xlink:href="#CMUSerif-Roman-31" transform="translate(475.976562 0.484375)"/>
      <use xlink:href="#CMUSerif-Roman-30" transform="translate(525.976562 0.484375)"/>
      <use xlink:href="#Cmsy10-b1" transform="translate(592.731719 38.748438)scale(0.7)"/>
     </g>
     <!-- (0.3138, 0.3313) -->
     <g transform="translate(161.525 30.5025)scale(0.08 -0.08)">
      <defs>
       <path id="CMUSerif-Roman-28" d="M 634 1600 
Q 634 2681 1038 3553 
Q 1209 3919 1450 4225 
Q 1691 4531 1850 4665 
Q 2009 4800 2053 4800 
Q 2116 4800 2119 4738 
Q 2119 4706 2034 4628 
Q 1003 3578 1006 1600 
Q 1006 -384 2009 -1394 
Q 2119 -1503 2119 -1538 
Q 2119 -1600 2053 -1600 
Q 2009 -1600 1856 -1472 
Q 1703 -1344 1465 -1050 
Q 1228 -756 1056 -397 
Q 634 475 634 1600 
z
" transform="scale(0.015625)"/>
       <path id="CMUSerif-Roman-2c" d="M 640 103 
Q 550 206 550 340 
Q 550 475 639 576 
Q 728 678 891 678 
Q 1081 678 1190 495 
Q 1300 313 1300 6 
Q 1300 -325 1165 -633 
Q 1031 -941 900 -1087 
Q 769 -1234 716 -1234 
Q 653 -1234 653 -1166 
Q 653 -1141 697 -1094 
Q 1156 -600 1159 6 
Q 1159 103 1147 103 
L 1131 91 
Q 1022 0 891 0 
Q 731 0 640 103 
z
" transform="scale(0.015625)"/>
       <path id="CMUSerif-Roman-29" d="M 366 -1538 
Q 366 -1506 447 -1428 
Q 1478 -378 1478 1600 
Q 1478 3584 488 4588 
Q 366 4703 366 4738 
Q 366 4800 428 4800 
Q 472 4800 626 4672 
Q 781 4544 1017 4250 
Q 1253 3956 1428 3597 
Q 1850 2725 1850 1600 
Q 1850 519 1447 -353 
Q 1275 -719 1034 -1025 
Q 794 -1331 634 -1465 
Q 475 -1600 428 -1600 
Q 366 -1600 366 -1538 
z
" transform="scale(0.015625)"/>
      </defs>
      <use xlink:href="#CMUSerif-Roman-28"/>
      <use xlink:href="#CMUSerif-Roman-30" x="38.769531"/>
      <use xlink:href="#CMUSerif-Roman-2e" x="88.769531"/>
      <use xlink:href="#CMUSerif-Roman-33" x="116.552734"/>
      <use xlink:href="#CMUSerif-Roman-31" x="166.552734"/>
      <use xlink:href="#CMUSerif-Roman-33" x="216.552734"/>
      <use xlink:href="#CMUSerif-Roman-38" x="266.552734"/>
      <use xlink:href="#CMUSerif-Roman-2c" x="316.552734"/>
      <use xlink:href="#CMUSerif-Roman-20" x="344.238281"/>
      <use xlink:href="#CMUSerif-Roman-30" x="377.490234"/>
      <use xlink:href="#CMUSerif-Roman-2e" x="427.490234"/>
      <use xlink:href="#CMUSerif-Roman-33" x="455.273438"/>
      <use xlink:href="#CMUSerif-Roman-33" x="505.273438"/>
      <use xlink:href="#CMUSerif-Roman-31" x="555.273438"/>
      <use xlink:href="#CMUSerif-Roman-33" x="605.273438"/>
      <use xlink:href="#CMUSerif-Roman-29" x="655.273438"/>
     </g>
    </g>
    <g id="line2d_34">
     <path d="M 225.0475 23.626875 
L 235.0475 23.626875 
L 245.0475 23.626875 
" style="fill: none; stroke-dasharray: 5.55,2.4; stroke-dashoffset: 0; stroke: #3333cc; stroke-width: 1.5"/>
    </g>
    <g id="text_22">
     <!-- CIE 170-2 2$^\circ$ -->
     <g transform="translate(161.525 43.05375)scale(0.08 -0.08)">
      <use xlink:href="#CMUSerif-Roman-43" transform="translate(0 0.484375)"/>
      <use xlink:href="#CMUSerif-Roman-49" transform="translate(72.167969 0.484375)"/>
      <use xlink:href="#CMUSerif-Roman-45" transform="translate(108.251953 0.484375)"/>
      <use xlink:href="#CMUSerif-Roman-20" transform="translate(176.220703 0.484375)"/>
      <use xlink:href="#CMUSerif-Roman-31" transform="translate(209.472656 0.484375)"/>
      <use xlink:href="#CMUSerif-Roman-37" transform="translate(259.472656 0.484375)"/>
      <use xlink:href="#CMUSerif-Roman-30" transform="translate(309.472656 0.484375)"/>
      <use xlink:href="#CMUSerif-Roman-2d" transform="translate(359.472656 0.484375)"/>
      <use xlink:href="#CMUSerif-Roman-32" transform="translate(392.724609 0.484375)"/>
      <use xlink:href="#CMUSerif-Roman-20" transform="translate(442.724609 0.484375)"/>
      <use xlink:href="#CMUSerif-Roman-32" transform="translate(475.976562 0.484375)"/>
      <use xlink:href="#Cmsy10-b1" transform="translate(542.731719 38.748438)scale(0.7)"/>
     </g>
     <!-- (0.3135, 0.3308) -->
     <g transform="translate(161.525 51.805)scale(0.08 -0.08)">
      <use xlink:href="#CMUSerif-Roman-28"/>
      <use xlink:href="#CMUSerif-Roman-30" x="38.769531"/>
      <use xlink:href="#CMUSerif-Roman-2e" x="88.769531"/>
      <use xlink:href="#CMUSerif-Roman-33" x="116.552734"/>
      <use xlink:href="#CMUSerif-Roman-31" x="166.552734"/>
      <use xlink:href="#CMUSerif-Roman-33" x="216.552734"/>
      <use xlink:href="#CMUSerif-Roman-35" x="266.552734"/>
      <use xlink:href="#CMUSerif-Roman-2c" x="316.552734"/>
      <use xlink:href="#CMUSerif-Roman-20" x="344.238281"/>
      <use xlink:href="#CMUSerif-Roman-30" x="377.490234"/>
      <use xlink:href="#CMUSerif-Roman-2e" x="427.490234"/>
      <use xlink:href="#CMUSerif-Roman-33" x="455.273438"/>
      <use xlink:href="#CMUSerif-Roman-33" x="505.273438"/>
      <use xlink:href="#CMUSerif-Roman-30" x="555.273438"/>
      <use xlink:href="#CMUSerif-Roman-38" x="605.273438"/>
      <use xlink:href="#CMUSerif-Roman-29" x="655.273438"/>
     </g>
    </g>
    <g id="line2d_35">
     <path d="M 225.0475 44.929375 
L 235.0475 44.929375 
L 245.0475 44.929375 
" style="fill: none; stroke-dasharray: 9.6,2.4,1.5,2.4; stroke-dashoffset: 0; stroke: #33cc33; stroke-width: 1.5"/>
    </g>
    <g id="text_23">
     <!-- CIE 1964 10$^\circ$ -->
     <g transform="translate(161.525 64.35625)scale(0.08 -0.08)">
      <defs>
       <path id="CMUSerif-Roman-39" d="M 269 2822 
Q 269 3163 369 3395 
Q 469 3628 678 3859 
Q 1063 4263 1619 4263 
Q 1856 4263 2067 4163 
Q 2278 4063 2479 3836 
Q 2681 3609 2803 3164 
Q 2925 2719 2925 2106 
Q 2925 1116 2445 487 
Q 1966 -141 1319 -141 
Q 909 -141 668 45 
Q 428 231 428 550 
Q 428 716 522 786 
Q 616 856 722 856 
Q 838 856 928 779 
Q 1019 703 1019 563 
Q 1019 447 945 358 
Q 872 269 684 269 
Q 869 38 1313 38 
Q 1472 38 1631 111 
Q 1791 184 1964 364 
Q 2138 544 2244 922 
Q 2350 1300 2350 1831 
L 2350 2034 
Q 2094 1394 1550 1394 
Q 1013 1394 641 1806 
Q 269 2219 269 2822 
z
M 844 2816 
Q 844 2181 959 1947 
Q 1156 1544 1556 1544 
Q 1947 1544 2142 1892 
Q 2338 2241 2338 2694 
Q 2338 3322 2234 3597 
Q 2044 4103 1620 4103 
Q 1197 4103 978 3700 
Q 844 3463 844 2816 
z
" transform="scale(0.015625)"/>
      </defs>
      <use xlink:href="#CMUSerif-Roman-43" transform="translate(0 0.484375)"/>
      <use xlink:href="#CMUSerif-Roman-49" transform="translate(72.167969 0.484375)"/>
      <use xlink:href="#CMUSerif-Roman-45" transform="translate(108.251953 0.484375)"/>
      <use xlink:href="#CMUSerif-Roman-20" transform="translate(176.220703 0.484375)"/>
      <use xlink:href="#CMUSerif-Roman-31" transform="translate(209.472656 0.484375)"/>
      <use xlink:href="#CMUSerif-Roman-39" transform="translate(259.472656 0.484375)"/>
      <use xlink:href="#CMUSerif-Roman-36" transform="translate(309.472656 0.484375)"/>
      <use xlink:href="#CMUSerif-Roman-34" transform="translate(359.472656 0.484375)"/>
      <use xlink:href="#CMUSerif-Roman-20" transform="translate(409.472656 0.484375)"/>
      <use xlink:href="#CMUSerif-Roman-31" transform="translate(442.724609 0.484375)"/>
      <use xlink:href="#CMUSerif-Roman-30" transform="translate(492.724609 0.484375)"/>
      <use xlink:href="#Cmsy10-b1" transform="translate(559.479766 38.748438)scale(0.7)"/>
     </g>
     <!-- (0.3138, 0.3310) -->
     <g transform="translate(161.525 73.1075)scale(0.08 -0.08)">
      <use xlink:href="#CMUSerif-Roman-28"/>
      <use xlink:href="#CMUSerif-Roman-30" x="38.769531"/>
      <use xlink:href="#CMUSerif-Roman-2e" x="88.769531"/>
      <use xlink:href="#CMUSerif-Roman-33" x="116.552734"/>
      <use xlink:href="#CMUSerif-Roman-31" x="166.552734"/>
      <use xlink:href="#CMUSerif-Roman-33" x="216.552734"/>
      <use xlink:href="#CMUSerif-Roman-38" x="266.552734"/>
      <use xlink:href="#CMUSerif-Roman-2c" x="316.552734"/>
      <use xlink:href="#CMUSerif-Roman-20" x="344.238281"/>
      <use xlink:href="#CMUSerif-Roman-30" x="377.490234"/>
      <use xlink:href="#CMUSerif-Roman-2e" x="427.490234"/>
      <use xlink:href="#CMUSerif-Roman-33" x="455.273438"/>
      <use xlink:href="#CMUSerif-Roman-33" x="505.273438"/>
      <use xlink:href="#CMUSerif-Roman-31" x="555.273438"/>
      <use xlink:href="#CMUSerif-Roman-30" x="605.273438"/>
      <use xlink:href="#CMUSerif-Roman-29" x="655.273438"/>
     </g>
    </g>
    <g id="line2d_36">
     <path d="M 225.0475 66.231875 
L 235.0475 66.231875 
L 245.0475 66.231875 
" style="fill: none; stroke-dasharray: 1.5,2.475; stroke-dashoffset: 0; stroke: #cc3333; stroke-width: 1.5"/>
    </g>
    <g id="text_24">
     <!-- CIE 1931 2$^\circ$ -->
     <g transform="translate(161.525 85.65875)scale(0.08 -0.08)">
      <use xlink:href="#CMUSerif-Roman-43" transform="translate(0 0.484375)"/>
      <use xlink:href="#CMUSerif-Roman-49" transform="translate(72.167969 0.484375)"/>
      <use xlink:href="#CMUSerif-Roman-45" transform="translate(108.251953 0.484375)"/>
      <use xlink:href="#CMUSerif-Roman-20" transform="translate(176.220703 0.484375)"/>
      <use xlink:href="#CMUSerif-Roman-31" transform="translate(209.472656 0.484375)"/>
      <use xlink:href="#CMUSerif-Roman-39" transform="translate(259.472656 0.484375)"/>
      <use xlink:href="#CMUSerif-Roman-33" transform="translate(309.472656 0.484375)"/>
      <use xlink:href="#CMUSerif-Roman-31" transform="translate(359.472656 0.484375)"/>
      <use xlink:href="#CMUSerif-Roman-20" transform="translate(409.472656 0.484375)"/>
      <use xlink:href="#CMUSerif-Roman-32" transform="translate(442.724609 0.484375)"/>
      <use xlink:href="#Cmsy10-b1" transform="translate(509.479766 38.748438)scale(0.7)"/>
     </g>
     <!-- (0.3127, 0.3290) -->
     <g transform="translate(161.525 94.41)scale(0.08 -0.08)">
      <use xlink:href="#CMUSerif-Roman-28"/>
      <use xlink:href="#CMUSerif-Roman-30" x="38.769531"/>
      <use xlink:href="#CMUSerif-Roman-2e" x="88.769531"/>
      <use xlink:href="#CMUSerif-Roman-33" x="116.552734"/>
      <use xlink:href="#CMUSerif-Roman-31" x="166.552734"/>
      <use xlink:href="#CMUSerif-Roman-32" x="216.552734"/>
      <use xlink:href="#CMUSerif-Roman-37" x="266.552734"/>
      <use xlink:href="#CMUSerif-Roman-2c" x="316.552734"/>
      <use xlink:href="#CMUSerif-Roman-20" x="344.238281"/>
      <use xlink:href="#CMUSerif-Roman-30" x="377.490234"/>
      <use xlink:href="#CMUSerif-Roman-2e" x="427.490234"/>
      <use xlink:href="#CMUSerif-Roman-33" x="455.273438"/>
      <use xlink:href="#CMUSerif-Roman-32" x="505.273438"/>
      <use xlink:href="#CMUSerif-Roman-39" x="555.273438"/>
      <use xlink:href="#CMUSerif-Roman-30" x="605.273438"/>
      <use xlink:href="#CMUSerif-Roman-29" x="655.273438"/>
     </g>
    </g>
    <g id="line2d_37">
     <path d="M 225.0475 87.534375 
L 235.0475 87.534375 
L 245.0475 87.534375 
" style="fill: none; stroke: #333333; stroke-width: 1.5; stroke-linecap: square"/>
    </g>
   </g>
  </g>
 </g>
 <defs>
  <clipPath id="p81f7daf648">
   <rect x="68.7125" y="7.2" width="185.335" height="185.335"/>
  </clipPath>
 </defs>
</svg>
