<?xml version="1.0" encoding="utf-8" standalone="no"?>
<!DOCTYPE svg PUBLIC "-//W3C//DTD SVG 1.1//EN"
  "http://www.w3.org/Graphics/SVG/1.1/DTD/svg11.dtd">
<svg xmlns:xlink="http://www.w3.org/1999/xlink" width="576pt" height="324pt" viewBox="0 0 576 324" xmlns="http://www.w3.org/2000/svg" version="1.1">
 <metadata>
  <rdf:RDF xmlns:dc="http://purl.org/dc/elements/1.1/" xmlns:cc="http://creativecommons.org/ns#" xmlns:rdf="http://www.w3.org/1999/02/22-rdf-syntax-ns#">
   <cc:Work>
    <dc:type rdf:resource="http://purl.org/dc/dcmitype/StillImage"/>
    <dc:date>2022-07-04T08:55:08.606759</dc:date>
    <dc:format>image/svg+xml</dc:format>
    <dc:creator>
     <cc:Agent>
      <dc:title>Matplotlib v3.5.2, https://matplotlib.org/</dc:title>
     </cc:Agent>
    </dc:creator>
   </cc:Work>
  </rdf:RDF>
 </metadata>
 <defs>
  <style type="text/css">*{stroke-linejoin: round; stroke-linecap: butt}</style>
 </defs>
 <g id="figure_1">
  <g id="patch_1">
   <path d="M 0 324 
L 576 324 
L 576 0 
L 0 0 
z
"/>
  </g>
  <g id="axes_1">
   <g id="patch_2">
    <path d="M 41.96 281.275 
L 568.8 281.275 
L 568.8 38.964687 
L 41.96 38.964687 
L 41.96 281.275 
z
" style="fill: none"/>
   </g>
   <g id="line2d_1">
    <path d="M 437.313616 281.275 
L 437.313616 38.964687 
" clip-path="url(#p7df29a8fc7)" style="fill: none; stroke-dasharray: 1.5,2.475; stroke-dashoffset: 0; stroke: #400000; stroke-width: 1.5"/>
   </g>
   <g id="line2d_2">
    <path d="M 272.543712 281.275 
L 272.543712 38.964687 
" clip-path="url(#p7df29a8fc7)" style="fill: none; stroke-dasharray: 1.5,2.475; stroke-dashoffset: 0; stroke: #004000; stroke-width: 1.5"/>
   </g>
   <g id="line2d_3">
    <path d="M 159.035556 281.275 
L 159.035556 38.964687 
" clip-path="url(#p7df29a8fc7)" style="fill: none; stroke-dasharray: 1.5,2.475; stroke-dashoffset: 0; stroke: #000040; stroke-width: 1.5"/>
   </g>
   <g id="line2d_4">
    <path d="M 227.500793 281.275 
L 227.500793 38.964687 
" clip-path="url(#p7df29a8fc7)" style="fill: none; stroke-dasharray: 1.5,2.475; stroke-dashoffset: 0; stroke: #404040; stroke-width: 1.5"/>
   </g>
   <g id="line2d_5">
    <path d="M 41.96 261.082474 
L 568.8 261.082474 
" clip-path="url(#p7df29a8fc7)" style="fill: none; stroke: #bfbfbf; stroke-width: 2; stroke-linecap: square"/>
   </g>
   <g id="matplotlib.axis_1">
    <g id="xtick_1">
     <g id="line2d_6">
      <defs>
       <path id="m5771da0d3e" d="M 0 0 
L 0 3.5 
" style="stroke: #ffffff; stroke-width: 0.8"/>
      </defs>
      <g>
       <use xlink:href="#m5771da0d3e" x="62.756316" y="281.275" style="fill: #ffffff; stroke: #ffffff; stroke-width: 0.8"/>
      </g>
     </g>
     <g id="text_1">
      <!-- 375 -->
      <g style="fill: #ffffff" transform="translate(55.256316 295.214063)scale(0.1 -0.1)">
       <defs>
        <path id="CMUSerif-Roman-33" d="M 269 863 
Q 269 1053 378 1143 
Q 488 1234 628 1234 
Q 775 1234 879 1139 
Q 984 1044 984 878 
Q 984 700 861 600 
Q 738 500 563 525 
Q 716 269 998 153 
Q 1281 38 1544 38 
Q 1819 38 2042 275 
Q 2266 513 2266 1094 
Q 2266 1588 2073 1872 
Q 1881 2156 1503 2156 
L 1222 2156 
Q 1125 2156 1097 2165 
Q 1069 2175 1069 2228 
Q 1069 2291 1166 2303 
Q 1263 2303 1416 2322 
Q 1788 2334 1984 2656 
Q 2163 2956 2163 3384 
Q 2163 3775 1977 3939 
Q 1791 4103 1550 4103 
Q 1325 4103 1078 4009 
Q 831 3916 697 3706 
Q 1094 3706 1094 3384 
Q 1094 3244 1005 3151 
Q 916 3059 769 3059 
Q 628 3059 534 3148 
Q 441 3238 441 3391 
Q 441 3756 767 4009 
Q 1094 4263 1575 4263 
Q 2050 4263 2401 4013 
Q 2753 3763 2753 3378 
Q 2753 3000 2503 2690 
Q 2253 2381 1856 2253 
Q 2344 2156 2634 1826 
Q 2925 1497 2925 1094 
Q 2925 594 2531 226 
Q 2138 -141 1563 -141 
Q 1031 -141 650 146 
Q 269 434 269 863 
z
" transform="scale(0.015625)"/>
        <path id="CMUSerif-Roman-37" d="M 359 3009 
L 569 4325 
L 728 4325 
Q 747 4247 780 4212 
Q 813 4178 995 4150 
Q 1178 4122 1550 4122 
L 3103 4122 
Q 3103 3975 3047 3897 
L 2181 2681 
Q 1906 2297 1784 1588 
Q 1713 1113 1716 538 
L 1716 213 
Q 1716 -141 1420 -141 
Q 1125 -141 1125 213 
Q 1125 1434 1913 2619 
Q 1997 2741 2308 3175 
Q 2619 3609 2631 3628 
L 1306 3628 
Q 725 3628 678 3591 
Q 616 3534 519 3009 
L 359 3009 
z
" transform="scale(0.015625)"/>
        <path id="CMUSerif-Roman-35" d="M 319 1031 
Q 319 1222 422 1295 
Q 525 1369 634 1369 
Q 781 1369 867 1276 
Q 953 1184 953 1056 
Q 953 928 867 836 
Q 781 744 634 744 
Q 563 744 525 756 
Q 609 463 867 250 
Q 1125 38 1466 38 
Q 1894 38 2150 453 
Q 2303 722 2303 1331 
Q 2303 1869 2188 2138 
Q 2009 2547 1644 2547 
Q 1125 2547 819 2100 
Q 781 2044 738 2041 
Q 675 2041 661 2077 
Q 647 2113 647 2209 
L 647 4103 
Q 647 4256 709 4256 
Q 734 4256 788 4238 
Q 1191 4059 1638 4056 
Q 2097 4056 2509 4244 
Q 2541 4263 2559 4263 
Q 2622 4263 2625 4191 
Q 2625 4166 2573 4092 
Q 2522 4019 2412 3923 
Q 2303 3828 2162 3737 
Q 2022 3647 1817 3586 
Q 1613 3525 1388 3525 
Q 1119 3525 844 3609 
L 844 2363 
Q 1175 2688 1656 2688 
Q 2169 2688 2522 2275 
Q 2875 1863 2875 1288 
Q 2875 684 2458 271 
Q 2041 -141 1478 -141 
Q 966 -141 642 225 
Q 319 591 319 1031 
z
" transform="scale(0.015625)"/>
       </defs>
       <use xlink:href="#CMUSerif-Roman-33"/>
       <use xlink:href="#CMUSerif-Roman-37" x="50"/>
       <use xlink:href="#CMUSerif-Roman-35" x="100"/>
      </g>
     </g>
    </g>
    <g id="xtick_2">
     <g id="line2d_7">
      <g>
       <use xlink:href="#m5771da0d3e" x="97.416842" y="281.275" style="fill: #ffffff; stroke: #ffffff; stroke-width: 0.8"/>
      </g>
     </g>
     <g id="text_2">
      <!-- 400 -->
      <g style="fill: #ffffff" transform="translate(89.916842 295.214063)scale(0.1 -0.1)">
       <defs>
        <path id="CMUSerif-Roman-34" d="M 178 1056 
L 178 1253 
L 2144 4256 
Q 2194 4334 2272 4331 
Q 2344 4331 2359 4303 
Q 2375 4275 2375 4166 
L 2375 1253 
L 3016 1253 
L 3016 1056 
L 2375 1056 
L 2375 500 
Q 2375 316 2451 256 
Q 2528 197 2859 197 
L 2994 197 
L 2994 0 
Q 2731 19 2125 19 
Q 1522 19 1259 0 
L 1259 197 
L 1394 197 
Q 1725 197 1803 255 
Q 1881 313 1881 500 
L 1881 1056 
L 178 1056 
z
M 359 1253 
L 1919 1253 
L 1919 3641 
L 359 1253 
z
" transform="scale(0.015625)"/>
        <path id="CMUSerif-Roman-30" d="M 250 2047 
Q 250 2988 488 3500 
Q 819 4263 1600 4263 
Q 1766 4263 1939 4217 
Q 2113 4172 2333 4000 
Q 2553 3828 2688 3547 
Q 2944 3003 2944 2047 
Q 2944 1113 2706 603 
Q 2359 -141 1594 -141 
Q 1306 -141 1014 6 
Q 722 153 538 506 
Q 250 1034 250 2047 
z
M 781 2125 
Q 781 1159 850 775 
Q 928 359 1142 179 
Q 1356 0 1594 0 
Q 1850 0 2064 192 
Q 2278 384 2344 800 
Q 2416 1209 2413 2125 
Q 2413 3016 2350 3372 
Q 2266 3788 2042 3955 
Q 1819 4122 1594 4122 
Q 1509 4122 1420 4097 
Q 1331 4072 1203 4000 
Q 1075 3928 976 3750 
Q 878 3572 831 3303 
Q 781 2956 781 2125 
z
" transform="scale(0.015625)"/>
       </defs>
       <use xlink:href="#CMUSerif-Roman-34"/>
       <use xlink:href="#CMUSerif-Roman-30" x="50"/>
       <use xlink:href="#CMUSerif-Roman-30" x="100"/>
      </g>
     </g>
    </g>
    <g id="xtick_3">
     <g id="line2d_8">
      <g>
       <use xlink:href="#m5771da0d3e" x="132.077368" y="281.275" style="fill: #ffffff; stroke: #ffffff; stroke-width: 0.8"/>
      </g>
     </g>
     <g id="text_3">
      <!-- 425 -->
      <g style="fill: #ffffff" transform="translate(124.577368 295.214063)scale(0.1 -0.1)">
       <defs>
        <path id="CMUSerif-Roman-32" d="M 319 0 
Q 319 116 330 150 
Q 341 184 391 238 
L 1619 1606 
Q 2291 2363 2291 3022 
Q 2291 3450 2067 3756 
Q 1844 4063 1434 4063 
Q 1153 4063 915 3891 
Q 678 3719 569 3413 
Q 588 3419 653 3419 
Q 813 3419 902 3319 
Q 991 3219 991 3084 
Q 991 2913 880 2830 
Q 769 2747 659 2747 
Q 616 2747 558 2756 
Q 500 2766 409 2855 
Q 319 2944 319 3103 
Q 319 3550 658 3906 
Q 997 4263 1516 4263 
Q 2103 4263 2489 3914 
Q 2875 3566 2875 3022 
Q 2875 2831 2817 2657 
Q 2759 2484 2682 2350 
Q 2606 2216 2400 2000 
Q 2194 1784 2028 1631 
Q 1863 1478 1491 1153 
L 813 494 
L 1966 494 
Q 2528 494 2572 544 
Q 2634 634 2713 1113 
L 2875 1113 
L 2694 0 
L 319 0 
z
" transform="scale(0.015625)"/>
       </defs>
       <use xlink:href="#CMUSerif-Roman-34"/>
       <use xlink:href="#CMUSerif-Roman-32" x="50"/>
       <use xlink:href="#CMUSerif-Roman-35" x="100"/>
      </g>
     </g>
    </g>
    <g id="xtick_4">
     <g id="line2d_9">
      <g>
       <use xlink:href="#m5771da0d3e" x="166.737895" y="281.275" style="fill: #ffffff; stroke: #ffffff; stroke-width: 0.8"/>
      </g>
     </g>
     <g id="text_4">
      <!-- 450 -->
      <g style="fill: #ffffff" transform="translate(159.237895 295.214063)scale(0.1 -0.1)">
       <use xlink:href="#CMUSerif-Roman-34"/>
       <use xlink:href="#CMUSerif-Roman-35" x="50"/>
       <use xlink:href="#CMUSerif-Roman-30" x="100"/>
      </g>
     </g>
    </g>
    <g id="xtick_5">
     <g id="line2d_10">
      <g>
       <use xlink:href="#m5771da0d3e" x="201.398421" y="281.275" style="fill: #ffffff; stroke: #ffffff; stroke-width: 0.8"/>
      </g>
     </g>
     <g id="text_5">
      <!-- 475 -->
      <g style="fill: #ffffff" transform="translate(193.898421 295.214063)scale(0.1 -0.1)">
       <use xlink:href="#CMUSerif-Roman-34"/>
       <use xlink:href="#CMUSerif-Roman-37" x="50"/>
       <use xlink:href="#CMUSerif-Roman-35" x="100"/>
      </g>
     </g>
    </g>
    <g id="xtick_6">
     <g id="line2d_11">
      <g>
       <use xlink:href="#m5771da0d3e" x="236.058947" y="281.275" style="fill: #ffffff; stroke: #ffffff; stroke-width: 0.8"/>
      </g>
     </g>
     <g id="text_6">
      <!-- 500 -->
      <g style="fill: #ffffff" transform="translate(228.558947 295.214063)scale(0.1 -0.1)">
       <use xlink:href="#CMUSerif-Roman-35"/>
       <use xlink:href="#CMUSerif-Roman-30" x="50"/>
       <use xlink:href="#CMUSerif-Roman-30" x="100"/>
      </g>
     </g>
    </g>
    <g id="xtick_7">
     <g id="line2d_12">
      <g>
       <use xlink:href="#m5771da0d3e" x="270.719474" y="281.275" style="fill: #ffffff; stroke: #ffffff; stroke-width: 0.8"/>
      </g>
     </g>
     <g id="text_7">
      <!-- 525 -->
      <g style="fill: #ffffff" transform="translate(263.219474 295.214063)scale(0.1 -0.1)">
       <use xlink:href="#CMUSerif-Roman-35"/>
       <use xlink:href="#CMUSerif-Roman-32" x="50"/>
       <use xlink:href="#CMUSerif-Roman-35" x="100"/>
      </g>
     </g>
    </g>
    <g id="xtick_8">
     <g id="line2d_13">
      <g>
       <use xlink:href="#m5771da0d3e" x="305.38" y="281.275" style="fill: #ffffff; stroke: #ffffff; stroke-width: 0.8"/>
      </g>
     </g>
     <g id="text_8">
      <!-- 550 -->
      <g style="fill: #ffffff" transform="translate(297.88 295.214063)scale(0.1 -0.1)">
       <use xlink:href="#CMUSerif-Roman-35"/>
       <use xlink:href="#CMUSerif-Roman-35" x="50"/>
       <use xlink:href="#CMUSerif-Roman-30" x="100"/>
      </g>
     </g>
    </g>
    <g id="xtick_9">
     <g id="line2d_14">
      <g>
       <use xlink:href="#m5771da0d3e" x="340.040526" y="281.275" style="fill: #ffffff; stroke: #ffffff; stroke-width: 0.8"/>
      </g>
     </g>
     <g id="text_9">
      <!-- 575 -->
      <g style="fill: #ffffff" transform="translate(332.540526 295.214063)scale(0.1 -0.1)">
       <use xlink:href="#CMUSerif-Roman-35"/>
       <use xlink:href="#CMUSerif-Roman-37" x="50"/>
       <use xlink:href="#CMUSerif-Roman-35" x="100"/>
      </g>
     </g>
    </g>
    <g id="xtick_10">
     <g id="line2d_15">
      <g>
       <use xlink:href="#m5771da0d3e" x="374.701053" y="281.275" style="fill: #ffffff; stroke: #ffffff; stroke-width: 0.8"/>
      </g>
     </g>
     <g id="text_10">
      <!-- 600 -->
      <g style="fill: #ffffff" transform="translate(367.201053 295.214063)scale(0.1 -0.1)">
       <defs>
        <path id="CMUSerif-Roman-36" d="M 269 2022 
Q 269 3028 781 3645 
Q 1294 4263 1953 4263 
Q 2338 4263 2552 4067 
Q 2766 3872 2766 3572 
Q 2766 3406 2669 3334 
Q 2572 3263 2472 3263 
Q 2356 3263 2265 3341 
Q 2175 3419 2175 3559 
Q 2175 3847 2528 3847 
Q 2363 4103 1966 4103 
Q 1844 4103 1719 4067 
Q 1594 4031 1431 3912 
Q 1269 3794 1144 3606 
Q 1019 3419 931 3066 
Q 844 2713 844 2253 
L 844 2100 
Q 1106 2734 1643 2732 
Q 2181 2731 2553 2322 
Q 2925 1913 2925 1306 
Q 2925 684 2537 271 
Q 2150 -141 1606 -141 
Q 1363 -141 1142 -39 
Q 922 63 717 294 
Q 513 525 391 969 
Q 269 1413 269 2022 
z
M 856 1447 
Q 856 819 972 519 
Q 991 469 1033 400 
Q 1075 331 1148 242 
Q 1222 153 1344 95 
Q 1466 38 1606 38 
Q 2034 38 2241 453 
Q 2350 684 2350 1313 
Q 2350 1953 2234 2188 
Q 2038 2584 1638 2584 
Q 1369 2584 1183 2400 
Q 997 2216 926 1969 
Q 856 1722 856 1447 
z
" transform="scale(0.015625)"/>
       </defs>
       <use xlink:href="#CMUSerif-Roman-36"/>
       <use xlink:href="#CMUSerif-Roman-30" x="50"/>
       <use xlink:href="#CMUSerif-Roman-30" x="100"/>
      </g>
     </g>
    </g>
    <g id="xtick_11">
     <g id="line2d_16">
      <g>
       <use xlink:href="#m5771da0d3e" x="409.361579" y="281.275" style="fill: #ffffff; stroke: #ffffff; stroke-width: 0.8"/>
      </g>
     </g>
     <g id="text_11">
      <!-- 625 -->
      <g style="fill: #ffffff" transform="translate(401.861579 295.214063)scale(0.1 -0.1)">
       <use xlink:href="#CMUSerif-Roman-36"/>
       <use xlink:href="#CMUSerif-Roman-32" x="50"/>
       <use xlink:href="#CMUSerif-Roman-35" x="100"/>
      </g>
     </g>
    </g>
    <g id="xtick_12">
     <g id="line2d_17">
      <g>
       <use xlink:href="#m5771da0d3e" x="444.022105" y="281.275" style="fill: #ffffff; stroke: #ffffff; stroke-width: 0.8"/>
      </g>
     </g>
     <g id="text_12">
      <!-- 650 -->
      <g style="fill: #ffffff" transform="translate(436.522105 295.214063)scale(0.1 -0.1)">
       <use xlink:href="#CMUSerif-Roman-36"/>
       <use xlink:href="#CMUSerif-Roman-35" x="50"/>
       <use xlink:href="#CMUSerif-Roman-30" x="100"/>
      </g>
     </g>
    </g>
    <g id="xtick_13">
     <g id="line2d_18">
      <g>
       <use xlink:href="#m5771da0d3e" x="478.682632" y="281.275" style="fill: #ffffff; stroke: #ffffff; stroke-width: 0.8"/>
      </g>
     </g>
     <g id="text_13">
      <!-- 675 -->
      <g style="fill: #ffffff" transform="translate(471.182632 295.214063)scale(0.1 -0.1)">
       <use xlink:href="#CMUSerif-Roman-36"/>
       <use xlink:href="#CMUSerif-Roman-37" x="50"/>
       <use xlink:href="#CMUSerif-Roman-35" x="100"/>
      </g>
     </g>
    </g>
    <g id="xtick_14">
     <g id="line2d_19">
      <g>
       <use xlink:href="#m5771da0d3e" x="513.343158" y="281.275" style="fill: #ffffff; stroke: #ffffff; stroke-width: 0.8"/>
      </g>
     </g>
     <g id="text_14">
      <!-- 700 -->
      <g style="fill: #ffffff" transform="translate(505.843158 295.214063)scale(0.1 -0.1)">
       <use xlink:href="#CMUSerif-Roman-37"/>
       <use xlink:href="#CMUSerif-Roman-30" x="50"/>
       <use xlink:href="#CMUSerif-Roman-30" x="100"/>
      </g>
     </g>
    </g>
    <g id="xtick_15">
     <g id="line2d_20">
      <g>
       <use xlink:href="#m5771da0d3e" x="548.003684" y="281.275" style="fill: #ffffff; stroke: #ffffff; stroke-width: 0.8"/>
      </g>
     </g>
     <g id="text_15">
      <!-- 725 -->
      <g style="fill: #ffffff" transform="translate(540.503684 295.214063)scale(0.1 -0.1)">
       <use xlink:href="#CMUSerif-Roman-37"/>
       <use xlink:href="#CMUSerif-Roman-32" x="50"/>
       <use xlink:href="#CMUSerif-Roman-35" x="100"/>
      </g>
     </g>
    </g>
    <g id="text_16">
     <!-- Wavelength $\lambda$ ($nm$) -->
     <g style="fill: #ffffff" transform="translate(253.06 310.153125)scale(0.12 -0.12)">
      <defs>
       <path id="CMUSerif-Roman-57" d="M 116 4172 
L 116 4372 
Q 206 4372 368 4365 
Q 531 4359 659 4356 
Q 788 4353 897 4353 
Q 1575 4353 1806 4372 
L 1806 4172 
Q 1269 4172 1269 3981 
Q 1269 3938 1281 3897 
L 2309 750 
L 3200 3494 
L 3059 3944 
Q 3009 4103 2900 4137 
Q 2791 4172 2484 4172 
L 2484 4372 
Q 2575 4372 2737 4365 
Q 2900 4359 3028 4356 
Q 3156 4353 3263 4353 
Q 3941 4353 4172 4372 
L 4172 4172 
Q 3634 4172 3634 3981 
Q 3634 3963 3653 3884 
L 4678 750 
L 5638 3706 
Q 5669 3803 5672 3834 
Q 5672 3950 5537 4058 
Q 5403 4166 5113 4172 
L 5113 4372 
Q 5613 4353 5875 4353 
Q 6169 4353 6456 4372 
L 6456 4172 
Q 5950 4172 5819 3744 
L 4594 -13 
Q 4581 -63 4572 -86 
Q 4563 -109 4538 -125 
Q 4513 -141 4469 -141 
Q 4384 -141 4347 -19 
L 3284 3238 
L 2228 -13 
Q 2216 -63 2205 -86 
Q 2194 -109 2169 -125 
Q 2144 -141 2100 -141 
Q 2016 -141 1978 -19 
L 697 3903 
Q 641 4088 555 4130 
Q 469 4172 116 4172 
z
" transform="scale(0.015625)"/>
       <path id="CMUSerif-Roman-61" d="M 269 609 
Q 269 1153 909 1441 
Q 1294 1625 2088 1672 
L 2088 1906 
Q 2088 2303 1880 2514 
Q 1672 2725 1409 2725 
Q 941 2725 716 2431 
Q 906 2425 975 2329 
Q 1044 2234 1044 2138 
Q 1044 2009 964 1926 
Q 884 1844 750 1844 
Q 622 1844 537 1923 
Q 453 2003 453 2144 
Q 453 2456 736 2662 
Q 1019 2869 1422 2869 
Q 1947 2869 2297 2516 
Q 2406 2406 2461 2265 
Q 2516 2125 2522 2033 
Q 2528 1941 2528 1759 
L 2528 481 
Q 2528 444 2540 381 
Q 2553 319 2611 239 
Q 2669 159 2766 159 
Q 2997 159 2994 569 
L 2994 928 
L 3156 928 
L 3156 569 
Q 3156 228 2976 95 
Q 2797 -38 2631 -38 
Q 2419 -38 2284 118 
Q 2150 275 2131 488 
Q 2034 244 1814 86 
Q 1594 -72 1294 -72 
Q 1063 -72 845 -14 
Q 628 44 448 205 
Q 269 366 269 609 
z
M 763 616 
Q 763 378 931 225 
Q 1100 72 1338 72 
Q 1606 72 1847 280 
Q 2088 488 2088 897 
L 2088 1538 
Q 1378 1513 1070 1230 
Q 763 947 763 616 
z
" transform="scale(0.015625)"/>
       <path id="CMUSerif-Roman-76" d="M 122 2559 
L 122 2759 
Q 409 2741 744 2741 
Q 866 2741 1441 2759 
L 1441 2559 
Q 1075 2559 1075 2394 
Q 1075 2369 1113 2284 
L 1831 500 
L 2484 2131 
Q 2522 2241 2522 2284 
Q 2522 2394 2448 2473 
Q 2375 2553 2216 2559 
L 2216 2759 
Q 2541 2741 2772 2741 
Q 3034 2741 3250 2759 
L 3250 2559 
Q 3059 2559 2925 2473 
Q 2791 2388 2748 2314 
Q 2706 2241 2663 2131 
L 1825 50 
Q 1775 -72 1691 -72 
Q 1634 -72 1611 -48 
Q 1588 -25 1556 50 
L 634 2322 
Q 572 2481 490 2520 
Q 409 2559 122 2559 
z
" transform="scale(0.015625)"/>
       <path id="CMUSerif-Roman-65" d="M 178 1409 
Q 178 2013 565 2441 
Q 953 2869 1509 2869 
Q 2072 2869 2364 2503 
Q 2656 2138 2656 1613 
Q 2656 1516 2631 1497 
Q 2606 1478 2497 1478 
L 709 1478 
Q 709 825 903 519 
Q 1172 91 1625 91 
Q 1688 91 1763 103 
Q 1838 116 1991 170 
Q 2144 225 2278 372 
Q 2413 519 2491 750 
Q 2509 841 2572 838 
Q 2656 838 2656 763 
Q 2656 706 2595 579 
Q 2534 453 2418 303 
Q 2303 153 2079 40 
Q 1856 -72 1588 -72 
Q 1025 -72 601 354 
Q 178 781 178 1409 
z
M 716 1613 
L 2234 1613 
Q 2234 1747 2211 1897 
Q 2188 2047 2120 2255 
Q 2053 2463 1897 2594 
Q 1741 2725 1509 2725 
Q 1406 2725 1295 2681 
Q 1184 2638 1050 2531 
Q 916 2425 822 2184 
Q 728 1944 716 1613 
z
" transform="scale(0.015625)"/>
       <path id="CMUSerif-Roman-6c" d="M 213 0 
L 213 197 
Q 553 197 631 239 
Q 709 281 709 488 
L 709 3816 
Q 709 4053 626 4112 
Q 544 4172 213 4172 
L 213 4372 
L 1131 4441 
L 1131 488 
Q 1131 281 1212 239 
Q 1294 197 1631 197 
L 1631 0 
Q 1553 0 1390 6 
Q 1228 13 1109 16 
Q 991 19 922 19 
Q 847 19 213 0 
z
" transform="scale(0.015625)"/>
       <path id="CMUSerif-Roman-6e" d="M 206 0 
L 206 197 
Q 547 197 625 239 
Q 703 281 703 488 
L 703 2203 
Q 703 2441 620 2500 
Q 538 2559 206 2559 
L 206 2759 
L 1106 2828 
L 1106 2156 
Q 1406 2828 2053 2828 
Q 2534 2828 2725 2591 
Q 2866 2431 2895 2253 
Q 2925 2075 2925 1613 
L 2925 391 
Q 2931 256 3034 226 
Q 3138 197 3425 197 
L 3425 0 
Q 2772 19 2706 19 
Q 2656 19 1984 0 
L 1984 197 
Q 2325 197 2404 239 
Q 2484 281 2484 488 
L 2484 1978 
Q 2484 2303 2384 2495 
Q 2284 2688 2009 2688 
Q 1678 2688 1412 2409 
Q 1147 2131 1147 1663 
L 1147 488 
Q 1147 281 1226 239 
Q 1306 197 1644 197 
L 1644 0 
Q 991 19 928 19 
Q 878 19 206 0 
z
" transform="scale(0.015625)"/>
       <path id="CMUSerif-Roman-67" d="M 178 -506 
Q 178 -300 336 -122 
Q 494 56 769 134 
Q 488 313 488 703 
Q 488 1003 684 1234 
Q 384 1484 384 1894 
Q 384 2272 684 2550 
Q 984 2828 1422 2828 
Q 1806 2828 2100 2597 
Q 2406 2897 2778 2900 
Q 2944 2900 3023 2797 
Q 3103 2694 3103 2584 
Q 3103 2488 3042 2441 
Q 2981 2394 2919 2394 
Q 2841 2394 2786 2445 
Q 2731 2497 2731 2578 
Q 2731 2713 2834 2753 
Q 2816 2759 2772 2759 
Q 2459 2759 2194 2509 
Q 2456 2266 2456 1887 
Q 2456 1509 2156 1231 
Q 1856 953 1422 953 
Q 1063 953 788 1153 
Q 678 1025 678 850 
Q 678 691 775 566 
Q 872 441 1019 422 
Q 1063 416 1497 416 
Q 1753 416 1893 409 
Q 2034 403 2236 361 
Q 2438 319 2597 238 
Q 3013 6 3016 -494 
Q 3016 -859 2595 -1089 
Q 2175 -1319 1594 -1319 
Q 1006 -1319 592 -1086 
Q 178 -853 178 -506 
z
M 513 -506 
Q 513 -769 822 -970 
Q 1131 -1172 1600 -1172 
Q 2059 -1172 2370 -973 
Q 2681 -775 2681 -506 
Q 2681 -316 2572 -194 
Q 2463 -72 2239 -23 
Q 2016 25 1859 34 
Q 1703 44 1416 44 
L 1038 44 
Q 819 31 666 -128 
Q 513 -288 513 -506 
z
M 863 1888 
Q 863 1100 1422 1100 
Q 1703 1100 1875 1356 
Q 1978 1528 1978 1894 
Q 1978 2681 1422 2681 
Q 1141 2681 966 2425 
Q 863 2253 863 1888 
z
" transform="scale(0.015625)"/>
       <path id="CMUSerif-Roman-74" d="M 122 2559 
L 122 2700 
Q 416 2713 611 2920 
Q 806 3128 873 3384 
Q 941 3641 947 3938 
L 1106 3938 
L 1106 2759 
L 2022 2759 
L 2022 2559 
L 1106 2559 
L 1106 781 
Q 1106 91 1538 91 
Q 1722 91 1844 280 
Q 1966 469 1966 806 
L 1966 1159 
L 2125 1159 
L 2125 794 
Q 2125 447 1965 187 
Q 1806 -72 1491 -72 
Q 1375 -72 1261 -42 
Q 1147 -13 998 64 
Q 850 141 758 330 
Q 666 519 666 794 
L 666 2559 
L 122 2559 
z
" transform="scale(0.015625)"/>
       <path id="CMUSerif-Roman-68" d="M 206 0 
L 206 197 
Q 547 197 625 239 
Q 703 281 703 488 
L 703 3816 
Q 703 4053 620 4112 
Q 538 4172 206 4172 
L 206 4372 
L 1125 4441 
L 1125 2216 
L 1131 2216 
Q 1234 2447 1465 2637 
Q 1697 2828 2053 2828 
Q 2534 2828 2725 2591 
Q 2866 2431 2895 2253 
Q 2925 2075 2925 1613 
L 2925 391 
Q 2931 256 3034 226 
Q 3138 197 3425 197 
L 3425 0 
Q 2772 19 2706 19 
Q 2656 19 1984 0 
L 1984 197 
Q 2325 197 2404 239 
Q 2484 281 2484 488 
L 2484 1978 
Q 2484 2303 2384 2495 
Q 2284 2688 2009 2688 
Q 1678 2688 1412 2409 
Q 1147 2131 1147 1663 
L 1147 488 
Q 1147 281 1226 239 
Q 1306 197 1644 197 
L 1644 0 
Q 991 19 928 19 
Q 878 19 206 0 
z
" transform="scale(0.015625)"/>
       <path id="CMUSerif-Roman-20" transform="scale(0.015625)"/>
       <path id="Cmmi10-b8" d="M 325 109 
Q 325 203 409 288 
L 2209 2053 
L 1575 3834 
Q 1500 4038 1417 4156 
Q 1334 4275 1178 4275 
Q 1106 4275 1106 4359 
Q 1113 4397 1138 4419 
Q 1163 4441 1203 4441 
Q 1875 4441 2016 4044 
L 3316 416 
Q 3400 144 3488 50 
Q 3519 3 3519 -13 
Q 3519 -72 3469 -72 
L 3122 -72 
Q 2963 -25 2869 206 
L 2284 1844 
L 738 25 
Q 622 -84 531 -84 
Q 450 -84 387 -28 
Q 325 28 325 109 
z
" transform="scale(0.015625)"/>
       <path id="CMUSerif-Roman-28" d="M 634 1600 
Q 634 2681 1038 3553 
Q 1209 3919 1450 4225 
Q 1691 4531 1850 4665 
Q 2009 4800 2053 4800 
Q 2116 4800 2119 4738 
Q 2119 4706 2034 4628 
Q 1003 3578 1006 1600 
Q 1006 -384 2009 -1394 
Q 2119 -1503 2119 -1538 
Q 2119 -1600 2053 -1600 
Q 2009 -1600 1856 -1472 
Q 1703 -1344 1465 -1050 
Q 1228 -756 1056 -397 
Q 634 475 634 1600 
z
" transform="scale(0.015625)"/>
       <path id="Cmmi10-6e" d="M 494 109 
Q 494 147 500 166 
L 978 2075 
Q 1025 2253 1025 2388 
Q 1025 2663 838 2663 
Q 638 2663 541 2423 
Q 444 2184 353 1819 
Q 353 1800 334 1789 
Q 316 1778 300 1778 
L 225 1778 
Q 203 1778 187 1801 
Q 172 1825 172 1844 
Q 241 2122 305 2315 
Q 369 2509 505 2668 
Q 641 2828 844 2828 
Q 1084 2828 1268 2676 
Q 1453 2525 1453 2291 
Q 1644 2541 1900 2684 
Q 2156 2828 2444 2828 
Q 2672 2828 2837 2750 
Q 3003 2672 3095 2514 
Q 3188 2356 3188 2138 
Q 3188 1875 3070 1503 
Q 2953 1131 2778 672 
Q 2688 463 2688 288 
Q 2688 97 2834 97 
Q 3084 97 3251 365 
Q 3419 634 3488 941 
Q 3500 978 3541 978 
L 3616 978 
Q 3641 978 3658 962 
Q 3675 947 3675 922 
Q 3675 916 3669 903 
Q 3581 541 3364 234 
Q 3147 -72 2822 -72 
Q 2597 -72 2437 83 
Q 2278 238 2278 459 
Q 2278 578 2328 709 
Q 2409 919 2514 1209 
Q 2619 1500 2686 1765 
Q 2753 2031 2753 2234 
Q 2753 2413 2679 2538 
Q 2606 2663 2431 2663 
Q 2197 2663 2000 2559 
Q 1803 2456 1656 2286 
Q 1509 2116 1388 1881 
L 953 141 
Q 931 53 854 -9 
Q 778 -72 684 -72 
Q 606 -72 550 -22 
Q 494 28 494 109 
z
" transform="scale(0.015625)"/>
       <path id="Cmmi10-6d" d="M 494 109 
Q 494 147 500 166 
L 978 2075 
Q 1025 2253 1025 2388 
Q 1025 2663 838 2663 
Q 638 2663 541 2423 
Q 444 2184 353 1819 
Q 353 1800 334 1789 
Q 316 1778 300 1778 
L 225 1778 
Q 203 1778 187 1801 
Q 172 1825 172 1844 
Q 241 2122 305 2315 
Q 369 2509 505 2668 
Q 641 2828 844 2828 
Q 1084 2828 1268 2676 
Q 1453 2525 1453 2291 
Q 1644 2541 1900 2684 
Q 2156 2828 2444 2828 
Q 2747 2828 2967 2673 
Q 3188 2519 3188 2234 
Q 3384 2513 3648 2670 
Q 3913 2828 4225 2828 
Q 4556 2828 4757 2648 
Q 4959 2469 4959 2138 
Q 4959 1875 4842 1503 
Q 4725 1131 4550 672 
Q 4459 450 4459 288 
Q 4459 97 4609 97 
Q 4859 97 5025 365 
Q 5191 634 5259 941 
Q 5278 978 5313 978 
L 5388 978 
Q 5413 978 5430 961 
Q 5447 944 5447 922 
Q 5447 916 5441 903 
Q 5353 541 5136 234 
Q 4919 -72 4594 -72 
Q 4369 -72 4209 83 
Q 4050 238 4050 459 
Q 4050 572 4103 709 
Q 4284 1191 4404 1569 
Q 4525 1947 4525 2234 
Q 4525 2413 4453 2538 
Q 4381 2663 4213 2663 
Q 3863 2663 3606 2448 
Q 3350 2234 3163 1881 
Q 3150 1819 3144 1784 
L 2731 141 
Q 2709 53 2632 -9 
Q 2556 -72 2463 -72 
Q 2388 -72 2330 -22 
Q 2272 28 2272 109 
Q 2272 147 2278 166 
L 2688 1797 
Q 2753 2059 2753 2234 
Q 2753 2413 2679 2538 
Q 2606 2663 2431 2663 
Q 2197 2663 2000 2559 
Q 1803 2456 1656 2286 
Q 1509 2116 1388 1881 
L 953 141 
Q 931 53 854 -9 
Q 778 -72 684 -72 
Q 606 -72 550 -22 
Q 494 28 494 109 
z
" transform="scale(0.015625)"/>
       <path id="CMUSerif-Roman-29" d="M 366 -1538 
Q 366 -1506 447 -1428 
Q 1478 -378 1478 1600 
Q 1478 3584 488 4588 
Q 366 4703 366 4738 
Q 366 4800 428 4800 
Q 472 4800 626 4672 
Q 781 4544 1017 4250 
Q 1253 3956 1428 3597 
Q 1850 2725 1850 1600 
Q 1850 519 1447 -353 
Q 1275 -719 1034 -1025 
Q 794 -1331 634 -1465 
Q 475 -1600 428 -1600 
Q 366 -1600 366 -1538 
z
" transform="scale(0.015625)"/>
      </defs>
      <use xlink:href="#CMUSerif-Roman-57"/>
      <use xlink:href="#CMUSerif-Roman-61" transform="translate(102.685547 0)"/>
      <use xlink:href="#CMUSerif-Roman-76" transform="translate(152.685547 0)"/>
      <use xlink:href="#CMUSerif-Roman-65" transform="translate(205.371094 0)"/>
      <use xlink:href="#CMUSerif-Roman-6c" transform="translate(249.755859 0)"/>
      <use xlink:href="#CMUSerif-Roman-65" transform="translate(277.441406 0)"/>
      <use xlink:href="#CMUSerif-Roman-6e" transform="translate(321.826172 0)"/>
      <use xlink:href="#CMUSerif-Roman-67" transform="translate(377.294922 0)"/>
      <use xlink:href="#CMUSerif-Roman-74" transform="translate(427.294922 0)"/>
      <use xlink:href="#CMUSerif-Roman-68" transform="translate(466.064453 0)"/>
      <use xlink:href="#CMUSerif-Roman-20" transform="translate(521.533203 0)"/>
      <use xlink:href="#Cmmi10-b8" transform="translate(554.785156 0)"/>
      <use xlink:href="#CMUSerif-Roman-20" transform="translate(613.085938 0)"/>
      <use xlink:href="#CMUSerif-Roman-28" transform="translate(646.337891 0)"/>
      <use xlink:href="#Cmmi10-6e" transform="translate(685.107422 0)"/>
      <use xlink:href="#Cmmi10-6d" transform="translate(745.117188 0)"/>
      <use xlink:href="#CMUSerif-Roman-29" transform="translate(832.910156 0)"/>
     </g>
    </g>
   </g>
   <g id="matplotlib.axis_2">
    <g id="ytick_1">
     <g id="line2d_21">
      <defs>
       <path id="m267aa88fe0" d="M 0 0 
L -3.5 0 
" style="stroke: #ffffff; stroke-width: 0.8"/>
      </defs>
      <g>
       <use xlink:href="#m267aa88fe0" x="41.96" y="261.082474" style="fill: #ffffff; stroke: #ffffff; stroke-width: 0.8"/>
      </g>
     </g>
     <g id="text_17">
      <!-- 0.0 -->
      <g style="fill: #ffffff" transform="translate(22.181875 264.552005)scale(0.1 -0.1)">
       <defs>
        <path id="CMUSerif-Roman-2e" d="M 641 103 
Q 544 206 544 340 
Q 544 475 641 573 
Q 738 672 884 672 
Q 1025 672 1120 580 
Q 1216 488 1216 339 
Q 1216 191 1114 95 
Q 1013 0 884 0 
Q 738 0 641 103 
z
" transform="scale(0.015625)"/>
       </defs>
       <use xlink:href="#CMUSerif-Roman-30"/>
       <use xlink:href="#CMUSerif-Roman-2e" x="50"/>
       <use xlink:href="#CMUSerif-Roman-30" x="77.783203"/>
      </g>
     </g>
    </g>
    <g id="ytick_2">
     <g id="line2d_22">
      <g>
       <use xlink:href="#m267aa88fe0" x="41.96" y="214.053815" style="fill: #ffffff; stroke: #ffffff; stroke-width: 0.8"/>
      </g>
     </g>
     <g id="text_18">
      <!-- 0.5 -->
      <g style="fill: #ffffff" transform="translate(22.181875 217.523346)scale(0.1 -0.1)">
       <use xlink:href="#CMUSerif-Roman-30"/>
       <use xlink:href="#CMUSerif-Roman-2e" x="50"/>
       <use xlink:href="#CMUSerif-Roman-35" x="77.783203"/>
      </g>
     </g>
    </g>
    <g id="ytick_3">
     <g id="line2d_23">
      <g>
       <use xlink:href="#m267aa88fe0" x="41.96" y="167.025156" style="fill: #ffffff; stroke: #ffffff; stroke-width: 0.8"/>
      </g>
     </g>
     <g id="text_19">
      <!-- 1.0 -->
      <g style="fill: #ffffff" transform="translate(22.181875 170.494687)scale(0.1 -0.1)">
       <defs>
        <path id="CMUSerif-Roman-31" d="M 569 3653 
L 569 3853 
Q 1338 3853 1734 4263 
Q 1844 4263 1862 4238 
Q 1881 4213 1881 4097 
L 1881 506 
Q 1881 316 1975 256 
Q 2069 197 2478 197 
L 2681 197 
L 2681 0 
Q 2456 19 1643 19 
Q 831 19 609 0 
L 609 197 
L 813 197 
Q 1216 197 1312 255 
Q 1409 313 1409 506 
L 1409 3822 
Q 1075 3653 569 3653 
z
" transform="scale(0.015625)"/>
       </defs>
       <use xlink:href="#CMUSerif-Roman-31"/>
       <use xlink:href="#CMUSerif-Roman-2e" x="50"/>
       <use xlink:href="#CMUSerif-Roman-30" x="77.783203"/>
      </g>
     </g>
    </g>
    <g id="ytick_4">
     <g id="line2d_24">
      <g>
       <use xlink:href="#m267aa88fe0" x="41.96" y="119.996497" style="fill: #ffffff; stroke: #ffffff; stroke-width: 0.8"/>
      </g>
     </g>
     <g id="text_20">
      <!-- 1.5 -->
      <g style="fill: #ffffff" transform="translate(22.181875 123.466028)scale(0.1 -0.1)">
       <use xlink:href="#CMUSerif-Roman-31"/>
       <use xlink:href="#CMUSerif-Roman-2e" x="50"/>
       <use xlink:href="#CMUSerif-Roman-35" x="77.783203"/>
      </g>
     </g>
    </g>
    <g id="ytick_5">
     <g id="line2d_25">
      <g>
       <use xlink:href="#m267aa88fe0" x="41.96" y="72.967838" style="fill: #ffffff; stroke: #ffffff; stroke-width: 0.8"/>
      </g>
     </g>
     <g id="text_21">
      <!-- 2.0 -->
      <g style="fill: #ffffff" transform="translate(22.181875 76.437369)scale(0.1 -0.1)">
       <use xlink:href="#CMUSerif-Roman-32"/>
       <use xlink:href="#CMUSerif-Roman-2e" x="50"/>
       <use xlink:href="#CMUSerif-Roman-30" x="77.783203"/>
      </g>
     </g>
    </g>
    <g id="text_22">
     <!-- Value -->
     <g style="fill: #ffffff" transform="translate(15.855 175.272656)rotate(-90)scale(0.12 -0.12)">
      <defs>
       <path id="CMUSerif-Roman-56" d="M 122 4172 
L 122 4372 
Q 813 4353 934 4353 
Q 1619 4353 1850 4372 
L 1850 4172 
Q 1325 4172 1325 3988 
Q 1325 3963 1363 3872 
L 2584 641 
L 3756 3725 
Q 3788 3822 3788 3853 
Q 3788 3981 3670 4073 
Q 3553 4166 3322 4172 
L 3322 4372 
Q 3822 4353 4050 4353 
Q 4375 4353 4672 4372 
L 4672 4172 
Q 4134 4166 3975 3744 
L 2547 -19 
Q 2522 -97 2497 -119 
Q 2472 -141 2394 -141 
Q 2331 -141 2298 -116 
Q 2266 -91 2234 0 
L 750 3928 
Q 688 4100 575 4136 
Q 463 4172 122 4172 
z
" transform="scale(0.015625)"/>
       <path id="CMUSerif-Roman-75" d="M 206 2559 
L 206 2759 
L 1147 2828 
L 1147 703 
Q 1147 550 1159 461 
Q 1172 372 1223 269 
Q 1275 166 1395 119 
Q 1516 72 1709 72 
Q 2056 72 2270 356 
Q 2484 641 2484 1063 
L 2484 2203 
Q 2484 2441 2400 2500 
Q 2316 2559 1984 2559 
L 1984 2759 
L 2925 2828 
L 2925 556 
Q 2925 319 3008 258 
Q 3091 197 3425 197 
L 3425 0 
L 2503 -72 
L 2503 506 
Q 2234 -69 1678 -72 
Q 1397 -72 1205 0 
Q 1013 72 916 161 
Q 819 250 767 422 
Q 716 594 709 700 
Q 703 806 703 1013 
L 703 1972 
Q 703 2406 640 2482 
Q 578 2559 206 2559 
z
" transform="scale(0.015625)"/>
      </defs>
      <use xlink:href="#CMUSerif-Roman-56"/>
      <use xlink:href="#CMUSerif-Roman-61" x="75"/>
      <use xlink:href="#CMUSerif-Roman-6c" x="125"/>
      <use xlink:href="#CMUSerif-Roman-75" x="152.685547"/>
      <use xlink:href="#CMUSerif-Roman-65" x="208.154297"/>
     </g>
    </g>
   </g>
   <g id="line2d_26">
    <path d="M 83.552632 260.804777 
L 89.098316 260.486724 
L 93.257579 260.043264 
L 97.416842 259.314819 
L 100.189684 258.610668 
L 102.962526 257.685227 
L 105.735368 256.500701 
L 108.508211 255.034714 
L 111.281053 253.297038 
L 114.053895 251.327441 
L 116.826737 249.139348 
L 119.599579 246.72311 
L 127.918105 239.144968 
L 139.009474 230.214762 
L 141.782316 228.490701 
L 148.714421 224.900035 
L 151.487263 223.645855 
L 152.873684 223.21322 
L 154.260105 222.964457 
L 157.032947 222.888995 
L 163.965053 223.377952 
L 165.351474 223.653991 
L 166.737895 224.097829 
L 168.124316 224.73771 
L 170.897158 226.430103 
L 176.442842 230.153521 
L 187.534211 237.246271 
L 190.307053 239.455442 
L 195.852737 244.305733 
L 200.012 247.882103 
L 204.171263 251.148883 
L 206.944105 253.070478 
L 209.716947 254.749445 
L 212.489789 256.206443 
L 215.262632 257.473711 
L 218.035474 258.550362 
L 220.808316 259.413943 
L 223.581158 260.0645 
L 226.354 260.513933 
L 229.126842 260.758276 
L 231.899684 260.791767 
L 236.058947 260.550855 
L 240.218211 260.084756 
L 242.991053 259.61334 
L 245.763895 258.959673 
L 248.536737 258.072724 
L 251.309579 256.915138 
L 254.082421 255.521595 
L 259.628105 252.397615 
L 263.787368 249.781384 
L 267.946632 246.758071 
L 272.105895 243.417437 
L 279.038 237.494902 
L 283.197263 233.760779 
L 285.970105 231.017193 
L 290.129368 226.496206 
L 295.675053 220.398733 
L 299.834316 216.109532 
L 305.38 210.534472 
L 308.152842 207.458121 
L 312.312105 202.476375 
L 334.494842 175.426619 
L 337.267684 172.36289 
L 340.040526 169.646496 
L 342.813368 167.306698 
L 345.586211 165.034621 
L 348.359053 162.439579 
L 352.518316 158.209822 
L 353.904737 156.971745 
L 355.291158 155.916422 
L 356.677579 155.033506 
L 359.450421 153.684254 
L 362.223263 152.738131 
L 364.996105 152.137387 
L 367.768947 151.93112 
L 370.541789 152.139739 
L 373.314632 152.700885 
L 376.087474 153.54251 
L 378.860316 154.704306 
L 380.246737 155.446982 
L 381.633158 156.317106 
L 384.406 158.454559 
L 387.178842 161.038972 
L 389.951684 163.963966 
L 392.724526 167.167568 
L 395.497368 170.626507 
L 401.043053 178.047517 
L 407.975158 187.504115 
L 410.748 191.727062 
L 420.452947 207.247827 
L 424.612211 213.266292 
L 427.385053 216.977389 
L 430.157895 220.42031 
L 434.317158 225.154027 
L 442.635684 234.14743 
L 446.794947 238.187963 
L 449.567789 240.610645 
L 452.340632 242.814182 
L 455.113474 244.809646 
L 457.886316 246.614925 
L 462.045579 249.000971 
L 466.204842 251.041112 
L 470.364105 252.776339 
L 474.523368 254.244447 
L 478.682632 255.481535 
L 482.841895 256.519012 
L 488.387579 257.634587 
L 493.933263 258.508391 
L 499.478947 259.177258 
L 506.411053 259.756049 
L 514.729579 260.22387 
L 525.820947 260.60882 
L 539.685158 260.859129 
L 561.867895 261.01287 
L 577 261.050426 
L 577 261.050426 
" clip-path="url(#p7df29a8fc7)" style="fill: none; stroke: #cc00cc; stroke-width: 1.5; stroke-linecap: square"/>
   </g>
   <g id="line2d_27">
    <path d="M 83.552632 261.044129 
L 96.030421 260.875943 
L 104.348947 260.567585 
L 111.281053 260.103052 
L 119.599579 259.322412 
L 129.304526 258.134827 
L 136.236632 257.130187 
L 144.555158 255.658265 
L 165.351474 251.607619 
L 175.056421 249.489881 
L 179.215684 248.251382 
L 183.374947 246.74812 
L 194.466316 242.272337 
L 201.398421 239.332415 
L 205.557684 237.326586 
L 209.716947 235.075578 
L 220.808316 228.574609 
L 223.581158 226.649096 
L 226.354 224.428713 
L 236.058947 216.118542 
L 240.218211 212.20035 
L 245.763895 206.600563 
L 258.241684 193.633002 
L 262.400947 189.198886 
L 265.173789 186.557004 
L 267.946632 184.287053 
L 270.719474 182.296697 
L 274.878737 179.635966 
L 279.038 177.274826 
L 284.583684 174.231282 
L 291.515789 170.173019 
L 294.288632 169.015268 
L 297.061474 168.288157 
L 299.834316 167.993419 
L 306.766421 167.751034 
L 312.312105 167.046084 
L 315.084947 167.098521 
L 320.630632 167.703958 
L 324.789895 168.216975 
L 327.562737 168.744025 
L 330.335579 169.481369 
L 333.108421 170.406093 
L 335.881263 171.517531 
L 338.654105 172.905873 
L 341.426947 174.663052 
L 346.972632 178.543791 
L 349.745474 180.122882 
L 353.904737 182.348617 
L 356.677579 184.074738 
L 359.450421 186.02195 
L 363.609684 189.232126 
L 369.155368 193.870262 
L 378.860316 202.418059 
L 385.792421 208.797027 
L 396.883789 219.064624 
L 402.429474 223.922732 
L 414.907263 234.101878 
L 419.066526 237.30168 
L 423.225789 240.20585 
L 427.385053 242.805453 
L 431.544316 245.102832 
L 437.09 247.818483 
L 442.635684 250.309666 
L 446.794947 251.97341 
L 450.954211 253.428384 
L 455.113474 254.677457 
L 460.659158 256.062642 
L 466.204842 257.17514 
L 471.750526 258.061492 
L 478.682632 258.916735 
L 485.614737 259.55043 
L 493.933263 260.090931 
L 503.638211 260.493205 
L 517.502421 260.796978 
L 538.298737 260.989838 
L 577 261.070042 
L 577 261.070042 
" clip-path="url(#p7df29a8fc7)" style="fill: none; stroke: #cc8000; stroke-width: 1.5; stroke-linecap: square"/>
   </g>
   <g id="line2d_28">
    <path d="M 83.552632 259.842091 
L 86.325474 259.261752 
L 89.098316 258.415929 
L 91.871158 257.198408 
L 93.257579 256.409103 
L 94.644 255.47387 
L 96.030421 254.371554 
L 97.416842 253.079838 
L 98.803263 251.575602 
L 100.189684 249.834742 
L 101.576105 247.833118 
L 102.962526 245.547553 
L 104.348947 242.957017 
L 105.735368 240.043902 
L 107.121789 236.795849 
L 108.508211 233.207346 
L 111.281053 225.031978 
L 114.053895 215.629839 
L 116.826737 205.045569 
L 119.599579 193.26283 
L 129.304526 149.629537 
L 133.463789 131.976765 
L 137.623053 113.839881 
L 139.009474 108.244975 
L 141.782316 98.394541 
L 147.328 81.009362 
L 150.100842 72.484759 
L 151.487263 68.801475 
L 152.873684 65.824561 
L 154.260105 63.728493 
L 155.646526 62.37783 
L 157.032947 61.54674 
L 162.578632 59.346927 
L 163.965053 59.157214 
L 165.351474 59.588184 
L 166.737895 60.90367 
L 168.124316 63.260652 
L 169.510737 66.441388 
L 172.283579 74.079783 
L 175.056421 81.666164 
L 177.829263 88.43293 
L 184.761368 104.472054 
L 186.147789 108.172363 
L 187.534211 112.251629 
L 190.307053 121.638361 
L 193.079895 132.235611 
L 204.171263 176.475537 
L 206.944105 186.023859 
L 209.716947 194.465015 
L 212.489789 201.969349 
L 215.262632 208.884246 
L 218.035474 215.344545 
L 220.808316 221.108537 
L 223.581158 225.997044 
L 226.354 230.124382 
L 229.126842 233.751148 
L 231.899684 237.049484 
L 234.672526 240.095135 
L 238.831789 244.264188 
L 241.604632 246.784793 
L 244.377474 249.086846 
L 247.150316 251.101478 
L 249.923158 252.756154 
L 252.696 254.062852 
L 255.468842 255.130683 
L 259.628105 256.459686 
L 263.787368 257.522483 
L 267.946632 258.3482 
L 273.492316 259.176071 
L 279.038 259.760545 
L 285.970105 260.246672 
L 294.288632 260.609789 
L 305.38 260.863924 
L 323.403474 261.020739 
L 363.609684 261.078375 
L 577 261.082474 
L 577 261.082474 
" clip-path="url(#p7df29a8fc7)" style="fill: none; stroke: #0000cc; stroke-width: 1.5; stroke-linecap: square"/>
   </g>
   <g id="patch_3">
    <path d="M 41.96 281.275 
L 41.96 38.964687 
" style="fill: none; stroke: #ffffff; stroke-width: 0.8; stroke-linejoin: miter; stroke-linecap: square"/>
   </g>
   <g id="patch_4">
    <path d="M 568.8 281.275 
L 568.8 38.964687 
" style="fill: none; stroke: #ffffff; stroke-width: 0.8; stroke-linejoin: miter; stroke-linecap: square"/>
   </g>
   <g id="patch_5">
    <path d="M 41.96 281.275 
L 568.8 281.275 
" style="fill: none; stroke: #ffffff; stroke-width: 0.8; stroke-linejoin: miter; stroke-linecap: square"/>
   </g>
   <g id="patch_6">
    <path d="M 41.96 38.964687 
L 568.8 38.964687 
" style="fill: none; stroke: #ffffff; stroke-width: 0.8; stroke-linejoin: miter; stroke-linecap: square"/>
   </g>
   <g id="line2d_29">
    <defs>
     <path id="ma32f8b89b0" d="M 0 2 
C 0.530406 2 1.03916 1.789267 1.414214 1.414214 
C 1.789267 1.03916 2 0.530406 2 0 
C 2 -0.530406 1.789267 -1.03916 1.414214 -1.414214 
C 1.03916 -1.789267 0.530406 -2 0 -2 
C -0.530406 -2 -1.03916 -1.789267 -1.414214 -1.414214 
C -1.789267 -1.03916 -2 -0.530406 -2 0 
C -2 0.530406 -1.789267 1.03916 -1.414214 1.414214 
C -1.03916 1.789267 -0.530406 2 0 2 
z
" style="stroke: #000000; stroke-opacity: 0"/>
    </defs>
    <g clip-path="url(#p7df29a8fc7)">
     <use xlink:href="#ma32f8b89b0" x="437.313616" y="228.441688" style="fill: #cc0000; stroke: #000000; stroke-opacity: 0"/>
    </g>
   </g>
   <g id="line2d_30">
    <g clip-path="url(#p7df29a8fc7)">
     <use xlink:href="#ma32f8b89b0" x="437.313616" y="247.923265" style="fill: #cc0000; stroke: #000000; stroke-opacity: 0"/>
    </g>
   </g>
   <g id="line2d_31">
    <g clip-path="url(#p7df29a8fc7)">
     <use xlink:href="#ma32f8b89b0" x="437.313616" y="261.082474" style="fill: #cc0000; stroke: #000000; stroke-opacity: 0"/>
    </g>
   </g>
   <g id="line2d_32">
    <defs>
     <path id="m9bed6c4f95" d="M 0 2 
C 0.530406 2 1.03916 1.789267 1.414214 1.414214 
C 1.789267 1.03916 2 0.530406 2 0 
C 2 -0.530406 1.789267 -1.03916 1.414214 -1.414214 
C 1.03916 -1.789267 0.530406 -2 0 -2 
C -0.530406 -2 -1.03916 -1.789267 -1.414214 -1.414214 
C -1.789267 -1.03916 -2 -0.530406 -2 0 
C -2 0.530406 -1.789267 1.03916 -1.414214 1.414214 
C -1.03916 1.789267 -0.530406 2 0 2 
z
" style="stroke: #000000; stroke-opacity: 0"/>
    </defs>
    <g clip-path="url(#p7df29a8fc7)">
     <use xlink:href="#m9bed6c4f95" x="272.543712" y="243.052655" style="fill: #00cc00; stroke: #000000; stroke-opacity: 0"/>
    </g>
   </g>
   <g id="line2d_33">
    <g clip-path="url(#p7df29a8fc7)">
     <use xlink:href="#m9bed6c4f95" x="272.543712" y="181.088273" style="fill: #00cc00; stroke: #000000; stroke-opacity: 0"/>
    </g>
   </g>
   <g id="line2d_34">
    <g clip-path="url(#p7df29a8fc7)">
     <use xlink:href="#m9bed6c4f95" x="272.543712" y="259.053025" style="fill: #00cc00; stroke: #000000; stroke-opacity: 0"/>
    </g>
   </g>
   <g id="line2d_35">
    <defs>
     <path id="m93038b26b2" d="M 0 2 
C 0.530406 2 1.03916 1.789267 1.414214 1.414214 
C 1.789267 1.03916 2 0.530406 2 0 
C 2 -0.530406 1.789267 -1.03916 1.414214 -1.414214 
C 1.03916 -1.789267 0.530406 -2 0 -2 
C -0.530406 -2 -1.03916 -1.789267 -1.414214 -1.414214 
C -1.789267 -1.03916 -2 -0.530406 -2 0 
C -2 0.530406 -1.789267 1.03916 -1.414214 1.414214 
C -1.03916 1.789267 -0.530406 2 0 2 
z
" style="stroke: #000000; stroke-opacity: 0"/>
    </defs>
    <g clip-path="url(#p7df29a8fc7)">
     <use xlink:href="#m93038b26b2" x="159.035556" y="223.009429" style="fill: #0000cc; stroke: #000000; stroke-opacity: 0"/>
    </g>
   </g>
   <g id="line2d_36">
    <g clip-path="url(#p7df29a8fc7)">
     <use xlink:href="#m93038b26b2" x="159.035556" y="252.935036" style="fill: #0000cc; stroke: #000000; stroke-opacity: 0"/>
    </g>
   </g>
   <g id="line2d_37">
    <g clip-path="url(#p7df29a8fc7)">
     <use xlink:href="#m93038b26b2" x="159.035556" y="60.783659" style="fill: #0000cc; stroke: #000000; stroke-opacity: 0"/>
    </g>
   </g>
   <g id="line2d_38">
    <defs>
     <path id="me7166fd5ba" d="M 0 2 
C 0.530406 2 1.03916 1.789267 1.414214 1.414214 
C 1.789267 1.03916 2 0.530406 2 0 
C 2 -0.530406 1.789267 -1.03916 1.414214 -1.414214 
C 1.03916 -1.789267 0.530406 -2 0 -2 
C -0.530406 -2 -1.03916 -1.789267 -1.414214 -1.414214 
C -1.789267 -1.03916 -2 -0.530406 -2 0 
C -2 0.530406 -1.789267 1.03916 -1.414214 1.414214 
C -1.03916 1.789267 -0.530406 2 0 2 
z
" style="stroke: #000000; stroke-opacity: 0"/>
    </defs>
    <g clip-path="url(#p7df29a8fc7)">
     <use xlink:href="#me7166fd5ba" x="227.500793" y="260.640772" style="fill: #ffffff; stroke: #000000; stroke-opacity: 0"/>
    </g>
   </g>
   <g id="line2d_39">
    <g clip-path="url(#p7df29a8fc7)">
     <use xlink:href="#me7166fd5ba" x="227.500793" y="223.457718" style="fill: #ffffff; stroke: #000000; stroke-opacity: 0"/>
    </g>
   </g>
   <g id="line2d_40">
    <g clip-path="url(#p7df29a8fc7)">
     <use xlink:href="#me7166fd5ba" x="227.500793" y="231.672794" style="fill: #ffffff; stroke: #000000; stroke-opacity: 0"/>
    </g>
   </g>
   <g id="text_23">
    <!-- $X_R$ -->
    <g style="fill: #ffffff" transform="translate(440.086458 225.949864)scale(0.08 -0.08)">
     <defs>
      <path id="Cmmi10-58" d="M 231 0 
Q 166 0 166 84 
Q 169 100 180 140 
Q 191 181 208 203 
Q 225 225 256 225 
Q 838 225 1253 659 
Q 1259 666 1267 669 
Q 1275 672 1275 672 
L 2675 2181 
L 1913 4019 
Q 1847 4103 1700 4125 
Q 1553 4147 1356 4147 
Q 1294 4147 1294 4231 
Q 1316 4313 1328 4342 
Q 1341 4372 1403 4372 
L 3003 4372 
Q 3066 4372 3066 4288 
Q 3063 4272 3052 4231 
Q 3041 4191 3023 4169 
Q 3006 4147 2975 4147 
Q 2856 4147 2729 4108 
Q 2603 4069 2553 3981 
L 3103 2656 
L 4153 3781 
Q 4163 3803 4197 3858 
Q 4231 3913 4231 3963 
Q 4231 4056 4150 4101 
Q 4069 4147 3956 4147 
Q 3891 4147 3891 4231 
Q 3913 4313 3925 4342 
Q 3938 4372 4000 4372 
L 5388 4372 
Q 5422 4372 5437 4347 
Q 5453 4322 5453 4288 
Q 5450 4272 5440 4234 
Q 5431 4197 5415 4172 
Q 5400 4147 5369 4147 
Q 5072 4147 4823 4039 
Q 4575 3931 4366 3713 
Q 4363 3709 4358 3707 
Q 4353 3706 4347 3700 
L 3188 2450 
L 4063 353 
Q 4166 225 4622 225 
Q 4684 225 4684 141 
Q 4663 56 4648 28 
Q 4634 0 4575 0 
L 2975 0 
Q 2913 0 2913 84 
Q 2916 100 2925 139 
Q 2934 178 2951 201 
Q 2969 225 2994 225 
Q 3119 225 3247 264 
Q 3375 303 3425 391 
L 2759 1984 
L 1466 588 
Q 1456 566 1422 512 
Q 1388 459 1388 409 
Q 1388 316 1475 270 
Q 1563 225 1663 225 
Q 1728 225 1728 141 
Q 1706 50 1693 25 
Q 1681 0 1619 0 
L 231 0 
z
" transform="scale(0.015625)"/>
      <path id="Cmmi10-52" d="M 313 0 
Q 250 0 250 84 
Q 253 100 262 139 
Q 272 178 289 201 
Q 306 225 331 225 
Q 722 225 878 269 
Q 959 297 997 441 
L 1875 3956 
Q 1888 4019 1888 4044 
Q 1888 4113 1813 4122 
Q 1691 4147 1350 4147 
Q 1288 4147 1288 4231 
Q 1291 4247 1300 4286 
Q 1309 4325 1326 4348 
Q 1344 4372 1369 4372 
L 3309 4372 
Q 3541 4372 3791 4319 
Q 4041 4266 4250 4152 
Q 4459 4038 4593 3848 
Q 4728 3659 4728 3406 
Q 4728 3084 4515 2831 
Q 4303 2578 3978 2408 
Q 3653 2238 3347 2169 
Q 3597 2078 3756 1879 
Q 3916 1681 3916 1422 
Q 3916 1388 3914 1370 
Q 3913 1353 3909 1331 
L 3859 763 
Q 3853 638 3847 550 
Q 3841 463 3841 409 
Q 3841 234 3892 129 
Q 3944 25 4097 25 
Q 4297 25 4448 211 
Q 4600 397 4647 616 
Q 4675 672 4709 672 
L 4769 672 
Q 4831 672 4831 588 
Q 4784 403 4682 237 
Q 4581 72 4426 -34 
Q 4272 -141 4091 -141 
Q 3716 -141 3452 26 
Q 3188 194 3188 550 
Q 3188 684 3213 788 
L 3353 1356 
Q 3378 1434 3378 1538 
Q 3378 1803 3198 1954 
Q 3019 2106 2747 2106 
L 1959 2106 
L 1538 416 
Q 1522 363 1522 325 
Q 1522 259 1600 250 
Q 1722 225 2059 225 
Q 2125 225 2125 141 
Q 2103 50 2090 25 
Q 2078 0 2016 0 
L 313 0 
z
M 1997 2272 
L 2706 2272 
Q 3403 2272 3756 2625 
Q 3919 2788 4014 3039 
Q 4109 3291 4109 3541 
Q 4109 3778 3970 3912 
Q 3831 4047 3626 4097 
Q 3422 4147 3175 4147 
L 2747 4147 
Q 2572 4147 2515 4117 
Q 2459 4088 2413 3928 
L 1997 2272 
z
" transform="scale(0.015625)"/>
     </defs>
     <use xlink:href="#Cmmi10-58" transform="translate(0 0.6875)"/>
     <use xlink:href="#Cmmi10-52" transform="translate(82.8125 -16.31875)scale(0.7)"/>
    </g>
   </g>
   <g id="text_24">
    <!-- $Y_R$ -->
    <g style="fill: #ffffff" transform="translate(440.086458 245.431442)scale(0.08 -0.08)">
     <defs>
      <path id="Cmmi10-59" d="M 569 84 
Q 572 100 581 137 
Q 591 175 606 200 
Q 622 225 653 225 
Q 1044 225 1197 269 
Q 1228 278 1254 312 
Q 1281 347 1297 384 
Q 1313 422 1325 459 
L 1644 1747 
L 819 4019 
Q 763 4103 616 4125 
Q 469 4147 275 4147 
Q 213 4147 213 4231 
Q 231 4309 247 4340 
Q 263 4372 319 4372 
L 1931 4372 
Q 1991 4372 1991 4288 
Q 1966 4147 1906 4147 
Q 1453 4147 1453 4006 
L 2175 2034 
L 3688 3781 
Q 3700 3813 3731 3858 
Q 3763 3903 3778 3934 
Q 3794 3966 3794 4006 
Q 3794 4147 3531 4147 
Q 3469 4147 3469 4231 
Q 3481 4281 3489 4309 
Q 3497 4338 3517 4355 
Q 3538 4372 3578 4372 
L 4819 4372 
Q 4847 4372 4865 4344 
Q 4884 4316 4884 4288 
Q 4872 4241 4865 4220 
Q 4859 4200 4843 4173 
Q 4828 4147 4794 4147 
Q 4538 4147 4309 4036 
Q 4081 3925 3909 3725 
Q 3903 3719 3895 3714 
Q 3888 3709 3878 3700 
L 2188 1747 
L 1856 422 
Q 1856 406 1850 375 
Q 1844 344 1844 325 
Q 1844 300 1851 283 
Q 1859 266 1873 261 
Q 1888 256 1919 250 
Q 2041 225 2381 225 
Q 2444 225 2444 141 
Q 2422 50 2409 25 
Q 2397 0 2338 0 
L 634 0 
Q 569 0 569 84 
z
" transform="scale(0.015625)"/>
     </defs>
     <use xlink:href="#Cmmi10-59" transform="translate(0 0.6875)"/>
     <use xlink:href="#Cmmi10-52" transform="translate(58.007812 -16.31875)scale(0.7)"/>
    </g>
   </g>
   <g id="text_25">
    <!-- $Z_R$ -->
    <g style="fill: #ffffff" transform="translate(424.300774 258.590651)scale(0.08 -0.08)">
     <defs>
      <path id="Cmmi10-5a" d="M 372 50 
Q 372 144 416 197 
L 3938 4147 
L 2994 4147 
Q 2525 4147 2217 4036 
Q 1909 3925 1707 3667 
Q 1506 3409 1369 2963 
Q 1356 2906 1306 2906 
L 1247 2906 
Q 1184 2906 1184 2988 
L 1588 4313 
Q 1600 4372 1650 4372 
L 4569 4372 
Q 4622 4372 4622 4319 
Q 4622 4225 4581 4184 
L 1075 244 
L 2047 244 
Q 2613 244 2936 383 
Q 3259 522 3448 822 
Q 3638 1122 3816 1678 
Q 3822 1700 3839 1717 
Q 3856 1734 3878 1734 
L 3938 1734 
Q 4000 1734 4000 1650 
L 3494 56 
Q 3466 0 3431 0 
L 428 0 
Q 372 0 372 50 
z
" transform="scale(0.015625)"/>
     </defs>
     <use xlink:href="#Cmmi10-5a" transform="translate(0 0.6875)"/>
     <use xlink:href="#Cmmi10-52" transform="translate(68.212891 -16.31875)scale(0.7)"/>
    </g>
   </g>
   <g id="text_26">
    <!-- $X_G$ -->
    <g style="fill: #ffffff" transform="translate(258.17087 240.560831)scale(0.08 -0.08)">
     <defs>
      <path id="Cmmi10-47" d="M 934 1403 
Q 934 1006 1092 707 
Q 1250 409 1547 246 
Q 1844 84 2234 84 
Q 2616 84 2959 264 
Q 3303 444 3391 781 
L 3531 1331 
Q 3534 1350 3537 1370 
Q 3541 1391 3541 1403 
Q 3541 1469 3500 1478 
Q 3341 1522 2859 1522 
Q 2797 1522 2797 1606 
Q 2816 1684 2831 1715 
Q 2847 1747 2906 1747 
L 4556 1747 
Q 4622 1747 4622 1663 
Q 4619 1647 4609 1609 
Q 4600 1572 4584 1547 
Q 4569 1522 4538 1522 
Q 4325 1522 4226 1487 
Q 4128 1453 4091 1306 
L 3950 756 
L 3769 44 
Q 3759 0 3713 0 
Q 3659 0 3559 144 
Q 3459 288 3419 384 
Q 3197 122 2825 -9 
Q 2453 -141 2059 -141 
Q 1563 -141 1164 84 
Q 766 309 545 709 
Q 325 1109 325 1613 
Q 325 2150 564 2673 
Q 803 3197 1212 3611 
Q 1622 4025 2142 4269 
Q 2663 4513 3194 4513 
Q 3406 4513 3601 4447 
Q 3797 4381 3964 4251 
Q 4131 4122 4238 3950 
L 4744 4500 
Q 4744 4513 4775 4513 
L 4813 4513 
Q 4838 4513 4855 4492 
Q 4872 4472 4872 4447 
L 4434 2719 
Q 4434 2675 4384 2675 
L 4269 2675 
Q 4219 2675 4219 2747 
Q 4244 2888 4244 3078 
Q 4244 3394 4137 3672 
Q 4031 3950 3806 4119 
Q 3581 4288 3256 4288 
Q 2741 4288 2303 4027 
Q 1866 3766 1562 3337 
Q 1259 2909 1096 2396 
Q 934 1884 934 1403 
z
" transform="scale(0.015625)"/>
     </defs>
     <use xlink:href="#Cmmi10-58" transform="translate(0 0.6875)"/>
     <use xlink:href="#Cmmi10-47" transform="translate(82.8125 -16.31875)scale(0.7)"/>
    </g>
   </g>
   <g id="text_27">
    <!-- $Y_G$ -->
    <g style="fill: #ffffff" transform="translate(260.17087 178.596449)scale(0.08 -0.08)">
     <use xlink:href="#Cmmi10-59" transform="translate(0 0.6875)"/>
     <use xlink:href="#Cmmi10-47" transform="translate(58.007812 -16.31875)scale(0.7)"/>
    </g>
   </g>
   <g id="text_28">
    <!-- $Z_G$ -->
    <g style="fill: #ffffff" transform="translate(275.316554 256.561202)scale(0.08 -0.08)">
     <use xlink:href="#Cmmi10-5a" transform="translate(0 0.6875)"/>
     <use xlink:href="#Cmmi10-47" transform="translate(68.212891 -16.31875)scale(0.7)"/>
    </g>
   </g>
   <g id="text_29">
    <!-- $X_B$ -->
    <g style="fill: #ffffff" transform="translate(161.808398 220.517606)scale(0.08 -0.08)">
     <defs>
      <path id="Cmmi10-42" d="M 319 0 
Q 256 0 256 84 
Q 259 100 268 137 
Q 278 175 293 200 
Q 309 225 341 225 
Q 522 225 656 234 
Q 791 244 884 269 
Q 959 297 1006 441 
L 1881 3956 
Q 1894 4019 1894 4044 
Q 1894 4113 1819 4122 
Q 1697 4147 1356 4147 
Q 1294 4147 1294 4231 
Q 1297 4247 1306 4286 
Q 1316 4325 1333 4348 
Q 1350 4372 1375 4372 
L 3669 4372 
Q 3878 4372 4083 4320 
Q 4288 4269 4461 4156 
Q 4634 4044 4736 3876 
Q 4838 3709 4838 3488 
Q 4838 3247 4714 3040 
Q 4591 2834 4395 2681 
Q 4200 2528 3973 2429 
Q 3747 2331 3500 2284 
Q 3675 2284 3854 2215 
Q 4034 2147 4175 2028 
Q 4316 1909 4402 1743 
Q 4488 1578 4488 1388 
Q 4488 1003 4219 684 
Q 3950 366 3542 183 
Q 3134 0 2753 0 
L 319 0 
z
M 1497 275 
Q 1497 225 1716 225 
L 2631 225 
Q 2944 225 3231 398 
Q 3519 572 3692 859 
Q 3866 1147 3866 1459 
Q 3866 1650 3786 1820 
Q 3706 1991 3556 2089 
Q 3406 2188 3213 2188 
L 1966 2188 
L 1522 416 
Q 1497 328 1497 275 
z
M 2009 2356 
L 2981 2356 
Q 3288 2356 3577 2512 
Q 3866 2669 4048 2937 
Q 4231 3206 4231 3506 
Q 4231 3784 4057 3965 
Q 3884 4147 3609 4147 
L 2731 4147 
Q 2559 4147 2500 4115 
Q 2441 4084 2400 3928 
L 2009 2356 
z
" transform="scale(0.015625)"/>
     </defs>
     <use xlink:href="#Cmmi10-58" transform="translate(0 0.6875)"/>
     <use xlink:href="#Cmmi10-42" transform="translate(82.8125 -16.31875)scale(0.7)"/>
    </g>
   </g>
   <g id="text_30">
    <!-- $Y_B$ -->
    <g style="fill: #ffffff" transform="translate(146.822713 250.443213)scale(0.08 -0.08)">
     <use xlink:href="#Cmmi10-59" transform="translate(0 0.6875)"/>
     <use xlink:href="#Cmmi10-42" transform="translate(58.007812 -16.31875)scale(0.7)"/>
    </g>
   </g>
   <g id="text_31">
    <!-- $Z_B$ -->
    <g style="fill: #ffffff" transform="translate(146.022713 58.291836)scale(0.08 -0.08)">
     <use xlink:href="#Cmmi10-5a" transform="translate(0 0.6875)"/>
     <use xlink:href="#Cmmi10-42" transform="translate(68.212891 -16.31875)scale(0.7)"/>
    </g>
   </g>
   <g id="text_32">
    <!-- $X_{20,250cm^{-1}}$ -->
    <g style="fill: #ffffff" transform="translate(187.927951 257.220199)scale(0.08 -0.08)">
     <defs>
      <path id="Cmr10-32" d="M 319 0 
L 319 172 
Q 319 188 331 206 
L 1325 1306 
Q 1550 1550 1690 1715 
Q 1831 1881 1968 2097 
Q 2106 2313 2186 2536 
Q 2266 2759 2266 3009 
Q 2266 3272 2169 3511 
Q 2072 3750 1880 3894 
Q 1688 4038 1416 4038 
Q 1138 4038 916 3870 
Q 694 3703 603 3438 
Q 628 3444 672 3444 
Q 816 3444 917 3347 
Q 1019 3250 1019 3097 
Q 1019 2950 917 2848 
Q 816 2747 672 2747 
Q 522 2747 420 2851 
Q 319 2956 319 3097 
Q 319 3338 409 3548 
Q 500 3759 670 3923 
Q 841 4088 1055 4175 
Q 1269 4263 1509 4263 
Q 1875 4263 2190 4108 
Q 2506 3953 2690 3670 
Q 2875 3388 2875 3009 
Q 2875 2731 2753 2481 
Q 2631 2231 2440 2026 
Q 2250 1822 1953 1562 
Q 1656 1303 1563 1216 
L 838 519 
L 1453 519 
Q 1906 519 2211 526 
Q 2516 534 2534 550 
Q 2609 631 2688 1141 
L 2875 1141 
L 2694 0 
L 319 0 
z
" transform="scale(0.015625)"/>
      <path id="Cmr10-30" d="M 1600 -141 
Q 816 -141 533 504 
Q 250 1150 250 2041 
Q 250 2597 351 3087 
Q 453 3578 754 3920 
Q 1056 4263 1600 4263 
Q 2022 4263 2290 4056 
Q 2559 3850 2700 3523 
Q 2841 3197 2892 2823 
Q 2944 2450 2944 2041 
Q 2944 1491 2842 1011 
Q 2741 531 2444 195 
Q 2147 -141 1600 -141 
z
M 1600 25 
Q 1956 25 2131 390 
Q 2306 756 2347 1200 
Q 2388 1644 2388 2144 
Q 2388 2625 2347 3031 
Q 2306 3438 2132 3767 
Q 1959 4097 1600 4097 
Q 1238 4097 1063 3765 
Q 888 3434 847 3029 
Q 806 2625 806 2144 
Q 806 1788 823 1472 
Q 841 1156 916 820 
Q 991 484 1158 254 
Q 1325 25 1600 25 
z
" transform="scale(0.015625)"/>
      <path id="Cmmi10-3b" d="M 634 -1153 
Q 634 -1125 659 -1100 
Q 891 -878 1019 -587 
Q 1147 -297 1147 25 
L 1147 103 
Q 1044 0 891 0 
Q 744 0 641 103 
Q 538 206 538 353 
Q 538 503 641 603 
Q 744 703 891 703 
Q 1119 703 1216 492 
Q 1313 281 1313 25 
Q 1313 -331 1170 -651 
Q 1028 -972 769 -1228 
Q 744 -1241 728 -1241 
Q 697 -1241 665 -1212 
Q 634 -1184 634 -1153 
z
" transform="scale(0.015625)"/>
      <path id="Cmr10-35" d="M 556 728 
Q 622 541 758 387 
Q 894 234 1080 148 
Q 1266 63 1466 63 
Q 1928 63 2103 422 
Q 2278 781 2278 1294 
Q 2278 1516 2270 1667 
Q 2263 1819 2228 1959 
Q 2169 2184 2020 2353 
Q 1872 2522 1656 2522 
Q 1441 2522 1286 2456 
Q 1131 2391 1034 2303 
Q 938 2216 863 2119 
Q 788 2022 769 2016 
L 697 2016 
Q 681 2016 657 2036 
Q 634 2056 634 2075 
L 634 4213 
Q 634 4228 654 4245 
Q 675 4263 697 4263 
L 716 4263 
Q 1147 4056 1631 4056 
Q 2106 4056 2547 4263 
L 2566 4263 
Q 2588 4263 2606 4247 
Q 2625 4231 2625 4213 
L 2625 4153 
Q 2625 4122 2613 4122 
Q 2394 3831 2064 3668 
Q 1734 3506 1381 3506 
Q 1125 3506 856 3578 
L 856 2369 
Q 1069 2541 1236 2614 
Q 1403 2688 1663 2688 
Q 2016 2688 2295 2484 
Q 2575 2281 2725 1954 
Q 2875 1628 2875 1288 
Q 2875 903 2686 575 
Q 2497 247 2172 53 
Q 1847 -141 1466 -141 
Q 1150 -141 886 21 
Q 622 184 470 459 
Q 319 734 319 1044 
Q 319 1188 412 1278 
Q 506 1369 647 1369 
Q 788 1369 883 1276 
Q 978 1184 978 1044 
Q 978 906 883 811 
Q 788 716 647 716 
Q 625 716 597 720 
Q 569 725 556 728 
z
" transform="scale(0.015625)"/>
      <path id="Cmmi10-63" d="M 750 763 
Q 750 484 892 290 
Q 1034 97 1300 97 
Q 1681 97 2032 272 
Q 2384 447 2606 756 
Q 2625 775 2656 775 
Q 2688 775 2720 739 
Q 2753 703 2753 672 
Q 2753 647 2741 634 
Q 2506 306 2109 117 
Q 1713 -72 1288 -72 
Q 981 -72 747 73 
Q 513 219 384 462 
Q 256 706 256 1013 
Q 256 1444 497 1869 
Q 738 2294 1138 2561 
Q 1538 2828 1978 2828 
Q 2266 2828 2495 2689 
Q 2725 2550 2725 2278 
Q 2725 2103 2623 1979 
Q 2522 1856 2350 1856 
Q 2247 1856 2176 1920 
Q 2106 1984 2106 2088 
Q 2106 2238 2215 2344 
Q 2325 2450 2472 2450 
L 2484 2450 
Q 2409 2559 2267 2611 
Q 2125 2663 1972 2663 
Q 1597 2663 1315 2342 
Q 1034 2022 892 1576 
Q 750 1131 750 763 
z
" transform="scale(0.015625)"/>
      <path id="Cmsy10-a1" d="M 653 1472 
Q 600 1472 565 1512 
Q 531 1553 531 1600 
Q 531 1647 565 1687 
Q 600 1728 653 1728 
L 4325 1728 
Q 4375 1728 4408 1687 
Q 4441 1647 4441 1600 
Q 4441 1553 4408 1512 
Q 4375 1472 4325 1472 
L 653 1472 
z
" transform="scale(0.015625)"/>
      <path id="Cmr10-31" d="M 594 0 
L 594 225 
Q 1394 225 1394 428 
L 1394 3788 
Q 1063 3628 556 3628 
L 556 3853 
Q 1341 3853 1741 4263 
L 1831 4263 
Q 1853 4263 1873 4245 
Q 1894 4228 1894 4206 
L 1894 428 
Q 1894 225 2694 225 
L 2694 0 
L 594 0 
z
" transform="scale(0.015625)"/>
     </defs>
     <use xlink:href="#Cmmi10-58" transform="translate(0 0.6875)"/>
     <use xlink:href="#Cmr10-32" transform="translate(82.8125 -16.31875)scale(0.7)"/>
     <use xlink:href="#Cmr10-30" transform="translate(117.8125 -16.31875)scale(0.7)"/>
     <use xlink:href="#Cmmi10-3b" transform="translate(152.8125 -16.31875)scale(0.7)"/>
     <use xlink:href="#Cmr10-32" transform="translate(184.483398 -16.31875)scale(0.7)"/>
     <use xlink:href="#Cmr10-35" transform="translate(219.483398 -16.31875)scale(0.7)"/>
     <use xlink:href="#Cmr10-30" transform="translate(254.483398 -16.31875)scale(0.7)"/>
     <use xlink:href="#Cmmi10-63" transform="translate(289.483398 -16.31875)scale(0.7)"/>
     <use xlink:href="#Cmmi10-6d" transform="translate(319.732422 -16.31875)scale(0.7)"/>
     <use xlink:href="#Cmsy10-a1" transform="translate(385.599797 10.466094)scale(0.49)"/>
     <use xlink:href="#Cmr10-31" transform="translate(423.665715 10.466094)scale(0.49)"/>
    </g>
   </g>
   <g id="text_33">
    <!-- $Y_{20,250cm^{-1}}$ -->
    <g style="fill: #ffffff" transform="translate(189.927951 220.037145)scale(0.08 -0.08)">
     <use xlink:href="#Cmmi10-59" transform="translate(0 0.6875)"/>
     <use xlink:href="#Cmr10-32" transform="translate(58.007812 -16.31875)scale(0.7)"/>
     <use xlink:href="#Cmr10-30" transform="translate(93.007812 -16.31875)scale(0.7)"/>
     <use xlink:href="#Cmmi10-3b" transform="translate(128.007812 -16.31875)scale(0.7)"/>
     <use xlink:href="#Cmr10-32" transform="translate(159.678711 -16.31875)scale(0.7)"/>
     <use xlink:href="#Cmr10-35" transform="translate(194.678711 -16.31875)scale(0.7)"/>
     <use xlink:href="#Cmr10-30" transform="translate(229.678711 -16.31875)scale(0.7)"/>
     <use xlink:href="#Cmmi10-63" transform="translate(264.678711 -16.31875)scale(0.7)"/>
     <use xlink:href="#Cmmi10-6d" transform="translate(294.927734 -16.31875)scale(0.7)"/>
     <use xlink:href="#Cmsy10-a1" transform="translate(360.795109 10.466094)scale(0.49)"/>
     <use xlink:href="#Cmr10-31" transform="translate(398.861027 10.466094)scale(0.49)"/>
    </g>
   </g>
   <g id="text_34">
    <!-- $Z_{20,250cm^{-1}}$ -->
    <g style="fill: #ffffff" transform="translate(189.127951 228.25222)scale(0.08 -0.08)">
     <use xlink:href="#Cmmi10-5a" transform="translate(0 0.6875)"/>
     <use xlink:href="#Cmr10-32" transform="translate(68.212891 -16.31875)scale(0.7)"/>
     <use xlink:href="#Cmr10-30" transform="translate(103.212891 -16.31875)scale(0.7)"/>
     <use xlink:href="#Cmmi10-3b" transform="translate(138.212891 -16.31875)scale(0.7)"/>
     <use xlink:href="#Cmr10-32" transform="translate(169.883789 -16.31875)scale(0.7)"/>
     <use xlink:href="#Cmr10-35" transform="translate(204.883789 -16.31875)scale(0.7)"/>
     <use xlink:href="#Cmr10-30" transform="translate(239.883789 -16.31875)scale(0.7)"/>
     <use xlink:href="#Cmmi10-63" transform="translate(274.883789 -16.31875)scale(0.7)"/>
     <use xlink:href="#Cmmi10-6d" transform="translate(305.132812 -16.31875)scale(0.7)"/>
     <use xlink:href="#Cmsy10-a1" transform="translate(371.000187 10.466094)scale(0.49)"/>
     <use xlink:href="#Cmr10-31" transform="translate(409.066105 10.466094)scale(0.49)"/>
    </g>
   </g>
   <g id="legend_1">
    <g id="patch_7">
     <path d="M 512.28 88.964687 
L 561.8 88.964687 
Q 563.8 88.964687 563.8 86.964687 
L 563.8 45.964687 
Q 563.8 43.964687 561.8 43.964687 
L 512.28 43.964687 
Q 510.28 43.964687 510.28 45.964687 
L 510.28 86.964687 
Q 510.28 88.964687 512.28 88.964687 
z
" style="opacity: 0.8; stroke: #cccccc; stroke-linejoin: miter"/>
    </g>
    <g id="text_35">
     <!-- $\bar{X}(\lambda)$ -->
     <g style="fill: #ffffff" transform="translate(514.28 54.964687)scale(0.08 -0.08)">
      <defs>
       <path id="Cmr10-b9" d="M 441 3553 
L 441 3775 
L 2753 3775 
L 2753 3553 
L 441 3553 
z
" transform="scale(0.015625)"/>
       <path id="Cmr10-28" d="M 1984 -1588 
Q 1628 -1306 1370 -942 
Q 1113 -578 948 -165 
Q 784 247 703 697 
Q 622 1147 622 1600 
Q 622 2059 703 2509 
Q 784 2959 951 3375 
Q 1119 3791 1378 4153 
Q 1638 4516 1984 4788 
Q 1984 4800 2016 4800 
L 2075 4800 
Q 2094 4800 2109 4783 
Q 2125 4766 2125 4744 
Q 2125 4716 2113 4703 
Q 1800 4397 1592 4047 
Q 1384 3697 1257 3301 
Q 1131 2906 1075 2482 
Q 1019 2059 1019 1600 
Q 1019 -434 2106 -1491 
Q 2125 -1509 2125 -1544 
Q 2125 -1559 2108 -1579 
Q 2091 -1600 2075 -1600 
L 2016 -1600 
Q 1984 -1600 1984 -1588 
z
" transform="scale(0.015625)"/>
       <path id="Cmr10-29" d="M 416 -1600 
Q 359 -1600 359 -1544 
Q 359 -1516 372 -1503 
Q 1466 -434 1466 1600 
Q 1466 3634 384 4691 
Q 359 4706 359 4744 
Q 359 4766 376 4783 
Q 394 4800 416 4800 
L 475 4800 
Q 494 4800 506 4788 
Q 966 4425 1272 3906 
Q 1578 3388 1720 2800 
Q 1863 2213 1863 1600 
Q 1863 1147 1786 708 
Q 1709 269 1542 -157 
Q 1375 -584 1119 -945 
Q 863 -1306 506 -1588 
Q 494 -1600 475 -1600 
L 416 -1600 
z
" transform="scale(0.015625)"/>
      </defs>
      <use xlink:href="#Cmr10-b9" transform="translate(26.8125 26.015625)"/>
      <use xlink:href="#Cmmi10-58" transform="translate(0 0.71875)"/>
      <use xlink:href="#Cmr10-28" transform="translate(82.8125 0.71875)"/>
      <use xlink:href="#Cmmi10-b8" transform="translate(121.630859 0.71875)"/>
      <use xlink:href="#Cmr10-29" transform="translate(179.931641 0.71875)"/>
     </g>
    </g>
    <g id="line2d_41">
     <path d="M 539.8 51.464687 
L 549.8 51.464687 
L 559.8 51.464687 
" style="fill: none; stroke: #cc00cc; stroke-width: 1.5; stroke-linecap: square"/>
    </g>
    <g id="text_36">
     <!-- $\bar{Y}(\lambda)$ -->
     <g style="fill: #ffffff" transform="translate(516.28 68.964687)scale(0.08 -0.08)">
      <use xlink:href="#Cmr10-b9" transform="translate(11.611328 26.015625)"/>
      <use xlink:href="#Cmmi10-59" transform="translate(0 0.71875)"/>
      <use xlink:href="#Cmr10-28" transform="translate(58.007812 0.71875)"/>
      <use xlink:href="#Cmmi10-b8" transform="translate(96.826172 0.71875)"/>
      <use xlink:href="#Cmr10-29" transform="translate(155.126953 0.71875)"/>
     </g>
    </g>
    <g id="line2d_42">
     <path d="M 539.8 65.464687 
L 549.8 65.464687 
L 559.8 65.464687 
" style="fill: none; stroke: #cc8000; stroke-width: 1.5; stroke-linecap: square"/>
    </g>
    <g id="text_37">
     <!-- $\bar{Z}(\lambda)$ -->
     <g style="fill: #ffffff" transform="translate(515.4 82.964687)scale(0.08 -0.08)">
      <use xlink:href="#Cmr10-b9" transform="translate(18.162598 26.015625)"/>
      <use xlink:href="#Cmmi10-5a" transform="translate(0 0.71875)"/>
      <use xlink:href="#Cmr10-28" transform="translate(68.212891 0.71875)"/>
      <use xlink:href="#Cmmi10-b8" transform="translate(107.03125 0.71875)"/>
      <use xlink:href="#Cmr10-29" transform="translate(165.332031 0.71875)"/>
     </g>
    </g>
    <g id="line2d_43">
     <path d="M 539.8 79.464687 
L 549.8 79.464687 
L 559.8 79.464687 
" style="fill: none; stroke: #0000cc; stroke-width: 1.5; stroke-linecap: square"/>
    </g>
   </g>
  </g>
  <g id="axes_2">
   <g id="patch_8">
    <path d="M 41.96 281.275 
L 568.8 281.275 
L 568.8 38.964687 
L 41.96 38.964687 
L 41.96 281.275 
z
" style="fill: none"/>
   </g>
   <g id="matplotlib.axis_3">
    <g id="xtick_16">
     <g id="line2d_44">
      <defs>
       <path id="m26957fe056" d="M 0 0 
L 0 -3.5 
" style="stroke: #ffffff; stroke-width: 0.8"/>
      </defs>
      <g>
       <use xlink:href="#m26957fe056" x="533.149173" y="38.964687" style="fill: #ffffff; stroke: #ffffff; stroke-width: 0.8"/>
      </g>
     </g>
     <g id="text_38">
      <!-- 14000 -->
      <g style="fill: #ffffff" transform="translate(520.649173 30.025625)scale(0.1 -0.1)">
       <use xlink:href="#CMUSerif-Roman-31"/>
       <use xlink:href="#CMUSerif-Roman-34" x="50"/>
       <use xlink:href="#CMUSerif-Roman-30" x="100"/>
       <use xlink:href="#CMUSerif-Roman-30" x="150"/>
       <use xlink:href="#CMUSerif-Roman-30" x="200"/>
      </g>
     </g>
    </g>
    <g id="xtick_17">
     <g id="line2d_45">
      <g>
       <use xlink:href="#m26957fe056" x="499.000871" y="38.964687" style="fill: #ffffff; stroke: #ffffff; stroke-width: 0.8"/>
      </g>
     </g>
    </g>
    <g id="xtick_18">
     <g id="line2d_46">
      <g>
       <use xlink:href="#m26957fe056" x="467.129123" y="38.964687" style="fill: #ffffff; stroke: #ffffff; stroke-width: 0.8"/>
      </g>
     </g>
     <g id="text_39">
      <!-- 15000 -->
      <g style="fill: #ffffff" transform="translate(454.629123 30.025625)scale(0.1 -0.1)">
       <use xlink:href="#CMUSerif-Roman-31"/>
       <use xlink:href="#CMUSerif-Roman-35" x="50"/>
       <use xlink:href="#CMUSerif-Roman-30" x="100"/>
       <use xlink:href="#CMUSerif-Roman-30" x="150"/>
       <use xlink:href="#CMUSerif-Roman-30" x="200"/>
      </g>
     </g>
    </g>
    <g id="xtick_19">
     <g id="line2d_47">
      <g>
       <use xlink:href="#m26957fe056" x="437.313616" y="38.964687" style="fill: #ffffff; stroke: #ffffff; stroke-width: 0.8"/>
      </g>
     </g>
    </g>
    <g id="xtick_20">
     <g id="line2d_48">
      <g>
       <use xlink:href="#m26957fe056" x="409.361579" y="38.964687" style="fill: #ffffff; stroke: #ffffff; stroke-width: 0.8"/>
      </g>
     </g>
     <g id="text_40">
      <!-- 16000 -->
      <g style="fill: #ffffff" transform="translate(396.861579 30.025625)scale(0.1 -0.1)">
       <use xlink:href="#CMUSerif-Roman-31"/>
       <use xlink:href="#CMUSerif-Roman-36" x="50"/>
       <use xlink:href="#CMUSerif-Roman-30" x="100"/>
       <use xlink:href="#CMUSerif-Roman-30" x="150"/>
       <use xlink:href="#CMUSerif-Roman-30" x="200"/>
      </g>
     </g>
    </g>
    <g id="xtick_21">
     <g id="line2d_49">
      <g>
       <use xlink:href="#m26957fe056" x="383.103604" y="38.964687" style="fill: #ffffff; stroke: #ffffff; stroke-width: 0.8"/>
      </g>
     </g>
    </g>
    <g id="xtick_22">
     <g id="line2d_50">
      <g>
       <use xlink:href="#m26957fe056" x="358.390217" y="38.964687" style="fill: #ffffff; stroke: #ffffff; stroke-width: 0.8"/>
      </g>
     </g>
     <g id="text_41">
      <!-- 17000 -->
      <g style="fill: #ffffff" transform="translate(345.890217 30.025625)scale(0.1 -0.1)">
       <use xlink:href="#CMUSerif-Roman-31"/>
       <use xlink:href="#CMUSerif-Roman-37" x="50"/>
       <use xlink:href="#CMUSerif-Roman-30" x="100"/>
       <use xlink:href="#CMUSerif-Roman-30" x="150"/>
       <use xlink:href="#CMUSerif-Roman-30" x="200"/>
      </g>
     </g>
    </g>
    <g id="xtick_23">
     <g id="line2d_51">
      <g>
       <use xlink:href="#m26957fe056" x="335.089023" y="38.964687" style="fill: #ffffff; stroke: #ffffff; stroke-width: 0.8"/>
      </g>
     </g>
    </g>
    <g id="xtick_24">
     <g id="line2d_52">
      <g>
       <use xlink:href="#m26957fe056" x="313.082339" y="38.964687" style="fill: #ffffff; stroke: #ffffff; stroke-width: 0.8"/>
      </g>
     </g>
     <g id="text_42">
      <!-- 18000 -->
      <g style="fill: #ffffff" transform="translate(300.582339 30.025625)scale(0.1 -0.1)">
       <defs>
        <path id="CMUSerif-Roman-38" d="M 269 966 
Q 269 1681 1191 2144 
Q 794 2413 722 2491 
Q 441 2803 441 3194 
Q 441 3641 780 3952 
Q 1119 4263 1600 4263 
Q 2059 4263 2406 3997 
Q 2753 3731 2753 3309 
Q 2753 2716 1978 2316 
Q 2491 1997 2613 1863 
Q 2925 1516 2925 1075 
Q 2925 563 2531 211 
Q 2138 -141 1594 -141 
Q 1063 -141 666 168 
Q 269 478 269 966 
z
M 588 966 
Q 588 569 886 303 
Q 1184 38 1600 38 
Q 2003 38 2304 269 
Q 2606 500 2606 844 
Q 2606 978 2561 1093 
Q 2516 1209 2427 1301 
Q 2338 1394 2283 1436 
Q 2228 1478 2125 1550 
L 1338 2047 
Q 588 1631 588 966 
z
M 722 3444 
Q 722 3138 1044 2925 
L 1838 2413 
Q 2472 2784 2472 3309 
Q 2472 3650 2212 3876 
Q 1953 4103 1594 4103 
Q 1241 4103 981 3917 
Q 722 3731 722 3444 
z
" transform="scale(0.015625)"/>
       </defs>
       <use xlink:href="#CMUSerif-Roman-31"/>
       <use xlink:href="#CMUSerif-Roman-38" x="50"/>
       <use xlink:href="#CMUSerif-Roman-30" x="100"/>
       <use xlink:href="#CMUSerif-Roman-30" x="150"/>
       <use xlink:href="#CMUSerif-Roman-30" x="200"/>
      </g>
     </g>
    </g>
    <g id="xtick_25">
     <g id="line2d_53">
      <g>
       <use xlink:href="#m26957fe056" x="292.265206" y="38.964687" style="fill: #ffffff; stroke: #ffffff; stroke-width: 0.8"/>
      </g>
     </g>
    </g>
    <g id="xtick_26">
     <g id="line2d_54">
      <g>
       <use xlink:href="#m26957fe056" x="272.543712" y="38.964687" style="fill: #ffffff; stroke: #ffffff; stroke-width: 0.8"/>
      </g>
     </g>
     <g id="text_43">
      <!-- 19000 -->
      <g style="fill: #ffffff" transform="translate(260.043712 30.025625)scale(0.1 -0.1)">
       <defs>
        <path id="CMUSerif-Roman-39" d="M 269 2822 
Q 269 3163 369 3395 
Q 469 3628 678 3859 
Q 1063 4263 1619 4263 
Q 1856 4263 2067 4163 
Q 2278 4063 2479 3836 
Q 2681 3609 2803 3164 
Q 2925 2719 2925 2106 
Q 2925 1116 2445 487 
Q 1966 -141 1319 -141 
Q 909 -141 668 45 
Q 428 231 428 550 
Q 428 716 522 786 
Q 616 856 722 856 
Q 838 856 928 779 
Q 1019 703 1019 563 
Q 1019 447 945 358 
Q 872 269 684 269 
Q 869 38 1313 38 
Q 1472 38 1631 111 
Q 1791 184 1964 364 
Q 2138 544 2244 922 
Q 2350 1300 2350 1831 
L 2350 2034 
Q 2094 1394 1550 1394 
Q 1013 1394 641 1806 
Q 269 2219 269 2822 
z
M 844 2816 
Q 844 2181 959 1947 
Q 1156 1544 1556 1544 
Q 1947 1544 2142 1892 
Q 2338 2241 2338 2694 
Q 2338 3322 2234 3597 
Q 2044 4103 1620 4103 
Q 1197 4103 978 3700 
Q 844 3463 844 2816 
z
" transform="scale(0.015625)"/>
       </defs>
       <use xlink:href="#CMUSerif-Roman-31"/>
       <use xlink:href="#CMUSerif-Roman-39" x="50"/>
       <use xlink:href="#CMUSerif-Roman-30" x="100"/>
       <use xlink:href="#CMUSerif-Roman-30" x="150"/>
       <use xlink:href="#CMUSerif-Roman-30" x="200"/>
      </g>
     </g>
    </g>
    <g id="xtick_27">
     <g id="line2d_55">
      <g>
       <use xlink:href="#m26957fe056" x="253.833576" y="38.964687" style="fill: #ffffff; stroke: #ffffff; stroke-width: 0.8"/>
      </g>
     </g>
    </g>
    <g id="xtick_28">
     <g id="line2d_56">
      <g>
       <use xlink:href="#m26957fe056" x="236.058947" y="38.964687" style="fill: #ffffff; stroke: #ffffff; stroke-width: 0.8"/>
      </g>
     </g>
     <g id="text_44">
      <!-- 20000 -->
      <g style="fill: #ffffff" transform="translate(223.558947 30.025625)scale(0.1 -0.1)">
       <use xlink:href="#CMUSerif-Roman-32"/>
       <use xlink:href="#CMUSerif-Roman-30" x="50"/>
       <use xlink:href="#CMUSerif-Roman-30" x="100"/>
       <use xlink:href="#CMUSerif-Roman-30" x="150"/>
       <use xlink:href="#CMUSerif-Roman-30" x="200"/>
      </g>
     </g>
    </g>
    <g id="xtick_29">
     <g id="line2d_57">
      <g>
       <use xlink:href="#m26957fe056" x="219.151374" y="38.964687" style="fill: #ffffff; stroke: #ffffff; stroke-width: 0.8"/>
      </g>
     </g>
    </g>
    <g id="xtick_30">
     <g id="line2d_58">
      <g>
       <use xlink:href="#m26957fe056" x="203.048922" y="38.964687" style="fill: #ffffff; stroke: #ffffff; stroke-width: 0.8"/>
      </g>
     </g>
     <g id="text_45">
      <!-- 21000 -->
      <g style="fill: #ffffff" transform="translate(190.548922 30.025625)scale(0.1 -0.1)">
       <use xlink:href="#CMUSerif-Roman-32"/>
       <use xlink:href="#CMUSerif-Roman-31" x="50"/>
       <use xlink:href="#CMUSerif-Roman-30" x="100"/>
       <use xlink:href="#CMUSerif-Roman-30" x="150"/>
       <use xlink:href="#CMUSerif-Roman-30" x="200"/>
      </g>
     </g>
    </g>
    <g id="xtick_31">
     <g id="line2d_59">
      <g>
       <use xlink:href="#m26957fe056" x="187.695422" y="38.964687" style="fill: #ffffff; stroke: #ffffff; stroke-width: 0.8"/>
      </g>
     </g>
    </g>
    <g id="xtick_32">
     <g id="line2d_60">
      <g>
       <use xlink:href="#m26957fe056" x="173.039809" y="38.964687" style="fill: #ffffff; stroke: #ffffff; stroke-width: 0.8"/>
      </g>
     </g>
    </g>
    <g id="xtick_33">
     <g id="line2d_61">
      <g>
       <use xlink:href="#m26957fe056" x="159.035556" y="38.964687" style="fill: #ffffff; stroke: #ffffff; stroke-width: 0.8"/>
      </g>
     </g>
    </g>
    <g id="xtick_34">
     <g id="line2d_62">
      <g>
       <use xlink:href="#m26957fe056" x="145.640183" y="38.964687" style="fill: #ffffff; stroke: #ffffff; stroke-width: 0.8"/>
      </g>
     </g>
     <g id="text_46">
      <!-- 23000 -->
      <g style="fill: #ffffff" transform="translate(133.140183 30.025625)scale(0.1 -0.1)">
       <use xlink:href="#CMUSerif-Roman-32"/>
       <use xlink:href="#CMUSerif-Roman-33" x="50"/>
       <use xlink:href="#CMUSerif-Roman-30" x="100"/>
       <use xlink:href="#CMUSerif-Roman-30" x="150"/>
       <use xlink:href="#CMUSerif-Roman-30" x="200"/>
      </g>
     </g>
    </g>
    <g id="xtick_35">
     <g id="line2d_63">
      <g>
       <use xlink:href="#m26957fe056" x="132.814826" y="38.964687" style="fill: #ffffff; stroke: #ffffff; stroke-width: 0.8"/>
      </g>
     </g>
    </g>
    <g id="xtick_36">
     <g id="line2d_64">
      <g>
       <use xlink:href="#m26957fe056" x="120.52386" y="38.964687" style="fill: #ffffff; stroke: #ffffff; stroke-width: 0.8"/>
      </g>
     </g>
    </g>
    <g id="xtick_37">
     <g id="line2d_65">
      <g>
       <use xlink:href="#m26957fe056" x="108.734565" y="38.964687" style="fill: #ffffff; stroke: #ffffff; stroke-width: 0.8"/>
      </g>
     </g>
    </g>
    <g id="xtick_38">
     <g id="line2d_66">
      <g>
       <use xlink:href="#m26957fe056" x="97.416842" y="38.964687" style="fill: #ffffff; stroke: #ffffff; stroke-width: 0.8"/>
      </g>
     </g>
     <g id="text_47">
      <!-- 25000 -->
      <g style="fill: #ffffff" transform="translate(84.916842 30.025625)scale(0.1 -0.1)">
       <use xlink:href="#CMUSerif-Roman-32"/>
       <use xlink:href="#CMUSerif-Roman-35" x="50"/>
       <use xlink:href="#CMUSerif-Roman-30" x="100"/>
       <use xlink:href="#CMUSerif-Roman-30" x="150"/>
       <use xlink:href="#CMUSerif-Roman-30" x="200"/>
      </g>
     </g>
    </g>
    <g id="xtick_39">
     <g id="line2d_67">
      <g>
       <use xlink:href="#m26957fe056" x="86.542951" y="38.964687" style="fill: #ffffff; stroke: #ffffff; stroke-width: 0.8"/>
      </g>
     </g>
    </g>
    <g id="xtick_40">
     <g id="line2d_68">
      <g>
       <use xlink:href="#m26957fe056" x="76.087287" y="38.964687" style="fill: #ffffff; stroke: #ffffff; stroke-width: 0.8"/>
      </g>
     </g>
    </g>
    <g id="xtick_41">
     <g id="line2d_69">
      <g>
       <use xlink:href="#m26957fe056" x="66.026177" y="38.964687" style="fill: #ffffff; stroke: #ffffff; stroke-width: 0.8"/>
      </g>
     </g>
    </g>
    <g id="xtick_42">
     <g id="line2d_70">
      <g>
       <use xlink:href="#m26957fe056" x="56.3377" y="38.964687" style="fill: #ffffff; stroke: #ffffff; stroke-width: 0.8"/>
      </g>
     </g>
     <g id="text_48">
      <!-- 27000 -->
      <g style="fill: #ffffff" transform="translate(43.8377 30.025625)scale(0.1 -0.1)">
       <use xlink:href="#CMUSerif-Roman-32"/>
       <use xlink:href="#CMUSerif-Roman-37" x="50"/>
       <use xlink:href="#CMUSerif-Roman-30" x="100"/>
       <use xlink:href="#CMUSerif-Roman-30" x="150"/>
       <use xlink:href="#CMUSerif-Roman-30" x="200"/>
      </g>
     </g>
    </g>
    <g id="xtick_43">
     <g id="line2d_71">
      <g>
       <use xlink:href="#m26957fe056" x="47.001531" y="38.964687" style="fill: #ffffff; stroke: #ffffff; stroke-width: 0.8"/>
      </g>
     </g>
    </g>
    <g id="text_49">
     <!-- Wave-Number ($cm^{-1}$) -->
     <g style="fill: #ffffff" transform="translate(246.58 19.086562)scale(0.12 -0.12)">
      <defs>
       <path id="CMUSerif-Roman-2d" d="M 63 1191 
L 63 1569 
L 1766 1569 
L 1766 1191 
L 63 1191 
z
" transform="scale(0.015625)"/>
       <path id="CMUSerif-Roman-4e" d="M 213 0 
L 213 197 
Q 444 197 591 242 
Q 738 288 791 373 
Q 844 459 858 517 
Q 872 575 872 672 
L 872 4013 
Q 872 4103 848 4125 
Q 825 4147 716 4159 
Q 525 4172 397 4172 
L 213 4172 
L 213 4372 
L 1300 4372 
Q 1391 4372 1416 4359 
Q 1441 4347 1484 4288 
L 3744 966 
L 3744 3700 
Q 3744 3797 3731 3853 
Q 3719 3909 3664 3996 
Q 3609 4084 3462 4128 
Q 3316 4172 3084 4172 
L 3084 4372 
Q 3756 4353 3832 4353 
Q 3909 4353 4581 4372 
L 4581 4172 
Q 4350 4172 4203 4128 
Q 4056 4084 4003 3996 
Q 3950 3909 3936 3851 
Q 3922 3794 3922 3700 
L 3922 166 
Q 3922 63 3909 31 
Q 3897 0 3834 0 
Q 3791 0 3725 84 
L 1113 3922 
Q 1088 3959 1050 4000 
L 1050 672 
Q 1050 575 1062 517 
Q 1075 459 1129 373 
Q 1184 288 1331 242 
Q 1478 197 1709 197 
L 1709 0 
Q 1038 19 961 19 
Q 884 19 213 0 
z
" transform="scale(0.015625)"/>
       <path id="CMUSerif-Roman-6d" d="M 206 0 
L 206 197 
Q 547 197 625 239 
Q 703 281 703 488 
L 703 2203 
Q 703 2441 620 2500 
Q 538 2559 206 2559 
L 206 2759 
L 1106 2828 
L 1106 2156 
Q 1406 2828 2053 2828 
Q 2803 2828 2906 2203 
Q 3016 2447 3245 2637 
Q 3475 2828 3834 2828 
Q 4316 2828 4506 2591 
Q 4647 2431 4675 2253 
Q 4703 2075 4703 1613 
L 4703 391 
Q 4709 256 4812 226 
Q 4916 197 5203 197 
L 5203 0 
Q 4550 19 4488 19 
Q 4438 19 3763 0 
L 3763 197 
Q 4103 197 4183 239 
Q 4263 281 4263 488 
L 4263 1978 
Q 4263 2303 4163 2495 
Q 4063 2688 3788 2688 
Q 3456 2688 3190 2409 
Q 2925 2131 2925 1663 
L 2925 488 
Q 2925 281 3004 239 
Q 3084 197 3425 197 
L 3425 0 
Q 2772 19 2706 19 
Q 2656 19 1984 0 
L 1984 197 
Q 2325 197 2404 239 
Q 2484 281 2484 488 
L 2484 1978 
Q 2484 2303 2384 2495 
Q 2284 2688 2009 2688 
Q 1678 2688 1412 2409 
Q 1147 2131 1147 1663 
L 1147 488 
Q 1147 281 1226 239 
Q 1306 197 1644 197 
L 1644 0 
Q 991 19 928 19 
Q 878 19 206 0 
z
" transform="scale(0.015625)"/>
       <path id="CMUSerif-Roman-62" d="M 178 4172 
L 178 4372 
L 1100 4441 
L 1100 2413 
Q 1472 2828 1978 2828 
Q 2528 2828 2931 2406 
Q 3334 1984 3334 1381 
Q 3334 772 2912 350 
Q 2491 -72 1906 -72 
Q 1375 -72 1069 397 
Q 844 6 838 0 
L 678 0 
L 678 3816 
Q 678 4053 593 4112 
Q 509 4172 178 4172 
z
M 1119 728 
Q 1119 594 1209 459 
Q 1463 72 1875 72 
Q 1878 72 1881 72 
Q 2328 72 2606 481 
Q 2803 788 2803 1388 
Q 2803 1981 2619 2278 
Q 2363 2688 1947 2688 
Q 1478 2688 1191 2278 
Q 1119 2175 1119 2047 
L 1119 728 
z
" transform="scale(0.015625)"/>
       <path id="CMUSerif-Roman-72" d="M 178 0 
L 178 197 
Q 519 197 598 239 
Q 678 281 678 488 
L 678 2203 
Q 678 2441 595 2500 
Q 513 2559 178 2559 
L 178 2759 
L 1069 2828 
L 1069 2125 
Q 1159 2400 1351 2614 
Q 1544 2828 1856 2828 
Q 2063 2828 2195 2712 
Q 2328 2597 2328 2438 
Q 2328 2297 2242 2226 
Q 2156 2156 2053 2156 
Q 1938 2156 1858 2229 
Q 1778 2303 1778 2431 
Q 1778 2509 1814 2570 
Q 1850 2631 1878 2653 
Q 1906 2675 1925 2681 
Q 1913 2688 1856 2688 
Q 1503 2688 1301 2336 
Q 1100 1984 1100 1484 
L 1100 500 
Q 1100 316 1176 256 
Q 1253 197 1588 197 
L 1722 197 
L 1722 0 
Q 1466 19 909 19 
Q 831 19 709 16 
Q 588 13 428 6 
Q 269 0 178 0 
z
" transform="scale(0.015625)"/>
      </defs>
      <use xlink:href="#CMUSerif-Roman-57" transform="translate(0 0.109375)"/>
      <use xlink:href="#CMUSerif-Roman-61" transform="translate(102.685547 0.109375)"/>
      <use xlink:href="#CMUSerif-Roman-76" transform="translate(152.685547 0.109375)"/>
      <use xlink:href="#CMUSerif-Roman-65" transform="translate(205.371094 0.109375)"/>
      <use xlink:href="#CMUSerif-Roman-2d" transform="translate(249.755859 0.109375)"/>
      <use xlink:href="#CMUSerif-Roman-4e" transform="translate(283.007812 0.109375)"/>
      <use xlink:href="#CMUSerif-Roman-75" transform="translate(358.007812 0.109375)"/>
      <use xlink:href="#CMUSerif-Roman-6d" transform="translate(413.476562 0.109375)"/>
      <use xlink:href="#CMUSerif-Roman-62" transform="translate(496.728516 0.109375)"/>
      <use xlink:href="#CMUSerif-Roman-65" transform="translate(552.197266 0.109375)"/>
      <use xlink:href="#CMUSerif-Roman-72" transform="translate(596.582031 0.109375)"/>
      <use xlink:href="#CMUSerif-Roman-20" transform="translate(635.644531 0.109375)"/>
      <use xlink:href="#CMUSerif-Roman-28" transform="translate(668.896484 0.109375)"/>
      <use xlink:href="#Cmmi10-63" transform="translate(707.666016 0.109375)"/>
      <use xlink:href="#Cmmi10-6d" transform="translate(750.878906 0.109375)"/>
      <use xlink:href="#Cmsy10-a1" transform="translate(844.975156 38.373438)scale(0.7)"/>
      <use xlink:href="#Cmr10-31" transform="translate(899.355039 38.373438)scale(0.7)"/>
      <use xlink:href="#CMUSerif-Roman-29" transform="translate(940.732383 0.109375)"/>
     </g>
    </g>
   </g>
   <g id="matplotlib.axis_4">
    <g id="ytick_6">
     <g id="line2d_72">
      <g>
       <use xlink:href="#m267aa88fe0" x="41.96" y="261.082474" style="fill: #ffffff; stroke: #ffffff; stroke-width: 0.8"/>
      </g>
     </g>
     <g id="text_50">
      <!-- 0.0 -->
      <g style="fill: #ffffff" transform="translate(22.181875 264.552005)scale(0.1 -0.1)">
       <use xlink:href="#CMUSerif-Roman-30"/>
       <use xlink:href="#CMUSerif-Roman-2e" x="50"/>
       <use xlink:href="#CMUSerif-Roman-30" x="77.783203"/>
      </g>
     </g>
    </g>
    <g id="ytick_7">
     <g id="line2d_73">
      <g>
       <use xlink:href="#m267aa88fe0" x="41.96" y="214.053815" style="fill: #ffffff; stroke: #ffffff; stroke-width: 0.8"/>
      </g>
     </g>
     <g id="text_51">
      <!-- 0.5 -->
      <g style="fill: #ffffff" transform="translate(22.181875 217.523346)scale(0.1 -0.1)">
       <use xlink:href="#CMUSerif-Roman-30"/>
       <use xlink:href="#CMUSerif-Roman-2e" x="50"/>
       <use xlink:href="#CMUSerif-Roman-35" x="77.783203"/>
      </g>
     </g>
    </g>
    <g id="ytick_8">
     <g id="line2d_74">
      <g>
       <use xlink:href="#m267aa88fe0" x="41.96" y="167.025156" style="fill: #ffffff; stroke: #ffffff; stroke-width: 0.8"/>
      </g>
     </g>
     <g id="text_52">
      <!-- 1.0 -->
      <g style="fill: #ffffff" transform="translate(22.181875 170.494687)scale(0.1 -0.1)">
       <use xlink:href="#CMUSerif-Roman-31"/>
       <use xlink:href="#CMUSerif-Roman-2e" x="50"/>
       <use xlink:href="#CMUSerif-Roman-30" x="77.783203"/>
      </g>
     </g>
    </g>
    <g id="ytick_9">
     <g id="line2d_75">
      <g>
       <use xlink:href="#m267aa88fe0" x="41.96" y="119.996497" style="fill: #ffffff; stroke: #ffffff; stroke-width: 0.8"/>
      </g>
     </g>
     <g id="text_53">
      <!-- 1.5 -->
      <g style="fill: #ffffff" transform="translate(22.181875 123.466028)scale(0.1 -0.1)">
       <use xlink:href="#CMUSerif-Roman-31"/>
       <use xlink:href="#CMUSerif-Roman-2e" x="50"/>
       <use xlink:href="#CMUSerif-Roman-35" x="77.783203"/>
      </g>
     </g>
    </g>
    <g id="ytick_10">
     <g id="line2d_76">
      <g>
       <use xlink:href="#m267aa88fe0" x="41.96" y="72.967838" style="fill: #ffffff; stroke: #ffffff; stroke-width: 0.8"/>
      </g>
     </g>
     <g id="text_54">
      <!-- 2.0 -->
      <g style="fill: #ffffff" transform="translate(22.181875 76.437369)scale(0.1 -0.1)">
       <use xlink:href="#CMUSerif-Roman-32"/>
       <use xlink:href="#CMUSerif-Roman-2e" x="50"/>
       <use xlink:href="#CMUSerif-Roman-30" x="77.783203"/>
      </g>
     </g>
    </g>
   </g>
   <g id="patch_9">
    <path d="M 41.96 281.275 
L 41.96 38.964687 
" style="fill: none; stroke: #ffffff; stroke-width: 0.8; stroke-linejoin: miter; stroke-linecap: square"/>
   </g>
   <g id="patch_10">
    <path d="M 568.8 281.275 
L 568.8 38.964687 
" style="fill: none; stroke: #ffffff; stroke-width: 0.8; stroke-linejoin: miter; stroke-linecap: square"/>
   </g>
   <g id="patch_11">
    <path d="M 41.96 281.275 
L 568.8 281.275 
" style="fill: none; stroke: #ffffff; stroke-width: 0.8; stroke-linejoin: miter; stroke-linecap: square"/>
   </g>
   <g id="patch_12">
    <path d="M 41.96 38.964687 
L 568.8 38.964687 
" style="fill: none; stroke: #ffffff; stroke-width: 0.8; stroke-linejoin: miter; stroke-linecap: square"/>
   </g>
  </g>
 </g>
 <defs>
  <clipPath id="p7df29a8fc7">
   <rect x="41.96" y="38.964687" width="526.84" height="242.310313"/>
  </clipPath>
 </defs>
</svg>
