<?xml version="1.0" encoding="utf-8" standalone="no"?>
<!DOCTYPE svg PUBLIC "-//W3C//DTD SVG 1.1//EN"
  "http://www.w3.org/Graphics/SVG/1.1/DTD/svg11.dtd">
<svg xmlns:xlink="http://www.w3.org/1999/xlink" width="324pt" height="266.4pt" viewBox="0 0 324 266.4" xmlns="http://www.w3.org/2000/svg" version="1.1">
 <metadata>
  <rdf:RDF xmlns:dc="http://purl.org/dc/elements/1.1/" xmlns:cc="http://creativecommons.org/ns#" xmlns:rdf="http://www.w3.org/1999/02/22-rdf-syntax-ns#">
   <cc:Work>
    <dc:type rdf:resource="http://purl.org/dc/dcmitype/StillImage"/>
    <dc:date>2022-07-02T03:00:22.675596</dc:date>
    <dc:format>image/svg+xml</dc:format>
    <dc:creator>
     <cc:Agent>
      <dc:title>Matplotlib v3.5.2, https://matplotlib.org/</dc:title>
     </cc:Agent>
    </dc:creator>
   </cc:Work>
  </rdf:RDF>
 </metadata>
 <defs>
  <style type="text/css">*{stroke-linejoin: round; stroke-linecap: butt}</style>
 </defs>
 <g id="figure_1">
  <g id="patch_1">
   <path d="M 0 266.4 
L 324 266.4 
L 324 0 
L 0 0 
z
" style="fill: #ffffff"/>
  </g>
  <g id="axes_1">
   <g id="patch_2">
    <path d="M 34.22 224.378986 
L 316.8 224.378986 
L 316.8 11.356014 
L 34.22 11.356014 
L 34.22 224.378986 
z
" style="fill: none"/>
   </g>
   <g id="line2d_1">
    <path d="M 261.315273 204.36235 
L 261.164008 204.419223 
L 260.716403 204.398785 
L 260.109638 204.267982 
L 258.75317 204.122387 
L 257.969883 203.728004 
L 256.275224 202.769729 
L 252.970719 200.709462 
L 246.762179 195.434247 
L 239.375396 189.146647 
L 233.086201 181.846591 
L 216.70308 165.060679 
L 211.629537 151.712408 
L 202.074504 134.36574 
L 214.42173 135.940151 
L 223.020763 138.643819 
L 234.594753 146.484793 
L 246.140796 156.485371 
L 256.275224 166.174486 
L 262.336448 172.026696 
L 267.135542 176.803348 
L 272.258162 181.932457 
L 276.466997 186.163046 
L 279.666471 189.4009 
L 282.839429 192.617136 
L 285.49969 195.303385 
L 287.795333 197.621056 
L 289.525895 199.381503 
L 290.755235 200.623755 
L 291.662192 201.528646 
L 292.255823 202.132992 
L 292.870466 202.769729 
L 293.068669 202.988751 
L 293.131168 203.051889 
L 293.110588 203.032953 
" clip-path="url(#pe75606d8b4)" style="fill: none; stroke: #e6e6e6; stroke-width: 1.5; stroke-linecap: square"/>
   </g>
   <g id="line2d_2">
    <path d="M 262.591184 204.865084 
L 262.444539 204.877184 
L 262.233385 205.14571 
L 261.138417 205.099433 
L 259.926897 204.769882 
L 258.229616 204.162746 
L 256.275224 202.769729 
L 253.271616 200.89334 
L 247.526263 196.256819 
L 238.475121 188.034481 
L 227.026559 176.270353 
L 214.892712 160.41848 
L 191.466119 132.539143 
L 204.702421 132.908431 
L 207.348108 126.86976 
L 224.644923 138.81566 
L 237.95174 149.45358 
L 248.95491 159.26185 
L 256.275224 166.174486 
L 263.122469 172.942922 
L 267.910964 177.604471 
L 272.582324 182.256579 
L 276.426054 186.153498 
L 279.850964 189.624424 
L 283.070221 192.858978 
L 285.655105 195.477124 
L 287.739135 197.577735 
L 289.43777 199.286253 
L 290.731816 200.593001 
L 291.589115 201.4597 
L 292.228 202.107591 
L 292.870466 202.769729 
L 293.112833 203.019482 
L 293.167461 203.077832 
L 293.167247 203.076981 
" clip-path="url(#pe75606d8b4)" style="fill: none; stroke: #e6e6e6; stroke-width: 1.5; stroke-linecap: square"/>
   </g>
   <g id="line2d_3">
    <path d="M 263.584373 205.096216 
L 263.516065 204.949727 
L 263.24614 204.820798 
L 262.46947 204.693373 
L 260.870779 204.57904 
L 258.754845 204.169831 
L 256.275224 202.769729 
L 251.026004 199.813666 
L 241.616327 193.406561 
L 227.095523 182.384912 
L 208.021198 166.511577 
L 180.839632 139.595986 
L 104.214224 69.400331 
L 83.479102 32.513194 
L 147.150328 72.752593 
L 190.56882 106.218612 
L 220.549279 132.359173 
L 242.743185 153.09368 
L 256.275224 166.174486 
L 263.63233 173.390949 
L 269.888958 179.602079 
L 274.68282 184.44177 
L 278.170339 187.935842 
L 281.598021 191.397675 
L 284.598191 194.42551 
L 286.799744 196.640918 
L 288.588529 198.430975 
L 290.061623 199.917476 
L 291.171339 201.041643 
L 291.862633 201.74523 
L 292.371654 202.256009 
L 292.870466 202.769729 
L 293.034824 202.941941 
L 293.062771 202.978119 
L 293.07437 202.983404 
" clip-path="url(#pe75606d8b4)" style="fill: none; stroke: #e6e6e6; stroke-width: 1.5; stroke-linecap: square"/>
   </g>
   <g id="line2d_4">
    <path d="M 265.134413 204.810802 
L 265.205167 204.867671 
L 264.508391 204.682401 
L 262.828476 205.17709 
L 261.369673 204.756401 
L 259.061603 204.005391 
L 256.275224 202.769729 
L 252.090945 200.242611 
L 236.451771 190.041789 
L 230.69642 185.466565 
L 201.475112 160.131839 
L 151.141128 118.404502 
L 133.333697 88.435146 
L 129.10917 68.131384 
L 147.671449 71.760652 
L 198.270406 113.822523 
L 231.088371 142.661443 
L 241.889511 152.212949 
L 256.275224 166.174486 
L 262.306151 172.018427 
L 269.141776 178.877083 
L 273.702706 183.458496 
L 277.873281 187.636989 
L 281.593944 191.395731 
L 284.128756 193.922993 
L 286.634385 196.440369 
L 288.529537 198.318152 
L 290.10989 199.928502 
L 291.189946 201.028771 
L 291.862148 201.727178 
L 292.380449 202.251 
L 292.870466 202.769729 
L 292.994784 202.925876 
L 293.06481 202.99284 
L 293.063447 202.990172 
" clip-path="url(#pe75606d8b4)" style="fill: none; stroke: #e6e6e6; stroke-width: 1.5; stroke-linecap: square"/>
   </g>
   <g id="line2d_5">
    <path d="M 262.301188 204.449321 
L 261.761382 204.520459 
L 261.520883 204.598995 
L 260.719322 204.688505 
L 259.522354 204.519133 
L 258.075212 203.987557 
L 256.275224 202.769729 
L 252.323427 200.161438 
L 242.332997 192.484804 
L 231.173956 183.050941 
L 218.90044 170.164288 
L 201.997409 150.2455 
L 180.591492 124.073261 
L 179.256724 109.845441 
L 202.3996 122.429832 
L 218.624449 132.63219 
L 236.111524 147.593209 
L 248.979963 159.321046 
L 256.275224 166.174486 
L 262.897707 172.654387 
L 268.394928 178.102358 
L 272.802129 182.517607 
L 276.31877 186.043723 
L 279.746664 189.499423 
L 282.84819 192.622595 
L 285.569767 195.387866 
L 287.739336 197.573407 
L 289.485519 199.330807 
L 290.762855 200.618432 
L 291.643027 201.508462 
L 292.24564 202.118256 
L 292.870466 202.769729 
L 293.077287 202.971972 
L 293.130279 203.029986 
L 293.113671 203.018736 
" clip-path="url(#pe75606d8b4)" style="fill: none; stroke: #e6e6e6; stroke-width: 1.5; stroke-linecap: square"/>
   </g>
   <g id="line2d_6">
    <path d="M 263.694347 204.482928 
L 263.01748 204.422805 
L 262.557154 204.314635 
L 261.401111 204.527086 
L 260.221837 204.300921 
L 258.283629 203.808763 
L 256.275224 202.769729 
L 253.420246 201.129539 
L 242.574243 194.395314 
L 233.525138 187.610564 
L 220.595349 175.504037 
L 190.94129 149.276612 
L 136.188696 97.519465 
L 148.753953 90.000594 
L 167.861732 94.265173 
L 205.600589 121.892576 
L 226.257736 138.360664 
L 245.231549 155.693663 
L 256.275224 166.174486 
L 263.637903 173.339595 
L 271.71524 181.416628 
L 274.579494 184.282778 
L 279.243594 188.97968 
L 281.883497 191.634969 
L 285.526005 195.337826 
L 286.83312 196.641759 
L 289.336005 199.189108 
L 290.505705 200.370387 
L 291.368416 201.241037 
L 292.012411 201.890834 
L 292.425056 202.308712 
L 292.870466 202.769729 
L 293.035496 202.944057 
L 293.081953 202.993322 
L 293.10852 203.014783 
" clip-path="url(#pe75606d8b4)" style="fill: none; stroke: #e6e6e6; stroke-width: 1.5; stroke-linecap: square"/>
   </g>
   <g id="line2d_7">
    <path d="M 263.800812 204.916273 
L 263.368357 204.853553 
L 263.28443 205.115098 
L 261.788732 204.968711 
L 260.730651 204.393564 
L 258.768627 204.268616 
L 256.275224 202.769729 
L 251.862728 200.199745 
L 241.85341 192.876607 
L 233.740012 186.030796 
L 211.217849 166.697919 
L 189.135435 144.721129 
L 181.162265 127.504454 
L 139.402246 77.82116 
L 179.160761 103.56265 
L 208.523078 123.683342 
L 231.740863 143.84294 
L 247.400071 157.81041 
L 256.275224 166.174486 
L 263.955289 173.747581 
L 270.500219 180.221326 
L 274.838642 184.578466 
L 278.626819 188.4213 
L 281.949143 191.776378 
L 284.496525 194.322866 
L 286.901553 196.75007 
L 288.752471 198.592595 
L 290.162426 200.012162 
L 291.161371 201.024713 
L 291.894248 201.764777 
L 292.385474 202.259085 
L 292.870466 202.769729 
L 293.024142 202.932616 
L 293.086441 202.996118 
L 293.092742 203.002076 
" clip-path="url(#pe75606d8b4)" style="fill: none; stroke: #e6e6e6; stroke-width: 1.5; stroke-linecap: square"/>
   </g>
   <g id="line2d_8">
    <path d="M 264.185434 204.720343 
L 263.005158 204.836418 
L 263.21746 205.003262 
L 261.914435 204.538155 
L 260.500175 204.639083 
L 258.206778 203.543449 
L 256.275224 202.769729 
L 253.813741 201.245095 
L 250.266544 198.368713 
L 241.605652 190.423454 
L 237.126861 183.756619 
L 216.608975 162.950532 
L 207.005449 146.625852 
L 200.548512 132.041322 
L 222.132195 142.259734 
L 218.031917 133.231298 
L 241.388386 153.189104 
L 246.85049 157.246084 
L 256.275224 166.174486 
L 261.746744 171.43382 
L 267.915543 177.620543 
L 271.955119 181.609162 
L 276.170664 185.875846 
L 279.539816 189.257982 
L 283.027972 192.821795 
L 285.605822 195.395128 
L 287.795668 197.612365 
L 289.505621 199.344271 
L 290.793272 200.651095 
L 291.638696 201.509775 
L 292.268975 202.14968 
L 292.870466 202.769729 
L 293.100159 203.005625 
L 293.146783 203.058478 
L 293.139748 203.049934 
" clip-path="url(#pe75606d8b4)" style="fill: none; stroke: #e6e6e6; stroke-width: 1.5; stroke-linecap: square"/>
   </g>
   <g id="line2d_9">
    <path d="M 262.874131 204.320384 
L 262.863115 204.505446 
L 262.137082 204.450617 
L 261.452893 204.866638 
L 260.145668 204.287613 
L 258.367942 203.899941 
L 256.275224 202.769729 
L 252.653159 200.048454 
L 246.226754 194.443273 
L 238.778512 187.631931 
L 227.392606 174.154239 
L 217.606108 160.573801 
L 208.224698 144.151882 
L 211.380882 137.391445 
L 215.295741 134.209526 
L 228.385025 142.243889 
L 238.629209 149.974501 
L 248.907673 159.270296 
L 256.275224 166.174486 
L 262.761367 172.524355 
L 267.665341 177.399807 
L 272.146219 181.877172 
L 275.751287 185.497979 
L 279.20567 188.978687 
L 282.191713 191.998528 
L 284.654897 194.46952 
L 287.117655 196.95513 
L 288.920267 198.763926 
L 290.319973 200.169492 
L 291.370402 201.24311 
L 292.104764 201.978386 
L 292.870466 202.769729 
L 293.15613 203.066112 
L 293.238063 203.152031 
L 293.211923 203.129341 
" clip-path="url(#pe75606d8b4)" style="fill: none; stroke: #e6e6e6; stroke-width: 1.5; stroke-linecap: square"/>
   </g>
   <g id="line2d_10">
    <path d="M 260.830577 204.251279 
L 260.673834 204.261501 
L 260.379498 204.427102 
L 259.967188 204.57726 
L 259.008211 204.378877 
L 257.546508 203.418255 
L 256.275224 202.769729 
L 253.86694 201.23057 
L 249.205127 197.068178 
L 243.879005 192.247791 
L 238.505217 186.388311 
L 228.069233 174.404725 
L 222.300222 161.484855 
L 212.818255 144.808487 
L 218.658685 141.58035 
L 223.909742 140.226513 
L 242.633219 155.012106 
L 250.954449 161.63145 
L 256.275224 166.174486 
L 263.480282 173.205687 
L 268.485727 178.182522 
L 272.96202 182.652217 
L 276.606166 186.305138 
L 279.398502 189.101616 
L 282.855331 192.623902 
L 285.550798 195.361232 
L 287.670401 197.499885 
L 289.430039 199.274678 
L 290.735132 200.604506 
L 291.543671 201.43317 
L 292.223053 202.10497 
L 292.870466 202.769729 
L 293.07338 202.986114 
L 293.133618 203.052175 
L 293.187011 203.088868 
" clip-path="url(#pe75606d8b4)" style="fill: none; stroke: #e6e6e6; stroke-width: 1.5; stroke-linecap: square"/>
   </g>
   <g id="line2d_11">
    <path d="M 261.258178 204.408185 
L 261.438383 204.199374 
L 261.32377 204.342414 
L 260.502556 204.44161 
L 259.849038 204.158116 
L 258.084885 203.553579 
L 256.275224 202.769729 
L 253.926276 201.526985 
L 246.3894 196.843773 
L 241.600614 192.616287 
L 220.010372 177.60746 
L 196.951443 157.212776 
L 162.061219 122.459351 
L 64.336642 29.107928 
L 197.973915 124.09467 
L 207.096219 125.18632 
L 229.081829 141.597865 
L 244.011769 154.480944 
L 256.275224 166.174486 
L 265.824263 175.5761 
L 269.464284 179.064086 
L 276.127475 185.779561 
L 279.379416 189.10217 
L 283.823776 193.564086 
L 284.670195 194.464903 
L 287.887507 197.706707 
L 289.47439 199.319047 
L 290.565841 200.424108 
L 291.434988 201.299765 
L 292.028533 201.90319 
L 292.424616 202.30518 
L 292.870466 202.769729 
L 293.008369 202.915582 
L 293.047595 202.957381 
L 293.041635 202.962315 
" clip-path="url(#pe75606d8b4)" style="fill: none; stroke: #e6e6e6; stroke-width: 1.5; stroke-linecap: square"/>
   </g>
   <g id="line2d_12">
    <path d="M 263.541405 204.56457 
L 263.345344 204.611573 
L 263.105703 204.640119 
L 262.067086 204.66191 
L 260.125816 204.241182 
L 258.528115 203.838084 
L 256.275224 202.769729 
L 253.329834 200.823704 
L 243.491661 193.608572 
L 231.229453 184.371475 
L 213.245639 166.764444 
L 196.299722 148.461308 
L 179.316046 123.647575 
L 150.726633 86.177694 
L 191.665073 112.558412 
L 206.673863 121.38123 
L 229.510761 141.129503 
L 247.722371 158.048821 
L 256.275224 166.174486 
L 262.841163 172.608086 
L 268.000625 177.718542 
L 272.446092 182.187098 
L 276.334337 186.083728 
L 279.201174 188.992641 
L 283.332909 193.13443 
L 285.852578 195.687345 
L 287.899572 197.74468 
L 289.627456 199.497889 
L 290.868266 200.742234 
L 291.639165 201.532181 
L 292.327688 202.216251 
L 292.870466 202.769729 
L 293.078583 202.989805 
L 293.141477 203.054878 
L 293.166322 203.088956 
" clip-path="url(#pe75606d8b4)" style="fill: none; stroke: #e6e6e6; stroke-width: 1.5; stroke-linecap: square"/>
   </g>
   <g id="line2d_13">
    <path d="M 261.773752 204.59041 
L 261.341751 204.565795 
L 260.863152 204.420066 
L 260.355617 204.559244 
L 258.854527 204.326351 
L 257.735495 203.620735 
L 256.275224 202.769729 
L 254.574508 201.337494 
L 249.850815 197.228039 
L 244.282334 191.615802 
L 235.451748 182.231514 
L 226.819492 170.023335 
L 208.53302 148.175733 
L 221.438817 149.17091 
L 215.246633 135.566238 
L 232.528713 147.299611 
L 238.926142 150.59555 
L 249.772042 160.25909 
L 256.275224 166.174486 
L 262.642994 172.369704 
L 267.688825 177.373084 
L 271.4308 181.15599 
L 275.710931 185.447492 
L 278.305979 188.098792 
L 282.320046 192.104114 
L 284.250149 194.065063 
L 286.981192 196.817524 
L 288.907977 198.757256 
L 290.346681 200.21443 
L 291.362933 201.241013 
L 292.132074 202.013505 
L 292.870466 202.769729 
L 293.153151 203.059119 
L 293.223939 203.134704 
L 293.227837 203.137998 
" clip-path="url(#pe75606d8b4)" style="fill: none; stroke: #e6e6e6; stroke-width: 1.5; stroke-linecap: square"/>
   </g>
   <g id="line2d_14">
    <path d="M 264.589363 204.458529 
L 264.284686 204.253903 
L 263.522799 204.478085 
L 262.115617 204.986805 
L 260.756431 204.452076 
L 259.014198 203.734552 
L 256.275224 202.769729 
L 252.493621 200.095281 
L 245.457378 194.94887 
L 238.208092 187.328517 
L 220.345769 172.831774 
L 204.442342 153.579307 
L 189.696694 130.874092 
L 161.161626 96.471134 
L 200.966508 122.266742 
L 213.71775 128.473897 
L 234.707425 146.187526 
L 244.201117 154.640773 
L 256.275224 166.174486 
L 263.98048 173.69836 
L 269.525791 179.220544 
L 273.760813 183.489139 
L 277.946855 187.688701 
L 281.229286 190.999618 
L 284.054824 193.855583 
L 286.442101 196.26982 
L 288.413152 198.251165 
L 289.889025 199.750464 
L 291.046625 200.917234 
L 291.795264 201.676848 
L 292.340785 202.222818 
L 292.870466 202.769729 
L 293.108529 203.005198 
L 293.134574 203.040678 
L 293.14391 203.046198 
" clip-path="url(#pe75606d8b4)" style="fill: none; stroke: #e6e6e6; stroke-width: 1.5; stroke-linecap: square"/>
   </g>
   <g id="line2d_15">
    <path d="M 261.882391 204.283263 
L 261.315969 204.068846 
L 261.148754 204.161865 
L 260.672661 204.320144 
L 258.922017 204.216423 
L 257.804438 203.588639 
L 256.275224 202.769729 
L 253.565378 200.92753 
L 245.493365 194.954136 
L 239.765578 189.469126 
L 230.5887 180.043736 
L 210.377716 160.613157 
L 195.728635 140.020225 
L 193.816934 126.331774 
L 192.437216 116.252828 
L 217.409889 132.966533 
L 232.900281 144.851946 
L 245.494872 155.992245 
L 256.275224 166.174486 
L 262.202706 171.884861 
L 268.328854 177.980626 
L 272.643838 182.291788 
L 276.444809 186.136366 
L 279.922637 189.645543 
L 283.017357 192.788426 
L 285.689335 195.484297 
L 287.815703 197.633913 
L 289.447325 199.282126 
L 290.798703 200.645434 
L 291.618029 201.485835 
L 292.256241 202.130606 
L 292.870466 202.769729 
L 293.113426 203.021906 
L 293.173997 203.088308 
L 293.182229 203.098528 
" clip-path="url(#pe75606d8b4)" style="fill: none; stroke: #e6e6e6; stroke-width: 1.5; stroke-linecap: square"/>
   </g>
   <g id="line2d_16">
    <path d="M 261.007483 204.32455 
L 260.74424 204.411687 
L 260.836464 204.391342 
L 260.175552 204.624498 
L 259.067841 204.342954 
L 257.918365 203.783993 
L 256.275224 202.769729 
L 253.051116 200.596888 
L 246.295496 194.914766 
L 239.542473 188.406219 
L 230.826101 178.841898 
L 216.391603 163.669605 
L 205.581295 146.29387 
L 202.81107 134.112718 
L 202.940444 125.465843 
L 220.53973 135.980472 
L 234.533901 146.546975 
L 246.787073 157.317416 
L 256.275224 166.174486 
L 262.819535 172.508864 
L 268.570915 178.243983 
L 272.960647 182.612924 
L 276.665637 186.365442 
L 280.209821 189.96734 
L 283.183959 192.959195 
L 285.876441 195.664736 
L 287.803711 197.635017 
L 289.46764 199.322318 
L 290.724112 200.596669 
L 291.574211 201.457459 
L 292.208974 202.097766 
L 292.870466 202.769729 
L 293.117219 203.02354 
L 293.157969 203.069793 
L 293.132803 203.054292 
" clip-path="url(#pe75606d8b4)" style="fill: none; stroke: #e6e6e6; stroke-width: 1.5; stroke-linecap: square"/>
   </g>
   <g id="line2d_17">
    <path d="M 261.802777 204.691182 
L 261.722745 204.556824 
L 261.616538 204.706782 
L 260.50304 204.648714 
L 259.388877 204.634921 
L 257.952373 203.557287 
L 256.275224 202.769729 
L 253.144536 200.690898 
L 246.353079 195.363455 
L 234.870356 187.25273 
L 228.886251 179.982831 
L 201.852611 155.140909 
L 196.804817 141.423651 
L 193.899425 126.399312 
L 200.855848 123.026602 
L 216.645427 131.778853 
L 232.465882 144.32673 
L 246.365657 156.772538 
L 256.275224 166.174486 
L 264.249514 173.982105 
L 269.182652 178.900422 
L 274.158561 183.87022 
L 277.61511 187.35512 
L 281.081701 190.86602 
L 283.718913 193.52821 
L 286.531546 196.357659 
L 288.345264 198.184317 
L 289.861019 199.724174 
L 291.027763 200.889948 
L 291.853829 201.721184 
L 292.352476 202.229662 
L 292.870466 202.769729 
L 293.066572 202.976555 
L 293.104548 203.021057 
L 293.091247 203.018479 
" clip-path="url(#pe75606d8b4)" style="fill: none; stroke: #e6e6e6; stroke-width: 1.5; stroke-linecap: square"/>
   </g>
   <g id="line2d_18">
    <path d="M 264.063218 205.052639 
L 263.886993 205.087219 
L 263.426333 205.129328 
L 262.895012 204.958508 
L 260.647542 204.877656 
L 259.087167 204.035858 
L 256.275224 202.769729 
L 252.384545 199.684377 
L 241.476783 190.85609 
L 224.801296 175.019296 
L 222.049293 169.81511 
L 208.144671 151.931388 
L 191.909844 129.225313 
L 183.059616 110.559192 
L 213.000523 131.453503 
L 216.009713 129.657342 
L 236.201476 147.569955 
L 247.577868 157.870256 
L 256.275224 166.174486 
L 262.958291 172.72997 
L 268.860358 178.624227 
L 273.12703 182.877496 
L 277.048387 186.816897 
L 280.619922 190.41623 
L 283.366827 193.172382 
L 286.175489 196.015123 
L 288.002812 197.833642 
L 289.632523 199.483742 
L 290.868445 200.72957 
L 291.715438 201.591295 
L 292.288647 202.163742 
L 292.870466 202.769729 
L 293.102881 203.008244 
L 293.150526 203.059911 
L 293.112887 203.032747 
" clip-path="url(#pe75606d8b4)" style="fill: none; stroke: #e6e6e6; stroke-width: 1.5; stroke-linecap: square"/>
   </g>
   <g id="line2d_19">
    <path d="M 261.620927 204.559541 
L 261.628 204.576516 
L 261.340423 204.612103 
L 260.462041 204.615618 
L 259.199458 204.513691 
L 257.96249 204.015629 
L 256.275224 202.769729 
L 253.74353 200.963833 
L 247.784886 196.150227 
L 242.12572 190.958046 
L 232.330687 180.326916 
L 220.141865 165.737317 
L 207.207863 147.66767 
L 198.728301 130.37186 
L 204.128344 125.670115 
L 218.724908 133.875555 
L 236.168468 147.998543 
L 247.834656 158.296009 
L 256.275224 166.174486 
L 263.07501 172.782343 
L 268.377108 178.042878 
L 272.418527 182.069512 
L 276.525224 186.231822 
L 280.004194 189.752579 
L 283.088238 192.870874 
L 285.645218 195.449675 
L 287.749128 197.579299 
L 289.444294 199.291424 
L 290.78391 200.645657 
L 291.646005 201.520466 
L 292.236256 202.120007 
L 292.870466 202.769729 
L 293.116368 203.021271 
L 293.177322 203.085347 
L 293.163087 203.074718 
" clip-path="url(#pe75606d8b4)" style="fill: none; stroke: #e6e6e6; stroke-width: 1.5; stroke-linecap: square"/>
   </g>
   <g id="line2d_20">
    <path d="M 264.089006 204.743618 
L 263.658738 204.957779 
L 263.73887 204.950137 
L 262.247929 204.83708 
L 260.807068 204.63266 
L 258.827849 203.996851 
L 256.275224 202.769729 
L 253.157692 200.693746 
L 244.412848 194.680646 
L 240.274839 191.788641 
L 226.174781 177.442825 
L 196.004301 150.790442 
L 188.967524 133.497835 
L 184.60167 117.28486 
L 191.753205 113.93255 
L 221.762001 136.273389 
L 233.920585 145.557186 
L 248.527441 158.902766 
L 256.275224 166.174486 
L 263.59528 173.362036 
L 269.626598 179.357707 
L 273.196673 182.901686 
L 277.922511 187.694356 
L 281.188265 190.984586 
L 284.127739 193.958853 
L 286.480779 196.320468 
L 288.333174 198.185988 
L 289.833663 199.701437 
L 291.034324 200.904088 
L 291.823029 201.698957 
L 292.313075 202.200301 
L 292.870466 202.769729 
L 293.083227 202.987887 
L 293.148828 203.051808 
L 293.13222 203.044651 
" clip-path="url(#pe75606d8b4)" style="fill: none; stroke: #e6e6e6; stroke-width: 1.5; stroke-linecap: square"/>
   </g>
   <g id="line2d_21">
    <path d="M 264.055471 204.290694 
L 263.8839 204.473758 
L 263.167892 204.379669 
L 262.444063 204.649783 
L 260.582147 204.137236 
L 258.651106 202.85104 
L 256.275224 202.769729 
L 253.170427 200.803721 
L 243.929354 193.728122 
L 234.061869 185.384781 
L 216.073167 166.758102 
L 196.412124 147.378635 
L 195.385139 134.932786 
L 199.879871 130.316622 
L 212.593763 131.93585 
L 220.904784 135.814853 
L 237.21284 148.781608 
L 248.334033 158.740296 
L 256.275224 166.174486 
L 263.993311 173.795638 
L 270.033423 179.812284 
L 273.961924 183.703204 
L 277.723587 187.488322 
L 280.498412 190.267611 
L 283.962905 193.802613 
L 285.927537 195.753104 
L 288.242753 198.102751 
L 289.769871 199.64207 
L 290.967113 200.850123 
L 291.765611 201.652672 
L 292.316295 202.200735 
L 292.870466 202.769729 
L 293.097254 203.001615 
L 293.144305 203.053227 
L 293.099159 203.024708 
" clip-path="url(#pe75606d8b4)" style="fill: none; stroke: #e6e6e6; stroke-width: 1.5; stroke-linecap: square"/>
   </g>
   <g id="line2d_22">
    <path d="M 262.622726 204.878059 
L 262.522643 204.901292 
L 263.042484 204.255587 
L 260.943716 204.731468 
L 260.073979 204.414268 
L 258.42505 203.482359 
L 256.275224 202.769729 
L 254.290589 200.961456 
L 248.912902 196.31493 
L 242.874646 189.800323 
L 233.048947 178.274664 
L 228.974591 169.569815 
L 214.927358 151.03458 
L 222.316252 147.293228 
L 216.729988 135.7926 
L 230.829373 144.756177 
L 238.54773 150.035063 
L 249.465433 159.883838 
L 256.275224 166.174486 
L 263.173689 172.960719 
L 267.886048 177.607421 
L 272.041449 181.775423 
L 276.096521 185.844544 
L 279.432404 189.193874 
L 282.483912 192.267888 
L 285.370899 195.211587 
L 287.55536 197.395739 
L 289.321564 199.18252 
L 290.644679 200.513307 
L 291.550471 201.438603 
L 292.227672 202.102757 
L 292.870466 202.769729 
L 293.055042 202.960077 
L 293.106074 203.019345 
L 293.061589 202.988183 
" clip-path="url(#pe75606d8b4)" style="fill: none; stroke: #e6e6e6; stroke-width: 1.5; stroke-linecap: square"/>
   </g>
   <g id="line2d_23">
    <path d="M 263.040094 204.889911 
L 263.04243 204.879829 
L 262.474689 204.936992 
L 261.493886 204.803199 
L 260.243192 204.55075 
L 258.410168 203.868037 
L 256.275224 202.769729 
L 253.280119 200.708239 
L 246.051146 194.697056 
L 238.729545 188.102752 
L 227.520358 176.471079 
L 214.766613 160.680338 
L 209.272068 146.183882 
L 197.721334 126.905762 
L 216.434114 135.788028 
L 223.25223 137.540084 
L 237.372406 148.769789 
L 249.408094 159.804831 
L 256.275224 166.174486 
L 262.809722 172.509742 
L 268.103632 177.774933 
L 271.98302 181.658217 
L 275.518131 185.210897 
L 279.658174 189.414949 
L 282.464878 192.236544 
L 285.309439 195.107724 
L 287.556609 197.37804 
L 289.319481 199.171652 
L 290.733361 200.588253 
L 291.58836 201.466795 
L 292.273682 202.150716 
L 292.870466 202.769729 
L 293.064788 202.974041 
L 293.137256 203.044775 
L 293.108356 203.02862 
" clip-path="url(#pe75606d8b4)" style="fill: none; stroke: #e6e6e6; stroke-width: 1.5; stroke-linecap: square"/>
   </g>
   <g id="line2d_24">
    <path d="M 263.521337 205.072781 
L 263.123214 205.08184 
L 262.589475 205.02981 
L 261.730078 204.906313 
L 260.263567 204.574445 
L 258.395171 203.901114 
L 256.275224 202.769729 
L 252.009111 199.879013 
L 242.589789 192.23574 
L 233.220067 183.94425 
L 216.390334 169.200092 
L 206.111144 153.162181 
L 182.71935 124.560481 
L 185.399943 114.505876 
L 202.813219 122.101719 
L 218.053909 131.966716 
L 235.747327 147.045961 
L 246.910348 157.214138 
L 256.275224 166.174486 
L 263.010063 172.765186 
L 268.360272 178.090201 
L 272.818126 182.56117 
L 276.925041 186.693652 
L 280.231084 190.019507 
L 283.300246 193.110285 
L 285.901045 195.732087 
L 287.941006 197.78415 
L 289.57867 199.435246 
L 290.832771 200.702818 
L 291.673661 201.548634 
L 292.30161 202.180323 
L 292.870466 202.769729 
L 293.149169 203.048531 
L 293.171135 203.079335 
L 293.149529 203.063558 
" clip-path="url(#pe75606d8b4)" style="fill: none; stroke: #e6e6e6; stroke-width: 1.5; stroke-linecap: square"/>
   </g>
   <g id="line2d_25">
    <path d="M 264.841919 205.004183 
L 265.386616 205.845426 
L 264.979336 205.79056 
L 263.733073 205.091148 
L 262.718208 205.760526 
L 259.328294 204.270607 
L 256.275224 202.769729 
L 252.243323 200.665501 
L 240.783603 192.744565 
L 231.232345 185.225192 
L 215.349813 171.915288 
L 189.589652 145.955768 
L 156.80643 110.740013 
L 154.20457 92.893196 
L 172.564518 96.491452 
L 200.508937 116.455642 
L 229.709111 141.552388 
L 243.903684 154.285265 
L 256.275224 166.174486 
L 262.677864 172.3651 
L 270.000119 179.734143 
L 274.540651 184.261892 
L 278.273131 188.017805 
L 281.534008 191.297983 
L 284.304104 194.111669 
L 286.710378 196.532985 
L 288.54572 198.382015 
L 289.99254 199.849038 
L 291.143557 201.005338 
L 291.840953 201.713034 
L 292.39395 202.26407 
L 292.870466 202.769729 
L 293.064266 202.969446 
L 293.115835 203.021777 
L 293.10066 203.011986 
" clip-path="url(#pe75606d8b4)" style="fill: none; stroke: #e6e6e6; stroke-width: 1.5; stroke-linecap: square"/>
   </g>
   <g id="line2d_26">
    <path d="M 266.072084 205.01937 
L 265.009493 204.958602 
L 263.952536 205.389703 
L 263.045806 205.179125 
L 260.2604 204.600592 
L 259.513831 203.904488 
L 256.275224 202.769729 
L 250.039692 198.46831 
L 240.936223 192.314841 
L 232.454086 184.546701 
L 219.131069 171.75935 
L 204.764939 154.066207 
L 185.898876 128.970073 
L 182.734639 114.463139 
L 199.569482 120.187706 
L 217.60135 132.071994 
L 236.199746 147.749282 
L 246.436837 156.736153 
L 256.275224 166.174486 
L 262.326851 172.115796 
L 268.539364 178.230368 
L 272.8612 182.520689 
L 277.02858 186.750869 
L 280.359101 190.123225 
L 283.611909 193.428673 
L 286.051996 195.857492 
L 288.121379 197.949318 
L 289.709213 199.55577 
L 290.944986 200.793094 
L 291.704894 201.573115 
L 292.321419 202.189381 
L 292.870466 202.769729 
L 293.096145 202.997556 
L 293.154225 203.064646 
L 293.159901 203.076423 
" clip-path="url(#pe75606d8b4)" style="fill: none; stroke: #e6e6e6; stroke-width: 1.5; stroke-linecap: square"/>
   </g>
   <g id="line2d_27">
    <path d="M 263.807574 204.184319 
L 264.161314 204.57055 
L 263.791856 204.823202 
L 261.944095 204.615198 
L 260.99695 204.697122 
L 258.919082 203.87916 
L 256.275224 202.769729 
L 251.194993 199.766619 
L 240.572406 192.811854 
L 231.703965 185.596501 
L 217.549623 174.020219 
L 193.464362 149.807952 
L 135.71217 98.750236 
L 168.890238 106.876557 
L 168.364809 94.328142 
L 209.875139 125.766172 
L 228.698408 140.639368 
L 245.953294 156.37226 
L 256.275224 166.174486 
L 263.612267 173.323205 
L 269.508359 179.19201 
L 274.021146 183.732525 
L 277.8628 187.591387 
L 281.430898 191.20701 
L 284.10833 193.907663 
L 286.572128 196.39984 
L 288.478089 198.325983 
L 289.879495 199.743761 
L 290.987264 200.860547 
L 291.759672 201.643735 
L 292.282719 202.173287 
L 292.870466 202.769729 
L 293.087244 202.991725 
L 293.143945 203.051758 
L 293.134683 203.043192 
" clip-path="url(#pe75606d8b4)" style="fill: none; stroke: #e6e6e6; stroke-width: 1.5; stroke-linecap: square"/>
   </g>
   <g id="line2d_28">
    <path d="M 264.402538 205.433765 
L 263.819772 205.294021 
L 263.75031 206.048499 
L 263.092253 205.614988 
L 260.643711 204.973586 
L 259.304183 204.565487 
L 256.275224 202.769729 
L 251.152548 200.066393 
L 240.145706 191.331287 
L 230.252691 182.1974 
L 222.573384 174.236892 
L 202.640491 149.753662 
L 187.119354 127.355833 
L 192.172569 120.207504 
L 210.659199 129.10361 
L 223.228961 136.891186 
L 236.885685 148.121772 
L 246.63108 156.904695 
L 256.275224 166.174486 
L 262.912022 172.690977 
L 268.750035 178.495317 
L 273.488237 183.2395 
L 277.285726 187.064343 
L 280.355208 190.155552 
L 283.549178 193.373749 
L 285.890673 195.736105 
L 288.059457 197.922495 
L 289.600832 199.468336 
L 290.750769 200.633238 
L 291.631147 201.519325 
L 292.219786 202.115151 
L 292.870466 202.769729 
L 293.102891 203.005242 
L 293.15577 203.060181 
L 293.124877 203.033504 
" clip-path="url(#pe75606d8b4)" style="fill: none; stroke: #e6e6e6; stroke-width: 1.5; stroke-linecap: square"/>
   </g>
   <g id="line2d_29">
    <path d="M 263.831907 203.987545 
L 263.716258 204.333556 
L 262.465309 204.237818 
L 262.628681 204.880356 
L 259.889154 203.850299 
L 259.325015 203.554978 
L 256.275224 202.769729 
L 253.417984 200.404323 
L 247.435929 195.824439 
L 238.699672 189.144457 
L 227.98812 179.185358 
L 214.305992 163.197989 
L 200.478845 143.81429 
L 183.747333 123.483407 
L 207.149316 130.235257 
L 215.637428 131.136702 
L 239.176127 151.732636 
L 246.077283 156.539086 
L 256.275224 166.174486 
L 262.246294 171.91202 
L 269.709275 179.414964 
L 274.703627 184.419613 
L 277.714554 187.45598 
L 280.746952 190.519488 
L 283.975794 193.777415 
L 286.317251 196.146965 
L 288.116591 197.961304 
L 289.611884 199.471892 
L 290.801193 200.672476 
L 291.60321 201.486868 
L 292.2234 202.111168 
L 292.870466 202.769729 
L 293.109539 203.009818 
L 293.200163 203.110032 
L 293.162909 203.075307 
" clip-path="url(#pe75606d8b4)" style="fill: none; stroke: #e6e6e6; stroke-width: 1.5; stroke-linecap: square"/>
   </g>
   <g id="line2d_30">
    <path d="M 264.817369 204.524809 
L 264.340748 204.451089 
L 264.028679 204.984352 
L 263.350711 205.258209 
L 260.391893 204.559781 
L 259.876103 204.454429 
L 256.275224 202.769729 
L 250.85541 200.342629 
L 238.775294 191.539395 
L 229.323311 184.235422 
L 215.296715 171.483784 
L 186.603623 143.644136 
L 146.421969 103.120441 
L 148.042687 87.796827 
L 180.093439 103.54848 
L 205.886674 121.540371 
L 230.773788 142.497789 
L 246.108287 156.490446 
L 256.275224 166.174486 
L 263.556612 173.273892 
L 269.377067 179.098015 
L 274.256955 183.990752 
L 277.859459 187.611081 
L 281.364124 191.147247 
L 284.43302 194.257245 
L 286.592215 196.432375 
L 288.540809 198.401193 
L 289.938761 199.810806 
L 291.024201 200.905584 
L 291.768029 201.656525 
L 292.309491 202.203124 
L 292.870466 202.769729 
L 293.079632 202.982171 
L 293.150227 203.054863 
L 293.138651 203.043814 
" clip-path="url(#pe75606d8b4)" style="fill: none; stroke: #e6e6e6; stroke-width: 1.5; stroke-linecap: square"/>
   </g>
   <g id="line2d_31">
    <path d="M 264.529379 204.511126 
L 264.20216 204.924753 
L 264.051359 205.450313 
L 262.097939 205.668322 
L 261.502877 205.502745 
L 258.61957 204.173377 
L 256.275224 202.769729 
L 250.032967 198.974006 
L 240.225008 191.667735 
L 226.124913 180.661748 
L 210.556164 166.621301 
L 185.046983 139.145465 
L 163.615743 111.382103 
L 164.726216 98.54943 
L 190.822011 111.983284 
L 216.116998 130.760915 
L 232.545362 144.116108 
L 245.588142 155.875213 
L 256.275224 166.174486 
L 263.782766 173.539391 
L 269.249514 178.994263 
L 274.046571 183.809193 
L 277.697273 187.46331 
L 281.653014 191.469534 
L 283.925833 193.742953 
L 286.677922 196.524748 
L 288.345258 198.205206 
L 289.824408 199.697702 
L 290.85176 200.730024 
L 291.670852 201.55609 
L 292.269199 202.160039 
L 292.870466 202.769729 
L 293.103549 203.009559 
L 293.162969 203.067929 
L 293.164507 203.065319 
" clip-path="url(#pe75606d8b4)" style="fill: none; stroke: #e6e6e6; stroke-width: 1.5; stroke-linecap: square"/>
   </g>
   <g id="line2d_32">
    <path d="M 261.817441 205.234678 
L 261.797394 205.092801 
L 260.988127 204.507574 
L 260.835411 204.493393 
L 259.381103 204.03679 
L 257.923269 203.562934 
L 256.275224 202.769729 
L 253.72197 200.76382 
L 247.948457 195.880577 
L 242.706354 191.139033 
L 235.53731 182.976209 
L 227.116958 172.053164 
L 218.256339 157.343392 
L 211.46088 143.518301 
L 218.854438 140.747801 
L 224.617138 140.691746 
L 239.920589 152.1275 
L 247.104793 157.726563 
L 256.275224 166.174486 
L 262.062916 171.747207 
L 268.044669 177.66552 
L 271.970532 181.602914 
L 275.833776 185.510325 
L 279.373597 189.092468 
L 282.613005 192.369393 
L 285.464854 195.261979 
L 287.645006 197.472303 
L 289.322241 199.176209 
L 290.652426 200.52447 
L 291.588567 201.469056 
L 292.181761 202.074758 
L 292.870466 202.769729 
L 293.115615 203.023631 
L 293.153516 203.07183 
L 293.168094 203.077771 
" clip-path="url(#pe75606d8b4)" style="fill: none; stroke: #e6e6e6; stroke-width: 1.5; stroke-linecap: square"/>
   </g>
   <g id="line2d_33">
    <path d="M 262.094655 204.993231 
L 262.791554 205.317201 
L 262.90033 205.305413 
L 259.920213 204.3722 
L 261.630522 205.478254 
L 257.895961 203.628853 
L 256.275224 202.769729 
L 252.339807 199.847324 
L 246.590602 194.785261 
L 240.497702 189.287111 
L 231.622991 180.034351 
L 215.745426 161.862821 
L 210.131703 148.242879 
L 202.245188 132.50595 
L 215.706129 136.300421 
L 220.721075 135.556176 
L 238.846556 150.614094 
L 247.850752 158.322863 
L 256.275224 166.174486 
L 264.062958 173.855071 
L 268.673658 178.407459 
L 273.377339 183.111564 
L 277.33439 187.10014 
L 280.538741 190.311314 
L 283.215758 193.021537 
L 286.170573 195.994548 
L 288.047436 197.894802 
L 289.585618 199.450764 
L 290.770216 200.644615 
L 291.637553 201.522919 
L 292.223732 202.110227 
L 292.870466 202.769729 
L 293.121182 203.023493 
L 293.170549 203.077512 
L 293.157848 203.064871 
" clip-path="url(#pe75606d8b4)" style="fill: none; stroke: #e6e6e6; stroke-width: 1.5; stroke-linecap: square"/>
   </g>
   <g id="line2d_34">
    <path d="M 265.201812 204.721165 
L 264.860529 204.99103 
L 264.578566 205.225428 
L 263.448664 205.065722 
L 261.627256 205.013218 
L 258.81735 203.931636 
L 256.275224 202.769729 
L 250.238976 199.344533 
L 237.141166 190.525901 
L 225.150702 181.321574 
L 202.987949 162.981928 
L 168.622682 130.381102 
L 112.615151 74.787929 
L 120.627509 62.895334 
L 159.451616 83.703704 
L 195.301884 110.794513 
L 228.37257 139.975899 
L 244.820538 155.14243 
L 256.275224 166.174486 
L 263.703762 173.477681 
L 270.211018 179.948618 
L 274.810623 184.570188 
L 278.645528 188.421368 
L 282.099796 191.905991 
L 284.734008 194.559431 
L 286.980659 196.829233 
L 288.733026 198.598135 
L 290.039156 199.914409 
L 291.080335 200.963908 
L 291.808955 201.698557 
L 292.322425 202.215327 
L 292.870466 202.769729 
L 293.090422 202.993207 
L 293.153808 203.05661 
L 293.134424 203.040131 
" clip-path="url(#pe75606d8b4)" style="fill: none; stroke: #e6e6e6; stroke-width: 1.5; stroke-linecap: square"/>
   </g>
   <g id="line2d_35">
    <path d="M 263.746558 205.336136 
L 263.121614 204.704231 
L 262.746989 204.968304 
L 261.494505 205.1033 
L 260.108829 204.209909 
L 258.325005 203.899926 
L 256.275224 202.769729 
L 252.245801 200.156902 
L 242.462898 192.619792 
L 236.547996 187.199025 
L 226.335331 177.854722 
L 210.046869 160.76852 
L 196.064524 142.815631 
L 180.907317 116.855956 
L 178.550632 104.153498 
L 216.205838 132.032449 
L 234.620715 146.562928 
L 247.065276 157.507295 
L 256.275224 166.174486 
L 263.911324 173.644298 
L 269.540186 179.237874 
L 274.185295 183.898676 
L 277.827904 187.573531 
L 281.202138 190.978426 
L 284.07097 193.872801 
L 286.495482 196.325119 
L 288.242479 198.08677 
L 289.691188 199.553759 
L 290.859295 200.733953 
L 291.658049 201.544149 
L 292.247233 202.139004 
L 292.870466 202.769729 
L 293.084157 202.992325 
L 293.1648 203.071163 
L 293.146695 203.055901 
" clip-path="url(#pe75606d8b4)" style="fill: none; stroke: #e6e6e6; stroke-width: 1.5; stroke-linecap: square"/>
   </g>
   <g id="line2d_36">
    <path d="M 262.764324 205.667504 
L 261.85083 205.17023 
L 261.445824 204.737852 
L 259.939973 204.61433 
L 259.836741 204.498865 
L 258.001589 203.822449 
L 256.275224 202.769729 
L 253.021188 200.406247 
L 247.447578 194.816984 
L 242.840663 190.191105 
L 235.905129 182.109206 
L 226.989541 169.750225 
L 216.319427 154.740746 
L 213.679216 142.438154 
L 214.319521 136.288709 
L 228.973384 144.004388 
L 239.232408 151.147455 
L 247.496547 157.974824 
L 256.275224 166.174486 
L 262.507224 172.188352 
L 268.143245 177.770942 
L 272.431761 182.082675 
L 276.198586 185.874565 
L 279.4807 189.193499 
L 282.737375 192.50727 
L 285.495008 195.303048 
L 287.603244 197.428528 
L 289.230278 199.074404 
L 290.575363 200.439097 
L 291.492517 201.368408 
L 292.177212 202.061346 
L 292.870466 202.769729 
L 293.15422 203.056328 
L 293.193434 203.103155 
L 293.179963 203.096707 
" clip-path="url(#pe75606d8b4)" style="fill: none; stroke: #e6e6e6; stroke-width: 1.5; stroke-linecap: square"/>
   </g>
   <g id="line2d_37">
    <path d="M 263.682441 204.825583 
L 261.669709 204.528808 
L 261.524103 205.119768 
L 258.519481 204.229163 
L 256.275224 202.769729 
L 251.04704 199.398378 
L 238.378623 191.103551 
L 226.623554 181.829336 
L 205.346704 163.088018 
L 171.681929 130.784888 
L 112.904996 75.819592 
L 135.815744 73.87477 
L 181.730732 103.492628 
L 206.990564 121.726946 
L 230.160856 141.728679 
L 244.424915 154.843707 
L 256.275224 166.174486 
L 263.244494 173.030216 
L 269.831917 179.606175 
L 274.47887 184.254015 
L 278.342026 188.133554 
L 281.28375 191.094321 
L 284.191537 194.024543 
L 286.48735 196.332271 
L 288.578075 198.441815 
L 289.942306 199.809839 
L 290.974233 200.859119 
L 291.755958 201.639839 
L 292.248789 202.143633 
L 292.870466 202.769729 
L 293.147851 203.047341 
L 293.207557 203.113076 
L 293.192868 203.099782 
" clip-path="url(#pe75606d8b4)" style="fill: none; stroke: #e6e6e6; stroke-width: 1.5; stroke-linecap: square"/>
   </g>
   <g id="line2d_38">
    <path d="M 263.951431 205.546344 
L 263.058189 205.680183 
L 262.731926 205.478036 
L 261.457365 205.110857 
L 260.38306 205.199854 
L 258.745098 204.186553 
L 256.275224 202.769729 
L 250.526758 199.858707 
L 239.348483 192.127623 
L 228.918145 182.515757 
L 212.154263 166.768874 
L 182.181731 138.744498 
L 157.566988 105.78213 
L 157.623606 92.522809 
L 182.745754 104.125418 
L 208.373932 123.043779 
L 229.818744 141.310845 
L 246.295244 156.632172 
L 256.275224 166.174486 
L 263.636662 173.420338 
L 269.27476 179.024842 
L 274.384729 184.151839 
L 278.000691 187.784167 
L 281.821028 191.634378 
L 284.012889 193.841516 
L 286.35719 196.201162 
L 288.38181 198.242386 
L 289.879249 199.741439 
L 290.960021 200.833087 
L 291.753434 201.638151 
L 292.299815 202.186654 
L 292.870466 202.769729 
L 293.0848 202.988457 
L 293.170832 203.07106 
L 293.149999 203.051972 
" clip-path="url(#pe75606d8b4)" style="fill: none; stroke: #e6e6e6; stroke-width: 1.5; stroke-linecap: square"/>
   </g>
   <g id="line2d_39">
    <path d="M 262.527579 205.745241 
L 261.881568 205.25917 
L 261.93206 205.348997 
L 260.861188 205.197656 
L 260.078537 205.35533 
L 258.404301 203.587236 
L 256.275224 202.769729 
L 252.554884 199.950158 
L 246.495671 194.284249 
L 241.948636 189.365727 
L 234.635425 181.027857 
L 223.44417 167.339883 
L 214.748567 152.002268 
L 207.643969 137.000072 
L 217.728049 137.573283 
L 228.23412 143.111243 
L 237.888899 149.680805 
L 248.488267 158.920628 
L 256.275224 166.174486 
L 262.094869 171.813158 
L 267.52205 177.213407 
L 271.553103 181.227104 
L 275.429773 185.136776 
L 278.802795 188.547434 
L 282.201365 191.993505 
L 284.784697 194.592149 
L 287.312921 197.150922 
L 289.132717 198.989918 
L 290.517753 200.388768 
L 291.477473 201.362891 
L 292.17621 202.065057 
L 292.870466 202.769729 
L 293.14683 203.050651 
L 293.178749 203.091522 
L 293.199694 203.105775 
" clip-path="url(#pe75606d8b4)" style="fill: none; stroke: #e6e6e6; stroke-width: 1.5; stroke-linecap: square"/>
   </g>
   <g id="line2d_40">
    <path d="M 263.408831 205.980075 
L 264.843785 205.724324 
L 263.556508 205.174135 
L 263.365094 205.110563 
L 261.750521 204.645557 
L 259.523575 204.260683 
L 256.275224 202.769729 
L 249.922919 198.052649 
L 236.335926 189.578409 
L 225.390851 179.76473 
L 206.124986 162.548729 
L 171.846639 129.090365 
L 148.634325 97.002577 
L 165.568488 97.386148 
L 175.409836 96.589774 
L 213.615539 127.610226 
L 231.573487 143.002087 
L 245.834965 156.089887 
L 256.275224 166.174486 
L 264.660499 174.468877 
L 269.969004 179.734852 
L 274.980979 184.763827 
L 278.738062 188.538299 
L 281.863326 191.687295 
L 284.717926 194.56218 
L 286.903838 196.757595 
L 288.768672 198.634356 
L 290.067676 199.948387 
L 291.096324 200.979697 
L 291.818624 201.707047 
L 292.325499 202.217339 
L 292.870466 202.769729 
L 293.072821 202.976352 
L 293.129531 203.033787 
L 293.091524 203.010359 
" clip-path="url(#pe75606d8b4)" style="fill: none; stroke: #e6e6e6; stroke-width: 1.5; stroke-linecap: square"/>
   </g>
   <g id="line2d_41">
    <path d="M 263.42811 204.419771 
L 262.88826 204.648359 
L 262.26911 204.393581 
L 260.393703 204.487209 
L 260.465321 204.415036 
L 257.633267 203.625552 
L 256.275224 202.769729 
L 252.233997 199.990144 
L 244.711571 193.68942 
L 238.064223 187.491302 
L 228.668373 177.867862 
L 217.679496 163.238231 
L 200.030619 141.063867 
L 198.612983 129.350196 
L 207.051425 127.559989 
L 225.19694 139.989843 
L 235.38746 147.121556 
L 242.427231 152.953608 
L 256.275224 166.174486 
L 262.534034 172.250642 
L 267.877416 177.571108 
L 271.979153 181.668322 
L 275.957891 185.680565 
L 279.431844 189.184325 
L 282.793319 192.590398 
L 285.59771 195.419014 
L 287.650767 197.493192 
L 289.356049 199.212113 
L 290.679223 200.546251 
L 291.617495 201.494365 
L 292.248937 202.134048 
L 292.870466 202.769729 
L 293.159122 203.058795 
L 293.205488 203.107108 
L 293.1858 203.089845 
" clip-path="url(#pe75606d8b4)" style="fill: none; stroke: #e6e6e6; stroke-width: 1.5; stroke-linecap: square"/>
   </g>
   <g id="line2d_42">
    <path d="M 262.8057 205.030049 
L 262.733523 204.702791 
L 261.921976 204.788567 
L 261.409111 205.14639 
L 260.998414 204.38601 
L 258.107301 203.857729 
L 256.275224 202.769729 
L 252.097435 200.062421 
L 245.715589 195.033165 
L 238.667615 188.694807 
L 229.633792 178.938887 
L 217.043487 164.140984 
L 208.318939 148.543536 
L 200.151062 131.197399 
L 205.455396 127.716737 
L 216.706357 132.139919 
L 236.116838 148.004174 
L 246.297824 156.738991 
L 256.275224 166.174486 
L 262.82252 172.552424 
L 268.619856 178.302103 
L 273.182655 182.856881 
L 276.89896 186.629548 
L 280.173605 189.923574 
L 283.194336 192.980577 
L 285.804778 195.628083 
L 287.929219 197.772445 
L 289.399597 199.260504 
L 290.719905 200.594066 
L 291.531532 201.414315 
L 292.181853 202.070358 
L 292.870466 202.769729 
L 293.151079 203.053846 
L 293.197904 203.108737 
L 293.186516 203.097949 
" clip-path="url(#pe75606d8b4)" style="fill: none; stroke: #e6e6e6; stroke-width: 1.5; stroke-linecap: square"/>
   </g>
   <g id="line2d_43">
    <path d="M 264.630635 204.934807 
L 263.787741 204.757728 
L 263.139109 204.685881 
L 262.545022 205.236101 
L 260.176206 204.010075 
L 258.715991 204.814826 
L 256.275224 202.769729 
M 241.938331 193.085098 
L 235.261219 187.207579 
L 221.923948 175.619361 
L 198.626648 153.51626 
L 179.372776 128.074331 
L 183.043162 118.235542 
L 180.011129 104.59094 
L 210.272059 126.307546 
L 232.674431 144.465712 
L 246.963169 157.374802 
L 256.275224 166.174486 
L 263.798427 173.500701 
L 269.508551 179.182303 
L 273.741563 183.436468 
L 277.821033 187.54676 
L 281.090749 190.8463 
L 283.933338 193.724948 
L 286.282784 196.099368 
L 288.257344 198.102916 
L 289.701023 199.56066 
L 290.822571 200.700542 
L 291.676591 201.562557 
L 292.226415 202.122021 
L 292.870466 202.769729 
L 293.111081 203.018987 
L 293.164647 203.078655 
L 293.155291 203.071119 
" clip-path="url(#pe75606d8b4)" style="fill: none; stroke: #e6e6e6; stroke-width: 1.5; stroke-linecap: square"/>
   </g>
   <g id="line2d_44">
    <path d="M 263.970078 205.217111 
L 263.714124 205.280258 
L 262.955971 205.390618 
L 262.370138 205.253574 
L 260.883388 204.869085 
L 259.079644 204.392383 
L 256.275224 202.769729 
L 251.142109 199.689314 
L 241.569574 191.844147 
L 235.300482 185.355275 
L 222.204478 172.444749 
L 205.737449 153.511101 
L 193.910096 133.905265 
L 192.982062 121.951107 
L 202.370017 122.77356 
L 223.180157 137.250623 
L 236.641631 148.046709 
L 246.790037 157.100099 
L 256.275224 166.174486 
L 263.371 173.1249 
L 269.151378 178.888598 
L 273.76408 183.508329 
L 277.161501 186.923246 
L 280.822784 190.614372 
L 283.674267 193.49339 
L 286.121749 195.961175 
L 288.167479 198.023923 
L 289.651745 199.521915 
L 290.821526 200.70235 
L 291.688976 201.564926 
L 292.237798 202.130154 
L 292.870466 202.769729 
L 293.085688 202.99047 
L 293.141062 203.049908 
L 293.130605 203.042117 
" clip-path="url(#pe75606d8b4)" style="fill: none; stroke: #e6e6e6; stroke-width: 1.5; stroke-linecap: square"/>
   </g>
   <g id="line2d_45">
    <path d="M 265.682124 205.635476 
L 263.858773 204.844477 
L 263.819229 205.354795 
L 263.043426 205.528352 
L 262.847444 205.455894 
L 258.202485 203.659913 
L 256.275224 202.769729 
L 250.412781 199.07545 
L 241.527693 192.110538 
L 232.719248 184.528795 
L 217.333234 170.319167 
L 189.544928 144.230832 
L 174.656327 121.536445 
L 157.925025 94.517406 
L 185.710317 107.788863 
L 202.510002 118.002736 
L 233.731401 145.583988 
L 244.959025 155.274469 
L 256.275224 166.174486 
L 263.383134 173.142649 
L 270.441716 180.206329 
L 275.059521 184.840558 
L 278.797963 188.591384 
L 281.860677 191.673869 
L 284.733365 194.55227 
L 286.709024 196.563974 
L 288.653029 198.506381 
L 290.02897 199.891276 
L 291.071427 200.948349 
L 291.810195 201.693766 
L 292.294994 202.185234 
L 292.870466 202.769729 
L 293.073101 202.97828 
L 293.146862 203.055017 
L 293.122189 203.029465 
" clip-path="url(#pe75606d8b4)" style="fill: none; stroke: #e6e6e6; stroke-width: 1.5; stroke-linecap: square"/>
   </g>
   <g id="line2d_46">
    <path d="M 262.488734 204.793603 
L 262.713063 204.955034 
L 261.809098 204.665461 
L 261.071054 204.69856 
L 259.821231 204.311906 
L 258.532545 203.712762 
L 256.275224 202.769729 
L 252.743328 200.073814 
L 246.090814 193.961298 
L 241.321022 188.956075 
L 233.602083 180.640416 
L 222.16396 166.150196 
L 209.566634 148.470199 
L 203.953073 134.041431 
L 210.841128 131.933456 
L 224.970637 139.927542 
L 237.181182 149.042481 
L 247.498587 157.93789 
L 256.275224 166.174486 
L 262.53597 172.222011 
L 267.842623 177.494317 
L 271.984641 181.640349 
L 275.847366 185.53386 
L 279.359784 189.095378 
L 282.580785 192.352127 
L 285.259339 195.055616 
L 287.527011 197.361059 
L 289.246765 199.10156 
L 290.594416 200.463228 
L 291.54469 201.424887 
L 292.197847 202.083871 
L 292.870466 202.769729 
L 293.1168 203.023291 
L 293.19096 203.100759 
L 293.177462 203.086281 
" clip-path="url(#pe75606d8b4)" style="fill: none; stroke: #e6e6e6; stroke-width: 1.5; stroke-linecap: square"/>
   </g>
   <g id="line2d_47">
    <path d="M 265.886728 204.344275 
L 265.407265 204.194689 
L 265.190343 204.780377 
L 264.045732 204.858835 
L 260.328526 204.276013 
L 262.087945 203.498927 
L 256.275224 202.769729 
L 254.444872 200.565754 
L 243.361316 193.711723 
L 232.209884 186.11928 
L 211.162208 171.601792 
L 178.197351 143.121463 
L 57.768333 47.541987 
L 78.223755 37.15061 
L 100.994781 36.677581 
L 181.025946 99.196617 
L 218.210478 130.496393 
L 240.525809 151.028138 
L 256.275224 166.174486 
L 265.310312 175.092365 
L 271.516877 181.245971 
L 275.635736 185.370172 
L 279.578324 189.342022 
L 282.190117 191.954973 
L 285.396135 195.195557 
L 287.441892 197.281243 
L 289.073849 198.928096 
L 290.272529 200.138422 
L 291.276122 201.154745 
L 291.880043 201.765434 
L 292.319496 202.212373 
L 292.870466 202.769729 
L 293.096798 202.998002 
L 293.131257 203.038952 
L 293.131036 203.040195 
" clip-path="url(#pe75606d8b4)" style="fill: none; stroke: #e6e6e6; stroke-width: 1.5; stroke-linecap: square"/>
   </g>
   <g id="line2d_48">
    <path d="M 263.955893 206.627072 
L 263.901538 206.477235 
L 263.442596 206.126726 
L 262.211766 205.998112 
L 260.720866 205.585222 
L 258.973255 204.12425 
L 256.275224 202.769729 
L 253.585477 200.885911 
L 245.714553 194.496364 
L 241.284264 190.05082 
L 234.233976 182.483174 
L 225.446083 170.599509 
L 215.145163 155.641967 
L 212.885999 143.694763 
L 213.203219 135.903204 
L 224.623431 140.443369 
L 238.253428 150.464825 
L 248.925081 159.475427 
L 256.275224 166.174486 
L 263.390292 173.062891 
L 269.040426 178.662408 
L 273.051394 182.704536 
L 276.838699 186.505686 
L 280.049988 189.76639 
L 283.19377 192.936356 
L 285.634172 195.426753 
L 287.707063 197.526495 
L 289.415024 199.257131 
L 290.710488 200.575263 
L 291.604408 201.480505 
L 292.2122 202.099104 
L 292.870466 202.769729 
L 293.089376 202.999861 
L 293.164573 203.078621 
L 293.168927 203.084774 
" clip-path="url(#pe75606d8b4)" style="fill: none; stroke: #e6e6e6; stroke-width: 1.5; stroke-linecap: square"/>
   </g>
   <g id="line2d_49">
    <path d="M 264.936601 205.183197 
L 264.088303 204.939882 
L 263.850897 205.070333 
L 262.646654 205.325032 
L 261.137033 205.002175 
L 258.977425 204.229549 
L 256.275224 202.769729 
L 250.75687 199.541939 
L 239.03857 191.540361 
L 230.650594 184.424674 
L 212.348289 169.094477 
L 194.36691 147.763959 
L 165.110402 115.057721 
L 168.882512 103.236249 
L 193.054101 114.620917 
L 210.73681 125.627767 
L 229.761948 141.578331 
L 246.930952 157.32073 
L 256.275224 166.174486 
L 263.817897 173.593435 
L 269.735395 179.486863 
L 274.834253 184.598245 
L 278.101353 187.880112 
L 281.695534 191.507007 
L 284.306191 194.131187 
L 286.708004 196.555137 
L 288.506783 198.365776 
L 289.856023 199.725496 
L 290.912384 200.793146 
L 291.709429 201.594913 
L 292.200353 202.090746 
L 292.870466 202.769729 
L 293.074716 202.978741 
L 293.144574 203.053518 
L 293.119733 203.035484 
" clip-path="url(#pe75606d8b4)" style="fill: none; stroke: #e6e6e6; stroke-width: 1.5; stroke-linecap: square"/>
   </g>
   <g id="line2d_50">
    <path d="M 261.453451 204.96331 
L 261.538764 204.908698 
L 261.598262 204.796626 
L 260.300755 204.862274 
L 259.659171 204.639787 
L 258.296067 203.66178 
L 256.275224 202.769729 
L 252.756298 200.816412 
L 247.254053 196.124523 
L 240.598007 191.170204 
L 229.564496 180.51515 
L 217.374794 167.953137 
L 202.598612 146.154213 
L 200.844061 137.170434 
L 160.022039 90.39539 
L 210.862603 128.094028 
L 229.410697 141.958051 
L 245.31966 155.822938 
L 256.275224 166.174486 
L 263.992618 173.706611 
L 270.070928 179.75032 
L 274.747463 184.428279 
L 278.742705 188.475909 
L 282.012161 191.774455 
L 284.256905 194.04337 
L 286.848226 196.66822 
L 288.615233 198.461095 
L 289.963811 199.820915 
L 291.064655 200.940461 
L 291.736174 201.616133 
L 292.307839 202.199492 
L 292.870466 202.769729 
L 293.089086 202.996968 
L 293.16523 203.074405 
L 293.174179 203.084815 
" clip-path="url(#pe75606d8b4)" style="fill: none; stroke: #e6e6e6; stroke-width: 1.5; stroke-linecap: square"/>
   </g>
   <g id="line2d_51">
    <path d="M 263.704874 204.540361 
L 261.978188 204.368845 
L 261.786265 204.633734 
L 262.177781 205.207683 
L 259.924169 204.184263 
L 258.230479 203.91672 
L 256.275224 202.769729 
L 251.776711 199.954476 
L 242.171911 193.078207 
L 232.367015 185.338645 
L 215.274104 170.472334 
L 199.12173 152.263251 
L 176.83871 125.569724 
L 178.849731 113.596554 
L 196.304615 118.443587 
L 218.525111 133.501072 
L 236.806761 148.525812 
L 245.959184 156.409258 
L 256.275224 166.174486 
L 264.034978 173.800196 
L 269.503742 179.211353 
L 274.324281 184.056883 
L 277.978201 187.727229 
L 281.194201 190.979761 
L 284.039185 193.836369 
L 286.345772 196.18086 
L 288.256437 198.104808 
L 289.697779 199.56104 
L 290.875903 200.751037 
L 291.687546 201.567877 
L 292.225191 202.11705 
L 292.870466 202.769729 
L 293.08583 202.989729 
L 293.152348 203.059611 
L 293.134541 203.051293 
" clip-path="url(#pe75606d8b4)" style="fill: none; stroke: #e6e6e6; stroke-width: 1.5; stroke-linecap: square"/>
   </g>
   <g id="line2d_52">
    <path d="M 262.819198 205.200861 
L 263.407176 205.161629 
L 263.564978 205.569423 
L 261.630606 205.41181 
L 260.865916 205.147622 
L 258.181951 204.366009 
L 256.275224 202.769729 
L 251.152166 199.693954 
L 241.721804 192.06625 
L 235.705891 185.967252 
L 227.943745 176.834185 
L 216.197381 160.921384 
L 205.665902 144.011615 
L 207.145321 135.006432 
L 215.256506 134.971532 
L 226.67827 140.874034 
L 239.052903 150.748972 
L 247.793021 158.17108 
L 256.275224 166.174486 
L 263.26267 173.012447 
L 268.156403 177.897676 
L 272.701767 182.411386 
L 276.61204 186.343638 
L 280.009206 189.773763 
L 283.273637 193.058039 
L 285.622333 195.445331 
L 287.696171 197.531443 
L 289.3772 199.228112 
L 290.726744 200.596912 
L 291.592585 201.472914 
L 292.185754 202.074089 
L 292.870466 202.769729 
L 293.103656 203.00739 
L 293.174096 203.081185 
L 293.159661 203.074956 
" clip-path="url(#pe75606d8b4)" style="fill: none; stroke: #e6e6e6; stroke-width: 1.5; stroke-linecap: square"/>
   </g>
   <g id="line2d_53">
    <path d="M 264.514198 205.572748 
L 264.109145 205.188294 
L 263.872176 205.970486 
L 262.589791 206.102621 
L 261.943664 204.67759 
L 258.955537 204.632106 
L 256.275224 202.769729 
L 251.17301 200.181302 
L 240.158531 190.883754 
L 233.300863 184.468508 
L 218.864619 170.112771 
L 204.313372 152.936331 
L 181.825549 124.474989 
L 181.495668 113.008288 
L 210.563051 129.843245 
L 217.547998 132.04468 
L 233.431473 144.887396 
L 243.826747 154.1805 
L 256.275224 166.174486 
L 263.799303 173.591276 
L 269.876139 179.639469 
L 273.892466 183.662054 
L 277.960932 187.746846 
L 281.12498 190.940183 
L 283.894747 193.733919 
L 286.281288 196.126254 
L 288.325425 198.187663 
L 289.702778 199.573876 
L 290.988431 200.859813 
L 291.740726 201.627521 
L 292.251245 202.150647 
L 292.870466 202.769729 
L 293.075469 202.977794 
L 293.140843 203.044959 
L 293.140494 203.050809 
" clip-path="url(#pe75606d8b4)" style="fill: none; stroke: #e6e6e6; stroke-width: 1.5; stroke-linecap: square"/>
   </g>
   <g id="line2d_54">
    <path d="M 34.22 202.769729 
L 316.8 202.769729 
" clip-path="url(#pe75606d8b4)" style="fill: none; stroke: #404040; stroke-width: 2; stroke-linecap: square"/>
   </g>
   <g id="line2d_55">
    <path d="M 34.22 166.174486 
L 316.8 166.174486 
" clip-path="url(#pe75606d8b4)" style="fill: none; stroke-dasharray: 1.5,2.475; stroke-dashoffset: 0; stroke: #bfbfbf; stroke-width: 1.5"/>
   </g>
   <g id="line2d_56">
    <path d="M 256.275224 224.378986 
L 256.275224 11.356014 
" clip-path="url(#pe75606d8b4)" style="fill: none; stroke: #404040; stroke-width: 2; stroke-linecap: square"/>
   </g>
   <g id="line2d_57">
    <path d="M 292.870466 224.378986 
L 292.870466 11.356014 
" clip-path="url(#pe75606d8b4)" style="fill: none; stroke-dasharray: 1.5,2.475; stroke-dashoffset: 0; stroke: #bfbfbf; stroke-width: 1.5"/>
   </g>
   <g id="matplotlib.axis_1">
    <g id="xtick_1">
     <g id="line2d_58">
      <defs>
       <path id="mfe7d0df909" d="M 0 0 
L 0 3.5 
" style="stroke: #000000; stroke-width: 0.8"/>
      </defs>
      <g>
       <use xlink:href="#mfe7d0df909" x="36.703771" y="224.378986" style="stroke: #000000; stroke-width: 0.8"/>
      </g>
     </g>
     <g id="text_1">
      <!-- -6 -->
      <g transform="translate(32.541271 238.318049)scale(0.1 -0.1)">
       <defs>
        <path id="CMUSerif-Roman-2d" d="M 63 1191 
L 63 1569 
L 1766 1569 
L 1766 1191 
L 63 1191 
z
" transform="scale(0.015625)"/>
        <path id="CMUSerif-Roman-36" d="M 269 2022 
Q 269 3028 781 3645 
Q 1294 4263 1953 4263 
Q 2338 4263 2552 4067 
Q 2766 3872 2766 3572 
Q 2766 3406 2669 3334 
Q 2572 3263 2472 3263 
Q 2356 3263 2265 3341 
Q 2175 3419 2175 3559 
Q 2175 3847 2528 3847 
Q 2363 4103 1966 4103 
Q 1844 4103 1719 4067 
Q 1594 4031 1431 3912 
Q 1269 3794 1144 3606 
Q 1019 3419 931 3066 
Q 844 2713 844 2253 
L 844 2100 
Q 1106 2734 1643 2732 
Q 2181 2731 2553 2322 
Q 2925 1913 2925 1306 
Q 2925 684 2537 271 
Q 2150 -141 1606 -141 
Q 1363 -141 1142 -39 
Q 922 63 717 294 
Q 513 525 391 969 
Q 269 1413 269 2022 
z
M 856 1447 
Q 856 819 972 519 
Q 991 469 1033 400 
Q 1075 331 1148 242 
Q 1222 153 1344 95 
Q 1466 38 1606 38 
Q 2034 38 2241 453 
Q 2350 684 2350 1313 
Q 2350 1953 2234 2188 
Q 2038 2584 1638 2584 
Q 1369 2584 1183 2400 
Q 997 2216 926 1969 
Q 856 1722 856 1447 
z
" transform="scale(0.015625)"/>
       </defs>
       <use xlink:href="#CMUSerif-Roman-2d"/>
       <use xlink:href="#CMUSerif-Roman-36" x="33.251953"/>
      </g>
     </g>
    </g>
    <g id="xtick_2">
     <g id="line2d_59">
      <g>
       <use xlink:href="#mfe7d0df909" x="73.299013" y="224.378986" style="stroke: #000000; stroke-width: 0.8"/>
      </g>
     </g>
     <g id="text_2">
      <!-- -5 -->
      <g transform="translate(69.136513 238.318049)scale(0.1 -0.1)">
       <defs>
        <path id="CMUSerif-Roman-35" d="M 319 1031 
Q 319 1222 422 1295 
Q 525 1369 634 1369 
Q 781 1369 867 1276 
Q 953 1184 953 1056 
Q 953 928 867 836 
Q 781 744 634 744 
Q 563 744 525 756 
Q 609 463 867 250 
Q 1125 38 1466 38 
Q 1894 38 2150 453 
Q 2303 722 2303 1331 
Q 2303 1869 2188 2138 
Q 2009 2547 1644 2547 
Q 1125 2547 819 2100 
Q 781 2044 738 2041 
Q 675 2041 661 2077 
Q 647 2113 647 2209 
L 647 4103 
Q 647 4256 709 4256 
Q 734 4256 788 4238 
Q 1191 4059 1638 4056 
Q 2097 4056 2509 4244 
Q 2541 4263 2559 4263 
Q 2622 4263 2625 4191 
Q 2625 4166 2573 4092 
Q 2522 4019 2412 3923 
Q 2303 3828 2162 3737 
Q 2022 3647 1817 3586 
Q 1613 3525 1388 3525 
Q 1119 3525 844 3609 
L 844 2363 
Q 1175 2688 1656 2688 
Q 2169 2688 2522 2275 
Q 2875 1863 2875 1288 
Q 2875 684 2458 271 
Q 2041 -141 1478 -141 
Q 966 -141 642 225 
Q 319 591 319 1031 
z
" transform="scale(0.015625)"/>
       </defs>
       <use xlink:href="#CMUSerif-Roman-2d"/>
       <use xlink:href="#CMUSerif-Roman-35" x="33.251953"/>
      </g>
     </g>
    </g>
    <g id="xtick_3">
     <g id="line2d_60">
      <g>
       <use xlink:href="#mfe7d0df909" x="109.894256" y="224.378986" style="stroke: #000000; stroke-width: 0.8"/>
      </g>
     </g>
     <g id="text_3">
      <!-- -4 -->
      <g transform="translate(105.731756 238.318049)scale(0.1 -0.1)">
       <defs>
        <path id="CMUSerif-Roman-34" d="M 178 1056 
L 178 1253 
L 2144 4256 
Q 2194 4334 2272 4331 
Q 2344 4331 2359 4303 
Q 2375 4275 2375 4166 
L 2375 1253 
L 3016 1253 
L 3016 1056 
L 2375 1056 
L 2375 500 
Q 2375 316 2451 256 
Q 2528 197 2859 197 
L 2994 197 
L 2994 0 
Q 2731 19 2125 19 
Q 1522 19 1259 0 
L 1259 197 
L 1394 197 
Q 1725 197 1803 255 
Q 1881 313 1881 500 
L 1881 1056 
L 178 1056 
z
M 359 1253 
L 1919 1253 
L 1919 3641 
L 359 1253 
z
" transform="scale(0.015625)"/>
       </defs>
       <use xlink:href="#CMUSerif-Roman-2d"/>
       <use xlink:href="#CMUSerif-Roman-34" x="33.251953"/>
      </g>
     </g>
    </g>
    <g id="xtick_4">
     <g id="line2d_61">
      <g>
       <use xlink:href="#mfe7d0df909" x="146.489498" y="224.378986" style="stroke: #000000; stroke-width: 0.8"/>
      </g>
     </g>
     <g id="text_4">
      <!-- -3 -->
      <g transform="translate(142.326998 238.318049)scale(0.1 -0.1)">
       <defs>
        <path id="CMUSerif-Roman-33" d="M 269 863 
Q 269 1053 378 1143 
Q 488 1234 628 1234 
Q 775 1234 879 1139 
Q 984 1044 984 878 
Q 984 700 861 600 
Q 738 500 563 525 
Q 716 269 998 153 
Q 1281 38 1544 38 
Q 1819 38 2042 275 
Q 2266 513 2266 1094 
Q 2266 1588 2073 1872 
Q 1881 2156 1503 2156 
L 1222 2156 
Q 1125 2156 1097 2165 
Q 1069 2175 1069 2228 
Q 1069 2291 1166 2303 
Q 1263 2303 1416 2322 
Q 1788 2334 1984 2656 
Q 2163 2956 2163 3384 
Q 2163 3775 1977 3939 
Q 1791 4103 1550 4103 
Q 1325 4103 1078 4009 
Q 831 3916 697 3706 
Q 1094 3706 1094 3384 
Q 1094 3244 1005 3151 
Q 916 3059 769 3059 
Q 628 3059 534 3148 
Q 441 3238 441 3391 
Q 441 3756 767 4009 
Q 1094 4263 1575 4263 
Q 2050 4263 2401 4013 
Q 2753 3763 2753 3378 
Q 2753 3000 2503 2690 
Q 2253 2381 1856 2253 
Q 2344 2156 2634 1826 
Q 2925 1497 2925 1094 
Q 2925 594 2531 226 
Q 2138 -141 1563 -141 
Q 1031 -141 650 146 
Q 269 434 269 863 
z
" transform="scale(0.015625)"/>
       </defs>
       <use xlink:href="#CMUSerif-Roman-2d"/>
       <use xlink:href="#CMUSerif-Roman-33" x="33.251953"/>
      </g>
     </g>
    </g>
    <g id="xtick_5">
     <g id="line2d_62">
      <g>
       <use xlink:href="#mfe7d0df909" x="183.08474" y="224.378986" style="stroke: #000000; stroke-width: 0.8"/>
      </g>
     </g>
     <g id="text_5">
      <!-- -2 -->
      <g transform="translate(178.92224 238.318049)scale(0.1 -0.1)">
       <defs>
        <path id="CMUSerif-Roman-32" d="M 319 0 
Q 319 116 330 150 
Q 341 184 391 238 
L 1619 1606 
Q 2291 2363 2291 3022 
Q 2291 3450 2067 3756 
Q 1844 4063 1434 4063 
Q 1153 4063 915 3891 
Q 678 3719 569 3413 
Q 588 3419 653 3419 
Q 813 3419 902 3319 
Q 991 3219 991 3084 
Q 991 2913 880 2830 
Q 769 2747 659 2747 
Q 616 2747 558 2756 
Q 500 2766 409 2855 
Q 319 2944 319 3103 
Q 319 3550 658 3906 
Q 997 4263 1516 4263 
Q 2103 4263 2489 3914 
Q 2875 3566 2875 3022 
Q 2875 2831 2817 2657 
Q 2759 2484 2682 2350 
Q 2606 2216 2400 2000 
Q 2194 1784 2028 1631 
Q 1863 1478 1491 1153 
L 813 494 
L 1966 494 
Q 2528 494 2572 544 
Q 2634 634 2713 1113 
L 2875 1113 
L 2694 0 
L 319 0 
z
" transform="scale(0.015625)"/>
       </defs>
       <use xlink:href="#CMUSerif-Roman-2d"/>
       <use xlink:href="#CMUSerif-Roman-32" x="33.251953"/>
      </g>
     </g>
    </g>
    <g id="xtick_6">
     <g id="line2d_63">
      <g>
       <use xlink:href="#mfe7d0df909" x="219.679982" y="224.378986" style="stroke: #000000; stroke-width: 0.8"/>
      </g>
     </g>
     <g id="text_6">
      <!-- -1 -->
      <g transform="translate(215.517482 238.318049)scale(0.1 -0.1)">
       <defs>
        <path id="CMUSerif-Roman-31" d="M 569 3653 
L 569 3853 
Q 1338 3853 1734 4263 
Q 1844 4263 1862 4238 
Q 1881 4213 1881 4097 
L 1881 506 
Q 1881 316 1975 256 
Q 2069 197 2478 197 
L 2681 197 
L 2681 0 
Q 2456 19 1643 19 
Q 831 19 609 0 
L 609 197 
L 813 197 
Q 1216 197 1312 255 
Q 1409 313 1409 506 
L 1409 3822 
Q 1075 3653 569 3653 
z
" transform="scale(0.015625)"/>
       </defs>
       <use xlink:href="#CMUSerif-Roman-2d"/>
       <use xlink:href="#CMUSerif-Roman-31" x="33.251953"/>
      </g>
     </g>
    </g>
    <g id="xtick_7">
     <g id="line2d_64">
      <g>
       <use xlink:href="#mfe7d0df909" x="256.275224" y="224.378986" style="stroke: #000000; stroke-width: 0.8"/>
      </g>
     </g>
     <g id="text_7">
      <!-- 0 -->
      <g transform="translate(253.775224 238.318049)scale(0.1 -0.1)">
       <defs>
        <path id="CMUSerif-Roman-30" d="M 250 2047 
Q 250 2988 488 3500 
Q 819 4263 1600 4263 
Q 1766 4263 1939 4217 
Q 2113 4172 2333 4000 
Q 2553 3828 2688 3547 
Q 2944 3003 2944 2047 
Q 2944 1113 2706 603 
Q 2359 -141 1594 -141 
Q 1306 -141 1014 6 
Q 722 153 538 506 
Q 250 1034 250 2047 
z
M 781 2125 
Q 781 1159 850 775 
Q 928 359 1142 179 
Q 1356 0 1594 0 
Q 1850 0 2064 192 
Q 2278 384 2344 800 
Q 2416 1209 2413 2125 
Q 2413 3016 2350 3372 
Q 2266 3788 2042 3955 
Q 1819 4122 1594 4122 
Q 1509 4122 1420 4097 
Q 1331 4072 1203 4000 
Q 1075 3928 976 3750 
Q 878 3572 831 3303 
Q 781 2956 781 2125 
z
" transform="scale(0.015625)"/>
       </defs>
       <use xlink:href="#CMUSerif-Roman-30"/>
      </g>
     </g>
    </g>
    <g id="xtick_8">
     <g id="line2d_65">
      <g>
       <use xlink:href="#mfe7d0df909" x="292.870466" y="224.378986" style="stroke: #000000; stroke-width: 0.8"/>
      </g>
     </g>
     <g id="text_8">
      <!-- 1 -->
      <g transform="translate(290.370466 238.318049)scale(0.1 -0.1)">
       <use xlink:href="#CMUSerif-Roman-31"/>
      </g>
     </g>
    </g>
    <g id="text_9">
     <!-- $r$ -->
     <g transform="translate(172.75 252.583986)scale(0.12 -0.12)">
      <defs>
       <path id="Cmmi10-72" d="M 494 109 
Q 494 147 500 166 
L 978 2075 
Q 1025 2253 1025 2388 
Q 1025 2663 838 2663 
Q 638 2663 541 2423 
Q 444 2184 353 1819 
Q 353 1800 334 1789 
Q 316 1778 300 1778 
L 225 1778 
Q 203 1778 187 1801 
Q 172 1825 172 1844 
Q 241 2122 305 2315 
Q 369 2509 505 2668 
Q 641 2828 844 2828 
Q 1066 2828 1233 2700 
Q 1400 2572 1441 2363 
Q 1603 2575 1811 2701 
Q 2019 2828 2266 2828 
Q 2469 2828 2623 2709 
Q 2778 2591 2778 2388 
Q 2778 2225 2676 2104 
Q 2575 1984 2406 1984 
Q 2303 1984 2233 2048 
Q 2163 2113 2163 2216 
Q 2163 2356 2266 2467 
Q 2369 2578 2503 2578 
Q 2400 2663 2253 2663 
Q 1978 2663 1775 2467 
Q 1572 2272 1409 1972 
L 953 141 
Q 931 53 854 -9 
Q 778 -72 684 -72 
Q 606 -72 550 -22 
Q 494 28 494 109 
z
" transform="scale(0.015625)"/>
      </defs>
      <use xlink:href="#Cmmi10-72" transform="translate(0 0.8125)"/>
     </g>
    </g>
   </g>
   <g id="matplotlib.axis_2">
    <g id="ytick_1">
     <g id="line2d_66">
      <defs>
       <path id="m35168efd91" d="M 0 0 
L -3.5 0 
" style="stroke: #000000; stroke-width: 0.8"/>
      </defs>
      <g>
       <use xlink:href="#m35168efd91" x="34.22" y="202.769729" style="stroke: #000000; stroke-width: 0.8"/>
      </g>
     </g>
     <g id="text_10">
      <!-- 0 -->
      <g transform="translate(22.22 206.23926)scale(0.1 -0.1)">
       <use xlink:href="#CMUSerif-Roman-30"/>
      </g>
     </g>
    </g>
    <g id="ytick_2">
     <g id="line2d_67">
      <g>
       <use xlink:href="#m35168efd91" x="34.22" y="166.174486" style="stroke: #000000; stroke-width: 0.8"/>
      </g>
     </g>
     <g id="text_11">
      <!-- 1 -->
      <g transform="translate(22.22 169.644018)scale(0.1 -0.1)">
       <use xlink:href="#CMUSerif-Roman-31"/>
      </g>
     </g>
    </g>
    <g id="ytick_3">
     <g id="line2d_68">
      <g>
       <use xlink:href="#m35168efd91" x="34.22" y="129.579244" style="stroke: #000000; stroke-width: 0.8"/>
      </g>
     </g>
     <g id="text_12">
      <!-- 2 -->
      <g transform="translate(22.22 133.048776)scale(0.1 -0.1)">
       <use xlink:href="#CMUSerif-Roman-32"/>
      </g>
     </g>
    </g>
    <g id="ytick_4">
     <g id="line2d_69">
      <g>
       <use xlink:href="#m35168efd91" x="34.22" y="92.984002" style="stroke: #000000; stroke-width: 0.8"/>
      </g>
     </g>
     <g id="text_13">
      <!-- 3 -->
      <g transform="translate(22.22 96.453533)scale(0.1 -0.1)">
       <use xlink:href="#CMUSerif-Roman-33"/>
      </g>
     </g>
    </g>
    <g id="ytick_5">
     <g id="line2d_70">
      <g>
       <use xlink:href="#m35168efd91" x="34.22" y="56.38876" style="stroke: #000000; stroke-width: 0.8"/>
      </g>
     </g>
     <g id="text_14">
      <!-- 4 -->
      <g transform="translate(22.22 59.858291)scale(0.1 -0.1)">
       <use xlink:href="#CMUSerif-Roman-34"/>
      </g>
     </g>
    </g>
    <g id="ytick_6">
     <g id="line2d_71">
      <g>
       <use xlink:href="#m35168efd91" x="34.22" y="19.793518" style="stroke: #000000; stroke-width: 0.8"/>
      </g>
     </g>
     <g id="text_15">
      <!-- 5 -->
      <g transform="translate(22.22 23.263049)scale(0.1 -0.1)">
       <use xlink:href="#CMUSerif-Roman-35"/>
      </g>
     </g>
    </g>
    <g id="text_16">
     <!-- $g$ -->
     <g transform="translate(15.7 120.7475)rotate(-90)scale(0.12 -0.12)">
      <defs>
       <path id="Cmmi10-67" d="M 91 -916 
Q 91 -759 198 -642 
Q 306 -525 459 -525 
Q 563 -525 633 -589 
Q 703 -653 703 -756 
Q 703 -872 637 -964 
Q 572 -1056 469 -1094 
Q 641 -1147 1006 -1147 
Q 1300 -1147 1544 -920 
Q 1788 -694 1863 -397 
L 2047 353 
Q 1700 0 1325 0 
Q 1050 0 854 140 
Q 659 281 556 515 
Q 453 750 453 1013 
Q 453 1306 573 1628 
Q 694 1950 911 2225 
Q 1128 2500 1409 2664 
Q 1691 2828 2003 2828 
Q 2191 2828 2341 2725 
Q 2491 2622 2578 2450 
Q 2641 2700 2853 2700 
Q 2934 2700 2990 2651 
Q 3047 2603 3047 2522 
Q 3047 2503 3045 2493 
Q 3044 2484 3041 2472 
L 2309 -434 
Q 2259 -634 2125 -800 
Q 1991 -966 1809 -1077 
Q 1628 -1188 1412 -1250 
Q 1197 -1313 997 -1313 
Q 631 -1313 361 -1242 
Q 91 -1172 91 -916 
z
M 1338 166 
Q 1747 166 2144 728 
L 2497 2125 
Q 2453 2347 2322 2505 
Q 2191 2663 1991 2663 
Q 1778 2663 1589 2489 
Q 1400 2316 1275 2075 
Q 1156 1844 1045 1411 
Q 934 978 934 728 
Q 934 509 1034 337 
Q 1134 166 1338 166 
z
" transform="scale(0.015625)"/>
      </defs>
      <use xlink:href="#Cmmi10-67" transform="translate(0 0.8125)"/>
     </g>
    </g>
   </g>
   <g id="line2d_72">
    <defs>
     <path id="mc2866fa008" d="M 0 4 
C 1.060812 4 2.078319 3.578535 2.828427 2.828427 
C 3.578535 2.078319 4 1.060812 4 0 
C 4 -1.060812 3.578535 -2.078319 2.828427 -2.828427 
C 2.078319 -3.578535 1.060812 -4 0 -4 
C -1.060812 -4 -2.078319 -3.578535 -2.828427 -2.828427 
C -3.578535 -2.078319 -4 -1.060812 -4 0 
C -4 1.060812 -3.578535 2.078319 -2.828427 2.828427 
C -2.078319 3.578535 -1.060812 4 0 4 
z
" style="stroke: #ff0000"/>
    </defs>
    <g clip-path="url(#pe75606d8b4)">
     <use xlink:href="#mc2866fa008" x="292.870466" y="202.769729" style="fill-opacity: 0; stroke: #ff0000"/>
    </g>
   </g>
   <g id="line2d_73">
    <defs>
     <path id="m3d2ad19e18" d="M 0 4 
C 1.060812 4 2.078319 3.578535 2.828427 2.828427 
C 3.578535 2.078319 4 1.060812 4 0 
C 4 -1.060812 3.578535 -2.078319 2.828427 -2.828427 
C 2.078319 -3.578535 1.060812 -4 0 -4 
C -1.060812 -4 -2.078319 -3.578535 -2.828427 -2.828427 
C -3.578535 -2.078319 -4 -1.060812 -4 0 
C -4 1.060812 -3.578535 2.078319 -2.828427 2.828427 
C -2.078319 3.578535 -1.060812 4 0 4 
z
" style="stroke: #00ff00"/>
    </defs>
    <g clip-path="url(#pe75606d8b4)">
     <use xlink:href="#m3d2ad19e18" x="256.275224" y="166.174486" style="fill-opacity: 0; stroke: #00ff00"/>
    </g>
   </g>
   <g id="line2d_74">
    <defs>
     <path id="m5a4e114cd3" d="M 0 4 
C 1.060812 4 2.078319 3.578535 2.828427 2.828427 
C 3.578535 2.078319 4 1.060812 4 0 
C 4 -1.060812 3.578535 -2.078319 2.828427 -2.828427 
C 2.078319 -3.578535 1.060812 -4 0 -4 
C -1.060812 -4 -2.078319 -3.578535 -2.828427 -2.828427 
C -3.578535 -2.078319 -4 -1.060812 -4 0 
C -4 1.060812 -3.578535 2.078319 -2.828427 2.828427 
C -2.078319 3.578535 -1.060812 4 0 4 
z
" style="stroke: #0000ff"/>
    </defs>
    <g clip-path="url(#pe75606d8b4)">
     <use xlink:href="#m5a4e114cd3" x="256.275224" y="202.769729" style="fill-opacity: 0; stroke: #0000ff"/>
    </g>
   </g>
   <g id="patch_3">
    <path d="M 34.22 224.378986 
L 34.22 11.356014 
" style="fill: none; stroke: #000000; stroke-width: 0.8; stroke-linejoin: miter; stroke-linecap: square"/>
   </g>
   <g id="patch_4">
    <path d="M 316.8 224.378986 
L 316.8 11.356014 
" style="fill: none; stroke: #000000; stroke-width: 0.8; stroke-linejoin: miter; stroke-linecap: square"/>
   </g>
   <g id="patch_5">
    <path d="M 34.22 224.378986 
L 316.8 224.378986 
" style="fill: none; stroke: #000000; stroke-width: 0.8; stroke-linejoin: miter; stroke-linecap: square"/>
   </g>
   <g id="patch_6">
    <path d="M 34.22 11.356014 
L 316.8 11.356014 
" style="fill: none; stroke: #000000; stroke-width: 0.8; stroke-linejoin: miter; stroke-linecap: square"/>
   </g>
   <g id="line2d_75">
    <path d="M 263.870463 204.841157 
L 263.29457 204.741455 
L 262.766123 204.896058 
L 261.745365 204.921317 
L 260.413972 204.621274 
L 258.587784 203.905723 
L 256.275224 202.769729 
L 252.492345 200.302634 
L 244.130785 193.971757 
L 236.257902 187.154841 
L 224.254387 175.416652 
L 207.06524 156.682205 
L 190.122286 133.801772 
L 185.936317 118.648198 
L 199.825117 121.533482 
L 217.079794 132.179433 
L 234.566182 146.339703 
L 246.661508 157.080299 
L 256.275224 166.174486 
L 263.296722 173.043468 
L 269.052129 178.764634 
L 273.523571 183.240767 
L 277.340498 187.084201 
L 280.717678 190.492633 
L 283.680059 193.483894 
L 286.135042 195.960785 
L 288.155003 197.998318 
L 289.686846 199.544873 
L 290.888093 200.758137 
L 291.696322 201.575906 
L 292.27 202.154334 
L 292.870466 202.769729 
L 293.081856 202.993553 
L 293.177473 203.076736 
L 293.251667 203.150929 
" clip-path="url(#pe75606d8b4)" style="fill: none; stroke: #333333; stroke-width: 1.5; stroke-linecap: square"/>
    <defs>
     <path id="m68619d9ccd" d="M 0 2 
C 0.530406 2 1.03916 1.789267 1.414214 1.414214 
C 1.789267 1.03916 2 0.530406 2 0 
C 2 -0.530406 1.789267 -1.03916 1.414214 -1.414214 
C 1.03916 -1.789267 0.530406 -2 0 -2 
C -0.530406 -2 -1.03916 -1.789267 -1.414214 -1.414214 
C -1.789267 -1.03916 -2 -0.530406 -2 0 
C -2 0.530406 -1.789267 1.03916 -1.414214 1.414214 
C -1.03916 1.789267 -0.530406 2 0 2 
z
" style="stroke: #000000; stroke-opacity: 0"/>
    </defs>
    <g clip-path="url(#pe75606d8b4)">
     <use xlink:href="#m68619d9ccd" x="263.870463" y="204.841157" style="stroke: #000000; stroke-opacity: 0"/>
     <use xlink:href="#m68619d9ccd" x="263.29457" y="204.741455" style="stroke: #000000; stroke-opacity: 0"/>
     <use xlink:href="#m68619d9ccd" x="262.766123" y="204.896058" style="stroke: #000000; stroke-opacity: 0"/>
     <use xlink:href="#m68619d9ccd" x="261.745365" y="204.921317" style="stroke: #000000; stroke-opacity: 0"/>
     <use xlink:href="#m68619d9ccd" x="260.413972" y="204.621274" style="stroke: #000000; stroke-opacity: 0"/>
     <use xlink:href="#m68619d9ccd" x="258.587784" y="203.905723" style="stroke: #000000; stroke-opacity: 0"/>
     <use xlink:href="#m68619d9ccd" x="256.275224" y="202.769729" style="stroke: #000000; stroke-opacity: 0"/>
     <use xlink:href="#m68619d9ccd" x="252.492345" y="200.302634" style="stroke: #000000; stroke-opacity: 0"/>
     <use xlink:href="#m68619d9ccd" x="244.130785" y="193.971757" style="stroke: #000000; stroke-opacity: 0"/>
     <use xlink:href="#m68619d9ccd" x="236.257902" y="187.154841" style="stroke: #000000; stroke-opacity: 0"/>
     <use xlink:href="#m68619d9ccd" x="224.254387" y="175.416652" style="stroke: #000000; stroke-opacity: 0"/>
     <use xlink:href="#m68619d9ccd" x="207.06524" y="156.682205" style="stroke: #000000; stroke-opacity: 0"/>
     <use xlink:href="#m68619d9ccd" x="190.122286" y="133.801772" style="stroke: #000000; stroke-opacity: 0"/>
     <use xlink:href="#m68619d9ccd" x="185.936317" y="118.648198" style="stroke: #000000; stroke-opacity: 0"/>
     <use xlink:href="#m68619d9ccd" x="199.825117" y="121.533482" style="stroke: #000000; stroke-opacity: 0"/>
     <use xlink:href="#m68619d9ccd" x="217.079794" y="132.179433" style="stroke: #000000; stroke-opacity: 0"/>
     <use xlink:href="#m68619d9ccd" x="234.566182" y="146.339703" style="stroke: #000000; stroke-opacity: 0"/>
     <use xlink:href="#m68619d9ccd" x="246.661508" y="157.080299" style="stroke: #000000; stroke-opacity: 0"/>
     <use xlink:href="#m68619d9ccd" x="256.275224" y="166.174486" style="stroke: #000000; stroke-opacity: 0"/>
     <use xlink:href="#m68619d9ccd" x="263.296722" y="173.043468" style="stroke: #000000; stroke-opacity: 0"/>
     <use xlink:href="#m68619d9ccd" x="269.052129" y="178.764634" style="stroke: #000000; stroke-opacity: 0"/>
     <use xlink:href="#m68619d9ccd" x="273.523571" y="183.240767" style="stroke: #000000; stroke-opacity: 0"/>
     <use xlink:href="#m68619d9ccd" x="277.340498" y="187.084201" style="stroke: #000000; stroke-opacity: 0"/>
     <use xlink:href="#m68619d9ccd" x="280.717678" y="190.492633" style="stroke: #000000; stroke-opacity: 0"/>
     <use xlink:href="#m68619d9ccd" x="283.680059" y="193.483894" style="stroke: #000000; stroke-opacity: 0"/>
     <use xlink:href="#m68619d9ccd" x="286.135042" y="195.960785" style="stroke: #000000; stroke-opacity: 0"/>
     <use xlink:href="#m68619d9ccd" x="288.155003" y="197.998318" style="stroke: #000000; stroke-opacity: 0"/>
     <use xlink:href="#m68619d9ccd" x="289.686846" y="199.544873" style="stroke: #000000; stroke-opacity: 0"/>
     <use xlink:href="#m68619d9ccd" x="290.888093" y="200.758137" style="stroke: #000000; stroke-opacity: 0"/>
     <use xlink:href="#m68619d9ccd" x="291.696322" y="201.575906" style="stroke: #000000; stroke-opacity: 0"/>
     <use xlink:href="#m68619d9ccd" x="292.27" y="202.154334" style="stroke: #000000; stroke-opacity: 0"/>
     <use xlink:href="#m68619d9ccd" x="292.870466" y="202.769729" style="stroke: #000000; stroke-opacity: 0"/>
     <use xlink:href="#m68619d9ccd" x="293.081856" y="202.993553" style="stroke: #000000; stroke-opacity: 0"/>
     <use xlink:href="#m68619d9ccd" x="293.177473" y="203.076736" style="stroke: #000000; stroke-opacity: 0"/>
     <use xlink:href="#m68619d9ccd" x="293.251667" y="203.150929" style="stroke: #000000; stroke-opacity: 0"/>
    </g>
   </g>
  </g>
 </g>
 <defs>
  <clipPath id="pe75606d8b4">
   <rect x="34.22" y="11.356014" width="282.58" height="213.022973"/>
  </clipPath>
 </defs>
</svg>
