<?xml version="1.0" encoding="utf-8" standalone="no"?>
<!DOCTYPE svg PUBLIC "-//W3C//DTD SVG 1.1//EN"
  "http://www.w3.org/Graphics/SVG/1.1/DTD/svg11.dtd">
<svg xmlns:xlink="http://www.w3.org/1999/xlink" width="288pt" height="230.4pt" viewBox="0 0 288 230.4" xmlns="http://www.w3.org/2000/svg" version="1.1">
 <metadata>
  <rdf:RDF xmlns:dc="http://purl.org/dc/elements/1.1/" xmlns:cc="http://creativecommons.org/ns#" xmlns:rdf="http://www.w3.org/1999/02/22-rdf-syntax-ns#">
   <cc:Work>
    <dc:type rdf:resource="http://purl.org/dc/dcmitype/StillImage"/>
    <dc:date>2022-07-03T08:08:32.666667</dc:date>
    <dc:format>image/svg+xml</dc:format>
    <dc:creator>
     <cc:Agent>
      <dc:title>Matplotlib v3.5.2, https://matplotlib.org/</dc:title>
     </cc:Agent>
    </dc:creator>
   </cc:Work>
  </rdf:RDF>
 </metadata>
 <defs>
  <style type="text/css">*{stroke-linejoin: round; stroke-linecap: butt}</style>
 </defs>
 <g id="figure_1">
  <g id="patch_1">
   <path d="M 0 230.4 
L 288 230.4 
L 288 0 
L 0 0 
z
" style="fill: #ffffff"/>
  </g>
  <g id="axes_1">
   <g id="patch_2">
    <path d="M 34.584375 192.535 
L 280.435625 192.535 
L 280.435625 7.2 
L 34.584375 7.2 
L 34.584375 192.535 
z
" style="fill: none"/>
   </g>
   <g id="line2d_1">
    <path d="M 232.162607 175.120055 
L 232.031003 175.169536 
L 231.641576 175.151754 
L 231.113677 175.037953 
L 229.933517 174.911282 
L 229.252039 174.568159 
L 227.777646 173.734437 
L 224.902648 171.941956 
L 219.501073 167.352396 
L 213.074398 161.882036 
L 207.60265 155.530815 
L 193.348949 140.926677 
L 188.934847 129.313366 
L 180.621744 114.221357 
L 191.364121 115.591132 
L 198.845482 117.943387 
L 208.915126 124.765219 
L 218.960455 133.465957 
L 227.777646 141.895715 
L 233.051053 146.987275 
L 237.226378 151.143075 
L 241.683178 155.60552 
L 245.344964 159.286233 
L 248.128581 162.103241 
L 250.889129 164.901443 
L 253.203619 167.238542 
L 255.200883 169.254971 
L 256.706512 170.786601 
L 257.776067 171.86739 
L 258.565141 172.654666 
L 259.081613 173.180461 
L 259.616368 173.734437 
L 259.788809 173.924992 
L 259.843184 173.979923 
L 259.825279 173.963448 
" clip-path="url(#p94265c930f)" style="fill: none; stroke: #e6e6e6; stroke-width: 1.5; stroke-linecap: square"/>
   </g>
   <g id="line2d_2">
    <path d="M 233.27268 175.557446 
L 233.145095 175.567973 
L 232.961386 175.801597 
L 232.008738 175.761335 
L 230.954687 175.474618 
L 229.478013 174.946395 
L 227.777646 173.734437 
L 225.164436 172.101935 
L 220.165844 168.068052 
L 212.291137 160.914425 
L 202.330619 150.679357 
L 191.773887 136.887854 
L 171.392199 112.632175 
L 182.908093 112.953464 
L 185.209904 107.699678 
L 200.258539 118.092893 
L 211.835783 127.348133 
L 221.4088 135.881559 
L 227.777646 141.895715 
L 233.73491 147.784414 
L 237.901013 151.840071 
L 241.965207 155.887514 
L 245.309342 159.277926 
L 248.289094 162.297713 
L 251.089924 165.111851 
L 253.338834 167.389699 
L 255.151989 169.21728 
L 256.629841 170.703731 
L 257.755692 171.840633 
L 258.501562 172.594682 
L 259.057407 173.158362 
L 259.616368 173.734437 
L 259.827233 173.951728 
L 259.87476 174.002494 
L 259.874574 174.001754 
" clip-path="url(#p94265c930f)" style="fill: none; stroke: #e6e6e6; stroke-width: 1.5; stroke-linecap: square"/>
   </g>
   <g id="line2d_3">
    <path d="M 234.136778 175.758536 
L 234.077348 175.631087 
L 233.842507 175.518916 
L 233.166786 175.408053 
L 231.775887 175.30858 
L 229.934974 174.952559 
L 227.777646 173.734437 
L 223.210701 171.162593 
L 215.024061 165.588261 
L 202.390619 155.999167 
L 185.795507 142.188992 
L 162.146905 118.771794 
L 95.480997 57.699922 
L 77.440953 25.607244 
L 132.836418 60.616469 
L 170.611528 89.732694 
L 196.695233 112.475596 
L 216.004453 130.515106 
L 227.777646 141.895715 
L 234.178501 148.174208 
L 239.621915 153.578037 
L 243.792688 157.788681 
L 246.826911 160.828606 
L 249.809075 163.840483 
L 252.419294 166.474771 
L 254.334697 168.402227 
L 255.890982 169.959619 
L 257.172608 171.25291 
L 258.138087 172.230962 
L 258.739529 172.843099 
L 259.182389 173.287489 
L 259.616368 173.734437 
L 259.759363 173.884266 
L 259.783678 173.915742 
L 259.793769 173.92034 
" clip-path="url(#p94265c930f)" style="fill: none; stroke: #e6e6e6; stroke-width: 1.5; stroke-linecap: square"/>
   </g>
   <g id="line2d_4">
    <path d="M 235.485349 175.510219 
L 235.546906 175.559696 
L 234.940695 175.398507 
L 233.47913 175.828898 
L 232.209936 175.462889 
L 230.201861 174.809493 
L 227.777646 173.734437 
L 224.137225 171.535785 
L 210.530775 162.66083 
L 205.523485 158.680277 
L 180.100258 136.63847 
L 136.308508 100.334704 
L 120.815624 74.26066 
L 117.140186 56.595909 
L 133.289806 59.753457 
L 177.312089 96.348275 
L 205.864491 121.438814 
L 215.261737 129.748849 
L 227.777646 141.895715 
L 233.024694 146.980081 
L 238.971849 152.947273 
L 242.939966 156.93321 
L 246.568464 160.568598 
L 249.805528 163.838792 
L 252.010874 166.037569 
L 254.190831 168.227745 
L 255.839657 169.861461 
L 257.214602 171.262503 
L 258.154276 172.219763 
L 258.739108 172.827394 
L 259.190041 173.283131 
L 259.616368 173.734437 
L 259.724527 173.870289 
L 259.785451 173.92855 
L 259.784265 173.926228 
" clip-path="url(#p94265c930f)" style="fill: none; stroke: #e6e6e6; stroke-width: 1.5; stroke-linecap: square"/>
   </g>
   <g id="line2d_5">
    <path d="M 233.020376 175.195722 
L 232.550733 175.257613 
L 232.341492 175.325942 
L 231.644116 175.403818 
L 230.602725 175.25646 
L 229.343678 174.793977 
L 227.777646 173.734437 
L 224.33949 171.465163 
L 215.64758 164.78631 
L 205.938952 156.578628 
L 195.260704 145.366937 
L 180.554669 128.037122 
L 161.931018 105.266658 
L 160.769738 92.88812 
L 180.904585 103.836837 
L 195.020585 112.713128 
L 210.234752 125.729566 
L 221.430597 135.933061 
L 227.777646 141.895715 
L 233.539362 147.533381 
L 238.322073 152.273244 
L 242.156442 156.114615 
L 245.216003 159.182419 
L 248.198351 162.188959 
L 250.896752 164.906192 
L 253.264588 167.312043 
L 255.152163 169.213515 
L 256.671384 170.742494 
L 257.782697 171.862759 
L 258.548467 172.637106 
L 259.072754 173.16764 
L 259.616368 173.734437 
L 259.796307 173.910394 
L 259.842411 173.960867 
L 259.827961 173.951079 
" clip-path="url(#p94265c930f)" style="fill: none; stroke: #e6e6e6; stroke-width: 1.5; stroke-linecap: square"/>
   </g>
   <g id="line2d_6">
    <path d="M 234.232457 175.224961 
L 233.643567 175.172653 
L 233.243073 175.078542 
L 232.237288 175.263379 
L 231.211292 175.066611 
L 229.525005 174.638421 
L 227.777646 173.734437 
L 225.293748 172.307433 
L 215.85747 166.448499 
L 207.984536 160.545608 
L 196.735314 150.012643 
L 170.935585 127.194167 
L 123.29954 82.164231 
L 134.231609 75.622636 
L 150.855827 79.33292 
L 183.689521 103.369411 
L 201.661725 117.697035 
L 218.169389 132.777152 
L 227.777646 141.895715 
L 234.18335 148.129528 
L 241.210823 155.156737 
L 243.702791 157.650355 
L 247.760668 161.736771 
L 250.057446 164.046934 
L 253.226514 167.268507 
L 254.363735 168.402959 
L 256.541304 170.619213 
L 257.55897 171.646954 
L 258.309549 172.40444 
L 258.869839 172.969778 
L 259.22885 173.333342 
L 259.616368 173.734437 
L 259.759948 173.886107 
L 259.800366 173.928969 
L 259.82348 173.94764 
" clip-path="url(#p94265c930f)" style="fill: none; stroke: #e6e6e6; stroke-width: 1.5; stroke-linecap: square"/>
   </g>
   <g id="line2d_7">
    <path d="M 234.325085 175.601982 
L 233.948839 175.547413 
L 233.87582 175.774963 
L 232.574527 175.647604 
L 231.653972 175.147212 
L 229.946965 175.038504 
L 227.777646 173.734437 
L 223.938671 171.498491 
L 215.230328 165.127189 
L 208.171481 159.171172 
L 188.576669 142.351114 
L 169.364449 123.23079 
L 162.427604 108.251876 
L 126.095404 65.026241 
L 160.686248 87.421944 
L 186.232155 104.927419 
L 206.432174 122.466744 
L 220.056054 134.618771 
L 227.777646 141.895715 
L 234.459483 148.484486 
L 240.153726 154.116797 
L 243.928256 157.90761 
L 247.224059 161.250966 
L 250.11456 164.169963 
L 252.330842 166.385468 
L 254.423272 168.497193 
L 256.033615 170.100233 
L 257.260309 171.335289 
L 258.129415 172.216233 
L 258.767035 172.860106 
L 259.194413 173.290165 
L 259.616368 173.734437 
L 259.75007 173.876153 
L 259.804271 173.931402 
L 259.809753 173.936585 
" clip-path="url(#p94265c930f)" style="fill: none; stroke: #e6e6e6; stroke-width: 1.5; stroke-linecap: square"/>
   </g>
   <g id="line2d_8">
    <path d="M 234.659715 175.431518 
L 233.632847 175.532505 
L 233.817554 175.677664 
L 232.683892 175.27301 
L 231.453453 175.360819 
L 229.458143 174.407592 
L 227.777646 173.734437 
L 225.636098 172.40797 
L 222.549953 169.90545 
L 215.014773 162.992888 
L 211.11812 157.192584 
L 193.267076 139.090799 
L 184.911782 124.887943 
L 179.294095 112.199059 
L 198.072407 121.089318 
L 194.505068 113.234365 
L 214.825747 130.598126 
L 219.577905 134.127795 
L 227.777646 141.895715 
L 232.537997 146.47146 
L 237.904997 151.854054 
L 241.419524 155.324246 
L 245.087147 159.036361 
L 248.018388 161.9789 
L 251.053166 165.079501 
L 253.295956 167.318361 
L 255.201174 169.24741 
L 256.688873 170.754208 
L 257.80916 171.891176 
L 258.544699 172.638247 
L 259.093056 173.19498 
L 259.616368 173.734437 
L 259.816206 173.939673 
L 259.85677 173.985656 
L 259.850649 173.978222 
" clip-path="url(#p94265c930f)" style="fill: none; stroke: #e6e6e6; stroke-width: 1.5; stroke-linecap: square"/>
   </g>
   <g id="line2d_9">
    <path d="M 233.518851 175.083544 
L 233.509266 175.244552 
L 232.8776 175.196849 
L 232.282339 175.558798 
L 231.145023 175.055033 
L 229.59836 174.717748 
L 227.777646 173.734437 
L 224.626364 171.366865 
L 219.03524 166.490225 
L 212.555095 160.564197 
L 202.649089 148.838287 
L 194.134605 137.022987 
L 185.972557 122.735531 
L 188.718511 116.853792 
L 192.124531 114.085448 
L 203.512516 121.075532 
L 212.425197 127.801346 
L 221.367703 135.888907 
L 227.777646 141.895715 
L 233.420743 147.42025 
L 237.687316 151.662008 
L 241.585785 155.557421 
L 244.722279 158.707608 
L 247.727674 161.735906 
L 250.325601 164.363239 
L 252.468629 166.513061 
L 254.611287 168.675599 
L 256.179602 170.249294 
L 257.397379 171.47217 
L 258.311276 172.406243 
L 258.950189 173.045951 
L 259.616368 173.734437 
L 259.864902 173.992297 
L 259.936186 174.067049 
L 259.913443 174.047309 
" clip-path="url(#p94265c930f)" style="fill: none; stroke: #e6e6e6; stroke-width: 1.5; stroke-linecap: square"/>
   </g>
   <g id="line2d_10">
    <path d="M 231.74091 175.023421 
L 231.60454 175.032314 
L 231.348461 175.176391 
L 230.989742 175.307032 
L 230.155409 175.134434 
L 228.883693 174.298671 
L 227.777646 173.734437 
L 225.682382 172.395333 
L 221.626495 168.773954 
L 216.992644 164.580104 
L 212.317322 159.482218 
L 203.23777 149.056216 
L 198.218595 137.815626 
L 189.96906 123.306793 
L 195.050372 120.498238 
L 199.618915 119.320367 
L 215.90878 132.184181 
L 223.148446 137.943166 
L 227.777646 141.895715 
L 234.046216 148.013025 
L 238.401071 152.342989 
L 242.295551 156.231729 
L 245.466044 159.409856 
L 247.895442 161.842857 
L 250.902965 164.907329 
L 253.248084 167.28887 
L 255.092189 169.14955 
L 256.623115 170.693661 
L 257.758577 171.850642 
L 258.462025 172.5716 
L 259.053103 173.156081 
L 259.616368 173.734437 
L 259.792908 173.922698 
L 259.845316 173.980172 
L 259.891769 174.012096 
" clip-path="url(#p94265c930f)" style="fill: none; stroke: #e6e6e6; stroke-width: 1.5; stroke-linecap: square"/>
   </g>
   <g id="line2d_11">
    <path d="M 232.112933 175.159933 
L 232.269716 174.978263 
L 232.17 175.102711 
L 231.455524 175.189013 
L 230.886948 174.942367 
L 229.352093 174.416406 
L 227.777646 173.734437 
L 225.734006 172.653221 
L 219.176746 168.578716 
L 215.010389 164.900704 
L 196.226371 151.842671 
L 176.16456 134.098816 
L 145.809244 103.862518 
L 60.786562 22.644583 
L 177.054135 105.285284 
L 184.990754 106.235046 
L 204.118752 120.513476 
L 217.108151 131.722058 
L 227.777646 141.895715 
L 236.085534 150.07534 
L 239.252439 153.10997 
L 245.049572 158.952592 
L 247.878836 161.84334 
L 251.745534 165.725312 
L 252.481939 166.509044 
L 255.281076 169.329489 
L 256.661701 170.732263 
L 257.61129 171.693692 
L 258.367468 172.455534 
L 258.883866 172.980528 
L 259.228468 173.330269 
L 259.616368 173.734437 
L 259.736347 173.861333 
L 259.770474 173.897699 
L 259.765288 173.901992 
" clip-path="url(#p94265c930f)" style="fill: none; stroke: #e6e6e6; stroke-width: 1.5; stroke-linecap: square"/>
   </g>
   <g id="line2d_12">
    <path d="M 234.099395 175.295991 
L 233.928817 175.336885 
L 233.720323 175.361721 
L 232.816702 175.380679 
L 231.127751 175.014637 
L 229.737714 174.663931 
L 227.777646 173.734437 
L 225.215087 172.04135 
L 216.655645 165.764015 
L 205.987236 157.727524 
L 190.340894 142.408992 
L 175.597548 126.484833 
L 160.82135 104.896302 
L 135.947887 72.296623 
L 171.565294 95.248468 
L 184.623294 102.924528 
L 204.491933 120.10599 
L 220.336462 134.826195 
L 227.777646 141.895715 
L 233.490168 147.493099 
L 237.979021 151.939315 
L 241.846682 155.827064 
L 245.229546 159.217224 
L 247.723761 161.748047 
L 251.318469 165.3515 
L 253.51064 167.572597 
L 255.291573 169.362527 
L 256.794873 170.88786 
L 257.874407 171.970469 
L 258.545107 172.657742 
L 259.144138 173.252899 
L 259.616368 173.734437 
L 259.797434 173.925909 
L 259.852154 173.982524 
L 259.873769 174.012172 
" clip-path="url(#p94265c930f)" style="fill: none; stroke: #e6e6e6; stroke-width: 1.5; stroke-linecap: square"/>
   </g>
   <g id="line2d_13">
    <path d="M 232.561495 175.318473 
L 232.185644 175.297057 
L 231.769251 175.17027 
L 231.327684 175.291358 
L 230.0217 175.088735 
L 229.048116 174.474832 
L 227.777646 173.734437 
L 226.297983 172.488359 
L 222.188258 168.913037 
L 217.343549 164.030258 
L 209.660732 155.865707 
L 202.150466 145.244304 
L 186.240804 126.236376 
L 197.469151 127.102203 
L 192.081806 115.265819 
L 207.117622 125.47413 
L 212.683536 128.341674 
L 222.119724 136.749181 
L 227.777646 141.895715 
L 233.317756 147.2857 
L 237.707747 151.638758 
L 240.963354 154.929976 
L 244.687168 158.663684 
L 246.944921 160.970377 
L 250.437254 164.455101 
L 252.116489 166.161174 
L 254.492561 168.555879 
L 256.168909 170.243492 
L 257.420616 171.511267 
L 258.304779 172.404419 
L 258.973949 173.076505 
L 259.616368 173.734437 
L 259.862311 173.986213 
L 259.923897 174.051974 
L 259.927289 174.054841 
" clip-path="url(#p94265c930f)" style="fill: none; stroke: #e6e6e6; stroke-width: 1.5; stroke-linecap: square"/>
   </g>
   <g id="line2d_14">
    <path d="M 235.011143 175.203733 
L 234.746066 175.025704 
L 234.083206 175.220748 
L 232.858925 175.663346 
L 231.676401 175.198119 
L 230.160618 174.573857 
L 227.777646 173.734437 
L 224.487562 171.407605 
L 218.365865 166.930106 
L 212.058816 160.300219 
L 196.518174 147.687712 
L 182.681818 130.937613 
L 169.852758 111.183541 
L 145.026577 81.252158 
L 179.657762 103.694944 
L 190.751642 109.095315 
L 209.013153 124.506589 
L 217.272888 131.861113 
L 227.777646 141.895715 
L 234.4814 148.441662 
L 239.305951 153.246092 
L 242.99052 156.95987 
L 246.632475 160.613588 
L 249.488267 163.494164 
L 251.946552 165.978921 
L 254.023539 168.079363 
L 255.738399 169.803181 
L 257.022444 171.107606 
L 258.029583 172.122723 
L 258.680916 172.783605 
L 259.155533 173.258612 
L 259.616368 173.734437 
L 259.823488 173.939301 
L 259.846148 173.97017 
L 259.85427 173.974972 
" clip-path="url(#p94265c930f)" style="fill: none; stroke: #e6e6e6; stroke-width: 1.5; stroke-linecap: square"/>
   </g>
   <g id="line2d_15">
    <path d="M 232.656013 175.051248 
L 232.163212 174.8647 
L 232.017732 174.945629 
L 231.603519 175.083335 
L 230.080418 174.993096 
L 229.108098 174.446909 
L 227.777646 173.734437 
L 225.420016 172.131681 
L 218.397175 166.934688 
L 213.413865 162.1626 
L 205.429765 153.962289 
L 187.845733 137.057228 
L 175.100688 119.140892 
L 173.437464 107.231618 
L 172.237076 98.462697 
L 193.96389 113.004014 
L 207.440896 123.344603 
L 218.398486 133.036926 
L 227.777646 141.895715 
L 232.934694 146.863875 
L 238.264588 152.167335 
L 242.018726 155.918147 
L 245.32566 159.26302 
L 248.351452 162.316087 
L 251.043931 165.050469 
L 253.368614 167.39594 
L 255.218604 169.266157 
L 256.638154 170.700141 
L 257.813885 171.886251 
L 258.526718 172.61742 
L 259.081977 173.178385 
L 259.616368 173.734437 
L 259.827749 173.953838 
L 259.880447 174.011608 
L 259.887609 174.020501 
" clip-path="url(#p94265c930f)" style="fill: none; stroke: #e6e6e6; stroke-width: 1.5; stroke-linecap: square"/>
   </g>
   <g id="line2d_16">
    <path d="M 231.894823 175.087168 
L 231.665795 175.16298 
L 231.746032 175.145279 
L 231.171023 175.34813 
L 230.207288 175.10318 
L 229.207217 174.616871 
L 227.777646 173.734437 
L 224.972596 171.844014 
L 219.095048 166.900435 
L 213.219759 161.237846 
L 205.636309 152.916661 
L 193.077957 139.716409 
L 183.672735 124.599111 
L 181.262573 114.001222 
L 181.375132 106.478238 
L 196.686925 115.626212 
L 208.862183 124.819318 
L 219.522731 134.189856 
L 227.777646 141.895715 
L 233.47135 147.406773 
L 238.475186 152.396461 
L 242.294356 156.197542 
L 245.517785 159.462321 
L 248.601309 162.596058 
L 251.188879 165.199042 
L 253.531401 167.552927 
L 255.208171 169.267117 
L 256.655829 170.735109 
L 257.748989 171.843824 
L 258.488596 172.592732 
L 259.040854 173.149814 
L 259.616368 173.734437 
L 259.831049 173.955259 
L 259.866502 173.9955 
L 259.844607 173.982014 
" clip-path="url(#p94265c930f)" style="fill: none; stroke: #e6e6e6; stroke-width: 1.5; stroke-linecap: square"/>
   </g>
   <g id="line2d_17">
    <path d="M 232.586747 175.406147 
L 232.517117 175.289252 
L 232.424714 175.419719 
L 231.455945 175.369198 
L 230.486597 175.357199 
L 229.236805 174.419632 
L 227.777646 173.734437 
L 225.053874 171.925805 
L 219.145146 167.290805 
L 209.154907 160.234283 
L 203.948595 153.9093 
L 180.428691 132.296243 
L 176.036992 120.361906 
L 173.509233 107.290377 
L 179.561484 104.35604 
L 193.29879 111.970705 
L 207.062958 122.887653 
L 219.156089 133.715799 
L 227.777646 141.895715 
L 234.715466 148.688527 
L 239.007412 152.967579 
L 243.33657 157.29142 
L 246.343849 160.323365 
L 249.359865 163.377931 
L 251.654301 165.694098 
L 254.101358 168.155785 
L 255.679335 169.745021 
L 256.998078 171.084733 
L 258.013173 172.098984 
L 258.731869 172.822179 
L 259.165704 173.264567 
L 259.616368 173.734437 
L 259.786985 173.914381 
L 259.820025 173.953099 
L 259.808453 173.950856 
" clip-path="url(#p94265c930f)" style="fill: none; stroke: #e6e6e6; stroke-width: 1.5; stroke-linecap: square"/>
   </g>
   <g id="line2d_18">
    <path d="M 234.553384 175.720623 
L 234.400064 175.750708 
L 233.999279 175.787344 
L 233.537017 175.638727 
L 231.581666 175.568383 
L 230.224103 174.835999 
L 227.777646 173.734437 
L 224.392664 171.050109 
L 214.902654 163.369291 
L 200.394587 149.590908 
L 198.00028 145.063143 
L 185.902932 129.503885 
L 171.77825 109.749065 
L 164.078344 93.5091 
L 190.127637 111.687643 
L 192.745703 110.12494 
L 210.313012 125.709335 
L 220.210741 134.670839 
L 227.777646 141.895715 
L 233.592071 147.59914 
L 238.727009 152.727283 
L 242.439114 156.427726 
L 245.850787 159.855098 
L 248.958106 162.986603 
L 251.347978 165.38452 
L 253.79158 167.857771 
L 255.381394 169.439925 
L 256.799281 170.875551 
L 257.874562 171.959451 
L 258.611466 172.709172 
L 259.110171 173.207214 
L 259.616368 173.734437 
L 259.818574 173.941952 
L 259.860027 173.986903 
L 259.82728 173.963269 
" clip-path="url(#p94265c930f)" style="fill: none; stroke: #e6e6e6; stroke-width: 1.5; stroke-linecap: square"/>
   </g>
   <g id="line2d_19">
    <path d="M 232.428534 175.291616 
L 232.434687 175.306384 
L 232.184488 175.337347 
L 231.420275 175.340404 
L 230.321799 175.251725 
L 229.245607 174.8184 
L 227.777646 173.734437 
L 225.575013 172.163266 
L 220.390852 167.975315 
L 215.467244 163.457995 
L 206.945335 154.208662 
L 196.340773 141.515367 
L 185.087887 125.79435 
L 177.710469 110.746588 
L 182.408633 106.655959 
L 195.107987 113.794884 
L 210.284295 126.082217 
L 220.434153 135.041255 
L 227.777646 141.895715 
L 233.69362 147.644706 
L 238.30657 152.221495 
L 241.8227 155.724761 
L 245.395622 159.346069 
L 248.422408 162.40921 
L 251.105599 165.122201 
L 253.330232 167.365819 
L 255.160683 169.218642 
L 256.635517 170.70823 
L 257.801015 171.886445 
L 258.551058 172.647549 
L 259.06459 173.169164 
L 259.616368 173.734437 
L 259.830308 173.953285 
L 259.883339 174.009033 
L 259.870955 173.999785 
" clip-path="url(#p94265c930f)" style="fill: none; stroke: #e6e6e6; stroke-width: 1.5; stroke-linecap: square"/>
   </g>
   <g id="line2d_20">
    <path d="M 234.57582 175.451767 
L 234.201477 175.638092 
L 234.271194 175.631444 
L 232.97404 175.533082 
L 231.720456 175.355231 
L 229.99849 174.802062 
L 227.777646 173.734437 
L 225.06532 171.928284 
L 217.4571 166.696745 
L 213.856934 164.180632 
L 201.589552 151.699435 
L 175.340524 128.511234 
L 169.218363 113.46626 
L 165.419967 99.360589 
L 171.64197 96.444001 
L 197.750329 115.881057 
L 208.328583 123.958179 
L 221.036892 135.569147 
L 227.777646 141.895715 
L 234.146267 148.149052 
L 239.393656 153.365428 
L 242.499704 156.448773 
L 246.611295 160.618508 
L 249.452578 163.481085 
L 252.00999 166.068768 
L 254.057189 168.123429 
L 255.668817 169.746475 
L 256.974278 171.064951 
L 258.018881 172.111286 
L 258.705073 172.802841 
L 259.131424 173.239022 
L 259.616368 173.734437 
L 259.801475 173.92424 
L 259.858549 173.979853 
L 259.8441 173.973626 
" clip-path="url(#p94265c930f)" style="fill: none; stroke: #e6e6e6; stroke-width: 1.5; stroke-linecap: square"/>
   </g>
   <g id="line2d_21">
    <path d="M 234.546644 175.057713 
L 234.397373 175.216983 
L 233.774429 175.135123 
L 233.144681 175.370129 
L 231.52477 174.924201 
L 229.844719 173.80518 
L 227.777646 173.734437 
L 225.076399 172.023964 
L 217.036448 165.868026 
L 208.451504 158.609124 
L 192.80091 142.403475 
L 175.69534 125.542882 
L 174.801839 114.7147 
L 178.712362 110.698529 
L 189.773747 112.107295 
L 197.004531 115.482119 
L 211.192923 126.763502 
L 220.868623 135.427794 
L 227.777646 141.895715 
L 234.492563 148.526296 
L 239.747603 153.76092 
L 243.165491 157.146112 
L 246.438226 160.439254 
L 248.85239 162.857301 
L 251.86658 165.932835 
L 253.575856 167.629808 
L 255.590148 169.674057 
L 256.918777 171.0133 
L 257.960406 172.064335 
L 258.655118 172.762572 
L 259.134226 173.2394 
L 259.616368 173.734437 
L 259.813678 173.936183 
L 259.854614 173.981088 
L 259.815336 173.956275 
" clip-path="url(#p94265c930f)" style="fill: none; stroke: #e6e6e6; stroke-width: 1.5; stroke-linecap: square"/>
   </g>
   <g id="line2d_22">
    <path d="M 233.300122 175.568734 
L 233.213047 175.588948 
L 233.665321 175.027169 
L 231.839344 175.441196 
L 231.082652 175.165225 
L 229.648045 174.354442 
L 227.777646 173.734437 
L 226.050966 172.161198 
L 221.372252 168.118611 
L 216.118827 162.450749 
L 207.570238 152.423155 
L 204.025453 144.849731 
L 191.804029 128.723641 
L 198.232541 125.468576 
L 193.37236 115.462759 
L 205.639157 123.261282 
L 212.354309 127.854037 
L 221.852968 136.422703 
L 227.777646 141.895715 
L 233.779473 147.799898 
L 237.879336 151.842637 
L 241.494633 155.468898 
L 245.022641 159.009128 
L 247.924937 161.923124 
L 250.579821 164.597589 
L 253.091568 167.158676 
L 254.9921 169.05894 
L 256.52874 170.613482 
L 257.679881 171.771297 
L 258.467941 172.576326 
L 259.057122 173.154156 
L 259.616368 173.734437 
L 259.776953 173.900045 
L 259.821352 173.951609 
L 259.78265 173.924498 
" clip-path="url(#p94265c930f)" style="fill: none; stroke: #e6e6e6; stroke-width: 1.5; stroke-linecap: square"/>
   </g>
   <g id="line2d_23">
    <path d="M 233.663242 175.579046 
L 233.665275 175.570274 
L 233.171326 175.620007 
L 232.318004 175.503604 
L 231.229871 175.283967 
L 229.635097 174.689992 
L 227.777646 173.734437 
L 225.171834 171.940893 
L 218.882457 166.711022 
L 212.512492 160.973822 
L 202.760236 150.853993 
L 191.664177 137.115677 
L 186.883794 124.503418 
L 176.834383 107.731 
L 193.114943 115.458781 
L 199.046864 116.983111 
L 211.33175 126.753218 
L 221.803081 136.353965 
L 227.777646 141.895715 
L 233.462813 147.407536 
L 238.068639 151.988377 
L 241.443798 155.366925 
L 244.519428 158.457841 
L 248.121362 162.115465 
L 250.563261 164.570319 
L 253.038096 167.068312 
L 254.993187 169.043541 
L 256.526927 170.604026 
L 257.757036 171.836502 
L 258.500905 172.600854 
L 259.097152 173.195882 
L 259.616368 173.734437 
L 259.785433 173.912194 
L 259.848481 173.973734 
L 259.823338 173.959679 
" clip-path="url(#p94265c930f)" style="fill: none; stroke: #e6e6e6; stroke-width: 1.5; stroke-linecap: square"/>
   </g>
   <g id="line2d_24">
    <path d="M 234.081935 175.738147 
L 233.735558 175.746028 
L 233.271192 175.700761 
L 232.523497 175.593316 
L 231.247598 175.304583 
L 229.622049 174.718769 
L 227.777646 173.734437 
L 224.066027 171.219447 
L 215.870995 164.569619 
L 207.719117 157.355827 
L 193.076853 144.528063 
L 184.133715 130.574703 
L 163.782304 105.690551 
L 166.114484 96.942808 
L 181.264443 103.55137 
L 194.524202 112.134149 
L 209.917892 125.253448 
L 219.629983 134.100002 
L 227.777646 141.895715 
L 233.637114 147.629779 
L 238.291922 152.262668 
L 242.17036 156.152516 
L 245.743473 159.747873 
L 248.619808 162.641444 
L 251.290051 165.330494 
L 253.552807 167.611523 
L 255.327621 169.396866 
L 256.752428 170.833359 
L 257.843525 171.936177 
L 258.575119 172.672056 
L 259.12145 173.22164 
L 259.616368 173.734437 
L 259.858846 173.977002 
L 259.877957 174.003802 
L 259.859159 173.990075 
" clip-path="url(#p94265c930f)" style="fill: none; stroke: #e6e6e6; stroke-width: 1.5; stroke-linecap: square"/>
   </g>
   <g id="line2d_25">
    <path d="M 235.230872 175.678465 
L 235.704772 176.410367 
L 235.350428 176.362632 
L 234.26615 175.754127 
L 233.383194 176.336501 
L 230.433888 175.040237 
L 227.777646 173.734437 
L 224.269797 171.90371 
L 214.299571 165.012309 
L 205.989752 158.470278 
L 192.171575 146.890347 
L 169.759629 124.304954 
L 141.237453 93.666419 
L 138.973774 78.139268 
L 154.947362 81.269835 
L 179.259664 98.63915 
L 204.664502 120.47391 
L 217.014115 131.551813 
L 227.777646 141.895715 
L 233.348094 147.281695 
L 239.718627 153.692935 
L 243.668997 157.632184 
L 246.916343 160.899917 
L 249.753383 163.753748 
L 252.163431 166.201722 
L 254.256946 168.308323 
L 255.853737 169.917023 
L 257.112504 171.193368 
L 258.113916 172.199375 
L 258.720667 172.815088 
L 259.201788 173.294502 
L 259.616368 173.734437 
L 259.784979 173.908196 
L 259.829844 173.953725 
L 259.816642 173.945206 
" clip-path="url(#p94265c930f)" style="fill: none; stroke: #e6e6e6; stroke-width: 1.5; stroke-linecap: square"/>
   </g>
   <g id="line2d_26">
    <path d="M 236.301145 175.691678 
L 235.376665 175.638809 
L 234.457088 176.013876 
L 233.668212 175.830668 
L 231.244842 175.327331 
L 230.59531 174.721704 
L 227.777646 173.734437 
L 222.352586 169.992102 
L 214.432354 164.638439 
L 207.052695 157.879974 
L 195.461356 146.754678 
L 182.962485 131.361227 
L 166.548567 109.527 
L 163.795606 96.905626 
L 178.442316 101.886133 
L 194.130465 112.225744 
L 210.311507 125.865354 
L 219.218018 133.684143 
L 227.777646 141.895715 
L 233.042704 147.064794 
L 238.447737 152.384615 
L 242.207835 156.117296 
L 245.833554 159.797652 
L 248.731186 162.731682 
L 251.561206 165.607499 
L 253.684138 167.720629 
L 255.48455 169.540566 
L 256.866003 170.938218 
L 257.941154 172.014719 
L 258.602293 172.693355 
L 259.138684 173.229521 
L 259.616368 173.734437 
L 259.812714 173.932653 
L 259.863245 173.991022 
L 259.868183 174.001268 
" clip-path="url(#p94265c930f)" style="fill: none; stroke: #e6e6e6; stroke-width: 1.5; stroke-linecap: square"/>
   </g>
   <g id="line2d_27">
    <path d="M 234.330968 174.965164 
L 234.638729 175.301194 
L 234.317293 175.521007 
L 232.709697 175.340039 
L 231.885659 175.411315 
L 230.077865 174.699668 
L 227.777646 173.734437 
L 223.357725 171.121661 
L 214.115824 165.070852 
L 206.400072 158.793325 
L 194.085462 148.721687 
L 173.130718 127.656445 
L 122.884951 83.23503 
L 151.750652 90.305121 
L 151.293516 79.387705 
L 187.40848 106.73953 
L 203.785167 119.679561 
L 218.797324 133.367547 
L 227.777646 141.895715 
L 234.161046 148.115269 
L 239.290785 153.221267 
L 243.217016 157.171622 
L 246.559345 160.528923 
L 249.663675 163.674599 
L 251.993103 166.024232 
L 254.136665 168.192484 
L 255.794897 169.868274 
L 257.014153 171.101775 
L 257.977938 172.073404 
L 258.64995 172.754796 
L 259.105014 173.215519 
L 259.616368 173.734437 
L 259.804969 173.927579 
L 259.854301 173.979809 
L 259.846242 173.972357 
" clip-path="url(#p94265c930f)" style="fill: none; stroke: #e6e6e6; stroke-width: 1.5; stroke-linecap: square"/>
   </g>
   <g id="line2d_28">
    <path d="M 234.848601 176.052211 
L 234.34158 175.930631 
L 234.281147 176.587044 
L 233.708621 176.20988 
L 231.578332 175.651845 
L 230.412911 175.296789 
L 227.777646 173.734437 
L 223.320797 171.382471 
L 213.744586 163.782724 
L 205.13743 155.836027 
L 198.456252 148.910198 
L 181.114165 127.609211 
L 167.610411 108.122573 
L 172.006827 101.903359 
L 188.09063 109.64318 
L 199.02662 116.418555 
L 210.908291 126.189429 
L 219.387014 133.830778 
L 227.777646 141.895715 
L 233.551816 147.565215 
L 238.631025 152.615128 
L 242.753372 156.742679 
L 246.057277 160.070382 
L 248.727799 162.759807 
L 251.506628 165.559714 
L 253.543784 167.615019 
L 255.430677 169.51723 
L 256.771709 170.862147 
L 257.772181 171.87564 
L 258.538131 172.646557 
L 259.050261 173.164939 
L 259.616368 173.734437 
L 259.818583 173.93934 
L 259.864589 173.987138 
L 259.837711 173.963928 
" clip-path="url(#p94265c930f)" style="fill: none; stroke: #e6e6e6; stroke-width: 1.5; stroke-linecap: square"/>
   </g>
   <g id="line2d_29">
    <path d="M 234.352138 174.793966 
L 234.25152 175.095004 
L 233.163165 175.01171 
L 233.305303 175.570733 
L 230.92185 174.674559 
L 230.431036 174.417622 
L 227.777646 173.734437 
L 225.29178 171.676479 
L 220.087251 167.691872 
L 212.486502 161.88013 
L 203.1672 153.21548 
L 191.263426 139.306093 
L 179.233482 122.441818 
L 164.676674 104.753471 
L 185.03695 110.62774 
L 192.421807 111.412018 
L 212.901029 129.330965 
L 218.905197 133.51269 
L 227.777646 141.895715 
L 232.972617 146.887504 
L 239.465586 153.415242 
L 243.81079 157.769404 
L 246.430368 160.411115 
L 249.068625 163.076439 
L 251.877794 165.910913 
L 253.914917 167.972477 
L 255.480385 169.550994 
L 256.781325 170.865242 
L 257.816051 171.909778 
L 258.513825 172.618318 
L 259.053405 173.161474 
L 259.616368 173.734437 
L 259.824366 173.943321 
L 259.903212 174.030509 
L 259.8708 174.000298 
" clip-path="url(#p94265c930f)" style="fill: none; stroke: #e6e6e6; stroke-width: 1.5; stroke-linecap: square"/>
   </g>
   <g id="line2d_30">
    <path d="M 235.209513 175.261398 
L 234.794841 175.197261 
L 234.523334 175.661211 
L 233.933486 175.899474 
L 231.359245 175.291825 
L 230.910496 175.200166 
L 227.777646 173.734437 
L 223.06228 171.622803 
L 212.552295 163.963783 
L 204.328847 157.609154 
L 192.125379 146.514929 
L 167.161713 122.29378 
L 132.202729 87.037212 
L 133.612791 73.705307 
L 161.4977 87.409616 
L 183.938422 103.062984 
L 205.590797 121.296431 
L 218.932171 133.470372 
L 227.777646 141.895715 
L 234.112624 148.072365 
L 239.176557 153.139489 
L 243.422175 157.396285 
L 246.556439 160.546057 
L 249.605579 163.622604 
L 252.275591 166.328376 
L 254.154142 168.22079 
L 255.849464 169.933709 
L 257.065716 171.160105 
L 258.010074 172.112588 
L 258.657221 172.765924 
L 259.128306 173.241478 
L 259.616368 173.734437 
L 259.798347 173.919267 
L 259.859766 173.982511 
L 259.849695 173.972898 
" clip-path="url(#p94265c930f)" style="fill: none; stroke: #e6e6e6; stroke-width: 1.5; stroke-linecap: square"/>
   </g>
   <g id="line2d_31">
    <path d="M 234.958955 175.249494 
L 234.674267 175.609359 
L 234.543066 176.066609 
L 232.843545 176.256281 
L 232.325827 176.112226 
L 229.817282 174.955644 
L 227.777646 173.734437 
L 222.346736 170.432069 
L 213.81358 164.075441 
L 201.546166 154.499974 
L 188.000988 142.284454 
L 165.8074 118.379831 
L 147.161716 94.225052 
L 148.127854 83.060324 
L 170.83181 94.748094 
L 192.839044 111.085075 
L 207.132108 122.704407 
L 218.479633 132.935104 
L 227.777646 141.895715 
L 234.309384 148.303356 
L 239.065583 153.049222 
L 243.239136 157.238325 
L 246.415333 160.417493 
L 249.856921 163.903002 
L 251.834327 165.88093 
L 254.228709 168.301157 
L 255.67933 169.763195 
L 256.966226 171.061702 
L 257.860046 171.959846 
L 258.572675 172.678543 
L 259.093251 173.203993 
L 259.616368 173.734437 
L 259.819155 173.943095 
L 259.870852 173.993878 
L 259.87219 173.991608 
" clip-path="url(#p94265c930f)" style="fill: none; stroke: #e6e6e6; stroke-width: 1.5; stroke-linecap: square"/>
   </g>
   <g id="line2d_32">
    <path d="M 232.599505 175.879002 
L 232.582064 175.755565 
L 231.877982 175.246404 
L 231.745116 175.234066 
L 230.479833 174.83681 
L 229.211484 174.424544 
L 227.777646 173.734437 
L 225.556255 171.989249 
L 220.533162 167.740713 
L 215.972409 163.615458 
L 209.735173 156.513609 
L 202.409268 147.010303 
L 194.700321 134.212455 
L 188.788112 122.184301 
L 195.220681 119.773901 
L 200.234366 119.725131 
L 213.548728 129.674507 
L 219.799155 134.545823 
L 227.777646 141.895715 
L 232.813074 146.744113 
L 238.01734 151.893185 
L 241.432933 155.318811 
L 244.794047 158.71835 
L 247.873774 161.834898 
L 250.692135 164.685901 
L 253.173311 167.202518 
L 255.070095 169.125552 
L 256.529328 170.60799 
L 257.686621 171.78101 
L 258.501085 172.602821 
L 259.017178 173.129797 
L 259.616368 173.734437 
L 259.829653 173.955338 
L 259.862628 173.997273 
L 259.875311 174.002441 
" clip-path="url(#p94265c930f)" style="fill: none; stroke: #e6e6e6; stroke-width: 1.5; stroke-linecap: square"/>
   </g>
   <g id="line2d_33">
    <path d="M 232.840688 175.668937 
L 233.447007 175.950798 
L 233.541644 175.940542 
L 230.948872 175.128625 
L 232.436881 176.090918 
L 229.187725 174.481896 
L 227.777646 173.734437 
L 224.353741 171.191877 
L 219.351796 166.787762 
L 214.05083 162.004243 
L 206.329623 153.954123 
L 192.515767 138.144465 
L 187.631696 126.294794 
L 180.770242 112.603296 
L 192.481578 115.904575 
L 196.844699 115.257065 
L 212.614294 128.357808 
L 220.448157 135.064618 
L 227.777646 141.895715 
L 234.553158 148.578004 
L 238.564575 152.538689 
L 242.656888 156.631372 
L 246.099616 160.101526 
L 248.887477 162.895323 
L 251.216545 165.253281 
L 253.787303 167.83987 
L 255.420218 169.493137 
L 256.758473 170.84686 
L 257.789101 171.885538 
L 258.543704 172.649684 
L 259.053694 173.160655 
L 259.616368 173.734437 
L 259.834497 173.955218 
L 259.877447 174.002216 
L 259.866397 173.991218 
" clip-path="url(#p94265c930f)" style="fill: none; stroke: #e6e6e6; stroke-width: 1.5; stroke-linecap: square"/>
   </g>
   <g id="line2d_34">
    <path d="M 235.543987 175.432233 
L 235.247063 175.667021 
L 235.001749 175.870954 
L 234.018708 175.732006 
L 232.43404 175.686326 
L 229.989355 174.745324 
L 227.777646 173.734437 
L 222.525968 170.754436 
L 211.130565 163.082019 
L 200.698579 155.074038 
L 181.416462 139.118114 
L 151.517871 110.754628 
L 102.790001 62.387259 
L 109.760941 52.040422 
L 143.538828 70.144193 
L 174.729405 93.713835 
L 203.50168 119.102327 
L 217.811799 132.297566 
L 227.777646 141.895715 
L 234.240649 148.249666 
L 239.902115 153.879534 
L 243.903879 157.900409 
L 247.240337 161.251026 
L 250.245631 164.28273 
L 252.537457 166.591285 
L 254.492097 168.566067 
L 256.016698 170.105053 
L 257.153061 171.250242 
L 258.058911 172.16333 
L 258.692828 172.802493 
L 259.139559 173.252095 
L 259.616368 173.734437 
L 259.807734 173.928869 
L 259.862882 173.984031 
L 259.846017 173.969694 
" clip-path="url(#p94265c930f)" style="fill: none; stroke: #e6e6e6; stroke-width: 1.5; stroke-linecap: square"/>
   </g>
   <g id="line2d_35">
    <path d="M 234.277882 175.967272 
L 233.734166 175.4175 
L 233.408233 175.64725 
L 232.318543 175.764699 
L 231.112972 174.987428 
L 229.561004 174.717735 
L 227.777646 173.734437 
L 224.271953 171.461216 
L 215.760597 164.903753 
L 210.614493 160.187559 
L 201.729234 152.057795 
L 187.557889 137.192397 
L 175.39292 121.572961 
L 162.205792 98.987433 
L 160.155421 87.935996 
L 192.916337 112.191339 
L 208.937713 124.833198 
L 219.764775 134.355055 
L 227.777646 141.895715 
L 234.421233 148.394627 
L 239.318475 153.26117 
L 243.359829 157.316177 
L 246.528984 160.513388 
L 249.464648 163.475726 
L 251.960599 165.993901 
L 254.069981 168.127475 
L 255.58991 169.660153 
L 256.850321 170.936468 
L 257.866602 171.963264 
L 258.561537 172.668154 
L 259.074141 173.185692 
L 259.616368 173.734437 
L 259.802284 173.928102 
L 259.872445 173.996693 
L 259.856694 173.983414 
" clip-path="url(#p94265c930f)" style="fill: none; stroke: #e6e6e6; stroke-width: 1.5; stroke-linecap: square"/>
   </g>
   <g id="line2d_36">
    <path d="M 233.423315 176.25557 
L 232.628554 175.82293 
L 232.276189 175.446751 
L 230.966064 175.339284 
L 230.876249 175.238827 
L 229.279624 174.650328 
L 227.777646 173.734437 
L 224.946558 171.678153 
L 220.097386 166.815363 
L 216.089261 162.790739 
L 210.055184 155.759296 
L 202.298412 145.006692 
L 193.015162 131.948092 
L 190.718116 121.244547 
L 191.275197 115.894385 
L 204.024403 122.607208 
L 212.949995 128.821844 
L 220.13999 134.761816 
L 227.777646 141.895715 
L 233.199632 147.12792 
L 238.103103 151.984905 
L 241.834213 155.736214 
L 245.11144 159.035247 
L 247.966956 161.922798 
L 250.80034 164.805857 
L 253.199546 167.238249 
L 255.03376 169.087467 
L 256.449319 170.519418 
L 257.619574 171.706733 
L 258.41752 172.515255 
L 259.01322 173.118128 
L 259.616368 173.734437 
L 259.86324 173.983786 
L 259.897357 174.024526 
L 259.885638 174.018916 
" clip-path="url(#p94265c930f)" style="fill: none; stroke: #e6e6e6; stroke-width: 1.5; stroke-linecap: square"/>
   </g>
   <g id="line2d_37">
    <path d="M 234.222099 175.523079 
L 232.470975 175.264877 
L 232.344294 175.779027 
L 229.730202 175.00418 
L 227.777646 173.734437 
L 223.229003 170.801283 
L 212.207182 163.584588 
L 201.979995 155.515803 
L 183.468635 139.210415 
L 154.179488 111.105932 
L 103.042173 63.284831 
L 122.975063 61.592789 
L 162.922184 87.361023 
L 184.898831 103.225308 
L 205.057531 120.627287 
L 217.467598 132.03767 
L 227.777646 141.895715 
L 233.841075 147.860361 
L 239.572288 153.5816 
L 243.615246 157.62533 
L 246.976283 161.000621 
L 249.535652 163.576558 
L 252.065495 166.12592 
L 254.062906 168.133697 
L 255.881887 169.96905 
L 257.0688 171.159263 
L 257.9666 172.072162 
L 258.64672 172.751407 
L 259.075494 173.189719 
L 259.616368 173.734437 
L 259.857699 173.975966 
L 259.909645 174.033157 
L 259.896865 174.021591 
" clip-path="url(#p94265c930f)" style="fill: none; stroke: #e6e6e6; stroke-width: 1.5; stroke-linecap: square"/>
   </g>
   <g id="line2d_38">
    <path d="M 234.456127 176.150158 
L 233.678985 176.266601 
L 233.395129 176.090728 
L 232.28623 175.771274 
L 231.35156 175.848703 
L 229.926495 174.967108 
L 227.777646 173.734437 
L 222.776345 171.20178 
L 213.050982 164.475555 
L 203.976343 156.113006 
L 189.391371 142.412846 
L 163.314563 118.03098 
L 141.899158 89.352943 
L 141.948417 77.817023 
L 163.805276 87.911565 
L 186.102395 104.370985 
L 204.759886 120.263762 
L 219.094828 133.593677 
L 227.777646 141.895715 
L 234.18227 148.199776 
L 239.087548 153.075827 
L 243.533341 157.536435 
L 246.679313 160.696646 
L 250.003096 164.04642 
L 251.910067 165.966682 
L 253.949664 168.01963 
L 255.711131 169.795543 
L 257.013938 171.099754 
L 257.954235 172.049514 
L 258.644523 172.749938 
L 259.119888 173.227149 
L 259.616368 173.734437 
L 259.802844 173.924736 
L 259.877693 173.996603 
L 259.859568 173.979996 
" clip-path="url(#p94265c930f)" style="fill: none; stroke: #e6e6e6; stroke-width: 1.5; stroke-linecap: square"/>
   </g>
   <g id="line2d_39">
    <path d="M 233.217342 176.323203 
L 232.655297 175.900309 
L 232.699226 175.978462 
L 231.767542 175.846791 
L 231.086618 175.983971 
L 229.629993 174.445688 
L 227.777646 173.734437 
L 224.540863 171.281345 
L 219.269205 166.35187 
L 215.313177 162.07264 
L 208.950511 154.818497 
L 199.213856 142.909637 
L 191.648477 129.565551 
L 185.467309 116.513288 
L 194.240697 117.011995 
L 203.381225 121.83015 
L 211.78111 127.545824 
L 221.00281 135.584688 
L 227.777646 141.895715 
L 232.840874 146.801492 
L 237.56265 151.499836 
L 241.06976 154.991847 
L 244.442555 158.393353 
L 247.377163 161.360706 
L 250.333999 164.358869 
L 252.581558 166.619751 
L 254.781173 168.845944 
L 256.364438 170.445913 
L 257.569452 171.662945 
L 258.404431 172.510456 
L 259.012349 173.121356 
L 259.616368 173.734437 
L 259.856811 173.978846 
L 259.884581 174.014405 
L 259.902804 174.026806 
" clip-path="url(#p94265c930f)" style="fill: none; stroke: #e6e6e6; stroke-width: 1.5; stroke-linecap: square"/>
   </g>
   <g id="line2d_40">
    <path d="M 233.984052 176.527514 
L 235.232495 176.305005 
L 234.112534 175.826327 
L 233.946 175.771018 
L 232.541283 175.366452 
L 230.603788 175.031602 
L 227.777646 173.734437 
L 222.250991 169.630467 
L 210.429987 162.257679 
L 200.907515 153.719547 
L 184.145758 138.741221 
L 154.32279 109.631656 
L 134.12753 81.714526 
L 148.86065 82.048242 
L 157.422855 81.355377 
L 190.662716 108.343901 
L 206.286553 121.735182 
L 218.694374 133.121876 
L 227.777646 141.895715 
L 235.073033 149.11203 
L 239.691557 153.693552 
L 244.052093 158.068879 
L 247.320844 161.352758 
L 250.039896 164.092459 
L 252.523466 166.593677 
L 254.425261 168.503739 
L 256.04771 170.136566 
L 257.177874 171.279804 
L 258.072823 172.177068 
L 258.70124 172.809879 
L 259.142234 173.253845 
L 259.616368 173.734437 
L 259.792421 173.914204 
L 259.84176 173.964174 
L 259.808693 173.943792 
" clip-path="url(#p94265c930f)" style="fill: none; stroke: #e6e6e6; stroke-width: 1.5; stroke-linecap: square"/>
   </g>
   <g id="line2d_41">
    <path d="M 234.000825 175.170013 
L 233.531143 175.36889 
L 232.992468 175.147227 
L 231.360819 175.228685 
L 231.423129 175.165893 
L 228.959175 174.479023 
L 227.777646 173.734437 
L 224.261683 171.316133 
L 217.716995 165.834355 
L 211.933646 160.441846 
L 203.759036 152.069227 
L 194.198454 139.341104 
L 178.843515 120.048885 
L 177.610139 109.857716 
L 184.951782 108.300194 
L 200.738807 119.114459 
L 209.6048 125.319217 
L 215.729566 130.39324 
L 227.777646 141.895715 
L 233.222958 147.182113 
L 237.871826 151.811044 
L 241.440433 155.375717 
L 244.90203 158.866463 
L 247.924451 161.914816 
L 250.849012 164.87818 
L 253.288899 167.339143 
L 255.075107 169.143726 
L 256.558742 170.639228 
L 257.709935 171.799959 
L 258.526253 172.624841 
L 259.075622 173.18138 
L 259.616368 173.734437 
L 259.867506 173.985931 
L 259.907845 174.027965 
L 259.890715 174.012946 
" clip-path="url(#p94265c930f)" style="fill: none; stroke: #e6e6e6; stroke-width: 1.5; stroke-linecap: square"/>
   </g>
   <g id="line2d_42">
    <path d="M 233.459314 175.700969 
L 233.396518 175.416247 
L 232.690453 175.490874 
L 232.244248 175.802189 
L 231.886932 175.14064 
L 229.371596 174.681024 
L 227.777646 173.734437 
L 224.142871 171.379016 
L 218.590515 167.003445 
L 212.458612 161.488924 
L 204.598973 153.001044 
L 193.645111 140.12652 
L 186.054549 126.556373 
L 178.948304 111.464826 
L 183.563199 108.436568 
L 193.3518 112.28484 
L 210.239375 126.087116 
L 219.097073 133.686612 
L 227.777646 141.895715 
L 233.473947 147.444671 
L 238.517766 152.447027 
L 242.487509 156.409791 
L 245.720781 159.6921 
L 248.5698 162.557981 
L 251.197907 165.217645 
L 253.469053 167.521037 
L 255.317366 169.386683 
L 256.59663 170.681329 
L 257.745329 171.841559 
L 258.451463 172.555195 
L 259.017258 173.125969 
L 259.616368 173.734437 
L 259.860508 173.981626 
L 259.901247 174.029382 
L 259.891338 174.019997 
" clip-path="url(#p94265c930f)" style="fill: none; stroke: #e6e6e6; stroke-width: 1.5; stroke-linecap: square"/>
   </g>
   <g id="line2d_43">
    <path d="M 235.04705 175.618107 
L 234.313712 175.464044 
L 233.749387 175.401535 
L 233.232518 175.880239 
L 231.171592 174.813568 
L 229.901171 175.51372 
L 227.777646 173.734437 
M 215.304211 165.30858 
L 209.494967 160.195 
L 197.891227 150.112978 
L 177.622028 130.88276 
L 160.870706 108.747683 
L 164.064028 100.187705 
L 161.426088 88.31658 
L 187.75381 107.210539 
L 207.2444 123.00857 
L 219.675938 134.239783 
L 227.777646 141.895715 
L 234.323009 148.269694 
L 239.290951 153.212822 
L 242.973772 156.914045 
L 246.523007 160.490096 
L 249.367737 163.360774 
L 251.840856 165.865266 
L 253.884929 167.931067 
L 255.602843 169.6742 
L 256.858878 170.942472 
L 257.834651 171.934196 
L 258.577668 172.684169 
L 259.056029 173.170917 
L 259.616368 173.734437 
L 259.825708 173.951298 
L 259.872312 174.00321 
L 259.864172 173.996654 
" clip-path="url(#p94265c930f)" style="fill: none; stroke: #e6e6e6; stroke-width: 1.5; stroke-linecap: square"/>
   </g>
   <g id="line2d_44">
    <path d="M 234.472349 175.863717 
L 234.249664 175.918657 
L 233.590053 176.014673 
L 233.080365 175.895441 
L 231.786857 175.560927 
L 230.217557 175.146185 
L 227.777646 173.734437 
L 223.311715 171.054404 
L 214.983384 164.228924 
L 209.529127 158.583453 
L 198.135295 147.350991 
L 183.808592 130.878272 
L 173.518517 113.820733 
L 172.711105 103.420334 
L 180.878847 104.135888 
L 198.984158 116.731273 
L 210.695958 126.124122 
L 219.52531 134.000785 
L 227.777646 141.895715 
L 233.951138 147.942738 
L 238.980203 152.957292 
L 242.993362 156.976566 
L 245.949198 159.947624 
L 249.134601 163.158991 
L 251.615458 165.663805 
L 253.744825 167.810836 
L 255.524658 169.605475 
L 256.816004 170.908763 
L 257.833742 171.935769 
L 258.588444 172.68623 
L 259.065932 173.177992 
L 259.616368 173.734437 
L 259.803616 173.926488 
L 259.851792 173.9782 
L 259.842695 173.971422 
" clip-path="url(#p94265c930f)" style="fill: none; stroke: #e6e6e6; stroke-width: 1.5; stroke-linecap: square"/>
   </g>
   <g id="line2d_45">
    <path d="M 235.96187 176.227705 
L 234.375512 175.539517 
L 234.341108 175.983506 
L 233.66614 176.134504 
L 233.495632 176.071464 
L 229.454408 174.508918 
L 227.777646 173.734437 
L 222.677182 170.520328 
L 214.946946 164.460691 
L 207.283392 157.864395 
L 193.897198 145.501685 
L 169.720717 122.80422 
L 156.767285 103.059569 
L 142.210658 79.552369 
L 166.384516 91.098849 
L 181.000637 99.985158 
L 208.163989 123.981497 
L 217.932286 132.412444 
L 227.777646 141.895715 
L 233.961694 147.958181 
L 240.102827 154.103748 
L 244.120427 158.135637 
L 247.372958 161.398944 
L 250.037592 164.080779 
L 252.536898 166.585055 
L 254.255768 168.335284 
L 255.947098 170.025225 
L 257.144199 171.230116 
L 258.051162 172.149794 
L 258.693907 172.798324 
L 259.115694 173.225913 
L 259.616368 173.734437 
L 259.792665 173.915882 
L 259.856839 173.982645 
L 259.835373 173.960414 
" clip-path="url(#p94265c930f)" style="fill: none; stroke: #e6e6e6; stroke-width: 1.5; stroke-linecap: square"/>
   </g>
   <g id="line2d_46">
    <path d="M 233.183546 175.495255 
L 233.378718 175.635704 
L 232.592247 175.383769 
L 231.950131 175.412566 
L 230.862756 175.076168 
L 229.741568 174.554899 
L 227.777646 173.734437 
L 224.704813 171.388928 
L 218.916969 166.070895 
L 214.767138 161.716233 
L 208.051479 154.481414 
L 198.100043 141.874582 
L 187.140073 126.492569 
L 182.256143 113.939201 
L 188.248913 112.105213 
L 200.541918 119.060256 
L 211.16538 126.990467 
L 220.141765 134.729682 
L 227.777646 141.895715 
L 233.224642 147.157204 
L 237.841555 151.744234 
L 241.445208 155.35138 
L 244.80587 158.738826 
L 247.861757 161.83743 
L 250.664103 164.670878 
L 252.994508 167.022977 
L 254.967436 169.028767 
L 256.463663 170.543044 
L 257.63615 171.727727 
L 258.462911 172.564394 
L 259.031173 173.137725 
L 259.616368 173.734437 
L 259.830684 173.955043 
L 259.895205 174.022441 
L 259.883462 174.009845 
" clip-path="url(#p94265c930f)" style="fill: none; stroke: #e6e6e6; stroke-width: 1.5; stroke-linecap: square"/>
   </g>
   <g id="line2d_47">
    <path d="M 236.139881 175.10433 
L 235.722737 174.974186 
L 235.534009 175.483749 
L 234.538171 175.552009 
L 231.304114 175.04494 
L 232.83485 174.368857 
L 227.777646 173.734437 
L 226.185196 171.816928 
L 216.542242 165.853759 
L 206.840233 159.248155 
L 188.52826 146.617598 
L 159.848058 121.839042 
L 55.071979 38.682648 
L 72.868677 29.641906 
L 92.680006 29.23036 
L 162.309003 83.623392 
L 194.660421 110.854934 
L 214.075284 128.718036 
L 227.777646 141.895715 
L 235.638385 149.65448 
L 241.038243 155.008261 
L 244.621747 158.596414 
L 248.051891 162.052017 
L 250.324213 164.325345 
L 253.113524 167.14473 
L 254.893381 168.959325 
L 256.313221 170.392126 
L 257.356102 171.445139 
L 258.229251 172.329363 
L 258.754676 172.860678 
L 259.137011 173.249525 
L 259.616368 173.734437 
L 259.813282 173.933041 
L 259.843262 173.968668 
L 259.843069 173.969749 
" clip-path="url(#p94265c930f)" style="fill: none; stroke: #e6e6e6; stroke-width: 1.5; stroke-linecap: square"/>
   </g>
   <g id="line2d_48">
    <path d="M 234.460008 177.090417 
L 234.412718 176.960055 
L 234.013429 176.655104 
L 232.942577 176.543207 
L 231.645459 176.183983 
L 230.124996 174.912903 
L 227.777646 173.734437 
L 225.437503 172.095472 
L 218.589613 166.536416 
L 214.735158 162.668687 
L 208.601241 156.084658 
L 200.955567 145.745589 
L 191.993525 132.732175 
L 190.027999 122.337827 
L 190.303987 115.558987 
L 200.239841 119.509037 
L 212.098259 128.22794 
L 221.382849 136.067375 
L 227.777646 141.895715 
L 233.967922 147.88879 
L 238.883672 152.760501 
L 242.373308 156.277247 
L 245.668353 159.584337 
L 248.46225 162.421226 
L 251.197414 165.179172 
L 253.320622 167.345875 
L 255.124086 169.172701 
L 256.610052 170.678395 
L 257.737136 171.825201 
L 258.514867 172.612783 
L 259.043661 173.150978 
L 259.616368 173.734437 
L 259.806824 173.934658 
L 259.872248 174.003181 
L 259.876036 174.008534 
" clip-path="url(#p94265c930f)" style="fill: none; stroke: #e6e6e6; stroke-width: 1.5; stroke-linecap: square"/>
   </g>
   <g id="line2d_49">
    <path d="M 235.313248 175.834212 
L 234.575208 175.622522 
L 234.368659 175.736017 
L 233.32094 175.957611 
L 232.007534 175.676718 
L 230.128624 175.004515 
L 227.777646 173.734437 
L 222.976548 170.926184 
L 212.781351 163.964623 
L 205.483614 157.773808 
L 189.560178 144.436176 
L 173.915955 125.878123 
L 148.462105 97.422926 
L 151.743929 87.137968 
L 172.773781 97.042897 
L 188.158154 106.619115 
L 204.710471 120.496481 
L 219.647909 134.192739 
L 227.777646 141.895715 
L 234.339949 148.350375 
L 239.488312 153.477796 
L 243.924438 157.924819 
L 246.766892 160.78012 
L 249.893914 163.935604 
L 252.165247 166.218703 
L 254.254881 168.327596 
L 255.819861 169.902895 
L 256.993731 171.085883 
L 257.91279 172.014764 
L 258.606238 172.71232 
L 259.033354 173.143707 
L 259.616368 173.734437 
L 259.79407 173.916283 
L 259.854848 173.98134 
L 259.833236 173.965651 
" clip-path="url(#p94265c930f)" style="fill: none; stroke: #e6e6e6; stroke-width: 1.5; stroke-linecap: square"/>
   </g>
   <g id="line2d_50">
    <path d="M 232.282826 175.642905 
L 232.357049 175.595391 
L 232.408815 175.497885 
L 231.279952 175.555001 
L 230.72176 175.361432 
L 229.535827 174.510543 
L 227.777646 173.734437 
L 224.716097 172.035005 
L 219.929015 167.952952 
L 214.138098 163.642578 
L 204.538683 154.37243 
L 193.933356 143.443183 
L 181.07773 124.477606 
L 179.551229 116.661507 
L 144.035109 75.966118 
L 188.267597 108.76482 
L 204.404875 120.826847 
L 218.246047 132.889625 
L 227.777646 141.895715 
L 234.49196 148.448841 
L 239.780233 153.70701 
L 243.848929 157.776945 
L 247.324883 161.298477 
L 250.169387 164.16829 
L 252.122367 166.1423 
L 254.376877 168.425981 
L 255.914215 169.985825 
L 257.087509 171.1689 
L 258.04527 172.142931 
L 258.629507 172.730782 
L 259.126869 173.238318 
L 259.616368 173.734437 
L 259.806572 173.932141 
L 259.872819 173.999513 
L 259.880605 174.00857 
" clip-path="url(#p94265c930f)" style="fill: none; stroke: #e6e6e6; stroke-width: 1.5; stroke-linecap: square"/>
   </g>
   <g id="line2d_51">
    <path d="M 234.241616 175.274929 
L 232.739359 175.125706 
L 232.572381 175.356166 
L 232.913009 175.855515 
L 230.952313 174.965115 
L 229.478764 174.732347 
L 227.777646 173.734437 
L 223.863833 171.285101 
L 215.507432 165.302586 
L 206.976941 158.568984 
L 192.105706 145.634944 
L 178.052761 129.792613 
L 158.666009 106.568616 
L 160.415645 96.151676 
L 175.601805 100.368709 
L 194.934159 113.469075 
L 210.839625 126.540953 
L 218.802449 133.399736 
L 227.777646 141.895715 
L 234.528814 148.530262 
L 239.286768 153.238096 
L 243.48075 157.453821 
L 246.659747 160.647108 
L 249.457742 163.476888 
L 251.932945 165.962204 
L 253.93973 168.001966 
L 255.602053 169.675847 
L 256.856056 170.942803 
L 257.881051 171.978128 
L 258.587199 172.688798 
L 259.054963 173.166591 
L 259.616368 173.734437 
L 259.80374 173.925843 
L 259.861611 173.986642 
L 259.84612 173.979405 
" clip-path="url(#p94265c930f)" style="fill: none; stroke: #e6e6e6; stroke-width: 1.5; stroke-linecap: square"/>
   </g>
   <g id="line2d_52">
    <path d="M 233.471057 175.84958 
L 233.982612 175.815447 
L 234.119903 176.170237 
L 232.436954 176.03311 
L 231.771656 175.80326 
L 229.436543 175.123239 
L 227.777646 173.734437 
L 223.320465 171.058441 
L 215.115828 164.422159 
L 209.881842 159.115887 
L 203.128592 151.169904 
L 192.908979 137.325393 
L 183.746345 122.613496 
L 185.033474 114.778775 
L 192.090396 114.74841 
L 202.027599 119.883726 
L 212.793821 128.475155 
L 220.39793 134.932563 
L 227.777646 141.895715 
L 233.856888 147.844902 
L 238.114551 152.095166 
L 242.069125 156.0222 
L 245.471154 159.443352 
L 248.426769 162.427641 
L 251.2669 165.285039 
L 253.310321 167.362039 
L 255.114609 169.177006 
L 256.577144 170.653147 
L 257.751279 171.844035 
L 258.504582 172.606178 
L 259.020652 173.129214 
L 259.616368 173.734437 
L 259.819248 173.941208 
L 259.880533 174.005411 
L 259.867974 173.999992 
" clip-path="url(#p94265c930f)" style="fill: none; stroke: #e6e6e6; stroke-width: 1.5; stroke-linecap: square"/>
   </g>
   <g id="line2d_53">
    <path d="M 234.945747 176.17313 
L 234.593342 175.838646 
L 234.387172 176.519171 
L 233.271467 176.634132 
L 232.709322 175.394321 
L 230.109581 175.354749 
L 227.777646 173.734437 
L 223.3386 171.482445 
L 213.755744 163.393359 
L 207.789411 157.811944 
L 195.229539 145.322115 
L 182.569611 130.378209 
L 163.004676 105.616171 
L 162.717672 95.639871 
L 188.006979 110.28668 
L 194.084047 112.20198 
L 207.903045 123.375445 
L 216.947177 131.460665 
L 227.777646 141.895715 
L 234.323771 148.348496 
L 239.610762 153.610567 
L 243.105061 157.11031 
L 246.644722 160.664176 
L 249.397518 163.442454 
L 251.807281 165.873071 
L 253.883628 167.954458 
L 255.662075 169.747932 
L 256.860405 170.95397 
L 257.978953 172.072766 
L 258.633467 172.74069 
L 259.077631 173.195822 
L 259.616368 173.734437 
L 259.794725 173.915459 
L 259.851602 173.973894 
L 259.851298 173.978984 
" clip-path="url(#p94265c930f)" style="fill: none; stroke: #e6e6e6; stroke-width: 1.5; stroke-linecap: square"/>
   </g>
   <g id="line2d_54">
    <path d="M 34.584375 173.734437 
L 280.435625 173.734437 
" clip-path="url(#p94265c930f)" style="fill: none; stroke: #404040; stroke-width: 2; stroke-linecap: square"/>
   </g>
   <g id="line2d_55">
    <path d="M 34.584375 141.895715 
L 280.435625 141.895715 
" clip-path="url(#p94265c930f)" style="fill: none; stroke-dasharray: 1.5,2.475; stroke-dashoffset: 0; stroke: #bfbfbf; stroke-width: 1.5"/>
   </g>
   <g id="line2d_56">
    <path d="M 227.777646 192.535 
L 227.777646 7.2 
" clip-path="url(#p94265c930f)" style="fill: none; stroke: #404040; stroke-width: 2; stroke-linecap: square"/>
   </g>
   <g id="line2d_57">
    <path d="M 259.616368 192.535 
L 259.616368 7.2 
" clip-path="url(#p94265c930f)" style="fill: none; stroke-dasharray: 1.5,2.475; stroke-dashoffset: 0; stroke: #bfbfbf; stroke-width: 1.5"/>
   </g>
   <g id="matplotlib.axis_1">
    <g id="xtick_1">
     <g id="line2d_58">
      <defs>
       <path id="mb00fc7e729" d="M 0 0 
L 0 3.5 
" style="stroke: #000000; stroke-width: 0.8"/>
      </defs>
      <g>
       <use xlink:href="#mb00fc7e729" x="36.745314" y="192.535" style="stroke: #000000; stroke-width: 0.8"/>
      </g>
     </g>
     <g id="text_1">
      <!-- -6 -->
      <g transform="translate(32.582814 206.474063)scale(0.1 -0.1)">
       <defs>
        <path id="CMUSerif-Roman-2d" d="M 63 1191 
L 63 1569 
L 1766 1569 
L 1766 1191 
L 63 1191 
z
" transform="scale(0.015625)"/>
        <path id="CMUSerif-Roman-36" d="M 269 2022 
Q 269 3028 781 3645 
Q 1294 4263 1953 4263 
Q 2338 4263 2552 4067 
Q 2766 3872 2766 3572 
Q 2766 3406 2669 3334 
Q 2572 3263 2472 3263 
Q 2356 3263 2265 3341 
Q 2175 3419 2175 3559 
Q 2175 3847 2528 3847 
Q 2363 4103 1966 4103 
Q 1844 4103 1719 4067 
Q 1594 4031 1431 3912 
Q 1269 3794 1144 3606 
Q 1019 3419 931 3066 
Q 844 2713 844 2253 
L 844 2100 
Q 1106 2734 1643 2732 
Q 2181 2731 2553 2322 
Q 2925 1913 2925 1306 
Q 2925 684 2537 271 
Q 2150 -141 1606 -141 
Q 1363 -141 1142 -39 
Q 922 63 717 294 
Q 513 525 391 969 
Q 269 1413 269 2022 
z
M 856 1447 
Q 856 819 972 519 
Q 991 469 1033 400 
Q 1075 331 1148 242 
Q 1222 153 1344 95 
Q 1466 38 1606 38 
Q 2034 38 2241 453 
Q 2350 684 2350 1313 
Q 2350 1953 2234 2188 
Q 2038 2584 1638 2584 
Q 1369 2584 1183 2400 
Q 997 2216 926 1969 
Q 856 1722 856 1447 
z
" transform="scale(0.015625)"/>
       </defs>
       <use xlink:href="#CMUSerif-Roman-2d"/>
       <use xlink:href="#CMUSerif-Roman-36" x="33.251953"/>
      </g>
     </g>
    </g>
    <g id="xtick_2">
     <g id="line2d_59">
      <g>
       <use xlink:href="#mb00fc7e729" x="68.584036" y="192.535" style="stroke: #000000; stroke-width: 0.8"/>
      </g>
     </g>
     <g id="text_2">
      <!-- -5 -->
      <g transform="translate(64.421536 206.474063)scale(0.1 -0.1)">
       <defs>
        <path id="CMUSerif-Roman-35" d="M 319 1031 
Q 319 1222 422 1295 
Q 525 1369 634 1369 
Q 781 1369 867 1276 
Q 953 1184 953 1056 
Q 953 928 867 836 
Q 781 744 634 744 
Q 563 744 525 756 
Q 609 463 867 250 
Q 1125 38 1466 38 
Q 1894 38 2150 453 
Q 2303 722 2303 1331 
Q 2303 1869 2188 2138 
Q 2009 2547 1644 2547 
Q 1125 2547 819 2100 
Q 781 2044 738 2041 
Q 675 2041 661 2077 
Q 647 2113 647 2209 
L 647 4103 
Q 647 4256 709 4256 
Q 734 4256 788 4238 
Q 1191 4059 1638 4056 
Q 2097 4056 2509 4244 
Q 2541 4263 2559 4263 
Q 2622 4263 2625 4191 
Q 2625 4166 2573 4092 
Q 2522 4019 2412 3923 
Q 2303 3828 2162 3737 
Q 2022 3647 1817 3586 
Q 1613 3525 1388 3525 
Q 1119 3525 844 3609 
L 844 2363 
Q 1175 2688 1656 2688 
Q 2169 2688 2522 2275 
Q 2875 1863 2875 1288 
Q 2875 684 2458 271 
Q 2041 -141 1478 -141 
Q 966 -141 642 225 
Q 319 591 319 1031 
z
" transform="scale(0.015625)"/>
       </defs>
       <use xlink:href="#CMUSerif-Roman-2d"/>
       <use xlink:href="#CMUSerif-Roman-35" x="33.251953"/>
      </g>
     </g>
    </g>
    <g id="xtick_3">
     <g id="line2d_60">
      <g>
       <use xlink:href="#mb00fc7e729" x="100.422758" y="192.535" style="stroke: #000000; stroke-width: 0.8"/>
      </g>
     </g>
     <g id="text_3">
      <!-- -4 -->
      <g transform="translate(96.260258 206.474063)scale(0.1 -0.1)">
       <defs>
        <path id="CMUSerif-Roman-34" d="M 178 1056 
L 178 1253 
L 2144 4256 
Q 2194 4334 2272 4331 
Q 2344 4331 2359 4303 
Q 2375 4275 2375 4166 
L 2375 1253 
L 3016 1253 
L 3016 1056 
L 2375 1056 
L 2375 500 
Q 2375 316 2451 256 
Q 2528 197 2859 197 
L 2994 197 
L 2994 0 
Q 2731 19 2125 19 
Q 1522 19 1259 0 
L 1259 197 
L 1394 197 
Q 1725 197 1803 255 
Q 1881 313 1881 500 
L 1881 1056 
L 178 1056 
z
M 359 1253 
L 1919 1253 
L 1919 3641 
L 359 1253 
z
" transform="scale(0.015625)"/>
       </defs>
       <use xlink:href="#CMUSerif-Roman-2d"/>
       <use xlink:href="#CMUSerif-Roman-34" x="33.251953"/>
      </g>
     </g>
    </g>
    <g id="xtick_4">
     <g id="line2d_61">
      <g>
       <use xlink:href="#mb00fc7e729" x="132.26148" y="192.535" style="stroke: #000000; stroke-width: 0.8"/>
      </g>
     </g>
     <g id="text_4">
      <!-- -3 -->
      <g transform="translate(128.09898 206.474063)scale(0.1 -0.1)">
       <defs>
        <path id="CMUSerif-Roman-33" d="M 269 863 
Q 269 1053 378 1143 
Q 488 1234 628 1234 
Q 775 1234 879 1139 
Q 984 1044 984 878 
Q 984 700 861 600 
Q 738 500 563 525 
Q 716 269 998 153 
Q 1281 38 1544 38 
Q 1819 38 2042 275 
Q 2266 513 2266 1094 
Q 2266 1588 2073 1872 
Q 1881 2156 1503 2156 
L 1222 2156 
Q 1125 2156 1097 2165 
Q 1069 2175 1069 2228 
Q 1069 2291 1166 2303 
Q 1263 2303 1416 2322 
Q 1788 2334 1984 2656 
Q 2163 2956 2163 3384 
Q 2163 3775 1977 3939 
Q 1791 4103 1550 4103 
Q 1325 4103 1078 4009 
Q 831 3916 697 3706 
Q 1094 3706 1094 3384 
Q 1094 3244 1005 3151 
Q 916 3059 769 3059 
Q 628 3059 534 3148 
Q 441 3238 441 3391 
Q 441 3756 767 4009 
Q 1094 4263 1575 4263 
Q 2050 4263 2401 4013 
Q 2753 3763 2753 3378 
Q 2753 3000 2503 2690 
Q 2253 2381 1856 2253 
Q 2344 2156 2634 1826 
Q 2925 1497 2925 1094 
Q 2925 594 2531 226 
Q 2138 -141 1563 -141 
Q 1031 -141 650 146 
Q 269 434 269 863 
z
" transform="scale(0.015625)"/>
       </defs>
       <use xlink:href="#CMUSerif-Roman-2d"/>
       <use xlink:href="#CMUSerif-Roman-33" x="33.251953"/>
      </g>
     </g>
    </g>
    <g id="xtick_5">
     <g id="line2d_62">
      <g>
       <use xlink:href="#mb00fc7e729" x="164.100202" y="192.535" style="stroke: #000000; stroke-width: 0.8"/>
      </g>
     </g>
     <g id="text_5">
      <!-- -2 -->
      <g transform="translate(159.937702 206.474063)scale(0.1 -0.1)">
       <defs>
        <path id="CMUSerif-Roman-32" d="M 319 0 
Q 319 116 330 150 
Q 341 184 391 238 
L 1619 1606 
Q 2291 2363 2291 3022 
Q 2291 3450 2067 3756 
Q 1844 4063 1434 4063 
Q 1153 4063 915 3891 
Q 678 3719 569 3413 
Q 588 3419 653 3419 
Q 813 3419 902 3319 
Q 991 3219 991 3084 
Q 991 2913 880 2830 
Q 769 2747 659 2747 
Q 616 2747 558 2756 
Q 500 2766 409 2855 
Q 319 2944 319 3103 
Q 319 3550 658 3906 
Q 997 4263 1516 4263 
Q 2103 4263 2489 3914 
Q 2875 3566 2875 3022 
Q 2875 2831 2817 2657 
Q 2759 2484 2682 2350 
Q 2606 2216 2400 2000 
Q 2194 1784 2028 1631 
Q 1863 1478 1491 1153 
L 813 494 
L 1966 494 
Q 2528 494 2572 544 
Q 2634 634 2713 1113 
L 2875 1113 
L 2694 0 
L 319 0 
z
" transform="scale(0.015625)"/>
       </defs>
       <use xlink:href="#CMUSerif-Roman-2d"/>
       <use xlink:href="#CMUSerif-Roman-32" x="33.251953"/>
      </g>
     </g>
    </g>
    <g id="xtick_6">
     <g id="line2d_63">
      <g>
       <use xlink:href="#mb00fc7e729" x="195.938924" y="192.535" style="stroke: #000000; stroke-width: 0.8"/>
      </g>
     </g>
     <g id="text_6">
      <!-- -1 -->
      <g transform="translate(191.776424 206.474063)scale(0.1 -0.1)">
       <defs>
        <path id="CMUSerif-Roman-31" d="M 569 3653 
L 569 3853 
Q 1338 3853 1734 4263 
Q 1844 4263 1862 4238 
Q 1881 4213 1881 4097 
L 1881 506 
Q 1881 316 1975 256 
Q 2069 197 2478 197 
L 2681 197 
L 2681 0 
Q 2456 19 1643 19 
Q 831 19 609 0 
L 609 197 
L 813 197 
Q 1216 197 1312 255 
Q 1409 313 1409 506 
L 1409 3822 
Q 1075 3653 569 3653 
z
" transform="scale(0.015625)"/>
       </defs>
       <use xlink:href="#CMUSerif-Roman-2d"/>
       <use xlink:href="#CMUSerif-Roman-31" x="33.251953"/>
      </g>
     </g>
    </g>
    <g id="xtick_7">
     <g id="line2d_64">
      <g>
       <use xlink:href="#mb00fc7e729" x="227.777646" y="192.535" style="stroke: #000000; stroke-width: 0.8"/>
      </g>
     </g>
     <g id="text_7">
      <!-- 0 -->
      <g transform="translate(225.277646 206.474063)scale(0.1 -0.1)">
       <defs>
        <path id="CMUSerif-Roman-30" d="M 250 2047 
Q 250 2988 488 3500 
Q 819 4263 1600 4263 
Q 1766 4263 1939 4217 
Q 2113 4172 2333 4000 
Q 2553 3828 2688 3547 
Q 2944 3003 2944 2047 
Q 2944 1113 2706 603 
Q 2359 -141 1594 -141 
Q 1306 -141 1014 6 
Q 722 153 538 506 
Q 250 1034 250 2047 
z
M 781 2125 
Q 781 1159 850 775 
Q 928 359 1142 179 
Q 1356 0 1594 0 
Q 1850 0 2064 192 
Q 2278 384 2344 800 
Q 2416 1209 2413 2125 
Q 2413 3016 2350 3372 
Q 2266 3788 2042 3955 
Q 1819 4122 1594 4122 
Q 1509 4122 1420 4097 
Q 1331 4072 1203 4000 
Q 1075 3928 976 3750 
Q 878 3572 831 3303 
Q 781 2956 781 2125 
z
" transform="scale(0.015625)"/>
       </defs>
       <use xlink:href="#CMUSerif-Roman-30"/>
      </g>
     </g>
    </g>
    <g id="xtick_8">
     <g id="line2d_65">
      <g>
       <use xlink:href="#mb00fc7e729" x="259.616368" y="192.535" style="stroke: #000000; stroke-width: 0.8"/>
      </g>
     </g>
     <g id="text_8">
      <!-- 1 -->
      <g transform="translate(257.116368 206.474063)scale(0.1 -0.1)">
       <use xlink:href="#CMUSerif-Roman-31"/>
      </g>
     </g>
    </g>
    <g id="text_9">
     <!-- $r$ -->
     <g transform="translate(154.75 220.74)scale(0.12 -0.12)">
      <defs>
       <path id="Cmmi10-72" d="M 494 109 
Q 494 147 500 166 
L 978 2075 
Q 1025 2253 1025 2388 
Q 1025 2663 838 2663 
Q 638 2663 541 2423 
Q 444 2184 353 1819 
Q 353 1800 334 1789 
Q 316 1778 300 1778 
L 225 1778 
Q 203 1778 187 1801 
Q 172 1825 172 1844 
Q 241 2122 305 2315 
Q 369 2509 505 2668 
Q 641 2828 844 2828 
Q 1066 2828 1233 2700 
Q 1400 2572 1441 2363 
Q 1603 2575 1811 2701 
Q 2019 2828 2266 2828 
Q 2469 2828 2623 2709 
Q 2778 2591 2778 2388 
Q 2778 2225 2676 2104 
Q 2575 1984 2406 1984 
Q 2303 1984 2233 2048 
Q 2163 2113 2163 2216 
Q 2163 2356 2266 2467 
Q 2369 2578 2503 2578 
Q 2400 2663 2253 2663 
Q 1978 2663 1775 2467 
Q 1572 2272 1409 1972 
L 953 141 
Q 931 53 854 -9 
Q 778 -72 684 -72 
Q 606 -72 550 -22 
Q 494 28 494 109 
z
" transform="scale(0.015625)"/>
      </defs>
      <use xlink:href="#Cmmi10-72" transform="translate(0 0.8125)"/>
     </g>
    </g>
   </g>
   <g id="matplotlib.axis_2">
    <g id="ytick_1">
     <g id="line2d_66">
      <defs>
       <path id="m1f17be2ac8" d="M 0 0 
L -3.5 0 
" style="stroke: #000000; stroke-width: 0.8"/>
      </defs>
      <g>
       <use xlink:href="#m1f17be2ac8" x="34.584375" y="173.734437" style="stroke: #000000; stroke-width: 0.8"/>
      </g>
     </g>
     <g id="text_10">
      <!-- 0 -->
      <g transform="translate(22.584375 177.203968)scale(0.1 -0.1)">
       <use xlink:href="#CMUSerif-Roman-30"/>
      </g>
     </g>
    </g>
    <g id="ytick_2">
     <g id="line2d_67">
      <g>
       <use xlink:href="#m1f17be2ac8" x="34.584375" y="141.895715" style="stroke: #000000; stroke-width: 0.8"/>
      </g>
     </g>
     <g id="text_11">
      <!-- 1 -->
      <g transform="translate(22.584375 145.365246)scale(0.1 -0.1)">
       <use xlink:href="#CMUSerif-Roman-31"/>
      </g>
     </g>
    </g>
    <g id="ytick_3">
     <g id="line2d_68">
      <g>
       <use xlink:href="#m1f17be2ac8" x="34.584375" y="110.056993" style="stroke: #000000; stroke-width: 0.8"/>
      </g>
     </g>
     <g id="text_12">
      <!-- 2 -->
      <g transform="translate(22.584375 113.526524)scale(0.1 -0.1)">
       <use xlink:href="#CMUSerif-Roman-32"/>
      </g>
     </g>
    </g>
    <g id="ytick_4">
     <g id="line2d_69">
      <g>
       <use xlink:href="#m1f17be2ac8" x="34.584375" y="78.218271" style="stroke: #000000; stroke-width: 0.8"/>
      </g>
     </g>
     <g id="text_13">
      <!-- 3 -->
      <g transform="translate(22.584375 81.687802)scale(0.1 -0.1)">
       <use xlink:href="#CMUSerif-Roman-33"/>
      </g>
     </g>
    </g>
    <g id="ytick_5">
     <g id="line2d_70">
      <g>
       <use xlink:href="#m1f17be2ac8" x="34.584375" y="46.379549" style="stroke: #000000; stroke-width: 0.8"/>
      </g>
     </g>
     <g id="text_14">
      <!-- 4 -->
      <g transform="translate(22.584375 49.849081)scale(0.1 -0.1)">
       <use xlink:href="#CMUSerif-Roman-34"/>
      </g>
     </g>
    </g>
    <g id="ytick_6">
     <g id="line2d_71">
      <g>
       <use xlink:href="#m1f17be2ac8" x="34.584375" y="14.540827" style="stroke: #000000; stroke-width: 0.8"/>
      </g>
     </g>
     <g id="text_15">
      <!-- 5 -->
      <g transform="translate(22.584375 18.010359)scale(0.1 -0.1)">
       <use xlink:href="#CMUSerif-Roman-35"/>
      </g>
     </g>
    </g>
    <g id="text_16">
     <!-- $g$ -->
     <g transform="translate(16.064375 102.7475)rotate(-90)scale(0.12 -0.12)">
      <defs>
       <path id="Cmmi10-67" d="M 91 -916 
Q 91 -759 198 -642 
Q 306 -525 459 -525 
Q 563 -525 633 -589 
Q 703 -653 703 -756 
Q 703 -872 637 -964 
Q 572 -1056 469 -1094 
Q 641 -1147 1006 -1147 
Q 1300 -1147 1544 -920 
Q 1788 -694 1863 -397 
L 2047 353 
Q 1700 0 1325 0 
Q 1050 0 854 140 
Q 659 281 556 515 
Q 453 750 453 1013 
Q 453 1306 573 1628 
Q 694 1950 911 2225 
Q 1128 2500 1409 2664 
Q 1691 2828 2003 2828 
Q 2191 2828 2341 2725 
Q 2491 2622 2578 2450 
Q 2641 2700 2853 2700 
Q 2934 2700 2990 2651 
Q 3047 2603 3047 2522 
Q 3047 2503 3045 2493 
Q 3044 2484 3041 2472 
L 2309 -434 
Q 2259 -634 2125 -800 
Q 1991 -966 1809 -1077 
Q 1628 -1188 1412 -1250 
Q 1197 -1313 997 -1313 
Q 631 -1313 361 -1242 
Q 91 -1172 91 -916 
z
M 1338 166 
Q 1747 166 2144 728 
L 2497 2125 
Q 2453 2347 2322 2505 
Q 2191 2663 1991 2663 
Q 1778 2663 1589 2489 
Q 1400 2316 1275 2075 
Q 1156 1844 1045 1411 
Q 934 978 934 728 
Q 934 509 1034 337 
Q 1134 166 1338 166 
z
" transform="scale(0.015625)"/>
      </defs>
      <use xlink:href="#Cmmi10-67" transform="translate(0 0.8125)"/>
     </g>
    </g>
   </g>
   <g id="line2d_72">
    <defs>
     <path id="m4414098362" d="M 0 4 
C 1.060812 4 2.078319 3.578535 2.828427 2.828427 
C 3.578535 2.078319 4 1.060812 4 0 
C 4 -1.060812 3.578535 -2.078319 2.828427 -2.828427 
C 2.078319 -3.578535 1.060812 -4 0 -4 
C -1.060812 -4 -2.078319 -3.578535 -2.828427 -2.828427 
C -3.578535 -2.078319 -4 -1.060812 -4 0 
C -4 1.060812 -3.578535 2.078319 -2.828427 2.828427 
C -2.078319 3.578535 -1.060812 4 0 4 
z
" style="stroke: #ff0000"/>
    </defs>
    <g clip-path="url(#p94265c930f)">
     <use xlink:href="#m4414098362" x="259.616368" y="173.734437" style="fill-opacity: 0; stroke: #ff0000"/>
    </g>
   </g>
   <g id="line2d_73">
    <defs>
     <path id="me3dbecdb34" d="M 0 4 
C 1.060812 4 2.078319 3.578535 2.828427 2.828427 
C 3.578535 2.078319 4 1.060812 4 0 
C 4 -1.060812 3.578535 -2.078319 2.828427 -2.828427 
C 2.078319 -3.578535 1.060812 -4 0 -4 
C -1.060812 -4 -2.078319 -3.578535 -2.828427 -2.828427 
C -3.578535 -2.078319 -4 -1.060812 -4 0 
C -4 1.060812 -3.578535 2.078319 -2.828427 2.828427 
C -2.078319 3.578535 -1.060812 4 0 4 
z
" style="stroke: #00ff00"/>
    </defs>
    <g clip-path="url(#p94265c930f)">
     <use xlink:href="#me3dbecdb34" x="227.777646" y="141.895715" style="fill-opacity: 0; stroke: #00ff00"/>
    </g>
   </g>
   <g id="line2d_74">
    <defs>
     <path id="m0d000a70ff" d="M 0 4 
C 1.060812 4 2.078319 3.578535 2.828427 2.828427 
C 3.578535 2.078319 4 1.060812 4 0 
C 4 -1.060812 3.578535 -2.078319 2.828427 -2.828427 
C 2.078319 -3.578535 1.060812 -4 0 -4 
C -1.060812 -4 -2.078319 -3.578535 -2.828427 -2.828427 
C -3.578535 -2.078319 -4 -1.060812 -4 0 
C -4 1.060812 -3.578535 2.078319 -2.828427 2.828427 
C -2.078319 3.578535 -1.060812 4 0 4 
z
" style="stroke: #0000ff"/>
    </defs>
    <g clip-path="url(#p94265c930f)">
     <use xlink:href="#m0d000a70ff" x="227.777646" y="173.734437" style="fill-opacity: 0; stroke: #0000ff"/>
    </g>
   </g>
   <g id="patch_3">
    <path d="M 34.584375 192.535 
L 34.584375 7.2 
" style="fill: none; stroke: #000000; stroke-width: 0.8; stroke-linejoin: miter; stroke-linecap: square"/>
   </g>
   <g id="patch_4">
    <path d="M 280.435625 192.535 
L 280.435625 7.2 
" style="fill: none; stroke: #000000; stroke-width: 0.8; stroke-linejoin: miter; stroke-linecap: square"/>
   </g>
   <g id="patch_5">
    <path d="M 34.584375 192.535 
L 280.435625 192.535 
" style="fill: none; stroke: #000000; stroke-width: 0.8; stroke-linejoin: miter; stroke-linecap: square"/>
   </g>
   <g id="patch_6">
    <path d="M 34.584375 7.2 
L 280.435625 7.2 
" style="fill: none; stroke: #000000; stroke-width: 0.8; stroke-linejoin: miter; stroke-linecap: square"/>
   </g>
   <g id="line2d_75">
    <path d="M 234.385683 175.536629 
L 233.884642 175.449886 
L 233.424881 175.584393 
L 232.536797 175.60637 
L 231.378454 175.345325 
L 229.789627 174.722779 
L 227.777646 173.734437 
L 224.486452 171.588006 
L 217.211698 166.079995 
L 210.362104 160.149118 
L 199.918764 149.936617 
L 184.963801 133.637207 
L 170.223033 113.730692 
L 166.581141 100.546726 
L 178.664724 103.056991 
L 193.676699 112.319218 
L 208.890268 124.638987 
L 219.413486 133.983558 
L 227.777646 141.895715 
L 233.886514 147.871891 
L 238.893854 152.84944 
L 242.784113 156.743781 
L 246.10493 160.087659 
L 249.043156 163.053075 
L 251.620497 165.655542 
L 253.75639 167.810496 
L 255.513804 169.583198 
L 256.846543 170.928737 
L 257.891656 171.984305 
L 258.594835 172.695784 
L 259.093948 173.199029 
L 259.616368 173.734437 
L 259.800282 173.929169 
L 259.883471 174.001541 
L 259.948021 174.06609 
" clip-path="url(#p94265c930f)" style="fill: none; stroke: #333333; stroke-width: 1.5; stroke-linecap: square"/>
    <defs>
     <path id="mac8c0de2af" d="M 0 2 
C 0.530406 2 1.03916 1.789267 1.414214 1.414214 
C 1.789267 1.03916 2 0.530406 2 0 
C 2 -0.530406 1.789267 -1.03916 1.414214 -1.414214 
C 1.03916 -1.789267 0.530406 -2 0 -2 
C -0.530406 -2 -1.03916 -1.789267 -1.414214 -1.414214 
C -1.789267 -1.03916 -2 -0.530406 -2 0 
C -2 0.530406 -1.789267 1.03916 -1.414214 1.414214 
C -1.03916 1.789267 -0.530406 2 0 2 
z
" style="stroke: #000000; stroke-opacity: 0"/>
    </defs>
    <g clip-path="url(#p94265c930f)">
     <use xlink:href="#mac8c0de2af" x="234.385683" y="175.536629" style="stroke: #000000; stroke-opacity: 0"/>
     <use xlink:href="#mac8c0de2af" x="233.884642" y="175.449886" style="stroke: #000000; stroke-opacity: 0"/>
     <use xlink:href="#mac8c0de2af" x="233.424881" y="175.584393" style="stroke: #000000; stroke-opacity: 0"/>
     <use xlink:href="#mac8c0de2af" x="232.536797" y="175.60637" style="stroke: #000000; stroke-opacity: 0"/>
     <use xlink:href="#mac8c0de2af" x="231.378454" y="175.345325" style="stroke: #000000; stroke-opacity: 0"/>
     <use xlink:href="#mac8c0de2af" x="229.789627" y="174.722779" style="stroke: #000000; stroke-opacity: 0"/>
     <use xlink:href="#mac8c0de2af" x="227.777646" y="173.734437" style="stroke: #000000; stroke-opacity: 0"/>
     <use xlink:href="#mac8c0de2af" x="224.486452" y="171.588006" style="stroke: #000000; stroke-opacity: 0"/>
     <use xlink:href="#mac8c0de2af" x="217.211698" y="166.079995" style="stroke: #000000; stroke-opacity: 0"/>
     <use xlink:href="#mac8c0de2af" x="210.362104" y="160.149118" style="stroke: #000000; stroke-opacity: 0"/>
     <use xlink:href="#mac8c0de2af" x="199.918764" y="149.936617" style="stroke: #000000; stroke-opacity: 0"/>
     <use xlink:href="#mac8c0de2af" x="184.963801" y="133.637207" style="stroke: #000000; stroke-opacity: 0"/>
     <use xlink:href="#mac8c0de2af" x="170.223033" y="113.730692" style="stroke: #000000; stroke-opacity: 0"/>
     <use xlink:href="#mac8c0de2af" x="166.581141" y="100.546726" style="stroke: #000000; stroke-opacity: 0"/>
     <use xlink:href="#mac8c0de2af" x="178.664724" y="103.056991" style="stroke: #000000; stroke-opacity: 0"/>
     <use xlink:href="#mac8c0de2af" x="193.676699" y="112.319218" style="stroke: #000000; stroke-opacity: 0"/>
     <use xlink:href="#mac8c0de2af" x="208.890268" y="124.638987" style="stroke: #000000; stroke-opacity: 0"/>
     <use xlink:href="#mac8c0de2af" x="219.413486" y="133.983558" style="stroke: #000000; stroke-opacity: 0"/>
     <use xlink:href="#mac8c0de2af" x="227.777646" y="141.895715" style="stroke: #000000; stroke-opacity: 0"/>
     <use xlink:href="#mac8c0de2af" x="233.886514" y="147.871891" style="stroke: #000000; stroke-opacity: 0"/>
     <use xlink:href="#mac8c0de2af" x="238.893854" y="152.84944" style="stroke: #000000; stroke-opacity: 0"/>
     <use xlink:href="#mac8c0de2af" x="242.784113" y="156.743781" style="stroke: #000000; stroke-opacity: 0"/>
     <use xlink:href="#mac8c0de2af" x="246.10493" y="160.087659" style="stroke: #000000; stroke-opacity: 0"/>
     <use xlink:href="#mac8c0de2af" x="249.043156" y="163.053075" style="stroke: #000000; stroke-opacity: 0"/>
     <use xlink:href="#mac8c0de2af" x="251.620497" y="165.655542" style="stroke: #000000; stroke-opacity: 0"/>
     <use xlink:href="#mac8c0de2af" x="253.75639" y="167.810496" style="stroke: #000000; stroke-opacity: 0"/>
     <use xlink:href="#mac8c0de2af" x="255.513804" y="169.583198" style="stroke: #000000; stroke-opacity: 0"/>
     <use xlink:href="#mac8c0de2af" x="256.846543" y="170.928737" style="stroke: #000000; stroke-opacity: 0"/>
     <use xlink:href="#mac8c0de2af" x="257.891656" y="171.984305" style="stroke: #000000; stroke-opacity: 0"/>
     <use xlink:href="#mac8c0de2af" x="258.594835" y="172.695784" style="stroke: #000000; stroke-opacity: 0"/>
     <use xlink:href="#mac8c0de2af" x="259.093948" y="173.199029" style="stroke: #000000; stroke-opacity: 0"/>
     <use xlink:href="#mac8c0de2af" x="259.616368" y="173.734437" style="stroke: #000000; stroke-opacity: 0"/>
     <use xlink:href="#mac8c0de2af" x="259.800282" y="173.929169" style="stroke: #000000; stroke-opacity: 0"/>
     <use xlink:href="#mac8c0de2af" x="259.883471" y="174.001541" style="stroke: #000000; stroke-opacity: 0"/>
     <use xlink:href="#mac8c0de2af" x="259.948021" y="174.06609" style="stroke: #000000; stroke-opacity: 0"/>
    </g>
   </g>
  </g>
 </g>
 <defs>
  <clipPath id="p94265c930f">
   <rect x="34.584375" y="7.2" width="245.851251" height="185.335"/>
  </clipPath>
 </defs>
</svg>
