<?xml version="1.0" encoding="utf-8" standalone="no"?>
<!DOCTYPE svg PUBLIC "-//W3C//DTD SVG 1.1//EN"
  "http://www.w3.org/Graphics/SVG/1.1/DTD/svg11.dtd">
<svg xmlns:xlink="http://www.w3.org/1999/xlink" width="288pt" height="288pt" viewBox="0 0 288 288" xmlns="http://www.w3.org/2000/svg" version="1.1">
 <metadata>
  <rdf:RDF xmlns:dc="http://purl.org/dc/elements/1.1/" xmlns:cc="http://creativecommons.org/ns#" xmlns:rdf="http://www.w3.org/1999/02/22-rdf-syntax-ns#">
   <cc:Work>
    <dc:type rdf:resource="http://purl.org/dc/dcmitype/StillImage"/>
    <dc:date>2022-07-07T04:24:39.959896</dc:date>
    <dc:format>image/svg+xml</dc:format>
    <dc:creator>
     <cc:Agent>
      <dc:title>Matplotlib v3.5.2, https://matplotlib.org/</dc:title>
     </cc:Agent>
    </dc:creator>
   </cc:Work>
  </rdf:RDF>
 </metadata>
 <defs>
  <style type="text/css">*{stroke-linejoin: round; stroke-linecap: butt}</style>
 </defs>
 <g id="figure_1">
  <g id="patch_1">
   <path d="M 0 288 
L 288 288 
L 288 0 
L 0 0 
z
"/>
  </g>
  <g id="axes_1">
   <g id="patch_2">
    <path d="M 41.96 248.0875 
L 280.8 248.0875 
L 280.8 9.2475 
L 41.96 9.2475 
L 41.96 248.0875 
z
" style="fill: none"/>
   </g>
   <g id="line2d_1">
    <path d="M 41.96 231.394382 
L 280.8 231.394382 
" clip-path="url(#p32ad0fdc48)" style="fill: none; stroke: #bfbfbf; stroke-width: 2; stroke-linecap: square"/>
   </g>
   <g id="line2d_2">
    <path d="M 58.653118 248.0875 
L 58.653118 9.2475 
" clip-path="url(#p32ad0fdc48)" style="fill: none; stroke: #bfbfbf; stroke-width: 2; stroke-linecap: square"/>
   </g>
   <g id="line2d_3">
    <path d="M 83.075941 -1 
L 289 204.924059 
" clip-path="url(#p32ad0fdc48)" style="fill: none; stroke-dasharray: 1.5,2.475; stroke-dashoffset: 0; stroke: #404040; stroke-width: 1.5"/>
   </g>
   <g id="line2d_4">
    <path d="M 104.474351 225.067266 
L 104.375149 224.948596 
L 104.138263 225.030256 
L 103.606296 225.54221 
L 103.168165 225.826524 
L 102.478436 226.022742 
L 101.8851 225.934648 
L 101.074186 225.56136 
L 100.10857 224.787777 
L 98.979953 223.694031 
L 97.572355 221.92704 
L 96.608827 220.3509 
L 92.702699 213.079299 
L 90.484523 208.229343 
L 87.53674 201.217861 
L 84.802179 194.020538 
L 81.551895 184.684643 
L 77.785065 172.942533 
L 75.088787 163.900498 
L 72.322634 153.965039 
L 69.549696 143.085119 
L 66.873352 131.280746 
L 64.432019 118.804476 
L 62.359457 106.025977 
L 61.503515 99.643933 
L 60.794659 93.329523 
L 60.253808 87.132458 
L 59.9019 81.103856 
L 59.752478 75.284171 
L 59.789612 69.668509 
L 59.987606 64.238487 
L 60.318418 58.974203 
L 61.265624 48.873679 
L 61.866435 44.064329 
L 62.570341 39.474172 
L 63.392917 35.149294 
L 64.349324 31.133796 
L 65.454664 27.478785 
L 66.723661 24.26307 
L 68.165077 21.550201 
L 69.781566 19.378005 
L 71.570936 17.761788 
L 73.518315 16.679909 
L 75.572338 16.031514 
L 77.67736 15.709646 
L 79.783076 15.621119 
L 83.831503 15.847864 
L 85.767309 16.123747 
L 87.684774 16.54048 
L 89.615877 17.122422 
L 91.590998 17.890918 
L 93.630776 18.855406 
L 97.849629 21.255604 
L 102.135235 24.07702 
L 106.368926 27.124713 
L 112.446085 31.849376 
L 118.130621 36.571939 
L 123.765251 41.4994 
L 131.372292 48.447792 
L 142.115272 58.636884 
L 155.463952 71.639625 
L 177.180725 93.167802 
L 236.135788 152.059847 
L 244.123176 160.047235 
L 244.123176 160.047235 
" clip-path="url(#p32ad0fdc48)" style="fill: none; stroke-dasharray: 5.55,2.4; stroke-dashoffset: 0; stroke: #3333cc; stroke-width: 1.5"/>
   </g>
   <g id="line2d_5">
    <path d="M 104.474351 225.067266 
L 244.123176 160.047235 
" clip-path="url(#p32ad0fdc48)" style="fill: none; stroke-dasharray: 5.55,2.4; stroke-dashoffset: 0; stroke: #3333cc; stroke-width: 1.5"/>
   </g>
   <g id="line2d_6">
    <path d="M 101.382343 226.694678 
L 101.272291 226.581273 
L 101.026665 226.70179 
L 100.342577 227.216233 
L 99.728131 227.325706 
L 99.102679 227.148548 
L 98.437402 226.76551 
L 97.136297 225.680958 
L 96.044762 224.444608 
L 95.085804 222.994238 
L 92.328109 218.302542 
L 90.135817 213.87382 
L 87.706433 208.482302 
L 85.409346 202.880861 
L 82.612728 195.5148 
L 79.339868 186.191674 
L 76.964726 178.929445 
L 74.460092 170.746638 
L 71.847955 161.509029 
L 69.202899 151.206146 
L 66.656894 140.019924 
L 64.358615 128.218879 
L 63.345696 122.167449 
L 62.446284 116.060534 
L 61.677242 109.935739 
L 61.050253 103.824313 
L 60.557238 97.72412 
L 59.912806 85.509903 
L 59.614666 73.212865 
L 59.663468 61.005179 
L 59.863465 55.072693 
L 60.206243 49.335894 
L 60.712497 43.870624 
L 61.407537 38.799448 
L 62.310134 34.234133 
L 63.430159 30.257412 
L 64.769578 26.922776 
L 66.314797 24.234366 
L 68.014076 22.09445 
L 69.810852 20.391721 
L 71.653733 19.027173 
L 73.49629 17.913802 
L 75.30711 16.991927 
L 77.099356 16.270957 
L 78.896278 15.772251 
L 80.720338 15.512574 
L 82.593189 15.504885 
L 84.529083 15.75062 
L 86.516173 16.217296 
L 88.537444 16.867917 
L 90.577396 17.669647 
L 94.658503 19.614557 
L 98.669809 21.883192 
L 102.54446 24.35481 
L 106.257861 26.945491 
L 111.747791 31.129437 
L 117.367507 35.77246 
L 124.747086 42.263346 
L 133.55011 50.404365 
L 143.782668 60.193047 
L 158.151637 74.280784 
L 183.025856 98.997492 
L 244.407489 160.331548 
L 244.407489 160.331548 
" clip-path="url(#p32ad0fdc48)" style="fill: none; stroke-dasharray: 9.6,2.4,1.5,2.4; stroke-dashoffset: 0; stroke: #33cc33; stroke-width: 1.5"/>
   </g>
   <g id="line2d_7">
    <path d="M 101.382343 226.694678 
L 244.407489 160.331548 
" clip-path="url(#p32ad0fdc48)" style="fill: none; stroke-dasharray: 9.6,2.4,1.5,2.4; stroke-dashoffset: 0; stroke: #33cc33; stroke-width: 1.5"/>
   </g>
   <g id="line2d_8">
    <path d="M 105.449856 226.26359 
L 103.390453 226.786359 
L 102.609684 226.831693 
L 101.773274 226.589933 
L 100.887038 226.082899 
L 99.996534 225.330901 
L 98.755986 223.929657 
L 97.683495 222.441386 
L 96.13419 219.78188 
L 93.873894 215.344081 
L 89.924753 207.232077 
L 88.23332 203.391041 
L 83.238847 190.537365 
L 80.938857 184.063044 
L 78.551768 176.633024 
L 73.235267 158.175994 
L 70.259667 147.277144 
L 67.422165 135.790955 
L 66.143572 129.956714 
L 65.006672 124.131707 
L 64.043034 118.365803 
L 62.409959 106.27367 
L 61.056358 93.404211 
L 60.528275 86.928744 
L 60.123494 80.560154 
L 59.859294 74.398586 
L 59.752477 68.54426 
L 59.823968 63.098505 
L 60.087786 58.160116 
L 60.562516 53.631123 
L 61.239442 49.35237 
L 62.097349 45.334091 
L 63.114934 41.586321 
L 64.270664 38.119387 
L 65.543118 34.941642 
L 66.911317 32.068095 
L 68.353706 29.503736 
L 69.849889 27.261426 
L 71.37597 25.349387 
L 72.983607 23.839818 
L 74.718177 22.761886 
L 76.560075 22.060393 
L 78.49067 21.686077 
L 80.48882 21.580944 
L 82.535882 21.697969 
L 84.612066 21.983228 
L 88.771634 22.847883 
L 92.865314 23.898361 
L 94.961813 24.682651 
L 97.086066 25.636889 
L 101.389475 27.951107 
L 105.669567 30.589887 
L 113.776321 35.889659 
L 117.557144 38.57671 
L 123.029603 42.821375 
L 131.995196 50.22391 
L 139.095915 56.430445 
L 147.84469 64.440094 
L 156.541822 72.639237 
L 165.030121 80.954181 
L 243.653727 159.577786 
L 243.653727 159.577786 
" clip-path="url(#p32ad0fdc48)" style="fill: none; stroke-dasharray: 1.5,2.475; stroke-dashoffset: 0; stroke: #cc3333; stroke-width: 1.5"/>
   </g>
   <g id="line2d_9">
    <path d="M 105.449856 226.26359 
L 243.653727 159.577786 
" clip-path="url(#p32ad0fdc48)" style="fill: none; stroke-dasharray: 1.5,2.475; stroke-dashoffset: 0; stroke: #cc3333; stroke-width: 1.5"/>
   </g>
   <g id="line2d_10">
    <path d="M 103.740006 230.034833 
L 102.621794 230.056041 
L 101.93315 229.549396 
L 100.219352 228.020495 
L 96.386815 224.554008 
L 94.811863 222.864672 
L 93.452535 221.152737 
L 91.804569 218.69482 
L 89.84834 215.320791 
L 87.615949 210.87576 
L 85.942703 207.128733 
L 83.12884 200.076843 
L 79.886645 191.108505 
L 77.51307 183.875011 
L 75.087628 175.544959 
L 72.692422 166.138262 
L 70.31024 155.639479 
L 67.948645 144.102231 
L 65.714099 131.769511 
L 63.713608 118.971138 
L 62.03875 106.014407 
L 60.750808 93.118074 
L 59.905213 80.61278 
L 59.675874 74.620962 
L 59.587004 68.826168 
L 59.644053 63.224531 
L 59.846217 57.812029 
L 60.196824 52.618774 
L 60.704676 47.682373 
L 61.376226 43.04132 
L 62.215236 38.733601 
L 63.215765 34.772009 
L 64.365813 31.172004 
L 65.657361 27.968575 
L 67.081951 25.189255 
L 68.63093 22.854697 
L 70.294125 20.960727 
L 72.05299 19.478188 
L 73.888936 18.383573 
L 75.786906 17.652167 
L 77.735259 17.259403 
L 79.725842 17.185639 
L 81.751704 17.391451 
L 83.805731 17.827078 
L 85.881163 18.447158 
L 90.074027 20.092788 
L 94.274268 22.146303 
L 98.388405 24.434759 
L 104.327937 28.075648 
L 108.187019 30.658552 
L 113.876406 34.77639 
L 119.48919 39.160421 
L 125.060271 43.787718 
L 132.434752 50.257028 
L 139.78537 56.999197 
L 148.966589 65.703068 
L 161.797564 78.179184 
L 181.610722 97.79748 
L 247.334162 163.258221 
L 247.334162 163.258221 
" clip-path="url(#p32ad0fdc48)" style="fill: none; stroke: #cccccc; stroke-width: 1.5; stroke-linecap: square"/>
   </g>
   <g id="line2d_11">
    <path d="M 103.740006 230.034833 
L 247.334162 163.258221 
" clip-path="url(#p32ad0fdc48)" style="fill: none; stroke: #cccccc; stroke-width: 1.5; stroke-linecap: square"/>
   </g>
   <g id="matplotlib.axis_1">
    <g id="xtick_1">
     <g id="line2d_12">
      <defs>
       <path id="m827ba92724" d="M 0 0 
L 0 3.5 
" style="stroke: #ffffff; stroke-width: 0.8"/>
      </defs>
      <g>
       <use xlink:href="#m827ba92724" x="58.653118" y="248.0875" style="fill: #ffffff; stroke: #ffffff; stroke-width: 0.8"/>
      </g>
     </g>
     <g id="text_1">
      <!-- 0.0 -->
      <g style="fill: #ffffff" transform="translate(52.264056 262.026563)scale(0.1 -0.1)">
       <defs>
        <path id="CMUSerif-Roman-30" d="M 250 2047 
Q 250 2988 488 3500 
Q 819 4263 1600 4263 
Q 1766 4263 1939 4217 
Q 2113 4172 2333 4000 
Q 2553 3828 2688 3547 
Q 2944 3003 2944 2047 
Q 2944 1113 2706 603 
Q 2359 -141 1594 -141 
Q 1306 -141 1014 6 
Q 722 153 538 506 
Q 250 1034 250 2047 
z
M 781 2125 
Q 781 1159 850 775 
Q 928 359 1142 179 
Q 1356 0 1594 0 
Q 1850 0 2064 192 
Q 2278 384 2344 800 
Q 2416 1209 2413 2125 
Q 2413 3016 2350 3372 
Q 2266 3788 2042 3955 
Q 1819 4122 1594 4122 
Q 1509 4122 1420 4097 
Q 1331 4072 1203 4000 
Q 1075 3928 976 3750 
Q 878 3572 831 3303 
Q 781 2956 781 2125 
z
" transform="scale(0.015625)"/>
        <path id="CMUSerif-Roman-2e" d="M 641 103 
Q 544 206 544 340 
Q 544 475 641 573 
Q 738 672 884 672 
Q 1025 672 1120 580 
Q 1216 488 1216 339 
Q 1216 191 1114 95 
Q 1013 0 884 0 
Q 738 0 641 103 
z
" transform="scale(0.015625)"/>
       </defs>
       <use xlink:href="#CMUSerif-Roman-30"/>
       <use xlink:href="#CMUSerif-Roman-2e" x="50"/>
       <use xlink:href="#CMUSerif-Roman-30" x="77.783203"/>
      </g>
     </g>
    </g>
    <g id="xtick_2">
     <g id="line2d_13">
      <g>
       <use xlink:href="#m827ba92724" x="84.334839" y="248.0875" style="fill: #ffffff; stroke: #ffffff; stroke-width: 0.8"/>
      </g>
     </g>
     <g id="text_2">
      <!-- 0.1 -->
      <g style="fill: #ffffff" transform="translate(77.945776 262.026563)scale(0.1 -0.1)">
       <defs>
        <path id="CMUSerif-Roman-31" d="M 569 3653 
L 569 3853 
Q 1338 3853 1734 4263 
Q 1844 4263 1862 4238 
Q 1881 4213 1881 4097 
L 1881 506 
Q 1881 316 1975 256 
Q 2069 197 2478 197 
L 2681 197 
L 2681 0 
Q 2456 19 1643 19 
Q 831 19 609 0 
L 609 197 
L 813 197 
Q 1216 197 1312 255 
Q 1409 313 1409 506 
L 1409 3822 
Q 1075 3653 569 3653 
z
" transform="scale(0.015625)"/>
       </defs>
       <use xlink:href="#CMUSerif-Roman-30"/>
       <use xlink:href="#CMUSerif-Roman-2e" x="50"/>
       <use xlink:href="#CMUSerif-Roman-31" x="77.783203"/>
      </g>
     </g>
    </g>
    <g id="xtick_3">
     <g id="line2d_14">
      <g>
       <use xlink:href="#m827ba92724" x="110.016559" y="248.0875" style="fill: #ffffff; stroke: #ffffff; stroke-width: 0.8"/>
      </g>
     </g>
     <g id="text_3">
      <!-- 0.2 -->
      <g style="fill: #ffffff" transform="translate(103.627497 262.026563)scale(0.1 -0.1)">
       <defs>
        <path id="CMUSerif-Roman-32" d="M 319 0 
Q 319 116 330 150 
Q 341 184 391 238 
L 1619 1606 
Q 2291 2363 2291 3022 
Q 2291 3450 2067 3756 
Q 1844 4063 1434 4063 
Q 1153 4063 915 3891 
Q 678 3719 569 3413 
Q 588 3419 653 3419 
Q 813 3419 902 3319 
Q 991 3219 991 3084 
Q 991 2913 880 2830 
Q 769 2747 659 2747 
Q 616 2747 558 2756 
Q 500 2766 409 2855 
Q 319 2944 319 3103 
Q 319 3550 658 3906 
Q 997 4263 1516 4263 
Q 2103 4263 2489 3914 
Q 2875 3566 2875 3022 
Q 2875 2831 2817 2657 
Q 2759 2484 2682 2350 
Q 2606 2216 2400 2000 
Q 2194 1784 2028 1631 
Q 1863 1478 1491 1153 
L 813 494 
L 1966 494 
Q 2528 494 2572 544 
Q 2634 634 2713 1113 
L 2875 1113 
L 2694 0 
L 319 0 
z
" transform="scale(0.015625)"/>
       </defs>
       <use xlink:href="#CMUSerif-Roman-30"/>
       <use xlink:href="#CMUSerif-Roman-2e" x="50"/>
       <use xlink:href="#CMUSerif-Roman-32" x="77.783203"/>
      </g>
     </g>
    </g>
    <g id="xtick_4">
     <g id="line2d_15">
      <g>
       <use xlink:href="#m827ba92724" x="135.69828" y="248.0875" style="fill: #ffffff; stroke: #ffffff; stroke-width: 0.8"/>
      </g>
     </g>
     <g id="text_4">
      <!-- 0.3 -->
      <g style="fill: #ffffff" transform="translate(129.309217 262.026563)scale(0.1 -0.1)">
       <defs>
        <path id="CMUSerif-Roman-33" d="M 269 863 
Q 269 1053 378 1143 
Q 488 1234 628 1234 
Q 775 1234 879 1139 
Q 984 1044 984 878 
Q 984 700 861 600 
Q 738 500 563 525 
Q 716 269 998 153 
Q 1281 38 1544 38 
Q 1819 38 2042 275 
Q 2266 513 2266 1094 
Q 2266 1588 2073 1872 
Q 1881 2156 1503 2156 
L 1222 2156 
Q 1125 2156 1097 2165 
Q 1069 2175 1069 2228 
Q 1069 2291 1166 2303 
Q 1263 2303 1416 2322 
Q 1788 2334 1984 2656 
Q 2163 2956 2163 3384 
Q 2163 3775 1977 3939 
Q 1791 4103 1550 4103 
Q 1325 4103 1078 4009 
Q 831 3916 697 3706 
Q 1094 3706 1094 3384 
Q 1094 3244 1005 3151 
Q 916 3059 769 3059 
Q 628 3059 534 3148 
Q 441 3238 441 3391 
Q 441 3756 767 4009 
Q 1094 4263 1575 4263 
Q 2050 4263 2401 4013 
Q 2753 3763 2753 3378 
Q 2753 3000 2503 2690 
Q 2253 2381 1856 2253 
Q 2344 2156 2634 1826 
Q 2925 1497 2925 1094 
Q 2925 594 2531 226 
Q 2138 -141 1563 -141 
Q 1031 -141 650 146 
Q 269 434 269 863 
z
" transform="scale(0.015625)"/>
       </defs>
       <use xlink:href="#CMUSerif-Roman-30"/>
       <use xlink:href="#CMUSerif-Roman-2e" x="50"/>
       <use xlink:href="#CMUSerif-Roman-33" x="77.783203"/>
      </g>
     </g>
    </g>
    <g id="xtick_5">
     <g id="line2d_16">
      <g>
       <use xlink:href="#m827ba92724" x="161.38" y="248.0875" style="fill: #ffffff; stroke: #ffffff; stroke-width: 0.8"/>
      </g>
     </g>
     <g id="text_5">
      <!-- 0.4 -->
      <g style="fill: #ffffff" transform="translate(154.990938 262.026563)scale(0.1 -0.1)">
       <defs>
        <path id="CMUSerif-Roman-34" d="M 178 1056 
L 178 1253 
L 2144 4256 
Q 2194 4334 2272 4331 
Q 2344 4331 2359 4303 
Q 2375 4275 2375 4166 
L 2375 1253 
L 3016 1253 
L 3016 1056 
L 2375 1056 
L 2375 500 
Q 2375 316 2451 256 
Q 2528 197 2859 197 
L 2994 197 
L 2994 0 
Q 2731 19 2125 19 
Q 1522 19 1259 0 
L 1259 197 
L 1394 197 
Q 1725 197 1803 255 
Q 1881 313 1881 500 
L 1881 1056 
L 178 1056 
z
M 359 1253 
L 1919 1253 
L 1919 3641 
L 359 1253 
z
" transform="scale(0.015625)"/>
       </defs>
       <use xlink:href="#CMUSerif-Roman-30"/>
       <use xlink:href="#CMUSerif-Roman-2e" x="50"/>
       <use xlink:href="#CMUSerif-Roman-34" x="77.783203"/>
      </g>
     </g>
    </g>
    <g id="xtick_6">
     <g id="line2d_17">
      <g>
       <use xlink:href="#m827ba92724" x="187.06172" y="248.0875" style="fill: #ffffff; stroke: #ffffff; stroke-width: 0.8"/>
      </g>
     </g>
     <g id="text_6">
      <!-- 0.5 -->
      <g style="fill: #ffffff" transform="translate(180.672658 262.026563)scale(0.1 -0.1)">
       <defs>
        <path id="CMUSerif-Roman-35" d="M 319 1031 
Q 319 1222 422 1295 
Q 525 1369 634 1369 
Q 781 1369 867 1276 
Q 953 1184 953 1056 
Q 953 928 867 836 
Q 781 744 634 744 
Q 563 744 525 756 
Q 609 463 867 250 
Q 1125 38 1466 38 
Q 1894 38 2150 453 
Q 2303 722 2303 1331 
Q 2303 1869 2188 2138 
Q 2009 2547 1644 2547 
Q 1125 2547 819 2100 
Q 781 2044 738 2041 
Q 675 2041 661 2077 
Q 647 2113 647 2209 
L 647 4103 
Q 647 4256 709 4256 
Q 734 4256 788 4238 
Q 1191 4059 1638 4056 
Q 2097 4056 2509 4244 
Q 2541 4263 2559 4263 
Q 2622 4263 2625 4191 
Q 2625 4166 2573 4092 
Q 2522 4019 2412 3923 
Q 2303 3828 2162 3737 
Q 2022 3647 1817 3586 
Q 1613 3525 1388 3525 
Q 1119 3525 844 3609 
L 844 2363 
Q 1175 2688 1656 2688 
Q 2169 2688 2522 2275 
Q 2875 1863 2875 1288 
Q 2875 684 2458 271 
Q 2041 -141 1478 -141 
Q 966 -141 642 225 
Q 319 591 319 1031 
z
" transform="scale(0.015625)"/>
       </defs>
       <use xlink:href="#CMUSerif-Roman-30"/>
       <use xlink:href="#CMUSerif-Roman-2e" x="50"/>
       <use xlink:href="#CMUSerif-Roman-35" x="77.783203"/>
      </g>
     </g>
    </g>
    <g id="xtick_7">
     <g id="line2d_18">
      <g>
       <use xlink:href="#m827ba92724" x="212.743441" y="248.0875" style="fill: #ffffff; stroke: #ffffff; stroke-width: 0.8"/>
      </g>
     </g>
     <g id="text_7">
      <!-- 0.6 -->
      <g style="fill: #ffffff" transform="translate(206.354378 262.026563)scale(0.1 -0.1)">
       <defs>
        <path id="CMUSerif-Roman-36" d="M 269 2022 
Q 269 3028 781 3645 
Q 1294 4263 1953 4263 
Q 2338 4263 2552 4067 
Q 2766 3872 2766 3572 
Q 2766 3406 2669 3334 
Q 2572 3263 2472 3263 
Q 2356 3263 2265 3341 
Q 2175 3419 2175 3559 
Q 2175 3847 2528 3847 
Q 2363 4103 1966 4103 
Q 1844 4103 1719 4067 
Q 1594 4031 1431 3912 
Q 1269 3794 1144 3606 
Q 1019 3419 931 3066 
Q 844 2713 844 2253 
L 844 2100 
Q 1106 2734 1643 2732 
Q 2181 2731 2553 2322 
Q 2925 1913 2925 1306 
Q 2925 684 2537 271 
Q 2150 -141 1606 -141 
Q 1363 -141 1142 -39 
Q 922 63 717 294 
Q 513 525 391 969 
Q 269 1413 269 2022 
z
M 856 1447 
Q 856 819 972 519 
Q 991 469 1033 400 
Q 1075 331 1148 242 
Q 1222 153 1344 95 
Q 1466 38 1606 38 
Q 2034 38 2241 453 
Q 2350 684 2350 1313 
Q 2350 1953 2234 2188 
Q 2038 2584 1638 2584 
Q 1369 2584 1183 2400 
Q 997 2216 926 1969 
Q 856 1722 856 1447 
z
" transform="scale(0.015625)"/>
       </defs>
       <use xlink:href="#CMUSerif-Roman-30"/>
       <use xlink:href="#CMUSerif-Roman-2e" x="50"/>
       <use xlink:href="#CMUSerif-Roman-36" x="77.783203"/>
      </g>
     </g>
    </g>
    <g id="xtick_8">
     <g id="line2d_19">
      <g>
       <use xlink:href="#m827ba92724" x="238.425161" y="248.0875" style="fill: #ffffff; stroke: #ffffff; stroke-width: 0.8"/>
      </g>
     </g>
     <g id="text_8">
      <!-- 0.7 -->
      <g style="fill: #ffffff" transform="translate(232.036099 262.026563)scale(0.1 -0.1)">
       <defs>
        <path id="CMUSerif-Roman-37" d="M 359 3009 
L 569 4325 
L 728 4325 
Q 747 4247 780 4212 
Q 813 4178 995 4150 
Q 1178 4122 1550 4122 
L 3103 4122 
Q 3103 3975 3047 3897 
L 2181 2681 
Q 1906 2297 1784 1588 
Q 1713 1113 1716 538 
L 1716 213 
Q 1716 -141 1420 -141 
Q 1125 -141 1125 213 
Q 1125 1434 1913 2619 
Q 1997 2741 2308 3175 
Q 2619 3609 2631 3628 
L 1306 3628 
Q 725 3628 678 3591 
Q 616 3534 519 3009 
L 359 3009 
z
" transform="scale(0.015625)"/>
       </defs>
       <use xlink:href="#CMUSerif-Roman-30"/>
       <use xlink:href="#CMUSerif-Roman-2e" x="50"/>
       <use xlink:href="#CMUSerif-Roman-37" x="77.783203"/>
      </g>
     </g>
    </g>
    <g id="xtick_9">
     <g id="line2d_20">
      <g>
       <use xlink:href="#m827ba92724" x="264.106882" y="248.0875" style="fill: #ffffff; stroke: #ffffff; stroke-width: 0.8"/>
      </g>
     </g>
     <g id="text_9">
      <!-- 0.8 -->
      <g style="fill: #ffffff" transform="translate(257.717819 262.026563)scale(0.1 -0.1)">
       <defs>
        <path id="CMUSerif-Roman-38" d="M 269 966 
Q 269 1681 1191 2144 
Q 794 2413 722 2491 
Q 441 2803 441 3194 
Q 441 3641 780 3952 
Q 1119 4263 1600 4263 
Q 2059 4263 2406 3997 
Q 2753 3731 2753 3309 
Q 2753 2716 1978 2316 
Q 2491 1997 2613 1863 
Q 2925 1516 2925 1075 
Q 2925 563 2531 211 
Q 2138 -141 1594 -141 
Q 1063 -141 666 168 
Q 269 478 269 966 
z
M 588 966 
Q 588 569 886 303 
Q 1184 38 1600 38 
Q 2003 38 2304 269 
Q 2606 500 2606 844 
Q 2606 978 2561 1093 
Q 2516 1209 2427 1301 
Q 2338 1394 2283 1436 
Q 2228 1478 2125 1550 
L 1338 2047 
Q 588 1631 588 966 
z
M 722 3444 
Q 722 3138 1044 2925 
L 1838 2413 
Q 2472 2784 2472 3309 
Q 2472 3650 2212 3876 
Q 1953 4103 1594 4103 
Q 1241 4103 981 3917 
Q 722 3731 722 3444 
z
" transform="scale(0.015625)"/>
       </defs>
       <use xlink:href="#CMUSerif-Roman-30"/>
       <use xlink:href="#CMUSerif-Roman-2e" x="50"/>
       <use xlink:href="#CMUSerif-Roman-38" x="77.783203"/>
      </g>
     </g>
    </g>
    <g id="text_10">
     <!-- $x$ -->
     <g style="fill: #ffffff" transform="translate(157.9 276.2925)scale(0.12 -0.12)">
      <defs>
       <path id="Cmmi10-78" d="M 500 184 
Q 613 97 819 97 
Q 1019 97 1172 289 
Q 1325 481 1381 709 
L 1672 1844 
Q 1741 2153 1741 2266 
Q 1741 2425 1652 2544 
Q 1563 2663 1403 2663 
Q 1200 2663 1022 2536 
Q 844 2409 722 2214 
Q 600 2019 550 1819 
Q 538 1778 500 1778 
L 422 1778 
Q 372 1778 372 1838 
L 372 1856 
Q 434 2094 584 2320 
Q 734 2547 951 2687 
Q 1169 2828 1416 2828 
Q 1650 2828 1839 2703 
Q 2028 2578 2106 2363 
Q 2216 2559 2386 2693 
Q 2556 2828 2759 2828 
Q 2897 2828 3040 2779 
Q 3184 2731 3275 2631 
Q 3366 2531 3366 2381 
Q 3366 2219 3261 2101 
Q 3156 1984 2994 1984 
Q 2891 1984 2822 2050 
Q 2753 2116 2753 2216 
Q 2753 2350 2845 2451 
Q 2938 2553 3066 2572 
Q 2950 2663 2747 2663 
Q 2541 2663 2389 2472 
Q 2238 2281 2175 2047 
L 1894 916 
Q 1825 659 1825 494 
Q 1825 331 1917 214 
Q 2009 97 2163 97 
Q 2463 97 2698 361 
Q 2934 625 3009 941 
Q 3022 978 3059 978 
L 3138 978 
Q 3163 978 3178 961 
Q 3194 944 3194 922 
Q 3194 916 3188 903 
Q 3097 522 2806 225 
Q 2516 -72 2150 -72 
Q 1916 -72 1727 54 
Q 1538 181 1459 397 
Q 1359 209 1182 68 
Q 1006 -72 806 -72 
Q 669 -72 523 -23 
Q 378 25 287 125 
Q 197 225 197 378 
Q 197 528 301 651 
Q 406 775 563 775 
Q 669 775 741 711 
Q 813 647 813 544 
Q 813 409 723 309 
Q 634 209 500 184 
z
" transform="scale(0.015625)"/>
      </defs>
      <use xlink:href="#Cmmi10-78" transform="translate(0 0.8125)"/>
     </g>
    </g>
   </g>
   <g id="matplotlib.axis_2">
    <g id="ytick_1">
     <g id="line2d_21">
      <defs>
       <path id="m84b816dfd4" d="M 0 0 
L -3.5 0 
" style="stroke: #ffffff; stroke-width: 0.8"/>
      </defs>
      <g>
       <use xlink:href="#m84b816dfd4" x="41.96" y="231.394382" style="fill: #ffffff; stroke: #ffffff; stroke-width: 0.8"/>
      </g>
     </g>
     <g id="text_11">
      <!-- 0.0 -->
      <g style="fill: #ffffff" transform="translate(22.181875 234.863913)scale(0.1 -0.1)">
       <use xlink:href="#CMUSerif-Roman-30"/>
       <use xlink:href="#CMUSerif-Roman-2e" x="50"/>
       <use xlink:href="#CMUSerif-Roman-30" x="77.783203"/>
      </g>
     </g>
    </g>
    <g id="ytick_2">
     <g id="line2d_22">
      <g>
       <use xlink:href="#m84b816dfd4" x="41.96" y="205.712661" style="fill: #ffffff; stroke: #ffffff; stroke-width: 0.8"/>
      </g>
     </g>
     <g id="text_12">
      <!-- 0.1 -->
      <g style="fill: #ffffff" transform="translate(22.181875 209.182193)scale(0.1 -0.1)">
       <use xlink:href="#CMUSerif-Roman-30"/>
       <use xlink:href="#CMUSerif-Roman-2e" x="50"/>
       <use xlink:href="#CMUSerif-Roman-31" x="77.783203"/>
      </g>
     </g>
    </g>
    <g id="ytick_3">
     <g id="line2d_23">
      <g>
       <use xlink:href="#m84b816dfd4" x="41.96" y="180.030941" style="fill: #ffffff; stroke: #ffffff; stroke-width: 0.8"/>
      </g>
     </g>
     <g id="text_13">
      <!-- 0.2 -->
      <g style="fill: #ffffff" transform="translate(22.181875 183.500472)scale(0.1 -0.1)">
       <use xlink:href="#CMUSerif-Roman-30"/>
       <use xlink:href="#CMUSerif-Roman-2e" x="50"/>
       <use xlink:href="#CMUSerif-Roman-32" x="77.783203"/>
      </g>
     </g>
    </g>
    <g id="ytick_4">
     <g id="line2d_24">
      <g>
       <use xlink:href="#m84b816dfd4" x="41.96" y="154.34922" style="fill: #ffffff; stroke: #ffffff; stroke-width: 0.8"/>
      </g>
     </g>
     <g id="text_14">
      <!-- 0.3 -->
      <g style="fill: #ffffff" transform="translate(22.181875 157.818752)scale(0.1 -0.1)">
       <use xlink:href="#CMUSerif-Roman-30"/>
       <use xlink:href="#CMUSerif-Roman-2e" x="50"/>
       <use xlink:href="#CMUSerif-Roman-33" x="77.783203"/>
      </g>
     </g>
    </g>
    <g id="ytick_5">
     <g id="line2d_25">
      <g>
       <use xlink:href="#m84b816dfd4" x="41.96" y="128.6675" style="fill: #ffffff; stroke: #ffffff; stroke-width: 0.8"/>
      </g>
     </g>
     <g id="text_15">
      <!-- 0.4 -->
      <g style="fill: #ffffff" transform="translate(22.181875 132.137031)scale(0.1 -0.1)">
       <use xlink:href="#CMUSerif-Roman-30"/>
       <use xlink:href="#CMUSerif-Roman-2e" x="50"/>
       <use xlink:href="#CMUSerif-Roman-34" x="77.783203"/>
      </g>
     </g>
    </g>
    <g id="ytick_6">
     <g id="line2d_26">
      <g>
       <use xlink:href="#m84b816dfd4" x="41.96" y="102.98578" style="fill: #ffffff; stroke: #ffffff; stroke-width: 0.8"/>
      </g>
     </g>
     <g id="text_16">
      <!-- 0.5 -->
      <g style="fill: #ffffff" transform="translate(22.181875 106.455311)scale(0.1 -0.1)">
       <use xlink:href="#CMUSerif-Roman-30"/>
       <use xlink:href="#CMUSerif-Roman-2e" x="50"/>
       <use xlink:href="#CMUSerif-Roman-35" x="77.783203"/>
      </g>
     </g>
    </g>
    <g id="ytick_7">
     <g id="line2d_27">
      <g>
       <use xlink:href="#m84b816dfd4" x="41.96" y="77.304059" style="fill: #ffffff; stroke: #ffffff; stroke-width: 0.8"/>
      </g>
     </g>
     <g id="text_17">
      <!-- 0.6 -->
      <g style="fill: #ffffff" transform="translate(22.181875 80.77359)scale(0.1 -0.1)">
       <use xlink:href="#CMUSerif-Roman-30"/>
       <use xlink:href="#CMUSerif-Roman-2e" x="50"/>
       <use xlink:href="#CMUSerif-Roman-36" x="77.783203"/>
      </g>
     </g>
    </g>
    <g id="ytick_8">
     <g id="line2d_28">
      <g>
       <use xlink:href="#m84b816dfd4" x="41.96" y="51.622339" style="fill: #ffffff; stroke: #ffffff; stroke-width: 0.8"/>
      </g>
     </g>
     <g id="text_18">
      <!-- 0.7 -->
      <g style="fill: #ffffff" transform="translate(22.181875 55.09187)scale(0.1 -0.1)">
       <use xlink:href="#CMUSerif-Roman-30"/>
       <use xlink:href="#CMUSerif-Roman-2e" x="50"/>
       <use xlink:href="#CMUSerif-Roman-37" x="77.783203"/>
      </g>
     </g>
    </g>
    <g id="ytick_9">
     <g id="line2d_29">
      <g>
       <use xlink:href="#m84b816dfd4" x="41.96" y="25.940618" style="fill: #ffffff; stroke: #ffffff; stroke-width: 0.8"/>
      </g>
     </g>
     <g id="text_19">
      <!-- 0.8 -->
      <g style="fill: #ffffff" transform="translate(22.181875 29.41015)scale(0.1 -0.1)">
       <use xlink:href="#CMUSerif-Roman-30"/>
       <use xlink:href="#CMUSerif-Roman-2e" x="50"/>
       <use xlink:href="#CMUSerif-Roman-38" x="77.783203"/>
      </g>
     </g>
    </g>
    <g id="text_20">
     <!-- $y$ -->
     <g style="fill: #ffffff" transform="translate(15.661875 131.6675)rotate(-90)scale(0.12 -0.12)">
      <defs>
       <path id="Cmmi10-79" d="M 538 -916 
Q 672 -1147 1006 -1147 
Q 1309 -1147 1531 -934 
Q 1753 -722 1889 -420 
Q 2025 -119 2100 197 
Q 1816 -72 1484 -72 
Q 1231 -72 1053 15 
Q 875 103 776 276 
Q 678 450 678 697 
Q 678 906 734 1126 
Q 791 1347 892 1617 
Q 994 1888 1069 2088 
Q 1153 2322 1153 2472 
Q 1153 2663 1013 2663 
Q 759 2663 595 2402 
Q 431 2141 353 1819 
Q 341 1778 300 1778 
L 225 1778 
Q 172 1778 172 1838 
L 172 1856 
Q 275 2238 487 2533 
Q 700 2828 1025 2828 
Q 1253 2828 1411 2678 
Q 1569 2528 1569 2297 
Q 1569 2178 1516 2047 
Q 1488 1969 1388 1706 
Q 1288 1444 1234 1272 
Q 1181 1100 1147 934 
Q 1113 769 1113 603 
Q 1113 391 1203 244 
Q 1294 97 1491 97 
Q 1888 97 2203 581 
L 2688 2553 
Q 2709 2638 2787 2698 
Q 2866 2759 2956 2759 
Q 3034 2759 3092 2709 
Q 3150 2659 3150 2578 
Q 3150 2541 3144 2528 
L 2509 -19 
Q 2425 -347 2200 -647 
Q 1975 -947 1658 -1130 
Q 1341 -1313 997 -1313 
Q 831 -1313 668 -1248 
Q 506 -1184 406 -1056 
Q 306 -928 306 -756 
Q 306 -581 409 -453 
Q 513 -325 684 -325 
Q 788 -325 858 -389 
Q 928 -453 928 -556 
Q 928 -703 818 -812 
Q 709 -922 563 -922 
Q 556 -919 550 -917 
Q 544 -916 538 -916 
z
" transform="scale(0.015625)"/>
      </defs>
      <use xlink:href="#Cmmi10-79" transform="translate(0 0.8125)"/>
     </g>
    </g>
   </g>
   <g id="line2d_30">
    <defs>
     <path id="m23eee2d419" d="M 0 2 
C 0.530406 2 1.03916 1.789267 1.414214 1.414214 
C 1.789267 1.03916 2 0.530406 2 0 
C 2 -0.530406 1.789267 -1.03916 1.414214 -1.414214 
C 1.03916 -1.789267 0.530406 -2 0 -2 
C -0.530406 -2 -1.03916 -1.789267 -1.414214 -1.414214 
C -1.789267 -1.03916 -2 -0.530406 -2 0 
C -2 0.530406 -1.789267 1.03916 -1.414214 1.414214 
C -1.03916 1.789267 -0.530406 2 0 2 
z
" style="stroke: #3333cc"/>
    </defs>
    <g clip-path="url(#p32ad0fdc48)">
     <use xlink:href="#m23eee2d419" x="139.239274" y="146.316325" style="fill-opacity: 0; stroke: #3333cc"/>
    </g>
   </g>
   <g id="line2d_31">
    <defs>
     <path id="m0b30eb7c1c" d="M 0 2.75 
C 0.729309 2.75 1.428845 2.460243 1.944544 1.944544 
C 2.460243 1.428845 2.75 0.729309 2.75 0 
C 2.75 -0.729309 2.460243 -1.428845 1.944544 -1.944544 
C 1.428845 -2.460243 0.729309 -2.75 0 -2.75 
C -0.729309 -2.75 -1.428845 -2.460243 -1.944544 -1.944544 
C -2.460243 -1.428845 -2.75 -0.729309 -2.75 0 
C -2.75 0.729309 -2.460243 1.428845 -1.944544 1.944544 
C -1.428845 2.460243 -0.729309 2.75 0 2.75 
z
" style="stroke: #33cc33"/>
    </defs>
    <g clip-path="url(#p32ad0fdc48)">
     <use xlink:href="#m0b30eb7c1c" x="139.153792" y="146.43731" style="fill-opacity: 0; stroke: #33cc33"/>
    </g>
   </g>
   <g id="line2d_32">
    <defs>
     <path id="m6d9dbe975a" d="M 0 3.5 
C 0.928211 3.5 1.81853 3.131218 2.474874 2.474874 
C 3.131218 1.81853 3.5 0.928211 3.5 0 
C 3.5 -0.928211 3.131218 -1.81853 2.474874 -2.474874 
C 1.81853 -3.131218 0.928211 -3.5 0 -3.5 
C -0.928211 -3.5 -1.81853 -3.131218 -2.474874 -2.474874 
C -3.131218 -1.81853 -3.5 -0.928211 -3.5 0 
C -3.5 0.928211 -3.131218 1.81853 -2.474874 2.474874 
C -1.81853 3.131218 -0.928211 3.5 0 3.5 
z
" style="stroke: #cc3333"/>
    </defs>
    <g clip-path="url(#p32ad0fdc48)">
     <use xlink:href="#m6d9dbe975a" x="139.24843" y="146.388148" style="fill-opacity: 0; stroke: #cc3333"/>
    </g>
   </g>
   <g id="line2d_33">
    <defs>
     <path id="m7d47fcd8c4" d="M 0 4.25 
C 1.127113 4.25 2.208214 3.802193 3.005204 3.005204 
C 3.802193 2.208214 4.25 1.127113 4.25 0 
C 4.25 -1.127113 3.802193 -2.208214 3.005204 -3.005204 
C 2.208214 -3.802193 1.127113 -4.25 0 -4.25 
C -1.127113 -4.25 -2.208214 -3.802193 -3.005204 -3.005204 
C -3.802193 -2.208214 -4.25 -1.127113 -4.25 0 
C -4.25 1.127113 -3.802193 2.208214 -3.005204 3.005204 
C -2.208214 3.802193 -1.127113 4.25 0 4.25 
z
" style="stroke: #cccccc"/>
    </defs>
    <g clip-path="url(#p32ad0fdc48)">
     <use xlink:href="#m7d47fcd8c4" x="138.966778" y="146.895517" style="fill-opacity: 0; stroke: #cccccc"/>
    </g>
   </g>
   <g id="patch_3">
    <path d="M 41.96 248.0875 
L 41.96 9.2475 
" style="fill: none; stroke: #ffffff; stroke-width: 0.8; stroke-linejoin: miter; stroke-linecap: square"/>
   </g>
   <g id="patch_4">
    <path d="M 280.8 248.0875 
L 280.8 9.2475 
" style="fill: none; stroke: #ffffff; stroke-width: 0.8; stroke-linejoin: miter; stroke-linecap: square"/>
   </g>
   <g id="patch_5">
    <path d="M 41.96 248.0875 
L 280.8 248.0875 
" style="fill: none; stroke: #ffffff; stroke-width: 0.8; stroke-linejoin: miter; stroke-linecap: square"/>
   </g>
   <g id="patch_6">
    <path d="M 41.96 9.2475 
L 280.8 9.2475 
" style="fill: none; stroke: #ffffff; stroke-width: 0.8; stroke-linejoin: miter; stroke-linecap: square"/>
   </g>
   <g id="legend_1">
    <g id="patch_7">
     <path d="M 186.2775 102.4575 
L 273.8 102.4575 
Q 275.8 102.4575 275.8 100.4575 
L 275.8 16.2475 
Q 275.8 14.2475 273.8 14.2475 
L 186.2775 14.2475 
Q 184.2775 14.2475 184.2775 16.2475 
L 184.2775 100.4575 
Q 184.2775 102.4575 186.2775 102.4575 
z
" style="opacity: 0.8; stroke: #cccccc; stroke-linejoin: miter"/>
    </g>
    <g id="text_21">
     <!-- CIE 170-2 10$^\circ$ -->
     <g style="fill: #ffffff" transform="translate(188.2775 23.79875)scale(0.08 -0.08)">
      <defs>
       <path id="CMUSerif-Roman-43" d="M 359 2188 
Q 359 3153 1018 3833 
Q 1678 4513 2584 4513 
Q 2866 4513 3116 4409 
Q 3366 4306 3481 4217 
Q 3597 4128 3763 3963 
L 4084 4434 
Q 4134 4513 4186 4513 
Q 4238 4513 4247 4483 
Q 4256 4453 4256 4359 
L 4256 2841 
Q 4256 2738 4243 2713 
Q 4231 2688 4153 2688 
Q 4091 2688 4077 2706 
Q 4063 2725 4050 2797 
Q 3953 3488 3570 3900 
Q 3188 4313 2656 4313 
Q 2503 4313 2333 4278 
Q 2163 4244 1917 4112 
Q 1672 3981 1483 3764 
Q 1294 3547 1156 3136 
Q 1019 2725 1019 2181 
Q 1019 1644 1156 1231 
Q 1294 819 1483 605 
Q 1672 391 1917 259 
Q 2163 128 2336 92 
Q 2509 56 2663 56 
Q 3213 56 3634 447 
Q 4056 838 4097 1497 
Q 4103 1528 4103 1542 
Q 4103 1556 4109 1572 
Q 4116 1588 4131 1594 
Q 4147 1600 4172 1600 
Q 4256 1600 4256 1491 
Q 4256 881 3789 370 
Q 3322 -141 2584 -141 
Q 1675 -141 1017 534 
Q 359 1209 359 2188 
z
" transform="scale(0.015625)"/>
       <path id="CMUSerif-Roman-49" d="M 178 0 
L 178 197 
L 347 197 
Q 706 197 789 255 
Q 872 313 872 500 
L 872 3872 
Q 872 4056 787 4114 
Q 703 4172 347 4172 
L 178 4172 
L 178 4372 
Q 403 4353 1159 4353 
Q 1909 4353 2131 4372 
L 2131 4172 
L 1966 4172 
Q 1606 4172 1523 4114 
Q 1441 4056 1441 3872 
L 1441 500 
Q 1441 316 1523 256 
Q 1606 197 1966 197 
L 2131 197 
L 2131 0 
Q 1906 19 1153 19 
Q 403 19 178 0 
z
" transform="scale(0.015625)"/>
       <path id="CMUSerif-Roman-45" d="M 213 0 
L 213 197 
L 366 197 
Q 713 197 792 255 
Q 872 313 872 500 
L 872 3853 
Q 872 4038 790 4095 
Q 709 4153 366 4153 
L 213 4153 
L 213 4353 
L 3816 4353 
L 3994 2913 
L 3834 2913 
Q 3791 3278 3733 3489 
Q 3675 3700 3536 3862 
Q 3397 4025 3170 4089 
Q 2944 4153 2578 4153 
L 1753 4153 
Q 1534 4153 1487 4108 
Q 1441 4063 1441 3897 
L 1441 2363 
L 2016 2363 
Q 2456 2363 2581 2516 
Q 2706 2669 2706 3109 
L 2869 3109 
L 2869 1416 
L 2706 1416 
Q 2706 1850 2581 2006 
Q 2456 2163 2016 2163 
L 1441 2163 
L 1441 453 
Q 1441 288 1489 242 
Q 1538 197 1753 197 
L 2606 197 
Q 2881 197 3082 233 
Q 3284 269 3425 358 
Q 3566 447 3661 550 
Q 3756 653 3823 839 
Q 3891 1025 3930 1197 
Q 3969 1369 4013 1650 
L 4172 1650 
L 3903 0 
L 213 0 
z
" transform="scale(0.015625)"/>
       <path id="CMUSerif-Roman-20" transform="scale(0.015625)"/>
       <path id="CMUSerif-Roman-2d" d="M 63 1191 
L 63 1569 
L 1766 1569 
L 1766 1191 
L 63 1191 
z
" transform="scale(0.015625)"/>
       <path id="Cmsy10-b1" d="M 1600 359 
Q 1269 359 983 526 
Q 697 694 528 984 
Q 359 1275 359 1600 
Q 359 1925 528 2215 
Q 697 2506 983 2673 
Q 1269 2841 1600 2841 
Q 1931 2841 2215 2672 
Q 2500 2503 2667 2214 
Q 2834 1925 2834 1600 
Q 2834 1275 2667 986 
Q 2500 697 2215 528 
Q 1931 359 1600 359 
z
M 1600 616 
Q 2000 616 2289 908 
Q 2578 1200 2578 1600 
Q 2578 1856 2445 2086 
Q 2313 2316 2088 2450 
Q 1863 2584 1600 2584 
Q 1403 2584 1225 2507 
Q 1047 2431 906 2290 
Q 766 2150 691 1973 
Q 616 1797 616 1600 
Q 616 1200 905 908 
Q 1194 616 1600 616 
z
" transform="scale(0.015625)"/>
      </defs>
      <use xlink:href="#CMUSerif-Roman-43" transform="translate(0 0.484375)"/>
      <use xlink:href="#CMUSerif-Roman-49" transform="translate(72.167969 0.484375)"/>
      <use xlink:href="#CMUSerif-Roman-45" transform="translate(108.251953 0.484375)"/>
      <use xlink:href="#CMUSerif-Roman-20" transform="translate(176.220703 0.484375)"/>
      <use xlink:href="#CMUSerif-Roman-31" transform="translate(209.472656 0.484375)"/>
      <use xlink:href="#CMUSerif-Roman-37" transform="translate(259.472656 0.484375)"/>
      <use xlink:href="#CMUSerif-Roman-30" transform="translate(309.472656 0.484375)"/>
      <use xlink:href="#CMUSerif-Roman-2d" transform="translate(359.472656 0.484375)"/>
      <use xlink:href="#CMUSerif-Roman-32" transform="translate(392.724609 0.484375)"/>
      <use xlink:href="#CMUSerif-Roman-20" transform="translate(442.724609 0.484375)"/>
      <use xlink:href="#CMUSerif-Roman-31" transform="translate(475.976562 0.484375)"/>
      <use xlink:href="#CMUSerif-Roman-30" transform="translate(525.976562 0.484375)"/>
      <use xlink:href="#Cmsy10-b1" transform="translate(592.731719 38.748438)scale(0.7)"/>
     </g>
     <!-- (0.3138, 0.3313) -->
     <g style="fill: #ffffff" transform="translate(188.2775 32.55)scale(0.08 -0.08)">
      <defs>
       <path id="CMUSerif-Roman-28" d="M 634 1600 
Q 634 2681 1038 3553 
Q 1209 3919 1450 4225 
Q 1691 4531 1850 4665 
Q 2009 4800 2053 4800 
Q 2116 4800 2119 4738 
Q 2119 4706 2034 4628 
Q 1003 3578 1006 1600 
Q 1006 -384 2009 -1394 
Q 2119 -1503 2119 -1538 
Q 2119 -1600 2053 -1600 
Q 2009 -1600 1856 -1472 
Q 1703 -1344 1465 -1050 
Q 1228 -756 1056 -397 
Q 634 475 634 1600 
z
" transform="scale(0.015625)"/>
       <path id="CMUSerif-Roman-2c" d="M 640 103 
Q 550 206 550 340 
Q 550 475 639 576 
Q 728 678 891 678 
Q 1081 678 1190 495 
Q 1300 313 1300 6 
Q 1300 -325 1165 -633 
Q 1031 -941 900 -1087 
Q 769 -1234 716 -1234 
Q 653 -1234 653 -1166 
Q 653 -1141 697 -1094 
Q 1156 -600 1159 6 
Q 1159 103 1147 103 
L 1131 91 
Q 1022 0 891 0 
Q 731 0 640 103 
z
" transform="scale(0.015625)"/>
       <path id="CMUSerif-Roman-29" d="M 366 -1538 
Q 366 -1506 447 -1428 
Q 1478 -378 1478 1600 
Q 1478 3584 488 4588 
Q 366 4703 366 4738 
Q 366 4800 428 4800 
Q 472 4800 626 4672 
Q 781 4544 1017 4250 
Q 1253 3956 1428 3597 
Q 1850 2725 1850 1600 
Q 1850 519 1447 -353 
Q 1275 -719 1034 -1025 
Q 794 -1331 634 -1465 
Q 475 -1600 428 -1600 
Q 366 -1600 366 -1538 
z
" transform="scale(0.015625)"/>
      </defs>
      <use xlink:href="#CMUSerif-Roman-28"/>
      <use xlink:href="#CMUSerif-Roman-30" x="38.769531"/>
      <use xlink:href="#CMUSerif-Roman-2e" x="88.769531"/>
      <use xlink:href="#CMUSerif-Roman-33" x="116.552734"/>
      <use xlink:href="#CMUSerif-Roman-31" x="166.552734"/>
      <use xlink:href="#CMUSerif-Roman-33" x="216.552734"/>
      <use xlink:href="#CMUSerif-Roman-38" x="266.552734"/>
      <use xlink:href="#CMUSerif-Roman-2c" x="316.552734"/>
      <use xlink:href="#CMUSerif-Roman-20" x="344.238281"/>
      <use xlink:href="#CMUSerif-Roman-30" x="377.490234"/>
      <use xlink:href="#CMUSerif-Roman-2e" x="427.490234"/>
      <use xlink:href="#CMUSerif-Roman-33" x="455.273438"/>
      <use xlink:href="#CMUSerif-Roman-33" x="505.273438"/>
      <use xlink:href="#CMUSerif-Roman-31" x="555.273438"/>
      <use xlink:href="#CMUSerif-Roman-33" x="605.273438"/>
      <use xlink:href="#CMUSerif-Roman-29" x="655.273438"/>
     </g>
    </g>
    <g id="line2d_34">
     <path d="M 251.8 25.674375 
L 261.8 25.674375 
L 271.8 25.674375 
" style="fill: none; stroke-dasharray: 5.55,2.4; stroke-dashoffset: 0; stroke: #3333cc; stroke-width: 1.5"/>
    </g>
    <g id="text_22">
     <!-- CIE 170-2 2$^\circ$ -->
     <g style="fill: #ffffff" transform="translate(188.2775 45.10125)scale(0.08 -0.08)">
      <use xlink:href="#CMUSerif-Roman-43" transform="translate(0 0.484375)"/>
      <use xlink:href="#CMUSerif-Roman-49" transform="translate(72.167969 0.484375)"/>
      <use xlink:href="#CMUSerif-Roman-45" transform="translate(108.251953 0.484375)"/>
      <use xlink:href="#CMUSerif-Roman-20" transform="translate(176.220703 0.484375)"/>
      <use xlink:href="#CMUSerif-Roman-31" transform="translate(209.472656 0.484375)"/>
      <use xlink:href="#CMUSerif-Roman-37" transform="translate(259.472656 0.484375)"/>
      <use xlink:href="#CMUSerif-Roman-30" transform="translate(309.472656 0.484375)"/>
      <use xlink:href="#CMUSerif-Roman-2d" transform="translate(359.472656 0.484375)"/>
      <use xlink:href="#CMUSerif-Roman-32" transform="translate(392.724609 0.484375)"/>
      <use xlink:href="#CMUSerif-Roman-20" transform="translate(442.724609 0.484375)"/>
      <use xlink:href="#CMUSerif-Roman-32" transform="translate(475.976562 0.484375)"/>
      <use xlink:href="#Cmsy10-b1" transform="translate(542.731719 38.748438)scale(0.7)"/>
     </g>
     <!-- (0.3135, 0.3308) -->
     <g style="fill: #ffffff" transform="translate(188.2775 53.8525)scale(0.08 -0.08)">
      <use xlink:href="#CMUSerif-Roman-28"/>
      <use xlink:href="#CMUSerif-Roman-30" x="38.769531"/>
      <use xlink:href="#CMUSerif-Roman-2e" x="88.769531"/>
      <use xlink:href="#CMUSerif-Roman-33" x="116.552734"/>
      <use xlink:href="#CMUSerif-Roman-31" x="166.552734"/>
      <use xlink:href="#CMUSerif-Roman-33" x="216.552734"/>
      <use xlink:href="#CMUSerif-Roman-35" x="266.552734"/>
      <use xlink:href="#CMUSerif-Roman-2c" x="316.552734"/>
      <use xlink:href="#CMUSerif-Roman-20" x="344.238281"/>
      <use xlink:href="#CMUSerif-Roman-30" x="377.490234"/>
      <use xlink:href="#CMUSerif-Roman-2e" x="427.490234"/>
      <use xlink:href="#CMUSerif-Roman-33" x="455.273438"/>
      <use xlink:href="#CMUSerif-Roman-33" x="505.273438"/>
      <use xlink:href="#CMUSerif-Roman-30" x="555.273438"/>
      <use xlink:href="#CMUSerif-Roman-38" x="605.273438"/>
      <use xlink:href="#CMUSerif-Roman-29" x="655.273438"/>
     </g>
    </g>
    <g id="line2d_35">
     <path d="M 251.8 46.976875 
L 261.8 46.976875 
L 271.8 46.976875 
" style="fill: none; stroke-dasharray: 9.6,2.4,1.5,2.4; stroke-dashoffset: 0; stroke: #33cc33; stroke-width: 1.5"/>
    </g>
    <g id="text_23">
     <!-- CIE 1964 10$^\circ$ -->
     <g style="fill: #ffffff" transform="translate(188.2775 66.40375)scale(0.08 -0.08)">
      <defs>
       <path id="CMUSerif-Roman-39" d="M 269 2822 
Q 269 3163 369 3395 
Q 469 3628 678 3859 
Q 1063 4263 1619 4263 
Q 1856 4263 2067 4163 
Q 2278 4063 2479 3836 
Q 2681 3609 2803 3164 
Q 2925 2719 2925 2106 
Q 2925 1116 2445 487 
Q 1966 -141 1319 -141 
Q 909 -141 668 45 
Q 428 231 428 550 
Q 428 716 522 786 
Q 616 856 722 856 
Q 838 856 928 779 
Q 1019 703 1019 563 
Q 1019 447 945 358 
Q 872 269 684 269 
Q 869 38 1313 38 
Q 1472 38 1631 111 
Q 1791 184 1964 364 
Q 2138 544 2244 922 
Q 2350 1300 2350 1831 
L 2350 2034 
Q 2094 1394 1550 1394 
Q 1013 1394 641 1806 
Q 269 2219 269 2822 
z
M 844 2816 
Q 844 2181 959 1947 
Q 1156 1544 1556 1544 
Q 1947 1544 2142 1892 
Q 2338 2241 2338 2694 
Q 2338 3322 2234 3597 
Q 2044 4103 1620 4103 
Q 1197 4103 978 3700 
Q 844 3463 844 2816 
z
" transform="scale(0.015625)"/>
      </defs>
      <use xlink:href="#CMUSerif-Roman-43" transform="translate(0 0.484375)"/>
      <use xlink:href="#CMUSerif-Roman-49" transform="translate(72.167969 0.484375)"/>
      <use xlink:href="#CMUSerif-Roman-45" transform="translate(108.251953 0.484375)"/>
      <use xlink:href="#CMUSerif-Roman-20" transform="translate(176.220703 0.484375)"/>
      <use xlink:href="#CMUSerif-Roman-31" transform="translate(209.472656 0.484375)"/>
      <use xlink:href="#CMUSerif-Roman-39" transform="translate(259.472656 0.484375)"/>
      <use xlink:href="#CMUSerif-Roman-36" transform="translate(309.472656 0.484375)"/>
      <use xlink:href="#CMUSerif-Roman-34" transform="translate(359.472656 0.484375)"/>
      <use xlink:href="#CMUSerif-Roman-20" transform="translate(409.472656 0.484375)"/>
      <use xlink:href="#CMUSerif-Roman-31" transform="translate(442.724609 0.484375)"/>
      <use xlink:href="#CMUSerif-Roman-30" transform="translate(492.724609 0.484375)"/>
      <use xlink:href="#Cmsy10-b1" transform="translate(559.479766 38.748438)scale(0.7)"/>
     </g>
     <!-- (0.3138, 0.3310) -->
     <g style="fill: #ffffff" transform="translate(188.2775 75.155)scale(0.08 -0.08)">
      <use xlink:href="#CMUSerif-Roman-28"/>
      <use xlink:href="#CMUSerif-Roman-30" x="38.769531"/>
      <use xlink:href="#CMUSerif-Roman-2e" x="88.769531"/>
      <use xlink:href="#CMUSerif-Roman-33" x="116.552734"/>
      <use xlink:href="#CMUSerif-Roman-31" x="166.552734"/>
      <use xlink:href="#CMUSerif-Roman-33" x="216.552734"/>
      <use xlink:href="#CMUSerif-Roman-38" x="266.552734"/>
      <use xlink:href="#CMUSerif-Roman-2c" x="316.552734"/>
      <use xlink:href="#CMUSerif-Roman-20" x="344.238281"/>
      <use xlink:href="#CMUSerif-Roman-30" x="377.490234"/>
      <use xlink:href="#CMUSerif-Roman-2e" x="427.490234"/>
      <use xlink:href="#CMUSerif-Roman-33" x="455.273438"/>
      <use xlink:href="#CMUSerif-Roman-33" x="505.273438"/>
      <use xlink:href="#CMUSerif-Roman-31" x="555.273438"/>
      <use xlink:href="#CMUSerif-Roman-30" x="605.273438"/>
      <use xlink:href="#CMUSerif-Roman-29" x="655.273438"/>
     </g>
    </g>
    <g id="line2d_36">
     <path d="M 251.8 68.279375 
L 261.8 68.279375 
L 271.8 68.279375 
" style="fill: none; stroke-dasharray: 1.5,2.475; stroke-dashoffset: 0; stroke: #cc3333; stroke-width: 1.5"/>
    </g>
    <g id="text_24">
     <!-- CIE 1931 2$^\circ$ -->
     <g style="fill: #ffffff" transform="translate(188.2775 87.70625)scale(0.08 -0.08)">
      <use xlink:href="#CMUSerif-Roman-43" transform="translate(0 0.484375)"/>
      <use xlink:href="#CMUSerif-Roman-49" transform="translate(72.167969 0.484375)"/>
      <use xlink:href="#CMUSerif-Roman-45" transform="translate(108.251953 0.484375)"/>
      <use xlink:href="#CMUSerif-Roman-20" transform="translate(176.220703 0.484375)"/>
      <use xlink:href="#CMUSerif-Roman-31" transform="translate(209.472656 0.484375)"/>
      <use xlink:href="#CMUSerif-Roman-39" transform="translate(259.472656 0.484375)"/>
      <use xlink:href="#CMUSerif-Roman-33" transform="translate(309.472656 0.484375)"/>
      <use xlink:href="#CMUSerif-Roman-31" transform="translate(359.472656 0.484375)"/>
      <use xlink:href="#CMUSerif-Roman-20" transform="translate(409.472656 0.484375)"/>
      <use xlink:href="#CMUSerif-Roman-32" transform="translate(442.724609 0.484375)"/>
      <use xlink:href="#Cmsy10-b1" transform="translate(509.479766 38.748438)scale(0.7)"/>
     </g>
     <!-- (0.3127, 0.3290) -->
     <g style="fill: #ffffff" transform="translate(188.2775 96.4575)scale(0.08 -0.08)">
      <use xlink:href="#CMUSerif-Roman-28"/>
      <use xlink:href="#CMUSerif-Roman-30" x="38.769531"/>
      <use xlink:href="#CMUSerif-Roman-2e" x="88.769531"/>
      <use xlink:href="#CMUSerif-Roman-33" x="116.552734"/>
      <use xlink:href="#CMUSerif-Roman-31" x="166.552734"/>
      <use xlink:href="#CMUSerif-Roman-32" x="216.552734"/>
      <use xlink:href="#CMUSerif-Roman-37" x="266.552734"/>
      <use xlink:href="#CMUSerif-Roman-2c" x="316.552734"/>
      <use xlink:href="#CMUSerif-Roman-20" x="344.238281"/>
      <use xlink:href="#CMUSerif-Roman-30" x="377.490234"/>
      <use xlink:href="#CMUSerif-Roman-2e" x="427.490234"/>
      <use xlink:href="#CMUSerif-Roman-33" x="455.273438"/>
      <use xlink:href="#CMUSerif-Roman-32" x="505.273438"/>
      <use xlink:href="#CMUSerif-Roman-39" x="555.273438"/>
      <use xlink:href="#CMUSerif-Roman-30" x="605.273438"/>
      <use xlink:href="#CMUSerif-Roman-29" x="655.273438"/>
     </g>
    </g>
    <g id="line2d_37">
     <path d="M 251.8 89.581875 
L 261.8 89.581875 
L 271.8 89.581875 
" style="fill: none; stroke: #cccccc; stroke-width: 1.5; stroke-linecap: square"/>
    </g>
   </g>
  </g>
 </g>
 <defs>
  <clipPath id="p32ad0fdc48">
   <rect x="41.96" y="9.2475" width="238.84" height="238.84"/>
  </clipPath>
 </defs>
</svg>
