<?xml version="1.0" encoding="utf-8" standalone="no"?>
<!DOCTYPE svg PUBLIC "-//W3C//DTD SVG 1.1//EN"
  "http://www.w3.org/Graphics/SVG/1.1/DTD/svg11.dtd">
<svg xmlns:xlink="http://www.w3.org/1999/xlink" width="576pt" height="324pt" viewBox="0 0 576 324" xmlns="http://www.w3.org/2000/svg" version="1.1">
 <metadata>
  <rdf:RDF xmlns:dc="http://purl.org/dc/elements/1.1/" xmlns:cc="http://creativecommons.org/ns#" xmlns:rdf="http://www.w3.org/1999/02/22-rdf-syntax-ns#">
   <cc:Work>
    <dc:type rdf:resource="http://purl.org/dc/dcmitype/StillImage"/>
    <dc:date>2022-07-03T02:06:00.408579</dc:date>
    <dc:format>image/svg+xml</dc:format>
    <dc:creator>
     <cc:Agent>
      <dc:title>Matplotlib v3.5.2, https://matplotlib.org/</dc:title>
     </cc:Agent>
    </dc:creator>
   </cc:Work>
  </rdf:RDF>
 </metadata>
 <defs>
  <style type="text/css">*{stroke-linejoin: round; stroke-linecap: butt}</style>
 </defs>
 <g id="figure_1">
  <g id="patch_1">
   <path d="M 0 324 
L 576 324 
L 576 0 
L 0 0 
z
"/>
  </g>
  <g id="axes_1">
   <g id="patch_2">
    <path d="M 56.936 281.275 
L 568.8 281.275 
L 568.8 7.2 
L 56.936 7.2 
L 56.936 281.275 
z
" style="fill: none"/>
   </g>
   <g id="line2d_1">
    <path d="M 56.936 258.435417 
L 568.8 258.435417 
" clip-path="url(#p4dec6f1a74)" style="fill: none; stroke: #bfbfbf; stroke-width: 2; stroke-linecap: square"/>
   </g>
   <g id="line2d_2">
    <path d="M 56.936 30.039583 
L 568.8 30.039583 
" clip-path="url(#p4dec6f1a74)" style="fill: none; stroke-dasharray: 1.5,2.475; stroke-dashoffset: 0; stroke: #404040; stroke-width: 1.5"/>
   </g>
   <g id="line2d_3">
    <path d="M 97.346316 258.342318 
L 105.428379 258.142293 
L 112.163432 257.756437 
L 117.551474 257.221388 
L 121.592505 256.631926 
L 128.327558 255.361711 
L 133.7156 254.131252 
L 147.185705 250.607972 
L 155.267768 248.044959 
L 175.472926 241.28796 
L 186.249011 237.094179 
L 188.943032 235.703088 
L 191.637053 234.074032 
L 194.331074 232.20918 
L 199.719116 228.070876 
L 206.454168 222.697179 
L 210.4952 219.222136 
L 213.189221 216.689911 
L 215.883242 213.933631 
L 218.577263 210.942787 
L 222.618295 206.060598 
L 230.700358 195.808822 
L 233.394379 191.727617 
L 236.0884 187.022206 
L 242.823453 174.290737 
L 246.864484 166.185198 
L 250.905516 157.320013 
L 256.293558 144.691551 
L 263.028611 128.244082 
L 267.069642 117.934979 
L 271.110674 107.493178 
L 273.804695 101.076397 
L 276.498716 95.328816 
L 279.192737 90.083021 
L 283.233768 82.791712 
L 287.2748 76.067739 
L 291.315832 69.497476 
L 294.009853 64.737935 
L 298.050884 57.269163 
L 300.744905 52.866148 
L 302.091916 50.994216 
L 303.438926 49.354334 
L 304.785937 47.951527 
L 306.132947 46.790134 
L 307.479958 45.857365 
L 312.868 42.709385 
L 315.562021 40.390483 
L 318.256042 37.854147 
L 319.603053 36.730896 
L 320.950063 35.805208 
L 323.644084 34.420444 
L 331.726147 31.153241 
L 334.420168 30.402504 
L 337.114189 30.059682 
L 339.808211 30.14396 
L 341.155221 30.355912 
L 342.502232 30.713123 
L 343.849242 31.249853 
L 345.196253 32.000133 
L 346.543263 32.995711 
L 347.890274 34.242295 
L 351.931305 38.468988 
L 353.278316 39.668523 
L 354.625326 40.622533 
L 360.013368 43.793352 
L 361.360379 44.925053 
L 362.707389 46.274644 
L 365.401411 49.515124 
L 368.095432 53.297131 
L 370.789453 57.502127 
L 373.483474 62.105216 
L 377.524505 69.661236 
L 381.565537 77.716528 
L 385.606568 86.247798 
L 388.300589 92.392788 
L 392.341621 102.251722 
L 399.076674 119.438509 
L 407.158737 140.252221 
L 415.2408 160.22361 
L 421.975853 177.450822 
L 426.016884 186.89065 
L 428.710905 192.699213 
L 431.404926 198.10283 
L 434.098947 203.091452 
L 438.139979 209.897648 
L 443.528021 218.374331 
L 447.569053 224.288184 
L 450.263074 227.88519 
L 452.957095 231.177973 
L 455.651116 234.165162 
L 458.345137 236.862106 
L 461.039158 239.294087 
L 463.733179 241.484083 
L 466.4272 243.451508 
L 469.121221 245.214564 
L 471.815242 246.791546 
L 475.856274 248.846652 
L 479.897305 250.576362 
L 483.938337 252.026767 
L 487.979368 253.233976 
L 492.0204 254.233253 
L 497.408442 255.311578 
L 502.796484 256.1201 
L 509.531537 256.821599 
L 517.6136 257.391451 
L 527.042674 257.815977 
L 539.165768 258.120717 
L 556.676905 258.313635 
L 577 258.393806 
L 577 258.393806 
" clip-path="url(#p4dec6f1a74)" style="fill: none; stroke: #cc0000; stroke-width: 1.5; stroke-linecap: square"/>
   </g>
   <g id="line2d_4">
    <path d="M 97.346316 258.353599 
L 106.775389 258.115062 
L 113.510442 257.687708 
L 118.898484 257.086835 
L 122.939516 256.420312 
L 126.980547 255.558794 
L 131.021579 254.493396 
L 135.062611 253.187725 
L 140.450653 251.132551 
L 144.491684 249.369747 
L 148.532716 247.308862 
L 152.573747 244.917215 
L 156.614779 242.235643 
L 172.778905 230.866669 
L 180.860968 224.568654 
L 183.554989 222.541413 
L 186.249011 220.217713 
L 188.943032 217.457321 
L 191.637053 214.308885 
L 195.678084 209.053497 
L 203.760147 198.197386 
L 211.842211 187.547745 
L 214.536232 183.679862 
L 217.230253 179.529224 
L 221.271284 172.754547 
L 226.659326 163.551794 
L 230.700358 156.777116 
L 232.047368 154.255626 
L 234.741389 148.51878 
L 246.864484 120.175999 
L 250.905516 109.796322 
L 258.987579 88.597534 
L 271.110674 58.325951 
L 272.457684 55.342644 
L 273.804695 52.693709 
L 275.151705 50.365442 
L 276.498716 48.318559 
L 277.845726 46.509207 
L 280.539747 43.420382 
L 283.233768 40.860521 
L 285.927789 38.727304 
L 289.968821 36.036573 
L 294.009853 33.32186 
L 296.703874 31.512508 
L 298.050884 30.790092 
L 299.397895 30.283738 
L 300.744905 30.05283 
L 302.091916 30.109929 
L 303.438926 30.455721 
L 304.785937 31.089062 
L 306.132947 32.00767 
L 307.479958 33.191674 
L 314.215011 39.901715 
L 316.909032 42.053661 
L 318.256042 43.26256 
L 319.603053 44.695972 
L 320.950063 46.421503 
L 323.644084 50.513899 
L 331.726147 63.87871 
L 334.420168 69.026067 
L 337.114189 74.825722 
L 341.155221 84.326761 
L 343.849242 91.14095 
L 346.543263 98.555364 
L 355.972337 126.243791 
L 362.707389 144.038796 
L 376.177495 179.214952 
L 380.218526 188.91675 
L 384.259558 198.007589 
L 386.953579 203.657645 
L 389.6476 208.941354 
L 392.341621 213.847754 
L 395.035642 218.375244 
L 397.729663 222.538672 
L 400.423684 226.361561 
L 403.117705 229.864925 
L 405.811726 233.062695 
L 408.505747 235.968964 
L 411.199768 238.593323 
L 413.893789 240.943927 
L 416.587811 243.037289 
L 419.281832 244.903146 
L 421.975853 246.569111 
L 424.669874 248.052748 
L 428.710905 249.963028 
L 432.751937 251.557253 
L 436.792968 252.907986 
L 440.834 253.996178 
L 444.875032 254.826968 
L 450.263074 255.710563 
L 455.651116 256.415007 
L 462.386168 257.060583 
L 470.468232 257.564155 
L 481.244316 257.95214 
L 496.061432 258.224388 
L 517.6136 258.371183 
L 567.452989 258.430873 
L 577 258.432567 
L 577 258.432567 
" clip-path="url(#p4dec6f1a74)" style="fill: none; stroke: #00cc00; stroke-width: 1.5; stroke-linecap: square"/>
   </g>
   <g id="line2d_5">
    <path d="M 97.346316 257.032461 
L 100.040337 256.376061 
L 102.734358 255.419381 
L 104.081368 254.792161 
L 105.428379 254.042291 
L 106.775389 253.149515 
L 108.1224 252.091722 
L 109.469411 250.844932 
L 110.816421 249.383907 
L 112.163432 247.682518 
L 113.510442 245.713495 
L 114.857453 243.449521 
L 116.204463 240.8644 
L 117.551474 237.934333 
L 118.898484 234.639312 
L 120.245495 230.965565 
L 121.592505 226.906742 
L 124.286526 217.659909 
L 126.980547 207.02557 
L 129.674568 195.053974 
L 132.368589 181.726849 
L 141.797663 132.374849 
L 145.838695 112.408485 
L 149.879726 91.894428 
L 152.573747 79.763183 
L 155.267768 69.415253 
L 162.002821 45.118961 
L 163.349832 40.952793 
L 164.696842 37.585782 
L 166.043853 35.215033 
L 167.390863 33.687522 
L 168.737874 32.747444 
L 174.125916 30.2593 
L 175.472926 30.044608 
L 176.819937 30.532005 
L 178.166947 32.020004 
L 179.513958 34.68584 
L 180.860968 38.283531 
L 183.554989 46.92306 
L 186.249011 55.503663 
L 188.943032 63.157436 
L 195.678084 81.298689 
L 197.025095 85.484042 
L 198.372105 90.097866 
L 201.066126 100.714847 
L 203.760147 112.70106 
L 214.536232 162.73939 
L 217.230253 173.539087 
L 219.924274 183.086718 
L 222.618295 191.574592 
L 225.312316 199.395779 
L 228.006337 206.702847 
L 230.700358 213.222178 
L 233.394379 218.751412 
L 236.0884 223.419823 
L 238.782421 227.521812 
L 241.476442 231.25243 
L 244.170463 234.697324 
L 248.211495 239.41283 
L 250.905516 242.263804 
L 253.599537 244.867585 
L 256.293558 247.146245 
L 258.987579 249.017811 
L 261.6816 250.495761 
L 264.375621 251.703541 
L 268.416653 253.206728 
L 272.457684 254.408844 
L 276.498716 255.342777 
L 280.539747 256.072959 
L 285.927789 256.797615 
L 291.315832 257.29772 
L 299.397895 257.788253 
L 308.826968 258.104738 
L 322.297074 258.31047 
L 346.543263 258.41333 
L 435.445958 258.435417 
L 577 258.435417 
L 577 258.435417 
" clip-path="url(#p4dec6f1a74)" style="fill: none; stroke: #0000cc; stroke-width: 1.5; stroke-linecap: square"/>
   </g>
   <g id="matplotlib.axis_1">
    <g id="xtick_1">
     <g id="line2d_6">
      <defs>
       <path id="m0f1bfa1d52" d="M 0 0 
L 0 3.5 
" style="stroke: #ffffff; stroke-width: 0.8"/>
      </defs>
      <g>
       <use xlink:href="#m0f1bfa1d52" x="77.141158" y="281.275" style="fill: #ffffff; stroke: #ffffff; stroke-width: 0.8"/>
      </g>
     </g>
     <g id="text_1">
      <!-- 375 -->
      <g style="fill: #ffffff" transform="translate(69.641158 295.214063)scale(0.1 -0.1)">
       <defs>
        <path id="CMUSerif-Roman-33" d="M 269 863 
Q 269 1053 378 1143 
Q 488 1234 628 1234 
Q 775 1234 879 1139 
Q 984 1044 984 878 
Q 984 700 861 600 
Q 738 500 563 525 
Q 716 269 998 153 
Q 1281 38 1544 38 
Q 1819 38 2042 275 
Q 2266 513 2266 1094 
Q 2266 1588 2073 1872 
Q 1881 2156 1503 2156 
L 1222 2156 
Q 1125 2156 1097 2165 
Q 1069 2175 1069 2228 
Q 1069 2291 1166 2303 
Q 1263 2303 1416 2322 
Q 1788 2334 1984 2656 
Q 2163 2956 2163 3384 
Q 2163 3775 1977 3939 
Q 1791 4103 1550 4103 
Q 1325 4103 1078 4009 
Q 831 3916 697 3706 
Q 1094 3706 1094 3384 
Q 1094 3244 1005 3151 
Q 916 3059 769 3059 
Q 628 3059 534 3148 
Q 441 3238 441 3391 
Q 441 3756 767 4009 
Q 1094 4263 1575 4263 
Q 2050 4263 2401 4013 
Q 2753 3763 2753 3378 
Q 2753 3000 2503 2690 
Q 2253 2381 1856 2253 
Q 2344 2156 2634 1826 
Q 2925 1497 2925 1094 
Q 2925 594 2531 226 
Q 2138 -141 1563 -141 
Q 1031 -141 650 146 
Q 269 434 269 863 
z
" transform="scale(0.015625)"/>
        <path id="CMUSerif-Roman-37" d="M 359 3009 
L 569 4325 
L 728 4325 
Q 747 4247 780 4212 
Q 813 4178 995 4150 
Q 1178 4122 1550 4122 
L 3103 4122 
Q 3103 3975 3047 3897 
L 2181 2681 
Q 1906 2297 1784 1588 
Q 1713 1113 1716 538 
L 1716 213 
Q 1716 -141 1420 -141 
Q 1125 -141 1125 213 
Q 1125 1434 1913 2619 
Q 1997 2741 2308 3175 
Q 2619 3609 2631 3628 
L 1306 3628 
Q 725 3628 678 3591 
Q 616 3534 519 3009 
L 359 3009 
z
" transform="scale(0.015625)"/>
        <path id="CMUSerif-Roman-35" d="M 319 1031 
Q 319 1222 422 1295 
Q 525 1369 634 1369 
Q 781 1369 867 1276 
Q 953 1184 953 1056 
Q 953 928 867 836 
Q 781 744 634 744 
Q 563 744 525 756 
Q 609 463 867 250 
Q 1125 38 1466 38 
Q 1894 38 2150 453 
Q 2303 722 2303 1331 
Q 2303 1869 2188 2138 
Q 2009 2547 1644 2547 
Q 1125 2547 819 2100 
Q 781 2044 738 2041 
Q 675 2041 661 2077 
Q 647 2113 647 2209 
L 647 4103 
Q 647 4256 709 4256 
Q 734 4256 788 4238 
Q 1191 4059 1638 4056 
Q 2097 4056 2509 4244 
Q 2541 4263 2559 4263 
Q 2622 4263 2625 4191 
Q 2625 4166 2573 4092 
Q 2522 4019 2412 3923 
Q 2303 3828 2162 3737 
Q 2022 3647 1817 3586 
Q 1613 3525 1388 3525 
Q 1119 3525 844 3609 
L 844 2363 
Q 1175 2688 1656 2688 
Q 2169 2688 2522 2275 
Q 2875 1863 2875 1288 
Q 2875 684 2458 271 
Q 2041 -141 1478 -141 
Q 966 -141 642 225 
Q 319 591 319 1031 
z
" transform="scale(0.015625)"/>
       </defs>
       <use xlink:href="#CMUSerif-Roman-33"/>
       <use xlink:href="#CMUSerif-Roman-37" x="50"/>
       <use xlink:href="#CMUSerif-Roman-35" x="100"/>
      </g>
     </g>
    </g>
    <g id="xtick_2">
     <g id="line2d_7">
      <g>
       <use xlink:href="#m0f1bfa1d52" x="110.816421" y="281.275" style="fill: #ffffff; stroke: #ffffff; stroke-width: 0.8"/>
      </g>
     </g>
     <g id="text_2">
      <!-- 400 -->
      <g style="fill: #ffffff" transform="translate(103.316421 295.214063)scale(0.1 -0.1)">
       <defs>
        <path id="CMUSerif-Roman-34" d="M 178 1056 
L 178 1253 
L 2144 4256 
Q 2194 4334 2272 4331 
Q 2344 4331 2359 4303 
Q 2375 4275 2375 4166 
L 2375 1253 
L 3016 1253 
L 3016 1056 
L 2375 1056 
L 2375 500 
Q 2375 316 2451 256 
Q 2528 197 2859 197 
L 2994 197 
L 2994 0 
Q 2731 19 2125 19 
Q 1522 19 1259 0 
L 1259 197 
L 1394 197 
Q 1725 197 1803 255 
Q 1881 313 1881 500 
L 1881 1056 
L 178 1056 
z
M 359 1253 
L 1919 1253 
L 1919 3641 
L 359 1253 
z
" transform="scale(0.015625)"/>
        <path id="CMUSerif-Roman-30" d="M 250 2047 
Q 250 2988 488 3500 
Q 819 4263 1600 4263 
Q 1766 4263 1939 4217 
Q 2113 4172 2333 4000 
Q 2553 3828 2688 3547 
Q 2944 3003 2944 2047 
Q 2944 1113 2706 603 
Q 2359 -141 1594 -141 
Q 1306 -141 1014 6 
Q 722 153 538 506 
Q 250 1034 250 2047 
z
M 781 2125 
Q 781 1159 850 775 
Q 928 359 1142 179 
Q 1356 0 1594 0 
Q 1850 0 2064 192 
Q 2278 384 2344 800 
Q 2416 1209 2413 2125 
Q 2413 3016 2350 3372 
Q 2266 3788 2042 3955 
Q 1819 4122 1594 4122 
Q 1509 4122 1420 4097 
Q 1331 4072 1203 4000 
Q 1075 3928 976 3750 
Q 878 3572 831 3303 
Q 781 2956 781 2125 
z
" transform="scale(0.015625)"/>
       </defs>
       <use xlink:href="#CMUSerif-Roman-34"/>
       <use xlink:href="#CMUSerif-Roman-30" x="50"/>
       <use xlink:href="#CMUSerif-Roman-30" x="100"/>
      </g>
     </g>
    </g>
    <g id="xtick_3">
     <g id="line2d_8">
      <g>
       <use xlink:href="#m0f1bfa1d52" x="144.491684" y="281.275" style="fill: #ffffff; stroke: #ffffff; stroke-width: 0.8"/>
      </g>
     </g>
     <g id="text_3">
      <!-- 425 -->
      <g style="fill: #ffffff" transform="translate(136.991684 295.214063)scale(0.1 -0.1)">
       <defs>
        <path id="CMUSerif-Roman-32" d="M 319 0 
Q 319 116 330 150 
Q 341 184 391 238 
L 1619 1606 
Q 2291 2363 2291 3022 
Q 2291 3450 2067 3756 
Q 1844 4063 1434 4063 
Q 1153 4063 915 3891 
Q 678 3719 569 3413 
Q 588 3419 653 3419 
Q 813 3419 902 3319 
Q 991 3219 991 3084 
Q 991 2913 880 2830 
Q 769 2747 659 2747 
Q 616 2747 558 2756 
Q 500 2766 409 2855 
Q 319 2944 319 3103 
Q 319 3550 658 3906 
Q 997 4263 1516 4263 
Q 2103 4263 2489 3914 
Q 2875 3566 2875 3022 
Q 2875 2831 2817 2657 
Q 2759 2484 2682 2350 
Q 2606 2216 2400 2000 
Q 2194 1784 2028 1631 
Q 1863 1478 1491 1153 
L 813 494 
L 1966 494 
Q 2528 494 2572 544 
Q 2634 634 2713 1113 
L 2875 1113 
L 2694 0 
L 319 0 
z
" transform="scale(0.015625)"/>
       </defs>
       <use xlink:href="#CMUSerif-Roman-34"/>
       <use xlink:href="#CMUSerif-Roman-32" x="50"/>
       <use xlink:href="#CMUSerif-Roman-35" x="100"/>
      </g>
     </g>
    </g>
    <g id="xtick_4">
     <g id="line2d_9">
      <g>
       <use xlink:href="#m0f1bfa1d52" x="178.166947" y="281.275" style="fill: #ffffff; stroke: #ffffff; stroke-width: 0.8"/>
      </g>
     </g>
     <g id="text_4">
      <!-- 450 -->
      <g style="fill: #ffffff" transform="translate(170.666947 295.214063)scale(0.1 -0.1)">
       <use xlink:href="#CMUSerif-Roman-34"/>
       <use xlink:href="#CMUSerif-Roman-35" x="50"/>
       <use xlink:href="#CMUSerif-Roman-30" x="100"/>
      </g>
     </g>
    </g>
    <g id="xtick_5">
     <g id="line2d_10">
      <g>
       <use xlink:href="#m0f1bfa1d52" x="211.842211" y="281.275" style="fill: #ffffff; stroke: #ffffff; stroke-width: 0.8"/>
      </g>
     </g>
     <g id="text_5">
      <!-- 475 -->
      <g style="fill: #ffffff" transform="translate(204.342211 295.214063)scale(0.1 -0.1)">
       <use xlink:href="#CMUSerif-Roman-34"/>
       <use xlink:href="#CMUSerif-Roman-37" x="50"/>
       <use xlink:href="#CMUSerif-Roman-35" x="100"/>
      </g>
     </g>
    </g>
    <g id="xtick_6">
     <g id="line2d_11">
      <g>
       <use xlink:href="#m0f1bfa1d52" x="245.517474" y="281.275" style="fill: #ffffff; stroke: #ffffff; stroke-width: 0.8"/>
      </g>
     </g>
     <g id="text_6">
      <!-- 500 -->
      <g style="fill: #ffffff" transform="translate(238.017474 295.214063)scale(0.1 -0.1)">
       <use xlink:href="#CMUSerif-Roman-35"/>
       <use xlink:href="#CMUSerif-Roman-30" x="50"/>
       <use xlink:href="#CMUSerif-Roman-30" x="100"/>
      </g>
     </g>
    </g>
    <g id="xtick_7">
     <g id="line2d_12">
      <g>
       <use xlink:href="#m0f1bfa1d52" x="279.192737" y="281.275" style="fill: #ffffff; stroke: #ffffff; stroke-width: 0.8"/>
      </g>
     </g>
     <g id="text_7">
      <!-- 525 -->
      <g style="fill: #ffffff" transform="translate(271.692737 295.214063)scale(0.1 -0.1)">
       <use xlink:href="#CMUSerif-Roman-35"/>
       <use xlink:href="#CMUSerif-Roman-32" x="50"/>
       <use xlink:href="#CMUSerif-Roman-35" x="100"/>
      </g>
     </g>
    </g>
    <g id="xtick_8">
     <g id="line2d_13">
      <g>
       <use xlink:href="#m0f1bfa1d52" x="312.868" y="281.275" style="fill: #ffffff; stroke: #ffffff; stroke-width: 0.8"/>
      </g>
     </g>
     <g id="text_8">
      <!-- 550 -->
      <g style="fill: #ffffff" transform="translate(305.368 295.214063)scale(0.1 -0.1)">
       <use xlink:href="#CMUSerif-Roman-35"/>
       <use xlink:href="#CMUSerif-Roman-35" x="50"/>
       <use xlink:href="#CMUSerif-Roman-30" x="100"/>
      </g>
     </g>
    </g>
    <g id="xtick_9">
     <g id="line2d_14">
      <g>
       <use xlink:href="#m0f1bfa1d52" x="346.543263" y="281.275" style="fill: #ffffff; stroke: #ffffff; stroke-width: 0.8"/>
      </g>
     </g>
     <g id="text_9">
      <!-- 575 -->
      <g style="fill: #ffffff" transform="translate(339.043263 295.214063)scale(0.1 -0.1)">
       <use xlink:href="#CMUSerif-Roman-35"/>
       <use xlink:href="#CMUSerif-Roman-37" x="50"/>
       <use xlink:href="#CMUSerif-Roman-35" x="100"/>
      </g>
     </g>
    </g>
    <g id="xtick_10">
     <g id="line2d_15">
      <g>
       <use xlink:href="#m0f1bfa1d52" x="380.218526" y="281.275" style="fill: #ffffff; stroke: #ffffff; stroke-width: 0.8"/>
      </g>
     </g>
     <g id="text_10">
      <!-- 600 -->
      <g style="fill: #ffffff" transform="translate(372.718526 295.214063)scale(0.1 -0.1)">
       <defs>
        <path id="CMUSerif-Roman-36" d="M 269 2022 
Q 269 3028 781 3645 
Q 1294 4263 1953 4263 
Q 2338 4263 2552 4067 
Q 2766 3872 2766 3572 
Q 2766 3406 2669 3334 
Q 2572 3263 2472 3263 
Q 2356 3263 2265 3341 
Q 2175 3419 2175 3559 
Q 2175 3847 2528 3847 
Q 2363 4103 1966 4103 
Q 1844 4103 1719 4067 
Q 1594 4031 1431 3912 
Q 1269 3794 1144 3606 
Q 1019 3419 931 3066 
Q 844 2713 844 2253 
L 844 2100 
Q 1106 2734 1643 2732 
Q 2181 2731 2553 2322 
Q 2925 1913 2925 1306 
Q 2925 684 2537 271 
Q 2150 -141 1606 -141 
Q 1363 -141 1142 -39 
Q 922 63 717 294 
Q 513 525 391 969 
Q 269 1413 269 2022 
z
M 856 1447 
Q 856 819 972 519 
Q 991 469 1033 400 
Q 1075 331 1148 242 
Q 1222 153 1344 95 
Q 1466 38 1606 38 
Q 2034 38 2241 453 
Q 2350 684 2350 1313 
Q 2350 1953 2234 2188 
Q 2038 2584 1638 2584 
Q 1369 2584 1183 2400 
Q 997 2216 926 1969 
Q 856 1722 856 1447 
z
" transform="scale(0.015625)"/>
       </defs>
       <use xlink:href="#CMUSerif-Roman-36"/>
       <use xlink:href="#CMUSerif-Roman-30" x="50"/>
       <use xlink:href="#CMUSerif-Roman-30" x="100"/>
      </g>
     </g>
    </g>
    <g id="xtick_11">
     <g id="line2d_16">
      <g>
       <use xlink:href="#m0f1bfa1d52" x="413.893789" y="281.275" style="fill: #ffffff; stroke: #ffffff; stroke-width: 0.8"/>
      </g>
     </g>
     <g id="text_11">
      <!-- 625 -->
      <g style="fill: #ffffff" transform="translate(406.393789 295.214063)scale(0.1 -0.1)">
       <use xlink:href="#CMUSerif-Roman-36"/>
       <use xlink:href="#CMUSerif-Roman-32" x="50"/>
       <use xlink:href="#CMUSerif-Roman-35" x="100"/>
      </g>
     </g>
    </g>
    <g id="xtick_12">
     <g id="line2d_17">
      <g>
       <use xlink:href="#m0f1bfa1d52" x="447.569053" y="281.275" style="fill: #ffffff; stroke: #ffffff; stroke-width: 0.8"/>
      </g>
     </g>
     <g id="text_12">
      <!-- 650 -->
      <g style="fill: #ffffff" transform="translate(440.069053 295.214063)scale(0.1 -0.1)">
       <use xlink:href="#CMUSerif-Roman-36"/>
       <use xlink:href="#CMUSerif-Roman-35" x="50"/>
       <use xlink:href="#CMUSerif-Roman-30" x="100"/>
      </g>
     </g>
    </g>
    <g id="xtick_13">
     <g id="line2d_18">
      <g>
       <use xlink:href="#m0f1bfa1d52" x="481.244316" y="281.275" style="fill: #ffffff; stroke: #ffffff; stroke-width: 0.8"/>
      </g>
     </g>
     <g id="text_13">
      <!-- 675 -->
      <g style="fill: #ffffff" transform="translate(473.744316 295.214063)scale(0.1 -0.1)">
       <use xlink:href="#CMUSerif-Roman-36"/>
       <use xlink:href="#CMUSerif-Roman-37" x="50"/>
       <use xlink:href="#CMUSerif-Roman-35" x="100"/>
      </g>
     </g>
    </g>
    <g id="xtick_14">
     <g id="line2d_19">
      <g>
       <use xlink:href="#m0f1bfa1d52" x="514.919579" y="281.275" style="fill: #ffffff; stroke: #ffffff; stroke-width: 0.8"/>
      </g>
     </g>
     <g id="text_14">
      <!-- 700 -->
      <g style="fill: #ffffff" transform="translate(507.419579 295.214063)scale(0.1 -0.1)">
       <use xlink:href="#CMUSerif-Roman-37"/>
       <use xlink:href="#CMUSerif-Roman-30" x="50"/>
       <use xlink:href="#CMUSerif-Roman-30" x="100"/>
      </g>
     </g>
    </g>
    <g id="xtick_15">
     <g id="line2d_20">
      <g>
       <use xlink:href="#m0f1bfa1d52" x="548.594842" y="281.275" style="fill: #ffffff; stroke: #ffffff; stroke-width: 0.8"/>
      </g>
     </g>
     <g id="text_15">
      <!-- 725 -->
      <g style="fill: #ffffff" transform="translate(541.094842 295.214063)scale(0.1 -0.1)">
       <use xlink:href="#CMUSerif-Roman-37"/>
       <use xlink:href="#CMUSerif-Roman-32" x="50"/>
       <use xlink:href="#CMUSerif-Roman-35" x="100"/>
      </g>
     </g>
    </g>
    <g id="text_16">
     <!-- Wavelength $\lambda$ ($nm$) -->
     <g style="fill: #ffffff" transform="translate(260.548 310.153125)scale(0.12 -0.12)">
      <defs>
       <path id="CMUSerif-Roman-57" d="M 116 4172 
L 116 4372 
Q 206 4372 368 4365 
Q 531 4359 659 4356 
Q 788 4353 897 4353 
Q 1575 4353 1806 4372 
L 1806 4172 
Q 1269 4172 1269 3981 
Q 1269 3938 1281 3897 
L 2309 750 
L 3200 3494 
L 3059 3944 
Q 3009 4103 2900 4137 
Q 2791 4172 2484 4172 
L 2484 4372 
Q 2575 4372 2737 4365 
Q 2900 4359 3028 4356 
Q 3156 4353 3263 4353 
Q 3941 4353 4172 4372 
L 4172 4172 
Q 3634 4172 3634 3981 
Q 3634 3963 3653 3884 
L 4678 750 
L 5638 3706 
Q 5669 3803 5672 3834 
Q 5672 3950 5537 4058 
Q 5403 4166 5113 4172 
L 5113 4372 
Q 5613 4353 5875 4353 
Q 6169 4353 6456 4372 
L 6456 4172 
Q 5950 4172 5819 3744 
L 4594 -13 
Q 4581 -63 4572 -86 
Q 4563 -109 4538 -125 
Q 4513 -141 4469 -141 
Q 4384 -141 4347 -19 
L 3284 3238 
L 2228 -13 
Q 2216 -63 2205 -86 
Q 2194 -109 2169 -125 
Q 2144 -141 2100 -141 
Q 2016 -141 1978 -19 
L 697 3903 
Q 641 4088 555 4130 
Q 469 4172 116 4172 
z
" transform="scale(0.015625)"/>
       <path id="CMUSerif-Roman-61" d="M 269 609 
Q 269 1153 909 1441 
Q 1294 1625 2088 1672 
L 2088 1906 
Q 2088 2303 1880 2514 
Q 1672 2725 1409 2725 
Q 941 2725 716 2431 
Q 906 2425 975 2329 
Q 1044 2234 1044 2138 
Q 1044 2009 964 1926 
Q 884 1844 750 1844 
Q 622 1844 537 1923 
Q 453 2003 453 2144 
Q 453 2456 736 2662 
Q 1019 2869 1422 2869 
Q 1947 2869 2297 2516 
Q 2406 2406 2461 2265 
Q 2516 2125 2522 2033 
Q 2528 1941 2528 1759 
L 2528 481 
Q 2528 444 2540 381 
Q 2553 319 2611 239 
Q 2669 159 2766 159 
Q 2997 159 2994 569 
L 2994 928 
L 3156 928 
L 3156 569 
Q 3156 228 2976 95 
Q 2797 -38 2631 -38 
Q 2419 -38 2284 118 
Q 2150 275 2131 488 
Q 2034 244 1814 86 
Q 1594 -72 1294 -72 
Q 1063 -72 845 -14 
Q 628 44 448 205 
Q 269 366 269 609 
z
M 763 616 
Q 763 378 931 225 
Q 1100 72 1338 72 
Q 1606 72 1847 280 
Q 2088 488 2088 897 
L 2088 1538 
Q 1378 1513 1070 1230 
Q 763 947 763 616 
z
" transform="scale(0.015625)"/>
       <path id="CMUSerif-Roman-76" d="M 122 2559 
L 122 2759 
Q 409 2741 744 2741 
Q 866 2741 1441 2759 
L 1441 2559 
Q 1075 2559 1075 2394 
Q 1075 2369 1113 2284 
L 1831 500 
L 2484 2131 
Q 2522 2241 2522 2284 
Q 2522 2394 2448 2473 
Q 2375 2553 2216 2559 
L 2216 2759 
Q 2541 2741 2772 2741 
Q 3034 2741 3250 2759 
L 3250 2559 
Q 3059 2559 2925 2473 
Q 2791 2388 2748 2314 
Q 2706 2241 2663 2131 
L 1825 50 
Q 1775 -72 1691 -72 
Q 1634 -72 1611 -48 
Q 1588 -25 1556 50 
L 634 2322 
Q 572 2481 490 2520 
Q 409 2559 122 2559 
z
" transform="scale(0.015625)"/>
       <path id="CMUSerif-Roman-65" d="M 178 1409 
Q 178 2013 565 2441 
Q 953 2869 1509 2869 
Q 2072 2869 2364 2503 
Q 2656 2138 2656 1613 
Q 2656 1516 2631 1497 
Q 2606 1478 2497 1478 
L 709 1478 
Q 709 825 903 519 
Q 1172 91 1625 91 
Q 1688 91 1763 103 
Q 1838 116 1991 170 
Q 2144 225 2278 372 
Q 2413 519 2491 750 
Q 2509 841 2572 838 
Q 2656 838 2656 763 
Q 2656 706 2595 579 
Q 2534 453 2418 303 
Q 2303 153 2079 40 
Q 1856 -72 1588 -72 
Q 1025 -72 601 354 
Q 178 781 178 1409 
z
M 716 1613 
L 2234 1613 
Q 2234 1747 2211 1897 
Q 2188 2047 2120 2255 
Q 2053 2463 1897 2594 
Q 1741 2725 1509 2725 
Q 1406 2725 1295 2681 
Q 1184 2638 1050 2531 
Q 916 2425 822 2184 
Q 728 1944 716 1613 
z
" transform="scale(0.015625)"/>
       <path id="CMUSerif-Roman-6c" d="M 213 0 
L 213 197 
Q 553 197 631 239 
Q 709 281 709 488 
L 709 3816 
Q 709 4053 626 4112 
Q 544 4172 213 4172 
L 213 4372 
L 1131 4441 
L 1131 488 
Q 1131 281 1212 239 
Q 1294 197 1631 197 
L 1631 0 
Q 1553 0 1390 6 
Q 1228 13 1109 16 
Q 991 19 922 19 
Q 847 19 213 0 
z
" transform="scale(0.015625)"/>
       <path id="CMUSerif-Roman-6e" d="M 206 0 
L 206 197 
Q 547 197 625 239 
Q 703 281 703 488 
L 703 2203 
Q 703 2441 620 2500 
Q 538 2559 206 2559 
L 206 2759 
L 1106 2828 
L 1106 2156 
Q 1406 2828 2053 2828 
Q 2534 2828 2725 2591 
Q 2866 2431 2895 2253 
Q 2925 2075 2925 1613 
L 2925 391 
Q 2931 256 3034 226 
Q 3138 197 3425 197 
L 3425 0 
Q 2772 19 2706 19 
Q 2656 19 1984 0 
L 1984 197 
Q 2325 197 2404 239 
Q 2484 281 2484 488 
L 2484 1978 
Q 2484 2303 2384 2495 
Q 2284 2688 2009 2688 
Q 1678 2688 1412 2409 
Q 1147 2131 1147 1663 
L 1147 488 
Q 1147 281 1226 239 
Q 1306 197 1644 197 
L 1644 0 
Q 991 19 928 19 
Q 878 19 206 0 
z
" transform="scale(0.015625)"/>
       <path id="CMUSerif-Roman-67" d="M 178 -506 
Q 178 -300 336 -122 
Q 494 56 769 134 
Q 488 313 488 703 
Q 488 1003 684 1234 
Q 384 1484 384 1894 
Q 384 2272 684 2550 
Q 984 2828 1422 2828 
Q 1806 2828 2100 2597 
Q 2406 2897 2778 2900 
Q 2944 2900 3023 2797 
Q 3103 2694 3103 2584 
Q 3103 2488 3042 2441 
Q 2981 2394 2919 2394 
Q 2841 2394 2786 2445 
Q 2731 2497 2731 2578 
Q 2731 2713 2834 2753 
Q 2816 2759 2772 2759 
Q 2459 2759 2194 2509 
Q 2456 2266 2456 1887 
Q 2456 1509 2156 1231 
Q 1856 953 1422 953 
Q 1063 953 788 1153 
Q 678 1025 678 850 
Q 678 691 775 566 
Q 872 441 1019 422 
Q 1063 416 1497 416 
Q 1753 416 1893 409 
Q 2034 403 2236 361 
Q 2438 319 2597 238 
Q 3013 6 3016 -494 
Q 3016 -859 2595 -1089 
Q 2175 -1319 1594 -1319 
Q 1006 -1319 592 -1086 
Q 178 -853 178 -506 
z
M 513 -506 
Q 513 -769 822 -970 
Q 1131 -1172 1600 -1172 
Q 2059 -1172 2370 -973 
Q 2681 -775 2681 -506 
Q 2681 -316 2572 -194 
Q 2463 -72 2239 -23 
Q 2016 25 1859 34 
Q 1703 44 1416 44 
L 1038 44 
Q 819 31 666 -128 
Q 513 -288 513 -506 
z
M 863 1888 
Q 863 1100 1422 1100 
Q 1703 1100 1875 1356 
Q 1978 1528 1978 1894 
Q 1978 2681 1422 2681 
Q 1141 2681 966 2425 
Q 863 2253 863 1888 
z
" transform="scale(0.015625)"/>
       <path id="CMUSerif-Roman-74" d="M 122 2559 
L 122 2700 
Q 416 2713 611 2920 
Q 806 3128 873 3384 
Q 941 3641 947 3938 
L 1106 3938 
L 1106 2759 
L 2022 2759 
L 2022 2559 
L 1106 2559 
L 1106 781 
Q 1106 91 1538 91 
Q 1722 91 1844 280 
Q 1966 469 1966 806 
L 1966 1159 
L 2125 1159 
L 2125 794 
Q 2125 447 1965 187 
Q 1806 -72 1491 -72 
Q 1375 -72 1261 -42 
Q 1147 -13 998 64 
Q 850 141 758 330 
Q 666 519 666 794 
L 666 2559 
L 122 2559 
z
" transform="scale(0.015625)"/>
       <path id="CMUSerif-Roman-68" d="M 206 0 
L 206 197 
Q 547 197 625 239 
Q 703 281 703 488 
L 703 3816 
Q 703 4053 620 4112 
Q 538 4172 206 4172 
L 206 4372 
L 1125 4441 
L 1125 2216 
L 1131 2216 
Q 1234 2447 1465 2637 
Q 1697 2828 2053 2828 
Q 2534 2828 2725 2591 
Q 2866 2431 2895 2253 
Q 2925 2075 2925 1613 
L 2925 391 
Q 2931 256 3034 226 
Q 3138 197 3425 197 
L 3425 0 
Q 2772 19 2706 19 
Q 2656 19 1984 0 
L 1984 197 
Q 2325 197 2404 239 
Q 2484 281 2484 488 
L 2484 1978 
Q 2484 2303 2384 2495 
Q 2284 2688 2009 2688 
Q 1678 2688 1412 2409 
Q 1147 2131 1147 1663 
L 1147 488 
Q 1147 281 1226 239 
Q 1306 197 1644 197 
L 1644 0 
Q 991 19 928 19 
Q 878 19 206 0 
z
" transform="scale(0.015625)"/>
       <path id="CMUSerif-Roman-20" transform="scale(0.015625)"/>
       <path id="Cmmi10-b8" d="M 325 109 
Q 325 203 409 288 
L 2209 2053 
L 1575 3834 
Q 1500 4038 1417 4156 
Q 1334 4275 1178 4275 
Q 1106 4275 1106 4359 
Q 1113 4397 1138 4419 
Q 1163 4441 1203 4441 
Q 1875 4441 2016 4044 
L 3316 416 
Q 3400 144 3488 50 
Q 3519 3 3519 -13 
Q 3519 -72 3469 -72 
L 3122 -72 
Q 2963 -25 2869 206 
L 2284 1844 
L 738 25 
Q 622 -84 531 -84 
Q 450 -84 387 -28 
Q 325 28 325 109 
z
" transform="scale(0.015625)"/>
       <path id="CMUSerif-Roman-28" d="M 634 1600 
Q 634 2681 1038 3553 
Q 1209 3919 1450 4225 
Q 1691 4531 1850 4665 
Q 2009 4800 2053 4800 
Q 2116 4800 2119 4738 
Q 2119 4706 2034 4628 
Q 1003 3578 1006 1600 
Q 1006 -384 2009 -1394 
Q 2119 -1503 2119 -1538 
Q 2119 -1600 2053 -1600 
Q 2009 -1600 1856 -1472 
Q 1703 -1344 1465 -1050 
Q 1228 -756 1056 -397 
Q 634 475 634 1600 
z
" transform="scale(0.015625)"/>
       <path id="Cmmi10-6e" d="M 494 109 
Q 494 147 500 166 
L 978 2075 
Q 1025 2253 1025 2388 
Q 1025 2663 838 2663 
Q 638 2663 541 2423 
Q 444 2184 353 1819 
Q 353 1800 334 1789 
Q 316 1778 300 1778 
L 225 1778 
Q 203 1778 187 1801 
Q 172 1825 172 1844 
Q 241 2122 305 2315 
Q 369 2509 505 2668 
Q 641 2828 844 2828 
Q 1084 2828 1268 2676 
Q 1453 2525 1453 2291 
Q 1644 2541 1900 2684 
Q 2156 2828 2444 2828 
Q 2672 2828 2837 2750 
Q 3003 2672 3095 2514 
Q 3188 2356 3188 2138 
Q 3188 1875 3070 1503 
Q 2953 1131 2778 672 
Q 2688 463 2688 288 
Q 2688 97 2834 97 
Q 3084 97 3251 365 
Q 3419 634 3488 941 
Q 3500 978 3541 978 
L 3616 978 
Q 3641 978 3658 962 
Q 3675 947 3675 922 
Q 3675 916 3669 903 
Q 3581 541 3364 234 
Q 3147 -72 2822 -72 
Q 2597 -72 2437 83 
Q 2278 238 2278 459 
Q 2278 578 2328 709 
Q 2409 919 2514 1209 
Q 2619 1500 2686 1765 
Q 2753 2031 2753 2234 
Q 2753 2413 2679 2538 
Q 2606 2663 2431 2663 
Q 2197 2663 2000 2559 
Q 1803 2456 1656 2286 
Q 1509 2116 1388 1881 
L 953 141 
Q 931 53 854 -9 
Q 778 -72 684 -72 
Q 606 -72 550 -22 
Q 494 28 494 109 
z
" transform="scale(0.015625)"/>
       <path id="Cmmi10-6d" d="M 494 109 
Q 494 147 500 166 
L 978 2075 
Q 1025 2253 1025 2388 
Q 1025 2663 838 2663 
Q 638 2663 541 2423 
Q 444 2184 353 1819 
Q 353 1800 334 1789 
Q 316 1778 300 1778 
L 225 1778 
Q 203 1778 187 1801 
Q 172 1825 172 1844 
Q 241 2122 305 2315 
Q 369 2509 505 2668 
Q 641 2828 844 2828 
Q 1084 2828 1268 2676 
Q 1453 2525 1453 2291 
Q 1644 2541 1900 2684 
Q 2156 2828 2444 2828 
Q 2747 2828 2967 2673 
Q 3188 2519 3188 2234 
Q 3384 2513 3648 2670 
Q 3913 2828 4225 2828 
Q 4556 2828 4757 2648 
Q 4959 2469 4959 2138 
Q 4959 1875 4842 1503 
Q 4725 1131 4550 672 
Q 4459 450 4459 288 
Q 4459 97 4609 97 
Q 4859 97 5025 365 
Q 5191 634 5259 941 
Q 5278 978 5313 978 
L 5388 978 
Q 5413 978 5430 961 
Q 5447 944 5447 922 
Q 5447 916 5441 903 
Q 5353 541 5136 234 
Q 4919 -72 4594 -72 
Q 4369 -72 4209 83 
Q 4050 238 4050 459 
Q 4050 572 4103 709 
Q 4284 1191 4404 1569 
Q 4525 1947 4525 2234 
Q 4525 2413 4453 2538 
Q 4381 2663 4213 2663 
Q 3863 2663 3606 2448 
Q 3350 2234 3163 1881 
Q 3150 1819 3144 1784 
L 2731 141 
Q 2709 53 2632 -9 
Q 2556 -72 2463 -72 
Q 2388 -72 2330 -22 
Q 2272 28 2272 109 
Q 2272 147 2278 166 
L 2688 1797 
Q 2753 2059 2753 2234 
Q 2753 2413 2679 2538 
Q 2606 2663 2431 2663 
Q 2197 2663 2000 2559 
Q 1803 2456 1656 2286 
Q 1509 2116 1388 1881 
L 953 141 
Q 931 53 854 -9 
Q 778 -72 684 -72 
Q 606 -72 550 -22 
Q 494 28 494 109 
z
" transform="scale(0.015625)"/>
       <path id="CMUSerif-Roman-29" d="M 366 -1538 
Q 366 -1506 447 -1428 
Q 1478 -378 1478 1600 
Q 1478 3584 488 4588 
Q 366 4703 366 4738 
Q 366 4800 428 4800 
Q 472 4800 626 4672 
Q 781 4544 1017 4250 
Q 1253 3956 1428 3597 
Q 1850 2725 1850 1600 
Q 1850 519 1447 -353 
Q 1275 -719 1034 -1025 
Q 794 -1331 634 -1465 
Q 475 -1600 428 -1600 
Q 366 -1600 366 -1538 
z
" transform="scale(0.015625)"/>
      </defs>
      <use xlink:href="#CMUSerif-Roman-57"/>
      <use xlink:href="#CMUSerif-Roman-61" transform="translate(102.685547 0)"/>
      <use xlink:href="#CMUSerif-Roman-76" transform="translate(152.685547 0)"/>
      <use xlink:href="#CMUSerif-Roman-65" transform="translate(205.371094 0)"/>
      <use xlink:href="#CMUSerif-Roman-6c" transform="translate(249.755859 0)"/>
      <use xlink:href="#CMUSerif-Roman-65" transform="translate(277.441406 0)"/>
      <use xlink:href="#CMUSerif-Roman-6e" transform="translate(321.826172 0)"/>
      <use xlink:href="#CMUSerif-Roman-67" transform="translate(377.294922 0)"/>
      <use xlink:href="#CMUSerif-Roman-74" transform="translate(427.294922 0)"/>
      <use xlink:href="#CMUSerif-Roman-68" transform="translate(466.064453 0)"/>
      <use xlink:href="#CMUSerif-Roman-20" transform="translate(521.533203 0)"/>
      <use xlink:href="#Cmmi10-b8" transform="translate(554.785156 0)"/>
      <use xlink:href="#CMUSerif-Roman-20" transform="translate(613.085938 0)"/>
      <use xlink:href="#CMUSerif-Roman-28" transform="translate(646.337891 0)"/>
      <use xlink:href="#Cmmi10-6e" transform="translate(685.107422 0)"/>
      <use xlink:href="#Cmmi10-6d" transform="translate(745.117188 0)"/>
      <use xlink:href="#CMUSerif-Roman-29" transform="translate(832.910156 0)"/>
     </g>
    </g>
   </g>
   <g id="matplotlib.axis_2">
    <g id="ytick_1">
     <g id="line2d_21">
      <defs>
       <path id="mc5d82d5837" d="M 0 0 
L -3.5 0 
" style="stroke: #ffffff; stroke-width: 0.8"/>
      </defs>
      <g>
       <use xlink:href="#mc5d82d5837" x="56.936" y="258.435417" style="fill: #ffffff; stroke: #ffffff; stroke-width: 0.8"/>
      </g>
     </g>
     <g id="text_17">
      <!-- 0.0 -->
      <g style="fill: #ffffff" transform="translate(37.157875 261.904948)scale(0.1 -0.1)">
       <defs>
        <path id="CMUSerif-Roman-2e" d="M 641 103 
Q 544 206 544 340 
Q 544 475 641 573 
Q 738 672 884 672 
Q 1025 672 1120 580 
Q 1216 488 1216 339 
Q 1216 191 1114 95 
Q 1013 0 884 0 
Q 738 0 641 103 
z
" transform="scale(0.015625)"/>
       </defs>
       <use xlink:href="#CMUSerif-Roman-30"/>
       <use xlink:href="#CMUSerif-Roman-2e" x="50"/>
       <use xlink:href="#CMUSerif-Roman-30" x="77.783203"/>
      </g>
     </g>
    </g>
    <g id="ytick_2">
     <g id="line2d_22">
      <g>
       <use xlink:href="#mc5d82d5837" x="56.936" y="212.75625" style="fill: #ffffff; stroke: #ffffff; stroke-width: 0.8"/>
      </g>
     </g>
     <g id="text_18">
      <!-- 0.2 -->
      <g style="fill: #ffffff" transform="translate(37.157875 216.225781)scale(0.1 -0.1)">
       <use xlink:href="#CMUSerif-Roman-30"/>
       <use xlink:href="#CMUSerif-Roman-2e" x="50"/>
       <use xlink:href="#CMUSerif-Roman-32" x="77.783203"/>
      </g>
     </g>
    </g>
    <g id="ytick_3">
     <g id="line2d_23">
      <g>
       <use xlink:href="#mc5d82d5837" x="56.936" y="167.077083" style="fill: #ffffff; stroke: #ffffff; stroke-width: 0.8"/>
      </g>
     </g>
     <g id="text_19">
      <!-- 0.4 -->
      <g style="fill: #ffffff" transform="translate(37.157875 170.546615)scale(0.1 -0.1)">
       <use xlink:href="#CMUSerif-Roman-30"/>
       <use xlink:href="#CMUSerif-Roman-2e" x="50"/>
       <use xlink:href="#CMUSerif-Roman-34" x="77.783203"/>
      </g>
     </g>
    </g>
    <g id="ytick_4">
     <g id="line2d_24">
      <g>
       <use xlink:href="#mc5d82d5837" x="56.936" y="121.397917" style="fill: #ffffff; stroke: #ffffff; stroke-width: 0.8"/>
      </g>
     </g>
     <g id="text_20">
      <!-- 0.6 -->
      <g style="fill: #ffffff" transform="translate(37.157875 124.867448)scale(0.1 -0.1)">
       <use xlink:href="#CMUSerif-Roman-30"/>
       <use xlink:href="#CMUSerif-Roman-2e" x="50"/>
       <use xlink:href="#CMUSerif-Roman-36" x="77.783203"/>
      </g>
     </g>
    </g>
    <g id="ytick_5">
     <g id="line2d_25">
      <g>
       <use xlink:href="#mc5d82d5837" x="56.936" y="75.71875" style="fill: #ffffff; stroke: #ffffff; stroke-width: 0.8"/>
      </g>
     </g>
     <g id="text_21">
      <!-- 0.8 -->
      <g style="fill: #ffffff" transform="translate(37.157875 79.188281)scale(0.1 -0.1)">
       <defs>
        <path id="CMUSerif-Roman-38" d="M 269 966 
Q 269 1681 1191 2144 
Q 794 2413 722 2491 
Q 441 2803 441 3194 
Q 441 3641 780 3952 
Q 1119 4263 1600 4263 
Q 2059 4263 2406 3997 
Q 2753 3731 2753 3309 
Q 2753 2716 1978 2316 
Q 2491 1997 2613 1863 
Q 2925 1516 2925 1075 
Q 2925 563 2531 211 
Q 2138 -141 1594 -141 
Q 1063 -141 666 168 
Q 269 478 269 966 
z
M 588 966 
Q 588 569 886 303 
Q 1184 38 1600 38 
Q 2003 38 2304 269 
Q 2606 500 2606 844 
Q 2606 978 2561 1093 
Q 2516 1209 2427 1301 
Q 2338 1394 2283 1436 
Q 2228 1478 2125 1550 
L 1338 2047 
Q 588 1631 588 966 
z
M 722 3444 
Q 722 3138 1044 2925 
L 1838 2413 
Q 2472 2784 2472 3309 
Q 2472 3650 2212 3876 
Q 1953 4103 1594 4103 
Q 1241 4103 981 3917 
Q 722 3731 722 3444 
z
" transform="scale(0.015625)"/>
       </defs>
       <use xlink:href="#CMUSerif-Roman-30"/>
       <use xlink:href="#CMUSerif-Roman-2e" x="50"/>
       <use xlink:href="#CMUSerif-Roman-38" x="77.783203"/>
      </g>
     </g>
    </g>
    <g id="ytick_6">
     <g id="line2d_26">
      <g>
       <use xlink:href="#mc5d82d5837" x="56.936" y="30.039583" style="fill: #ffffff; stroke: #ffffff; stroke-width: 0.8"/>
      </g>
     </g>
     <g id="text_22">
      <!-- 1.0 -->
      <g style="fill: #ffffff" transform="translate(37.157875 33.509115)scale(0.1 -0.1)">
       <defs>
        <path id="CMUSerif-Roman-31" d="M 569 3653 
L 569 3853 
Q 1338 3853 1734 4263 
Q 1844 4263 1862 4238 
Q 1881 4213 1881 4097 
L 1881 506 
Q 1881 316 1975 256 
Q 2069 197 2478 197 
L 2681 197 
L 2681 0 
Q 2456 19 1643 19 
Q 831 19 609 0 
L 609 197 
L 813 197 
Q 1216 197 1312 255 
Q 1409 313 1409 506 
L 1409 3822 
Q 1075 3653 569 3653 
z
" transform="scale(0.015625)"/>
       </defs>
       <use xlink:href="#CMUSerif-Roman-31"/>
       <use xlink:href="#CMUSerif-Roman-2e" x="50"/>
       <use xlink:href="#CMUSerif-Roman-30" x="77.783203"/>
      </g>
     </g>
    </g>
    <g id="text_23">
     <!-- Cone Sensitivity -->
     <g style="fill: #ffffff" transform="translate(16.896 187.19375)rotate(-90)scale(0.12 -0.12)">
      <defs>
       <path id="CMUSerif-Roman-43" d="M 359 2188 
Q 359 3153 1018 3833 
Q 1678 4513 2584 4513 
Q 2866 4513 3116 4409 
Q 3366 4306 3481 4217 
Q 3597 4128 3763 3963 
L 4084 4434 
Q 4134 4513 4186 4513 
Q 4238 4513 4247 4483 
Q 4256 4453 4256 4359 
L 4256 2841 
Q 4256 2738 4243 2713 
Q 4231 2688 4153 2688 
Q 4091 2688 4077 2706 
Q 4063 2725 4050 2797 
Q 3953 3488 3570 3900 
Q 3188 4313 2656 4313 
Q 2503 4313 2333 4278 
Q 2163 4244 1917 4112 
Q 1672 3981 1483 3764 
Q 1294 3547 1156 3136 
Q 1019 2725 1019 2181 
Q 1019 1644 1156 1231 
Q 1294 819 1483 605 
Q 1672 391 1917 259 
Q 2163 128 2336 92 
Q 2509 56 2663 56 
Q 3213 56 3634 447 
Q 4056 838 4097 1497 
Q 4103 1528 4103 1542 
Q 4103 1556 4109 1572 
Q 4116 1588 4131 1594 
Q 4147 1600 4172 1600 
Q 4256 1600 4256 1491 
Q 4256 881 3789 370 
Q 3322 -141 2584 -141 
Q 1675 -141 1017 534 
Q 359 1209 359 2188 
z
" transform="scale(0.015625)"/>
       <path id="CMUSerif-Roman-6f" d="M 601 345 
Q 178 763 178 1370 
Q 178 1978 592 2423 
Q 1006 2869 1600 2869 
Q 2181 2869 2598 2426 
Q 3016 1984 3016 1369 
Q 3016 766 2595 347 
Q 2175 -72 1594 -72 
Q 1025 -72 601 345 
z
M 709 1422 
Q 709 800 872 519 
Q 1122 91 1600 91 
Q 1838 91 2036 219 
Q 2234 347 2344 563 
Q 2484 844 2484 1422 
Q 2484 2038 2316 2309 
Q 2066 2725 1594 2725 
Q 1388 2725 1186 2617 
Q 984 2509 863 2297 
Q 709 2016 709 1422 
z
" transform="scale(0.015625)"/>
       <path id="CMUSerif-Roman-53" d="M 359 13 
L 359 1294 
Q 359 1366 362 1391 
Q 366 1416 384 1434 
Q 403 1453 441 1453 
Q 513 1453 519 1388 
Q 538 753 916 403 
Q 1288 56 1925 56 
Q 2309 56 2546 332 
Q 2784 609 2784 972 
Q 2784 1319 2584 1563 
Q 2500 1672 2395 1742 
Q 2291 1813 2227 1834 
Q 2163 1856 2041 1888 
Q 1247 2078 1197 2100 
Q 819 2228 589 2551 
Q 359 2875 359 3272 
Q 359 3784 720 4148 
Q 1081 4513 1606 4513 
Q 1869 4513 2089 4430 
Q 2309 4347 2400 4272 
Q 2491 4197 2631 4063 
L 2853 4428 
Q 2903 4513 2950 4513 
Q 3000 4513 3011 4483 
Q 3022 4453 3022 4359 
L 3022 3072 
Q 3022 3000 3019 2975 
Q 3016 2950 2995 2934 
Q 2975 2919 2938 2919 
Q 2875 2919 2859 2994 
Q 2681 4331 1613 4331 
Q 1247 4331 1008 4086 
Q 769 3841 769 3494 
Q 769 3213 944 2983 
Q 1119 2753 1416 2681 
L 2234 2484 
Q 2644 2388 2919 2025 
Q 3194 1663 3194 1191 
Q 3194 647 2839 253 
Q 2484 -141 1931 -141 
Q 1534 -141 1228 -9 
Q 922 122 756 306 
Q 628 94 544 -25 
L 525 -56 
Q 475 -141 428 -141 
Q 378 -141 368 -109 
Q 359 -78 359 13 
z
" transform="scale(0.015625)"/>
       <path id="CMUSerif-Roman-73" d="M 213 84 
L 213 928 
Q 213 1000 216 1025 
Q 219 1050 237 1069 
Q 256 1088 294 1088 
Q 338 1088 355 1069 
Q 372 1050 384 978 
Q 481 538 689 305 
Q 897 72 1275 72 
Q 1634 72 1815 231 
Q 1997 391 1997 653 
Q 1997 1122 1331 1241 
Q 947 1319 787 1370 
Q 628 1422 488 1538 
Q 213 1763 213 2081 
Q 213 2400 455 2634 
Q 697 2869 1234 2869 
Q 1594 2869 1838 2688 
Q 1909 2744 1947 2791 
Q 2031 2869 2075 2869 
Q 2125 2869 2134 2836 
Q 2144 2803 2144 2713 
L 2144 2069 
Q 2144 1997 2141 1972 
Q 2138 1947 2119 1930 
Q 2100 1913 2059 1913 
Q 1988 1913 1984 1972 
Q 1934 2747 1234 2747 
Q 856 2747 687 2601 
Q 519 2456 519 2259 
Q 519 2150 570 2067 
Q 622 1984 689 1936 
Q 756 1888 881 1842 
Q 1006 1797 1082 1781 
Q 1159 1766 1306 1734 
Q 1819 1638 2034 1428 
Q 2303 1159 2303 819 
Q 2303 441 2047 184 
Q 1791 -72 1275 -72 
Q 859 -72 569 206 
Q 531 169 503 136 
Q 475 103 464 90 
Q 453 78 450 70 
Q 447 63 441 56 
Q 313 -72 281 -72 
Q 231 -72 222 -39 
Q 213 -6 213 84 
z
" transform="scale(0.015625)"/>
       <path id="CMUSerif-Roman-69" d="M 213 0 
L 213 197 
Q 553 197 631 239 
Q 709 281 709 488 
L 709 2209 
Q 709 2447 629 2503 
Q 550 2559 238 2559 
L 238 2759 
L 1131 2828 
L 1131 481 
Q 1131 291 1200 244 
Q 1269 197 1581 197 
L 1581 0 
Q 928 19 916 19 
Q 828 19 213 0 
z
M 481 3944 
Q 481 4072 579 4176 
Q 678 4281 818 4281 
Q 959 4281 1059 4186 
Q 1159 4091 1159 3942 
Q 1159 3794 1059 3698 
Q 959 3603 819 3603 
Q 672 3603 576 3706 
Q 481 3809 481 3944 
z
" transform="scale(0.015625)"/>
       <path id="CMUSerif-Roman-79" d="M 122 -794 
Q 122 -659 201 -589 
Q 281 -519 391 -519 
Q 506 -519 582 -592 
Q 659 -666 659 -788 
Q 659 -1025 409 -1056 
Q 531 -1172 709 -1172 
Q 900 -1172 1054 -1031 
Q 1209 -891 1276 -756 
Q 1344 -622 1441 -378 
Q 1531 -188 1600 0 
L 641 2338 
Q 578 2491 481 2525 
Q 384 2559 122 2559 
L 122 2759 
Q 409 2741 744 2741 
Q 941 2741 1441 2759 
L 1441 2559 
Q 1081 2559 1081 2394 
Q 1081 2375 1119 2278 
L 1831 556 
L 2478 2131 
Q 2516 2222 2516 2284 
Q 2516 2547 2216 2559 
L 2216 2759 
Q 2638 2741 2772 2741 
Q 3034 2741 3250 2759 
L 3250 2559 
Q 2822 2559 2656 2150 
L 1528 -581 
Q 1222 -1309 709 -1313 
Q 466 -1313 294 -1163 
Q 122 -1013 122 -794 
z
" transform="scale(0.015625)"/>
      </defs>
      <use xlink:href="#CMUSerif-Roman-43"/>
      <use xlink:href="#CMUSerif-Roman-6f" x="72.167969"/>
      <use xlink:href="#CMUSerif-Roman-6e" x="122.167969"/>
      <use xlink:href="#CMUSerif-Roman-65" x="177.636719"/>
      <use xlink:href="#CMUSerif-Roman-20" x="222.021484"/>
      <use xlink:href="#CMUSerif-Roman-53" x="255.273438"/>
      <use xlink:href="#CMUSerif-Roman-65" x="310.742188"/>
      <use xlink:href="#CMUSerif-Roman-6e" x="355.126953"/>
      <use xlink:href="#CMUSerif-Roman-73" x="410.595703"/>
      <use xlink:href="#CMUSerif-Roman-69" x="449.951172"/>
      <use xlink:href="#CMUSerif-Roman-74" x="477.636719"/>
      <use xlink:href="#CMUSerif-Roman-69" x="516.40625"/>
      <use xlink:href="#CMUSerif-Roman-76" x="544.091797"/>
      <use xlink:href="#CMUSerif-Roman-69" x="596.777344"/>
      <use xlink:href="#CMUSerif-Roman-74" x="624.462891"/>
      <use xlink:href="#CMUSerif-Roman-79" x="663.232422"/>
     </g>
     <!-- (normalized proportion) -->
     <g style="fill: #ffffff" transform="translate(30.157875 207.187813)rotate(-90)scale(0.12 -0.12)">
      <defs>
       <path id="CMUSerif-Roman-72" d="M 178 0 
L 178 197 
Q 519 197 598 239 
Q 678 281 678 488 
L 678 2203 
Q 678 2441 595 2500 
Q 513 2559 178 2559 
L 178 2759 
L 1069 2828 
L 1069 2125 
Q 1159 2400 1351 2614 
Q 1544 2828 1856 2828 
Q 2063 2828 2195 2712 
Q 2328 2597 2328 2438 
Q 2328 2297 2242 2226 
Q 2156 2156 2053 2156 
Q 1938 2156 1858 2229 
Q 1778 2303 1778 2431 
Q 1778 2509 1814 2570 
Q 1850 2631 1878 2653 
Q 1906 2675 1925 2681 
Q 1913 2688 1856 2688 
Q 1503 2688 1301 2336 
Q 1100 1984 1100 1484 
L 1100 500 
Q 1100 316 1176 256 
Q 1253 197 1588 197 
L 1722 197 
L 1722 0 
Q 1466 19 909 19 
Q 831 19 709 16 
Q 588 13 428 6 
Q 269 0 178 0 
z
" transform="scale(0.015625)"/>
       <path id="CMUSerif-Roman-6d" d="M 206 0 
L 206 197 
Q 547 197 625 239 
Q 703 281 703 488 
L 703 2203 
Q 703 2441 620 2500 
Q 538 2559 206 2559 
L 206 2759 
L 1106 2828 
L 1106 2156 
Q 1406 2828 2053 2828 
Q 2803 2828 2906 2203 
Q 3016 2447 3245 2637 
Q 3475 2828 3834 2828 
Q 4316 2828 4506 2591 
Q 4647 2431 4675 2253 
Q 4703 2075 4703 1613 
L 4703 391 
Q 4709 256 4812 226 
Q 4916 197 5203 197 
L 5203 0 
Q 4550 19 4488 19 
Q 4438 19 3763 0 
L 3763 197 
Q 4103 197 4183 239 
Q 4263 281 4263 488 
L 4263 1978 
Q 4263 2303 4163 2495 
Q 4063 2688 3788 2688 
Q 3456 2688 3190 2409 
Q 2925 2131 2925 1663 
L 2925 488 
Q 2925 281 3004 239 
Q 3084 197 3425 197 
L 3425 0 
Q 2772 19 2706 19 
Q 2656 19 1984 0 
L 1984 197 
Q 2325 197 2404 239 
Q 2484 281 2484 488 
L 2484 1978 
Q 2484 2303 2384 2495 
Q 2284 2688 2009 2688 
Q 1678 2688 1412 2409 
Q 1147 2131 1147 1663 
L 1147 488 
Q 1147 281 1226 239 
Q 1306 197 1644 197 
L 1644 0 
Q 991 19 928 19 
Q 878 19 206 0 
z
" transform="scale(0.015625)"/>
       <path id="CMUSerif-Roman-7a" d="M 178 91 
Q 178 134 238 206 
L 2022 2619 
L 1294 2619 
Q 788 2619 623 2433 
Q 459 2247 428 1728 
L 269 1728 
L 341 2759 
L 2388 2759 
Q 2459 2759 2487 2756 
Q 2516 2753 2534 2733 
Q 2553 2713 2553 2675 
Q 2553 2638 2497 2566 
L 716 159 
L 1472 159 
Q 2003 159 2183 381 
Q 2363 603 2406 1197 
L 2566 1197 
L 2456 0 
L 347 0 
Q 244 0 211 14 
Q 178 28 178 91 
z
" transform="scale(0.015625)"/>
       <path id="CMUSerif-Roman-64" d="M 219 1375 
Q 219 1984 644 2406 
Q 1069 2828 1644 2828 
Q 2131 2828 2450 2431 
L 2450 3816 
Q 2450 4053 2367 4112 
Q 2284 4172 1953 4172 
L 1953 4372 
L 2875 4441 
L 2875 556 
Q 2875 319 2958 258 
Q 3041 197 3372 197 
L 3372 0 
L 2431 -72 
L 2431 353 
Q 2100 -69 1575 -72 
Q 1025 -72 622 350 
Q 219 772 219 1375 
z
M 750 1369 
Q 750 775 934 481 
Q 1191 72 1606 72 
Q 2081 72 2363 519 
Q 2434 628 2431 756 
L 2431 2069 
Q 2431 2197 2363 2303 
Q 2100 2688 1672 2688 
Q 1225 2688 947 2278 
Q 750 1972 750 1369 
z
" transform="scale(0.015625)"/>
       <path id="CMUSerif-Roman-70" d="M 178 -1044 
Q 519 -1044 598 -1001 
Q 678 -959 678 -756 
L 678 2241 
Q 678 2453 598 2506 
Q 519 2559 178 2559 
L 178 2759 
L 1100 2828 
L 1100 2406 
Q 1484 2828 1997 2828 
Q 2541 2828 2937 2406 
Q 3334 1984 3334 1381 
Q 3334 772 2912 350 
Q 2491 -72 1906 -72 
Q 1588 -72 1373 92 
Q 1159 256 1119 378 
L 1119 319 
L 1119 -756 
Q 1119 -963 1200 -1003 
Q 1281 -1044 1619 -1044 
L 1619 -1241 
Q 947 -1222 897 -1222 
Q 834 -1222 178 -1241 
L 178 -1044 
z
M 1119 728 
Q 1119 631 1133 597 
Q 1147 563 1209 459 
Q 1463 72 1875 72 
Q 1878 72 1881 72 
Q 2247 72 2525 445 
Q 2803 819 2803 1381 
Q 2803 1919 2550 2294 
Q 2297 2669 1947 2669 
Q 1697 2669 1478 2534 
Q 1259 2400 1119 2156 
L 1119 728 
z
" transform="scale(0.015625)"/>
      </defs>
      <use xlink:href="#CMUSerif-Roman-28"/>
      <use xlink:href="#CMUSerif-Roman-6e" x="38.769531"/>
      <use xlink:href="#CMUSerif-Roman-6f" x="94.238281"/>
      <use xlink:href="#CMUSerif-Roman-72" x="144.238281"/>
      <use xlink:href="#CMUSerif-Roman-6d" x="183.300781"/>
      <use xlink:href="#CMUSerif-Roman-61" x="266.552734"/>
      <use xlink:href="#CMUSerif-Roman-6c" x="316.552734"/>
      <use xlink:href="#CMUSerif-Roman-69" x="344.238281"/>
      <use xlink:href="#CMUSerif-Roman-7a" x="371.923828"/>
      <use xlink:href="#CMUSerif-Roman-65" x="416.308594"/>
      <use xlink:href="#CMUSerif-Roman-64" x="460.693359"/>
      <use xlink:href="#CMUSerif-Roman-20" x="516.162109"/>
      <use xlink:href="#CMUSerif-Roman-70" x="549.414062"/>
      <use xlink:href="#CMUSerif-Roman-72" x="604.882812"/>
      <use xlink:href="#CMUSerif-Roman-6f" x="643.945312"/>
      <use xlink:href="#CMUSerif-Roman-70" x="693.945312"/>
      <use xlink:href="#CMUSerif-Roman-6f" x="749.414062"/>
      <use xlink:href="#CMUSerif-Roman-72" x="799.414062"/>
      <use xlink:href="#CMUSerif-Roman-74" x="838.476562"/>
      <use xlink:href="#CMUSerif-Roman-69" x="877.246094"/>
      <use xlink:href="#CMUSerif-Roman-6f" x="904.931641"/>
      <use xlink:href="#CMUSerif-Roman-6e" x="954.931641"/>
      <use xlink:href="#CMUSerif-Roman-29" x="1010.400391"/>
     </g>
    </g>
   </g>
   <g id="text_24">
    <!-- Long-Cone Peak -->
    <g style="fill: #ffffff" transform="translate(338.4612 17.894125)scale(0.08 -0.08)">
     <defs>
      <path id="CMUSerif-Roman-4c" d="M 213 0 
L 213 197 
L 366 197 
Q 713 197 792 255 
Q 872 313 872 500 
L 872 3872 
Q 872 4056 790 4114 
Q 709 4172 366 4172 
L 213 4172 
L 213 4372 
Q 438 4353 1184 4353 
Q 2028 4353 2259 4372 
L 2259 4172 
L 2047 4172 
Q 1753 4172 1618 4134 
Q 1484 4097 1462 4045 
Q 1441 3994 1441 3866 
L 1441 453 
Q 1441 288 1489 242 
Q 1538 197 1753 197 
L 2278 197 
Q 2603 197 2837 294 
Q 3072 391 3197 512 
Q 3322 634 3405 864 
Q 3488 1094 3514 1241 
Q 3541 1388 3566 1650 
L 3725 1650 
L 3547 0 
L 213 0 
z
" transform="scale(0.015625)"/>
      <path id="CMUSerif-Roman-2d" d="M 63 1191 
L 63 1569 
L 1766 1569 
L 1766 1191 
L 63 1191 
z
" transform="scale(0.015625)"/>
      <path id="CMUSerif-Roman-50" d="M 225 0 
L 225 197 
L 378 197 
Q 725 197 804 255 
Q 884 313 884 500 
L 884 3872 
Q 884 4056 803 4114 
Q 722 4172 378 4172 
L 225 4172 
L 225 4372 
L 2484 4372 
Q 3131 4372 3562 4015 
Q 3994 3659 3994 3181 
Q 3994 2706 3555 2364 
Q 3116 2022 2534 2022 
L 1453 2022 
L 1453 500 
Q 1453 316 1533 256 
Q 1613 197 1959 197 
L 2113 197 
L 2113 0 
Q 1888 19 1166 19 
Q 450 19 225 0 
z
M 1434 2188 
L 2316 2188 
Q 2603 2188 2812 2269 
Q 3022 2350 3117 2448 
Q 3213 2547 3267 2708 
Q 3322 2869 3328 2958 
Q 3334 3047 3334 3181 
Q 3334 3322 3328 3411 
Q 3322 3500 3267 3661 
Q 3213 3822 3117 3920 
Q 3022 4019 2814 4095 
Q 2606 4172 2316 4172 
L 1747 4172 
Q 1528 4172 1481 4128 
Q 1434 4084 1434 3916 
L 1434 2188 
z
" transform="scale(0.015625)"/>
      <path id="CMUSerif-Roman-6b" d="M 178 0 
L 178 197 
Q 519 197 598 239 
Q 678 281 678 488 
L 678 3816 
Q 678 4053 595 4112 
Q 513 4172 178 4172 
L 178 4372 
L 1100 4441 
L 1100 1369 
L 2003 2150 
Q 2144 2272 2144 2400 
Q 2144 2547 1959 2559 
L 1959 2759 
Q 2228 2741 2675 2741 
Q 2938 2741 3122 2759 
L 3122 2559 
Q 2719 2541 2316 2216 
Q 2225 2144 2011 1958 
Q 1797 1772 1797 1753 
Q 1797 1747 1805 1731 
Q 1813 1716 1825 1703 
Q 1838 1691 1838 1684 
L 2650 538 
Q 2816 306 2937 251 
Q 3059 197 3272 197 
L 3272 0 
Q 2997 19 2713 19 
Q 2559 19 2022 0 
L 2022 197 
Q 2253 197 2253 347 
Q 2253 450 1734 1166 
Q 1697 1216 1613 1325 
Q 1534 1441 1491 1497 
L 1081 1147 
L 1081 488 
Q 1081 281 1161 239 
Q 1241 197 1581 197 
L 1581 0 
Q 1197 19 878 19 
Q 813 19 178 0 
z
" transform="scale(0.015625)"/>
     </defs>
     <use xlink:href="#CMUSerif-Roman-4c"/>
     <use xlink:href="#CMUSerif-Roman-6f" x="62.5"/>
     <use xlink:href="#CMUSerif-Roman-6e" x="112.5"/>
     <use xlink:href="#CMUSerif-Roman-67" x="167.96875"/>
     <use xlink:href="#CMUSerif-Roman-2d" x="217.96875"/>
     <use xlink:href="#CMUSerif-Roman-43" x="251.220703"/>
     <use xlink:href="#CMUSerif-Roman-6f" x="323.388672"/>
     <use xlink:href="#CMUSerif-Roman-6e" x="373.388672"/>
     <use xlink:href="#CMUSerif-Roman-65" x="428.857422"/>
     <use xlink:href="#CMUSerif-Roman-20" x="473.242188"/>
     <use xlink:href="#CMUSerif-Roman-50" x="506.494141"/>
     <use xlink:href="#CMUSerif-Roman-65" x="574.462891"/>
     <use xlink:href="#CMUSerif-Roman-61" x="618.847656"/>
     <use xlink:href="#CMUSerif-Roman-6b" x="668.847656"/>
    </g>
    <!-- $\approx$569$nm$ -->
    <g style="fill: #ffffff" transform="translate(338.4612 26.204375)scale(0.08 -0.08)">
     <defs>
      <path id="Cmsy10-bc" d="M 447 359 
Q 378 359 359 519 
L 359 556 
Q 359 847 501 1087 
Q 644 1328 891 1464 
Q 1138 1600 1422 1600 
Q 1766 1600 2130 1379 
Q 2494 1159 2853 937 
Q 3213 716 3553 716 
Q 3881 716 4157 919 
Q 4434 1122 4434 1441 
Q 4453 1600 4525 1600 
Q 4597 1600 4616 1441 
L 4616 1403 
Q 4616 1113 4472 872 
Q 4328 631 4083 495 
Q 3838 359 3553 359 
Q 3284 359 3048 470 
Q 2813 581 2495 795 
Q 2178 1009 1937 1125 
Q 1697 1241 1422 1241 
Q 1219 1241 1009 1150 
Q 800 1059 669 895 
Q 538 731 538 519 
Q 519 359 447 359 
z
M 447 1850 
Q 378 1850 359 2009 
L 359 2047 
Q 359 2338 501 2578 
Q 644 2819 891 2955 
Q 1138 3091 1422 3091 
Q 1766 3091 2130 2870 
Q 2494 2650 2853 2429 
Q 3213 2209 3553 2209 
Q 3881 2209 4157 2412 
Q 4434 2616 4434 2931 
Q 4453 3091 4525 3091 
Q 4597 3091 4616 2931 
L 4616 2894 
Q 4616 2603 4472 2362 
Q 4328 2122 4083 1986 
Q 3838 1850 3553 1850 
Q 3284 1850 3048 1961 
Q 2813 2072 2495 2286 
Q 2178 2500 1937 2615 
Q 1697 2731 1422 2731 
Q 1219 2731 1009 2640 
Q 800 2550 669 2386 
Q 538 2222 538 2009 
Q 519 1850 447 1850 
z
" transform="scale(0.015625)"/>
      <path id="CMUSerif-Roman-39" d="M 269 2822 
Q 269 3163 369 3395 
Q 469 3628 678 3859 
Q 1063 4263 1619 4263 
Q 1856 4263 2067 4163 
Q 2278 4063 2479 3836 
Q 2681 3609 2803 3164 
Q 2925 2719 2925 2106 
Q 2925 1116 2445 487 
Q 1966 -141 1319 -141 
Q 909 -141 668 45 
Q 428 231 428 550 
Q 428 716 522 786 
Q 616 856 722 856 
Q 838 856 928 779 
Q 1019 703 1019 563 
Q 1019 447 945 358 
Q 872 269 684 269 
Q 869 38 1313 38 
Q 1472 38 1631 111 
Q 1791 184 1964 364 
Q 2138 544 2244 922 
Q 2350 1300 2350 1831 
L 2350 2034 
Q 2094 1394 1550 1394 
Q 1013 1394 641 1806 
Q 269 2219 269 2822 
z
M 844 2816 
Q 844 2181 959 1947 
Q 1156 1544 1556 1544 
Q 1947 1544 2142 1892 
Q 2338 2241 2338 2694 
Q 2338 3322 2234 3597 
Q 2044 4103 1620 4103 
Q 1197 4103 978 3700 
Q 844 3463 844 2816 
z
" transform="scale(0.015625)"/>
     </defs>
     <use xlink:href="#Cmsy10-bc" transform="translate(17.558594 0.390625)"/>
     <use xlink:href="#CMUSerif-Roman-35" transform="translate(112.802734 0.390625)"/>
     <use xlink:href="#CMUSerif-Roman-36" transform="translate(162.802734 0.390625)"/>
     <use xlink:href="#CMUSerif-Roman-39" transform="translate(212.802734 0.390625)"/>
     <use xlink:href="#Cmmi10-6e" transform="translate(262.802734 0.390625)"/>
     <use xlink:href="#Cmmi10-6d" transform="translate(322.8125 0.390625)"/>
    </g>
   </g>
   <g id="text_25">
    <!-- Medium-Cone Peak -->
    <g style="fill: #ffffff" transform="translate(231.833655 17.991625)scale(0.08 -0.08)">
     <defs>
      <path id="CMUSerif-Roman-4d" d="M 238 0 
L 238 197 
Q 469 197 616 242 
Q 763 288 817 373 
Q 872 459 884 517 
Q 897 575 897 672 
L 897 3872 
Q 897 4056 817 4114 
Q 738 4172 391 4172 
L 238 4172 
L 238 4372 
L 1319 4372 
Q 1434 4372 1465 4351 
Q 1497 4331 1544 4231 
L 2931 647 
L 4331 4250 
Q 4363 4341 4392 4356 
Q 4422 4372 4544 4372 
L 5625 4372 
L 5625 4172 
L 5472 4172 
Q 5125 4172 5045 4114 
Q 4966 4056 4966 3872 
L 4966 500 
Q 4966 316 5045 256 
Q 5125 197 5472 197 
L 5625 197 
L 5625 0 
Q 5388 19 4709 19 
Q 4025 19 3788 0 
L 3788 197 
L 3944 197 
Q 4291 197 4369 255 
Q 4447 313 4447 500 
L 4447 4172 
L 4441 4172 
L 2869 122 
Q 2825 0 2753 0 
Q 2675 0 2625 141 
L 1081 4122 
L 1075 4122 
L 1075 672 
Q 1075 575 1087 517 
Q 1100 459 1154 373 
Q 1209 288 1356 242 
Q 1503 197 1734 197 
L 1734 0 
Q 1063 19 986 19 
Q 909 19 238 0 
z
" transform="scale(0.015625)"/>
      <path id="CMUSerif-Roman-75" d="M 206 2559 
L 206 2759 
L 1147 2828 
L 1147 703 
Q 1147 550 1159 461 
Q 1172 372 1223 269 
Q 1275 166 1395 119 
Q 1516 72 1709 72 
Q 2056 72 2270 356 
Q 2484 641 2484 1063 
L 2484 2203 
Q 2484 2441 2400 2500 
Q 2316 2559 1984 2559 
L 1984 2759 
L 2925 2828 
L 2925 556 
Q 2925 319 3008 258 
Q 3091 197 3425 197 
L 3425 0 
L 2503 -72 
L 2503 506 
Q 2234 -69 1678 -72 
Q 1397 -72 1205 0 
Q 1013 72 916 161 
Q 819 250 767 422 
Q 716 594 709 700 
Q 703 806 703 1013 
L 703 1972 
Q 703 2406 640 2482 
Q 578 2559 206 2559 
z
" transform="scale(0.015625)"/>
     </defs>
     <use xlink:href="#CMUSerif-Roman-4d"/>
     <use xlink:href="#CMUSerif-Roman-65" x="91.552734"/>
     <use xlink:href="#CMUSerif-Roman-64" x="135.9375"/>
     <use xlink:href="#CMUSerif-Roman-69" x="191.40625"/>
     <use xlink:href="#CMUSerif-Roman-75" x="219.091797"/>
     <use xlink:href="#CMUSerif-Roman-6d" x="274.560547"/>
     <use xlink:href="#CMUSerif-Roman-2d" x="357.8125"/>
     <use xlink:href="#CMUSerif-Roman-43" x="391.064453"/>
     <use xlink:href="#CMUSerif-Roman-6f" x="463.232422"/>
     <use xlink:href="#CMUSerif-Roman-6e" x="513.232422"/>
     <use xlink:href="#CMUSerif-Roman-65" x="568.701172"/>
     <use xlink:href="#CMUSerif-Roman-20" x="613.085938"/>
     <use xlink:href="#CMUSerif-Roman-50" x="646.337891"/>
     <use xlink:href="#CMUSerif-Roman-65" x="714.306641"/>
     <use xlink:href="#CMUSerif-Roman-61" x="758.691406"/>
     <use xlink:href="#CMUSerif-Roman-6b" x="808.691406"/>
    </g>
    <!-- $\approx$541$nm$ -->
    <g style="fill: #ffffff" transform="translate(267.864905 26.204375)scale(0.08 -0.08)">
     <use xlink:href="#Cmsy10-bc" transform="translate(17.558594 0.28125)"/>
     <use xlink:href="#CMUSerif-Roman-35" transform="translate(112.802734 0.28125)"/>
     <use xlink:href="#CMUSerif-Roman-34" transform="translate(162.802734 0.28125)"/>
     <use xlink:href="#CMUSerif-Roman-31" transform="translate(212.802734 0.28125)"/>
     <use xlink:href="#Cmmi10-6e" transform="translate(262.802734 0.28125)"/>
     <use xlink:href="#Cmmi10-6d" transform="translate(322.8125 0.28125)"/>
    </g>
   </g>
   <g id="text_26">
    <!-- Short-Cone Peak -->
    <g style="fill: #ffffff" transform="translate(141.738145 17.991625)scale(0.08 -0.08)">
     <use xlink:href="#CMUSerif-Roman-53"/>
     <use xlink:href="#CMUSerif-Roman-68" x="55.46875"/>
     <use xlink:href="#CMUSerif-Roman-6f" x="110.9375"/>
     <use xlink:href="#CMUSerif-Roman-72" x="160.9375"/>
     <use xlink:href="#CMUSerif-Roman-74" x="200"/>
     <use xlink:href="#CMUSerif-Roman-2d" x="238.769531"/>
     <use xlink:href="#CMUSerif-Roman-43" x="272.021484"/>
     <use xlink:href="#CMUSerif-Roman-6f" x="344.189453"/>
     <use xlink:href="#CMUSerif-Roman-6e" x="394.189453"/>
     <use xlink:href="#CMUSerif-Roman-65" x="449.658203"/>
     <use xlink:href="#CMUSerif-Roman-20" x="494.042969"/>
     <use xlink:href="#CMUSerif-Roman-50" x="527.294922"/>
     <use xlink:href="#CMUSerif-Roman-65" x="595.263672"/>
     <use xlink:href="#CMUSerif-Roman-61" x="639.648438"/>
     <use xlink:href="#CMUSerif-Roman-6b" x="689.648438"/>
    </g>
    <!-- $\approx$445$nm$ -->
    <g style="fill: #ffffff" transform="translate(154.991895 26.204375)scale(0.08 -0.08)">
     <use xlink:href="#Cmsy10-bc" transform="translate(17.558594 0.28125)"/>
     <use xlink:href="#CMUSerif-Roman-34" transform="translate(112.802734 0.28125)"/>
     <use xlink:href="#CMUSerif-Roman-34" transform="translate(162.802734 0.28125)"/>
     <use xlink:href="#CMUSerif-Roman-35" transform="translate(212.802734 0.28125)"/>
     <use xlink:href="#Cmmi10-6e" transform="translate(262.802734 0.28125)"/>
     <use xlink:href="#Cmmi10-6d" transform="translate(322.8125 0.28125)"/>
    </g>
   </g>
   <g id="patch_3">
    <path d="M 56.936 281.275 
L 56.936 7.2 
" style="fill: none; stroke: #ffffff; stroke-width: 0.8; stroke-linejoin: miter; stroke-linecap: square"/>
   </g>
   <g id="patch_4">
    <path d="M 568.8 281.275 
L 568.8 7.2 
" style="fill: none; stroke: #ffffff; stroke-width: 0.8; stroke-linejoin: miter; stroke-linecap: square"/>
   </g>
   <g id="patch_5">
    <path d="M 56.936 281.275 
L 568.8 281.275 
" style="fill: none; stroke: #ffffff; stroke-width: 0.8; stroke-linejoin: miter; stroke-linecap: square"/>
   </g>
   <g id="patch_6">
    <path d="M 56.936 7.2 
L 568.8 7.2 
" style="fill: none; stroke: #ffffff; stroke-width: 0.8; stroke-linejoin: miter; stroke-linecap: square"/>
   </g>
   <g id="legend_1">
    <g id="patch_7">
     <path d="M 419.88 57.2 
L 561.8 57.2 
Q 563.8 57.2 563.8 55.2 
L 563.8 14.2 
Q 563.8 12.2 561.8 12.2 
L 419.88 12.2 
Q 417.88 12.2 417.88 14.2 
L 417.88 55.2 
Q 417.88 57.2 419.88 57.2 
z
" style="opacity: 0.8; stroke: #cccccc; stroke-linejoin: miter"/>
    </g>
    <g id="text_27">
     <!-- Long-Cone Sensitivity $\bar{L}(\lambda)$ -->
     <g style="fill: #ffffff" transform="translate(435.4 23.2)scale(0.08 -0.08)">
      <defs>
       <path id="Cmr10-b9" d="M 441 3553 
L 441 3775 
L 2753 3775 
L 2753 3553 
L 441 3553 
z
" transform="scale(0.015625)"/>
       <path id="Cmmi10-4c" d="M 300 0 
Q 238 0 238 84 
Q 241 100 250 139 
Q 259 178 276 201 
Q 294 225 319 225 
Q 709 225 863 269 
Q 947 297 984 441 
L 1863 3956 
Q 1875 4019 1875 4044 
Q 1875 4113 1797 4122 
Q 1678 4147 1338 4147 
Q 1275 4147 1275 4231 
Q 1297 4313 1309 4342 
Q 1322 4372 1381 4372 
L 3272 4372 
Q 3328 4372 3328 4288 
Q 3319 4222 3306 4184 
Q 3294 4147 3244 4147 
Q 2772 4147 2613 4116 
Q 2456 4088 2419 3928 
L 1544 416 
Q 1516 338 1516 275 
Q 1516 225 1734 225 
L 2328 225 
Q 2831 225 3143 425 
Q 3456 625 3606 876 
Q 3756 1128 3857 1398 
Q 3959 1669 4006 1678 
L 4063 1678 
Q 4128 1678 4128 1594 
L 3559 44 
Q 3550 0 3500 0 
L 300 0 
z
" transform="scale(0.015625)"/>
       <path id="Cmr10-28" d="M 1984 -1588 
Q 1628 -1306 1370 -942 
Q 1113 -578 948 -165 
Q 784 247 703 697 
Q 622 1147 622 1600 
Q 622 2059 703 2509 
Q 784 2959 951 3375 
Q 1119 3791 1378 4153 
Q 1638 4516 1984 4788 
Q 1984 4800 2016 4800 
L 2075 4800 
Q 2094 4800 2109 4783 
Q 2125 4766 2125 4744 
Q 2125 4716 2113 4703 
Q 1800 4397 1592 4047 
Q 1384 3697 1257 3301 
Q 1131 2906 1075 2482 
Q 1019 2059 1019 1600 
Q 1019 -434 2106 -1491 
Q 2125 -1509 2125 -1544 
Q 2125 -1559 2108 -1579 
Q 2091 -1600 2075 -1600 
L 2016 -1600 
Q 1984 -1600 1984 -1588 
z
" transform="scale(0.015625)"/>
       <path id="Cmr10-29" d="M 416 -1600 
Q 359 -1600 359 -1544 
Q 359 -1516 372 -1503 
Q 1466 -434 1466 1600 
Q 1466 3634 384 4691 
Q 359 4706 359 4744 
Q 359 4766 376 4783 
Q 394 4800 416 4800 
L 475 4800 
Q 494 4800 506 4788 
Q 966 4425 1272 3906 
Q 1578 3388 1720 2800 
Q 1863 2213 1863 1600 
Q 1863 1147 1786 708 
Q 1709 269 1542 -157 
Q 1375 -584 1119 -945 
Q 863 -1306 506 -1588 
Q 494 -1600 475 -1600 
L 416 -1600 
z
" transform="scale(0.015625)"/>
      </defs>
      <use xlink:href="#CMUSerif-Roman-4c" transform="translate(0 0.71875)"/>
      <use xlink:href="#CMUSerif-Roman-6f" transform="translate(62.5 0.71875)"/>
      <use xlink:href="#CMUSerif-Roman-6e" transform="translate(112.5 0.71875)"/>
      <use xlink:href="#CMUSerif-Roman-67" transform="translate(167.96875 0.71875)"/>
      <use xlink:href="#CMUSerif-Roman-2d" transform="translate(217.96875 0.71875)"/>
      <use xlink:href="#CMUSerif-Roman-43" transform="translate(251.220703 0.71875)"/>
      <use xlink:href="#CMUSerif-Roman-6f" transform="translate(323.388672 0.71875)"/>
      <use xlink:href="#CMUSerif-Roman-6e" transform="translate(373.388672 0.71875)"/>
      <use xlink:href="#CMUSerif-Roman-65" transform="translate(428.857422 0.71875)"/>
      <use xlink:href="#CMUSerif-Roman-20" transform="translate(473.242188 0.71875)"/>
      <use xlink:href="#CMUSerif-Roman-53" transform="translate(506.494141 0.71875)"/>
      <use xlink:href="#CMUSerif-Roman-65" transform="translate(561.962891 0.71875)"/>
      <use xlink:href="#CMUSerif-Roman-6e" transform="translate(606.347656 0.71875)"/>
      <use xlink:href="#CMUSerif-Roman-73" transform="translate(661.816406 0.71875)"/>
      <use xlink:href="#CMUSerif-Roman-69" transform="translate(701.171875 0.71875)"/>
      <use xlink:href="#CMUSerif-Roman-74" transform="translate(728.857422 0.71875)"/>
      <use xlink:href="#CMUSerif-Roman-69" transform="translate(767.626953 0.71875)"/>
      <use xlink:href="#CMUSerif-Roman-76" transform="translate(795.3125 0.71875)"/>
      <use xlink:href="#CMUSerif-Roman-69" transform="translate(847.998047 0.71875)"/>
      <use xlink:href="#CMUSerif-Roman-74" transform="translate(875.683594 0.71875)"/>
      <use xlink:href="#CMUSerif-Roman-79" transform="translate(914.453125 0.71875)"/>
      <use xlink:href="#CMUSerif-Roman-20" transform="translate(967.138672 0.71875)"/>
      <use xlink:href="#Cmr10-b9" transform="translate(1017.504395 26.015625)"/>
      <use xlink:href="#Cmmi10-4c" transform="translate(1000.390625 0.71875)"/>
      <use xlink:href="#Cmr10-28" transform="translate(1068.408203 0.71875)"/>
      <use xlink:href="#Cmmi10-b8" transform="translate(1107.226562 0.71875)"/>
      <use xlink:href="#Cmr10-29" transform="translate(1165.527344 0.71875)"/>
     </g>
    </g>
    <g id="line2d_27">
     <path d="M 539.8 19.7 
L 549.8 19.7 
L 559.8 19.7 
" style="fill: none; stroke: #cc0000; stroke-width: 1.5; stroke-linecap: square"/>
    </g>
    <g id="text_28">
     <!-- Medium-Cone Sensitivity $\bar{M}(\lambda)$ -->
     <g style="fill: #ffffff" transform="translate(421.88 37.2)scale(0.08 -0.08)">
      <defs>
       <path id="Cmmi10-4d" d="M 325 0 
Q 263 0 263 84 
Q 266 100 275 137 
Q 284 175 300 200 
Q 316 225 347 225 
Q 956 225 1056 616 
L 1888 3956 
Q 1900 4019 1900 4044 
Q 1900 4113 1825 4122 
Q 1703 4147 1363 4147 
Q 1300 4147 1300 4231 
Q 1303 4247 1312 4286 
Q 1322 4325 1339 4348 
Q 1356 4372 1381 4372 
L 2509 4372 
Q 2581 4372 2591 4300 
L 3091 634 
L 5422 4300 
Q 5466 4372 5544 4372 
L 6631 4372 
Q 6694 4372 6694 4288 
Q 6691 4272 6681 4233 
Q 6672 4194 6655 4170 
Q 6638 4147 6613 4147 
Q 6222 4147 6069 4103 
Q 5984 4075 5947 3928 
L 5069 416 
Q 5056 353 5056 325 
Q 5056 300 5064 283 
Q 5072 266 5086 261 
Q 5100 256 5131 250 
Q 5253 225 5594 225 
Q 5656 225 5656 141 
Q 5634 50 5621 25 
Q 5609 0 5550 0 
L 3878 0 
Q 3816 0 3816 84 
Q 3819 100 3828 139 
Q 3838 178 3855 201 
Q 3872 225 3897 225 
Q 4288 225 4441 269 
Q 4525 297 4563 441 
L 5484 4147 
L 2900 72 
Q 2863 0 2772 0 
Q 2691 0 2681 72 
L 2138 4097 
L 1259 588 
Q 1253 572 1250 548 
Q 1247 525 1241 494 
Q 1241 328 1386 276 
Q 1531 225 1741 225 
Q 1806 225 1806 141 
Q 1784 56 1770 28 
Q 1756 0 1697 0 
L 325 0 
z
" transform="scale(0.015625)"/>
      </defs>
      <use xlink:href="#CMUSerif-Roman-4d" transform="translate(0 0.71875)"/>
      <use xlink:href="#CMUSerif-Roman-65" transform="translate(91.552734 0.71875)"/>
      <use xlink:href="#CMUSerif-Roman-64" transform="translate(135.9375 0.71875)"/>
      <use xlink:href="#CMUSerif-Roman-69" transform="translate(191.40625 0.71875)"/>
      <use xlink:href="#CMUSerif-Roman-75" transform="translate(219.091797 0.71875)"/>
      <use xlink:href="#CMUSerif-Roman-6d" transform="translate(274.560547 0.71875)"/>
      <use xlink:href="#CMUSerif-Roman-2d" transform="translate(357.8125 0.71875)"/>
      <use xlink:href="#CMUSerif-Roman-43" transform="translate(391.064453 0.71875)"/>
      <use xlink:href="#CMUSerif-Roman-6f" transform="translate(463.232422 0.71875)"/>
      <use xlink:href="#CMUSerif-Roman-6e" transform="translate(513.232422 0.71875)"/>
      <use xlink:href="#CMUSerif-Roman-65" transform="translate(568.701172 0.71875)"/>
      <use xlink:href="#CMUSerif-Roman-20" transform="translate(613.085938 0.71875)"/>
      <use xlink:href="#CMUSerif-Roman-53" transform="translate(646.337891 0.71875)"/>
      <use xlink:href="#CMUSerif-Roman-65" transform="translate(701.806641 0.71875)"/>
      <use xlink:href="#CMUSerif-Roman-6e" transform="translate(746.191406 0.71875)"/>
      <use xlink:href="#CMUSerif-Roman-73" transform="translate(801.660156 0.71875)"/>
      <use xlink:href="#CMUSerif-Roman-69" transform="translate(841.015625 0.71875)"/>
      <use xlink:href="#CMUSerif-Roman-74" transform="translate(868.701172 0.71875)"/>
      <use xlink:href="#CMUSerif-Roman-69" transform="translate(907.470703 0.71875)"/>
      <use xlink:href="#CMUSerif-Roman-76" transform="translate(935.15625 0.71875)"/>
      <use xlink:href="#CMUSerif-Roman-69" transform="translate(987.841797 0.71875)"/>
      <use xlink:href="#CMUSerif-Roman-74" transform="translate(1015.527344 0.71875)"/>
      <use xlink:href="#CMUSerif-Roman-79" transform="translate(1054.296875 0.71875)"/>
      <use xlink:href="#CMUSerif-Roman-20" transform="translate(1106.982422 0.71875)"/>
      <use xlink:href="#Cmr10-b9" transform="translate(1175.599121 26.015625)"/>
      <use xlink:href="#Cmmi10-4d" transform="translate(1140.234375 0.71875)"/>
      <use xlink:href="#Cmr10-28" transform="translate(1237.255859 0.71875)"/>
      <use xlink:href="#Cmmi10-b8" transform="translate(1276.074219 0.71875)"/>
      <use xlink:href="#Cmr10-29" transform="translate(1334.375 0.71875)"/>
     </g>
    </g>
    <g id="line2d_28">
     <path d="M 539.8 33.7 
L 549.8 33.7 
L 559.8 33.7 
" style="fill: none; stroke: #00cc00; stroke-width: 1.5; stroke-linecap: square"/>
    </g>
    <g id="text_29">
     <!-- Short-Cone Sensitivity $\bar{S}(\lambda)$ -->
     <g style="fill: #ffffff" transform="translate(434.28 51.2)scale(0.08 -0.08)">
      <defs>
       <path id="Cmmi10-53" d="M 391 -141 
Q 372 -141 356 -119 
Q 341 -97 341 -78 
L 709 1416 
Q 722 1453 763 1453 
L 838 1453 
Q 863 1453 877 1434 
Q 891 1416 891 1388 
Q 838 1169 838 997 
Q 838 534 1156 309 
Q 1475 84 1959 84 
Q 2169 84 2372 187 
Q 2575 291 2726 456 
Q 2878 622 2968 826 
Q 3059 1031 3059 1241 
Q 3059 1466 2940 1642 
Q 2822 1819 2613 1869 
L 1831 2075 
Q 1516 2159 1328 2414 
Q 1141 2669 1141 2988 
Q 1141 3372 1369 3728 
Q 1597 4084 1964 4298 
Q 2331 4513 2713 4513 
Q 3006 4513 3251 4405 
Q 3497 4297 3628 4063 
L 3994 4494 
Q 4031 4513 4038 4513 
L 4078 4513 
Q 4103 4513 4118 4491 
Q 4134 4469 4134 4447 
L 3763 2963 
Q 3753 2919 3713 2919 
L 3634 2919 
Q 3578 2919 3578 2988 
Q 3609 3191 3609 3341 
Q 3609 3638 3507 3858 
Q 3406 4078 3201 4192 
Q 2997 4306 2694 4306 
Q 2438 4306 2184 4159 
Q 1931 4013 1775 3769 
Q 1619 3525 1619 3263 
Q 1619 3056 1739 2897 
Q 1859 2738 2059 2681 
L 2841 2478 
Q 3053 2422 3211 2280 
Q 3369 2138 3450 1942 
Q 3531 1747 3531 1516 
Q 3531 1213 3403 917 
Q 3275 622 3045 378 
Q 2816 134 2525 -3 
Q 2234 -141 1931 -141 
Q 1169 -141 838 306 
L 481 -122 
Q 444 -141 434 -141 
L 391 -141 
z
" transform="scale(0.015625)"/>
      </defs>
      <use xlink:href="#CMUSerif-Roman-53" transform="translate(0 0.515625)"/>
      <use xlink:href="#CMUSerif-Roman-68" transform="translate(55.46875 0.515625)"/>
      <use xlink:href="#CMUSerif-Roman-6f" transform="translate(110.9375 0.515625)"/>
      <use xlink:href="#CMUSerif-Roman-72" transform="translate(160.9375 0.515625)"/>
      <use xlink:href="#CMUSerif-Roman-74" transform="translate(200 0.515625)"/>
      <use xlink:href="#CMUSerif-Roman-2d" transform="translate(238.769531 0.515625)"/>
      <use xlink:href="#CMUSerif-Roman-43" transform="translate(272.021484 0.515625)"/>
      <use xlink:href="#CMUSerif-Roman-6f" transform="translate(344.189453 0.515625)"/>
      <use xlink:href="#CMUSerif-Roman-6e" transform="translate(394.189453 0.515625)"/>
      <use xlink:href="#CMUSerif-Roman-65" transform="translate(449.658203 0.515625)"/>
      <use xlink:href="#CMUSerif-Roman-20" transform="translate(494.042969 0.515625)"/>
      <use xlink:href="#CMUSerif-Roman-53" transform="translate(527.294922 0.515625)"/>
      <use xlink:href="#CMUSerif-Roman-65" transform="translate(582.763672 0.515625)"/>
      <use xlink:href="#CMUSerif-Roman-6e" transform="translate(627.148438 0.515625)"/>
      <use xlink:href="#CMUSerif-Roman-73" transform="translate(682.617188 0.515625)"/>
      <use xlink:href="#CMUSerif-Roman-69" transform="translate(721.972656 0.515625)"/>
      <use xlink:href="#CMUSerif-Roman-74" transform="translate(749.658203 0.515625)"/>
      <use xlink:href="#CMUSerif-Roman-69" transform="translate(788.427734 0.515625)"/>
      <use xlink:href="#CMUSerif-Roman-76" transform="translate(816.113281 0.515625)"/>
      <use xlink:href="#CMUSerif-Roman-69" transform="translate(868.798828 0.515625)"/>
      <use xlink:href="#CMUSerif-Roman-74" transform="translate(896.484375 0.515625)"/>
      <use xlink:href="#CMUSerif-Roman-79" transform="translate(935.253906 0.515625)"/>
      <use xlink:href="#CMUSerif-Roman-20" transform="translate(987.939453 0.515625)"/>
      <use xlink:href="#Cmr10-b9" transform="translate(1034.620605 28.015625)"/>
      <use xlink:href="#Cmmi10-53" transform="translate(1021.191406 0.515625)"/>
      <use xlink:href="#Cmr10-28" transform="translate(1082.470703 0.515625)"/>
      <use xlink:href="#Cmmi10-b8" transform="translate(1121.289062 0.515625)"/>
      <use xlink:href="#Cmr10-29" transform="translate(1179.589844 0.515625)"/>
     </g>
    </g>
    <g id="line2d_29">
     <path d="M 539.8 47.7 
L 549.8 47.7 
L 559.8 47.7 
" style="fill: none; stroke: #0000cc; stroke-width: 1.5; stroke-linecap: square"/>
    </g>
   </g>
  </g>
 </g>
 <defs>
  <clipPath id="p4dec6f1a74">
   <rect x="56.936" y="7.2" width="511.864" height="274.075"/>
  </clipPath>
 </defs>
</svg>
