<?xml version="1.0" encoding="utf-8" standalone="no"?>
<!DOCTYPE svg PUBLIC "-//W3C//DTD SVG 1.1//EN"
  "http://www.w3.org/Graphics/SVG/1.1/DTD/svg11.dtd">
<svg xmlns:xlink="http://www.w3.org/1999/xlink" width="288pt" height="288pt" viewBox="0 0 288 288" xmlns="http://www.w3.org/2000/svg" version="1.1">
 <metadata>
  <rdf:RDF xmlns:dc="http://purl.org/dc/elements/1.1/" xmlns:cc="http://creativecommons.org/ns#" xmlns:rdf="http://www.w3.org/1999/02/22-rdf-syntax-ns#">
   <cc:Work>
    <dc:type rdf:resource="http://purl.org/dc/dcmitype/StillImage"/>
    <dc:date>2022-07-07T08:48:04.276973</dc:date>
    <dc:format>image/svg+xml</dc:format>
    <dc:creator>
     <cc:Agent>
      <dc:title>Matplotlib v3.5.2, https://matplotlib.org/</dc:title>
     </cc:Agent>
    </dc:creator>
   </cc:Work>
  </rdf:RDF>
 </metadata>
 <defs>
  <style type="text/css">*{stroke-linejoin: round; stroke-linecap: butt}</style>
 </defs>
 <g id="figure_1">
  <g id="patch_1">
   <path d="M 0 288 
L 288 288 
L 288 0 
L 0 0 
z
" style="fill: #ffffff"/>
  </g>
  <g id="axes_1">
   <g id="patch_2">
    <path d="M 41.96 248.0875 
L 280.8 248.0875 
L 280.8 9.2475 
L 41.96 9.2475 
L 41.96 248.0875 
z
" style="fill: none"/>
   </g>
   <g id="line2d_1">
    <path d="M 41.96 231.394382 
L 280.8 231.394382 
" clip-path="url(#p2241986b8d)" style="fill: none; stroke: #404040; stroke-width: 2; stroke-linecap: square"/>
   </g>
   <g id="line2d_2">
    <path d="M 58.653118 248.0875 
L 58.653118 9.2475 
" clip-path="url(#p2241986b8d)" style="fill: none; stroke: #404040; stroke-width: 2; stroke-linecap: square"/>
   </g>
   <g id="line2d_3">
    <path d="M 83.075941 -1 
L 289 204.924059 
" clip-path="url(#p2241986b8d)" style="fill: none; stroke-dasharray: 1.5,2.475; stroke-dashoffset: 0; stroke: #bfbfbf; stroke-width: 1.5"/>
   </g>
   <g id="line2d_4">
    <path d="M 104.474351 225.067266 
L 244.123176 160.047235 
" clip-path="url(#p2241986b8d)" style="fill: none; stroke-dasharray: 1.5,2.475; stroke-dashoffset: 0; stroke: #808080; stroke-width: 1.5"/>
   </g>
   <g id="matplotlib.axis_1">
    <g id="xtick_1">
     <g id="line2d_5">
      <defs>
       <path id="m271b4d48f5" d="M 0 0 
L 0 3.5 
" style="stroke: #000000; stroke-width: 0.8"/>
      </defs>
      <g>
       <use xlink:href="#m271b4d48f5" x="58.653118" y="248.0875" style="stroke: #000000; stroke-width: 0.8"/>
      </g>
     </g>
     <g id="text_1">
      <!-- 0.0 -->
      <g transform="translate(52.264056 262.026563)scale(0.1 -0.1)">
       <defs>
        <path id="CMUSerif-Roman-30" d="M 250 2047 
Q 250 2988 488 3500 
Q 819 4263 1600 4263 
Q 1766 4263 1939 4217 
Q 2113 4172 2333 4000 
Q 2553 3828 2688 3547 
Q 2944 3003 2944 2047 
Q 2944 1113 2706 603 
Q 2359 -141 1594 -141 
Q 1306 -141 1014 6 
Q 722 153 538 506 
Q 250 1034 250 2047 
z
M 781 2125 
Q 781 1159 850 775 
Q 928 359 1142 179 
Q 1356 0 1594 0 
Q 1850 0 2064 192 
Q 2278 384 2344 800 
Q 2416 1209 2413 2125 
Q 2413 3016 2350 3372 
Q 2266 3788 2042 3955 
Q 1819 4122 1594 4122 
Q 1509 4122 1420 4097 
Q 1331 4072 1203 4000 
Q 1075 3928 976 3750 
Q 878 3572 831 3303 
Q 781 2956 781 2125 
z
" transform="scale(0.015625)"/>
        <path id="CMUSerif-Roman-2e" d="M 641 103 
Q 544 206 544 340 
Q 544 475 641 573 
Q 738 672 884 672 
Q 1025 672 1120 580 
Q 1216 488 1216 339 
Q 1216 191 1114 95 
Q 1013 0 884 0 
Q 738 0 641 103 
z
" transform="scale(0.015625)"/>
       </defs>
       <use xlink:href="#CMUSerif-Roman-30"/>
       <use xlink:href="#CMUSerif-Roman-2e" x="50"/>
       <use xlink:href="#CMUSerif-Roman-30" x="77.783203"/>
      </g>
     </g>
    </g>
    <g id="xtick_2">
     <g id="line2d_6">
      <g>
       <use xlink:href="#m271b4d48f5" x="84.334839" y="248.0875" style="stroke: #000000; stroke-width: 0.8"/>
      </g>
     </g>
     <g id="text_2">
      <!-- 0.1 -->
      <g transform="translate(77.945776 262.026563)scale(0.1 -0.1)">
       <defs>
        <path id="CMUSerif-Roman-31" d="M 569 3653 
L 569 3853 
Q 1338 3853 1734 4263 
Q 1844 4263 1862 4238 
Q 1881 4213 1881 4097 
L 1881 506 
Q 1881 316 1975 256 
Q 2069 197 2478 197 
L 2681 197 
L 2681 0 
Q 2456 19 1643 19 
Q 831 19 609 0 
L 609 197 
L 813 197 
Q 1216 197 1312 255 
Q 1409 313 1409 506 
L 1409 3822 
Q 1075 3653 569 3653 
z
" transform="scale(0.015625)"/>
       </defs>
       <use xlink:href="#CMUSerif-Roman-30"/>
       <use xlink:href="#CMUSerif-Roman-2e" x="50"/>
       <use xlink:href="#CMUSerif-Roman-31" x="77.783203"/>
      </g>
     </g>
    </g>
    <g id="xtick_3">
     <g id="line2d_7">
      <g>
       <use xlink:href="#m271b4d48f5" x="110.016559" y="248.0875" style="stroke: #000000; stroke-width: 0.8"/>
      </g>
     </g>
     <g id="text_3">
      <!-- 0.2 -->
      <g transform="translate(103.627497 262.026563)scale(0.1 -0.1)">
       <defs>
        <path id="CMUSerif-Roman-32" d="M 319 0 
Q 319 116 330 150 
Q 341 184 391 238 
L 1619 1606 
Q 2291 2363 2291 3022 
Q 2291 3450 2067 3756 
Q 1844 4063 1434 4063 
Q 1153 4063 915 3891 
Q 678 3719 569 3413 
Q 588 3419 653 3419 
Q 813 3419 902 3319 
Q 991 3219 991 3084 
Q 991 2913 880 2830 
Q 769 2747 659 2747 
Q 616 2747 558 2756 
Q 500 2766 409 2855 
Q 319 2944 319 3103 
Q 319 3550 658 3906 
Q 997 4263 1516 4263 
Q 2103 4263 2489 3914 
Q 2875 3566 2875 3022 
Q 2875 2831 2817 2657 
Q 2759 2484 2682 2350 
Q 2606 2216 2400 2000 
Q 2194 1784 2028 1631 
Q 1863 1478 1491 1153 
L 813 494 
L 1966 494 
Q 2528 494 2572 544 
Q 2634 634 2713 1113 
L 2875 1113 
L 2694 0 
L 319 0 
z
" transform="scale(0.015625)"/>
       </defs>
       <use xlink:href="#CMUSerif-Roman-30"/>
       <use xlink:href="#CMUSerif-Roman-2e" x="50"/>
       <use xlink:href="#CMUSerif-Roman-32" x="77.783203"/>
      </g>
     </g>
    </g>
    <g id="xtick_4">
     <g id="line2d_8">
      <g>
       <use xlink:href="#m271b4d48f5" x="135.69828" y="248.0875" style="stroke: #000000; stroke-width: 0.8"/>
      </g>
     </g>
     <g id="text_4">
      <!-- 0.3 -->
      <g transform="translate(129.309217 262.026563)scale(0.1 -0.1)">
       <defs>
        <path id="CMUSerif-Roman-33" d="M 269 863 
Q 269 1053 378 1143 
Q 488 1234 628 1234 
Q 775 1234 879 1139 
Q 984 1044 984 878 
Q 984 700 861 600 
Q 738 500 563 525 
Q 716 269 998 153 
Q 1281 38 1544 38 
Q 1819 38 2042 275 
Q 2266 513 2266 1094 
Q 2266 1588 2073 1872 
Q 1881 2156 1503 2156 
L 1222 2156 
Q 1125 2156 1097 2165 
Q 1069 2175 1069 2228 
Q 1069 2291 1166 2303 
Q 1263 2303 1416 2322 
Q 1788 2334 1984 2656 
Q 2163 2956 2163 3384 
Q 2163 3775 1977 3939 
Q 1791 4103 1550 4103 
Q 1325 4103 1078 4009 
Q 831 3916 697 3706 
Q 1094 3706 1094 3384 
Q 1094 3244 1005 3151 
Q 916 3059 769 3059 
Q 628 3059 534 3148 
Q 441 3238 441 3391 
Q 441 3756 767 4009 
Q 1094 4263 1575 4263 
Q 2050 4263 2401 4013 
Q 2753 3763 2753 3378 
Q 2753 3000 2503 2690 
Q 2253 2381 1856 2253 
Q 2344 2156 2634 1826 
Q 2925 1497 2925 1094 
Q 2925 594 2531 226 
Q 2138 -141 1563 -141 
Q 1031 -141 650 146 
Q 269 434 269 863 
z
" transform="scale(0.015625)"/>
       </defs>
       <use xlink:href="#CMUSerif-Roman-30"/>
       <use xlink:href="#CMUSerif-Roman-2e" x="50"/>
       <use xlink:href="#CMUSerif-Roman-33" x="77.783203"/>
      </g>
     </g>
    </g>
    <g id="xtick_5">
     <g id="line2d_9">
      <g>
       <use xlink:href="#m271b4d48f5" x="161.38" y="248.0875" style="stroke: #000000; stroke-width: 0.8"/>
      </g>
     </g>
     <g id="text_5">
      <!-- 0.4 -->
      <g transform="translate(154.990938 262.026563)scale(0.1 -0.1)">
       <defs>
        <path id="CMUSerif-Roman-34" d="M 178 1056 
L 178 1253 
L 2144 4256 
Q 2194 4334 2272 4331 
Q 2344 4331 2359 4303 
Q 2375 4275 2375 4166 
L 2375 1253 
L 3016 1253 
L 3016 1056 
L 2375 1056 
L 2375 500 
Q 2375 316 2451 256 
Q 2528 197 2859 197 
L 2994 197 
L 2994 0 
Q 2731 19 2125 19 
Q 1522 19 1259 0 
L 1259 197 
L 1394 197 
Q 1725 197 1803 255 
Q 1881 313 1881 500 
L 1881 1056 
L 178 1056 
z
M 359 1253 
L 1919 1253 
L 1919 3641 
L 359 1253 
z
" transform="scale(0.015625)"/>
       </defs>
       <use xlink:href="#CMUSerif-Roman-30"/>
       <use xlink:href="#CMUSerif-Roman-2e" x="50"/>
       <use xlink:href="#CMUSerif-Roman-34" x="77.783203"/>
      </g>
     </g>
    </g>
    <g id="xtick_6">
     <g id="line2d_10">
      <g>
       <use xlink:href="#m271b4d48f5" x="187.06172" y="248.0875" style="stroke: #000000; stroke-width: 0.8"/>
      </g>
     </g>
     <g id="text_6">
      <!-- 0.5 -->
      <g transform="translate(180.672658 262.026563)scale(0.1 -0.1)">
       <defs>
        <path id="CMUSerif-Roman-35" d="M 319 1031 
Q 319 1222 422 1295 
Q 525 1369 634 1369 
Q 781 1369 867 1276 
Q 953 1184 953 1056 
Q 953 928 867 836 
Q 781 744 634 744 
Q 563 744 525 756 
Q 609 463 867 250 
Q 1125 38 1466 38 
Q 1894 38 2150 453 
Q 2303 722 2303 1331 
Q 2303 1869 2188 2138 
Q 2009 2547 1644 2547 
Q 1125 2547 819 2100 
Q 781 2044 738 2041 
Q 675 2041 661 2077 
Q 647 2113 647 2209 
L 647 4103 
Q 647 4256 709 4256 
Q 734 4256 788 4238 
Q 1191 4059 1638 4056 
Q 2097 4056 2509 4244 
Q 2541 4263 2559 4263 
Q 2622 4263 2625 4191 
Q 2625 4166 2573 4092 
Q 2522 4019 2412 3923 
Q 2303 3828 2162 3737 
Q 2022 3647 1817 3586 
Q 1613 3525 1388 3525 
Q 1119 3525 844 3609 
L 844 2363 
Q 1175 2688 1656 2688 
Q 2169 2688 2522 2275 
Q 2875 1863 2875 1288 
Q 2875 684 2458 271 
Q 2041 -141 1478 -141 
Q 966 -141 642 225 
Q 319 591 319 1031 
z
" transform="scale(0.015625)"/>
       </defs>
       <use xlink:href="#CMUSerif-Roman-30"/>
       <use xlink:href="#CMUSerif-Roman-2e" x="50"/>
       <use xlink:href="#CMUSerif-Roman-35" x="77.783203"/>
      </g>
     </g>
    </g>
    <g id="xtick_7">
     <g id="line2d_11">
      <g>
       <use xlink:href="#m271b4d48f5" x="212.743441" y="248.0875" style="stroke: #000000; stroke-width: 0.8"/>
      </g>
     </g>
     <g id="text_7">
      <!-- 0.6 -->
      <g transform="translate(206.354378 262.026563)scale(0.1 -0.1)">
       <defs>
        <path id="CMUSerif-Roman-36" d="M 269 2022 
Q 269 3028 781 3645 
Q 1294 4263 1953 4263 
Q 2338 4263 2552 4067 
Q 2766 3872 2766 3572 
Q 2766 3406 2669 3334 
Q 2572 3263 2472 3263 
Q 2356 3263 2265 3341 
Q 2175 3419 2175 3559 
Q 2175 3847 2528 3847 
Q 2363 4103 1966 4103 
Q 1844 4103 1719 4067 
Q 1594 4031 1431 3912 
Q 1269 3794 1144 3606 
Q 1019 3419 931 3066 
Q 844 2713 844 2253 
L 844 2100 
Q 1106 2734 1643 2732 
Q 2181 2731 2553 2322 
Q 2925 1913 2925 1306 
Q 2925 684 2537 271 
Q 2150 -141 1606 -141 
Q 1363 -141 1142 -39 
Q 922 63 717 294 
Q 513 525 391 969 
Q 269 1413 269 2022 
z
M 856 1447 
Q 856 819 972 519 
Q 991 469 1033 400 
Q 1075 331 1148 242 
Q 1222 153 1344 95 
Q 1466 38 1606 38 
Q 2034 38 2241 453 
Q 2350 684 2350 1313 
Q 2350 1953 2234 2188 
Q 2038 2584 1638 2584 
Q 1369 2584 1183 2400 
Q 997 2216 926 1969 
Q 856 1722 856 1447 
z
" transform="scale(0.015625)"/>
       </defs>
       <use xlink:href="#CMUSerif-Roman-30"/>
       <use xlink:href="#CMUSerif-Roman-2e" x="50"/>
       <use xlink:href="#CMUSerif-Roman-36" x="77.783203"/>
      </g>
     </g>
    </g>
    <g id="xtick_8">
     <g id="line2d_12">
      <g>
       <use xlink:href="#m271b4d48f5" x="238.425161" y="248.0875" style="stroke: #000000; stroke-width: 0.8"/>
      </g>
     </g>
     <g id="text_8">
      <!-- 0.7 -->
      <g transform="translate(232.036099 262.026563)scale(0.1 -0.1)">
       <defs>
        <path id="CMUSerif-Roman-37" d="M 359 3009 
L 569 4325 
L 728 4325 
Q 747 4247 780 4212 
Q 813 4178 995 4150 
Q 1178 4122 1550 4122 
L 3103 4122 
Q 3103 3975 3047 3897 
L 2181 2681 
Q 1906 2297 1784 1588 
Q 1713 1113 1716 538 
L 1716 213 
Q 1716 -141 1420 -141 
Q 1125 -141 1125 213 
Q 1125 1434 1913 2619 
Q 1997 2741 2308 3175 
Q 2619 3609 2631 3628 
L 1306 3628 
Q 725 3628 678 3591 
Q 616 3534 519 3009 
L 359 3009 
z
" transform="scale(0.015625)"/>
       </defs>
       <use xlink:href="#CMUSerif-Roman-30"/>
       <use xlink:href="#CMUSerif-Roman-2e" x="50"/>
       <use xlink:href="#CMUSerif-Roman-37" x="77.783203"/>
      </g>
     </g>
    </g>
    <g id="xtick_9">
     <g id="line2d_13">
      <g>
       <use xlink:href="#m271b4d48f5" x="264.106882" y="248.0875" style="stroke: #000000; stroke-width: 0.8"/>
      </g>
     </g>
     <g id="text_9">
      <!-- 0.8 -->
      <g transform="translate(257.717819 262.026563)scale(0.1 -0.1)">
       <defs>
        <path id="CMUSerif-Roman-38" d="M 269 966 
Q 269 1681 1191 2144 
Q 794 2413 722 2491 
Q 441 2803 441 3194 
Q 441 3641 780 3952 
Q 1119 4263 1600 4263 
Q 2059 4263 2406 3997 
Q 2753 3731 2753 3309 
Q 2753 2716 1978 2316 
Q 2491 1997 2613 1863 
Q 2925 1516 2925 1075 
Q 2925 563 2531 211 
Q 2138 -141 1594 -141 
Q 1063 -141 666 168 
Q 269 478 269 966 
z
M 588 966 
Q 588 569 886 303 
Q 1184 38 1600 38 
Q 2003 38 2304 269 
Q 2606 500 2606 844 
Q 2606 978 2561 1093 
Q 2516 1209 2427 1301 
Q 2338 1394 2283 1436 
Q 2228 1478 2125 1550 
L 1338 2047 
Q 588 1631 588 966 
z
M 722 3444 
Q 722 3138 1044 2925 
L 1838 2413 
Q 2472 2784 2472 3309 
Q 2472 3650 2212 3876 
Q 1953 4103 1594 4103 
Q 1241 4103 981 3917 
Q 722 3731 722 3444 
z
" transform="scale(0.015625)"/>
       </defs>
       <use xlink:href="#CMUSerif-Roman-30"/>
       <use xlink:href="#CMUSerif-Roman-2e" x="50"/>
       <use xlink:href="#CMUSerif-Roman-38" x="77.783203"/>
      </g>
     </g>
    </g>
    <g id="text_10">
     <!-- $x$ -->
     <g transform="translate(157.9 276.2925)scale(0.12 -0.12)">
      <defs>
       <path id="Cmmi10-78" d="M 500 184 
Q 613 97 819 97 
Q 1019 97 1172 289 
Q 1325 481 1381 709 
L 1672 1844 
Q 1741 2153 1741 2266 
Q 1741 2425 1652 2544 
Q 1563 2663 1403 2663 
Q 1200 2663 1022 2536 
Q 844 2409 722 2214 
Q 600 2019 550 1819 
Q 538 1778 500 1778 
L 422 1778 
Q 372 1778 372 1838 
L 372 1856 
Q 434 2094 584 2320 
Q 734 2547 951 2687 
Q 1169 2828 1416 2828 
Q 1650 2828 1839 2703 
Q 2028 2578 2106 2363 
Q 2216 2559 2386 2693 
Q 2556 2828 2759 2828 
Q 2897 2828 3040 2779 
Q 3184 2731 3275 2631 
Q 3366 2531 3366 2381 
Q 3366 2219 3261 2101 
Q 3156 1984 2994 1984 
Q 2891 1984 2822 2050 
Q 2753 2116 2753 2216 
Q 2753 2350 2845 2451 
Q 2938 2553 3066 2572 
Q 2950 2663 2747 2663 
Q 2541 2663 2389 2472 
Q 2238 2281 2175 2047 
L 1894 916 
Q 1825 659 1825 494 
Q 1825 331 1917 214 
Q 2009 97 2163 97 
Q 2463 97 2698 361 
Q 2934 625 3009 941 
Q 3022 978 3059 978 
L 3138 978 
Q 3163 978 3178 961 
Q 3194 944 3194 922 
Q 3194 916 3188 903 
Q 3097 522 2806 225 
Q 2516 -72 2150 -72 
Q 1916 -72 1727 54 
Q 1538 181 1459 397 
Q 1359 209 1182 68 
Q 1006 -72 806 -72 
Q 669 -72 523 -23 
Q 378 25 287 125 
Q 197 225 197 378 
Q 197 528 301 651 
Q 406 775 563 775 
Q 669 775 741 711 
Q 813 647 813 544 
Q 813 409 723 309 
Q 634 209 500 184 
z
" transform="scale(0.015625)"/>
      </defs>
      <use xlink:href="#Cmmi10-78" transform="translate(0 0.8125)"/>
     </g>
    </g>
   </g>
   <g id="matplotlib.axis_2">
    <g id="ytick_1">
     <g id="line2d_14">
      <defs>
       <path id="m2be501c3e8" d="M 0 0 
L -3.5 0 
" style="stroke: #000000; stroke-width: 0.8"/>
      </defs>
      <g>
       <use xlink:href="#m2be501c3e8" x="41.96" y="231.394382" style="stroke: #000000; stroke-width: 0.8"/>
      </g>
     </g>
     <g id="text_11">
      <!-- 0.0 -->
      <g transform="translate(22.181875 234.863913)scale(0.1 -0.1)">
       <use xlink:href="#CMUSerif-Roman-30"/>
       <use xlink:href="#CMUSerif-Roman-2e" x="50"/>
       <use xlink:href="#CMUSerif-Roman-30" x="77.783203"/>
      </g>
     </g>
    </g>
    <g id="ytick_2">
     <g id="line2d_15">
      <g>
       <use xlink:href="#m2be501c3e8" x="41.96" y="205.712661" style="stroke: #000000; stroke-width: 0.8"/>
      </g>
     </g>
     <g id="text_12">
      <!-- 0.1 -->
      <g transform="translate(22.181875 209.182193)scale(0.1 -0.1)">
       <use xlink:href="#CMUSerif-Roman-30"/>
       <use xlink:href="#CMUSerif-Roman-2e" x="50"/>
       <use xlink:href="#CMUSerif-Roman-31" x="77.783203"/>
      </g>
     </g>
    </g>
    <g id="ytick_3">
     <g id="line2d_16">
      <g>
       <use xlink:href="#m2be501c3e8" x="41.96" y="180.030941" style="stroke: #000000; stroke-width: 0.8"/>
      </g>
     </g>
     <g id="text_13">
      <!-- 0.2 -->
      <g transform="translate(22.181875 183.500472)scale(0.1 -0.1)">
       <use xlink:href="#CMUSerif-Roman-30"/>
       <use xlink:href="#CMUSerif-Roman-2e" x="50"/>
       <use xlink:href="#CMUSerif-Roman-32" x="77.783203"/>
      </g>
     </g>
    </g>
    <g id="ytick_4">
     <g id="line2d_17">
      <g>
       <use xlink:href="#m2be501c3e8" x="41.96" y="154.34922" style="stroke: #000000; stroke-width: 0.8"/>
      </g>
     </g>
     <g id="text_14">
      <!-- 0.3 -->
      <g transform="translate(22.181875 157.818752)scale(0.1 -0.1)">
       <use xlink:href="#CMUSerif-Roman-30"/>
       <use xlink:href="#CMUSerif-Roman-2e" x="50"/>
       <use xlink:href="#CMUSerif-Roman-33" x="77.783203"/>
      </g>
     </g>
    </g>
    <g id="ytick_5">
     <g id="line2d_18">
      <g>
       <use xlink:href="#m2be501c3e8" x="41.96" y="128.6675" style="stroke: #000000; stroke-width: 0.8"/>
      </g>
     </g>
     <g id="text_15">
      <!-- 0.4 -->
      <g transform="translate(22.181875 132.137031)scale(0.1 -0.1)">
       <use xlink:href="#CMUSerif-Roman-30"/>
       <use xlink:href="#CMUSerif-Roman-2e" x="50"/>
       <use xlink:href="#CMUSerif-Roman-34" x="77.783203"/>
      </g>
     </g>
    </g>
    <g id="ytick_6">
     <g id="line2d_19">
      <g>
       <use xlink:href="#m2be501c3e8" x="41.96" y="102.98578" style="stroke: #000000; stroke-width: 0.8"/>
      </g>
     </g>
     <g id="text_16">
      <!-- 0.5 -->
      <g transform="translate(22.181875 106.455311)scale(0.1 -0.1)">
       <use xlink:href="#CMUSerif-Roman-30"/>
       <use xlink:href="#CMUSerif-Roman-2e" x="50"/>
       <use xlink:href="#CMUSerif-Roman-35" x="77.783203"/>
      </g>
     </g>
    </g>
    <g id="ytick_7">
     <g id="line2d_20">
      <g>
       <use xlink:href="#m2be501c3e8" x="41.96" y="77.304059" style="stroke: #000000; stroke-width: 0.8"/>
      </g>
     </g>
     <g id="text_17">
      <!-- 0.6 -->
      <g transform="translate(22.181875 80.77359)scale(0.1 -0.1)">
       <use xlink:href="#CMUSerif-Roman-30"/>
       <use xlink:href="#CMUSerif-Roman-2e" x="50"/>
       <use xlink:href="#CMUSerif-Roman-36" x="77.783203"/>
      </g>
     </g>
    </g>
    <g id="ytick_8">
     <g id="line2d_21">
      <g>
       <use xlink:href="#m2be501c3e8" x="41.96" y="51.622339" style="stroke: #000000; stroke-width: 0.8"/>
      </g>
     </g>
     <g id="text_18">
      <!-- 0.7 -->
      <g transform="translate(22.181875 55.09187)scale(0.1 -0.1)">
       <use xlink:href="#CMUSerif-Roman-30"/>
       <use xlink:href="#CMUSerif-Roman-2e" x="50"/>
       <use xlink:href="#CMUSerif-Roman-37" x="77.783203"/>
      </g>
     </g>
    </g>
    <g id="ytick_9">
     <g id="line2d_22">
      <g>
       <use xlink:href="#m2be501c3e8" x="41.96" y="25.940618" style="stroke: #000000; stroke-width: 0.8"/>
      </g>
     </g>
     <g id="text_19">
      <!-- 0.8 -->
      <g transform="translate(22.181875 29.41015)scale(0.1 -0.1)">
       <use xlink:href="#CMUSerif-Roman-30"/>
       <use xlink:href="#CMUSerif-Roman-2e" x="50"/>
       <use xlink:href="#CMUSerif-Roman-38" x="77.783203"/>
      </g>
     </g>
    </g>
    <g id="text_20">
     <!-- $y$ -->
     <g transform="translate(15.661875 131.6675)rotate(-90)scale(0.12 -0.12)">
      <defs>
       <path id="Cmmi10-79" d="M 538 -916 
Q 672 -1147 1006 -1147 
Q 1309 -1147 1531 -934 
Q 1753 -722 1889 -420 
Q 2025 -119 2100 197 
Q 1816 -72 1484 -72 
Q 1231 -72 1053 15 
Q 875 103 776 276 
Q 678 450 678 697 
Q 678 906 734 1126 
Q 791 1347 892 1617 
Q 994 1888 1069 2088 
Q 1153 2322 1153 2472 
Q 1153 2663 1013 2663 
Q 759 2663 595 2402 
Q 431 2141 353 1819 
Q 341 1778 300 1778 
L 225 1778 
Q 172 1778 172 1838 
L 172 1856 
Q 275 2238 487 2533 
Q 700 2828 1025 2828 
Q 1253 2828 1411 2678 
Q 1569 2528 1569 2297 
Q 1569 2178 1516 2047 
Q 1488 1969 1388 1706 
Q 1288 1444 1234 1272 
Q 1181 1100 1147 934 
Q 1113 769 1113 603 
Q 1113 391 1203 244 
Q 1294 97 1491 97 
Q 1888 97 2203 581 
L 2688 2553 
Q 2709 2638 2787 2698 
Q 2866 2759 2956 2759 
Q 3034 2759 3092 2709 
Q 3150 2659 3150 2578 
Q 3150 2541 3144 2528 
L 2509 -19 
Q 2425 -347 2200 -647 
Q 1975 -947 1658 -1130 
Q 1341 -1313 997 -1313 
Q 831 -1313 668 -1248 
Q 506 -1184 406 -1056 
Q 306 -928 306 -756 
Q 306 -581 409 -453 
Q 513 -325 684 -325 
Q 788 -325 858 -389 
Q 928 -453 928 -556 
Q 928 -703 818 -812 
Q 709 -922 563 -922 
Q 556 -919 550 -917 
Q 544 -916 538 -916 
z
" transform="scale(0.015625)"/>
      </defs>
      <use xlink:href="#Cmmi10-79" transform="translate(0 0.8125)"/>
     </g>
    </g>
   </g>
   <g id="line2d_23">
    <path d="M 104.474351 225.067266 
L 104.375149 224.948596 
L 104.138263 225.030256 
L 103.606296 225.54221 
L 103.168165 225.826524 
L 102.478436 226.022742 
L 101.8851 225.934648 
L 101.074186 225.56136 
L 100.10857 224.787777 
L 98.979953 223.694031 
L 97.572355 221.92704 
L 96.608827 220.3509 
L 92.702699 213.079299 
L 90.484523 208.229343 
L 87.53674 201.217861 
L 84.802179 194.020538 
L 81.551895 184.684643 
L 77.785065 172.942533 
L 75.088787 163.900498 
L 72.322634 153.965039 
L 69.549696 143.085119 
L 66.873352 131.280746 
L 64.432019 118.804476 
L 62.359457 106.025977 
L 61.503515 99.643933 
L 60.794659 93.329523 
L 60.253808 87.132458 
L 59.9019 81.103856 
L 59.752478 75.284171 
L 59.789612 69.668509 
L 59.987606 64.238487 
L 60.318418 58.974203 
L 61.265624 48.873679 
L 61.866435 44.064329 
L 62.570341 39.474172 
L 63.392917 35.149294 
L 64.349324 31.133796 
L 65.454664 27.478785 
L 66.723661 24.26307 
L 68.165077 21.550201 
L 69.781566 19.378005 
L 71.570936 17.761788 
L 73.518315 16.679909 
L 75.572338 16.031514 
L 77.67736 15.709646 
L 79.783076 15.621119 
L 83.831503 15.847864 
L 85.767309 16.123747 
L 87.684774 16.54048 
L 89.615877 17.122422 
L 91.590998 17.890918 
L 93.630776 18.855406 
L 97.849629 21.255604 
L 102.135235 24.07702 
L 106.368926 27.124713 
L 112.446085 31.849376 
L 118.130621 36.571939 
L 123.765251 41.4994 
L 131.372292 48.447792 
L 142.115272 58.636884 
L 155.463952 71.639625 
L 177.180725 93.167802 
L 236.135788 152.059847 
L 244.123176 160.047235 
L 244.123176 160.047235 
" clip-path="url(#p2241986b8d)" style="fill: none; stroke: #808080; stroke-width: 1.5; stroke-linecap: round"/>
   </g>
   <g id="patch_3">
    <path d="M 41.96 248.0875 
L 41.96 9.2475 
" style="fill: none; stroke: #000000; stroke-width: 0.8; stroke-linejoin: miter; stroke-linecap: square"/>
   </g>
   <g id="patch_4">
    <path d="M 280.8 248.0875 
L 280.8 9.2475 
" style="fill: none; stroke: #000000; stroke-width: 0.8; stroke-linejoin: miter; stroke-linecap: square"/>
   </g>
   <g id="patch_5">
    <path d="M 41.96 248.0875 
L 280.8 248.0875 
" style="fill: none; stroke: #000000; stroke-width: 0.8; stroke-linejoin: miter; stroke-linecap: square"/>
   </g>
   <g id="patch_6">
    <path d="M 41.96 9.2475 
L 280.8 9.2475 
" style="fill: none; stroke: #000000; stroke-width: 0.8; stroke-linejoin: miter; stroke-linecap: square"/>
   </g>
   <g id="line2d_24">
    <path d="M 241.763785 157.687844 
L 102.440452 104.526683 
" clip-path="url(#p2241986b8d)" style="fill: none; stroke-dasharray: 5.55,2.4; stroke-dashoffset: 0; stroke: #cc0000; stroke-width: 1.5"/>
   </g>
   <g id="line2d_25">
    <path d="M 104.880215 26.197435 
L 102.440452 104.526683 
" clip-path="url(#p2241986b8d)" style="fill: none; stroke-dasharray: 5.55,2.4; stroke-dashoffset: 0; stroke: #00cc00; stroke-width: 1.5"/>
   </g>
   <g id="line2d_26">
    <path d="M 98.202968 222.919414 
L 102.440452 104.526683 
" clip-path="url(#p2241986b8d)" style="fill: none; stroke-dasharray: 5.55,2.4; stroke-dashoffset: 0; stroke: #0000cc; stroke-width: 1.5"/>
   </g>
   <g id="line2d_27">
    <path d="M 60.450839 87.833565 
L 102.440452 104.526683 
" clip-path="url(#p2241986b8d)" style="fill: none; stroke-dasharray: 5.55,2.4; stroke-dashoffset: 0; stroke: #333333; stroke-width: 1.5"/>
   </g>
   <g id="line2d_28">
    <defs>
     <path id="me4b94053bd" d="M 0 2 
C 0.530406 2 1.03916 1.789267 1.414214 1.414214 
C 1.789267 1.03916 2 0.530406 2 0 
C 2 -0.530406 1.789267 -1.03916 1.414214 -1.414214 
C 1.03916 -1.789267 0.530406 -2 0 -2 
C -0.530406 -2 -1.03916 -1.789267 -1.414214 -1.414214 
C -1.789267 -1.03916 -2 -0.530406 -2 0 
C -2 0.530406 -1.789267 1.03916 -1.414214 1.414214 
C -1.03916 1.789267 -0.530406 2 0 2 
z
" style="stroke: #000000; stroke-opacity: 0"/>
    </defs>
    <g clip-path="url(#p2241986b8d)">
     <use xlink:href="#me4b94053bd" x="241.763785" y="157.687844" style="fill: #cc0000; stroke: #000000; stroke-opacity: 0"/>
    </g>
   </g>
   <g id="line2d_29">
    <defs>
     <path id="md80a02763d" d="M 0 2 
C 0.530406 2 1.03916 1.789267 1.414214 1.414214 
C 1.789267 1.03916 2 0.530406 2 0 
C 2 -0.530406 1.789267 -1.03916 1.414214 -1.414214 
C 1.03916 -1.789267 0.530406 -2 0 -2 
C -0.530406 -2 -1.03916 -1.789267 -1.414214 -1.414214 
C -1.789267 -1.03916 -2 -0.530406 -2 0 
C -2 0.530406 -1.789267 1.03916 -1.414214 1.414214 
C -1.03916 1.789267 -0.530406 2 0 2 
z
" style="stroke: #000000; stroke-opacity: 0"/>
    </defs>
    <g clip-path="url(#p2241986b8d)">
     <use xlink:href="#md80a02763d" x="104.880215" y="26.197435" style="fill: #00cc00; stroke: #000000; stroke-opacity: 0"/>
    </g>
   </g>
   <g id="line2d_30">
    <defs>
     <path id="m7a1a5bab13" d="M 0 2 
C 0.530406 2 1.03916 1.789267 1.414214 1.414214 
C 1.789267 1.03916 2 0.530406 2 0 
C 2 -0.530406 1.789267 -1.03916 1.414214 -1.414214 
C 1.03916 -1.789267 0.530406 -2 0 -2 
C -0.530406 -2 -1.03916 -1.789267 -1.414214 -1.414214 
C -1.789267 -1.03916 -2 -0.530406 -2 0 
C -2 0.530406 -1.789267 1.03916 -1.414214 1.414214 
C -1.03916 1.789267 -0.530406 2 0 2 
z
" style="stroke: #000000; stroke-opacity: 0"/>
    </defs>
    <g clip-path="url(#p2241986b8d)">
     <use xlink:href="#m7a1a5bab13" x="98.202968" y="222.919414" style="fill: #0000cc; stroke: #000000; stroke-opacity: 0"/>
    </g>
   </g>
   <g id="line2d_31">
    <defs>
     <path id="m374a4b0455" d="M 0 2 
C 0.530406 2 1.03916 1.789267 1.414214 1.414214 
C 1.789267 1.03916 2 0.530406 2 0 
C 2 -0.530406 1.789267 -1.03916 1.414214 -1.414214 
C 1.03916 -1.789267 0.530406 -2 0 -2 
C -0.530406 -2 -1.03916 -1.789267 -1.414214 -1.414214 
C -1.789267 -1.03916 -2 -0.530406 -2 0 
C -2 0.530406 -1.789267 1.03916 -1.414214 1.414214 
C -1.03916 1.789267 -0.530406 2 0 2 
z
" style="stroke: #000000; stroke-opacity: 0"/>
    </defs>
    <g clip-path="url(#p2241986b8d)">
     <use xlink:href="#m374a4b0455" x="60.450839" y="87.833565" style="fill: #333333; stroke: #000000; stroke-opacity: 0"/>
    </g>
   </g>
   <g id="line2d_32">
    <defs>
     <path id="m7c8fdbe3b0" d="M 0 2 
C 0.530406 2 1.03916 1.789267 1.414214 1.414214 
C 1.789267 1.03916 2 0.530406 2 0 
C 2 -0.530406 1.789267 -1.03916 1.414214 -1.414214 
C 1.03916 -1.789267 0.530406 -2 0 -2 
C -0.530406 -2 -1.03916 -1.789267 -1.414214 -1.414214 
C -1.789267 -1.03916 -2 -0.530406 -2 0 
C -2 0.530406 -1.789267 1.03916 -1.414214 1.414214 
C -1.03916 1.789267 -0.530406 2 0 2 
z
" style="stroke: #333333"/>
    </defs>
    <g clip-path="url(#p2241986b8d)">
     <use xlink:href="#m7c8fdbe3b0" x="102.440452" y="104.526683" style="fill: #ffffff; stroke: #333333"/>
    </g>
   </g>
   <g id="legend_1">
    <g id="patch_7">
     <path d="M 189.4275 85.37125 
L 273.8 85.37125 
Q 275.8 85.37125 275.8 83.37125 
L 275.8 16.2475 
Q 275.8 14.2475 273.8 14.2475 
L 189.4275 14.2475 
Q 187.4275 14.2475 187.4275 16.2475 
L 187.4275 83.37125 
Q 187.4275 85.37125 189.4275 85.37125 
z
" style="fill: #ffffff; opacity: 0.8; stroke: #cccccc; stroke-linejoin: miter"/>
    </g>
    <g id="text_21">
     <!-- Red Primary -->
     <g transform="translate(198.4875 25.2475)scale(0.08 -0.08)">
      <defs>
       <path id="CMUSerif-Roman-52" d="M 225 0 
L 225 197 
L 378 197 
Q 725 197 804 255 
Q 884 313 884 500 
L 884 3872 
Q 884 4056 803 4114 
Q 722 4172 378 4172 
L 225 4172 
L 225 4372 
L 2234 4372 
Q 2931 4372 3417 4030 
Q 3903 3688 3903 3219 
Q 3903 2859 3587 2578 
Q 3272 2297 2784 2175 
Q 3419 1956 3566 1434 
L 3647 922 
Q 3672 738 3689 644 
Q 3706 550 3734 422 
Q 3763 294 3792 233 
Q 3822 172 3865 108 
Q 3909 44 3967 22 
Q 4025 0 4103 0 
Q 4250 0 4375 131 
Q 4500 263 4525 569 
Q 4538 672 4603 672 
Q 4684 672 4684 569 
Q 4684 478 4659 373 
Q 4634 269 4573 147 
Q 4513 25 4381 -58 
Q 4250 -141 4078 -141 
Q 3578 -141 3272 128 
Q 3144 244 3086 394 
Q 3028 544 3018 662 
Q 3009 781 3009 1044 
Q 3009 1416 2970 1578 
Q 2931 1741 2766 1900 
Q 2541 2119 2169 2119 
L 1434 2119 
L 1434 500 
Q 1434 316 1514 256 
Q 1594 197 1941 197 
L 2094 197 
L 2094 0 
Q 1863 19 1159 19 
Q 456 19 225 0 
z
M 1434 2259 
L 2144 2259 
Q 2484 2259 2714 2342 
Q 2944 2425 3053 2575 
Q 3163 2725 3203 2876 
Q 3244 3028 3244 3219 
Q 3244 3444 3194 3612 
Q 3144 3781 3034 3881 
Q 2925 3981 2815 4045 
Q 2706 4109 2537 4134 
Q 2369 4159 2253 4165 
Q 2138 4172 1953 4172 
Q 1641 4172 1575 4159 
Q 1503 4153 1475 4118 
Q 1447 4084 1440 4045 
Q 1434 4006 1434 3916 
L 1434 2259 
z
" transform="scale(0.015625)"/>
       <path id="CMUSerif-Roman-65" d="M 178 1409 
Q 178 2013 565 2441 
Q 953 2869 1509 2869 
Q 2072 2869 2364 2503 
Q 2656 2138 2656 1613 
Q 2656 1516 2631 1497 
Q 2606 1478 2497 1478 
L 709 1478 
Q 709 825 903 519 
Q 1172 91 1625 91 
Q 1688 91 1763 103 
Q 1838 116 1991 170 
Q 2144 225 2278 372 
Q 2413 519 2491 750 
Q 2509 841 2572 838 
Q 2656 838 2656 763 
Q 2656 706 2595 579 
Q 2534 453 2418 303 
Q 2303 153 2079 40 
Q 1856 -72 1588 -72 
Q 1025 -72 601 354 
Q 178 781 178 1409 
z
M 716 1613 
L 2234 1613 
Q 2234 1747 2211 1897 
Q 2188 2047 2120 2255 
Q 2053 2463 1897 2594 
Q 1741 2725 1509 2725 
Q 1406 2725 1295 2681 
Q 1184 2638 1050 2531 
Q 916 2425 822 2184 
Q 728 1944 716 1613 
z
" transform="scale(0.015625)"/>
       <path id="CMUSerif-Roman-64" d="M 219 1375 
Q 219 1984 644 2406 
Q 1069 2828 1644 2828 
Q 2131 2828 2450 2431 
L 2450 3816 
Q 2450 4053 2367 4112 
Q 2284 4172 1953 4172 
L 1953 4372 
L 2875 4441 
L 2875 556 
Q 2875 319 2958 258 
Q 3041 197 3372 197 
L 3372 0 
L 2431 -72 
L 2431 353 
Q 2100 -69 1575 -72 
Q 1025 -72 622 350 
Q 219 772 219 1375 
z
M 750 1369 
Q 750 775 934 481 
Q 1191 72 1606 72 
Q 2081 72 2363 519 
Q 2434 628 2431 756 
L 2431 2069 
Q 2431 2197 2363 2303 
Q 2100 2688 1672 2688 
Q 1225 2688 947 2278 
Q 750 1972 750 1369 
z
" transform="scale(0.015625)"/>
       <path id="CMUSerif-Roman-20" transform="scale(0.015625)"/>
       <path id="CMUSerif-Roman-50" d="M 225 0 
L 225 197 
L 378 197 
Q 725 197 804 255 
Q 884 313 884 500 
L 884 3872 
Q 884 4056 803 4114 
Q 722 4172 378 4172 
L 225 4172 
L 225 4372 
L 2484 4372 
Q 3131 4372 3562 4015 
Q 3994 3659 3994 3181 
Q 3994 2706 3555 2364 
Q 3116 2022 2534 2022 
L 1453 2022 
L 1453 500 
Q 1453 316 1533 256 
Q 1613 197 1959 197 
L 2113 197 
L 2113 0 
Q 1888 19 1166 19 
Q 450 19 225 0 
z
M 1434 2188 
L 2316 2188 
Q 2603 2188 2812 2269 
Q 3022 2350 3117 2448 
Q 3213 2547 3267 2708 
Q 3322 2869 3328 2958 
Q 3334 3047 3334 3181 
Q 3334 3322 3328 3411 
Q 3322 3500 3267 3661 
Q 3213 3822 3117 3920 
Q 3022 4019 2814 4095 
Q 2606 4172 2316 4172 
L 1747 4172 
Q 1528 4172 1481 4128 
Q 1434 4084 1434 3916 
L 1434 2188 
z
" transform="scale(0.015625)"/>
       <path id="CMUSerif-Roman-72" d="M 178 0 
L 178 197 
Q 519 197 598 239 
Q 678 281 678 488 
L 678 2203 
Q 678 2441 595 2500 
Q 513 2559 178 2559 
L 178 2759 
L 1069 2828 
L 1069 2125 
Q 1159 2400 1351 2614 
Q 1544 2828 1856 2828 
Q 2063 2828 2195 2712 
Q 2328 2597 2328 2438 
Q 2328 2297 2242 2226 
Q 2156 2156 2053 2156 
Q 1938 2156 1858 2229 
Q 1778 2303 1778 2431 
Q 1778 2509 1814 2570 
Q 1850 2631 1878 2653 
Q 1906 2675 1925 2681 
Q 1913 2688 1856 2688 
Q 1503 2688 1301 2336 
Q 1100 1984 1100 1484 
L 1100 500 
Q 1100 316 1176 256 
Q 1253 197 1588 197 
L 1722 197 
L 1722 0 
Q 1466 19 909 19 
Q 831 19 709 16 
Q 588 13 428 6 
Q 269 0 178 0 
z
" transform="scale(0.015625)"/>
       <path id="CMUSerif-Roman-69" d="M 213 0 
L 213 197 
Q 553 197 631 239 
Q 709 281 709 488 
L 709 2209 
Q 709 2447 629 2503 
Q 550 2559 238 2559 
L 238 2759 
L 1131 2828 
L 1131 481 
Q 1131 291 1200 244 
Q 1269 197 1581 197 
L 1581 0 
Q 928 19 916 19 
Q 828 19 213 0 
z
M 481 3944 
Q 481 4072 579 4176 
Q 678 4281 818 4281 
Q 959 4281 1059 4186 
Q 1159 4091 1159 3942 
Q 1159 3794 1059 3698 
Q 959 3603 819 3603 
Q 672 3603 576 3706 
Q 481 3809 481 3944 
z
" transform="scale(0.015625)"/>
       <path id="CMUSerif-Roman-6d" d="M 206 0 
L 206 197 
Q 547 197 625 239 
Q 703 281 703 488 
L 703 2203 
Q 703 2441 620 2500 
Q 538 2559 206 2559 
L 206 2759 
L 1106 2828 
L 1106 2156 
Q 1406 2828 2053 2828 
Q 2803 2828 2906 2203 
Q 3016 2447 3245 2637 
Q 3475 2828 3834 2828 
Q 4316 2828 4506 2591 
Q 4647 2431 4675 2253 
Q 4703 2075 4703 1613 
L 4703 391 
Q 4709 256 4812 226 
Q 4916 197 5203 197 
L 5203 0 
Q 4550 19 4488 19 
Q 4438 19 3763 0 
L 3763 197 
Q 4103 197 4183 239 
Q 4263 281 4263 488 
L 4263 1978 
Q 4263 2303 4163 2495 
Q 4063 2688 3788 2688 
Q 3456 2688 3190 2409 
Q 2925 2131 2925 1663 
L 2925 488 
Q 2925 281 3004 239 
Q 3084 197 3425 197 
L 3425 0 
Q 2772 19 2706 19 
Q 2656 19 1984 0 
L 1984 197 
Q 2325 197 2404 239 
Q 2484 281 2484 488 
L 2484 1978 
Q 2484 2303 2384 2495 
Q 2284 2688 2009 2688 
Q 1678 2688 1412 2409 
Q 1147 2131 1147 1663 
L 1147 488 
Q 1147 281 1226 239 
Q 1306 197 1644 197 
L 1644 0 
Q 991 19 928 19 
Q 878 19 206 0 
z
" transform="scale(0.015625)"/>
       <path id="CMUSerif-Roman-61" d="M 269 609 
Q 269 1153 909 1441 
Q 1294 1625 2088 1672 
L 2088 1906 
Q 2088 2303 1880 2514 
Q 1672 2725 1409 2725 
Q 941 2725 716 2431 
Q 906 2425 975 2329 
Q 1044 2234 1044 2138 
Q 1044 2009 964 1926 
Q 884 1844 750 1844 
Q 622 1844 537 1923 
Q 453 2003 453 2144 
Q 453 2456 736 2662 
Q 1019 2869 1422 2869 
Q 1947 2869 2297 2516 
Q 2406 2406 2461 2265 
Q 2516 2125 2522 2033 
Q 2528 1941 2528 1759 
L 2528 481 
Q 2528 444 2540 381 
Q 2553 319 2611 239 
Q 2669 159 2766 159 
Q 2997 159 2994 569 
L 2994 928 
L 3156 928 
L 3156 569 
Q 3156 228 2976 95 
Q 2797 -38 2631 -38 
Q 2419 -38 2284 118 
Q 2150 275 2131 488 
Q 2034 244 1814 86 
Q 1594 -72 1294 -72 
Q 1063 -72 845 -14 
Q 628 44 448 205 
Q 269 366 269 609 
z
M 763 616 
Q 763 378 931 225 
Q 1100 72 1338 72 
Q 1606 72 1847 280 
Q 2088 488 2088 897 
L 2088 1538 
Q 1378 1513 1070 1230 
Q 763 947 763 616 
z
" transform="scale(0.015625)"/>
       <path id="CMUSerif-Roman-79" d="M 122 -794 
Q 122 -659 201 -589 
Q 281 -519 391 -519 
Q 506 -519 582 -592 
Q 659 -666 659 -788 
Q 659 -1025 409 -1056 
Q 531 -1172 709 -1172 
Q 900 -1172 1054 -1031 
Q 1209 -891 1276 -756 
Q 1344 -622 1441 -378 
Q 1531 -188 1600 0 
L 641 2338 
Q 578 2491 481 2525 
Q 384 2559 122 2559 
L 122 2759 
Q 409 2741 744 2741 
Q 941 2741 1441 2759 
L 1441 2559 
Q 1081 2559 1081 2394 
Q 1081 2375 1119 2278 
L 1831 556 
L 2478 2131 
Q 2516 2222 2516 2284 
Q 2516 2547 2216 2559 
L 2216 2759 
Q 2638 2741 2772 2741 
Q 3034 2741 3250 2759 
L 3250 2559 
Q 2822 2559 2656 2150 
L 1528 -581 
Q 1222 -1309 709 -1313 
Q 466 -1313 294 -1163 
Q 122 -1013 122 -794 
z
" transform="scale(0.015625)"/>
      </defs>
      <use xlink:href="#CMUSerif-Roman-52"/>
      <use xlink:href="#CMUSerif-Roman-65" x="73.583984"/>
      <use xlink:href="#CMUSerif-Roman-64" x="117.96875"/>
      <use xlink:href="#CMUSerif-Roman-20" x="173.4375"/>
      <use xlink:href="#CMUSerif-Roman-50" x="206.689453"/>
      <use xlink:href="#CMUSerif-Roman-72" x="274.658203"/>
      <use xlink:href="#CMUSerif-Roman-69" x="313.720703"/>
      <use xlink:href="#CMUSerif-Roman-6d" x="341.40625"/>
      <use xlink:href="#CMUSerif-Roman-61" x="424.658203"/>
      <use xlink:href="#CMUSerif-Roman-72" x="474.658203"/>
      <use xlink:href="#CMUSerif-Roman-79" x="513.720703"/>
     </g>
    </g>
    <g id="line2d_33">
     <g>
      <use xlink:href="#me4b94053bd" x="261.8" y="21.7475" style="fill: #cc0000; stroke: #000000; stroke-opacity: 0"/>
     </g>
    </g>
    <g id="text_22">
     <!-- Green Primary -->
     <g transform="translate(191.4275 38.88875)scale(0.08 -0.08)">
      <defs>
       <path id="CMUSerif-Roman-47" d="M 1017 537 
Q 359 1216 359 2189 
Q 359 3163 1021 3838 
Q 1684 4513 2584 4513 
Q 2809 4513 3001 4461 
Q 3194 4409 3347 4307 
Q 3500 4206 3579 4139 
Q 3659 4072 3769 3963 
L 4091 4434 
Q 4141 4513 4192 4513 
Q 4244 4513 4253 4483 
Q 4263 4453 4263 4359 
L 4263 2841 
Q 4263 2738 4250 2713 
Q 4238 2688 4159 2688 
Q 4097 2688 4084 2706 
Q 4072 2725 4056 2797 
Q 3959 3488 3573 3900 
Q 3188 4313 2663 4313 
Q 2509 4313 2339 4278 
Q 2169 4244 1920 4112 
Q 1672 3981 1483 3767 
Q 1294 3553 1156 3142 
Q 1019 2731 1019 2188 
Q 1019 1650 1156 1237 
Q 1294 825 1486 611 
Q 1678 397 1929 262 
Q 2181 128 2361 92 
Q 2541 56 2700 56 
Q 2809 56 2937 79 
Q 3066 103 3258 173 
Q 3450 244 3572 412 
Q 3694 581 3694 831 
L 3694 1241 
Q 3694 1431 3600 1490 
Q 3506 1550 3097 1550 
L 2894 1550 
L 2894 1747 
Q 3125 1728 3922 1728 
Q 3994 1728 4703 1747 
L 4703 1550 
Q 4397 1550 4330 1504 
Q 4263 1459 4263 1269 
L 4263 153 
Q 4263 6 4206 6 
Q 4156 6 4007 150 
Q 3859 294 3794 403 
Q 3641 134 3308 -3 
Q 2975 -141 2597 -141 
Q 1675 -141 1017 537 
z
" transform="scale(0.015625)"/>
       <path id="CMUSerif-Roman-6e" d="M 206 0 
L 206 197 
Q 547 197 625 239 
Q 703 281 703 488 
L 703 2203 
Q 703 2441 620 2500 
Q 538 2559 206 2559 
L 206 2759 
L 1106 2828 
L 1106 2156 
Q 1406 2828 2053 2828 
Q 2534 2828 2725 2591 
Q 2866 2431 2895 2253 
Q 2925 2075 2925 1613 
L 2925 391 
Q 2931 256 3034 226 
Q 3138 197 3425 197 
L 3425 0 
Q 2772 19 2706 19 
Q 2656 19 1984 0 
L 1984 197 
Q 2325 197 2404 239 
Q 2484 281 2484 488 
L 2484 1978 
Q 2484 2303 2384 2495 
Q 2284 2688 2009 2688 
Q 1678 2688 1412 2409 
Q 1147 2131 1147 1663 
L 1147 488 
Q 1147 281 1226 239 
Q 1306 197 1644 197 
L 1644 0 
Q 991 19 928 19 
Q 878 19 206 0 
z
" transform="scale(0.015625)"/>
      </defs>
      <use xlink:href="#CMUSerif-Roman-47"/>
      <use xlink:href="#CMUSerif-Roman-72" x="78.369141"/>
      <use xlink:href="#CMUSerif-Roman-65" x="117.431641"/>
      <use xlink:href="#CMUSerif-Roman-65" x="161.816406"/>
      <use xlink:href="#CMUSerif-Roman-6e" x="206.201172"/>
      <use xlink:href="#CMUSerif-Roman-20" x="261.669922"/>
      <use xlink:href="#CMUSerif-Roman-50" x="294.921875"/>
      <use xlink:href="#CMUSerif-Roman-72" x="362.890625"/>
      <use xlink:href="#CMUSerif-Roman-69" x="401.953125"/>
      <use xlink:href="#CMUSerif-Roman-6d" x="429.638672"/>
      <use xlink:href="#CMUSerif-Roman-61" x="512.890625"/>
      <use xlink:href="#CMUSerif-Roman-72" x="562.890625"/>
      <use xlink:href="#CMUSerif-Roman-79" x="601.953125"/>
     </g>
    </g>
    <g id="line2d_34">
     <g>
      <use xlink:href="#md80a02763d" x="261.8" y="35.38875" style="fill: #00cc00; stroke: #000000; stroke-opacity: 0"/>
     </g>
    </g>
    <g id="text_23">
     <!-- Blue Primary -->
     <g transform="translate(196.49875 52.53)scale(0.08 -0.08)">
      <defs>
       <path id="CMUSerif-Roman-42" d="M 231 0 
L 231 197 
L 384 197 
Q 731 197 811 255 
Q 891 313 891 500 
L 891 3872 
Q 891 4056 809 4114 
Q 728 4172 384 4172 
L 231 4172 
L 231 4372 
L 2572 4372 
Q 3181 4372 3587 4045 
Q 3994 3719 3994 3291 
Q 3994 2938 3695 2656 
Q 3397 2375 2931 2284 
Q 3463 2228 3814 1908 
Q 4166 1588 4166 1172 
Q 4166 703 3762 351 
Q 3359 0 2741 0 
L 231 0 
z
M 1422 453 
Q 1422 288 1469 242 
Q 1516 197 1734 197 
L 2534 197 
Q 2994 197 3259 498 
Q 3525 800 3525 1178 
Q 3525 1556 3292 1879 
Q 3059 2203 2625 2203 
L 1422 2203 
L 1422 453 
z
M 1422 2344 
L 2350 2344 
Q 2844 2344 3108 2641 
Q 3372 2938 3372 3291 
Q 3372 3603 3161 3887 
Q 2950 4172 2528 4172 
L 1734 4172 
Q 1516 4172 1469 4128 
Q 1422 4084 1422 3916 
L 1422 2344 
z
" transform="scale(0.015625)"/>
       <path id="CMUSerif-Roman-6c" d="M 213 0 
L 213 197 
Q 553 197 631 239 
Q 709 281 709 488 
L 709 3816 
Q 709 4053 626 4112 
Q 544 4172 213 4172 
L 213 4372 
L 1131 4441 
L 1131 488 
Q 1131 281 1212 239 
Q 1294 197 1631 197 
L 1631 0 
Q 1553 0 1390 6 
Q 1228 13 1109 16 
Q 991 19 922 19 
Q 847 19 213 0 
z
" transform="scale(0.015625)"/>
       <path id="CMUSerif-Roman-75" d="M 206 2559 
L 206 2759 
L 1147 2828 
L 1147 703 
Q 1147 550 1159 461 
Q 1172 372 1223 269 
Q 1275 166 1395 119 
Q 1516 72 1709 72 
Q 2056 72 2270 356 
Q 2484 641 2484 1063 
L 2484 2203 
Q 2484 2441 2400 2500 
Q 2316 2559 1984 2559 
L 1984 2759 
L 2925 2828 
L 2925 556 
Q 2925 319 3008 258 
Q 3091 197 3425 197 
L 3425 0 
L 2503 -72 
L 2503 506 
Q 2234 -69 1678 -72 
Q 1397 -72 1205 0 
Q 1013 72 916 161 
Q 819 250 767 422 
Q 716 594 709 700 
Q 703 806 703 1013 
L 703 1972 
Q 703 2406 640 2482 
Q 578 2559 206 2559 
z
" transform="scale(0.015625)"/>
      </defs>
      <use xlink:href="#CMUSerif-Roman-42"/>
      <use xlink:href="#CMUSerif-Roman-6c" x="70.751953"/>
      <use xlink:href="#CMUSerif-Roman-75" x="98.4375"/>
      <use xlink:href="#CMUSerif-Roman-65" x="153.90625"/>
      <use xlink:href="#CMUSerif-Roman-20" x="198.291016"/>
      <use xlink:href="#CMUSerif-Roman-50" x="231.542969"/>
      <use xlink:href="#CMUSerif-Roman-72" x="299.511719"/>
      <use xlink:href="#CMUSerif-Roman-69" x="338.574219"/>
      <use xlink:href="#CMUSerif-Roman-6d" x="366.259766"/>
      <use xlink:href="#CMUSerif-Roman-61" x="449.511719"/>
      <use xlink:href="#CMUSerif-Roman-72" x="499.511719"/>
      <use xlink:href="#CMUSerif-Roman-79" x="538.574219"/>
     </g>
    </g>
    <g id="line2d_35">
     <g>
      <use xlink:href="#m7a1a5bab13" x="261.8" y="49.03" style="fill: #0000cc; stroke: #000000; stroke-opacity: 0"/>
     </g>
    </g>
    <g id="text_24">
     <!-- Test Light -->
     <g transform="translate(206.81125 66.17125)scale(0.08 -0.08)">
      <defs>
       <path id="CMUSerif-Roman-54" d="M 231 2894 
L 353 4331 
L 4263 4331 
L 4384 2894 
L 4225 2894 
Q 4200 3181 4176 3347 
Q 4153 3513 4098 3670 
Q 4044 3828 3976 3904 
Q 3909 3981 3781 4042 
Q 3653 4103 3487 4118 
Q 3322 4134 3072 4134 
Q 2778 4134 2706 4122 
Q 2628 4103 2609 4048 
Q 2591 3994 2591 3878 
L 2591 506 
Q 2591 378 2617 326 
Q 2644 275 2791 236 
Q 2938 197 3263 197 
L 3519 197 
L 3519 0 
Q 3256 19 2303 19 
Q 1356 19 1094 0 
L 1094 197 
L 1350 197 
Q 1675 197 1823 236 
Q 1972 275 1997 326 
Q 2022 378 2022 506 
L 2022 3878 
Q 2022 3969 2015 4006 
Q 2009 4044 1981 4076 
Q 1953 4109 1889 4121 
Q 1825 4134 1544 4134 
Q 1294 4134 1126 4118 
Q 959 4103 831 4042 
Q 703 3981 636 3904 
Q 569 3828 514 3670 
Q 459 3513 437 3347 
Q 416 3181 391 2894 
L 231 2894 
z
" transform="scale(0.015625)"/>
       <path id="CMUSerif-Roman-73" d="M 213 84 
L 213 928 
Q 213 1000 216 1025 
Q 219 1050 237 1069 
Q 256 1088 294 1088 
Q 338 1088 355 1069 
Q 372 1050 384 978 
Q 481 538 689 305 
Q 897 72 1275 72 
Q 1634 72 1815 231 
Q 1997 391 1997 653 
Q 1997 1122 1331 1241 
Q 947 1319 787 1370 
Q 628 1422 488 1538 
Q 213 1763 213 2081 
Q 213 2400 455 2634 
Q 697 2869 1234 2869 
Q 1594 2869 1838 2688 
Q 1909 2744 1947 2791 
Q 2031 2869 2075 2869 
Q 2125 2869 2134 2836 
Q 2144 2803 2144 2713 
L 2144 2069 
Q 2144 1997 2141 1972 
Q 2138 1947 2119 1930 
Q 2100 1913 2059 1913 
Q 1988 1913 1984 1972 
Q 1934 2747 1234 2747 
Q 856 2747 687 2601 
Q 519 2456 519 2259 
Q 519 2150 570 2067 
Q 622 1984 689 1936 
Q 756 1888 881 1842 
Q 1006 1797 1082 1781 
Q 1159 1766 1306 1734 
Q 1819 1638 2034 1428 
Q 2303 1159 2303 819 
Q 2303 441 2047 184 
Q 1791 -72 1275 -72 
Q 859 -72 569 206 
Q 531 169 503 136 
Q 475 103 464 90 
Q 453 78 450 70 
Q 447 63 441 56 
Q 313 -72 281 -72 
Q 231 -72 222 -39 
Q 213 -6 213 84 
z
" transform="scale(0.015625)"/>
       <path id="CMUSerif-Roman-74" d="M 122 2559 
L 122 2700 
Q 416 2713 611 2920 
Q 806 3128 873 3384 
Q 941 3641 947 3938 
L 1106 3938 
L 1106 2759 
L 2022 2759 
L 2022 2559 
L 1106 2559 
L 1106 781 
Q 1106 91 1538 91 
Q 1722 91 1844 280 
Q 1966 469 1966 806 
L 1966 1159 
L 2125 1159 
L 2125 794 
Q 2125 447 1965 187 
Q 1806 -72 1491 -72 
Q 1375 -72 1261 -42 
Q 1147 -13 998 64 
Q 850 141 758 330 
Q 666 519 666 794 
L 666 2559 
L 122 2559 
z
" transform="scale(0.015625)"/>
       <path id="CMUSerif-Roman-4c" d="M 213 0 
L 213 197 
L 366 197 
Q 713 197 792 255 
Q 872 313 872 500 
L 872 3872 
Q 872 4056 790 4114 
Q 709 4172 366 4172 
L 213 4172 
L 213 4372 
Q 438 4353 1184 4353 
Q 2028 4353 2259 4372 
L 2259 4172 
L 2047 4172 
Q 1753 4172 1618 4134 
Q 1484 4097 1462 4045 
Q 1441 3994 1441 3866 
L 1441 453 
Q 1441 288 1489 242 
Q 1538 197 1753 197 
L 2278 197 
Q 2603 197 2837 294 
Q 3072 391 3197 512 
Q 3322 634 3405 864 
Q 3488 1094 3514 1241 
Q 3541 1388 3566 1650 
L 3725 1650 
L 3547 0 
L 213 0 
z
" transform="scale(0.015625)"/>
       <path id="CMUSerif-Roman-67" d="M 178 -506 
Q 178 -300 336 -122 
Q 494 56 769 134 
Q 488 313 488 703 
Q 488 1003 684 1234 
Q 384 1484 384 1894 
Q 384 2272 684 2550 
Q 984 2828 1422 2828 
Q 1806 2828 2100 2597 
Q 2406 2897 2778 2900 
Q 2944 2900 3023 2797 
Q 3103 2694 3103 2584 
Q 3103 2488 3042 2441 
Q 2981 2394 2919 2394 
Q 2841 2394 2786 2445 
Q 2731 2497 2731 2578 
Q 2731 2713 2834 2753 
Q 2816 2759 2772 2759 
Q 2459 2759 2194 2509 
Q 2456 2266 2456 1887 
Q 2456 1509 2156 1231 
Q 1856 953 1422 953 
Q 1063 953 788 1153 
Q 678 1025 678 850 
Q 678 691 775 566 
Q 872 441 1019 422 
Q 1063 416 1497 416 
Q 1753 416 1893 409 
Q 2034 403 2236 361 
Q 2438 319 2597 238 
Q 3013 6 3016 -494 
Q 3016 -859 2595 -1089 
Q 2175 -1319 1594 -1319 
Q 1006 -1319 592 -1086 
Q 178 -853 178 -506 
z
M 513 -506 
Q 513 -769 822 -970 
Q 1131 -1172 1600 -1172 
Q 2059 -1172 2370 -973 
Q 2681 -775 2681 -506 
Q 2681 -316 2572 -194 
Q 2463 -72 2239 -23 
Q 2016 25 1859 34 
Q 1703 44 1416 44 
L 1038 44 
Q 819 31 666 -128 
Q 513 -288 513 -506 
z
M 863 1888 
Q 863 1100 1422 1100 
Q 1703 1100 1875 1356 
Q 1978 1528 1978 1894 
Q 1978 2681 1422 2681 
Q 1141 2681 966 2425 
Q 863 2253 863 1888 
z
" transform="scale(0.015625)"/>
       <path id="CMUSerif-Roman-68" d="M 206 0 
L 206 197 
Q 547 197 625 239 
Q 703 281 703 488 
L 703 3816 
Q 703 4053 620 4112 
Q 538 4172 206 4172 
L 206 4372 
L 1125 4441 
L 1125 2216 
L 1131 2216 
Q 1234 2447 1465 2637 
Q 1697 2828 2053 2828 
Q 2534 2828 2725 2591 
Q 2866 2431 2895 2253 
Q 2925 2075 2925 1613 
L 2925 391 
Q 2931 256 3034 226 
Q 3138 197 3425 197 
L 3425 0 
Q 2772 19 2706 19 
Q 2656 19 1984 0 
L 1984 197 
Q 2325 197 2404 239 
Q 2484 281 2484 488 
L 2484 1978 
Q 2484 2303 2384 2495 
Q 2284 2688 2009 2688 
Q 1678 2688 1412 2409 
Q 1147 2131 1147 1663 
L 1147 488 
Q 1147 281 1226 239 
Q 1306 197 1644 197 
L 1644 0 
Q 991 19 928 19 
Q 878 19 206 0 
z
" transform="scale(0.015625)"/>
      </defs>
      <use xlink:href="#CMUSerif-Roman-54"/>
      <use xlink:href="#CMUSerif-Roman-65" x="72.167969"/>
      <use xlink:href="#CMUSerif-Roman-73" x="116.552734"/>
      <use xlink:href="#CMUSerif-Roman-74" x="155.908203"/>
      <use xlink:href="#CMUSerif-Roman-20" x="194.677734"/>
      <use xlink:href="#CMUSerif-Roman-4c" x="227.929688"/>
      <use xlink:href="#CMUSerif-Roman-69" x="290.429688"/>
      <use xlink:href="#CMUSerif-Roman-67" x="318.115234"/>
      <use xlink:href="#CMUSerif-Roman-68" x="368.115234"/>
      <use xlink:href="#CMUSerif-Roman-74" x="423.583984"/>
     </g>
    </g>
    <g id="line2d_36">
     <g>
      <use xlink:href="#m374a4b0455" x="261.8" y="62.67125" style="fill: #333333; stroke: #000000; stroke-opacity: 0"/>
     </g>
    </g>
    <g id="text_25">
     <!-- Match -->
     <g transform="translate(221.38625 79.82)scale(0.08 -0.08)">
      <defs>
       <path id="CMUSerif-Roman-4d" d="M 238 0 
L 238 197 
Q 469 197 616 242 
Q 763 288 817 373 
Q 872 459 884 517 
Q 897 575 897 672 
L 897 3872 
Q 897 4056 817 4114 
Q 738 4172 391 4172 
L 238 4172 
L 238 4372 
L 1319 4372 
Q 1434 4372 1465 4351 
Q 1497 4331 1544 4231 
L 2931 647 
L 4331 4250 
Q 4363 4341 4392 4356 
Q 4422 4372 4544 4372 
L 5625 4372 
L 5625 4172 
L 5472 4172 
Q 5125 4172 5045 4114 
Q 4966 4056 4966 3872 
L 4966 500 
Q 4966 316 5045 256 
Q 5125 197 5472 197 
L 5625 197 
L 5625 0 
Q 5388 19 4709 19 
Q 4025 19 3788 0 
L 3788 197 
L 3944 197 
Q 4291 197 4369 255 
Q 4447 313 4447 500 
L 4447 4172 
L 4441 4172 
L 2869 122 
Q 2825 0 2753 0 
Q 2675 0 2625 141 
L 1081 4122 
L 1075 4122 
L 1075 672 
Q 1075 575 1087 517 
Q 1100 459 1154 373 
Q 1209 288 1356 242 
Q 1503 197 1734 197 
L 1734 0 
Q 1063 19 986 19 
Q 909 19 238 0 
z
" transform="scale(0.015625)"/>
       <path id="CMUSerif-Roman-63" d="M 625 351 
Q 219 775 219 1383 
Q 219 1991 619 2430 
Q 1019 2869 1606 2869 
Q 1997 2869 2290 2683 
Q 2584 2497 2584 2181 
Q 2584 2041 2501 1961 
Q 2419 1881 2291 1881 
Q 2156 1881 2076 1964 
Q 1997 2047 1997 2175 
Q 1997 2231 2015 2287 
Q 2034 2344 2104 2403 
Q 2175 2463 2297 2472 
Q 2069 2706 1625 2706 
Q 1619 2706 1613 2706 
Q 1288 2706 1019 2400 
Q 750 2094 750 1394 
Q 750 1028 839 761 
Q 928 494 1075 356 
Q 1222 219 1365 155 
Q 1509 91 1650 91 
Q 2278 91 2491 763 
Q 2509 825 2572 825 
Q 2656 825 2656 763 
Q 2656 731 2631 650 
Q 2606 569 2528 441 
Q 2450 313 2339 202 
Q 2228 91 2033 9 
Q 1838 -72 1594 -72 
Q 1031 -72 625 351 
z
" transform="scale(0.015625)"/>
      </defs>
      <use xlink:href="#CMUSerif-Roman-4d"/>
      <use xlink:href="#CMUSerif-Roman-61" x="91.552734"/>
      <use xlink:href="#CMUSerif-Roman-74" x="141.552734"/>
      <use xlink:href="#CMUSerif-Roman-63" x="180.322266"/>
      <use xlink:href="#CMUSerif-Roman-68" x="224.707031"/>
     </g>
    </g>
    <g id="line2d_37">
     <g>
      <use xlink:href="#m7c8fdbe3b0" x="261.8" y="76.32" style="fill: #ffffff; stroke: #333333"/>
     </g>
    </g>
   </g>
  </g>
 </g>
 <defs>
  <clipPath id="p2241986b8d">
   <rect x="41.96" y="9.2475" width="238.84" height="238.84"/>
  </clipPath>
 </defs>
</svg>
