<?xml version="1.0" encoding="utf-8" standalone="no"?>
<!DOCTYPE svg PUBLIC "-//W3C//DTD SVG 1.1//EN"
  "http://www.w3.org/Graphics/SVG/1.1/DTD/svg11.dtd">
<svg xmlns:xlink="http://www.w3.org/1999/xlink" width="576pt" height="288pt" viewBox="0 0 576 288" xmlns="http://www.w3.org/2000/svg" version="1.1">
 <metadata>
  <rdf:RDF xmlns:dc="http://purl.org/dc/elements/1.1/" xmlns:cc="http://creativecommons.org/ns#" xmlns:rdf="http://www.w3.org/1999/02/22-rdf-syntax-ns#">
   <cc:Work>
    <dc:type rdf:resource="http://purl.org/dc/dcmitype/StillImage"/>
    <dc:date>2022-07-06T09:51:42.638677</dc:date>
    <dc:format>image/svg+xml</dc:format>
    <dc:creator>
     <cc:Agent>
      <dc:title>Matplotlib v3.5.2, https://matplotlib.org/</dc:title>
     </cc:Agent>
    </dc:creator>
   </cc:Work>
  </rdf:RDF>
 </metadata>
 <defs>
  <style type="text/css">*{stroke-linejoin: round; stroke-linecap: butt}</style>
 </defs>
 <g id="figure_1">
  <g id="patch_1">
   <path d="M 0 288 
L 576 288 
L 576 0 
L 0 0 
z
"/>
  </g>
  <g id="axes_1">
   <g id="patch_2">
    <path d="M 57.4 72.475 
L 568.8 72.475 
L 568.8 7.2 
L 57.4 7.2 
L 57.4 72.475 
z
" style="fill: none"/>
   </g>
   <g id="PathCollection_1">
    <path d="M 57.4 39.8375 
L 57.4 7.2 
L 65.390625 7.2 
L 65.390625 39.8375 
L 57.4 39.8375 
" clip-path="url(#p59dcebf34a)" style="fill: #2900ff"/>
    <path d="M 65.390625 39.8375 
L 65.390625 7.2 
L 73.38125 7.2 
L 73.38125 39.8375 
L 65.390625 39.8375 
" clip-path="url(#p59dcebf34a)" style="fill: #2200ff"/>
    <path d="M 73.38125 39.8375 
L 73.38125 7.2 
L 81.371875 7.2 
L 81.371875 39.8375 
L 73.38125 39.8375 
" clip-path="url(#p59dcebf34a)" style="fill: #1b00ff"/>
    <path d="M 81.371875 39.8375 
L 81.371875 7.2 
L 89.3625 7.2 
L 89.3625 39.8375 
L 81.371875 39.8375 
" clip-path="url(#p59dcebf34a)" style="fill: #1200ff"/>
    <path d="M 89.3625 39.8375 
L 89.3625 7.2 
L 97.353125 7.2 
L 97.353125 39.8375 
L 89.3625 39.8375 
" clip-path="url(#p59dcebf34a)" style="fill: #0700ff"/>
    <path d="M 97.353125 39.8375 
L 97.353125 7.2 
L 105.34375 7.2 
L 105.34375 39.8375 
L 97.353125 39.8375 
" clip-path="url(#p59dcebf34a)" style="fill: #0006ff"/>
    <path d="M 105.34375 39.8375 
L 105.34375 7.2 
L 113.334375 7.2 
L 113.334375 39.8375 
L 105.34375 39.8375 
" clip-path="url(#p59dcebf34a)" style="fill: #0017ff"/>
    <path d="M 113.334375 39.8375 
L 113.334375 7.2 
L 121.325 7.2 
L 121.325 39.8375 
L 113.334375 39.8375 
" clip-path="url(#p59dcebf34a)" style="fill: #002cff"/>
    <path d="M 121.325 39.8375 
L 121.325 7.2 
L 129.315625 7.2 
L 129.315625 39.8375 
L 121.325 39.8375 
" clip-path="url(#p59dcebf34a)" style="fill: #0043ff"/>
    <path d="M 129.315625 39.8375 
L 129.315625 7.2 
L 137.30625 7.2 
L 137.30625 39.8375 
L 129.315625 39.8375 
" clip-path="url(#p59dcebf34a)" style="fill: #005fff"/>
    <path d="M 137.30625 39.8375 
L 137.30625 7.2 
L 145.296875 7.2 
L 145.296875 39.8375 
L 137.30625 39.8375 
" clip-path="url(#p59dcebf34a)" style="fill: #007fff"/>
    <path d="M 145.296875 39.8375 
L 145.296875 7.2 
L 153.2875 7.2 
L 153.2875 39.8375 
L 145.296875 39.8375 
" clip-path="url(#p59dcebf34a)" style="fill: #00a3ff"/>
    <path d="M 153.2875 39.8375 
L 153.2875 7.2 
L 161.278125 7.2 
L 161.278125 39.8375 
L 153.2875 39.8375 
" clip-path="url(#p59dcebf34a)" style="fill: #00c9ff"/>
    <path d="M 161.278125 39.8375 
L 161.278125 7.2 
L 169.26875 7.2 
L 169.26875 39.8375 
L 161.278125 39.8375 
" clip-path="url(#p59dcebf34a)" style="fill: #00f3ff"/>
    <path d="M 169.26875 39.8375 
L 169.26875 7.2 
L 177.259375 7.2 
L 177.259375 39.8375 
L 169.26875 39.8375 
" clip-path="url(#p59dcebf34a)" style="fill: #00ffe3"/>
    <path d="M 177.259375 39.8375 
L 177.259375 7.2 
L 185.25 7.2 
L 185.25 39.8375 
L 177.259375 39.8375 
" clip-path="url(#p59dcebf34a)" style="fill: #00ffc5"/>
    <path d="M 185.25 39.8375 
L 185.25 7.2 
L 193.240625 7.2 
L 193.240625 39.8375 
L 185.25 39.8375 
" clip-path="url(#p59dcebf34a)" style="fill: #00ffae"/>
    <path d="M 193.240625 39.8375 
L 193.240625 7.2 
L 201.23125 7.2 
L 201.23125 39.8375 
L 193.240625 39.8375 
" clip-path="url(#p59dcebf34a)" style="fill: #00ff9c"/>
    <path d="M 201.23125 39.8375 
L 201.23125 7.2 
L 209.221875 7.2 
L 209.221875 39.8375 
L 201.23125 39.8375 
" clip-path="url(#p59dcebf34a)" style="fill: #00ff8e"/>
    <path d="M 209.221875 39.8375 
L 209.221875 7.2 
L 217.2125 7.2 
L 217.2125 39.8375 
L 209.221875 39.8375 
" clip-path="url(#p59dcebf34a)" style="fill: #00ff82"/>
    <path d="M 217.2125 39.8375 
L 217.2125 7.2 
L 225.203125 7.2 
L 225.203125 39.8375 
L 217.2125 39.8375 
" clip-path="url(#p59dcebf34a)" style="fill: #00ff78"/>
    <path d="M 225.203125 39.8375 
L 225.203125 7.2 
L 233.19375 7.2 
L 233.19375 39.8375 
L 225.203125 39.8375 
" clip-path="url(#p59dcebf34a)" style="fill: #00ff6f"/>
    <path d="M 233.19375 39.8375 
L 233.19375 7.2 
L 241.184375 7.2 
L 241.184375 39.8375 
L 233.19375 39.8375 
" clip-path="url(#p59dcebf34a)" style="fill: #00ff67"/>
    <path d="M 241.184375 39.8375 
L 241.184375 7.2 
L 249.175 7.2 
L 249.175 39.8375 
L 241.184375 39.8375 
" clip-path="url(#p59dcebf34a)" style="fill: #00ff60"/>
    <path d="M 249.175 39.8375 
L 249.175 7.2 
L 257.165625 7.2 
L 257.165625 39.8375 
L 249.175 39.8375 
" clip-path="url(#p59dcebf34a)" style="fill: #00ff59"/>
    <path d="M 257.165625 39.8375 
L 257.165625 7.2 
L 265.15625 7.2 
L 265.15625 39.8375 
L 257.165625 39.8375 
" clip-path="url(#p59dcebf34a)" style="fill: #00ff52"/>
    <path d="M 265.15625 39.8375 
L 265.15625 7.2 
L 273.146875 7.2 
L 273.146875 39.8375 
L 265.15625 39.8375 
" clip-path="url(#p59dcebf34a)" style="fill: #00ff4a"/>
    <path d="M 273.146875 39.8375 
L 273.146875 7.2 
L 281.1375 7.2 
L 281.1375 39.8375 
L 273.146875 39.8375 
" clip-path="url(#p59dcebf34a)" style="fill: #00ff42"/>
    <path d="M 281.1375 39.8375 
L 281.1375 7.2 
L 289.128125 7.2 
L 289.128125 39.8375 
L 281.1375 39.8375 
" clip-path="url(#p59dcebf34a)" style="fill: #00ff38"/>
    <path d="M 289.128125 39.8375 
L 289.128125 7.2 
L 297.11875 7.2 
L 297.11875 39.8375 
L 289.128125 39.8375 
" clip-path="url(#p59dcebf34a)" style="fill: #00ff2d"/>
    <path d="M 297.11875 39.8375 
L 297.11875 7.2 
L 305.109375 7.2 
L 305.109375 39.8375 
L 297.11875 39.8375 
" clip-path="url(#p59dcebf34a)" style="fill: #00ff1f"/>
    <path d="M 305.109375 39.8375 
L 305.109375 7.2 
L 313.1 7.2 
L 313.1 39.8375 
L 305.109375 39.8375 
" clip-path="url(#p59dcebf34a)" style="fill: #00ff0f"/>
    <path d="M 313.1 39.8375 
L 313.1 7.2 
L 321.090625 7.2 
L 321.090625 39.8375 
L 313.1 39.8375 
" clip-path="url(#p59dcebf34a)" style="fill: #06ff00"/>
    <path d="M 321.090625 39.8375 
L 321.090625 7.2 
L 329.08125 7.2 
L 329.08125 39.8375 
L 321.090625 39.8375 
" clip-path="url(#p59dcebf34a)" style="fill: #1fff00"/>
    <path d="M 329.08125 39.8375 
L 329.08125 7.2 
L 337.071875 7.2 
L 337.071875 39.8375 
L 329.08125 39.8375 
" clip-path="url(#p59dcebf34a)" style="fill: #3bff00"/>
    <path d="M 337.071875 39.8375 
L 337.071875 7.2 
L 345.0625 7.2 
L 345.0625 39.8375 
L 337.071875 39.8375 
" clip-path="url(#p59dcebf34a)" style="fill: #5bff00"/>
    <path d="M 345.0625 39.8375 
L 345.0625 7.2 
L 353.053125 7.2 
L 353.053125 39.8375 
L 345.0625 39.8375 
" clip-path="url(#p59dcebf34a)" style="fill: #80ff00"/>
    <path d="M 353.053125 39.8375 
L 353.053125 7.2 
L 361.04375 7.2 
L 361.04375 39.8375 
L 353.053125 39.8375 
" clip-path="url(#p59dcebf34a)" style="fill: #acff00"/>
    <path d="M 361.04375 39.8375 
L 361.04375 7.2 
L 369.034375 7.2 
L 369.034375 39.8375 
L 361.04375 39.8375 
" clip-path="url(#p59dcebf34a)" style="fill: #dfff00"/>
    <path d="M 369.034375 39.8375 
L 369.034375 7.2 
L 377.025 7.2 
L 377.025 39.8375 
L 369.034375 39.8375 
" clip-path="url(#p59dcebf34a)" style="fill: #ffe500"/>
    <path d="M 377.025 39.8375 
L 377.025 7.2 
L 385.015625 7.2 
L 385.015625 39.8375 
L 377.025 39.8375 
" clip-path="url(#p59dcebf34a)" style="fill: #ffb500"/>
    <path d="M 385.015625 39.8375 
L 385.015625 7.2 
L 393.00625 7.2 
L 393.00625 39.8375 
L 385.015625 39.8375 
" clip-path="url(#p59dcebf34a)" style="fill: #ff9100"/>
    <path d="M 393.00625 39.8375 
L 393.00625 7.2 
L 400.996875 7.2 
L 400.996875 39.8375 
L 393.00625 39.8375 
" clip-path="url(#p59dcebf34a)" style="fill: #ff7300"/>
    <path d="M 400.996875 39.8375 
L 400.996875 7.2 
L 408.9875 7.2 
L 408.9875 39.8375 
L 400.996875 39.8375 
" clip-path="url(#p59dcebf34a)" style="fill: #ff5b00"/>
    <path d="M 408.9875 39.8375 
L 408.9875 7.2 
L 416.978125 7.2 
L 416.978125 39.8375 
L 408.9875 39.8375 
" clip-path="url(#p59dcebf34a)" style="fill: #ff4800"/>
    <path d="M 416.978125 39.8375 
L 416.978125 7.2 
L 424.96875 7.2 
L 424.96875 39.8375 
L 416.978125 39.8375 
" clip-path="url(#p59dcebf34a)" style="fill: #ff3800"/>
    <path d="M 424.96875 39.8375 
L 424.96875 7.2 
L 432.959375 7.2 
L 432.959375 39.8375 
L 424.96875 39.8375 
" clip-path="url(#p59dcebf34a)" style="fill: #ff2a00"/>
    <path d="M 432.959375 39.8375 
L 432.959375 7.2 
L 440.95 7.2 
L 440.95 39.8375 
L 432.959375 39.8375 
" clip-path="url(#p59dcebf34a)" style="fill: #ff1f00"/>
    <path d="M 440.95 39.8375 
L 440.95 7.2 
L 448.940625 7.2 
L 448.940625 39.8375 
L 440.95 39.8375 
" clip-path="url(#p59dcebf34a)" style="fill: #ff1600"/>
    <path d="M 448.940625 39.8375 
L 448.940625 7.2 
L 456.93125 7.2 
L 456.93125 39.8375 
L 448.940625 39.8375 
" clip-path="url(#p59dcebf34a)" style="fill: #ff0f00"/>
    <path d="M 456.93125 39.8375 
L 456.93125 7.2 
L 464.921875 7.2 
L 464.921875 39.8375 
L 456.93125 39.8375 
" clip-path="url(#p59dcebf34a)" style="fill: #ff0800"/>
    <path d="M 464.921875 39.8375 
L 464.921875 7.2 
L 472.9125 7.2 
L 472.9125 39.8375 
L 464.921875 39.8375 
" clip-path="url(#p59dcebf34a)" style="fill: #ff0300"/>
    <path d="M 472.9125 39.8375 
L 472.9125 7.2 
L 480.903125 7.2 
L 480.903125 39.8375 
L 472.9125 39.8375 
" clip-path="url(#p59dcebf34a)" style="fill: #ff0002"/>
    <path d="M 480.903125 39.8375 
L 480.903125 7.2 
L 488.89375 7.2 
L 488.89375 39.8375 
L 480.903125 39.8375 
" clip-path="url(#p59dcebf34a)" style="fill: #ff0005"/>
    <path d="M 488.89375 39.8375 
L 488.89375 7.2 
L 496.884375 7.2 
L 496.884375 39.8375 
L 488.89375 39.8375 
" clip-path="url(#p59dcebf34a)" style="fill: #ff0008"/>
    <path d="M 496.884375 39.8375 
L 496.884375 7.2 
L 504.875 7.2 
L 504.875 39.8375 
L 496.884375 39.8375 
" clip-path="url(#p59dcebf34a)" style="fill: #ff000b"/>
    <path d="M 504.875 39.8375 
L 504.875 7.2 
L 512.865625 7.2 
L 512.865625 39.8375 
L 504.875 39.8375 
" clip-path="url(#p59dcebf34a)" style="fill: #ff000d"/>
    <path d="M 512.865625 39.8375 
L 512.865625 7.2 
L 520.85625 7.2 
L 520.85625 39.8375 
L 512.865625 39.8375 
" clip-path="url(#p59dcebf34a)" style="fill: #ff000e"/>
    <path d="M 520.85625 39.8375 
L 520.85625 7.2 
L 528.846875 7.2 
L 528.846875 39.8375 
L 520.85625 39.8375 
" clip-path="url(#p59dcebf34a)" style="fill: #ff0010"/>
    <path d="M 528.846875 39.8375 
L 528.846875 7.2 
L 536.8375 7.2 
L 536.8375 39.8375 
L 528.846875 39.8375 
" clip-path="url(#p59dcebf34a)" style="fill: #ff0011"/>
    <path d="M 536.8375 39.8375 
L 536.8375 7.2 
L 544.828125 7.2 
L 544.828125 39.8375 
L 536.8375 39.8375 
" clip-path="url(#p59dcebf34a)" style="fill: #ff0012"/>
    <path d="M 544.828125 39.8375 
L 544.828125 7.2 
L 552.81875 7.2 
L 552.81875 39.8375 
L 544.828125 39.8375 
" clip-path="url(#p59dcebf34a)" style="fill: #ff0013"/>
    <path d="M 552.81875 39.8375 
L 552.81875 7.2 
L 560.809375 7.2 
L 560.809375 39.8375 
L 552.81875 39.8375 
" clip-path="url(#p59dcebf34a)" style="fill: #ff0014"/>
    <path d="M 560.809375 39.8375 
L 560.809375 7.2 
L 568.8 7.2 
L 568.8 39.8375 
L 560.809375 39.8375 
" clip-path="url(#p59dcebf34a)" style="fill: #ff0014"/>
   </g>
   <g id="PathCollection_2">
    <path d="M 57.4 72.475 
L 57.4 39.8375 
L 65.390625 39.8375 
L 65.390625 72.475 
L 57.4 72.475 
" clip-path="url(#p59dcebf34a)" style="fill: #0f0a2c"/>
    <path d="M 65.390625 72.475 
L 65.390625 39.8375 
L 73.38125 39.8375 
L 73.38125 72.475 
L 65.390625 72.475 
" clip-path="url(#p59dcebf34a)" style="fill: #0f0b2a"/>
    <path d="M 73.38125 72.475 
L 73.38125 39.8375 
L 81.371875 39.8375 
L 81.371875 72.475 
L 73.38125 72.475 
" clip-path="url(#p59dcebf34a)" style="fill: #0f0c2a"/>
    <path d="M 81.371875 72.475 
L 81.371875 39.8375 
L 89.3625 39.8375 
L 89.3625 72.475 
L 81.371875 72.475 
" clip-path="url(#p59dcebf34a)" style="fill: #0f0d29"/>
    <path d="M 89.3625 72.475 
L 89.3625 39.8375 
L 97.353125 39.8375 
L 97.353125 72.475 
L 89.3625 72.475 
" clip-path="url(#p59dcebf34a)" style="fill: #0e0e29"/>
    <path d="M 97.353125 72.475 
L 97.353125 39.8375 
L 105.34375 39.8375 
L 105.34375 72.475 
L 97.353125 72.475 
" clip-path="url(#p59dcebf34a)" style="fill: #0e0f29"/>
    <path d="M 105.34375 72.475 
L 105.34375 39.8375 
L 113.334375 39.8375 
L 113.334375 72.475 
L 105.34375 72.475 
" clip-path="url(#p59dcebf34a)" style="fill: #0e1129"/>
    <path d="M 113.334375 72.475 
L 113.334375 39.8375 
L 121.325 39.8375 
L 121.325 72.475 
L 113.334375 72.475 
" clip-path="url(#p59dcebf34a)" style="fill: #0e132a"/>
    <path d="M 121.325 72.475 
L 121.325 39.8375 
L 129.315625 39.8375 
L 129.315625 72.475 
L 121.325 72.475 
" clip-path="url(#p59dcebf34a)" style="fill: #0e162b"/>
    <path d="M 129.315625 72.475 
L 129.315625 39.8375 
L 137.30625 39.8375 
L 137.30625 72.475 
L 129.315625 72.475 
" clip-path="url(#p59dcebf34a)" style="fill: #0d192d"/>
    <path d="M 137.30625 72.475 
L 137.30625 39.8375 
L 145.296875 39.8375 
L 145.296875 72.475 
L 137.30625 72.475 
" clip-path="url(#p59dcebf34a)" style="fill: #0c1d2f"/>
    <path d="M 145.296875 72.475 
L 145.296875 39.8375 
L 153.2875 39.8375 
L 153.2875 72.475 
L 145.296875 72.475 
" clip-path="url(#p59dcebf34a)" style="fill: #092231"/>
    <path d="M 153.2875 72.475 
L 153.2875 39.8375 
L 161.278125 39.8375 
L 161.278125 72.475 
L 153.2875 72.475 
" clip-path="url(#p59dcebf34a)" style="fill: #062932"/>
    <path d="M 161.278125 72.475 
L 161.278125 39.8375 
L 169.26875 39.8375 
L 169.26875 72.475 
L 161.278125 72.475 
" clip-path="url(#p59dcebf34a)" style="fill: #043032"/>
    <path d="M 169.26875 72.475 
L 169.26875 39.8375 
L 177.259375 39.8375 
L 177.259375 72.475 
L 169.26875 72.475 
" clip-path="url(#p59dcebf34a)" style="fill: #023832"/>
    <path d="M 177.259375 72.475 
L 177.259375 39.8375 
L 185.25 39.8375 
L 185.25 72.475 
L 177.259375 72.475 
" clip-path="url(#p59dcebf34a)" style="fill: #034132"/>
    <path d="M 185.25 72.475 
L 185.25 39.8375 
L 193.240625 39.8375 
L 193.240625 72.475 
L 185.25 72.475 
" clip-path="url(#p59dcebf34a)" style="fill: #054934"/>
    <path d="M 193.240625 72.475 
L 193.240625 39.8375 
L 201.23125 39.8375 
L 201.23125 72.475 
L 193.240625 72.475 
" clip-path="url(#p59dcebf34a)" style="fill: #075336"/>
    <path d="M 201.23125 72.475 
L 201.23125 39.8375 
L 209.221875 39.8375 
L 209.221875 72.475 
L 201.23125 72.475 
" clip-path="url(#p59dcebf34a)" style="fill: #095e39"/>
    <path d="M 209.221875 72.475 
L 209.221875 39.8375 
L 217.2125 39.8375 
L 217.2125 72.475 
L 209.221875 72.475 
" clip-path="url(#p59dcebf34a)" style="fill: #0b6a3c"/>
    <path d="M 217.2125 72.475 
L 217.2125 39.8375 
L 225.203125 39.8375 
L 225.203125 72.475 
L 217.2125 72.475 
" clip-path="url(#p59dcebf34a)" style="fill: #0c773e"/>
    <path d="M 225.203125 72.475 
L 225.203125 39.8375 
L 233.19375 39.8375 
L 233.19375 72.475 
L 225.203125 72.475 
" clip-path="url(#p59dcebf34a)" style="fill: #0d8441"/>
    <path d="M 233.19375 72.475 
L 233.19375 39.8375 
L 241.184375 39.8375 
L 241.184375 72.475 
L 233.19375 72.475 
" clip-path="url(#p59dcebf34a)" style="fill: #0d9243"/>
    <path d="M 241.184375 72.475 
L 241.184375 39.8375 
L 249.175 39.8375 
L 249.175 72.475 
L 241.184375 72.475 
" clip-path="url(#p59dcebf34a)" style="fill: #0ca144"/>
    <path d="M 249.175 72.475 
L 249.175 39.8375 
L 257.165625 39.8375 
L 257.165625 72.475 
L 249.175 72.475 
" clip-path="url(#p59dcebf34a)" style="fill: #0caf45"/>
    <path d="M 257.165625 72.475 
L 257.165625 39.8375 
L 265.15625 39.8375 
L 265.15625 72.475 
L 257.165625 72.475 
" clip-path="url(#p59dcebf34a)" style="fill: #0cbd45"/>
    <path d="M 265.15625 72.475 
L 265.15625 39.8375 
L 273.146875 39.8375 
L 273.146875 72.475 
L 265.15625 72.475 
" clip-path="url(#p59dcebf34a)" style="fill: #0cca43"/>
    <path d="M 273.146875 72.475 
L 273.146875 39.8375 
L 281.1375 39.8375 
L 281.1375 72.475 
L 273.146875 72.475 
" clip-path="url(#p59dcebf34a)" style="fill: #0ed541"/>
    <path d="M 281.1375 72.475 
L 281.1375 39.8375 
L 289.128125 39.8375 
L 289.128125 72.475 
L 281.1375 72.475 
" clip-path="url(#p59dcebf34a)" style="fill: #10df3e"/>
    <path d="M 289.128125 72.475 
L 289.128125 39.8375 
L 297.11875 39.8375 
L 297.11875 72.475 
L 289.128125 72.475 
" clip-path="url(#p59dcebf34a)" style="fill: #15e73a"/>
    <path d="M 297.11875 72.475 
L 297.11875 39.8375 
L 305.109375 39.8375 
L 305.109375 72.475 
L 297.11875 72.475 
" clip-path="url(#p59dcebf34a)" style="fill: #1bec35"/>
    <path d="M 305.109375 72.475 
L 305.109375 39.8375 
L 313.1 39.8375 
L 313.1 72.475 
L 305.109375 72.475 
" clip-path="url(#p59dcebf34a)" style="fill: #23ef2f"/>
    <path d="M 313.1 72.475 
L 313.1 39.8375 
L 321.090625 39.8375 
L 321.090625 72.475 
L 313.1 72.475 
" clip-path="url(#p59dcebf34a)" style="fill: #2eef29"/>
    <path d="M 321.090625 72.475 
L 321.090625 39.8375 
L 329.08125 39.8375 
L 329.08125 72.475 
L 321.090625 72.475 
" clip-path="url(#p59dcebf34a)" style="fill: #3beb22"/>
    <path d="M 329.08125 72.475 
L 329.08125 39.8375 
L 337.071875 39.8375 
L 337.071875 72.475 
L 329.08125 72.475 
" clip-path="url(#p59dcebf34a)" style="fill: #4ae51c"/>
    <path d="M 337.071875 72.475 
L 337.071875 39.8375 
L 345.0625 39.8375 
L 345.0625 72.475 
L 337.071875 72.475 
" clip-path="url(#p59dcebf34a)" style="fill: #5cdc15"/>
    <path d="M 345.0625 72.475 
L 345.0625 39.8375 
L 353.053125 39.8375 
L 353.053125 72.475 
L 345.0625 72.475 
" clip-path="url(#p59dcebf34a)" style="fill: #70cf0f"/>
    <path d="M 353.053125 72.475 
L 353.053125 39.8375 
L 361.04375 39.8375 
L 361.04375 72.475 
L 353.053125 72.475 
" clip-path="url(#p59dcebf34a)" style="fill: #85c10a"/>
    <path d="M 361.04375 72.475 
L 361.04375 39.8375 
L 369.034375 39.8375 
L 369.034375 72.475 
L 361.04375 72.475 
" clip-path="url(#p59dcebf34a)" style="fill: #9bb006"/>
    <path d="M 369.034375 72.475 
L 369.034375 39.8375 
L 377.025 39.8375 
L 377.025 72.475 
L 369.034375 72.475 
" clip-path="url(#p59dcebf34a)" style="fill: #b09e03"/>
    <path d="M 377.025 72.475 
L 377.025 39.8375 
L 385.015625 39.8375 
L 385.015625 72.475 
L 377.025 72.475 
" clip-path="url(#p59dcebf34a)" style="fill: #c38b02"/>
    <path d="M 385.015625 72.475 
L 385.015625 39.8375 
L 393.00625 39.8375 
L 393.00625 72.475 
L 385.015625 72.475 
" clip-path="url(#p59dcebf34a)" style="fill: #d37903"/>
    <path d="M 393.00625 72.475 
L 393.00625 39.8375 
L 400.996875 39.8375 
L 400.996875 72.475 
L 393.00625 72.475 
" clip-path="url(#p59dcebf34a)" style="fill: #df6704"/>
    <path d="M 400.996875 72.475 
L 400.996875 39.8375 
L 408.9875 39.8375 
L 408.9875 72.475 
L 400.996875 72.475 
" clip-path="url(#p59dcebf34a)" style="fill: #e55607"/>
    <path d="M 408.9875 72.475 
L 408.9875 39.8375 
L 416.978125 39.8375 
L 416.978125 72.475 
L 408.9875 72.475 
" clip-path="url(#p59dcebf34a)" style="fill: #e6480a"/>
    <path d="M 416.978125 72.475 
L 416.978125 39.8375 
L 424.96875 39.8375 
L 424.96875 72.475 
L 416.978125 72.475 
" clip-path="url(#p59dcebf34a)" style="fill: #e13b0c"/>
    <path d="M 424.96875 72.475 
L 424.96875 39.8375 
L 432.959375 39.8375 
L 432.959375 72.475 
L 424.96875 72.475 
" clip-path="url(#p59dcebf34a)" style="fill: #d9300e"/>
    <path d="M 432.959375 72.475 
L 432.959375 39.8375 
L 440.95 39.8375 
L 440.95 72.475 
L 432.959375 72.475 
" clip-path="url(#p59dcebf34a)" style="fill: #cc2710"/>
    <path d="M 440.95 72.475 
L 440.95 39.8375 
L 448.940625 39.8375 
L 448.940625 72.475 
L 440.95 72.475 
" clip-path="url(#p59dcebf34a)" style="fill: #be2010"/>
    <path d="M 448.940625 72.475 
L 448.940625 39.8375 
L 456.93125 39.8375 
L 456.93125 72.475 
L 448.940625 72.475 
" clip-path="url(#p59dcebf34a)" style="fill: #ae1a11"/>
    <path d="M 456.93125 72.475 
L 456.93125 39.8375 
L 464.921875 39.8375 
L 464.921875 72.475 
L 456.93125 72.475 
" clip-path="url(#p59dcebf34a)" style="fill: #9e1510"/>
    <path d="M 464.921875 72.475 
L 464.921875 39.8375 
L 472.9125 39.8375 
L 472.9125 72.475 
L 464.921875 72.475 
" clip-path="url(#p59dcebf34a)" style="fill: #8f1110"/>
    <path d="M 472.9125 72.475 
L 472.9125 39.8375 
L 480.903125 39.8375 
L 480.903125 72.475 
L 472.9125 72.475 
" clip-path="url(#p59dcebf34a)" style="fill: #800e0f"/>
    <path d="M 480.903125 72.475 
L 480.903125 39.8375 
L 488.89375 39.8375 
L 488.89375 72.475 
L 480.903125 72.475 
" clip-path="url(#p59dcebf34a)" style="fill: #730c0e"/>
    <path d="M 488.89375 72.475 
L 488.89375 39.8375 
L 496.884375 39.8375 
L 496.884375 72.475 
L 488.89375 72.475 
" clip-path="url(#p59dcebf34a)" style="fill: #670a0d"/>
    <path d="M 496.884375 72.475 
L 496.884375 39.8375 
L 504.875 39.8375 
L 504.875 72.475 
L 496.884375 72.475 
" clip-path="url(#p59dcebf34a)" style="fill: #5d080c"/>
    <path d="M 504.875 72.475 
L 504.875 39.8375 
L 512.865625 39.8375 
L 512.865625 72.475 
L 504.875 72.475 
" clip-path="url(#p59dcebf34a)" style="fill: #54070b"/>
    <path d="M 512.865625 72.475 
L 512.865625 39.8375 
L 520.85625 39.8375 
L 520.85625 72.475 
L 512.865625 72.475 
" clip-path="url(#p59dcebf34a)" style="fill: #4c060a"/>
    <path d="M 520.85625 72.475 
L 520.85625 39.8375 
L 528.846875 39.8375 
L 528.846875 72.475 
L 520.85625 72.475 
" clip-path="url(#p59dcebf34a)" style="fill: #460509"/>
    <path d="M 528.846875 72.475 
L 528.846875 39.8375 
L 536.8375 39.8375 
L 536.8375 72.475 
L 528.846875 72.475 
" clip-path="url(#p59dcebf34a)" style="fill: #410509"/>
    <path d="M 536.8375 72.475 
L 536.8375 39.8375 
L 544.828125 39.8375 
L 544.828125 72.475 
L 536.8375 72.475 
" clip-path="url(#p59dcebf34a)" style="fill: #3d0408"/>
    <path d="M 544.828125 72.475 
L 544.828125 39.8375 
L 552.81875 39.8375 
L 552.81875 72.475 
L 544.828125 72.475 
" clip-path="url(#p59dcebf34a)" style="fill: #3a0408"/>
    <path d="M 552.81875 72.475 
L 552.81875 39.8375 
L 560.809375 39.8375 
L 560.809375 72.475 
L 552.81875 72.475 
" clip-path="url(#p59dcebf34a)" style="fill: #370408"/>
    <path d="M 560.809375 72.475 
L 560.809375 39.8375 
L 568.8 39.8375 
L 568.8 72.475 
L 560.809375 72.475 
" clip-path="url(#p59dcebf34a)" style="fill: #350408"/>
   </g>
   <g id="matplotlib.axis_1">
    <g id="xtick_1">
     <g id="line2d_1">
      <defs>
       <path id="m88007fe0de" d="M 0 0 
L 0 3.5 
" style="stroke: #ffffff; stroke-width: 0.8"/>
      </defs>
      <g>
       <use xlink:href="#m88007fe0de" x="121.325" y="72.475" style="fill: #ffffff; stroke: #ffffff; stroke-width: 0.8"/>
      </g>
     </g>
     <g id="text_1">
      <!-- 475 -->
      <g style="fill: #ffffff" transform="translate(113.825 86.414062)scale(0.1 -0.1)">
       <defs>
        <path id="CMUSerif-Roman-34" d="M 178 1056 
L 178 1253 
L 2144 4256 
Q 2194 4334 2272 4331 
Q 2344 4331 2359 4303 
Q 2375 4275 2375 4166 
L 2375 1253 
L 3016 1253 
L 3016 1056 
L 2375 1056 
L 2375 500 
Q 2375 316 2451 256 
Q 2528 197 2859 197 
L 2994 197 
L 2994 0 
Q 2731 19 2125 19 
Q 1522 19 1259 0 
L 1259 197 
L 1394 197 
Q 1725 197 1803 255 
Q 1881 313 1881 500 
L 1881 1056 
L 178 1056 
z
M 359 1253 
L 1919 1253 
L 1919 3641 
L 359 1253 
z
" transform="scale(0.015625)"/>
        <path id="CMUSerif-Roman-37" d="M 359 3009 
L 569 4325 
L 728 4325 
Q 747 4247 780 4212 
Q 813 4178 995 4150 
Q 1178 4122 1550 4122 
L 3103 4122 
Q 3103 3975 3047 3897 
L 2181 2681 
Q 1906 2297 1784 1588 
Q 1713 1113 1716 538 
L 1716 213 
Q 1716 -141 1420 -141 
Q 1125 -141 1125 213 
Q 1125 1434 1913 2619 
Q 1997 2741 2308 3175 
Q 2619 3609 2631 3628 
L 1306 3628 
Q 725 3628 678 3591 
Q 616 3534 519 3009 
L 359 3009 
z
" transform="scale(0.015625)"/>
        <path id="CMUSerif-Roman-35" d="M 319 1031 
Q 319 1222 422 1295 
Q 525 1369 634 1369 
Q 781 1369 867 1276 
Q 953 1184 953 1056 
Q 953 928 867 836 
Q 781 744 634 744 
Q 563 744 525 756 
Q 609 463 867 250 
Q 1125 38 1466 38 
Q 1894 38 2150 453 
Q 2303 722 2303 1331 
Q 2303 1869 2188 2138 
Q 2009 2547 1644 2547 
Q 1125 2547 819 2100 
Q 781 2044 738 2041 
Q 675 2041 661 2077 
Q 647 2113 647 2209 
L 647 4103 
Q 647 4256 709 4256 
Q 734 4256 788 4238 
Q 1191 4059 1638 4056 
Q 2097 4056 2509 4244 
Q 2541 4263 2559 4263 
Q 2622 4263 2625 4191 
Q 2625 4166 2573 4092 
Q 2522 4019 2412 3923 
Q 2303 3828 2162 3737 
Q 2022 3647 1817 3586 
Q 1613 3525 1388 3525 
Q 1119 3525 844 3609 
L 844 2363 
Q 1175 2688 1656 2688 
Q 2169 2688 2522 2275 
Q 2875 1863 2875 1288 
Q 2875 684 2458 271 
Q 2041 -141 1478 -141 
Q 966 -141 642 225 
Q 319 591 319 1031 
z
" transform="scale(0.015625)"/>
       </defs>
       <use xlink:href="#CMUSerif-Roman-34"/>
       <use xlink:href="#CMUSerif-Roman-37" x="50"/>
       <use xlink:href="#CMUSerif-Roman-35" x="100"/>
      </g>
     </g>
    </g>
    <g id="xtick_2">
     <g id="line2d_2">
      <g>
       <use xlink:href="#m88007fe0de" x="134.11" y="72.475" style="fill: #ffffff; stroke: #ffffff; stroke-width: 0.8"/>
      </g>
     </g>
    </g>
    <g id="xtick_3">
     <g id="line2d_3">
      <g>
       <use xlink:href="#m88007fe0de" x="146.895" y="72.475" style="fill: #ffffff; stroke: #ffffff; stroke-width: 0.8"/>
      </g>
     </g>
    </g>
    <g id="xtick_4">
     <g id="line2d_4">
      <g>
       <use xlink:href="#m88007fe0de" x="159.68" y="72.475" style="fill: #ffffff; stroke: #ffffff; stroke-width: 0.8"/>
      </g>
     </g>
    </g>
    <g id="xtick_5">
     <g id="line2d_5">
      <g>
       <use xlink:href="#m88007fe0de" x="172.465" y="72.475" style="fill: #ffffff; stroke: #ffffff; stroke-width: 0.8"/>
      </g>
     </g>
    </g>
    <g id="xtick_6">
     <g id="line2d_6">
      <g>
       <use xlink:href="#m88007fe0de" x="185.25" y="72.475" style="fill: #ffffff; stroke: #ffffff; stroke-width: 0.8"/>
      </g>
     </g>
     <g id="text_2">
      <!-- 500 -->
      <g style="fill: #ffffff" transform="translate(177.75 86.414062)scale(0.1 -0.1)">
       <defs>
        <path id="CMUSerif-Roman-30" d="M 250 2047 
Q 250 2988 488 3500 
Q 819 4263 1600 4263 
Q 1766 4263 1939 4217 
Q 2113 4172 2333 4000 
Q 2553 3828 2688 3547 
Q 2944 3003 2944 2047 
Q 2944 1113 2706 603 
Q 2359 -141 1594 -141 
Q 1306 -141 1014 6 
Q 722 153 538 506 
Q 250 1034 250 2047 
z
M 781 2125 
Q 781 1159 850 775 
Q 928 359 1142 179 
Q 1356 0 1594 0 
Q 1850 0 2064 192 
Q 2278 384 2344 800 
Q 2416 1209 2413 2125 
Q 2413 3016 2350 3372 
Q 2266 3788 2042 3955 
Q 1819 4122 1594 4122 
Q 1509 4122 1420 4097 
Q 1331 4072 1203 4000 
Q 1075 3928 976 3750 
Q 878 3572 831 3303 
Q 781 2956 781 2125 
z
" transform="scale(0.015625)"/>
       </defs>
       <use xlink:href="#CMUSerif-Roman-35"/>
       <use xlink:href="#CMUSerif-Roman-30" x="50"/>
       <use xlink:href="#CMUSerif-Roman-30" x="100"/>
      </g>
     </g>
    </g>
    <g id="xtick_7">
     <g id="line2d_7">
      <g>
       <use xlink:href="#m88007fe0de" x="198.035" y="72.475" style="fill: #ffffff; stroke: #ffffff; stroke-width: 0.8"/>
      </g>
     </g>
    </g>
    <g id="xtick_8">
     <g id="line2d_8">
      <g>
       <use xlink:href="#m88007fe0de" x="210.82" y="72.475" style="fill: #ffffff; stroke: #ffffff; stroke-width: 0.8"/>
      </g>
     </g>
    </g>
    <g id="xtick_9">
     <g id="line2d_9">
      <g>
       <use xlink:href="#m88007fe0de" x="223.605" y="72.475" style="fill: #ffffff; stroke: #ffffff; stroke-width: 0.8"/>
      </g>
     </g>
    </g>
    <g id="xtick_10">
     <g id="line2d_10">
      <g>
       <use xlink:href="#m88007fe0de" x="236.39" y="72.475" style="fill: #ffffff; stroke: #ffffff; stroke-width: 0.8"/>
      </g>
     </g>
    </g>
    <g id="xtick_11">
     <g id="line2d_11">
      <g>
       <use xlink:href="#m88007fe0de" x="249.175" y="72.475" style="fill: #ffffff; stroke: #ffffff; stroke-width: 0.8"/>
      </g>
     </g>
     <g id="text_3">
      <!-- 525 -->
      <g style="fill: #ffffff" transform="translate(241.675 86.414062)scale(0.1 -0.1)">
       <defs>
        <path id="CMUSerif-Roman-32" d="M 319 0 
Q 319 116 330 150 
Q 341 184 391 238 
L 1619 1606 
Q 2291 2363 2291 3022 
Q 2291 3450 2067 3756 
Q 1844 4063 1434 4063 
Q 1153 4063 915 3891 
Q 678 3719 569 3413 
Q 588 3419 653 3419 
Q 813 3419 902 3319 
Q 991 3219 991 3084 
Q 991 2913 880 2830 
Q 769 2747 659 2747 
Q 616 2747 558 2756 
Q 500 2766 409 2855 
Q 319 2944 319 3103 
Q 319 3550 658 3906 
Q 997 4263 1516 4263 
Q 2103 4263 2489 3914 
Q 2875 3566 2875 3022 
Q 2875 2831 2817 2657 
Q 2759 2484 2682 2350 
Q 2606 2216 2400 2000 
Q 2194 1784 2028 1631 
Q 1863 1478 1491 1153 
L 813 494 
L 1966 494 
Q 2528 494 2572 544 
Q 2634 634 2713 1113 
L 2875 1113 
L 2694 0 
L 319 0 
z
" transform="scale(0.015625)"/>
       </defs>
       <use xlink:href="#CMUSerif-Roman-35"/>
       <use xlink:href="#CMUSerif-Roman-32" x="50"/>
       <use xlink:href="#CMUSerif-Roman-35" x="100"/>
      </g>
     </g>
    </g>
    <g id="xtick_12">
     <g id="line2d_12">
      <g>
       <use xlink:href="#m88007fe0de" x="261.96" y="72.475" style="fill: #ffffff; stroke: #ffffff; stroke-width: 0.8"/>
      </g>
     </g>
    </g>
    <g id="xtick_13">
     <g id="line2d_13">
      <g>
       <use xlink:href="#m88007fe0de" x="274.745" y="72.475" style="fill: #ffffff; stroke: #ffffff; stroke-width: 0.8"/>
      </g>
     </g>
    </g>
    <g id="xtick_14">
     <g id="line2d_14">
      <g>
       <use xlink:href="#m88007fe0de" x="287.53" y="72.475" style="fill: #ffffff; stroke: #ffffff; stroke-width: 0.8"/>
      </g>
     </g>
    </g>
    <g id="xtick_15">
     <g id="line2d_15">
      <g>
       <use xlink:href="#m88007fe0de" x="300.315" y="72.475" style="fill: #ffffff; stroke: #ffffff; stroke-width: 0.8"/>
      </g>
     </g>
    </g>
    <g id="xtick_16">
     <g id="line2d_16">
      <g>
       <use xlink:href="#m88007fe0de" x="313.1" y="72.475" style="fill: #ffffff; stroke: #ffffff; stroke-width: 0.8"/>
      </g>
     </g>
     <g id="text_4">
      <!-- 550 -->
      <g style="fill: #ffffff" transform="translate(305.6 86.414062)scale(0.1 -0.1)">
       <use xlink:href="#CMUSerif-Roman-35"/>
       <use xlink:href="#CMUSerif-Roman-35" x="50"/>
       <use xlink:href="#CMUSerif-Roman-30" x="100"/>
      </g>
     </g>
    </g>
    <g id="xtick_17">
     <g id="line2d_17">
      <g>
       <use xlink:href="#m88007fe0de" x="325.885" y="72.475" style="fill: #ffffff; stroke: #ffffff; stroke-width: 0.8"/>
      </g>
     </g>
    </g>
    <g id="xtick_18">
     <g id="line2d_18">
      <g>
       <use xlink:href="#m88007fe0de" x="338.67" y="72.475" style="fill: #ffffff; stroke: #ffffff; stroke-width: 0.8"/>
      </g>
     </g>
    </g>
    <g id="xtick_19">
     <g id="line2d_19">
      <g>
       <use xlink:href="#m88007fe0de" x="351.455" y="72.475" style="fill: #ffffff; stroke: #ffffff; stroke-width: 0.8"/>
      </g>
     </g>
    </g>
    <g id="xtick_20">
     <g id="line2d_20">
      <g>
       <use xlink:href="#m88007fe0de" x="364.24" y="72.475" style="fill: #ffffff; stroke: #ffffff; stroke-width: 0.8"/>
      </g>
     </g>
    </g>
    <g id="xtick_21">
     <g id="line2d_21">
      <g>
       <use xlink:href="#m88007fe0de" x="377.025" y="72.475" style="fill: #ffffff; stroke: #ffffff; stroke-width: 0.8"/>
      </g>
     </g>
     <g id="text_5">
      <!-- 575 -->
      <g style="fill: #ffffff" transform="translate(369.525 86.414062)scale(0.1 -0.1)">
       <use xlink:href="#CMUSerif-Roman-35"/>
       <use xlink:href="#CMUSerif-Roman-37" x="50"/>
       <use xlink:href="#CMUSerif-Roman-35" x="100"/>
      </g>
     </g>
    </g>
    <g id="xtick_22">
     <g id="line2d_22">
      <g>
       <use xlink:href="#m88007fe0de" x="389.81" y="72.475" style="fill: #ffffff; stroke: #ffffff; stroke-width: 0.8"/>
      </g>
     </g>
    </g>
    <g id="xtick_23">
     <g id="line2d_23">
      <g>
       <use xlink:href="#m88007fe0de" x="402.595" y="72.475" style="fill: #ffffff; stroke: #ffffff; stroke-width: 0.8"/>
      </g>
     </g>
    </g>
    <g id="xtick_24">
     <g id="line2d_24">
      <g>
       <use xlink:href="#m88007fe0de" x="415.38" y="72.475" style="fill: #ffffff; stroke: #ffffff; stroke-width: 0.8"/>
      </g>
     </g>
    </g>
    <g id="xtick_25">
     <g id="line2d_25">
      <g>
       <use xlink:href="#m88007fe0de" x="428.165" y="72.475" style="fill: #ffffff; stroke: #ffffff; stroke-width: 0.8"/>
      </g>
     </g>
    </g>
    <g id="xtick_26">
     <g id="line2d_26">
      <g>
       <use xlink:href="#m88007fe0de" x="440.95" y="72.475" style="fill: #ffffff; stroke: #ffffff; stroke-width: 0.8"/>
      </g>
     </g>
     <g id="text_6">
      <!-- 600 -->
      <g style="fill: #ffffff" transform="translate(433.45 86.414062)scale(0.1 -0.1)">
       <defs>
        <path id="CMUSerif-Roman-36" d="M 269 2022 
Q 269 3028 781 3645 
Q 1294 4263 1953 4263 
Q 2338 4263 2552 4067 
Q 2766 3872 2766 3572 
Q 2766 3406 2669 3334 
Q 2572 3263 2472 3263 
Q 2356 3263 2265 3341 
Q 2175 3419 2175 3559 
Q 2175 3847 2528 3847 
Q 2363 4103 1966 4103 
Q 1844 4103 1719 4067 
Q 1594 4031 1431 3912 
Q 1269 3794 1144 3606 
Q 1019 3419 931 3066 
Q 844 2713 844 2253 
L 844 2100 
Q 1106 2734 1643 2732 
Q 2181 2731 2553 2322 
Q 2925 1913 2925 1306 
Q 2925 684 2537 271 
Q 2150 -141 1606 -141 
Q 1363 -141 1142 -39 
Q 922 63 717 294 
Q 513 525 391 969 
Q 269 1413 269 2022 
z
M 856 1447 
Q 856 819 972 519 
Q 991 469 1033 400 
Q 1075 331 1148 242 
Q 1222 153 1344 95 
Q 1466 38 1606 38 
Q 2034 38 2241 453 
Q 2350 684 2350 1313 
Q 2350 1953 2234 2188 
Q 2038 2584 1638 2584 
Q 1369 2584 1183 2400 
Q 997 2216 926 1969 
Q 856 1722 856 1447 
z
" transform="scale(0.015625)"/>
       </defs>
       <use xlink:href="#CMUSerif-Roman-36"/>
       <use xlink:href="#CMUSerif-Roman-30" x="50"/>
       <use xlink:href="#CMUSerif-Roman-30" x="100"/>
      </g>
     </g>
    </g>
    <g id="xtick_27">
     <g id="line2d_27">
      <g>
       <use xlink:href="#m88007fe0de" x="466.52" y="72.475" style="fill: #ffffff; stroke: #ffffff; stroke-width: 0.8"/>
      </g>
     </g>
    </g>
    <g id="xtick_28">
     <g id="line2d_28">
      <g>
       <use xlink:href="#m88007fe0de" x="504.875" y="72.475" style="fill: #ffffff; stroke: #ffffff; stroke-width: 0.8"/>
      </g>
     </g>
     <g id="text_7">
      <!-- 625 -->
      <g style="fill: #ffffff" transform="translate(497.375 86.414062)scale(0.1 -0.1)">
       <use xlink:href="#CMUSerif-Roman-36"/>
       <use xlink:href="#CMUSerif-Roman-32" x="50"/>
       <use xlink:href="#CMUSerif-Roman-35" x="100"/>
      </g>
     </g>
    </g>
    <g id="text_8">
     <!-- Wavelength $\lambda$ ($nm$) -->
     <g style="fill: #ffffff" transform="translate(260.78 101.353125)scale(0.12 -0.12)">
      <defs>
       <path id="CMUSerif-Roman-57" d="M 116 4172 
L 116 4372 
Q 206 4372 368 4365 
Q 531 4359 659 4356 
Q 788 4353 897 4353 
Q 1575 4353 1806 4372 
L 1806 4172 
Q 1269 4172 1269 3981 
Q 1269 3938 1281 3897 
L 2309 750 
L 3200 3494 
L 3059 3944 
Q 3009 4103 2900 4137 
Q 2791 4172 2484 4172 
L 2484 4372 
Q 2575 4372 2737 4365 
Q 2900 4359 3028 4356 
Q 3156 4353 3263 4353 
Q 3941 4353 4172 4372 
L 4172 4172 
Q 3634 4172 3634 3981 
Q 3634 3963 3653 3884 
L 4678 750 
L 5638 3706 
Q 5669 3803 5672 3834 
Q 5672 3950 5537 4058 
Q 5403 4166 5113 4172 
L 5113 4372 
Q 5613 4353 5875 4353 
Q 6169 4353 6456 4372 
L 6456 4172 
Q 5950 4172 5819 3744 
L 4594 -13 
Q 4581 -63 4572 -86 
Q 4563 -109 4538 -125 
Q 4513 -141 4469 -141 
Q 4384 -141 4347 -19 
L 3284 3238 
L 2228 -13 
Q 2216 -63 2205 -86 
Q 2194 -109 2169 -125 
Q 2144 -141 2100 -141 
Q 2016 -141 1978 -19 
L 697 3903 
Q 641 4088 555 4130 
Q 469 4172 116 4172 
z
" transform="scale(0.015625)"/>
       <path id="CMUSerif-Roman-61" d="M 269 609 
Q 269 1153 909 1441 
Q 1294 1625 2088 1672 
L 2088 1906 
Q 2088 2303 1880 2514 
Q 1672 2725 1409 2725 
Q 941 2725 716 2431 
Q 906 2425 975 2329 
Q 1044 2234 1044 2138 
Q 1044 2009 964 1926 
Q 884 1844 750 1844 
Q 622 1844 537 1923 
Q 453 2003 453 2144 
Q 453 2456 736 2662 
Q 1019 2869 1422 2869 
Q 1947 2869 2297 2516 
Q 2406 2406 2461 2265 
Q 2516 2125 2522 2033 
Q 2528 1941 2528 1759 
L 2528 481 
Q 2528 444 2540 381 
Q 2553 319 2611 239 
Q 2669 159 2766 159 
Q 2997 159 2994 569 
L 2994 928 
L 3156 928 
L 3156 569 
Q 3156 228 2976 95 
Q 2797 -38 2631 -38 
Q 2419 -38 2284 118 
Q 2150 275 2131 488 
Q 2034 244 1814 86 
Q 1594 -72 1294 -72 
Q 1063 -72 845 -14 
Q 628 44 448 205 
Q 269 366 269 609 
z
M 763 616 
Q 763 378 931 225 
Q 1100 72 1338 72 
Q 1606 72 1847 280 
Q 2088 488 2088 897 
L 2088 1538 
Q 1378 1513 1070 1230 
Q 763 947 763 616 
z
" transform="scale(0.015625)"/>
       <path id="CMUSerif-Roman-76" d="M 122 2559 
L 122 2759 
Q 409 2741 744 2741 
Q 866 2741 1441 2759 
L 1441 2559 
Q 1075 2559 1075 2394 
Q 1075 2369 1113 2284 
L 1831 500 
L 2484 2131 
Q 2522 2241 2522 2284 
Q 2522 2394 2448 2473 
Q 2375 2553 2216 2559 
L 2216 2759 
Q 2541 2741 2772 2741 
Q 3034 2741 3250 2759 
L 3250 2559 
Q 3059 2559 2925 2473 
Q 2791 2388 2748 2314 
Q 2706 2241 2663 2131 
L 1825 50 
Q 1775 -72 1691 -72 
Q 1634 -72 1611 -48 
Q 1588 -25 1556 50 
L 634 2322 
Q 572 2481 490 2520 
Q 409 2559 122 2559 
z
" transform="scale(0.015625)"/>
       <path id="CMUSerif-Roman-65" d="M 178 1409 
Q 178 2013 565 2441 
Q 953 2869 1509 2869 
Q 2072 2869 2364 2503 
Q 2656 2138 2656 1613 
Q 2656 1516 2631 1497 
Q 2606 1478 2497 1478 
L 709 1478 
Q 709 825 903 519 
Q 1172 91 1625 91 
Q 1688 91 1763 103 
Q 1838 116 1991 170 
Q 2144 225 2278 372 
Q 2413 519 2491 750 
Q 2509 841 2572 838 
Q 2656 838 2656 763 
Q 2656 706 2595 579 
Q 2534 453 2418 303 
Q 2303 153 2079 40 
Q 1856 -72 1588 -72 
Q 1025 -72 601 354 
Q 178 781 178 1409 
z
M 716 1613 
L 2234 1613 
Q 2234 1747 2211 1897 
Q 2188 2047 2120 2255 
Q 2053 2463 1897 2594 
Q 1741 2725 1509 2725 
Q 1406 2725 1295 2681 
Q 1184 2638 1050 2531 
Q 916 2425 822 2184 
Q 728 1944 716 1613 
z
" transform="scale(0.015625)"/>
       <path id="CMUSerif-Roman-6c" d="M 213 0 
L 213 197 
Q 553 197 631 239 
Q 709 281 709 488 
L 709 3816 
Q 709 4053 626 4112 
Q 544 4172 213 4172 
L 213 4372 
L 1131 4441 
L 1131 488 
Q 1131 281 1212 239 
Q 1294 197 1631 197 
L 1631 0 
Q 1553 0 1390 6 
Q 1228 13 1109 16 
Q 991 19 922 19 
Q 847 19 213 0 
z
" transform="scale(0.015625)"/>
       <path id="CMUSerif-Roman-6e" d="M 206 0 
L 206 197 
Q 547 197 625 239 
Q 703 281 703 488 
L 703 2203 
Q 703 2441 620 2500 
Q 538 2559 206 2559 
L 206 2759 
L 1106 2828 
L 1106 2156 
Q 1406 2828 2053 2828 
Q 2534 2828 2725 2591 
Q 2866 2431 2895 2253 
Q 2925 2075 2925 1613 
L 2925 391 
Q 2931 256 3034 226 
Q 3138 197 3425 197 
L 3425 0 
Q 2772 19 2706 19 
Q 2656 19 1984 0 
L 1984 197 
Q 2325 197 2404 239 
Q 2484 281 2484 488 
L 2484 1978 
Q 2484 2303 2384 2495 
Q 2284 2688 2009 2688 
Q 1678 2688 1412 2409 
Q 1147 2131 1147 1663 
L 1147 488 
Q 1147 281 1226 239 
Q 1306 197 1644 197 
L 1644 0 
Q 991 19 928 19 
Q 878 19 206 0 
z
" transform="scale(0.015625)"/>
       <path id="CMUSerif-Roman-67" d="M 178 -506 
Q 178 -300 336 -122 
Q 494 56 769 134 
Q 488 313 488 703 
Q 488 1003 684 1234 
Q 384 1484 384 1894 
Q 384 2272 684 2550 
Q 984 2828 1422 2828 
Q 1806 2828 2100 2597 
Q 2406 2897 2778 2900 
Q 2944 2900 3023 2797 
Q 3103 2694 3103 2584 
Q 3103 2488 3042 2441 
Q 2981 2394 2919 2394 
Q 2841 2394 2786 2445 
Q 2731 2497 2731 2578 
Q 2731 2713 2834 2753 
Q 2816 2759 2772 2759 
Q 2459 2759 2194 2509 
Q 2456 2266 2456 1887 
Q 2456 1509 2156 1231 
Q 1856 953 1422 953 
Q 1063 953 788 1153 
Q 678 1025 678 850 
Q 678 691 775 566 
Q 872 441 1019 422 
Q 1063 416 1497 416 
Q 1753 416 1893 409 
Q 2034 403 2236 361 
Q 2438 319 2597 238 
Q 3013 6 3016 -494 
Q 3016 -859 2595 -1089 
Q 2175 -1319 1594 -1319 
Q 1006 -1319 592 -1086 
Q 178 -853 178 -506 
z
M 513 -506 
Q 513 -769 822 -970 
Q 1131 -1172 1600 -1172 
Q 2059 -1172 2370 -973 
Q 2681 -775 2681 -506 
Q 2681 -316 2572 -194 
Q 2463 -72 2239 -23 
Q 2016 25 1859 34 
Q 1703 44 1416 44 
L 1038 44 
Q 819 31 666 -128 
Q 513 -288 513 -506 
z
M 863 1888 
Q 863 1100 1422 1100 
Q 1703 1100 1875 1356 
Q 1978 1528 1978 1894 
Q 1978 2681 1422 2681 
Q 1141 2681 966 2425 
Q 863 2253 863 1888 
z
" transform="scale(0.015625)"/>
       <path id="CMUSerif-Roman-74" d="M 122 2559 
L 122 2700 
Q 416 2713 611 2920 
Q 806 3128 873 3384 
Q 941 3641 947 3938 
L 1106 3938 
L 1106 2759 
L 2022 2759 
L 2022 2559 
L 1106 2559 
L 1106 781 
Q 1106 91 1538 91 
Q 1722 91 1844 280 
Q 1966 469 1966 806 
L 1966 1159 
L 2125 1159 
L 2125 794 
Q 2125 447 1965 187 
Q 1806 -72 1491 -72 
Q 1375 -72 1261 -42 
Q 1147 -13 998 64 
Q 850 141 758 330 
Q 666 519 666 794 
L 666 2559 
L 122 2559 
z
" transform="scale(0.015625)"/>
       <path id="CMUSerif-Roman-68" d="M 206 0 
L 206 197 
Q 547 197 625 239 
Q 703 281 703 488 
L 703 3816 
Q 703 4053 620 4112 
Q 538 4172 206 4172 
L 206 4372 
L 1125 4441 
L 1125 2216 
L 1131 2216 
Q 1234 2447 1465 2637 
Q 1697 2828 2053 2828 
Q 2534 2828 2725 2591 
Q 2866 2431 2895 2253 
Q 2925 2075 2925 1613 
L 2925 391 
Q 2931 256 3034 226 
Q 3138 197 3425 197 
L 3425 0 
Q 2772 19 2706 19 
Q 2656 19 1984 0 
L 1984 197 
Q 2325 197 2404 239 
Q 2484 281 2484 488 
L 2484 1978 
Q 2484 2303 2384 2495 
Q 2284 2688 2009 2688 
Q 1678 2688 1412 2409 
Q 1147 2131 1147 1663 
L 1147 488 
Q 1147 281 1226 239 
Q 1306 197 1644 197 
L 1644 0 
Q 991 19 928 19 
Q 878 19 206 0 
z
" transform="scale(0.015625)"/>
       <path id="CMUSerif-Roman-20" transform="scale(0.015625)"/>
       <path id="Cmmi10-b8" d="M 325 109 
Q 325 203 409 288 
L 2209 2053 
L 1575 3834 
Q 1500 4038 1417 4156 
Q 1334 4275 1178 4275 
Q 1106 4275 1106 4359 
Q 1113 4397 1138 4419 
Q 1163 4441 1203 4441 
Q 1875 4441 2016 4044 
L 3316 416 
Q 3400 144 3488 50 
Q 3519 3 3519 -13 
Q 3519 -72 3469 -72 
L 3122 -72 
Q 2963 -25 2869 206 
L 2284 1844 
L 738 25 
Q 622 -84 531 -84 
Q 450 -84 387 -28 
Q 325 28 325 109 
z
" transform="scale(0.015625)"/>
       <path id="CMUSerif-Roman-28" d="M 634 1600 
Q 634 2681 1038 3553 
Q 1209 3919 1450 4225 
Q 1691 4531 1850 4665 
Q 2009 4800 2053 4800 
Q 2116 4800 2119 4738 
Q 2119 4706 2034 4628 
Q 1003 3578 1006 1600 
Q 1006 -384 2009 -1394 
Q 2119 -1503 2119 -1538 
Q 2119 -1600 2053 -1600 
Q 2009 -1600 1856 -1472 
Q 1703 -1344 1465 -1050 
Q 1228 -756 1056 -397 
Q 634 475 634 1600 
z
" transform="scale(0.015625)"/>
       <path id="Cmmi10-6e" d="M 494 109 
Q 494 147 500 166 
L 978 2075 
Q 1025 2253 1025 2388 
Q 1025 2663 838 2663 
Q 638 2663 541 2423 
Q 444 2184 353 1819 
Q 353 1800 334 1789 
Q 316 1778 300 1778 
L 225 1778 
Q 203 1778 187 1801 
Q 172 1825 172 1844 
Q 241 2122 305 2315 
Q 369 2509 505 2668 
Q 641 2828 844 2828 
Q 1084 2828 1268 2676 
Q 1453 2525 1453 2291 
Q 1644 2541 1900 2684 
Q 2156 2828 2444 2828 
Q 2672 2828 2837 2750 
Q 3003 2672 3095 2514 
Q 3188 2356 3188 2138 
Q 3188 1875 3070 1503 
Q 2953 1131 2778 672 
Q 2688 463 2688 288 
Q 2688 97 2834 97 
Q 3084 97 3251 365 
Q 3419 634 3488 941 
Q 3500 978 3541 978 
L 3616 978 
Q 3641 978 3658 962 
Q 3675 947 3675 922 
Q 3675 916 3669 903 
Q 3581 541 3364 234 
Q 3147 -72 2822 -72 
Q 2597 -72 2437 83 
Q 2278 238 2278 459 
Q 2278 578 2328 709 
Q 2409 919 2514 1209 
Q 2619 1500 2686 1765 
Q 2753 2031 2753 2234 
Q 2753 2413 2679 2538 
Q 2606 2663 2431 2663 
Q 2197 2663 2000 2559 
Q 1803 2456 1656 2286 
Q 1509 2116 1388 1881 
L 953 141 
Q 931 53 854 -9 
Q 778 -72 684 -72 
Q 606 -72 550 -22 
Q 494 28 494 109 
z
" transform="scale(0.015625)"/>
       <path id="Cmmi10-6d" d="M 494 109 
Q 494 147 500 166 
L 978 2075 
Q 1025 2253 1025 2388 
Q 1025 2663 838 2663 
Q 638 2663 541 2423 
Q 444 2184 353 1819 
Q 353 1800 334 1789 
Q 316 1778 300 1778 
L 225 1778 
Q 203 1778 187 1801 
Q 172 1825 172 1844 
Q 241 2122 305 2315 
Q 369 2509 505 2668 
Q 641 2828 844 2828 
Q 1084 2828 1268 2676 
Q 1453 2525 1453 2291 
Q 1644 2541 1900 2684 
Q 2156 2828 2444 2828 
Q 2747 2828 2967 2673 
Q 3188 2519 3188 2234 
Q 3384 2513 3648 2670 
Q 3913 2828 4225 2828 
Q 4556 2828 4757 2648 
Q 4959 2469 4959 2138 
Q 4959 1875 4842 1503 
Q 4725 1131 4550 672 
Q 4459 450 4459 288 
Q 4459 97 4609 97 
Q 4859 97 5025 365 
Q 5191 634 5259 941 
Q 5278 978 5313 978 
L 5388 978 
Q 5413 978 5430 961 
Q 5447 944 5447 922 
Q 5447 916 5441 903 
Q 5353 541 5136 234 
Q 4919 -72 4594 -72 
Q 4369 -72 4209 83 
Q 4050 238 4050 459 
Q 4050 572 4103 709 
Q 4284 1191 4404 1569 
Q 4525 1947 4525 2234 
Q 4525 2413 4453 2538 
Q 4381 2663 4213 2663 
Q 3863 2663 3606 2448 
Q 3350 2234 3163 1881 
Q 3150 1819 3144 1784 
L 2731 141 
Q 2709 53 2632 -9 
Q 2556 -72 2463 -72 
Q 2388 -72 2330 -22 
Q 2272 28 2272 109 
Q 2272 147 2278 166 
L 2688 1797 
Q 2753 2059 2753 2234 
Q 2753 2413 2679 2538 
Q 2606 2663 2431 2663 
Q 2197 2663 2000 2559 
Q 1803 2456 1656 2286 
Q 1509 2116 1388 1881 
L 953 141 
Q 931 53 854 -9 
Q 778 -72 684 -72 
Q 606 -72 550 -22 
Q 494 28 494 109 
z
" transform="scale(0.015625)"/>
       <path id="CMUSerif-Roman-29" d="M 366 -1538 
Q 366 -1506 447 -1428 
Q 1478 -378 1478 1600 
Q 1478 3584 488 4588 
Q 366 4703 366 4738 
Q 366 4800 428 4800 
Q 472 4800 626 4672 
Q 781 4544 1017 4250 
Q 1253 3956 1428 3597 
Q 1850 2725 1850 1600 
Q 1850 519 1447 -353 
Q 1275 -719 1034 -1025 
Q 794 -1331 634 -1465 
Q 475 -1600 428 -1600 
Q 366 -1600 366 -1538 
z
" transform="scale(0.015625)"/>
      </defs>
      <use xlink:href="#CMUSerif-Roman-57"/>
      <use xlink:href="#CMUSerif-Roman-61" transform="translate(102.685547 0)"/>
      <use xlink:href="#CMUSerif-Roman-76" transform="translate(152.685547 0)"/>
      <use xlink:href="#CMUSerif-Roman-65" transform="translate(205.371094 0)"/>
      <use xlink:href="#CMUSerif-Roman-6c" transform="translate(249.755859 0)"/>
      <use xlink:href="#CMUSerif-Roman-65" transform="translate(277.441406 0)"/>
      <use xlink:href="#CMUSerif-Roman-6e" transform="translate(321.826172 0)"/>
      <use xlink:href="#CMUSerif-Roman-67" transform="translate(377.294922 0)"/>
      <use xlink:href="#CMUSerif-Roman-74" transform="translate(427.294922 0)"/>
      <use xlink:href="#CMUSerif-Roman-68" transform="translate(466.064453 0)"/>
      <use xlink:href="#CMUSerif-Roman-20" transform="translate(521.533203 0)"/>
      <use xlink:href="#Cmmi10-b8" transform="translate(554.785156 0)"/>
      <use xlink:href="#CMUSerif-Roman-20" transform="translate(613.085938 0)"/>
      <use xlink:href="#CMUSerif-Roman-28" transform="translate(646.337891 0)"/>
      <use xlink:href="#Cmmi10-6e" transform="translate(685.107422 0)"/>
      <use xlink:href="#Cmmi10-6d" transform="translate(745.117188 0)"/>
      <use xlink:href="#CMUSerif-Roman-29" transform="translate(832.910156 0)"/>
     </g>
    </g>
   </g>
   <g id="matplotlib.axis_2">
    <g id="ytick_1">
     <g id="line2d_29">
      <defs>
       <path id="mf6cfee8fbd" d="M 0 0 
L -3.5 0 
" style="stroke: #ffffff; stroke-width: 0.8"/>
      </defs>
      <g>
       <use xlink:href="#mf6cfee8fbd" x="57.4" y="56.15625" style="fill: #ffffff; stroke: #ffffff; stroke-width: 0.8"/>
      </g>
     </g>
     <g id="text_9">
      <!-- Smoothed -->
      <g style="fill: #ffffff" transform="translate(7.11875 59.625781)scale(0.1 -0.1)">
       <defs>
        <path id="CMUSerif-Roman-53" d="M 359 13 
L 359 1294 
Q 359 1366 362 1391 
Q 366 1416 384 1434 
Q 403 1453 441 1453 
Q 513 1453 519 1388 
Q 538 753 916 403 
Q 1288 56 1925 56 
Q 2309 56 2546 332 
Q 2784 609 2784 972 
Q 2784 1319 2584 1563 
Q 2500 1672 2395 1742 
Q 2291 1813 2227 1834 
Q 2163 1856 2041 1888 
Q 1247 2078 1197 2100 
Q 819 2228 589 2551 
Q 359 2875 359 3272 
Q 359 3784 720 4148 
Q 1081 4513 1606 4513 
Q 1869 4513 2089 4430 
Q 2309 4347 2400 4272 
Q 2491 4197 2631 4063 
L 2853 4428 
Q 2903 4513 2950 4513 
Q 3000 4513 3011 4483 
Q 3022 4453 3022 4359 
L 3022 3072 
Q 3022 3000 3019 2975 
Q 3016 2950 2995 2934 
Q 2975 2919 2938 2919 
Q 2875 2919 2859 2994 
Q 2681 4331 1613 4331 
Q 1247 4331 1008 4086 
Q 769 3841 769 3494 
Q 769 3213 944 2983 
Q 1119 2753 1416 2681 
L 2234 2484 
Q 2644 2388 2919 2025 
Q 3194 1663 3194 1191 
Q 3194 647 2839 253 
Q 2484 -141 1931 -141 
Q 1534 -141 1228 -9 
Q 922 122 756 306 
Q 628 94 544 -25 
L 525 -56 
Q 475 -141 428 -141 
Q 378 -141 368 -109 
Q 359 -78 359 13 
z
" transform="scale(0.015625)"/>
        <path id="CMUSerif-Roman-6d" d="M 206 0 
L 206 197 
Q 547 197 625 239 
Q 703 281 703 488 
L 703 2203 
Q 703 2441 620 2500 
Q 538 2559 206 2559 
L 206 2759 
L 1106 2828 
L 1106 2156 
Q 1406 2828 2053 2828 
Q 2803 2828 2906 2203 
Q 3016 2447 3245 2637 
Q 3475 2828 3834 2828 
Q 4316 2828 4506 2591 
Q 4647 2431 4675 2253 
Q 4703 2075 4703 1613 
L 4703 391 
Q 4709 256 4812 226 
Q 4916 197 5203 197 
L 5203 0 
Q 4550 19 4488 19 
Q 4438 19 3763 0 
L 3763 197 
Q 4103 197 4183 239 
Q 4263 281 4263 488 
L 4263 1978 
Q 4263 2303 4163 2495 
Q 4063 2688 3788 2688 
Q 3456 2688 3190 2409 
Q 2925 2131 2925 1663 
L 2925 488 
Q 2925 281 3004 239 
Q 3084 197 3425 197 
L 3425 0 
Q 2772 19 2706 19 
Q 2656 19 1984 0 
L 1984 197 
Q 2325 197 2404 239 
Q 2484 281 2484 488 
L 2484 1978 
Q 2484 2303 2384 2495 
Q 2284 2688 2009 2688 
Q 1678 2688 1412 2409 
Q 1147 2131 1147 1663 
L 1147 488 
Q 1147 281 1226 239 
Q 1306 197 1644 197 
L 1644 0 
Q 991 19 928 19 
Q 878 19 206 0 
z
" transform="scale(0.015625)"/>
        <path id="CMUSerif-Roman-6f" d="M 601 345 
Q 178 763 178 1370 
Q 178 1978 592 2423 
Q 1006 2869 1600 2869 
Q 2181 2869 2598 2426 
Q 3016 1984 3016 1369 
Q 3016 766 2595 347 
Q 2175 -72 1594 -72 
Q 1025 -72 601 345 
z
M 709 1422 
Q 709 800 872 519 
Q 1122 91 1600 91 
Q 1838 91 2036 219 
Q 2234 347 2344 563 
Q 2484 844 2484 1422 
Q 2484 2038 2316 2309 
Q 2066 2725 1594 2725 
Q 1388 2725 1186 2617 
Q 984 2509 863 2297 
Q 709 2016 709 1422 
z
" transform="scale(0.015625)"/>
        <path id="CMUSerif-Roman-64" d="M 219 1375 
Q 219 1984 644 2406 
Q 1069 2828 1644 2828 
Q 2131 2828 2450 2431 
L 2450 3816 
Q 2450 4053 2367 4112 
Q 2284 4172 1953 4172 
L 1953 4372 
L 2875 4441 
L 2875 556 
Q 2875 319 2958 258 
Q 3041 197 3372 197 
L 3372 0 
L 2431 -72 
L 2431 353 
Q 2100 -69 1575 -72 
Q 1025 -72 622 350 
Q 219 772 219 1375 
z
M 750 1369 
Q 750 775 934 481 
Q 1191 72 1606 72 
Q 2081 72 2363 519 
Q 2434 628 2431 756 
L 2431 2069 
Q 2431 2197 2363 2303 
Q 2100 2688 1672 2688 
Q 1225 2688 947 2278 
Q 750 1972 750 1369 
z
" transform="scale(0.015625)"/>
       </defs>
       <use xlink:href="#CMUSerif-Roman-53"/>
       <use xlink:href="#CMUSerif-Roman-6d" x="55.46875"/>
       <use xlink:href="#CMUSerif-Roman-6f" x="138.720703"/>
       <use xlink:href="#CMUSerif-Roman-6f" x="188.720703"/>
       <use xlink:href="#CMUSerif-Roman-74" x="238.720703"/>
       <use xlink:href="#CMUSerif-Roman-68" x="277.490234"/>
       <use xlink:href="#CMUSerif-Roman-65" x="332.958984"/>
       <use xlink:href="#CMUSerif-Roman-64" x="377.34375"/>
      </g>
     </g>
    </g>
    <g id="ytick_2">
     <g id="line2d_30">
      <g>
       <use xlink:href="#mf6cfee8fbd" x="57.4" y="23.51875" style="fill: #ffffff; stroke: #ffffff; stroke-width: 0.8"/>
      </g>
     </g>
     <g id="text_10">
      <!-- Saturated -->
      <g style="fill: #ffffff" transform="translate(7.660938 26.988281)scale(0.1 -0.1)">
       <defs>
        <path id="CMUSerif-Roman-75" d="M 206 2559 
L 206 2759 
L 1147 2828 
L 1147 703 
Q 1147 550 1159 461 
Q 1172 372 1223 269 
Q 1275 166 1395 119 
Q 1516 72 1709 72 
Q 2056 72 2270 356 
Q 2484 641 2484 1063 
L 2484 2203 
Q 2484 2441 2400 2500 
Q 2316 2559 1984 2559 
L 1984 2759 
L 2925 2828 
L 2925 556 
Q 2925 319 3008 258 
Q 3091 197 3425 197 
L 3425 0 
L 2503 -72 
L 2503 506 
Q 2234 -69 1678 -72 
Q 1397 -72 1205 0 
Q 1013 72 916 161 
Q 819 250 767 422 
Q 716 594 709 700 
Q 703 806 703 1013 
L 703 1972 
Q 703 2406 640 2482 
Q 578 2559 206 2559 
z
" transform="scale(0.015625)"/>
        <path id="CMUSerif-Roman-72" d="M 178 0 
L 178 197 
Q 519 197 598 239 
Q 678 281 678 488 
L 678 2203 
Q 678 2441 595 2500 
Q 513 2559 178 2559 
L 178 2759 
L 1069 2828 
L 1069 2125 
Q 1159 2400 1351 2614 
Q 1544 2828 1856 2828 
Q 2063 2828 2195 2712 
Q 2328 2597 2328 2438 
Q 2328 2297 2242 2226 
Q 2156 2156 2053 2156 
Q 1938 2156 1858 2229 
Q 1778 2303 1778 2431 
Q 1778 2509 1814 2570 
Q 1850 2631 1878 2653 
Q 1906 2675 1925 2681 
Q 1913 2688 1856 2688 
Q 1503 2688 1301 2336 
Q 1100 1984 1100 1484 
L 1100 500 
Q 1100 316 1176 256 
Q 1253 197 1588 197 
L 1722 197 
L 1722 0 
Q 1466 19 909 19 
Q 831 19 709 16 
Q 588 13 428 6 
Q 269 0 178 0 
z
" transform="scale(0.015625)"/>
       </defs>
       <use xlink:href="#CMUSerif-Roman-53"/>
       <use xlink:href="#CMUSerif-Roman-61" x="55.46875"/>
       <use xlink:href="#CMUSerif-Roman-74" x="105.46875"/>
       <use xlink:href="#CMUSerif-Roman-75" x="144.238281"/>
       <use xlink:href="#CMUSerif-Roman-72" x="199.707031"/>
       <use xlink:href="#CMUSerif-Roman-61" x="238.769531"/>
       <use xlink:href="#CMUSerif-Roman-74" x="288.769531"/>
       <use xlink:href="#CMUSerif-Roman-65" x="327.539062"/>
       <use xlink:href="#CMUSerif-Roman-64" x="371.923828"/>
      </g>
     </g>
    </g>
   </g>
   <g id="patch_3">
    <path d="M 57.4 72.475 
L 57.4 7.2 
" style="fill: none; stroke: #ffffff; stroke-width: 0.8; stroke-linejoin: miter; stroke-linecap: square"/>
   </g>
   <g id="patch_4">
    <path d="M 568.8 72.475 
L 568.8 7.2 
" style="fill: none; stroke: #ffffff; stroke-width: 0.8; stroke-linejoin: miter; stroke-linecap: square"/>
   </g>
   <g id="patch_5">
    <path d="M 57.4 72.475 
L 568.8 72.475 
" style="fill: none; stroke: #ffffff; stroke-width: 0.8; stroke-linejoin: miter; stroke-linecap: square"/>
   </g>
   <g id="patch_6">
    <path d="M 57.4 7.2 
L 568.8 7.2 
" style="fill: none; stroke: #ffffff; stroke-width: 0.8; stroke-linejoin: miter; stroke-linecap: square"/>
   </g>
  </g>
  <g id="axes_2">
   <g id="patch_7">
    <path d="M 57.4 245.275 
L 568.8 245.275 
L 568.8 122.4 
L 57.4 122.4 
L 57.4 245.275 
z
" style="fill: none"/>
   </g>
   <g id="line2d_31">
    <path d="M 57.4 228.834824 
L 65.51746 228.98104 
L 73.634921 229.097474 
L 81.752381 229.179012 
L 89.869841 229.214824 
L 97.987302 229.226519 
L 106.104762 229.263963 
L 114.222222 229.338101 
L 122.339683 229.489604 
L 130.457143 229.812174 
L 138.574603 230.401296 
L 146.692063 231.332005 
L 154.809524 232.514935 
L 162.926984 233.603839 
L 171.044444 234.097664 
L 179.161905 233.821632 
L 187.279365 233.06143 
L 195.396825 232.164086 
L 203.514286 231.337345 
L 211.631746 230.654112 
L 219.749206 230.162789 
L 227.866667 229.90188 
L 235.984127 229.873509 
L 244.101587 230.025534 
L 252.219048 230.220827 
L 260.336508 230.271744 
L 268.453968 230.075241 
L 276.571429 229.516244 
L 284.688889 228.451064 
L 292.806349 226.745407 
L 300.92381 224.27266 
L 309.04127 220.942035 
L 317.15873 216.679111 
L 325.27619 211.434177 
L 333.393651 205.213352 
L 341.511111 198.069004 
L 349.628571 190.134409 
L 357.746032 181.63641 
L 365.863492 172.910594 
L 373.980952 164.410946 
L 382.098413 156.674915 
L 390.215873 150.263329 
L 398.333333 145.662613 
L 406.450794 143.16734 
L 414.568254 142.864688 
L 422.685714 144.596194 
L 430.803175 148.062764 
L 438.920635 152.973348 
L 447.038095 158.803831 
L 455.155556 165.040301 
L 463.273016 171.417629 
L 471.390476 177.665204 
L 479.507937 183.538808 
L 487.625397 188.908657 
L 495.742857 193.702999 
L 503.860317 197.891169 
L 511.977778 201.477057 
L 520.095238 204.492785 
L 528.212698 206.983443 
L 536.330159 209.008521 
L 544.447619 210.633677 
L 552.565079 211.920078 
L 560.68254 212.924706 
L 568.8 213.701342 
" clip-path="url(#p6b8d5cf170)" style="fill: none; stroke-dasharray: 5.55,2.4; stroke-dashoffset: 0; stroke: #ff0000; stroke-width: 1.5"/>
   </g>
   <g id="line2d_32">
    <path d="M 57.4 230.975637 
L 65.51746 230.692745 
L 73.634921 230.365254 
L 81.752381 229.98082 
L 89.869841 229.525867 
L 97.987302 228.973085 
L 106.104762 228.282597 
L 114.222222 227.423628 
L 122.339683 226.352352 
L 130.457143 225.00372 
L 138.574603 223.306983 
L 146.692063 221.190524 
L 154.809524 218.629113 
L 162.926984 215.68306 
L 171.044444 212.491212 
L 179.161905 209.129387 
L 187.279365 205.527183 
L 195.396825 201.585132 
L 203.514286 197.247499 
L 211.631746 192.512524 
L 219.749206 187.408945 
L 227.866667 181.989109 
L 235.984127 176.333551 
L 244.101587 170.554048 
L 252.219048 164.798968 
L 260.336508 159.241861 
L 268.453968 154.043086 
L 276.571429 149.36742 
L 284.688889 145.382772 
L 292.806349 142.244986 
L 300.92381 140.092835 
L 309.04127 139.035876 
L 317.15873 139.155664 
L 325.27619 140.501011 
L 333.393651 143.07825 
L 341.511111 146.853629 
L 349.628571 151.744729 
L 357.746032 157.618484 
L 365.863492 164.288939 
L 373.980952 171.516663 
L 382.098413 179.021351 
L 390.215873 186.502867 
L 398.333333 193.675284 
L 406.450794 200.309319 
L 414.568254 206.244988 
L 422.685714 211.41109 
L 430.803175 215.798163 
L 438.920635 219.413879 
L 447.038095 222.362768 
L 455.155556 224.768498 
L 463.273016 226.692967 
L 471.390476 228.216915 
L 479.507937 229.427158 
L 487.625397 230.384227 
L 495.742857 231.138099 
L 503.860317 231.731165 
L 511.977778 232.197977 
L 520.095238 232.565258 
L 528.212698 232.855337 
L 536.330159 233.084285 
L 544.447619 233.263721 
L 552.565079 233.403784 
L 560.68254 233.512659 
L 568.8 233.596097 
" clip-path="url(#p6b8d5cf170)" style="fill: none; stroke-dasharray: 5.55,2.4; stroke-dashoffset: 0; stroke: #00ff00; stroke-width: 1.5"/>
   </g>
   <g id="line2d_33">
    <path d="M 57.4 217.506954 
L 65.51746 217.977127 
L 73.634921 218.361446 
L 81.752381 218.634531 
L 89.869841 218.769557 
L 97.987302 218.748204 
L 106.104762 218.561087 
L 114.222222 218.192237 
L 122.339683 217.640032 
L 130.457143 216.935631 
L 138.574603 216.149354 
L 146.692063 215.42045 
L 154.809524 214.928543 
L 162.926984 214.796518 
L 171.044444 214.880321 
L 179.161905 214.77746 
L 187.279365 214.27916 
L 195.396825 213.407664 
L 203.514286 212.30587 
L 211.631746 211.138778 
L 219.749206 210.011189 
L 227.866667 208.99558 
L 235.984127 208.158653 
L 244.101587 207.568209 
L 252.219048 207.305283 
L 260.336508 207.441096 
L 268.453968 207.976709 
L 276.571429 208.904243 
L 284.688889 210.215964 
L 292.806349 211.889599 
L 300.92381 213.892085 
L 309.04127 216.171766 
L 317.15873 218.667043 
L 325.27619 221.303074 
L 333.393651 223.98374 
L 341.511111 226.596851 
L 349.628571 229.011515 
L 357.746032 231.087352 
L 365.863492 232.689821 
L 373.980952 233.71358 
L 382.098413 234.111819 
L 390.215873 233.918075 
L 398.333333 233.249248 
L 406.450794 232.279408 
L 414.568254 231.201906 
L 422.685714 230.182697 
L 430.803175 229.343201 
L 438.920635 228.778872 
L 447.038095 228.484513 
L 455.155556 228.404316 
L 463.273016 228.519966 
L 471.390476 228.784399 
L 479.507937 229.133907 
L 487.625397 229.526897 
L 495.742857 229.930774 
L 503.860317 230.319936 
L 511.977778 230.676713 
L 520.095238 230.991706 
L 528.212698 231.259581 
L 536.330159 231.481251 
L 544.447619 231.661529 
L 552.565079 231.805182 
L 560.68254 231.917409 
L 568.8 232.004488 
" clip-path="url(#p6b8d5cf170)" style="fill: none; stroke-dasharray: 5.55,2.4; stroke-dashoffset: 0; stroke: #0000ff; stroke-width: 1.5"/>
   </g>
   <g id="line2d_34">
    <path d="M 57.4 218.753095 
L 65.51746 221.243648 
L 73.634921 224.211796 
L 81.752381 227.788706 
L 89.869841 232.06173 
L 97.987302 235.035417 
L 106.104762 235.035417 
L 114.222222 235.035417 
L 122.339683 235.035417 
L 130.457143 235.035417 
L 138.574603 235.035417 
L 146.692063 235.035417 
L 154.809524 235.035417 
L 162.926984 235.035417 
L 171.044444 235.035417 
L 179.161905 235.035417 
L 187.279365 235.035417 
L 195.396825 235.035417 
L 203.514286 235.035417 
L 211.631746 235.035417 
L 219.749206 235.035417 
L 227.866667 235.035417 
L 235.984127 235.035417 
L 244.101587 235.035417 
L 252.219048 235.035417 
L 260.336508 235.035417 
L 268.453968 235.035417 
L 276.571429 235.035417 
L 284.688889 235.035417 
L 292.806349 235.035417 
L 300.92381 235.035417 
L 309.04127 235.035417 
L 317.15873 232.473708 
L 325.27619 222.527495 
L 333.393651 211.277606 
L 341.511111 198.402216 
L 349.628571 183.513245 
L 357.746032 166.113068 
L 365.863492 145.545374 
L 373.980952 132.639583 
L 382.098413 132.639583 
L 390.215873 132.639583 
L 398.333333 132.639583 
L 406.450794 132.639583 
L 414.568254 132.639583 
L 422.685714 132.639583 
L 430.803175 132.639583 
L 438.920635 132.639583 
L 447.038095 132.639583 
L 455.155556 132.639583 
L 463.273016 132.639583 
L 471.390476 132.639583 
L 479.507937 132.639583 
L 487.625397 132.639583 
L 495.742857 132.639583 
L 503.860317 132.639583 
L 511.977778 132.639583 
L 520.095238 132.639583 
L 528.212698 132.639583 
L 536.330159 132.639583 
L 544.447619 132.639583 
L 552.565079 132.639583 
L 560.68254 132.639583 
L 568.8 132.639583 
" clip-path="url(#p6b8d5cf170)" style="fill: none; stroke: #ff0000; stroke-width: 1.5; stroke-linecap: square"/>
   </g>
   <g id="line2d_35">
    <path d="M 57.4 235.035417 
L 65.51746 235.035417 
L 73.634921 235.035417 
L 81.752381 235.035417 
L 89.869841 235.035417 
L 97.987302 232.572737 
L 106.104762 225.65984 
L 114.222222 217.459639 
L 122.339683 207.93637 
L 130.457143 196.807146 
L 138.574603 184.071972 
L 146.692063 169.776596 
L 154.809524 154.188741 
L 162.926984 137.467714 
L 171.044444 132.639583 
L 179.161905 132.639583 
L 187.279365 132.639583 
L 195.396825 132.639583 
L 203.514286 132.639583 
L 211.631746 132.639583 
L 219.749206 132.639583 
L 227.866667 132.639583 
L 235.984127 132.639583 
L 244.101587 132.639583 
L 252.219048 132.639583 
L 260.336508 132.639583 
L 268.453968 132.639583 
L 276.571429 132.639583 
L 284.688889 132.639583 
L 292.806349 132.639583 
L 300.92381 132.639583 
L 309.04127 132.639583 
L 317.15873 132.639583 
L 325.27619 132.639583 
L 333.393651 132.639583 
L 341.511111 132.639583 
L 349.628571 132.639583 
L 357.746032 132.639583 
L 365.863492 132.639583 
L 373.980952 143.138868 
L 382.098413 162.188844 
L 390.215873 176.998123 
L 398.333333 188.770699 
L 406.450794 198.300243 
L 414.568254 206.107543 
L 422.685714 212.578141 
L 430.803175 217.972925 
L 438.920635 222.387015 
L 447.038095 226.041247 
L 455.155556 229.161874 
L 463.273016 231.76131 
L 471.390476 233.900895 
L 479.507937 235.035417 
L 487.625397 235.035417 
L 495.742857 235.035417 
L 503.860317 235.035417 
L 511.977778 235.035417 
L 520.095238 235.035417 
L 528.212698 235.035417 
L 536.330159 235.035417 
L 544.447619 235.035417 
L 552.565079 235.035417 
L 560.68254 235.035417 
L 568.8 235.035417 
" clip-path="url(#p6b8d5cf170)" style="fill: none; stroke: #00ff00; stroke-width: 1.5; stroke-linecap: square"/>
   </g>
   <g id="line2d_36">
    <path d="M 57.4 132.639583 
L 65.51746 132.639583 
L 73.634921 132.639583 
L 81.752381 132.639583 
L 89.869841 132.639583 
L 97.987302 132.639583 
L 106.104762 132.639583 
L 114.222222 132.639583 
L 122.339683 132.639583 
L 130.457143 132.639583 
L 138.574603 132.639583 
L 146.692063 132.639583 
L 154.809524 132.639583 
L 162.926984 132.639583 
L 171.044444 143.961235 
L 179.161905 156.060886 
L 187.279365 165.186201 
L 195.396825 172.227427 
L 203.514286 177.869759 
L 211.631746 182.643442 
L 219.749206 186.771644 
L 227.866667 190.355543 
L 235.984127 193.505212 
L 244.101587 196.369037 
L 252.219048 199.168763 
L 260.336508 202.122979 
L 268.453968 205.274361 
L 276.571429 208.702178 
L 284.688889 212.557697 
L 292.806349 217.033754 
L 300.92381 222.409098 
L 309.04127 229.072842 
L 317.15873 235.035417 
L 325.27619 235.035417 
L 333.393651 235.035417 
L 341.511111 235.035417 
L 349.628571 235.035417 
L 357.746032 235.035417 
L 365.863492 235.035417 
L 373.980952 235.035417 
L 382.098413 235.035417 
L 390.215873 235.035417 
L 398.333333 235.035417 
L 406.450794 235.035417 
L 414.568254 235.035417 
L 422.685714 235.035417 
L 430.803175 235.035417 
L 438.920635 235.035417 
L 447.038095 235.035417 
L 455.155556 235.035417 
L 463.273016 235.035417 
L 471.390476 235.035417 
L 479.507937 234.378889 
L 487.625397 232.916876 
L 495.742857 231.731262 
L 503.860317 230.763565 
L 511.977778 229.963361 
L 520.095238 229.29435 
L 528.212698 228.718356 
L 536.330159 228.216297 
L 544.447619 227.784605 
L 552.565079 227.414932 
L 560.68254 227.100143 
L 568.8 226.84246 
" clip-path="url(#p6b8d5cf170)" style="fill: none; stroke: #0000ff; stroke-width: 1.5; stroke-linecap: square"/>
   </g>
   <g id="matplotlib.axis_3">
    <g id="xtick_29">
     <g id="line2d_37">
      <g>
       <use xlink:href="#m88007fe0de" x="121.325" y="245.275" style="fill: #ffffff; stroke: #ffffff; stroke-width: 0.8"/>
      </g>
     </g>
     <g id="text_11">
      <!-- 475 -->
      <g style="fill: #ffffff" transform="translate(113.825 259.214063)scale(0.1 -0.1)">
       <use xlink:href="#CMUSerif-Roman-34"/>
       <use xlink:href="#CMUSerif-Roman-37" x="50"/>
       <use xlink:href="#CMUSerif-Roman-35" x="100"/>
      </g>
     </g>
    </g>
    <g id="xtick_30">
     <g id="line2d_38">
      <g>
       <use xlink:href="#m88007fe0de" x="134.11" y="245.275" style="fill: #ffffff; stroke: #ffffff; stroke-width: 0.8"/>
      </g>
     </g>
    </g>
    <g id="xtick_31">
     <g id="line2d_39">
      <g>
       <use xlink:href="#m88007fe0de" x="146.895" y="245.275" style="fill: #ffffff; stroke: #ffffff; stroke-width: 0.8"/>
      </g>
     </g>
    </g>
    <g id="xtick_32">
     <g id="line2d_40">
      <g>
       <use xlink:href="#m88007fe0de" x="159.68" y="245.275" style="fill: #ffffff; stroke: #ffffff; stroke-width: 0.8"/>
      </g>
     </g>
    </g>
    <g id="xtick_33">
     <g id="line2d_41">
      <g>
       <use xlink:href="#m88007fe0de" x="172.465" y="245.275" style="fill: #ffffff; stroke: #ffffff; stroke-width: 0.8"/>
      </g>
     </g>
    </g>
    <g id="xtick_34">
     <g id="line2d_42">
      <g>
       <use xlink:href="#m88007fe0de" x="185.25" y="245.275" style="fill: #ffffff; stroke: #ffffff; stroke-width: 0.8"/>
      </g>
     </g>
     <g id="text_12">
      <!-- 500 -->
      <g style="fill: #ffffff" transform="translate(177.75 259.214063)scale(0.1 -0.1)">
       <use xlink:href="#CMUSerif-Roman-35"/>
       <use xlink:href="#CMUSerif-Roman-30" x="50"/>
       <use xlink:href="#CMUSerif-Roman-30" x="100"/>
      </g>
     </g>
    </g>
    <g id="xtick_35">
     <g id="line2d_43">
      <g>
       <use xlink:href="#m88007fe0de" x="198.035" y="245.275" style="fill: #ffffff; stroke: #ffffff; stroke-width: 0.8"/>
      </g>
     </g>
    </g>
    <g id="xtick_36">
     <g id="line2d_44">
      <g>
       <use xlink:href="#m88007fe0de" x="210.82" y="245.275" style="fill: #ffffff; stroke: #ffffff; stroke-width: 0.8"/>
      </g>
     </g>
    </g>
    <g id="xtick_37">
     <g id="line2d_45">
      <g>
       <use xlink:href="#m88007fe0de" x="223.605" y="245.275" style="fill: #ffffff; stroke: #ffffff; stroke-width: 0.8"/>
      </g>
     </g>
    </g>
    <g id="xtick_38">
     <g id="line2d_46">
      <g>
       <use xlink:href="#m88007fe0de" x="236.39" y="245.275" style="fill: #ffffff; stroke: #ffffff; stroke-width: 0.8"/>
      </g>
     </g>
    </g>
    <g id="xtick_39">
     <g id="line2d_47">
      <g>
       <use xlink:href="#m88007fe0de" x="249.175" y="245.275" style="fill: #ffffff; stroke: #ffffff; stroke-width: 0.8"/>
      </g>
     </g>
     <g id="text_13">
      <!-- 525 -->
      <g style="fill: #ffffff" transform="translate(241.675 259.214063)scale(0.1 -0.1)">
       <use xlink:href="#CMUSerif-Roman-35"/>
       <use xlink:href="#CMUSerif-Roman-32" x="50"/>
       <use xlink:href="#CMUSerif-Roman-35" x="100"/>
      </g>
     </g>
    </g>
    <g id="xtick_40">
     <g id="line2d_48">
      <g>
       <use xlink:href="#m88007fe0de" x="261.96" y="245.275" style="fill: #ffffff; stroke: #ffffff; stroke-width: 0.8"/>
      </g>
     </g>
    </g>
    <g id="xtick_41">
     <g id="line2d_49">
      <g>
       <use xlink:href="#m88007fe0de" x="274.745" y="245.275" style="fill: #ffffff; stroke: #ffffff; stroke-width: 0.8"/>
      </g>
     </g>
    </g>
    <g id="xtick_42">
     <g id="line2d_50">
      <g>
       <use xlink:href="#m88007fe0de" x="287.53" y="245.275" style="fill: #ffffff; stroke: #ffffff; stroke-width: 0.8"/>
      </g>
     </g>
    </g>
    <g id="xtick_43">
     <g id="line2d_51">
      <g>
       <use xlink:href="#m88007fe0de" x="300.315" y="245.275" style="fill: #ffffff; stroke: #ffffff; stroke-width: 0.8"/>
      </g>
     </g>
    </g>
    <g id="xtick_44">
     <g id="line2d_52">
      <g>
       <use xlink:href="#m88007fe0de" x="313.1" y="245.275" style="fill: #ffffff; stroke: #ffffff; stroke-width: 0.8"/>
      </g>
     </g>
     <g id="text_14">
      <!-- 550 -->
      <g style="fill: #ffffff" transform="translate(305.6 259.214063)scale(0.1 -0.1)">
       <use xlink:href="#CMUSerif-Roman-35"/>
       <use xlink:href="#CMUSerif-Roman-35" x="50"/>
       <use xlink:href="#CMUSerif-Roman-30" x="100"/>
      </g>
     </g>
    </g>
    <g id="xtick_45">
     <g id="line2d_53">
      <g>
       <use xlink:href="#m88007fe0de" x="325.885" y="245.275" style="fill: #ffffff; stroke: #ffffff; stroke-width: 0.8"/>
      </g>
     </g>
    </g>
    <g id="xtick_46">
     <g id="line2d_54">
      <g>
       <use xlink:href="#m88007fe0de" x="338.67" y="245.275" style="fill: #ffffff; stroke: #ffffff; stroke-width: 0.8"/>
      </g>
     </g>
    </g>
    <g id="xtick_47">
     <g id="line2d_55">
      <g>
       <use xlink:href="#m88007fe0de" x="351.455" y="245.275" style="fill: #ffffff; stroke: #ffffff; stroke-width: 0.8"/>
      </g>
     </g>
    </g>
    <g id="xtick_48">
     <g id="line2d_56">
      <g>
       <use xlink:href="#m88007fe0de" x="364.24" y="245.275" style="fill: #ffffff; stroke: #ffffff; stroke-width: 0.8"/>
      </g>
     </g>
    </g>
    <g id="xtick_49">
     <g id="line2d_57">
      <g>
       <use xlink:href="#m88007fe0de" x="377.025" y="245.275" style="fill: #ffffff; stroke: #ffffff; stroke-width: 0.8"/>
      </g>
     </g>
     <g id="text_15">
      <!-- 575 -->
      <g style="fill: #ffffff" transform="translate(369.525 259.214063)scale(0.1 -0.1)">
       <use xlink:href="#CMUSerif-Roman-35"/>
       <use xlink:href="#CMUSerif-Roman-37" x="50"/>
       <use xlink:href="#CMUSerif-Roman-35" x="100"/>
      </g>
     </g>
    </g>
    <g id="xtick_50">
     <g id="line2d_58">
      <g>
       <use xlink:href="#m88007fe0de" x="389.81" y="245.275" style="fill: #ffffff; stroke: #ffffff; stroke-width: 0.8"/>
      </g>
     </g>
    </g>
    <g id="xtick_51">
     <g id="line2d_59">
      <g>
       <use xlink:href="#m88007fe0de" x="402.595" y="245.275" style="fill: #ffffff; stroke: #ffffff; stroke-width: 0.8"/>
      </g>
     </g>
    </g>
    <g id="xtick_52">
     <g id="line2d_60">
      <g>
       <use xlink:href="#m88007fe0de" x="415.38" y="245.275" style="fill: #ffffff; stroke: #ffffff; stroke-width: 0.8"/>
      </g>
     </g>
    </g>
    <g id="xtick_53">
     <g id="line2d_61">
      <g>
       <use xlink:href="#m88007fe0de" x="428.165" y="245.275" style="fill: #ffffff; stroke: #ffffff; stroke-width: 0.8"/>
      </g>
     </g>
    </g>
    <g id="xtick_54">
     <g id="line2d_62">
      <g>
       <use xlink:href="#m88007fe0de" x="440.95" y="245.275" style="fill: #ffffff; stroke: #ffffff; stroke-width: 0.8"/>
      </g>
     </g>
     <g id="text_16">
      <!-- 600 -->
      <g style="fill: #ffffff" transform="translate(433.45 259.214063)scale(0.1 -0.1)">
       <use xlink:href="#CMUSerif-Roman-36"/>
       <use xlink:href="#CMUSerif-Roman-30" x="50"/>
       <use xlink:href="#CMUSerif-Roman-30" x="100"/>
      </g>
     </g>
    </g>
    <g id="xtick_55">
     <g id="line2d_63">
      <g>
       <use xlink:href="#m88007fe0de" x="466.52" y="245.275" style="fill: #ffffff; stroke: #ffffff; stroke-width: 0.8"/>
      </g>
     </g>
    </g>
    <g id="xtick_56">
     <g id="line2d_64">
      <g>
       <use xlink:href="#m88007fe0de" x="504.875" y="245.275" style="fill: #ffffff; stroke: #ffffff; stroke-width: 0.8"/>
      </g>
     </g>
     <g id="text_17">
      <!-- 625 -->
      <g style="fill: #ffffff" transform="translate(497.375 259.214063)scale(0.1 -0.1)">
       <use xlink:href="#CMUSerif-Roman-36"/>
       <use xlink:href="#CMUSerif-Roman-32" x="50"/>
       <use xlink:href="#CMUSerif-Roman-35" x="100"/>
      </g>
     </g>
    </g>
    <g id="text_18">
     <!-- Wavelength $\lambda$ ($nm$) -->
     <g style="fill: #ffffff" transform="translate(260.78 274.153125)scale(0.12 -0.12)">
      <use xlink:href="#CMUSerif-Roman-57"/>
      <use xlink:href="#CMUSerif-Roman-61" transform="translate(102.685547 0)"/>
      <use xlink:href="#CMUSerif-Roman-76" transform="translate(152.685547 0)"/>
      <use xlink:href="#CMUSerif-Roman-65" transform="translate(205.371094 0)"/>
      <use xlink:href="#CMUSerif-Roman-6c" transform="translate(249.755859 0)"/>
      <use xlink:href="#CMUSerif-Roman-65" transform="translate(277.441406 0)"/>
      <use xlink:href="#CMUSerif-Roman-6e" transform="translate(321.826172 0)"/>
      <use xlink:href="#CMUSerif-Roman-67" transform="translate(377.294922 0)"/>
      <use xlink:href="#CMUSerif-Roman-74" transform="translate(427.294922 0)"/>
      <use xlink:href="#CMUSerif-Roman-68" transform="translate(466.064453 0)"/>
      <use xlink:href="#CMUSerif-Roman-20" transform="translate(521.533203 0)"/>
      <use xlink:href="#Cmmi10-b8" transform="translate(554.785156 0)"/>
      <use xlink:href="#CMUSerif-Roman-20" transform="translate(613.085938 0)"/>
      <use xlink:href="#CMUSerif-Roman-28" transform="translate(646.337891 0)"/>
      <use xlink:href="#Cmmi10-6e" transform="translate(685.107422 0)"/>
      <use xlink:href="#Cmmi10-6d" transform="translate(745.117188 0)"/>
      <use xlink:href="#CMUSerif-Roman-29" transform="translate(832.910156 0)"/>
     </g>
    </g>
   </g>
   <g id="matplotlib.axis_4">
    <g id="ytick_3">
     <g id="line2d_65">
      <g>
       <use xlink:href="#mf6cfee8fbd" x="57.4" y="235.035417" style="fill: #ffffff; stroke: #ffffff; stroke-width: 0.8"/>
      </g>
     </g>
     <g id="text_19">
      <!-- 0.00 -->
      <g style="fill: #ffffff" transform="translate(32.621875 238.504948)scale(0.1 -0.1)">
       <defs>
        <path id="CMUSerif-Roman-2e" d="M 641 103 
Q 544 206 544 340 
Q 544 475 641 573 
Q 738 672 884 672 
Q 1025 672 1120 580 
Q 1216 488 1216 339 
Q 1216 191 1114 95 
Q 1013 0 884 0 
Q 738 0 641 103 
z
" transform="scale(0.015625)"/>
       </defs>
       <use xlink:href="#CMUSerif-Roman-30"/>
       <use xlink:href="#CMUSerif-Roman-2e" x="50"/>
       <use xlink:href="#CMUSerif-Roman-30" x="77.783203"/>
       <use xlink:href="#CMUSerif-Roman-30" x="127.783203"/>
      </g>
     </g>
    </g>
    <g id="ytick_4">
     <g id="line2d_66">
      <g>
       <use xlink:href="#mf6cfee8fbd" x="57.4" y="209.436458" style="fill: #ffffff; stroke: #ffffff; stroke-width: 0.8"/>
      </g>
     </g>
     <g id="text_20">
      <!-- 0.25 -->
      <g style="fill: #ffffff" transform="translate(32.621875 212.90599)scale(0.1 -0.1)">
       <use xlink:href="#CMUSerif-Roman-30"/>
       <use xlink:href="#CMUSerif-Roman-2e" x="50"/>
       <use xlink:href="#CMUSerif-Roman-32" x="77.783203"/>
       <use xlink:href="#CMUSerif-Roman-35" x="127.783203"/>
      </g>
     </g>
    </g>
    <g id="ytick_5">
     <g id="line2d_67">
      <g>
       <use xlink:href="#mf6cfee8fbd" x="57.4" y="183.8375" style="fill: #ffffff; stroke: #ffffff; stroke-width: 0.8"/>
      </g>
     </g>
     <g id="text_21">
      <!-- 0.50 -->
      <g style="fill: #ffffff" transform="translate(32.621875 187.307031)scale(0.1 -0.1)">
       <use xlink:href="#CMUSerif-Roman-30"/>
       <use xlink:href="#CMUSerif-Roman-2e" x="50"/>
       <use xlink:href="#CMUSerif-Roman-35" x="77.783203"/>
       <use xlink:href="#CMUSerif-Roman-30" x="127.783203"/>
      </g>
     </g>
    </g>
    <g id="ytick_6">
     <g id="line2d_68">
      <g>
       <use xlink:href="#mf6cfee8fbd" x="57.4" y="158.238542" style="fill: #ffffff; stroke: #ffffff; stroke-width: 0.8"/>
      </g>
     </g>
     <g id="text_22">
      <!-- 0.75 -->
      <g style="fill: #ffffff" transform="translate(32.621875 161.708073)scale(0.1 -0.1)">
       <use xlink:href="#CMUSerif-Roman-30"/>
       <use xlink:href="#CMUSerif-Roman-2e" x="50"/>
       <use xlink:href="#CMUSerif-Roman-37" x="77.783203"/>
       <use xlink:href="#CMUSerif-Roman-35" x="127.783203"/>
      </g>
     </g>
    </g>
    <g id="ytick_7">
     <g id="line2d_69">
      <g>
       <use xlink:href="#mf6cfee8fbd" x="57.4" y="132.639583" style="fill: #ffffff; stroke: #ffffff; stroke-width: 0.8"/>
      </g>
     </g>
     <g id="text_23">
      <!-- 1.00 -->
      <g style="fill: #ffffff" transform="translate(32.621875 136.109115)scale(0.1 -0.1)">
       <defs>
        <path id="CMUSerif-Roman-31" d="M 569 3653 
L 569 3853 
Q 1338 3853 1734 4263 
Q 1844 4263 1862 4238 
Q 1881 4213 1881 4097 
L 1881 506 
Q 1881 316 1975 256 
Q 2069 197 2478 197 
L 2681 197 
L 2681 0 
Q 2456 19 1643 19 
Q 831 19 609 0 
L 609 197 
L 813 197 
Q 1216 197 1312 255 
Q 1409 313 1409 506 
L 1409 3822 
Q 1075 3653 569 3653 
z
" transform="scale(0.015625)"/>
       </defs>
       <use xlink:href="#CMUSerif-Roman-31"/>
       <use xlink:href="#CMUSerif-Roman-2e" x="50"/>
       <use xlink:href="#CMUSerif-Roman-30" x="77.783203"/>
       <use xlink:href="#CMUSerif-Roman-30" x="127.783203"/>
      </g>
     </g>
    </g>
    <g id="text_24">
     <!-- Color Value -->
     <g style="fill: #ffffff" transform="translate(26.295 215.320625)rotate(-90)scale(0.12 -0.12)">
      <defs>
       <path id="CMUSerif-Roman-43" d="M 359 2188 
Q 359 3153 1018 3833 
Q 1678 4513 2584 4513 
Q 2866 4513 3116 4409 
Q 3366 4306 3481 4217 
Q 3597 4128 3763 3963 
L 4084 4434 
Q 4134 4513 4186 4513 
Q 4238 4513 4247 4483 
Q 4256 4453 4256 4359 
L 4256 2841 
Q 4256 2738 4243 2713 
Q 4231 2688 4153 2688 
Q 4091 2688 4077 2706 
Q 4063 2725 4050 2797 
Q 3953 3488 3570 3900 
Q 3188 4313 2656 4313 
Q 2503 4313 2333 4278 
Q 2163 4244 1917 4112 
Q 1672 3981 1483 3764 
Q 1294 3547 1156 3136 
Q 1019 2725 1019 2181 
Q 1019 1644 1156 1231 
Q 1294 819 1483 605 
Q 1672 391 1917 259 
Q 2163 128 2336 92 
Q 2509 56 2663 56 
Q 3213 56 3634 447 
Q 4056 838 4097 1497 
Q 4103 1528 4103 1542 
Q 4103 1556 4109 1572 
Q 4116 1588 4131 1594 
Q 4147 1600 4172 1600 
Q 4256 1600 4256 1491 
Q 4256 881 3789 370 
Q 3322 -141 2584 -141 
Q 1675 -141 1017 534 
Q 359 1209 359 2188 
z
" transform="scale(0.015625)"/>
       <path id="CMUSerif-Roman-56" d="M 122 4172 
L 122 4372 
Q 813 4353 934 4353 
Q 1619 4353 1850 4372 
L 1850 4172 
Q 1325 4172 1325 3988 
Q 1325 3963 1363 3872 
L 2584 641 
L 3756 3725 
Q 3788 3822 3788 3853 
Q 3788 3981 3670 4073 
Q 3553 4166 3322 4172 
L 3322 4372 
Q 3822 4353 4050 4353 
Q 4375 4353 4672 4372 
L 4672 4172 
Q 4134 4166 3975 3744 
L 2547 -19 
Q 2522 -97 2497 -119 
Q 2472 -141 2394 -141 
Q 2331 -141 2298 -116 
Q 2266 -91 2234 0 
L 750 3928 
Q 688 4100 575 4136 
Q 463 4172 122 4172 
z
" transform="scale(0.015625)"/>
      </defs>
      <use xlink:href="#CMUSerif-Roman-43"/>
      <use xlink:href="#CMUSerif-Roman-6f" x="72.167969"/>
      <use xlink:href="#CMUSerif-Roman-6c" x="122.167969"/>
      <use xlink:href="#CMUSerif-Roman-6f" x="149.853516"/>
      <use xlink:href="#CMUSerif-Roman-72" x="199.853516"/>
      <use xlink:href="#CMUSerif-Roman-20" x="238.916016"/>
      <use xlink:href="#CMUSerif-Roman-56" x="272.167969"/>
      <use xlink:href="#CMUSerif-Roman-61" x="347.167969"/>
      <use xlink:href="#CMUSerif-Roman-6c" x="397.167969"/>
      <use xlink:href="#CMUSerif-Roman-75" x="424.853516"/>
      <use xlink:href="#CMUSerif-Roman-65" x="480.322266"/>
     </g>
    </g>
   </g>
   <g id="patch_8">
    <path d="M 57.4 245.275 
L 57.4 122.4 
" style="fill: none; stroke: #ffffff; stroke-width: 0.8; stroke-linejoin: miter; stroke-linecap: square"/>
   </g>
   <g id="patch_9">
    <path d="M 568.8 245.275 
L 568.8 122.4 
" style="fill: none; stroke: #ffffff; stroke-width: 0.8; stroke-linejoin: miter; stroke-linecap: square"/>
   </g>
   <g id="patch_10">
    <path d="M 57.4 245.275 
L 568.8 245.275 
" style="fill: none; stroke: #ffffff; stroke-width: 0.8; stroke-linejoin: miter; stroke-linecap: square"/>
   </g>
   <g id="patch_11">
    <path d="M 57.4 122.4 
L 568.8 122.4 
" style="fill: none; stroke: #ffffff; stroke-width: 0.8; stroke-linejoin: miter; stroke-linecap: square"/>
   </g>
   <g id="legend_1">
    <g id="patch_12">
     <path d="M 478.8575 210.544062 
L 561.8 210.544062 
Q 563.8 210.544062 563.8 208.544062 
L 563.8 129.4 
Q 563.8 127.4 561.8 127.4 
L 478.8575 127.4 
Q 476.8575 127.4 476.8575 129.4 
L 476.8575 208.544062 
Q 476.8575 210.544062 478.8575 210.544062 
z
" style="opacity: 0.8; stroke: #cccccc; stroke-linejoin: miter"/>
    </g>
    <g id="text_25">
     <!-- Saturated Red -->
     <g style="fill: #ffffff" transform="translate(487.414531 138.4)scale(0.07 -0.07)">
      <defs>
       <path id="CMUSerif-Roman-52" d="M 225 0 
L 225 197 
L 378 197 
Q 725 197 804 255 
Q 884 313 884 500 
L 884 3872 
Q 884 4056 803 4114 
Q 722 4172 378 4172 
L 225 4172 
L 225 4372 
L 2234 4372 
Q 2931 4372 3417 4030 
Q 3903 3688 3903 3219 
Q 3903 2859 3587 2578 
Q 3272 2297 2784 2175 
Q 3419 1956 3566 1434 
L 3647 922 
Q 3672 738 3689 644 
Q 3706 550 3734 422 
Q 3763 294 3792 233 
Q 3822 172 3865 108 
Q 3909 44 3967 22 
Q 4025 0 4103 0 
Q 4250 0 4375 131 
Q 4500 263 4525 569 
Q 4538 672 4603 672 
Q 4684 672 4684 569 
Q 4684 478 4659 373 
Q 4634 269 4573 147 
Q 4513 25 4381 -58 
Q 4250 -141 4078 -141 
Q 3578 -141 3272 128 
Q 3144 244 3086 394 
Q 3028 544 3018 662 
Q 3009 781 3009 1044 
Q 3009 1416 2970 1578 
Q 2931 1741 2766 1900 
Q 2541 2119 2169 2119 
L 1434 2119 
L 1434 500 
Q 1434 316 1514 256 
Q 1594 197 1941 197 
L 2094 197 
L 2094 0 
Q 1863 19 1159 19 
Q 456 19 225 0 
z
M 1434 2259 
L 2144 2259 
Q 2484 2259 2714 2342 
Q 2944 2425 3053 2575 
Q 3163 2725 3203 2876 
Q 3244 3028 3244 3219 
Q 3244 3444 3194 3612 
Q 3144 3781 3034 3881 
Q 2925 3981 2815 4045 
Q 2706 4109 2537 4134 
Q 2369 4159 2253 4165 
Q 2138 4172 1953 4172 
Q 1641 4172 1575 4159 
Q 1503 4153 1475 4118 
Q 1447 4084 1440 4045 
Q 1434 4006 1434 3916 
L 1434 2259 
z
" transform="scale(0.015625)"/>
      </defs>
      <use xlink:href="#CMUSerif-Roman-53"/>
      <use xlink:href="#CMUSerif-Roman-61" x="55.46875"/>
      <use xlink:href="#CMUSerif-Roman-74" x="105.46875"/>
      <use xlink:href="#CMUSerif-Roman-75" x="144.238281"/>
      <use xlink:href="#CMUSerif-Roman-72" x="199.707031"/>
      <use xlink:href="#CMUSerif-Roman-61" x="238.769531"/>
      <use xlink:href="#CMUSerif-Roman-74" x="288.769531"/>
      <use xlink:href="#CMUSerif-Roman-65" x="327.539062"/>
      <use xlink:href="#CMUSerif-Roman-64" x="371.923828"/>
      <use xlink:href="#CMUSerif-Roman-20" x="427.392578"/>
      <use xlink:href="#CMUSerif-Roman-52" x="460.644531"/>
      <use xlink:href="#CMUSerif-Roman-65" x="534.228516"/>
      <use xlink:href="#CMUSerif-Roman-64" x="578.613281"/>
     </g>
    </g>
    <g id="line2d_70">
     <path d="M 539.8 134.9 
L 549.8 134.9 
L 559.8 134.9 
" style="fill: none; stroke: #ff0000; stroke-width: 1.5; stroke-linecap: square"/>
    </g>
    <g id="text_26">
     <!-- Smoothed Red -->
     <g style="fill: #ffffff" transform="translate(487.035 151.757344)scale(0.07 -0.07)">
      <use xlink:href="#CMUSerif-Roman-53"/>
      <use xlink:href="#CMUSerif-Roman-6d" x="55.46875"/>
      <use xlink:href="#CMUSerif-Roman-6f" x="138.720703"/>
      <use xlink:href="#CMUSerif-Roman-6f" x="188.720703"/>
      <use xlink:href="#CMUSerif-Roman-74" x="238.720703"/>
      <use xlink:href="#CMUSerif-Roman-68" x="277.490234"/>
      <use xlink:href="#CMUSerif-Roman-65" x="332.958984"/>
      <use xlink:href="#CMUSerif-Roman-64" x="377.34375"/>
      <use xlink:href="#CMUSerif-Roman-20" x="432.8125"/>
      <use xlink:href="#CMUSerif-Roman-52" x="466.064453"/>
      <use xlink:href="#CMUSerif-Roman-65" x="539.648438"/>
      <use xlink:href="#CMUSerif-Roman-64" x="584.033203"/>
     </g>
    </g>
    <g id="line2d_71">
     <path d="M 539.8 148.257344 
L 549.8 148.257344 
L 559.8 148.257344 
" style="fill: none; stroke-dasharray: 5.55,2.4; stroke-dashoffset: 0; stroke: #ff0000; stroke-width: 1.5"/>
    </g>
    <g id="text_27">
     <!-- Saturated Green -->
     <g style="fill: #ffffff" transform="translate(481.237031 165.114687)scale(0.07 -0.07)">
      <defs>
       <path id="CMUSerif-Roman-47" d="M 1017 537 
Q 359 1216 359 2189 
Q 359 3163 1021 3838 
Q 1684 4513 2584 4513 
Q 2809 4513 3001 4461 
Q 3194 4409 3347 4307 
Q 3500 4206 3579 4139 
Q 3659 4072 3769 3963 
L 4091 4434 
Q 4141 4513 4192 4513 
Q 4244 4513 4253 4483 
Q 4263 4453 4263 4359 
L 4263 2841 
Q 4263 2738 4250 2713 
Q 4238 2688 4159 2688 
Q 4097 2688 4084 2706 
Q 4072 2725 4056 2797 
Q 3959 3488 3573 3900 
Q 3188 4313 2663 4313 
Q 2509 4313 2339 4278 
Q 2169 4244 1920 4112 
Q 1672 3981 1483 3767 
Q 1294 3553 1156 3142 
Q 1019 2731 1019 2188 
Q 1019 1650 1156 1237 
Q 1294 825 1486 611 
Q 1678 397 1929 262 
Q 2181 128 2361 92 
Q 2541 56 2700 56 
Q 2809 56 2937 79 
Q 3066 103 3258 173 
Q 3450 244 3572 412 
Q 3694 581 3694 831 
L 3694 1241 
Q 3694 1431 3600 1490 
Q 3506 1550 3097 1550 
L 2894 1550 
L 2894 1747 
Q 3125 1728 3922 1728 
Q 3994 1728 4703 1747 
L 4703 1550 
Q 4397 1550 4330 1504 
Q 4263 1459 4263 1269 
L 4263 153 
Q 4263 6 4206 6 
Q 4156 6 4007 150 
Q 3859 294 3794 403 
Q 3641 134 3308 -3 
Q 2975 -141 2597 -141 
Q 1675 -141 1017 537 
z
" transform="scale(0.015625)"/>
      </defs>
      <use xlink:href="#CMUSerif-Roman-53"/>
      <use xlink:href="#CMUSerif-Roman-61" x="55.46875"/>
      <use xlink:href="#CMUSerif-Roman-74" x="105.46875"/>
      <use xlink:href="#CMUSerif-Roman-75" x="144.238281"/>
      <use xlink:href="#CMUSerif-Roman-72" x="199.707031"/>
      <use xlink:href="#CMUSerif-Roman-61" x="238.769531"/>
      <use xlink:href="#CMUSerif-Roman-74" x="288.769531"/>
      <use xlink:href="#CMUSerif-Roman-65" x="327.539062"/>
      <use xlink:href="#CMUSerif-Roman-64" x="371.923828"/>
      <use xlink:href="#CMUSerif-Roman-20" x="427.392578"/>
      <use xlink:href="#CMUSerif-Roman-47" x="460.644531"/>
      <use xlink:href="#CMUSerif-Roman-72" x="539.013672"/>
      <use xlink:href="#CMUSerif-Roman-65" x="578.076172"/>
      <use xlink:href="#CMUSerif-Roman-65" x="622.460938"/>
      <use xlink:href="#CMUSerif-Roman-6e" x="666.845703"/>
     </g>
    </g>
    <g id="line2d_72">
     <path d="M 539.8 161.614687 
L 549.8 161.614687 
L 559.8 161.614687 
" style="fill: none; stroke: #00ff00; stroke-width: 1.5; stroke-linecap: square"/>
    </g>
    <g id="text_28">
     <!-- Smoothed Green -->
     <g style="fill: #ffffff" transform="translate(480.8575 178.472031)scale(0.07 -0.07)">
      <use xlink:href="#CMUSerif-Roman-53"/>
      <use xlink:href="#CMUSerif-Roman-6d" x="55.46875"/>
      <use xlink:href="#CMUSerif-Roman-6f" x="138.720703"/>
      <use xlink:href="#CMUSerif-Roman-6f" x="188.720703"/>
      <use xlink:href="#CMUSerif-Roman-74" x="238.720703"/>
      <use xlink:href="#CMUSerif-Roman-68" x="277.490234"/>
      <use xlink:href="#CMUSerif-Roman-65" x="332.958984"/>
      <use xlink:href="#CMUSerif-Roman-64" x="377.34375"/>
      <use xlink:href="#CMUSerif-Roman-20" x="432.8125"/>
      <use xlink:href="#CMUSerif-Roman-47" x="466.064453"/>
      <use xlink:href="#CMUSerif-Roman-72" x="544.433594"/>
      <use xlink:href="#CMUSerif-Roman-65" x="583.496094"/>
      <use xlink:href="#CMUSerif-Roman-65" x="627.880859"/>
      <use xlink:href="#CMUSerif-Roman-6e" x="672.265625"/>
     </g>
    </g>
    <g id="line2d_73">
     <path d="M 539.8 174.972031 
L 549.8 174.972031 
L 559.8 174.972031 
" style="fill: none; stroke-dasharray: 5.55,2.4; stroke-dashoffset: 0; stroke: #00ff00; stroke-width: 1.5"/>
    </g>
    <g id="text_29">
     <!-- Saturated Blue -->
     <g style="fill: #ffffff" transform="translate(485.674375 191.829375)scale(0.07 -0.07)">
      <defs>
       <path id="CMUSerif-Roman-42" d="M 231 0 
L 231 197 
L 384 197 
Q 731 197 811 255 
Q 891 313 891 500 
L 891 3872 
Q 891 4056 809 4114 
Q 728 4172 384 4172 
L 231 4172 
L 231 4372 
L 2572 4372 
Q 3181 4372 3587 4045 
Q 3994 3719 3994 3291 
Q 3994 2938 3695 2656 
Q 3397 2375 2931 2284 
Q 3463 2228 3814 1908 
Q 4166 1588 4166 1172 
Q 4166 703 3762 351 
Q 3359 0 2741 0 
L 231 0 
z
M 1422 453 
Q 1422 288 1469 242 
Q 1516 197 1734 197 
L 2534 197 
Q 2994 197 3259 498 
Q 3525 800 3525 1178 
Q 3525 1556 3292 1879 
Q 3059 2203 2625 2203 
L 1422 2203 
L 1422 453 
z
M 1422 2344 
L 2350 2344 
Q 2844 2344 3108 2641 
Q 3372 2938 3372 3291 
Q 3372 3603 3161 3887 
Q 2950 4172 2528 4172 
L 1734 4172 
Q 1516 4172 1469 4128 
Q 1422 4084 1422 3916 
L 1422 2344 
z
" transform="scale(0.015625)"/>
      </defs>
      <use xlink:href="#CMUSerif-Roman-53"/>
      <use xlink:href="#CMUSerif-Roman-61" x="55.46875"/>
      <use xlink:href="#CMUSerif-Roman-74" x="105.46875"/>
      <use xlink:href="#CMUSerif-Roman-75" x="144.238281"/>
      <use xlink:href="#CMUSerif-Roman-72" x="199.707031"/>
      <use xlink:href="#CMUSerif-Roman-61" x="238.769531"/>
      <use xlink:href="#CMUSerif-Roman-74" x="288.769531"/>
      <use xlink:href="#CMUSerif-Roman-65" x="327.539062"/>
      <use xlink:href="#CMUSerif-Roman-64" x="371.923828"/>
      <use xlink:href="#CMUSerif-Roman-20" x="427.392578"/>
      <use xlink:href="#CMUSerif-Roman-42" x="460.644531"/>
      <use xlink:href="#CMUSerif-Roman-6c" x="531.396484"/>
      <use xlink:href="#CMUSerif-Roman-75" x="559.082031"/>
      <use xlink:href="#CMUSerif-Roman-65" x="614.550781"/>
     </g>
    </g>
    <g id="line2d_74">
     <path d="M 539.8 188.329375 
L 549.8 188.329375 
L 559.8 188.329375 
" style="fill: none; stroke: #0000ff; stroke-width: 1.5; stroke-linecap: square"/>
    </g>
    <g id="text_30">
     <!-- Smoothed Blue -->
     <g style="fill: #ffffff" transform="translate(485.294844 205.186719)scale(0.07 -0.07)">
      <use xlink:href="#CMUSerif-Roman-53"/>
      <use xlink:href="#CMUSerif-Roman-6d" x="55.46875"/>
      <use xlink:href="#CMUSerif-Roman-6f" x="138.720703"/>
      <use xlink:href="#CMUSerif-Roman-6f" x="188.720703"/>
      <use xlink:href="#CMUSerif-Roman-74" x="238.720703"/>
      <use xlink:href="#CMUSerif-Roman-68" x="277.490234"/>
      <use xlink:href="#CMUSerif-Roman-65" x="332.958984"/>
      <use xlink:href="#CMUSerif-Roman-64" x="377.34375"/>
      <use xlink:href="#CMUSerif-Roman-20" x="432.8125"/>
      <use xlink:href="#CMUSerif-Roman-42" x="466.064453"/>
      <use xlink:href="#CMUSerif-Roman-6c" x="536.816406"/>
      <use xlink:href="#CMUSerif-Roman-75" x="564.501953"/>
      <use xlink:href="#CMUSerif-Roman-65" x="619.970703"/>
     </g>
    </g>
    <g id="line2d_75">
     <path d="M 539.8 201.686719 
L 549.8 201.686719 
L 559.8 201.686719 
" style="fill: none; stroke-dasharray: 5.55,2.4; stroke-dashoffset: 0; stroke: #0000ff; stroke-width: 1.5"/>
    </g>
   </g>
  </g>
 </g>
 <defs>
  <clipPath id="p59dcebf34a">
   <rect x="57.4" y="7.2" width="511.4" height="65.275"/>
  </clipPath>
  <clipPath id="p6b8d5cf170">
   <rect x="57.4" y="122.4" width="511.4" height="122.875"/>
  </clipPath>
 </defs>
</svg>
