<?xml version="1.0" encoding="utf-8" standalone="no"?>
<!DOCTYPE svg PUBLIC "-//W3C//DTD SVG 1.1//EN"
  "http://www.w3.org/Graphics/SVG/1.1/DTD/svg11.dtd">
<svg height="648pt" version="1.1" viewBox="0 0 1152 648" width="1152pt" xmlns="http://www.w3.org/2000/svg" xmlns:xlink="http://www.w3.org/1999/xlink">
 <metadata>
  <rdf:RDF xmlns:cc="http://creativecommons.org/ns#" xmlns:dc="http://purl.org/dc/elements/1.1/" xmlns:rdf="http://www.w3.org/1999/02/22-rdf-syntax-ns#">
   <cc:Work>
    <dc:type rdf:resource="http://purl.org/dc/dcmitype/StillImage"/>
    <dc:date>2022-06-17T07:53:41.619765</dc:date>
    <dc:format>image/svg+xml</dc:format>
    <dc:creator>
     <cc:Agent>
      <dc:title>Matplotlib v3.4.2, https://matplotlib.org/</dc:title>
     </cc:Agent>
    </dc:creator>
   </cc:Work>
  </rdf:RDF>
 </metadata>
 <defs>
  <style type="text/css">*{stroke-linecap:butt;stroke-linejoin:round;}</style>
 </defs>
 <g id="figure_1">
  <g id="patch_1">
   <path d="M 0 648 
L 1152 648 
L 1152 0 
L 0 0 
z
" style="fill:#ffffff;"/>
  </g>
  <g id="axes_1">
   <g id="patch_2">
    <path d="M 50.87 600.28 
L 1139.148998 600.28 
L 1139.148998 62.504 
L 50.87 62.504 
z
" style="fill:none;"/>
   </g>
   <g id="matplotlib.axis_1">
    <g id="xtick_1">
     <g id="line2d_1">
      <defs>
       <path d="M 0 0 
L 0 -3.5 
" id="m9d6388fa42" style="stroke:#000000;stroke-width:0.8;"/>
      </defs>
      <g>
       <use style="stroke:#000000;stroke-width:0.8;" x="1120.585603" xlink:href="#m9d6388fa42" y="62.504"/>
      </g>
     </g>
     <g id="text_1">
      <!-- 14,000 -->
      <g transform="translate(1099.591228 53.008375)scale(0.12 -0.12)">
       <defs>
        <path d="M 794 531 
L 1825 531 
L 1825 4091 
L 703 3866 
L 703 4441 
L 1819 4666 
L 2450 4666 
L 2450 531 
L 3481 531 
L 3481 0 
L 794 0 
L 794 531 
z
" id="DejaVuSans-31" transform="scale(0.015625)"/>
        <path d="M 2419 4116 
L 825 1625 
L 2419 1625 
L 2419 4116 
z
M 2253 4666 
L 3047 4666 
L 3047 1625 
L 3713 1625 
L 3713 1100 
L 3047 1100 
L 3047 0 
L 2419 0 
L 2419 1100 
L 313 1100 
L 313 1709 
L 2253 4666 
z
" id="DejaVuSans-34" transform="scale(0.015625)"/>
        <path d="M 750 794 
L 1409 794 
L 1409 256 
L 897 -744 
L 494 -744 
L 750 256 
L 750 794 
z
" id="DejaVuSans-2c" transform="scale(0.015625)"/>
        <path d="M 2034 4250 
Q 1547 4250 1301 3770 
Q 1056 3291 1056 2328 
Q 1056 1369 1301 889 
Q 1547 409 2034 409 
Q 2525 409 2770 889 
Q 3016 1369 3016 2328 
Q 3016 3291 2770 3770 
Q 2525 4250 2034 4250 
z
M 2034 4750 
Q 2819 4750 3233 4129 
Q 3647 3509 3647 2328 
Q 3647 1150 3233 529 
Q 2819 -91 2034 -91 
Q 1250 -91 836 529 
Q 422 1150 422 2328 
Q 422 3509 836 4129 
Q 1250 4750 2034 4750 
z
" id="DejaVuSans-30" transform="scale(0.015625)"/>
       </defs>
       <use xlink:href="#DejaVuSans-31"/>
       <use x="63.623047" xlink:href="#DejaVuSans-34"/>
       <use x="127.246094" xlink:href="#DejaVuSans-2c"/>
       <use x="159.033203" xlink:href="#DejaVuSans-30"/>
       <use x="222.65625" xlink:href="#DejaVuSans-30"/>
       <use x="286.279297" xlink:href="#DejaVuSans-30"/>
      </g>
     </g>
    </g>
    <g id="xtick_2">
     <g id="line2d_2">
      <g>
       <use style="stroke:#000000;stroke-width:0.8;" x="965.89065" xlink:href="#m9d6388fa42" y="62.504"/>
      </g>
     </g>
     <g id="text_2">
      <!-- 15,000 -->
      <g transform="translate(944.896275 53.008375)scale(0.12 -0.12)">
       <defs>
        <path d="M 691 4666 
L 3169 4666 
L 3169 4134 
L 1269 4134 
L 1269 2991 
Q 1406 3038 1543 3061 
Q 1681 3084 1819 3084 
Q 2600 3084 3056 2656 
Q 3513 2228 3513 1497 
Q 3513 744 3044 326 
Q 2575 -91 1722 -91 
Q 1428 -91 1123 -41 
Q 819 9 494 109 
L 494 744 
Q 775 591 1075 516 
Q 1375 441 1709 441 
Q 2250 441 2565 725 
Q 2881 1009 2881 1497 
Q 2881 1984 2565 2268 
Q 2250 2553 1709 2553 
Q 1456 2553 1204 2497 
Q 953 2441 691 2322 
L 691 4666 
z
" id="DejaVuSans-35" transform="scale(0.015625)"/>
       </defs>
       <use xlink:href="#DejaVuSans-31"/>
       <use x="63.623047" xlink:href="#DejaVuSans-35"/>
       <use x="127.246094" xlink:href="#DejaVuSans-2c"/>
       <use x="159.033203" xlink:href="#DejaVuSans-30"/>
       <use x="222.65625" xlink:href="#DejaVuSans-30"/>
       <use x="286.279297" xlink:href="#DejaVuSans-30"/>
      </g>
     </g>
    </g>
    <g id="xtick_3">
     <g id="line2d_3">
      <g>
       <use style="stroke:#000000;stroke-width:0.8;" x="830.532566" xlink:href="#m9d6388fa42" y="62.504"/>
      </g>
     </g>
     <g id="text_3">
      <!-- 16,000 -->
      <g transform="translate(809.538191 53.008375)scale(0.12 -0.12)">
       <defs>
        <path d="M 2113 2584 
Q 1688 2584 1439 2293 
Q 1191 2003 1191 1497 
Q 1191 994 1439 701 
Q 1688 409 2113 409 
Q 2538 409 2786 701 
Q 3034 994 3034 1497 
Q 3034 2003 2786 2293 
Q 2538 2584 2113 2584 
z
M 3366 4563 
L 3366 3988 
Q 3128 4100 2886 4159 
Q 2644 4219 2406 4219 
Q 1781 4219 1451 3797 
Q 1122 3375 1075 2522 
Q 1259 2794 1537 2939 
Q 1816 3084 2150 3084 
Q 2853 3084 3261 2657 
Q 3669 2231 3669 1497 
Q 3669 778 3244 343 
Q 2819 -91 2113 -91 
Q 1303 -91 875 529 
Q 447 1150 447 2328 
Q 447 3434 972 4092 
Q 1497 4750 2381 4750 
Q 2619 4750 2861 4703 
Q 3103 4656 3366 4563 
z
" id="DejaVuSans-36" transform="scale(0.015625)"/>
       </defs>
       <use xlink:href="#DejaVuSans-31"/>
       <use x="63.623047" xlink:href="#DejaVuSans-36"/>
       <use x="127.246094" xlink:href="#DejaVuSans-2c"/>
       <use x="159.033203" xlink:href="#DejaVuSans-30"/>
       <use x="222.65625" xlink:href="#DejaVuSans-30"/>
       <use x="286.279297" xlink:href="#DejaVuSans-30"/>
      </g>
     </g>
    </g>
    <g id="xtick_4">
     <g id="line2d_4">
      <g>
       <use style="stroke:#000000;stroke-width:0.8;" x="711.098962" xlink:href="#m9d6388fa42" y="62.504"/>
      </g>
     </g>
     <g id="text_4">
      <!-- 17,000 -->
      <g transform="translate(690.104587 53.008375)scale(0.12 -0.12)">
       <defs>
        <path d="M 525 4666 
L 3525 4666 
L 3525 4397 
L 1831 0 
L 1172 0 
L 2766 4134 
L 525 4134 
L 525 4666 
z
" id="DejaVuSans-37" transform="scale(0.015625)"/>
       </defs>
       <use xlink:href="#DejaVuSans-31"/>
       <use x="63.623047" xlink:href="#DejaVuSans-37"/>
       <use x="127.246094" xlink:href="#DejaVuSans-2c"/>
       <use x="159.033203" xlink:href="#DejaVuSans-30"/>
       <use x="222.65625" xlink:href="#DejaVuSans-30"/>
       <use x="286.279297" xlink:href="#DejaVuSans-30"/>
      </g>
     </g>
    </g>
    <g id="xtick_5">
     <g id="line2d_5">
      <g>
       <use style="stroke:#000000;stroke-width:0.8;" x="604.935758" xlink:href="#m9d6388fa42" y="62.504"/>
      </g>
     </g>
     <g id="text_5">
      <!-- 18,000 -->
      <g transform="translate(583.941383 53.008375)scale(0.12 -0.12)">
       <defs>
        <path d="M 2034 2216 
Q 1584 2216 1326 1975 
Q 1069 1734 1069 1313 
Q 1069 891 1326 650 
Q 1584 409 2034 409 
Q 2484 409 2743 651 
Q 3003 894 3003 1313 
Q 3003 1734 2745 1975 
Q 2488 2216 2034 2216 
z
M 1403 2484 
Q 997 2584 770 2862 
Q 544 3141 544 3541 
Q 544 4100 942 4425 
Q 1341 4750 2034 4750 
Q 2731 4750 3128 4425 
Q 3525 4100 3525 3541 
Q 3525 3141 3298 2862 
Q 3072 2584 2669 2484 
Q 3125 2378 3379 2068 
Q 3634 1759 3634 1313 
Q 3634 634 3220 271 
Q 2806 -91 2034 -91 
Q 1263 -91 848 271 
Q 434 634 434 1313 
Q 434 1759 690 2068 
Q 947 2378 1403 2484 
z
M 1172 3481 
Q 1172 3119 1398 2916 
Q 1625 2713 2034 2713 
Q 2441 2713 2670 2916 
Q 2900 3119 2900 3481 
Q 2900 3844 2670 4047 
Q 2441 4250 2034 4250 
Q 1625 4250 1398 4047 
Q 1172 3844 1172 3481 
z
" id="DejaVuSans-38" transform="scale(0.015625)"/>
       </defs>
       <use xlink:href="#DejaVuSans-31"/>
       <use x="63.623047" xlink:href="#DejaVuSans-38"/>
       <use x="127.246094" xlink:href="#DejaVuSans-2c"/>
       <use x="159.033203" xlink:href="#DejaVuSans-30"/>
       <use x="222.65625" xlink:href="#DejaVuSans-30"/>
       <use x="286.279297" xlink:href="#DejaVuSans-30"/>
      </g>
     </g>
    </g>
    <g id="xtick_6">
     <g id="line2d_6">
      <g>
       <use style="stroke:#000000;stroke-width:0.8;" x="509.947629" xlink:href="#m9d6388fa42" y="62.504"/>
      </g>
     </g>
     <g id="text_6">
      <!-- 19,000 -->
      <g transform="translate(488.953254 53.008375)scale(0.12 -0.12)">
       <defs>
        <path d="M 703 97 
L 703 672 
Q 941 559 1184 500 
Q 1428 441 1663 441 
Q 2288 441 2617 861 
Q 2947 1281 2994 2138 
Q 2813 1869 2534 1725 
Q 2256 1581 1919 1581 
Q 1219 1581 811 2004 
Q 403 2428 403 3163 
Q 403 3881 828 4315 
Q 1253 4750 1959 4750 
Q 2769 4750 3195 4129 
Q 3622 3509 3622 2328 
Q 3622 1225 3098 567 
Q 2575 -91 1691 -91 
Q 1453 -91 1209 -44 
Q 966 3 703 97 
z
M 1959 2075 
Q 2384 2075 2632 2365 
Q 2881 2656 2881 3163 
Q 2881 3666 2632 3958 
Q 2384 4250 1959 4250 
Q 1534 4250 1286 3958 
Q 1038 3666 1038 3163 
Q 1038 2656 1286 2365 
Q 1534 2075 1959 2075 
z
" id="DejaVuSans-39" transform="scale(0.015625)"/>
       </defs>
       <use xlink:href="#DejaVuSans-31"/>
       <use x="63.623047" xlink:href="#DejaVuSans-39"/>
       <use x="127.246094" xlink:href="#DejaVuSans-2c"/>
       <use x="159.033203" xlink:href="#DejaVuSans-30"/>
       <use x="222.65625" xlink:href="#DejaVuSans-30"/>
       <use x="286.279297" xlink:href="#DejaVuSans-30"/>
      </g>
     </g>
    </g>
    <g id="xtick_7">
     <g id="line2d_7">
      <g>
       <use style="stroke:#000000;stroke-width:0.8;" x="424.458313" xlink:href="#m9d6388fa42" y="62.504"/>
      </g>
     </g>
     <g id="text_7">
      <!-- 20,000 -->
      <g transform="translate(403.463938 53.008375)scale(0.12 -0.12)">
       <defs>
        <path d="M 1228 531 
L 3431 531 
L 3431 0 
L 469 0 
L 469 531 
Q 828 903 1448 1529 
Q 2069 2156 2228 2338 
Q 2531 2678 2651 2914 
Q 2772 3150 2772 3378 
Q 2772 3750 2511 3984 
Q 2250 4219 1831 4219 
Q 1534 4219 1204 4116 
Q 875 4013 500 3803 
L 500 4441 
Q 881 4594 1212 4672 
Q 1544 4750 1819 4750 
Q 2544 4750 2975 4387 
Q 3406 4025 3406 3419 
Q 3406 3131 3298 2873 
Q 3191 2616 2906 2266 
Q 2828 2175 2409 1742 
Q 1991 1309 1228 531 
z
" id="DejaVuSans-32" transform="scale(0.015625)"/>
       </defs>
       <use xlink:href="#DejaVuSans-32"/>
       <use x="63.623047" xlink:href="#DejaVuSans-30"/>
       <use x="127.246094" xlink:href="#DejaVuSans-2c"/>
       <use x="159.033203" xlink:href="#DejaVuSans-30"/>
       <use x="222.65625" xlink:href="#DejaVuSans-30"/>
       <use x="286.279297" xlink:href="#DejaVuSans-30"/>
      </g>
     </g>
    </g>
    <g id="xtick_8">
     <g id="line2d_8">
      <g>
       <use style="stroke:#000000;stroke-width:0.8;" x="347.110836" xlink:href="#m9d6388fa42" y="62.504"/>
      </g>
     </g>
     <g id="text_8">
      <!-- 21,000 -->
      <g transform="translate(326.116461 53.008375)scale(0.12 -0.12)">
       <use xlink:href="#DejaVuSans-32"/>
       <use x="63.623047" xlink:href="#DejaVuSans-31"/>
       <use x="127.246094" xlink:href="#DejaVuSans-2c"/>
       <use x="159.033203" xlink:href="#DejaVuSans-30"/>
       <use x="222.65625" xlink:href="#DejaVuSans-30"/>
       <use x="286.279297" xlink:href="#DejaVuSans-30"/>
      </g>
     </g>
    </g>
    <g id="xtick_9">
     <g id="line2d_9">
      <g>
       <use style="stroke:#000000;stroke-width:0.8;" x="276.794948" xlink:href="#m9d6388fa42" y="62.504"/>
      </g>
     </g>
     <g id="text_9">
      <!-- 22,000 -->
      <g transform="translate(255.800573 53.008375)scale(0.12 -0.12)">
       <use xlink:href="#DejaVuSans-32"/>
       <use x="63.623047" xlink:href="#DejaVuSans-32"/>
       <use x="127.246094" xlink:href="#DejaVuSans-2c"/>
       <use x="159.033203" xlink:href="#DejaVuSans-30"/>
       <use x="222.65625" xlink:href="#DejaVuSans-30"/>
       <use x="286.279297" xlink:href="#DejaVuSans-30"/>
      </g>
     </g>
    </g>
    <g id="xtick_10">
     <g id="line2d_10">
      <g>
       <use style="stroke:#000000;stroke-width:0.8;" x="212.593485" xlink:href="#m9d6388fa42" y="62.504"/>
      </g>
     </g>
     <g id="text_10">
      <!-- 23,000 -->
      <g transform="translate(191.59911 53.008375)scale(0.12 -0.12)">
       <defs>
        <path d="M 2597 2516 
Q 3050 2419 3304 2112 
Q 3559 1806 3559 1356 
Q 3559 666 3084 287 
Q 2609 -91 1734 -91 
Q 1441 -91 1130 -33 
Q 819 25 488 141 
L 488 750 
Q 750 597 1062 519 
Q 1375 441 1716 441 
Q 2309 441 2620 675 
Q 2931 909 2931 1356 
Q 2931 1769 2642 2001 
Q 2353 2234 1838 2234 
L 1294 2234 
L 1294 2753 
L 1863 2753 
Q 2328 2753 2575 2939 
Q 2822 3125 2822 3475 
Q 2822 3834 2567 4026 
Q 2313 4219 1838 4219 
Q 1578 4219 1281 4162 
Q 984 4106 628 3988 
L 628 4550 
Q 988 4650 1302 4700 
Q 1616 4750 1894 4750 
Q 2613 4750 3031 4423 
Q 3450 4097 3450 3541 
Q 3450 3153 3228 2886 
Q 3006 2619 2597 2516 
z
" id="DejaVuSans-33" transform="scale(0.015625)"/>
       </defs>
       <use xlink:href="#DejaVuSans-32"/>
       <use x="63.623047" xlink:href="#DejaVuSans-33"/>
       <use x="127.246094" xlink:href="#DejaVuSans-2c"/>
       <use x="159.033203" xlink:href="#DejaVuSans-30"/>
       <use x="222.65625" xlink:href="#DejaVuSans-30"/>
       <use x="286.279297" xlink:href="#DejaVuSans-30"/>
      </g>
     </g>
    </g>
    <g id="xtick_11">
     <g id="line2d_11">
      <g>
       <use style="stroke:#000000;stroke-width:0.8;" x="153.742144" xlink:href="#m9d6388fa42" y="62.504"/>
      </g>
     </g>
     <g id="text_11">
      <!-- 24,000 -->
      <g transform="translate(132.747769 53.008375)scale(0.12 -0.12)">
       <use xlink:href="#DejaVuSans-32"/>
       <use x="63.623047" xlink:href="#DejaVuSans-34"/>
       <use x="127.246094" xlink:href="#DejaVuSans-2c"/>
       <use x="159.033203" xlink:href="#DejaVuSans-30"/>
       <use x="222.65625" xlink:href="#DejaVuSans-30"/>
       <use x="286.279297" xlink:href="#DejaVuSans-30"/>
      </g>
     </g>
    </g>
    <g id="xtick_12">
     <g id="line2d_12">
      <g>
       <use style="stroke:#000000;stroke-width:0.8;" x="99.59891" xlink:href="#m9d6388fa42" y="62.504"/>
      </g>
     </g>
     <g id="text_12">
      <!-- 25,000 -->
      <g transform="translate(78.604535 53.008375)scale(0.12 -0.12)">
       <use xlink:href="#DejaVuSans-32"/>
       <use x="63.623047" xlink:href="#DejaVuSans-35"/>
       <use x="127.246094" xlink:href="#DejaVuSans-2c"/>
       <use x="159.033203" xlink:href="#DejaVuSans-30"/>
       <use x="222.65625" xlink:href="#DejaVuSans-30"/>
       <use x="286.279297" xlink:href="#DejaVuSans-30"/>
      </g>
     </g>
    </g>
    <g id="text_13">
     <!-- Wave-Number ($cm^{-1}$) -->
     <g transform="translate(518.569499 39.89025)scale(0.14 -0.14)">
      <defs>
       <path d="M 213 4666 
L 850 4666 
L 1831 722 
L 2809 4666 
L 3519 4666 
L 4500 722 
L 5478 4666 
L 6119 4666 
L 4947 0 
L 4153 0 
L 3169 4050 
L 2175 0 
L 1381 0 
L 213 4666 
z
" id="DejaVuSans-57" transform="scale(0.015625)"/>
       <path d="M 2194 1759 
Q 1497 1759 1228 1600 
Q 959 1441 959 1056 
Q 959 750 1161 570 
Q 1363 391 1709 391 
Q 2188 391 2477 730 
Q 2766 1069 2766 1631 
L 2766 1759 
L 2194 1759 
z
M 3341 1997 
L 3341 0 
L 2766 0 
L 2766 531 
Q 2569 213 2275 61 
Q 1981 -91 1556 -91 
Q 1019 -91 701 211 
Q 384 513 384 1019 
Q 384 1609 779 1909 
Q 1175 2209 1959 2209 
L 2766 2209 
L 2766 2266 
Q 2766 2663 2505 2880 
Q 2244 3097 1772 3097 
Q 1472 3097 1187 3025 
Q 903 2953 641 2809 
L 641 3341 
Q 956 3463 1253 3523 
Q 1550 3584 1831 3584 
Q 2591 3584 2966 3190 
Q 3341 2797 3341 1997 
z
" id="DejaVuSans-61" transform="scale(0.015625)"/>
       <path d="M 191 3500 
L 800 3500 
L 1894 563 
L 2988 3500 
L 3597 3500 
L 2284 0 
L 1503 0 
L 191 3500 
z
" id="DejaVuSans-76" transform="scale(0.015625)"/>
       <path d="M 3597 1894 
L 3597 1613 
L 953 1613 
Q 991 1019 1311 708 
Q 1631 397 2203 397 
Q 2534 397 2845 478 
Q 3156 559 3463 722 
L 3463 178 
Q 3153 47 2828 -22 
Q 2503 -91 2169 -91 
Q 1331 -91 842 396 
Q 353 884 353 1716 
Q 353 2575 817 3079 
Q 1281 3584 2069 3584 
Q 2775 3584 3186 3129 
Q 3597 2675 3597 1894 
z
M 3022 2063 
Q 3016 2534 2758 2815 
Q 2500 3097 2075 3097 
Q 1594 3097 1305 2825 
Q 1016 2553 972 2059 
L 3022 2063 
z
" id="DejaVuSans-65" transform="scale(0.015625)"/>
       <path d="M 313 2009 
L 1997 2009 
L 1997 1497 
L 313 1497 
L 313 2009 
z
" id="DejaVuSans-2d" transform="scale(0.015625)"/>
       <path d="M 628 4666 
L 1478 4666 
L 3547 763 
L 3547 4666 
L 4159 4666 
L 4159 0 
L 3309 0 
L 1241 3903 
L 1241 0 
L 628 0 
L 628 4666 
z
" id="DejaVuSans-4e" transform="scale(0.015625)"/>
       <path d="M 544 1381 
L 544 3500 
L 1119 3500 
L 1119 1403 
Q 1119 906 1312 657 
Q 1506 409 1894 409 
Q 2359 409 2629 706 
Q 2900 1003 2900 1516 
L 2900 3500 
L 3475 3500 
L 3475 0 
L 2900 0 
L 2900 538 
Q 2691 219 2414 64 
Q 2138 -91 1772 -91 
Q 1169 -91 856 284 
Q 544 659 544 1381 
z
M 1991 3584 
L 1991 3584 
z
" id="DejaVuSans-75" transform="scale(0.015625)"/>
       <path d="M 3328 2828 
Q 3544 3216 3844 3400 
Q 4144 3584 4550 3584 
Q 5097 3584 5394 3201 
Q 5691 2819 5691 2113 
L 5691 0 
L 5113 0 
L 5113 2094 
Q 5113 2597 4934 2840 
Q 4756 3084 4391 3084 
Q 3944 3084 3684 2787 
Q 3425 2491 3425 1978 
L 3425 0 
L 2847 0 
L 2847 2094 
Q 2847 2600 2669 2842 
Q 2491 3084 2119 3084 
Q 1678 3084 1418 2786 
Q 1159 2488 1159 1978 
L 1159 0 
L 581 0 
L 581 3500 
L 1159 3500 
L 1159 2956 
Q 1356 3278 1631 3431 
Q 1906 3584 2284 3584 
Q 2666 3584 2933 3390 
Q 3200 3197 3328 2828 
z
" id="DejaVuSans-6d" transform="scale(0.015625)"/>
       <path d="M 3116 1747 
Q 3116 2381 2855 2742 
Q 2594 3103 2138 3103 
Q 1681 3103 1420 2742 
Q 1159 2381 1159 1747 
Q 1159 1113 1420 752 
Q 1681 391 2138 391 
Q 2594 391 2855 752 
Q 3116 1113 3116 1747 
z
M 1159 2969 
Q 1341 3281 1617 3432 
Q 1894 3584 2278 3584 
Q 2916 3584 3314 3078 
Q 3713 2572 3713 1747 
Q 3713 922 3314 415 
Q 2916 -91 2278 -91 
Q 1894 -91 1617 61 
Q 1341 213 1159 525 
L 1159 0 
L 581 0 
L 581 4863 
L 1159 4863 
L 1159 2969 
z
" id="DejaVuSans-62" transform="scale(0.015625)"/>
       <path d="M 2631 2963 
Q 2534 3019 2420 3045 
Q 2306 3072 2169 3072 
Q 1681 3072 1420 2755 
Q 1159 2438 1159 1844 
L 1159 0 
L 581 0 
L 581 3500 
L 1159 3500 
L 1159 2956 
Q 1341 3275 1631 3429 
Q 1922 3584 2338 3584 
Q 2397 3584 2469 3576 
Q 2541 3569 2628 3553 
L 2631 2963 
z
" id="DejaVuSans-72" transform="scale(0.015625)"/>
       <path id="DejaVuSans-20" transform="scale(0.015625)"/>
       <path d="M 1984 4856 
Q 1566 4138 1362 3434 
Q 1159 2731 1159 2009 
Q 1159 1288 1364 580 
Q 1569 -128 1984 -844 
L 1484 -844 
Q 1016 -109 783 600 
Q 550 1309 550 2009 
Q 550 2706 781 3412 
Q 1013 4119 1484 4856 
L 1984 4856 
z
" id="DejaVuSans-28" transform="scale(0.015625)"/>
       <path d="M 3431 3366 
L 3316 2797 
Q 3109 2947 2876 3022 
Q 2644 3097 2394 3097 
Q 2119 3097 1870 3000 
Q 1622 2903 1453 2725 
Q 1184 2453 1037 2087 
Q 891 1722 891 1331 
Q 891 859 1127 628 
Q 1363 397 1844 397 
Q 2081 397 2348 469 
Q 2616 541 2906 684 
L 2797 116 
Q 2547 13 2283 -39 
Q 2019 -91 1741 -91 
Q 1044 -91 669 257 
Q 294 606 294 1253 
Q 294 1797 489 2255 
Q 684 2713 1069 3078 
Q 1331 3328 1684 3456 
Q 2038 3584 2456 3584 
Q 2700 3584 2940 3529 
Q 3181 3475 3431 3366 
z
" id="DejaVuSans-Oblique-63" transform="scale(0.015625)"/>
       <path d="M 5747 2113 
L 5338 0 
L 4763 0 
L 5166 2094 
Q 5191 2228 5203 2325 
Q 5216 2422 5216 2491 
Q 5216 2772 5059 2928 
Q 4903 3084 4622 3084 
Q 4203 3084 3875 2770 
Q 3547 2456 3450 1953 
L 3066 0 
L 2491 0 
L 2900 2094 
Q 2925 2209 2937 2307 
Q 2950 2406 2950 2484 
Q 2950 2769 2794 2926 
Q 2638 3084 2363 3084 
Q 1938 3084 1609 2770 
Q 1281 2456 1184 1953 
L 800 0 
L 225 0 
L 909 3500 
L 1484 3500 
L 1375 2956 
Q 1609 3263 1923 3423 
Q 2238 3584 2597 3584 
Q 2978 3584 3223 3384 
Q 3469 3184 3519 2828 
Q 3781 3197 4126 3390 
Q 4472 3584 4856 3584 
Q 5306 3584 5551 3325 
Q 5797 3066 5797 2591 
Q 5797 2488 5784 2364 
Q 5772 2241 5747 2113 
z
" id="DejaVuSans-Oblique-6d" transform="scale(0.015625)"/>
       <path d="M 678 2272 
L 4684 2272 
L 4684 1741 
L 678 1741 
L 678 2272 
z
" id="DejaVuSans-2212" transform="scale(0.015625)"/>
       <path d="M 513 4856 
L 1013 4856 
Q 1481 4119 1714 3412 
Q 1947 2706 1947 2009 
Q 1947 1309 1714 600 
Q 1481 -109 1013 -844 
L 513 -844 
Q 928 -128 1133 580 
Q 1338 1288 1338 2009 
Q 1338 2731 1133 3434 
Q 928 4138 513 4856 
z
" id="DejaVuSans-29" transform="scale(0.015625)"/>
      </defs>
      <use transform="translate(0 0.684375)" xlink:href="#DejaVuSans-57"/>
      <use transform="translate(98.876953 0.684375)" xlink:href="#DejaVuSans-61"/>
      <use transform="translate(160.15625 0.684375)" xlink:href="#DejaVuSans-76"/>
      <use transform="translate(219.335938 0.684375)" xlink:href="#DejaVuSans-65"/>
      <use transform="translate(280.859375 0.684375)" xlink:href="#DejaVuSans-2d"/>
      <use transform="translate(316.943359 0.684375)" xlink:href="#DejaVuSans-4e"/>
      <use transform="translate(391.748047 0.684375)" xlink:href="#DejaVuSans-75"/>
      <use transform="translate(455.126953 0.684375)" xlink:href="#DejaVuSans-6d"/>
      <use transform="translate(552.539062 0.684375)" xlink:href="#DejaVuSans-62"/>
      <use transform="translate(616.015625 0.684375)" xlink:href="#DejaVuSans-65"/>
      <use transform="translate(677.539062 0.684375)" xlink:href="#DejaVuSans-72"/>
      <use transform="translate(718.652344 0.684375)" xlink:href="#DejaVuSans-20"/>
      <use transform="translate(750.439453 0.684375)" xlink:href="#DejaVuSans-28"/>
      <use transform="translate(789.453125 0.684375)" xlink:href="#DejaVuSans-Oblique-63"/>
      <use transform="translate(844.433594 0.684375)" xlink:href="#DejaVuSans-Oblique-6d"/>
      <use transform="translate(946.495599 38.965625)scale(0.7)" xlink:href="#DejaVuSans-2212"/>
      <use transform="translate(1005.147943 38.965625)scale(0.7)" xlink:href="#DejaVuSans-31"/>
      <use transform="translate(1052.418451 0.684375)" xlink:href="#DejaVuSans-29"/>
     </g>
    </g>
   </g>
   <g id="matplotlib.axis_2">
    <g id="ytick_1">
     <g id="line2d_13">
      <defs>
       <path d="M 0 0 
L -3.5 0 
" id="meb4642d8d6" style="stroke:#000000;stroke-width:0.8;"/>
      </defs>
      <g>
       <use style="stroke:#000000;stroke-width:0.8;" x="50.87" xlink:href="#meb4642d8d6" y="555.465333"/>
      </g>
     </g>
     <g id="text_14">
      <!-- 0.0 -->
      <g transform="translate(24.78625 560.024396)scale(0.12 -0.12)">
       <defs>
        <path d="M 684 794 
L 1344 794 
L 1344 0 
L 684 0 
L 684 794 
z
" id="DejaVuSans-2e" transform="scale(0.015625)"/>
       </defs>
       <use xlink:href="#DejaVuSans-30"/>
       <use x="63.623047" xlink:href="#DejaVuSans-2e"/>
       <use x="95.410156" xlink:href="#DejaVuSans-30"/>
      </g>
     </g>
    </g>
    <g id="ytick_2">
     <g id="line2d_14">
      <g>
       <use style="stroke:#000000;stroke-width:0.8;" x="50.87" xlink:href="#meb4642d8d6" y="465.836"/>
      </g>
     </g>
     <g id="text_15">
      <!-- 0.2 -->
      <g transform="translate(24.78625 470.395062)scale(0.12 -0.12)">
       <use xlink:href="#DejaVuSans-30"/>
       <use x="63.623047" xlink:href="#DejaVuSans-2e"/>
       <use x="95.410156" xlink:href="#DejaVuSans-32"/>
      </g>
     </g>
    </g>
    <g id="ytick_3">
     <g id="line2d_15">
      <g>
       <use style="stroke:#000000;stroke-width:0.8;" x="50.87" xlink:href="#meb4642d8d6" y="376.206667"/>
      </g>
     </g>
     <g id="text_16">
      <!-- 0.4 -->
      <g transform="translate(24.78625 380.765729)scale(0.12 -0.12)">
       <use xlink:href="#DejaVuSans-30"/>
       <use x="63.623047" xlink:href="#DejaVuSans-2e"/>
       <use x="95.410156" xlink:href="#DejaVuSans-34"/>
      </g>
     </g>
    </g>
    <g id="ytick_4">
     <g id="line2d_16">
      <g>
       <use style="stroke:#000000;stroke-width:0.8;" x="50.87" xlink:href="#meb4642d8d6" y="286.577333"/>
      </g>
     </g>
     <g id="text_17">
      <!-- 0.6 -->
      <g transform="translate(24.78625 291.136396)scale(0.12 -0.12)">
       <use xlink:href="#DejaVuSans-30"/>
       <use x="63.623047" xlink:href="#DejaVuSans-2e"/>
       <use x="95.410156" xlink:href="#DejaVuSans-36"/>
      </g>
     </g>
    </g>
    <g id="ytick_5">
     <g id="line2d_17">
      <g>
       <use style="stroke:#000000;stroke-width:0.8;" x="50.87" xlink:href="#meb4642d8d6" y="196.948"/>
      </g>
     </g>
     <g id="text_18">
      <!-- 0.8 -->
      <g transform="translate(24.78625 201.507063)scale(0.12 -0.12)">
       <use xlink:href="#DejaVuSans-30"/>
       <use x="63.623047" xlink:href="#DejaVuSans-2e"/>
       <use x="95.410156" xlink:href="#DejaVuSans-38"/>
      </g>
     </g>
    </g>
    <g id="ytick_6">
     <g id="line2d_18">
      <g>
       <use style="stroke:#000000;stroke-width:0.8;" x="50.87" xlink:href="#meb4642d8d6" y="107.318667"/>
      </g>
     </g>
     <g id="text_19">
      <!-- 1.0 -->
      <g transform="translate(24.78625 111.877729)scale(0.12 -0.12)">
       <use xlink:href="#DejaVuSans-31"/>
       <use x="63.623047" xlink:href="#DejaVuSans-2e"/>
       <use x="95.410156" xlink:href="#DejaVuSans-30"/>
      </g>
     </g>
    </g>
    <g id="text_20">
     <!-- Normalized Cone Sensitivity -->
     <g transform="translate(17.874687 429.896219)rotate(-90)scale(0.14 -0.14)">
      <defs>
       <path d="M 1959 3097 
Q 1497 3097 1228 2736 
Q 959 2375 959 1747 
Q 959 1119 1226 758 
Q 1494 397 1959 397 
Q 2419 397 2687 759 
Q 2956 1122 2956 1747 
Q 2956 2369 2687 2733 
Q 2419 3097 1959 3097 
z
M 1959 3584 
Q 2709 3584 3137 3096 
Q 3566 2609 3566 1747 
Q 3566 888 3137 398 
Q 2709 -91 1959 -91 
Q 1206 -91 779 398 
Q 353 888 353 1747 
Q 353 2609 779 3096 
Q 1206 3584 1959 3584 
z
" id="DejaVuSans-6f" transform="scale(0.015625)"/>
       <path d="M 603 4863 
L 1178 4863 
L 1178 0 
L 603 0 
L 603 4863 
z
" id="DejaVuSans-6c" transform="scale(0.015625)"/>
       <path d="M 603 3500 
L 1178 3500 
L 1178 0 
L 603 0 
L 603 3500 
z
M 603 4863 
L 1178 4863 
L 1178 4134 
L 603 4134 
L 603 4863 
z
" id="DejaVuSans-69" transform="scale(0.015625)"/>
       <path d="M 353 3500 
L 3084 3500 
L 3084 2975 
L 922 459 
L 3084 459 
L 3084 0 
L 275 0 
L 275 525 
L 2438 3041 
L 353 3041 
L 353 3500 
z
" id="DejaVuSans-7a" transform="scale(0.015625)"/>
       <path d="M 2906 2969 
L 2906 4863 
L 3481 4863 
L 3481 0 
L 2906 0 
L 2906 525 
Q 2725 213 2448 61 
Q 2172 -91 1784 -91 
Q 1150 -91 751 415 
Q 353 922 353 1747 
Q 353 2572 751 3078 
Q 1150 3584 1784 3584 
Q 2172 3584 2448 3432 
Q 2725 3281 2906 2969 
z
M 947 1747 
Q 947 1113 1208 752 
Q 1469 391 1925 391 
Q 2381 391 2643 752 
Q 2906 1113 2906 1747 
Q 2906 2381 2643 2742 
Q 2381 3103 1925 3103 
Q 1469 3103 1208 2742 
Q 947 2381 947 1747 
z
" id="DejaVuSans-64" transform="scale(0.015625)"/>
       <path d="M 4122 4306 
L 4122 3641 
Q 3803 3938 3442 4084 
Q 3081 4231 2675 4231 
Q 1875 4231 1450 3742 
Q 1025 3253 1025 2328 
Q 1025 1406 1450 917 
Q 1875 428 2675 428 
Q 3081 428 3442 575 
Q 3803 722 4122 1019 
L 4122 359 
Q 3791 134 3420 21 
Q 3050 -91 2638 -91 
Q 1578 -91 968 557 
Q 359 1206 359 2328 
Q 359 3453 968 4101 
Q 1578 4750 2638 4750 
Q 3056 4750 3426 4639 
Q 3797 4528 4122 4306 
z
" id="DejaVuSans-43" transform="scale(0.015625)"/>
       <path d="M 3513 2113 
L 3513 0 
L 2938 0 
L 2938 2094 
Q 2938 2591 2744 2837 
Q 2550 3084 2163 3084 
Q 1697 3084 1428 2787 
Q 1159 2491 1159 1978 
L 1159 0 
L 581 0 
L 581 3500 
L 1159 3500 
L 1159 2956 
Q 1366 3272 1645 3428 
Q 1925 3584 2291 3584 
Q 2894 3584 3203 3211 
Q 3513 2838 3513 2113 
z
" id="DejaVuSans-6e" transform="scale(0.015625)"/>
       <path d="M 3425 4513 
L 3425 3897 
Q 3066 4069 2747 4153 
Q 2428 4238 2131 4238 
Q 1616 4238 1336 4038 
Q 1056 3838 1056 3469 
Q 1056 3159 1242 3001 
Q 1428 2844 1947 2747 
L 2328 2669 
Q 3034 2534 3370 2195 
Q 3706 1856 3706 1288 
Q 3706 609 3251 259 
Q 2797 -91 1919 -91 
Q 1588 -91 1214 -16 
Q 841 59 441 206 
L 441 856 
Q 825 641 1194 531 
Q 1563 422 1919 422 
Q 2459 422 2753 634 
Q 3047 847 3047 1241 
Q 3047 1584 2836 1778 
Q 2625 1972 2144 2069 
L 1759 2144 
Q 1053 2284 737 2584 
Q 422 2884 422 3419 
Q 422 4038 858 4394 
Q 1294 4750 2059 4750 
Q 2388 4750 2728 4690 
Q 3069 4631 3425 4513 
z
" id="DejaVuSans-53" transform="scale(0.015625)"/>
       <path d="M 2834 3397 
L 2834 2853 
Q 2591 2978 2328 3040 
Q 2066 3103 1784 3103 
Q 1356 3103 1142 2972 
Q 928 2841 928 2578 
Q 928 2378 1081 2264 
Q 1234 2150 1697 2047 
L 1894 2003 
Q 2506 1872 2764 1633 
Q 3022 1394 3022 966 
Q 3022 478 2636 193 
Q 2250 -91 1575 -91 
Q 1294 -91 989 -36 
Q 684 19 347 128 
L 347 722 
Q 666 556 975 473 
Q 1284 391 1588 391 
Q 1994 391 2212 530 
Q 2431 669 2431 922 
Q 2431 1156 2273 1281 
Q 2116 1406 1581 1522 
L 1381 1569 
Q 847 1681 609 1914 
Q 372 2147 372 2553 
Q 372 3047 722 3315 
Q 1072 3584 1716 3584 
Q 2034 3584 2315 3537 
Q 2597 3491 2834 3397 
z
" id="DejaVuSans-73" transform="scale(0.015625)"/>
       <path d="M 1172 4494 
L 1172 3500 
L 2356 3500 
L 2356 3053 
L 1172 3053 
L 1172 1153 
Q 1172 725 1289 603 
Q 1406 481 1766 481 
L 2356 481 
L 2356 0 
L 1766 0 
Q 1100 0 847 248 
Q 594 497 594 1153 
L 594 3053 
L 172 3053 
L 172 3500 
L 594 3500 
L 594 4494 
L 1172 4494 
z
" id="DejaVuSans-74" transform="scale(0.015625)"/>
       <path d="M 2059 -325 
Q 1816 -950 1584 -1140 
Q 1353 -1331 966 -1331 
L 506 -1331 
L 506 -850 
L 844 -850 
Q 1081 -850 1212 -737 
Q 1344 -625 1503 -206 
L 1606 56 
L 191 3500 
L 800 3500 
L 1894 763 
L 2988 3500 
L 3597 3500 
L 2059 -325 
z
" id="DejaVuSans-79" transform="scale(0.015625)"/>
      </defs>
      <use xlink:href="#DejaVuSans-4e"/>
      <use x="74.804688" xlink:href="#DejaVuSans-6f"/>
      <use x="135.986328" xlink:href="#DejaVuSans-72"/>
      <use x="175.349609" xlink:href="#DejaVuSans-6d"/>
      <use x="272.761719" xlink:href="#DejaVuSans-61"/>
      <use x="334.041016" xlink:href="#DejaVuSans-6c"/>
      <use x="361.824219" xlink:href="#DejaVuSans-69"/>
      <use x="389.607422" xlink:href="#DejaVuSans-7a"/>
      <use x="442.097656" xlink:href="#DejaVuSans-65"/>
      <use x="503.621094" xlink:href="#DejaVuSans-64"/>
      <use x="567.097656" xlink:href="#DejaVuSans-20"/>
      <use x="598.884766" xlink:href="#DejaVuSans-43"/>
      <use x="668.708984" xlink:href="#DejaVuSans-6f"/>
      <use x="729.890625" xlink:href="#DejaVuSans-6e"/>
      <use x="793.269531" xlink:href="#DejaVuSans-65"/>
      <use x="854.792969" xlink:href="#DejaVuSans-20"/>
      <use x="886.580078" xlink:href="#DejaVuSans-53"/>
      <use x="950.056641" xlink:href="#DejaVuSans-65"/>
      <use x="1011.580078" xlink:href="#DejaVuSans-6e"/>
      <use x="1074.958984" xlink:href="#DejaVuSans-73"/>
      <use x="1127.058594" xlink:href="#DejaVuSans-69"/>
      <use x="1154.841797" xlink:href="#DejaVuSans-74"/>
      <use x="1194.050781" xlink:href="#DejaVuSans-69"/>
      <use x="1221.833984" xlink:href="#DejaVuSans-76"/>
      <use x="1281.013672" xlink:href="#DejaVuSans-69"/>
      <use x="1308.796875" xlink:href="#DejaVuSans-74"/>
      <use x="1348.005859" xlink:href="#DejaVuSans-79"/>
     </g>
    </g>
   </g>
   <g id="patch_3">
    <path d="M 50.87 600.28 
L 50.87 62.504 
" style="fill:none;stroke:#000000;stroke-linecap:square;stroke-linejoin:miter;stroke-width:0.8;"/>
   </g>
   <g id="patch_4">
    <path d="M 1139.148998 600.28 
L 1139.148998 62.504 
" style="fill:none;stroke:#000000;stroke-linecap:square;stroke-linejoin:miter;stroke-width:0.8;"/>
   </g>
   <g id="patch_5">
    <path d="M 50.87 600.28 
L 1139.148998 600.28 
" style="fill:none;stroke:#000000;stroke-linecap:square;stroke-linejoin:miter;stroke-width:0.8;"/>
   </g>
   <g id="patch_6">
    <path d="M 50.87 62.504 
L 1139.148998 62.504 
" style="fill:none;stroke:#000000;stroke-linecap:square;stroke-linejoin:miter;stroke-width:0.8;"/>
   </g>
   <g id="text_21">
    <!-- Normalized Cone Fundamentals -->
    <g transform="translate(467.585749 22.241813)scale(0.16 -0.16)">
     <defs>
      <path d="M 628 4666 
L 3309 4666 
L 3309 4134 
L 1259 4134 
L 1259 2759 
L 3109 2759 
L 3109 2228 
L 1259 2228 
L 1259 0 
L 628 0 
L 628 4666 
z
" id="DejaVuSans-46" transform="scale(0.015625)"/>
     </defs>
     <use xlink:href="#DejaVuSans-4e"/>
     <use x="74.804688" xlink:href="#DejaVuSans-6f"/>
     <use x="135.986328" xlink:href="#DejaVuSans-72"/>
     <use x="175.349609" xlink:href="#DejaVuSans-6d"/>
     <use x="272.761719" xlink:href="#DejaVuSans-61"/>
     <use x="334.041016" xlink:href="#DejaVuSans-6c"/>
     <use x="361.824219" xlink:href="#DejaVuSans-69"/>
     <use x="389.607422" xlink:href="#DejaVuSans-7a"/>
     <use x="442.097656" xlink:href="#DejaVuSans-65"/>
     <use x="503.621094" xlink:href="#DejaVuSans-64"/>
     <use x="567.097656" xlink:href="#DejaVuSans-20"/>
     <use x="598.884766" xlink:href="#DejaVuSans-43"/>
     <use x="668.708984" xlink:href="#DejaVuSans-6f"/>
     <use x="729.890625" xlink:href="#DejaVuSans-6e"/>
     <use x="793.269531" xlink:href="#DejaVuSans-65"/>
     <use x="854.792969" xlink:href="#DejaVuSans-20"/>
     <use x="886.580078" xlink:href="#DejaVuSans-46"/>
     <use x="938.599609" xlink:href="#DejaVuSans-75"/>
     <use x="1001.978516" xlink:href="#DejaVuSans-6e"/>
     <use x="1065.357422" xlink:href="#DejaVuSans-64"/>
     <use x="1128.833984" xlink:href="#DejaVuSans-61"/>
     <use x="1190.113281" xlink:href="#DejaVuSans-6d"/>
     <use x="1287.525391" xlink:href="#DejaVuSans-65"/>
     <use x="1349.048828" xlink:href="#DejaVuSans-6e"/>
     <use x="1412.427734" xlink:href="#DejaVuSans-74"/>
     <use x="1451.636719" xlink:href="#DejaVuSans-61"/>
     <use x="1512.916016" xlink:href="#DejaVuSans-6c"/>
     <use x="1540.699219" xlink:href="#DejaVuSans-73"/>
    </g>
   </g>
  </g>
  <g id="axes_2">
   <g id="patch_7">
    <path d="M 50.87 600.28 
L 1139.148998 600.28 
L 1139.148998 62.504 
L 50.87 62.504 
z
" style="fill:none;"/>
   </g>
   <g id="line2d_19">
    <path clip-path="url(#p268be1199d)" d="M 50.87 555.465333 
L 1139.148998 555.465333 
" style="fill:none;stroke:#000000;stroke-linecap:square;stroke-width:2;"/>
   </g>
   <g id="line2d_20">
    <path clip-path="url(#p268be1199d)" d="M 50.87 107.318667 
L 1139.148998 107.318667 
" style="fill:none;stroke:#808080;stroke-linecap:square;stroke-width:2;"/>
   </g>
   <g id="line2d_21">
    <path clip-path="url(#p268be1199d)" d="M 76.858752 555.175584 
L 86.604534 554.965394 
L 96.350316 554.531493 
L 106.096098 553.87388 
L 115.84188 552.99025 
L 125.587663 551.845524 
L 135.333445 550.427851 
L 145.079227 548.762717 
L 161.322197 545.752893 
L 174.316573 543.137878 
L 184.062355 540.941505 
L 193.808137 538.522841 
L 258.780018 521.310349 
L 265.277206 519.475589 
L 271.774394 517.320612 
L 278.271582 514.835561 
L 284.76877 512.020433 
L 291.265958 508.87523 
L 297.763146 505.422152 
L 304.260334 501.757724 
L 310.757522 497.893159 
L 317.25471 493.828455 
L 333.49768 483.164964 
L 339.994868 478.814192 
L 343.243462 476.448504 
L 346.492056 473.898889 
L 349.74065 471.165347 
L 352.989244 468.247879 
L 372.480808 449.783367 
L 375.729402 446.869343 
L 378.977996 443.802148 
L 382.22659 440.457426 
L 385.475184 436.835178 
L 388.723778 432.935404 
L 391.972372 428.758103 
L 398.469561 419.724 
L 408.215343 405.620337 
L 414.712531 395.921852 
L 421.209719 385.74288 
L 427.706907 374.877476 
L 434.204095 363.325641 
L 443.949877 345.142724 
L 453.695659 326.380843 
L 460.192847 313.519813 
L 466.690035 300.280256 
L 473.187223 286.656924 
L 479.684411 272.780884 
L 482.933005 266.123622 
L 486.181599 259.733671 
L 489.430193 253.611032 
L 492.678787 247.755704 
L 495.927381 242.167688 
L 502.424569 231.710796 
L 508.921757 221.8326 
L 515.418945 212.478088 
L 521.916133 203.643173 
L 528.413321 194.711725 
L 534.910509 185.241711 
L 541.407698 175.233134 
L 544.656292 170.028113 
L 547.904886 165.035494 
L 551.15348 160.526765 
L 554.402074 156.501928 
L 557.650668 152.960982 
L 560.899262 149.903926 
L 564.147856 147.330762 
L 567.39645 145.241488 
L 573.893638 141.570686 
L 580.390826 137.407672 
L 586.888014 132.734413 
L 599.88239 122.742811 
L 603.130984 120.666978 
L 606.379578 118.81359 
L 609.628172 117.182646 
L 612.876766 115.774148 
L 616.12536 114.588094 
L 622.622548 112.673926 
L 629.119736 110.955405 
L 635.616924 109.413 
L 642.114112 108.046711 
L 645.362706 107.493998 
L 648.6113 107.318667 
L 651.859894 107.550408 
L 655.108488 108.189223 
L 658.357082 109.23511 
L 661.605676 110.688069 
L 664.85427 112.548102 
L 668.102864 114.815207 
L 674.600053 119.996551 
L 677.848647 122.401833 
L 681.097241 124.653212 
L 684.345835 126.750689 
L 687.594429 128.694264 
L 690.843023 130.483937 
L 694.091617 132.119707 
L 700.588805 135.204713 
L 703.837399 137.175256 
L 707.085993 139.513398 
L 710.334587 142.219139 
L 713.583181 145.29248 
L 716.831775 148.733419 
L 720.080369 152.541958 
L 723.328963 156.718096 
L 729.826151 165.914878 
L 736.323339 175.542338 
L 742.820527 185.547083 
L 749.317715 195.929112 
L 755.814903 206.695751 
L 762.312091 218.032861 
L 768.809279 230.02151 
L 775.306467 242.661696 
L 781.803655 255.953421 
L 801.295219 297.090825 
L 814.289596 324.004858 
L 824.035378 343.790762 
L 833.78116 363.07204 
L 843.526942 381.848156 
L 853.272724 400.119113 
L 863.018506 417.884908 
L 869.515694 429.27285 
L 876.012882 440.055955 
L 882.51007 450.233913 
L 889.007258 459.806726 
L 895.504446 468.774391 
L 902.001634 477.13691 
L 908.498822 484.894283 
L 914.99601 492.04651 
L 921.493198 498.59359 
L 927.990386 504.535523 
L 934.487574 509.90797 
L 940.984762 514.891892 
L 947.48195 519.512546 
L 953.979139 523.769931 
L 960.476327 527.664048 
L 966.973515 531.194896 
L 973.470703 534.362475 
L 979.967891 537.166787 
L 986.465079 539.607829 
L 992.962267 541.685604 
L 999.459455 543.40011 
L 1005.956643 544.776059 
L 1015.702425 546.614377 
L 1025.448207 548.267117 
L 1035.193989 549.734278 
L 1044.939771 551.015859 
L 1054.685553 552.111862 
L 1064.431335 553.022285 
L 1074.177117 553.74713 
L 1083.922899 554.286395 
L 1093.668682 554.640082 
L 1103.414464 554.808189 
L 1113.160246 554.790717 
L 1119.657434 554.67597 
L 1119.657434 554.67597 
" style="fill:none;stroke:#ff0000;stroke-linecap:square;stroke-width:2;"/>
   </g>
   <g id="line2d_22">
    <path clip-path="url(#p268be1199d)" d="M 76.858752 555.208749 
L 86.604534 555.007488 
L 96.350316 554.602005 
L 106.096098 553.9923 
L 115.84188 553.168977 
L 122.339069 552.427426 
L 128.836257 551.505997 
L 135.333445 550.404688 
L 141.830633 549.12424 
L 148.327821 547.676871 
L 154.825009 546.066905 
L 161.322197 544.294342 
L 167.819385 542.359183 
L 174.316573 540.207114 
L 180.813761 537.772323 
L 187.310949 535.054664 
L 193.808137 532.054134 
L 200.305325 528.787568 
L 210.051107 523.665236 
L 219.796889 518.333061 
L 232.791265 510.920517 
L 265.277206 492.0992 
L 268.5258 489.960557 
L 271.774394 487.684266 
L 278.271582 482.718743 
L 284.76877 477.202631 
L 291.265958 471.13593 
L 297.763146 464.590901 
L 307.508928 454.479238 
L 317.25471 444.080326 
L 327.000492 433.59822 
L 333.49768 426.871516 
L 339.994868 420.311994 
L 343.243462 416.794844 
L 346.492056 413.017545 
L 349.74065 408.980097 
L 352.989244 404.682499 
L 362.735026 390.998056 
L 369.232214 382.463655 
L 378.977996 370.449302 
L 382.22659 366.023944 
L 385.475184 361.241672 
L 388.723778 356.102487 
L 391.972372 350.606389 
L 401.718155 332.863932 
L 417.961125 303.264727 
L 424.458313 290.697856 
L 430.955501 277.344976 
L 447.198471 242.553805 
L 456.944253 222.506935 
L 466.690035 202.329123 
L 479.684411 174.667977 
L 482.933005 168.325157 
L 486.181599 162.505276 
L 489.430193 157.208335 
L 492.678787 152.434335 
L 495.927381 148.183274 
L 499.175975 144.453543 
L 502.424569 141.061544 
L 505.673163 137.882077 
L 508.921757 134.915143 
L 512.170351 132.16074 
L 515.418945 129.61887 
L 518.667539 127.289531 
L 525.164727 123.119642 
L 544.656292 110.761869 
L 547.904886 109.025207 
L 551.15348 107.877473 
L 554.402074 107.318667 
L 557.650668 107.348787 
L 560.899262 107.967835 
L 564.147856 109.175811 
L 567.39645 110.972714 
L 580.390826 119.67399 
L 590.136608 125.887923 
L 593.385202 127.907854 
L 596.633796 130.14271 
L 599.88239 132.688867 
L 603.130984 135.546324 
L 606.379578 138.715083 
L 609.628172 142.195143 
L 612.876766 145.986503 
L 616.12536 150.089165 
L 622.622548 159.037332 
L 629.119736 168.597355 
L 635.616924 178.751412 
L 642.114112 189.499502 
L 645.362706 195.122735 
L 648.6113 201.031281 
L 651.859894 207.237328 
L 655.108488 213.740873 
L 658.357082 220.541918 
L 661.605676 227.640462 
L 664.85427 235.036506 
L 671.351458 250.679906 
L 677.848647 266.28365 
L 684.345835 281.300793 
L 690.843023 295.731336 
L 697.340211 309.575347 
L 710.334587 337.035475 
L 723.328963 365.172063 
L 729.826151 379.331717 
L 736.323339 393.007117 
L 742.820527 406.164712 
L 749.317715 418.8045 
L 755.814903 430.920828 
L 762.312091 442.37023 
L 768.809279 453.09013 
L 775.306467 463.080529 
L 781.803655 472.341426 
L 788.300843 480.889854 
L 794.798031 488.786838 
L 801.295219 496.037828 
L 804.543813 499.421075 
L 807.792407 502.642824 
L 811.041001 505.703075 
L 817.53819 511.354523 
L 824.035378 516.515706 
L 830.532566 521.220274 
L 837.029754 525.468229 
L 843.526942 529.259569 
L 850.02413 532.594296 
L 856.521318 535.472409 
L 863.018506 537.893908 
L 869.515694 539.993254 
L 876.012882 541.927745 
L 882.51007 543.697617 
L 889.007258 545.30287 
L 895.504446 546.743505 
L 902.001634 548.019522 
L 908.498822 549.13092 
L 914.99601 550.0777 
L 921.493198 550.859861 
L 927.990386 551.477404 
L 940.984762 552.374585 
L 957.227733 553.289875 
L 973.470703 553.995068 
L 989.713673 554.490162 
L 1005.956643 554.777641 
L 1048.188365 555.20793 
L 1090.420088 555.409279 
L 1119.657434 555.414562 
L 1119.657434 555.414562 
" style="fill:none;stroke:#00ff00;stroke-linecap:square;stroke-width:2;"/>
   </g>
   <g id="line2d_23">
    <path clip-path="url(#p268be1199d)" d="M 76.858752 551.162185 
L 80.107346 550.528493 
L 83.35594 549.454087 
L 86.604534 547.938968 
L 89.853128 545.983135 
L 93.101722 543.58659 
L 96.350316 540.74933 
L 99.59891 537.471358 
L 102.847504 533.752672 
L 106.096098 529.593273 
L 109.344692 524.99316 
L 112.593286 519.952334 
L 115.84188 514.298199 
L 119.090474 507.795427 
L 122.339069 500.442654 
L 125.587663 492.239882 
L 128.836257 483.187109 
L 132.084851 473.284336 
L 135.333445 462.531562 
L 138.582039 450.928788 
L 145.079227 426.050462 
L 151.576415 400.505338 
L 161.322197 361.050146 
L 180.813761 280.461279 
L 187.310949 254.692812 
L 193.808137 229.588242 
L 200.305325 205.29765 
L 203.553919 193.893761 
L 206.802513 183.078479 
L 210.051107 172.851803 
L 213.299701 163.213735 
L 216.548295 154.164273 
L 219.796889 145.703418 
L 223.045483 137.83117 
L 226.294077 130.547529 
L 229.542671 123.894256 
L 232.791265 118.283538 
L 236.039859 113.82062 
L 239.288453 110.505502 
L 242.537047 108.338185 
L 245.785641 107.318667 
L 249.034235 107.446949 
L 252.282829 108.723031 
L 255.531423 111.146913 
L 258.780018 114.718595 
L 262.028612 119.319369 
L 265.277206 124.251189 
L 268.5258 129.400047 
L 271.774394 134.765942 
L 278.271582 146.148849 
L 284.76877 158.399908 
L 291.265958 171.519121 
L 294.514552 178.410585 
L 297.763146 185.807552 
L 301.01174 193.862075 
L 304.260334 202.574155 
L 307.508928 211.94379 
L 310.757522 221.970983 
L 314.006116 232.655731 
L 317.25471 243.998036 
L 323.751898 268.275059 
L 333.49768 305.606875 
L 339.994868 330.774148 
L 343.243462 342.813514 
L 346.492056 354.279874 
L 349.74065 365.173227 
L 352.989244 375.493573 
L 356.237838 385.240911 
L 362.735026 403.549576 
L 369.232214 420.697635 
L 375.729402 436.684196 
L 378.977996 444.144688 
L 382.22659 451.15981 
L 385.475184 457.729563 
L 388.723778 463.853946 
L 391.972372 469.53296 
L 395.220966 474.770718 
L 401.718155 484.477525 
L 404.966749 489.027509 
L 408.215343 493.375213 
L 411.463937 497.520637 
L 414.712531 501.463699 
L 417.961125 505.191671 
L 421.209719 508.695378 
L 424.458313 511.97482 
L 427.706907 515.029998 
L 430.955501 517.860911 
L 434.204095 520.467558 
L 440.701283 525.181124 
L 447.198471 529.407213 
L 453.695659 533.147218 
L 460.192847 536.429016 
L 466.690035 539.329997 
L 473.187223 541.854695 
L 479.684411 544.014048 
L 486.181599 545.898317 
L 492.678787 547.527566 
L 499.175975 548.901884 
L 505.673163 550.059292 
L 512.170351 551.031017 
L 518.667539 551.817059 
L 528.413321 552.705603 
L 538.159104 553.387294 
L 551.15348 554.020571 
L 570.645044 554.732168 
L 586.888014 555.085347 
L 609.628172 555.270049 
L 655.108488 555.433897 
L 739.571933 555.465333 
L 1119.657434 555.464139 
L 1119.657434 555.464139 
" style="fill:none;stroke:#0000ff;stroke-linecap:square;stroke-width:2;"/>
   </g>
   <g id="matplotlib.axis_3">
    <g id="xtick_13">
     <g id="line2d_24">
      <defs>
       <path d="M 0 0 
L 0 3.5 
" id="m26426dbd21" style="stroke:#000000;stroke-width:0.8;"/>
      </defs>
      <g>
       <use style="stroke:#000000;stroke-width:0.8;" x="99.59891" xlink:href="#m26426dbd21" y="600.28"/>
      </g>
     </g>
     <g id="text_22">
      <!-- 400 -->
      <g transform="translate(88.14641 616.398125)scale(0.12 -0.12)">
       <use xlink:href="#DejaVuSans-34"/>
       <use x="63.623047" xlink:href="#DejaVuSans-30"/>
       <use x="127.246094" xlink:href="#DejaVuSans-30"/>
      </g>
     </g>
    </g>
    <g id="xtick_14">
     <g id="line2d_25">
      <g>
       <use style="stroke:#000000;stroke-width:0.8;" x="180.813761" xlink:href="#m26426dbd21" y="600.28"/>
      </g>
     </g>
     <g id="text_23">
      <!-- 425 -->
      <g transform="translate(169.361261 616.398125)scale(0.12 -0.12)">
       <use xlink:href="#DejaVuSans-34"/>
       <use x="63.623047" xlink:href="#DejaVuSans-32"/>
       <use x="127.246094" xlink:href="#DejaVuSans-35"/>
      </g>
     </g>
    </g>
    <g id="xtick_15">
     <g id="line2d_26">
      <g>
       <use style="stroke:#000000;stroke-width:0.8;" x="262.028612" xlink:href="#m26426dbd21" y="600.28"/>
      </g>
     </g>
     <g id="text_24">
      <!-- 450 -->
      <g transform="translate(250.576112 616.398125)scale(0.12 -0.12)">
       <use xlink:href="#DejaVuSans-34"/>
       <use x="63.623047" xlink:href="#DejaVuSans-35"/>
       <use x="127.246094" xlink:href="#DejaVuSans-30"/>
      </g>
     </g>
    </g>
    <g id="xtick_16">
     <g id="line2d_27">
      <g>
       <use style="stroke:#000000;stroke-width:0.8;" x="343.243462" xlink:href="#m26426dbd21" y="600.28"/>
      </g>
     </g>
     <g id="text_25">
      <!-- 475 -->
      <g transform="translate(331.790962 616.398125)scale(0.12 -0.12)">
       <use xlink:href="#DejaVuSans-34"/>
       <use x="63.623047" xlink:href="#DejaVuSans-37"/>
       <use x="127.246094" xlink:href="#DejaVuSans-35"/>
      </g>
     </g>
    </g>
    <g id="xtick_17">
     <g id="line2d_28">
      <g>
       <use style="stroke:#000000;stroke-width:0.8;" x="424.458313" xlink:href="#m26426dbd21" y="600.28"/>
      </g>
     </g>
     <g id="text_26">
      <!-- 500 -->
      <g transform="translate(413.005813 616.398125)scale(0.12 -0.12)">
       <use xlink:href="#DejaVuSans-35"/>
       <use x="63.623047" xlink:href="#DejaVuSans-30"/>
       <use x="127.246094" xlink:href="#DejaVuSans-30"/>
      </g>
     </g>
    </g>
    <g id="xtick_18">
     <g id="line2d_29">
      <g>
       <use style="stroke:#000000;stroke-width:0.8;" x="505.673163" xlink:href="#m26426dbd21" y="600.28"/>
      </g>
     </g>
     <g id="text_27">
      <!-- 525 -->
      <g transform="translate(494.220663 616.398125)scale(0.12 -0.12)">
       <use xlink:href="#DejaVuSans-35"/>
       <use x="63.623047" xlink:href="#DejaVuSans-32"/>
       <use x="127.246094" xlink:href="#DejaVuSans-35"/>
      </g>
     </g>
    </g>
    <g id="xtick_19">
     <g id="line2d_30">
      <g>
       <use style="stroke:#000000;stroke-width:0.8;" x="586.888014" xlink:href="#m26426dbd21" y="600.28"/>
      </g>
     </g>
     <g id="text_28">
      <!-- 550 -->
      <g transform="translate(575.435514 616.398125)scale(0.12 -0.12)">
       <use xlink:href="#DejaVuSans-35"/>
       <use x="63.623047" xlink:href="#DejaVuSans-35"/>
       <use x="127.246094" xlink:href="#DejaVuSans-30"/>
      </g>
     </g>
    </g>
    <g id="xtick_20">
     <g id="line2d_31">
      <g>
       <use style="stroke:#000000;stroke-width:0.8;" x="668.102864" xlink:href="#m26426dbd21" y="600.28"/>
      </g>
     </g>
     <g id="text_29">
      <!-- 575 -->
      <g transform="translate(656.650364 616.398125)scale(0.12 -0.12)">
       <use xlink:href="#DejaVuSans-35"/>
       <use x="63.623047" xlink:href="#DejaVuSans-37"/>
       <use x="127.246094" xlink:href="#DejaVuSans-35"/>
      </g>
     </g>
    </g>
    <g id="xtick_21">
     <g id="line2d_32">
      <g>
       <use style="stroke:#000000;stroke-width:0.8;" x="749.317715" xlink:href="#m26426dbd21" y="600.28"/>
      </g>
     </g>
     <g id="text_30">
      <!-- 600 -->
      <g transform="translate(737.865215 616.398125)scale(0.12 -0.12)">
       <use xlink:href="#DejaVuSans-36"/>
       <use x="63.623047" xlink:href="#DejaVuSans-30"/>
       <use x="127.246094" xlink:href="#DejaVuSans-30"/>
      </g>
     </g>
    </g>
    <g id="xtick_22">
     <g id="line2d_33">
      <g>
       <use style="stroke:#000000;stroke-width:0.8;" x="830.532566" xlink:href="#m26426dbd21" y="600.28"/>
      </g>
     </g>
     <g id="text_31">
      <!-- 625 -->
      <g transform="translate(819.080066 616.398125)scale(0.12 -0.12)">
       <use xlink:href="#DejaVuSans-36"/>
       <use x="63.623047" xlink:href="#DejaVuSans-32"/>
       <use x="127.246094" xlink:href="#DejaVuSans-35"/>
      </g>
     </g>
    </g>
    <g id="xtick_23">
     <g id="line2d_34">
      <g>
       <use style="stroke:#000000;stroke-width:0.8;" x="911.747416" xlink:href="#m26426dbd21" y="600.28"/>
      </g>
     </g>
     <g id="text_32">
      <!-- 650 -->
      <g transform="translate(900.294916 616.398125)scale(0.12 -0.12)">
       <use xlink:href="#DejaVuSans-36"/>
       <use x="63.623047" xlink:href="#DejaVuSans-35"/>
       <use x="127.246094" xlink:href="#DejaVuSans-30"/>
      </g>
     </g>
    </g>
    <g id="xtick_24">
     <g id="line2d_35">
      <g>
       <use style="stroke:#000000;stroke-width:0.8;" x="992.962267" xlink:href="#m26426dbd21" y="600.28"/>
      </g>
     </g>
     <g id="text_33">
      <!-- 675 -->
      <g transform="translate(981.509767 616.398125)scale(0.12 -0.12)">
       <use xlink:href="#DejaVuSans-36"/>
       <use x="63.623047" xlink:href="#DejaVuSans-37"/>
       <use x="127.246094" xlink:href="#DejaVuSans-35"/>
      </g>
     </g>
    </g>
    <g id="xtick_25">
     <g id="line2d_36">
      <g>
       <use style="stroke:#000000;stroke-width:0.8;" x="1074.177117" xlink:href="#m26426dbd21" y="600.28"/>
      </g>
     </g>
     <g id="text_34">
      <!-- 700 -->
      <g transform="translate(1062.724617 616.398125)scale(0.12 -0.12)">
       <use xlink:href="#DejaVuSans-37"/>
       <use x="63.623047" xlink:href="#DejaVuSans-30"/>
       <use x="127.246094" xlink:href="#DejaVuSans-30"/>
      </g>
     </g>
    </g>
    <g id="text_35">
     <!-- Wavelength $\lambda$ (nm) -->
     <g transform="translate(527.669499 633.53375)scale(0.14 -0.14)">
      <defs>
       <path d="M 2906 1791 
Q 2906 2416 2648 2759 
Q 2391 3103 1925 3103 
Q 1463 3103 1205 2759 
Q 947 2416 947 1791 
Q 947 1169 1205 825 
Q 1463 481 1925 481 
Q 2391 481 2648 825 
Q 2906 1169 2906 1791 
z
M 3481 434 
Q 3481 -459 3084 -895 
Q 2688 -1331 1869 -1331 
Q 1566 -1331 1297 -1286 
Q 1028 -1241 775 -1147 
L 775 -588 
Q 1028 -725 1275 -790 
Q 1522 -856 1778 -856 
Q 2344 -856 2625 -561 
Q 2906 -266 2906 331 
L 2906 616 
Q 2728 306 2450 153 
Q 2172 0 1784 0 
Q 1141 0 747 490 
Q 353 981 353 1791 
Q 353 2603 747 3093 
Q 1141 3584 1784 3584 
Q 2172 3584 2450 3431 
Q 2728 3278 2906 2969 
L 2906 3500 
L 3481 3500 
L 3481 434 
z
" id="DejaVuSans-67" transform="scale(0.015625)"/>
       <path d="M 3513 2113 
L 3513 0 
L 2938 0 
L 2938 2094 
Q 2938 2591 2744 2837 
Q 2550 3084 2163 3084 
Q 1697 3084 1428 2787 
Q 1159 2491 1159 1978 
L 1159 0 
L 581 0 
L 581 4863 
L 1159 4863 
L 1159 2956 
Q 1366 3272 1645 3428 
Q 1925 3584 2291 3584 
Q 2894 3584 3203 3211 
Q 3513 2838 3513 2113 
z
" id="DejaVuSans-68" transform="scale(0.015625)"/>
       <path d="M 2350 4316 
L 3125 0 
L 2516 0 
L 2038 2588 
L 328 0 
L -281 0 
L 1903 3356 
L 1794 3975 
Q 1725 4369 1391 4369 
L 1091 4369 
L 1184 4863 
L 1550 4856 
Q 2253 4847 2350 4316 
z
" id="DejaVuSans-Oblique-3bb" transform="scale(0.015625)"/>
      </defs>
      <use transform="translate(0 0.015625)" xlink:href="#DejaVuSans-57"/>
      <use transform="translate(98.876953 0.015625)" xlink:href="#DejaVuSans-61"/>
      <use transform="translate(160.15625 0.015625)" xlink:href="#DejaVuSans-76"/>
      <use transform="translate(219.335938 0.015625)" xlink:href="#DejaVuSans-65"/>
      <use transform="translate(280.859375 0.015625)" xlink:href="#DejaVuSans-6c"/>
      <use transform="translate(308.642578 0.015625)" xlink:href="#DejaVuSans-65"/>
      <use transform="translate(370.166016 0.015625)" xlink:href="#DejaVuSans-6e"/>
      <use transform="translate(433.544922 0.015625)" xlink:href="#DejaVuSans-67"/>
      <use transform="translate(497.021484 0.015625)" xlink:href="#DejaVuSans-74"/>
      <use transform="translate(536.230469 0.015625)" xlink:href="#DejaVuSans-68"/>
      <use transform="translate(599.609375 0.015625)" xlink:href="#DejaVuSans-20"/>
      <use transform="translate(631.396484 0.015625)" xlink:href="#DejaVuSans-Oblique-3bb"/>
      <use transform="translate(690.576172 0.015625)" xlink:href="#DejaVuSans-20"/>
      <use transform="translate(722.363281 0.015625)" xlink:href="#DejaVuSans-28"/>
      <use transform="translate(761.376953 0.015625)" xlink:href="#DejaVuSans-6e"/>
      <use transform="translate(824.755859 0.015625)" xlink:href="#DejaVuSans-6d"/>
      <use transform="translate(922.167969 0.015625)" xlink:href="#DejaVuSans-29"/>
     </g>
    </g>
   </g>
   <g id="matplotlib.axis_4">
    <g id="ytick_7">
     <g id="line2d_37">
      <g>
       <use style="stroke:#000000;stroke-width:0.8;" x="50.87" xlink:href="#meb4642d8d6" y="555.465333"/>
      </g>
     </g>
     <g id="text_36">
      <!-- 0.0 -->
      <g transform="translate(24.78625 560.024396)scale(0.12 -0.12)">
       <use xlink:href="#DejaVuSans-30"/>
       <use x="63.623047" xlink:href="#DejaVuSans-2e"/>
       <use x="95.410156" xlink:href="#DejaVuSans-30"/>
      </g>
     </g>
    </g>
    <g id="ytick_8">
     <g id="line2d_38">
      <g>
       <use style="stroke:#000000;stroke-width:0.8;" x="50.87" xlink:href="#meb4642d8d6" y="465.836"/>
      </g>
     </g>
     <g id="text_37">
      <!-- 0.2 -->
      <g transform="translate(24.78625 470.395062)scale(0.12 -0.12)">
       <use xlink:href="#DejaVuSans-30"/>
       <use x="63.623047" xlink:href="#DejaVuSans-2e"/>
       <use x="95.410156" xlink:href="#DejaVuSans-32"/>
      </g>
     </g>
    </g>
    <g id="ytick_9">
     <g id="line2d_39">
      <g>
       <use style="stroke:#000000;stroke-width:0.8;" x="50.87" xlink:href="#meb4642d8d6" y="376.206667"/>
      </g>
     </g>
     <g id="text_38">
      <!-- 0.4 -->
      <g transform="translate(24.78625 380.765729)scale(0.12 -0.12)">
       <use xlink:href="#DejaVuSans-30"/>
       <use x="63.623047" xlink:href="#DejaVuSans-2e"/>
       <use x="95.410156" xlink:href="#DejaVuSans-34"/>
      </g>
     </g>
    </g>
    <g id="ytick_10">
     <g id="line2d_40">
      <g>
       <use style="stroke:#000000;stroke-width:0.8;" x="50.87" xlink:href="#meb4642d8d6" y="286.577333"/>
      </g>
     </g>
     <g id="text_39">
      <!-- 0.6 -->
      <g transform="translate(24.78625 291.136396)scale(0.12 -0.12)">
       <use xlink:href="#DejaVuSans-30"/>
       <use x="63.623047" xlink:href="#DejaVuSans-2e"/>
       <use x="95.410156" xlink:href="#DejaVuSans-36"/>
      </g>
     </g>
    </g>
    <g id="ytick_11">
     <g id="line2d_41">
      <g>
       <use style="stroke:#000000;stroke-width:0.8;" x="50.87" xlink:href="#meb4642d8d6" y="196.948"/>
      </g>
     </g>
     <g id="text_40">
      <!-- 0.8 -->
      <g transform="translate(24.78625 201.507063)scale(0.12 -0.12)">
       <use xlink:href="#DejaVuSans-30"/>
       <use x="63.623047" xlink:href="#DejaVuSans-2e"/>
       <use x="95.410156" xlink:href="#DejaVuSans-38"/>
      </g>
     </g>
    </g>
    <g id="ytick_12">
     <g id="line2d_42">
      <g>
       <use style="stroke:#000000;stroke-width:0.8;" x="50.87" xlink:href="#meb4642d8d6" y="107.318667"/>
      </g>
     </g>
     <g id="text_41">
      <!-- 1.0 -->
      <g transform="translate(24.78625 111.877729)scale(0.12 -0.12)">
       <use xlink:href="#DejaVuSans-31"/>
       <use x="63.623047" xlink:href="#DejaVuSans-2e"/>
       <use x="95.410156" xlink:href="#DejaVuSans-30"/>
      </g>
     </g>
    </g>
   </g>
   <g id="text_42">
    <!-- 569 nm -->
    <g transform="translate(633.2738 84.8)scale(0.08 -0.08)">
     <use xlink:href="#DejaVuSans-35"/>
     <use x="63.623047" xlink:href="#DejaVuSans-36"/>
     <use x="127.246094" xlink:href="#DejaVuSans-39"/>
     <use x="190.869141" xlink:href="#DejaVuSans-20"/>
     <use x="222.65625" xlink:href="#DejaVuSans-6e"/>
     <use x="286.035156" xlink:href="#DejaVuSans-6d"/>
    </g>
    <!-- (17574 $cm^{-1}$) -->
    <g transform="translate(621.2513 94.45125)scale(0.08 -0.08)">
     <use transform="translate(0 0.684375)" xlink:href="#DejaVuSans-28"/>
     <use transform="translate(39.013672 0.684375)" xlink:href="#DejaVuSans-31"/>
     <use transform="translate(102.636719 0.684375)" xlink:href="#DejaVuSans-37"/>
     <use transform="translate(166.259766 0.684375)" xlink:href="#DejaVuSans-35"/>
     <use transform="translate(222.632812 0.684375)" xlink:href="#DejaVuSans-37"/>
     <use transform="translate(286.255859 0.684375)" xlink:href="#DejaVuSans-34"/>
     <use transform="translate(349.878906 0.684375)" xlink:href="#DejaVuSans-20"/>
     <use transform="translate(381.666016 0.684375)" xlink:href="#DejaVuSans-Oblique-63"/>
     <use transform="translate(436.646484 0.684375)" xlink:href="#DejaVuSans-Oblique-6d"/>
     <use transform="translate(538.70849 38.965625)scale(0.7)" xlink:href="#DejaVuSans-2212"/>
     <use transform="translate(597.360833 38.965625)scale(0.7)" xlink:href="#DejaVuSans-31"/>
     <use transform="translate(644.631341 0.684375)" xlink:href="#DejaVuSans-29"/>
    </g>
   </g>
   <g id="text_43">
    <!-- 540 nm -->
    <g transform="translate(539.064574 84.8)scale(0.08 -0.08)">
     <use xlink:href="#DejaVuSans-35"/>
     <use x="63.623047" xlink:href="#DejaVuSans-34"/>
     <use x="127.246094" xlink:href="#DejaVuSans-30"/>
     <use x="190.869141" xlink:href="#DejaVuSans-20"/>
     <use x="222.65625" xlink:href="#DejaVuSans-6e"/>
     <use x="286.035156" xlink:href="#DejaVuSans-6d"/>
    </g>
    <!-- (18518 $cm^{-1}$) -->
    <g transform="translate(526.762074 94.45125)scale(0.08 -0.08)">
     <use transform="translate(0 0.684375)" xlink:href="#DejaVuSans-28"/>
     <use transform="translate(39.013672 0.684375)" xlink:href="#DejaVuSans-31"/>
     <use transform="translate(102.636719 0.684375)" xlink:href="#DejaVuSans-38"/>
     <use transform="translate(166.259766 0.684375)" xlink:href="#DejaVuSans-35"/>
     <use transform="translate(229.882812 0.684375)" xlink:href="#DejaVuSans-31"/>
     <use transform="translate(293.505859 0.684375)" xlink:href="#DejaVuSans-38"/>
     <use transform="translate(357.128906 0.684375)" xlink:href="#DejaVuSans-20"/>
     <use transform="translate(388.916016 0.684375)" xlink:href="#DejaVuSans-Oblique-63"/>
     <use transform="translate(443.896484 0.684375)" xlink:href="#DejaVuSans-Oblique-6d"/>
     <use transform="translate(545.95849 38.965625)scale(0.7)" xlink:href="#DejaVuSans-2212"/>
     <use transform="translate(604.610833 38.965625)scale(0.7)" xlink:href="#DejaVuSans-31"/>
     <use transform="translate(651.881341 0.684375)" xlink:href="#DejaVuSans-29"/>
    </g>
   </g>
   <g id="text_44">
    <!-- 445 nm -->
    <g transform="translate(230.448141 84.8)scale(0.08 -0.08)">
     <use xlink:href="#DejaVuSans-34"/>
     <use x="63.623047" xlink:href="#DejaVuSans-34"/>
     <use x="127.246094" xlink:href="#DejaVuSans-35"/>
     <use x="190.869141" xlink:href="#DejaVuSans-20"/>
     <use x="222.65625" xlink:href="#DejaVuSans-6e"/>
     <use x="286.035156" xlink:href="#DejaVuSans-6d"/>
    </g>
    <!-- (22471 $cm^{-1}$) -->
    <g transform="translate(218.145641 94.45125)scale(0.08 -0.08)">
     <use transform="translate(0 0.684375)" xlink:href="#DejaVuSans-28"/>
     <use transform="translate(39.013672 0.684375)" xlink:href="#DejaVuSans-32"/>
     <use transform="translate(102.636719 0.684375)" xlink:href="#DejaVuSans-32"/>
     <use transform="translate(166.259766 0.684375)" xlink:href="#DejaVuSans-34"/>
     <use transform="translate(229.882812 0.684375)" xlink:href="#DejaVuSans-37"/>
     <use transform="translate(293.505859 0.684375)" xlink:href="#DejaVuSans-31"/>
     <use transform="translate(357.128906 0.684375)" xlink:href="#DejaVuSans-20"/>
     <use transform="translate(388.916016 0.684375)" xlink:href="#DejaVuSans-Oblique-63"/>
     <use transform="translate(443.896484 0.684375)" xlink:href="#DejaVuSans-Oblique-6d"/>
     <use transform="translate(545.95849 38.965625)scale(0.7)" xlink:href="#DejaVuSans-2212"/>
     <use transform="translate(604.610833 38.965625)scale(0.7)" xlink:href="#DejaVuSans-31"/>
     <use transform="translate(651.881341 0.684375)" xlink:href="#DejaVuSans-29"/>
    </g>
   </g>
   <g id="patch_8">
    <path d="M 50.87 600.28 
L 50.87 62.504 
" style="fill:none;stroke:#000000;stroke-linecap:square;stroke-linejoin:miter;stroke-width:0.8;"/>
   </g>
   <g id="patch_9">
    <path d="M 1139.148998 600.28 
L 1139.148998 62.504 
" style="fill:none;stroke:#000000;stroke-linecap:square;stroke-linejoin:miter;stroke-width:0.8;"/>
   </g>
   <g id="patch_10">
    <path d="M 50.87 600.28 
L 1139.148998 600.28 
" style="fill:none;stroke:#000000;stroke-linecap:square;stroke-linejoin:miter;stroke-width:0.8;"/>
   </g>
   <g id="patch_11">
    <path d="M 50.87 62.504 
L 1139.148998 62.504 
" style="fill:none;stroke:#000000;stroke-linecap:square;stroke-linejoin:miter;stroke-width:0.8;"/>
   </g>
   <g id="legend_1">
    <g id="patch_12">
     <path d="M 900.882748 353.387625 
L 1132.148998 353.387625 
Q 1134.148998 353.387625 1134.148998 351.387625 
L 1134.148998 311.396375 
Q 1134.148998 309.396375 1132.148998 309.396375 
L 900.882748 309.396375 
Q 898.882748 309.396375 898.882748 311.396375 
L 898.882748 351.387625 
Q 898.882748 353.387625 900.882748 353.387625 
z
" style="fill:#ffffff;opacity:0.8;stroke:#cccccc;stroke-linejoin:miter;"/>
    </g>
    <g id="line2d_43">
     <path d="M 902.882748 316.896375 
L 922.882748 316.896375 
" style="fill:none;stroke:#ff0000;stroke-linecap:square;stroke-width:2;"/>
    </g>
    <g id="line2d_44"/>
    <g id="text_45">
     <!-- Long-Wavelength-Sensitive Cone Fundamental -->
     <g transform="translate(930.882748 320.396375)scale(0.08 -0.08)">
      <defs>
       <path d="M 628 4666 
L 1259 4666 
L 1259 531 
L 3531 531 
L 3531 0 
L 628 0 
L 628 4666 
z
" id="DejaVuSans-4c" transform="scale(0.015625)"/>
      </defs>
      <use xlink:href="#DejaVuSans-4c"/>
      <use x="53.962891" xlink:href="#DejaVuSans-6f"/>
      <use x="115.144531" xlink:href="#DejaVuSans-6e"/>
      <use x="178.523438" xlink:href="#DejaVuSans-67"/>
      <use x="242" xlink:href="#DejaVuSans-2d"/>
      <use x="274.083984" xlink:href="#DejaVuSans-57"/>
      <use x="366.585938" xlink:href="#DejaVuSans-61"/>
      <use x="427.865234" xlink:href="#DejaVuSans-76"/>
      <use x="487.044922" xlink:href="#DejaVuSans-65"/>
      <use x="548.568359" xlink:href="#DejaVuSans-6c"/>
      <use x="576.351562" xlink:href="#DejaVuSans-65"/>
      <use x="637.875" xlink:href="#DejaVuSans-6e"/>
      <use x="701.253906" xlink:href="#DejaVuSans-67"/>
      <use x="764.730469" xlink:href="#DejaVuSans-74"/>
      <use x="803.939453" xlink:href="#DejaVuSans-68"/>
      <use x="867.318359" xlink:href="#DejaVuSans-2d"/>
      <use x="903.402344" xlink:href="#DejaVuSans-53"/>
      <use x="966.878906" xlink:href="#DejaVuSans-65"/>
      <use x="1028.402344" xlink:href="#DejaVuSans-6e"/>
      <use x="1091.78125" xlink:href="#DejaVuSans-73"/>
      <use x="1143.880859" xlink:href="#DejaVuSans-69"/>
      <use x="1171.664062" xlink:href="#DejaVuSans-74"/>
      <use x="1210.873047" xlink:href="#DejaVuSans-69"/>
      <use x="1238.65625" xlink:href="#DejaVuSans-76"/>
      <use x="1297.835938" xlink:href="#DejaVuSans-65"/>
      <use x="1359.359375" xlink:href="#DejaVuSans-20"/>
      <use x="1391.146484" xlink:href="#DejaVuSans-43"/>
      <use x="1460.970703" xlink:href="#DejaVuSans-6f"/>
      <use x="1522.152344" xlink:href="#DejaVuSans-6e"/>
      <use x="1585.53125" xlink:href="#DejaVuSans-65"/>
      <use x="1647.054688" xlink:href="#DejaVuSans-20"/>
      <use x="1678.841797" xlink:href="#DejaVuSans-46"/>
      <use x="1730.861328" xlink:href="#DejaVuSans-75"/>
      <use x="1794.240234" xlink:href="#DejaVuSans-6e"/>
      <use x="1857.619141" xlink:href="#DejaVuSans-64"/>
      <use x="1921.095703" xlink:href="#DejaVuSans-61"/>
      <use x="1982.375" xlink:href="#DejaVuSans-6d"/>
      <use x="2079.787109" xlink:href="#DejaVuSans-65"/>
      <use x="2141.310547" xlink:href="#DejaVuSans-6e"/>
      <use x="2204.689453" xlink:href="#DejaVuSans-74"/>
      <use x="2243.898438" xlink:href="#DejaVuSans-61"/>
      <use x="2305.177734" xlink:href="#DejaVuSans-6c"/>
     </g>
    </g>
    <g id="line2d_45">
     <path d="M 902.882748 330.560125 
L 922.882748 330.560125 
" style="fill:none;stroke:#00ff00;stroke-linecap:square;stroke-width:2;"/>
    </g>
    <g id="line2d_46"/>
    <g id="text_46">
     <!-- Medium-Wavelength-Sensitive Cone Fundamental -->
     <g transform="translate(930.882748 334.060125)scale(0.08 -0.08)">
      <defs>
       <path d="M 628 4666 
L 1569 4666 
L 2759 1491 
L 3956 4666 
L 4897 4666 
L 4897 0 
L 4281 0 
L 4281 4097 
L 3078 897 
L 2444 897 
L 1241 4097 
L 1241 0 
L 628 0 
L 628 4666 
z
" id="DejaVuSans-4d" transform="scale(0.015625)"/>
      </defs>
      <use xlink:href="#DejaVuSans-4d"/>
      <use x="86.279297" xlink:href="#DejaVuSans-65"/>
      <use x="147.802734" xlink:href="#DejaVuSans-64"/>
      <use x="211.279297" xlink:href="#DejaVuSans-69"/>
      <use x="239.0625" xlink:href="#DejaVuSans-75"/>
      <use x="302.441406" xlink:href="#DejaVuSans-6d"/>
      <use x="399.853516" xlink:href="#DejaVuSans-2d"/>
      <use x="431.9375" xlink:href="#DejaVuSans-57"/>
      <use x="524.439453" xlink:href="#DejaVuSans-61"/>
      <use x="585.71875" xlink:href="#DejaVuSans-76"/>
      <use x="644.898438" xlink:href="#DejaVuSans-65"/>
      <use x="706.421875" xlink:href="#DejaVuSans-6c"/>
      <use x="734.205078" xlink:href="#DejaVuSans-65"/>
      <use x="795.728516" xlink:href="#DejaVuSans-6e"/>
      <use x="859.107422" xlink:href="#DejaVuSans-67"/>
      <use x="922.583984" xlink:href="#DejaVuSans-74"/>
      <use x="961.792969" xlink:href="#DejaVuSans-68"/>
      <use x="1025.171875" xlink:href="#DejaVuSans-2d"/>
      <use x="1061.255859" xlink:href="#DejaVuSans-53"/>
      <use x="1124.732422" xlink:href="#DejaVuSans-65"/>
      <use x="1186.255859" xlink:href="#DejaVuSans-6e"/>
      <use x="1249.634766" xlink:href="#DejaVuSans-73"/>
      <use x="1301.734375" xlink:href="#DejaVuSans-69"/>
      <use x="1329.517578" xlink:href="#DejaVuSans-74"/>
      <use x="1368.726562" xlink:href="#DejaVuSans-69"/>
      <use x="1396.509766" xlink:href="#DejaVuSans-76"/>
      <use x="1455.689453" xlink:href="#DejaVuSans-65"/>
      <use x="1517.212891" xlink:href="#DejaVuSans-20"/>
      <use x="1549" xlink:href="#DejaVuSans-43"/>
      <use x="1618.824219" xlink:href="#DejaVuSans-6f"/>
      <use x="1680.005859" xlink:href="#DejaVuSans-6e"/>
      <use x="1743.384766" xlink:href="#DejaVuSans-65"/>
      <use x="1804.908203" xlink:href="#DejaVuSans-20"/>
      <use x="1836.695312" xlink:href="#DejaVuSans-46"/>
      <use x="1888.714844" xlink:href="#DejaVuSans-75"/>
      <use x="1952.09375" xlink:href="#DejaVuSans-6e"/>
      <use x="2015.472656" xlink:href="#DejaVuSans-64"/>
      <use x="2078.949219" xlink:href="#DejaVuSans-61"/>
      <use x="2140.228516" xlink:href="#DejaVuSans-6d"/>
      <use x="2237.640625" xlink:href="#DejaVuSans-65"/>
      <use x="2299.164062" xlink:href="#DejaVuSans-6e"/>
      <use x="2362.542969" xlink:href="#DejaVuSans-74"/>
      <use x="2401.751953" xlink:href="#DejaVuSans-61"/>
      <use x="2463.03125" xlink:href="#DejaVuSans-6c"/>
     </g>
    </g>
    <g id="line2d_47">
     <path d="M 902.882748 344.223875 
L 922.882748 344.223875 
" style="fill:none;stroke:#0000ff;stroke-linecap:square;stroke-width:2;"/>
    </g>
    <g id="line2d_48"/>
    <g id="text_47">
     <!-- Short-Wavelength-Sensitive Cone Fundamental -->
     <g transform="translate(930.882748 347.723875)scale(0.08 -0.08)">
      <use xlink:href="#DejaVuSans-53"/>
      <use x="63.476562" xlink:href="#DejaVuSans-68"/>
      <use x="126.855469" xlink:href="#DejaVuSans-6f"/>
      <use x="188.037109" xlink:href="#DejaVuSans-72"/>
      <use x="229.150391" xlink:href="#DejaVuSans-74"/>
      <use x="268.359375" xlink:href="#DejaVuSans-2d"/>
      <use x="300.443359" xlink:href="#DejaVuSans-57"/>
      <use x="392.945312" xlink:href="#DejaVuSans-61"/>
      <use x="454.224609" xlink:href="#DejaVuSans-76"/>
      <use x="513.404297" xlink:href="#DejaVuSans-65"/>
      <use x="574.927734" xlink:href="#DejaVuSans-6c"/>
      <use x="602.710938" xlink:href="#DejaVuSans-65"/>
      <use x="664.234375" xlink:href="#DejaVuSans-6e"/>
      <use x="727.613281" xlink:href="#DejaVuSans-67"/>
      <use x="791.089844" xlink:href="#DejaVuSans-74"/>
      <use x="830.298828" xlink:href="#DejaVuSans-68"/>
      <use x="893.677734" xlink:href="#DejaVuSans-2d"/>
      <use x="929.761719" xlink:href="#DejaVuSans-53"/>
      <use x="993.238281" xlink:href="#DejaVuSans-65"/>
      <use x="1054.761719" xlink:href="#DejaVuSans-6e"/>
      <use x="1118.140625" xlink:href="#DejaVuSans-73"/>
      <use x="1170.240234" xlink:href="#DejaVuSans-69"/>
      <use x="1198.023438" xlink:href="#DejaVuSans-74"/>
      <use x="1237.232422" xlink:href="#DejaVuSans-69"/>
      <use x="1265.015625" xlink:href="#DejaVuSans-76"/>
      <use x="1324.195312" xlink:href="#DejaVuSans-65"/>
      <use x="1385.71875" xlink:href="#DejaVuSans-20"/>
      <use x="1417.505859" xlink:href="#DejaVuSans-43"/>
      <use x="1487.330078" xlink:href="#DejaVuSans-6f"/>
      <use x="1548.511719" xlink:href="#DejaVuSans-6e"/>
      <use x="1611.890625" xlink:href="#DejaVuSans-65"/>
      <use x="1673.414062" xlink:href="#DejaVuSans-20"/>
      <use x="1705.201172" xlink:href="#DejaVuSans-46"/>
      <use x="1757.220703" xlink:href="#DejaVuSans-75"/>
      <use x="1820.599609" xlink:href="#DejaVuSans-6e"/>
      <use x="1883.978516" xlink:href="#DejaVuSans-64"/>
      <use x="1947.455078" xlink:href="#DejaVuSans-61"/>
      <use x="2008.734375" xlink:href="#DejaVuSans-6d"/>
      <use x="2106.146484" xlink:href="#DejaVuSans-65"/>
      <use x="2167.669922" xlink:href="#DejaVuSans-6e"/>
      <use x="2231.048828" xlink:href="#DejaVuSans-74"/>
      <use x="2270.257812" xlink:href="#DejaVuSans-61"/>
      <use x="2331.537109" xlink:href="#DejaVuSans-6c"/>
     </g>
    </g>
   </g>
  </g>
 </g>
 <defs>
  <clipPath id="p268be1199d">
   <rect height="537.776" width="1088.278998" x="50.87" y="62.504"/>
  </clipPath>
 </defs>
</svg>
