<?xml version="1.0" encoding="utf-8" standalone="no"?>
<!DOCTYPE svg PUBLIC "-//W3C//DTD SVG 1.1//EN"
  "http://www.w3.org/Graphics/SVG/1.1/DTD/svg11.dtd">
<svg height="648pt" version="1.1" viewBox="0 0 1152 648" width="1152pt" xmlns="http://www.w3.org/2000/svg" xmlns:xlink="http://www.w3.org/1999/xlink">
 <metadata>
  <rdf:RDF xmlns:cc="http://creativecommons.org/ns#" xmlns:dc="http://purl.org/dc/elements/1.1/" xmlns:rdf="http://www.w3.org/1999/02/22-rdf-syntax-ns#">
   <cc:Work>
    <dc:type rdf:resource="http://purl.org/dc/dcmitype/StillImage"/>
    <dc:date>2022-06-24T09:51:21.632306</dc:date>
    <dc:format>image/svg+xml</dc:format>
    <dc:creator>
     <cc:Agent>
      <dc:title>Matplotlib v3.4.2, https://matplotlib.org/</dc:title>
     </cc:Agent>
    </dc:creator>
   </cc:Work>
  </rdf:RDF>
 </metadata>
 <defs>
  <style type="text/css">*{stroke-linecap:butt;stroke-linejoin:round;}</style>
 </defs>
 <g id="figure_1">
  <g id="patch_1">
   <path d="M 0 648 
L 1152 648 
L 1152 0 
L 0 0 
z
" style="fill:#ffffff;"/>
  </g>
  <g id="axes_1">
   <g id="patch_2">
    <path d="M 50.87 581.257 
L 568.8 581.257 
L 568.8 63.327 
L 50.87 63.327 
z
" style="fill:none;"/>
   </g>
   <g id="line2d_1">
    <path clip-path="url(#p8e837f500a)" d="M 50.87 545.057591 
L 568.8 545.057591 
" style="fill:none;stroke:#000000;stroke-linecap:square;stroke-width:2;"/>
   </g>
   <g id="line2d_2">
    <path clip-path="url(#p8e837f500a)" d="M 87.069409 581.257 
L 87.069409 63.327 
" style="fill:none;stroke:#000000;stroke-linecap:square;stroke-width:2;"/>
   </g>
   <g id="line2d_3">
    <path clip-path="url(#p8e837f500a)" d="M 97.925796 -1 
L 643.983387 545.057591 
" style="fill:none;stroke:#808080;stroke-dasharray:5.55,2.4;stroke-dashoffset:0;stroke-width:1.5;"/>
   </g>
   <g id="line2d_4">
    <path clip-path="url(#p8e837f500a)" d="M 184.841227 542.109289 
L 183.701781 542.331497 
L 183.427222 542.398327 
L 182.628607 542.267452 
L 181.772631 541.730587 
L 179.765513 540.065414 
L 175.878253 536.574678 
L 169.680357 530.997184 
L 167.242745 528.515575 
L 164.547838 525.453662 
L 162.532923 522.848419 
L 160.231755 519.508606 
L 157.609247 515.303905 
L 154.717193 510.201459 
L 151.563946 504.079304 
L 148.103839 496.693511 
L 144.3068 487.771192 
L 140.145538 477.144716 
L 135.566592 464.685437 
L 130.573301 450.148311 
L 127.9675 442.010684 
L 125.33274 433.272147 
L 122.708005 423.946622 
L 120.103318 414.04135 
L 117.514225 403.547977 
L 114.932372 392.462047 
L 112.348291 380.781334 
L 109.767552 368.526442 
L 107.22691 355.76253 
L 104.754769 342.564783 
L 102.381202 329.018964 
L 100.134611 315.217522 
L 98.043399 301.265156 
L 96.129285 287.23148 
L 94.411206 273.168289 
L 92.903639 259.135727 
L 91.618282 245.202296 
L 90.569613 231.477151 
L 89.784364 218.084484 
L 89.28704 205.091124 
L 89.094348 192.524917 
L 89.21854 180.377509 
L 89.656831 168.640547 
L 90.417019 157.378633 
L 91.518037 146.673632 
L 92.974368 136.60964 
L 94.793805 127.268522 
L 96.963542 118.677566 
L 99.457403 110.870746 
L 102.258124 103.923801 
L 105.347325 97.896878 
L 108.70663 92.83453 
L 112.313205 88.72729 
L 116.127509 85.512225 
L 120.108887 83.138658 
L 124.224482 81.552567 
L 128.449231 80.701045 
L 132.765871 80.541211 
L 137.159366 80.987299 
L 141.613564 81.931825 
L 146.113986 83.276773 
L 150.647265 84.931364 
L 155.206163 86.845477 
L 159.772301 88.985141 
L 164.314491 91.298561 
L 173.236253 96.260665 
L 181.876774 101.465026 
L 190.316248 106.917771 
L 198.624291 112.670135 
L 206.822621 118.687034 
L 214.947996 124.961227 
L 223.030489 131.485474 
L 231.075111 138.228032 
L 239.083534 145.158826 
L 251.05273 155.862713 
L 263.006331 166.877914 
L 278.933514 181.934084 
L 298.832607 201.162096 
L 322.600025 224.480641 
L 353.705899 255.349826 
L 496.228539 397.302744 
L 496.228539 397.302744 
" style="fill:none;stroke:#404040;stroke-linecap:square;stroke-width:1.5;"/>
   </g>
   <g id="line2d_5">
    <path clip-path="url(#p8e837f500a)" d="M 184.841227 542.109289 
L 496.228539 397.302744 
" style="fill:none;stroke:#404040;stroke-dasharray:1.5,2.475;stroke-dashoffset:0;stroke-width:1.5;"/>
   </g>
   <g id="matplotlib.axis_1">
    <g id="xtick_1">
     <g id="line2d_6">
      <defs>
       <path d="M 0 0 
L 0 3.5 
" id="ma9e672e45e" style="stroke:#000000;stroke-width:0.8;"/>
      </defs>
      <g>
       <use style="stroke:#000000;stroke-width:0.8;" x="87.069409" xlink:href="#ma9e672e45e" y="581.257"/>
      </g>
     </g>
     <g id="text_1">
      <!-- 0.0 -->
      <g transform="translate(77.527534 597.375125)scale(0.12 -0.12)">
       <defs>
        <path d="M 2034 4250 
Q 1547 4250 1301 3770 
Q 1056 3291 1056 2328 
Q 1056 1369 1301 889 
Q 1547 409 2034 409 
Q 2525 409 2770 889 
Q 3016 1369 3016 2328 
Q 3016 3291 2770 3770 
Q 2525 4250 2034 4250 
z
M 2034 4750 
Q 2819 4750 3233 4129 
Q 3647 3509 3647 2328 
Q 3647 1150 3233 529 
Q 2819 -91 2034 -91 
Q 1250 -91 836 529 
Q 422 1150 422 2328 
Q 422 3509 836 4129 
Q 1250 4750 2034 4750 
z
" id="DejaVuSans-30" transform="scale(0.015625)"/>
        <path d="M 684 794 
L 1344 794 
L 1344 0 
L 684 0 
L 684 794 
z
" id="DejaVuSans-2e" transform="scale(0.015625)"/>
       </defs>
       <use xlink:href="#DejaVuSans-30"/>
       <use x="63.623047" xlink:href="#DejaVuSans-2e"/>
       <use x="95.410156" xlink:href="#DejaVuSans-30"/>
      </g>
     </g>
    </g>
    <g id="xtick_2">
     <g id="line2d_7">
      <g>
       <use style="stroke:#000000;stroke-width:0.8;" x="142.760806" xlink:href="#ma9e672e45e" y="581.257"/>
      </g>
     </g>
     <g id="text_2">
      <!-- 0.1 -->
      <g transform="translate(133.218931 597.375125)scale(0.12 -0.12)">
       <defs>
        <path d="M 794 531 
L 1825 531 
L 1825 4091 
L 703 3866 
L 703 4441 
L 1819 4666 
L 2450 4666 
L 2450 531 
L 3481 531 
L 3481 0 
L 794 0 
L 794 531 
z
" id="DejaVuSans-31" transform="scale(0.015625)"/>
       </defs>
       <use xlink:href="#DejaVuSans-30"/>
       <use x="63.623047" xlink:href="#DejaVuSans-2e"/>
       <use x="95.410156" xlink:href="#DejaVuSans-31"/>
      </g>
     </g>
    </g>
    <g id="xtick_3">
     <g id="line2d_8">
      <g>
       <use style="stroke:#000000;stroke-width:0.8;" x="198.452204" xlink:href="#ma9e672e45e" y="581.257"/>
      </g>
     </g>
     <g id="text_3">
      <!-- 0.2 -->
      <g transform="translate(188.910329 597.375125)scale(0.12 -0.12)">
       <defs>
        <path d="M 1228 531 
L 3431 531 
L 3431 0 
L 469 0 
L 469 531 
Q 828 903 1448 1529 
Q 2069 2156 2228 2338 
Q 2531 2678 2651 2914 
Q 2772 3150 2772 3378 
Q 2772 3750 2511 3984 
Q 2250 4219 1831 4219 
Q 1534 4219 1204 4116 
Q 875 4013 500 3803 
L 500 4441 
Q 881 4594 1212 4672 
Q 1544 4750 1819 4750 
Q 2544 4750 2975 4387 
Q 3406 4025 3406 3419 
Q 3406 3131 3298 2873 
Q 3191 2616 2906 2266 
Q 2828 2175 2409 1742 
Q 1991 1309 1228 531 
z
" id="DejaVuSans-32" transform="scale(0.015625)"/>
       </defs>
       <use xlink:href="#DejaVuSans-30"/>
       <use x="63.623047" xlink:href="#DejaVuSans-2e"/>
       <use x="95.410156" xlink:href="#DejaVuSans-32"/>
      </g>
     </g>
    </g>
    <g id="xtick_4">
     <g id="line2d_9">
      <g>
       <use style="stroke:#000000;stroke-width:0.8;" x="254.143602" xlink:href="#ma9e672e45e" y="581.257"/>
      </g>
     </g>
     <g id="text_4">
      <!-- 0.3 -->
      <g transform="translate(244.601727 597.375125)scale(0.12 -0.12)">
       <defs>
        <path d="M 2597 2516 
Q 3050 2419 3304 2112 
Q 3559 1806 3559 1356 
Q 3559 666 3084 287 
Q 2609 -91 1734 -91 
Q 1441 -91 1130 -33 
Q 819 25 488 141 
L 488 750 
Q 750 597 1062 519 
Q 1375 441 1716 441 
Q 2309 441 2620 675 
Q 2931 909 2931 1356 
Q 2931 1769 2642 2001 
Q 2353 2234 1838 2234 
L 1294 2234 
L 1294 2753 
L 1863 2753 
Q 2328 2753 2575 2939 
Q 2822 3125 2822 3475 
Q 2822 3834 2567 4026 
Q 2313 4219 1838 4219 
Q 1578 4219 1281 4162 
Q 984 4106 628 3988 
L 628 4550 
Q 988 4650 1302 4700 
Q 1616 4750 1894 4750 
Q 2613 4750 3031 4423 
Q 3450 4097 3450 3541 
Q 3450 3153 3228 2886 
Q 3006 2619 2597 2516 
z
" id="DejaVuSans-33" transform="scale(0.015625)"/>
       </defs>
       <use xlink:href="#DejaVuSans-30"/>
       <use x="63.623047" xlink:href="#DejaVuSans-2e"/>
       <use x="95.410156" xlink:href="#DejaVuSans-33"/>
      </g>
     </g>
    </g>
    <g id="xtick_5">
     <g id="line2d_10">
      <g>
       <use style="stroke:#000000;stroke-width:0.8;" x="309.835" xlink:href="#ma9e672e45e" y="581.257"/>
      </g>
     </g>
     <g id="text_5">
      <!-- 0.4 -->
      <g transform="translate(300.293125 597.375125)scale(0.12 -0.12)">
       <defs>
        <path d="M 2419 4116 
L 825 1625 
L 2419 1625 
L 2419 4116 
z
M 2253 4666 
L 3047 4666 
L 3047 1625 
L 3713 1625 
L 3713 1100 
L 3047 1100 
L 3047 0 
L 2419 0 
L 2419 1100 
L 313 1100 
L 313 1709 
L 2253 4666 
z
" id="DejaVuSans-34" transform="scale(0.015625)"/>
       </defs>
       <use xlink:href="#DejaVuSans-30"/>
       <use x="63.623047" xlink:href="#DejaVuSans-2e"/>
       <use x="95.410156" xlink:href="#DejaVuSans-34"/>
      </g>
     </g>
    </g>
    <g id="xtick_6">
     <g id="line2d_11">
      <g>
       <use style="stroke:#000000;stroke-width:0.8;" x="365.526398" xlink:href="#ma9e672e45e" y="581.257"/>
      </g>
     </g>
     <g id="text_6">
      <!-- 0.5 -->
      <g transform="translate(355.984523 597.375125)scale(0.12 -0.12)">
       <defs>
        <path d="M 691 4666 
L 3169 4666 
L 3169 4134 
L 1269 4134 
L 1269 2991 
Q 1406 3038 1543 3061 
Q 1681 3084 1819 3084 
Q 2600 3084 3056 2656 
Q 3513 2228 3513 1497 
Q 3513 744 3044 326 
Q 2575 -91 1722 -91 
Q 1428 -91 1123 -41 
Q 819 9 494 109 
L 494 744 
Q 775 591 1075 516 
Q 1375 441 1709 441 
Q 2250 441 2565 725 
Q 2881 1009 2881 1497 
Q 2881 1984 2565 2268 
Q 2250 2553 1709 2553 
Q 1456 2553 1204 2497 
Q 953 2441 691 2322 
L 691 4666 
z
" id="DejaVuSans-35" transform="scale(0.015625)"/>
       </defs>
       <use xlink:href="#DejaVuSans-30"/>
       <use x="63.623047" xlink:href="#DejaVuSans-2e"/>
       <use x="95.410156" xlink:href="#DejaVuSans-35"/>
      </g>
     </g>
    </g>
    <g id="xtick_7">
     <g id="line2d_12">
      <g>
       <use style="stroke:#000000;stroke-width:0.8;" x="421.217796" xlink:href="#ma9e672e45e" y="581.257"/>
      </g>
     </g>
     <g id="text_7">
      <!-- 0.6 -->
      <g transform="translate(411.675921 597.375125)scale(0.12 -0.12)">
       <defs>
        <path d="M 2113 2584 
Q 1688 2584 1439 2293 
Q 1191 2003 1191 1497 
Q 1191 994 1439 701 
Q 1688 409 2113 409 
Q 2538 409 2786 701 
Q 3034 994 3034 1497 
Q 3034 2003 2786 2293 
Q 2538 2584 2113 2584 
z
M 3366 4563 
L 3366 3988 
Q 3128 4100 2886 4159 
Q 2644 4219 2406 4219 
Q 1781 4219 1451 3797 
Q 1122 3375 1075 2522 
Q 1259 2794 1537 2939 
Q 1816 3084 2150 3084 
Q 2853 3084 3261 2657 
Q 3669 2231 3669 1497 
Q 3669 778 3244 343 
Q 2819 -91 2113 -91 
Q 1303 -91 875 529 
Q 447 1150 447 2328 
Q 447 3434 972 4092 
Q 1497 4750 2381 4750 
Q 2619 4750 2861 4703 
Q 3103 4656 3366 4563 
z
" id="DejaVuSans-36" transform="scale(0.015625)"/>
       </defs>
       <use xlink:href="#DejaVuSans-30"/>
       <use x="63.623047" xlink:href="#DejaVuSans-2e"/>
       <use x="95.410156" xlink:href="#DejaVuSans-36"/>
      </g>
     </g>
    </g>
    <g id="xtick_8">
     <g id="line2d_13">
      <g>
       <use style="stroke:#000000;stroke-width:0.8;" x="476.909194" xlink:href="#ma9e672e45e" y="581.257"/>
      </g>
     </g>
     <g id="text_8">
      <!-- 0.7 -->
      <g transform="translate(467.367319 597.375125)scale(0.12 -0.12)">
       <defs>
        <path d="M 525 4666 
L 3525 4666 
L 3525 4397 
L 1831 0 
L 1172 0 
L 2766 4134 
L 525 4134 
L 525 4666 
z
" id="DejaVuSans-37" transform="scale(0.015625)"/>
       </defs>
       <use xlink:href="#DejaVuSans-30"/>
       <use x="63.623047" xlink:href="#DejaVuSans-2e"/>
       <use x="95.410156" xlink:href="#DejaVuSans-37"/>
      </g>
     </g>
    </g>
    <g id="xtick_9">
     <g id="line2d_14">
      <g>
       <use style="stroke:#000000;stroke-width:0.8;" x="532.600591" xlink:href="#ma9e672e45e" y="581.257"/>
      </g>
     </g>
     <g id="text_9">
      <!-- 0.8 -->
      <g transform="translate(523.058716 597.375125)scale(0.12 -0.12)">
       <defs>
        <path d="M 2034 2216 
Q 1584 2216 1326 1975 
Q 1069 1734 1069 1313 
Q 1069 891 1326 650 
Q 1584 409 2034 409 
Q 2484 409 2743 651 
Q 3003 894 3003 1313 
Q 3003 1734 2745 1975 
Q 2488 2216 2034 2216 
z
M 1403 2484 
Q 997 2584 770 2862 
Q 544 3141 544 3541 
Q 544 4100 942 4425 
Q 1341 4750 2034 4750 
Q 2731 4750 3128 4425 
Q 3525 4100 3525 3541 
Q 3525 3141 3298 2862 
Q 3072 2584 2669 2484 
Q 3125 2378 3379 2068 
Q 3634 1759 3634 1313 
Q 3634 634 3220 271 
Q 2806 -91 2034 -91 
Q 1263 -91 848 271 
Q 434 634 434 1313 
Q 434 1759 690 2068 
Q 947 2378 1403 2484 
z
M 1172 3481 
Q 1172 3119 1398 2916 
Q 1625 2713 2034 2713 
Q 2441 2713 2670 2916 
Q 2900 3119 2900 3481 
Q 2900 3844 2670 4047 
Q 2441 4250 2034 4250 
Q 1625 4250 1398 4047 
Q 1172 3844 1172 3481 
z
" id="DejaVuSans-38" transform="scale(0.015625)"/>
       </defs>
       <use xlink:href="#DejaVuSans-30"/>
       <use x="63.623047" xlink:href="#DejaVuSans-2e"/>
       <use x="95.410156" xlink:href="#DejaVuSans-38"/>
      </g>
     </g>
    </g>
    <g id="text_10">
     <!-- x -->
     <g transform="translate(305.691875 614.508562)scale(0.14 -0.14)">
      <defs>
       <path d="M 3513 3500 
L 2247 1797 
L 3578 0 
L 2900 0 
L 1881 1375 
L 863 0 
L 184 0 
L 1544 1831 
L 300 3500 
L 978 3500 
L 1906 2253 
L 2834 3500 
L 3513 3500 
z
" id="DejaVuSans-78" transform="scale(0.015625)"/>
      </defs>
      <use xlink:href="#DejaVuSans-78"/>
     </g>
    </g>
   </g>
   <g id="matplotlib.axis_2">
    <g id="ytick_1">
     <g id="line2d_15">
      <defs>
       <path d="M 0 0 
L -3.5 0 
" id="m1d2c5ff684" style="stroke:#000000;stroke-width:0.8;"/>
      </defs>
      <g>
       <use style="stroke:#000000;stroke-width:0.8;" x="50.87" xlink:href="#m1d2c5ff684" y="545.057591"/>
      </g>
     </g>
     <g id="text_11">
      <!-- 0.0 -->
      <g transform="translate(24.78625 549.616654)scale(0.12 -0.12)">
       <use xlink:href="#DejaVuSans-30"/>
       <use x="63.623047" xlink:href="#DejaVuSans-2e"/>
       <use x="95.410156" xlink:href="#DejaVuSans-30"/>
      </g>
     </g>
    </g>
    <g id="ytick_2">
     <g id="line2d_16">
      <g>
       <use style="stroke:#000000;stroke-width:0.8;" x="50.87" xlink:href="#m1d2c5ff684" y="489.366194"/>
      </g>
     </g>
     <g id="text_12">
      <!-- 0.1 -->
      <g transform="translate(24.78625 493.925256)scale(0.12 -0.12)">
       <use xlink:href="#DejaVuSans-30"/>
       <use x="63.623047" xlink:href="#DejaVuSans-2e"/>
       <use x="95.410156" xlink:href="#DejaVuSans-31"/>
      </g>
     </g>
    </g>
    <g id="ytick_3">
     <g id="line2d_17">
      <g>
       <use style="stroke:#000000;stroke-width:0.8;" x="50.87" xlink:href="#m1d2c5ff684" y="433.674796"/>
      </g>
     </g>
     <g id="text_13">
      <!-- 0.2 -->
      <g transform="translate(24.78625 438.233858)scale(0.12 -0.12)">
       <use xlink:href="#DejaVuSans-30"/>
       <use x="63.623047" xlink:href="#DejaVuSans-2e"/>
       <use x="95.410156" xlink:href="#DejaVuSans-32"/>
      </g>
     </g>
    </g>
    <g id="ytick_4">
     <g id="line2d_18">
      <g>
       <use style="stroke:#000000;stroke-width:0.8;" x="50.87" xlink:href="#m1d2c5ff684" y="377.983398"/>
      </g>
     </g>
     <g id="text_14">
      <!-- 0.3 -->
      <g transform="translate(24.78625 382.54246)scale(0.12 -0.12)">
       <use xlink:href="#DejaVuSans-30"/>
       <use x="63.623047" xlink:href="#DejaVuSans-2e"/>
       <use x="95.410156" xlink:href="#DejaVuSans-33"/>
      </g>
     </g>
    </g>
    <g id="ytick_5">
     <g id="line2d_19">
      <g>
       <use style="stroke:#000000;stroke-width:0.8;" x="50.87" xlink:href="#m1d2c5ff684" y="322.292"/>
      </g>
     </g>
     <g id="text_15">
      <!-- 0.4 -->
      <g transform="translate(24.78625 326.851062)scale(0.12 -0.12)">
       <use xlink:href="#DejaVuSans-30"/>
       <use x="63.623047" xlink:href="#DejaVuSans-2e"/>
       <use x="95.410156" xlink:href="#DejaVuSans-34"/>
      </g>
     </g>
    </g>
    <g id="ytick_6">
     <g id="line2d_20">
      <g>
       <use style="stroke:#000000;stroke-width:0.8;" x="50.87" xlink:href="#m1d2c5ff684" y="266.600602"/>
      </g>
     </g>
     <g id="text_16">
      <!-- 0.5 -->
      <g transform="translate(24.78625 271.159665)scale(0.12 -0.12)">
       <use xlink:href="#DejaVuSans-30"/>
       <use x="63.623047" xlink:href="#DejaVuSans-2e"/>
       <use x="95.410156" xlink:href="#DejaVuSans-35"/>
      </g>
     </g>
    </g>
    <g id="ytick_7">
     <g id="line2d_21">
      <g>
       <use style="stroke:#000000;stroke-width:0.8;" x="50.87" xlink:href="#m1d2c5ff684" y="210.909204"/>
      </g>
     </g>
     <g id="text_17">
      <!-- 0.6 -->
      <g transform="translate(24.78625 215.468267)scale(0.12 -0.12)">
       <use xlink:href="#DejaVuSans-30"/>
       <use x="63.623047" xlink:href="#DejaVuSans-2e"/>
       <use x="95.410156" xlink:href="#DejaVuSans-36"/>
      </g>
     </g>
    </g>
    <g id="ytick_8">
     <g id="line2d_22">
      <g>
       <use style="stroke:#000000;stroke-width:0.8;" x="50.87" xlink:href="#m1d2c5ff684" y="155.217806"/>
      </g>
     </g>
     <g id="text_18">
      <!-- 0.7 -->
      <g transform="translate(24.78625 159.776869)scale(0.12 -0.12)">
       <use xlink:href="#DejaVuSans-30"/>
       <use x="63.623047" xlink:href="#DejaVuSans-2e"/>
       <use x="95.410156" xlink:href="#DejaVuSans-37"/>
      </g>
     </g>
    </g>
    <g id="ytick_9">
     <g id="line2d_23">
      <g>
       <use style="stroke:#000000;stroke-width:0.8;" x="50.87" xlink:href="#m1d2c5ff684" y="99.526409"/>
      </g>
     </g>
     <g id="text_19">
      <!-- 0.8 -->
      <g transform="translate(24.78625 104.085471)scale(0.12 -0.12)">
       <use xlink:href="#DejaVuSans-30"/>
       <use x="63.623047" xlink:href="#DejaVuSans-2e"/>
       <use x="95.410156" xlink:href="#DejaVuSans-38"/>
      </g>
     </g>
    </g>
    <g id="text_20">
     <!-- y -->
     <g transform="translate(17.874687 326.435125)rotate(-90)scale(0.14 -0.14)">
      <defs>
       <path d="M 2059 -325 
Q 1816 -950 1584 -1140 
Q 1353 -1331 966 -1331 
L 506 -1331 
L 506 -850 
L 844 -850 
Q 1081 -850 1212 -737 
Q 1344 -625 1503 -206 
L 1606 56 
L 191 3500 
L 800 3500 
L 1894 763 
L 2988 3500 
L 3597 3500 
L 2059 -325 
z
" id="DejaVuSans-79" transform="scale(0.015625)"/>
      </defs>
      <use xlink:href="#DejaVuSans-79"/>
     </g>
    </g>
   </g>
   <g id="line2d_24">
    <path clip-path="url(#p8e837f500a)" d="M 443.535845 361.292402 
L 254.143602 210.909204 
L 170.615763 511.63905 
L 443.535845 361.292402 
" style="fill:none;stroke:#bfbfbf;stroke-linecap:square;stroke-width:1.5;"/>
   </g>
   <g id="patch_3">
    <path d="M 50.87 581.257 
L 50.87 63.327 
" style="fill:none;stroke:#000000;stroke-linecap:square;stroke-linejoin:miter;stroke-width:0.8;"/>
   </g>
   <g id="patch_4">
    <path d="M 568.8 581.257 
L 568.8 63.327 
" style="fill:none;stroke:#000000;stroke-linecap:square;stroke-linejoin:miter;stroke-width:0.8;"/>
   </g>
   <g id="patch_5">
    <path d="M 50.87 581.257 
L 568.8 581.257 
" style="fill:none;stroke:#000000;stroke-linecap:square;stroke-linejoin:miter;stroke-width:0.8;"/>
   </g>
   <g id="patch_6">
    <path d="M 50.87 63.327 
L 568.8 63.327 
" style="fill:none;stroke:#000000;stroke-linecap:square;stroke-linejoin:miter;stroke-width:0.8;"/>
   </g>
   <g id="line2d_25">
    <path clip-path="url(#p8e837f500a)" d="M 225.930939 355.689316 
L 244.779464 358.969781 
L 261.225269 361.832068 
L 275.700255 364.351346 
L 288.538662 366.585789 
" style="fill:none;stroke:#000000;stroke-linecap:square;stroke-width:2;"/>
   </g>
   <g id="text_21">
    <!-- Protanope Confusion Line from Tabulated Coordinates -->
    <g transform="translate(94.4475 39.4105)scale(0.16 -0.16)">
     <defs>
      <path d="M 1259 4147 
L 1259 2394 
L 2053 2394 
Q 2494 2394 2734 2622 
Q 2975 2850 2975 3272 
Q 2975 3691 2734 3919 
Q 2494 4147 2053 4147 
L 1259 4147 
z
M 628 4666 
L 2053 4666 
Q 2838 4666 3239 4311 
Q 3641 3956 3641 3272 
Q 3641 2581 3239 2228 
Q 2838 1875 2053 1875 
L 1259 1875 
L 1259 0 
L 628 0 
L 628 4666 
z
" id="DejaVuSans-50" transform="scale(0.015625)"/>
      <path d="M 2631 2963 
Q 2534 3019 2420 3045 
Q 2306 3072 2169 3072 
Q 1681 3072 1420 2755 
Q 1159 2438 1159 1844 
L 1159 0 
L 581 0 
L 581 3500 
L 1159 3500 
L 1159 2956 
Q 1341 3275 1631 3429 
Q 1922 3584 2338 3584 
Q 2397 3584 2469 3576 
Q 2541 3569 2628 3553 
L 2631 2963 
z
" id="DejaVuSans-72" transform="scale(0.015625)"/>
      <path d="M 1959 3097 
Q 1497 3097 1228 2736 
Q 959 2375 959 1747 
Q 959 1119 1226 758 
Q 1494 397 1959 397 
Q 2419 397 2687 759 
Q 2956 1122 2956 1747 
Q 2956 2369 2687 2733 
Q 2419 3097 1959 3097 
z
M 1959 3584 
Q 2709 3584 3137 3096 
Q 3566 2609 3566 1747 
Q 3566 888 3137 398 
Q 2709 -91 1959 -91 
Q 1206 -91 779 398 
Q 353 888 353 1747 
Q 353 2609 779 3096 
Q 1206 3584 1959 3584 
z
" id="DejaVuSans-6f" transform="scale(0.015625)"/>
      <path d="M 1172 4494 
L 1172 3500 
L 2356 3500 
L 2356 3053 
L 1172 3053 
L 1172 1153 
Q 1172 725 1289 603 
Q 1406 481 1766 481 
L 2356 481 
L 2356 0 
L 1766 0 
Q 1100 0 847 248 
Q 594 497 594 1153 
L 594 3053 
L 172 3053 
L 172 3500 
L 594 3500 
L 594 4494 
L 1172 4494 
z
" id="DejaVuSans-74" transform="scale(0.015625)"/>
      <path d="M 2194 1759 
Q 1497 1759 1228 1600 
Q 959 1441 959 1056 
Q 959 750 1161 570 
Q 1363 391 1709 391 
Q 2188 391 2477 730 
Q 2766 1069 2766 1631 
L 2766 1759 
L 2194 1759 
z
M 3341 1997 
L 3341 0 
L 2766 0 
L 2766 531 
Q 2569 213 2275 61 
Q 1981 -91 1556 -91 
Q 1019 -91 701 211 
Q 384 513 384 1019 
Q 384 1609 779 1909 
Q 1175 2209 1959 2209 
L 2766 2209 
L 2766 2266 
Q 2766 2663 2505 2880 
Q 2244 3097 1772 3097 
Q 1472 3097 1187 3025 
Q 903 2953 641 2809 
L 641 3341 
Q 956 3463 1253 3523 
Q 1550 3584 1831 3584 
Q 2591 3584 2966 3190 
Q 3341 2797 3341 1997 
z
" id="DejaVuSans-61" transform="scale(0.015625)"/>
      <path d="M 3513 2113 
L 3513 0 
L 2938 0 
L 2938 2094 
Q 2938 2591 2744 2837 
Q 2550 3084 2163 3084 
Q 1697 3084 1428 2787 
Q 1159 2491 1159 1978 
L 1159 0 
L 581 0 
L 581 3500 
L 1159 3500 
L 1159 2956 
Q 1366 3272 1645 3428 
Q 1925 3584 2291 3584 
Q 2894 3584 3203 3211 
Q 3513 2838 3513 2113 
z
" id="DejaVuSans-6e" transform="scale(0.015625)"/>
      <path d="M 1159 525 
L 1159 -1331 
L 581 -1331 
L 581 3500 
L 1159 3500 
L 1159 2969 
Q 1341 3281 1617 3432 
Q 1894 3584 2278 3584 
Q 2916 3584 3314 3078 
Q 3713 2572 3713 1747 
Q 3713 922 3314 415 
Q 2916 -91 2278 -91 
Q 1894 -91 1617 61 
Q 1341 213 1159 525 
z
M 3116 1747 
Q 3116 2381 2855 2742 
Q 2594 3103 2138 3103 
Q 1681 3103 1420 2742 
Q 1159 2381 1159 1747 
Q 1159 1113 1420 752 
Q 1681 391 2138 391 
Q 2594 391 2855 752 
Q 3116 1113 3116 1747 
z
" id="DejaVuSans-70" transform="scale(0.015625)"/>
      <path d="M 3597 1894 
L 3597 1613 
L 953 1613 
Q 991 1019 1311 708 
Q 1631 397 2203 397 
Q 2534 397 2845 478 
Q 3156 559 3463 722 
L 3463 178 
Q 3153 47 2828 -22 
Q 2503 -91 2169 -91 
Q 1331 -91 842 396 
Q 353 884 353 1716 
Q 353 2575 817 3079 
Q 1281 3584 2069 3584 
Q 2775 3584 3186 3129 
Q 3597 2675 3597 1894 
z
M 3022 2063 
Q 3016 2534 2758 2815 
Q 2500 3097 2075 3097 
Q 1594 3097 1305 2825 
Q 1016 2553 972 2059 
L 3022 2063 
z
" id="DejaVuSans-65" transform="scale(0.015625)"/>
      <path id="DejaVuSans-20" transform="scale(0.015625)"/>
      <path d="M 4122 4306 
L 4122 3641 
Q 3803 3938 3442 4084 
Q 3081 4231 2675 4231 
Q 1875 4231 1450 3742 
Q 1025 3253 1025 2328 
Q 1025 1406 1450 917 
Q 1875 428 2675 428 
Q 3081 428 3442 575 
Q 3803 722 4122 1019 
L 4122 359 
Q 3791 134 3420 21 
Q 3050 -91 2638 -91 
Q 1578 -91 968 557 
Q 359 1206 359 2328 
Q 359 3453 968 4101 
Q 1578 4750 2638 4750 
Q 3056 4750 3426 4639 
Q 3797 4528 4122 4306 
z
" id="DejaVuSans-43" transform="scale(0.015625)"/>
      <path d="M 2375 4863 
L 2375 4384 
L 1825 4384 
Q 1516 4384 1395 4259 
Q 1275 4134 1275 3809 
L 1275 3500 
L 2222 3500 
L 2222 3053 
L 1275 3053 
L 1275 0 
L 697 0 
L 697 3053 
L 147 3053 
L 147 3500 
L 697 3500 
L 697 3744 
Q 697 4328 969 4595 
Q 1241 4863 1831 4863 
L 2375 4863 
z
" id="DejaVuSans-66" transform="scale(0.015625)"/>
      <path d="M 544 1381 
L 544 3500 
L 1119 3500 
L 1119 1403 
Q 1119 906 1312 657 
Q 1506 409 1894 409 
Q 2359 409 2629 706 
Q 2900 1003 2900 1516 
L 2900 3500 
L 3475 3500 
L 3475 0 
L 2900 0 
L 2900 538 
Q 2691 219 2414 64 
Q 2138 -91 1772 -91 
Q 1169 -91 856 284 
Q 544 659 544 1381 
z
M 1991 3584 
L 1991 3584 
z
" id="DejaVuSans-75" transform="scale(0.015625)"/>
      <path d="M 2834 3397 
L 2834 2853 
Q 2591 2978 2328 3040 
Q 2066 3103 1784 3103 
Q 1356 3103 1142 2972 
Q 928 2841 928 2578 
Q 928 2378 1081 2264 
Q 1234 2150 1697 2047 
L 1894 2003 
Q 2506 1872 2764 1633 
Q 3022 1394 3022 966 
Q 3022 478 2636 193 
Q 2250 -91 1575 -91 
Q 1294 -91 989 -36 
Q 684 19 347 128 
L 347 722 
Q 666 556 975 473 
Q 1284 391 1588 391 
Q 1994 391 2212 530 
Q 2431 669 2431 922 
Q 2431 1156 2273 1281 
Q 2116 1406 1581 1522 
L 1381 1569 
Q 847 1681 609 1914 
Q 372 2147 372 2553 
Q 372 3047 722 3315 
Q 1072 3584 1716 3584 
Q 2034 3584 2315 3537 
Q 2597 3491 2834 3397 
z
" id="DejaVuSans-73" transform="scale(0.015625)"/>
      <path d="M 603 3500 
L 1178 3500 
L 1178 0 
L 603 0 
L 603 3500 
z
M 603 4863 
L 1178 4863 
L 1178 4134 
L 603 4134 
L 603 4863 
z
" id="DejaVuSans-69" transform="scale(0.015625)"/>
      <path d="M 628 4666 
L 1259 4666 
L 1259 531 
L 3531 531 
L 3531 0 
L 628 0 
L 628 4666 
z
" id="DejaVuSans-4c" transform="scale(0.015625)"/>
      <path d="M 3328 2828 
Q 3544 3216 3844 3400 
Q 4144 3584 4550 3584 
Q 5097 3584 5394 3201 
Q 5691 2819 5691 2113 
L 5691 0 
L 5113 0 
L 5113 2094 
Q 5113 2597 4934 2840 
Q 4756 3084 4391 3084 
Q 3944 3084 3684 2787 
Q 3425 2491 3425 1978 
L 3425 0 
L 2847 0 
L 2847 2094 
Q 2847 2600 2669 2842 
Q 2491 3084 2119 3084 
Q 1678 3084 1418 2786 
Q 1159 2488 1159 1978 
L 1159 0 
L 581 0 
L 581 3500 
L 1159 3500 
L 1159 2956 
Q 1356 3278 1631 3431 
Q 1906 3584 2284 3584 
Q 2666 3584 2933 3390 
Q 3200 3197 3328 2828 
z
" id="DejaVuSans-6d" transform="scale(0.015625)"/>
      <path d="M -19 4666 
L 3928 4666 
L 3928 4134 
L 2272 4134 
L 2272 0 
L 1638 0 
L 1638 4134 
L -19 4134 
L -19 4666 
z
" id="DejaVuSans-54" transform="scale(0.015625)"/>
      <path d="M 3116 1747 
Q 3116 2381 2855 2742 
Q 2594 3103 2138 3103 
Q 1681 3103 1420 2742 
Q 1159 2381 1159 1747 
Q 1159 1113 1420 752 
Q 1681 391 2138 391 
Q 2594 391 2855 752 
Q 3116 1113 3116 1747 
z
M 1159 2969 
Q 1341 3281 1617 3432 
Q 1894 3584 2278 3584 
Q 2916 3584 3314 3078 
Q 3713 2572 3713 1747 
Q 3713 922 3314 415 
Q 2916 -91 2278 -91 
Q 1894 -91 1617 61 
Q 1341 213 1159 525 
L 1159 0 
L 581 0 
L 581 4863 
L 1159 4863 
L 1159 2969 
z
" id="DejaVuSans-62" transform="scale(0.015625)"/>
      <path d="M 603 4863 
L 1178 4863 
L 1178 0 
L 603 0 
L 603 4863 
z
" id="DejaVuSans-6c" transform="scale(0.015625)"/>
      <path d="M 2906 2969 
L 2906 4863 
L 3481 4863 
L 3481 0 
L 2906 0 
L 2906 525 
Q 2725 213 2448 61 
Q 2172 -91 1784 -91 
Q 1150 -91 751 415 
Q 353 922 353 1747 
Q 353 2572 751 3078 
Q 1150 3584 1784 3584 
Q 2172 3584 2448 3432 
Q 2725 3281 2906 2969 
z
M 947 1747 
Q 947 1113 1208 752 
Q 1469 391 1925 391 
Q 2381 391 2643 752 
Q 2906 1113 2906 1747 
Q 2906 2381 2643 2742 
Q 2381 3103 1925 3103 
Q 1469 3103 1208 2742 
Q 947 2381 947 1747 
z
" id="DejaVuSans-64" transform="scale(0.015625)"/>
     </defs>
     <use xlink:href="#DejaVuSans-50"/>
     <use x="58.552734" xlink:href="#DejaVuSans-72"/>
     <use x="97.416016" xlink:href="#DejaVuSans-6f"/>
     <use x="158.597656" xlink:href="#DejaVuSans-74"/>
     <use x="197.806641" xlink:href="#DejaVuSans-61"/>
     <use x="259.085938" xlink:href="#DejaVuSans-6e"/>
     <use x="322.464844" xlink:href="#DejaVuSans-6f"/>
     <use x="383.646484" xlink:href="#DejaVuSans-70"/>
     <use x="447.123047" xlink:href="#DejaVuSans-65"/>
     <use x="508.646484" xlink:href="#DejaVuSans-20"/>
     <use x="540.433594" xlink:href="#DejaVuSans-43"/>
     <use x="610.257812" xlink:href="#DejaVuSans-6f"/>
     <use x="671.439453" xlink:href="#DejaVuSans-6e"/>
     <use x="734.818359" xlink:href="#DejaVuSans-66"/>
     <use x="770.023438" xlink:href="#DejaVuSans-75"/>
     <use x="833.402344" xlink:href="#DejaVuSans-73"/>
     <use x="885.501953" xlink:href="#DejaVuSans-69"/>
     <use x="913.285156" xlink:href="#DejaVuSans-6f"/>
     <use x="974.466797" xlink:href="#DejaVuSans-6e"/>
     <use x="1037.845703" xlink:href="#DejaVuSans-20"/>
     <use x="1069.632812" xlink:href="#DejaVuSans-4c"/>
     <use x="1125.345703" xlink:href="#DejaVuSans-69"/>
     <use x="1153.128906" xlink:href="#DejaVuSans-6e"/>
     <use x="1216.507812" xlink:href="#DejaVuSans-65"/>
     <use x="1278.03125" xlink:href="#DejaVuSans-20"/>
     <use x="1309.818359" xlink:href="#DejaVuSans-66"/>
     <use x="1345.023438" xlink:href="#DejaVuSans-72"/>
     <use x="1383.886719" xlink:href="#DejaVuSans-6f"/>
     <use x="1445.068359" xlink:href="#DejaVuSans-6d"/>
     <use x="1542.480469" xlink:href="#DejaVuSans-20"/>
     <use x="1574.267578" xlink:href="#DejaVuSans-54"/>
     <use x="1618.851562" xlink:href="#DejaVuSans-61"/>
     <use x="1680.130859" xlink:href="#DejaVuSans-62"/>
     <use x="1743.607422" xlink:href="#DejaVuSans-75"/>
     <use x="1806.986328" xlink:href="#DejaVuSans-6c"/>
     <use x="1834.769531" xlink:href="#DejaVuSans-61"/>
     <use x="1896.048828" xlink:href="#DejaVuSans-74"/>
     <use x="1935.257812" xlink:href="#DejaVuSans-65"/>
     <use x="1996.78125" xlink:href="#DejaVuSans-64"/>
     <use x="2060.257812" xlink:href="#DejaVuSans-20"/>
     <use x="2092.044922" xlink:href="#DejaVuSans-43"/>
     <use x="2161.869141" xlink:href="#DejaVuSans-6f"/>
     <use x="2223.050781" xlink:href="#DejaVuSans-6f"/>
     <use x="2284.232422" xlink:href="#DejaVuSans-72"/>
     <use x="2323.595703" xlink:href="#DejaVuSans-64"/>
     <use x="2387.072266" xlink:href="#DejaVuSans-69"/>
     <use x="2414.855469" xlink:href="#DejaVuSans-6e"/>
     <use x="2478.234375" xlink:href="#DejaVuSans-61"/>
     <use x="2539.513672" xlink:href="#DejaVuSans-74"/>
     <use x="2578.722656" xlink:href="#DejaVuSans-65"/>
     <use x="2640.246094" xlink:href="#DejaVuSans-73"/>
    </g>
    <!-- Chromaticity (x, y) -->
    <g transform="translate(235.28875 57.327)scale(0.16 -0.16)">
     <defs>
      <path d="M 3513 2113 
L 3513 0 
L 2938 0 
L 2938 2094 
Q 2938 2591 2744 2837 
Q 2550 3084 2163 3084 
Q 1697 3084 1428 2787 
Q 1159 2491 1159 1978 
L 1159 0 
L 581 0 
L 581 4863 
L 1159 4863 
L 1159 2956 
Q 1366 3272 1645 3428 
Q 1925 3584 2291 3584 
Q 2894 3584 3203 3211 
Q 3513 2838 3513 2113 
z
" id="DejaVuSans-68" transform="scale(0.015625)"/>
      <path d="M 3122 3366 
L 3122 2828 
Q 2878 2963 2633 3030 
Q 2388 3097 2138 3097 
Q 1578 3097 1268 2742 
Q 959 2388 959 1747 
Q 959 1106 1268 751 
Q 1578 397 2138 397 
Q 2388 397 2633 464 
Q 2878 531 3122 666 
L 3122 134 
Q 2881 22 2623 -34 
Q 2366 -91 2075 -91 
Q 1284 -91 818 406 
Q 353 903 353 1747 
Q 353 2603 823 3093 
Q 1294 3584 2113 3584 
Q 2378 3584 2631 3529 
Q 2884 3475 3122 3366 
z
" id="DejaVuSans-63" transform="scale(0.015625)"/>
      <path d="M 1984 4856 
Q 1566 4138 1362 3434 
Q 1159 2731 1159 2009 
Q 1159 1288 1364 580 
Q 1569 -128 1984 -844 
L 1484 -844 
Q 1016 -109 783 600 
Q 550 1309 550 2009 
Q 550 2706 781 3412 
Q 1013 4119 1484 4856 
L 1984 4856 
z
" id="DejaVuSans-28" transform="scale(0.015625)"/>
      <path d="M 750 794 
L 1409 794 
L 1409 256 
L 897 -744 
L 494 -744 
L 750 256 
L 750 794 
z
" id="DejaVuSans-2c" transform="scale(0.015625)"/>
      <path d="M 513 4856 
L 1013 4856 
Q 1481 4119 1714 3412 
Q 1947 2706 1947 2009 
Q 1947 1309 1714 600 
Q 1481 -109 1013 -844 
L 513 -844 
Q 928 -128 1133 580 
Q 1338 1288 1338 2009 
Q 1338 2731 1133 3434 
Q 928 4138 513 4856 
z
" id="DejaVuSans-29" transform="scale(0.015625)"/>
     </defs>
     <use xlink:href="#DejaVuSans-43"/>
     <use x="69.824219" xlink:href="#DejaVuSans-68"/>
     <use x="133.203125" xlink:href="#DejaVuSans-72"/>
     <use x="172.066406" xlink:href="#DejaVuSans-6f"/>
     <use x="233.248047" xlink:href="#DejaVuSans-6d"/>
     <use x="330.660156" xlink:href="#DejaVuSans-61"/>
     <use x="391.939453" xlink:href="#DejaVuSans-74"/>
     <use x="431.148438" xlink:href="#DejaVuSans-69"/>
     <use x="458.931641" xlink:href="#DejaVuSans-63"/>
     <use x="513.912109" xlink:href="#DejaVuSans-69"/>
     <use x="541.695312" xlink:href="#DejaVuSans-74"/>
     <use x="580.904297" xlink:href="#DejaVuSans-79"/>
     <use x="640.083984" xlink:href="#DejaVuSans-20"/>
     <use x="671.871094" xlink:href="#DejaVuSans-28"/>
     <use x="710.884766" xlink:href="#DejaVuSans-78"/>
     <use x="770.064453" xlink:href="#DejaVuSans-2c"/>
     <use x="801.851562" xlink:href="#DejaVuSans-20"/>
     <use x="833.638672" xlink:href="#DejaVuSans-79"/>
     <use x="892.818359" xlink:href="#DejaVuSans-29"/>
    </g>
   </g>
   <g id="line2d_26">
    <defs>
     <path d="M 0 3 
C 0.795609 3 1.55874 2.683901 2.12132 2.12132 
C 2.683901 1.55874 3 0.795609 3 0 
C 3 -0.795609 2.683901 -1.55874 2.12132 -2.12132 
C 1.55874 -2.683901 0.795609 -3 0 -3 
C -0.795609 -3 -1.55874 -2.683901 -2.12132 -2.12132 
C -2.683901 -1.55874 -3 -0.795609 -3 0 
C -3 0.795609 -2.683901 1.55874 -2.12132 2.12132 
C -1.55874 2.683901 -0.795609 3 0 3 
z
" id="m02f7a9819d" style="stroke:#000000;stroke-opacity:0;"/>
    </defs>
    <g clip-path="url(#p8e837f500a)">
     <use style="fill:#3c8580;stroke:#000000;stroke-opacity:0;" x="225.930939" xlink:href="#m02f7a9819d" y="355.689316"/>
    </g>
   </g>
   <g id="line2d_27">
    <defs>
     <path d="M 0 3 
C 0.795609 3 1.55874 2.683901 2.12132 2.12132 
C 2.683901 1.55874 3 0.795609 3 0 
C 3 -0.795609 2.683901 -1.55874 2.12132 -2.12132 
C 1.55874 -2.683901 0.795609 -3 0 -3 
C -0.795609 -3 -1.55874 -2.683901 -2.12132 -2.12132 
C -2.683901 -1.55874 -3 -0.795609 -3 0 
C -3 0.795609 -2.683901 1.55874 -2.12132 2.12132 
C -1.55874 2.683901 -0.795609 3 0 3 
z
" id="mc317b24204" style="stroke:#000000;stroke-opacity:0;"/>
    </defs>
    <g clip-path="url(#p8e837f500a)">
     <use style="fill:#658280;stroke:#000000;stroke-opacity:0;" x="244.779464" xlink:href="#mc317b24204" y="358.969781"/>
    </g>
   </g>
   <g id="line2d_28">
    <defs>
     <path d="M 0 3 
C 0.795609 3 1.55874 2.683901 2.12132 2.12132 
C 2.683901 1.55874 3 0.795609 3 0 
C 3 -0.795609 2.683901 -1.55874 2.12132 -2.12132 
C 1.55874 -2.683901 0.795609 -3 0 -3 
C -0.795609 -3 -1.55874 -2.683901 -2.12132 -2.12132 
C -2.683901 -1.55874 -3 -0.795609 -3 0 
C -3 0.795609 -2.683901 1.55874 -2.12132 2.12132 
C -1.55874 2.683901 -0.795609 3 0 3 
z
" id="m6387e5d493" style="stroke:#000000;stroke-opacity:0;"/>
    </defs>
    <g clip-path="url(#p8e837f500a)">
     <use style="fill:#808080;stroke:#000000;stroke-opacity:0;" x="261.225269" xlink:href="#m6387e5d493" y="361.832068"/>
    </g>
   </g>
   <g id="line2d_29">
    <defs>
     <path d="M 0 3 
C 0.795609 3 1.55874 2.683901 2.12132 2.12132 
C 2.683901 1.55874 3 0.795609 3 0 
C 3 -0.795609 2.683901 -1.55874 2.12132 -2.12132 
C 1.55874 -2.683901 0.795609 -3 0 -3 
C -0.795609 -3 -1.55874 -2.683901 -2.12132 -2.12132 
C -2.683901 -1.55874 -3 -0.795609 -3 0 
C -3 0.795609 -2.683901 1.55874 -2.12132 2.12132 
C -1.55874 2.683901 -0.795609 3 0 3 
z
" id="mc36af33d4a" style="stroke:#000000;stroke-opacity:0;"/>
    </defs>
    <g clip-path="url(#p8e837f500a)">
     <use style="fill:#947d7f;stroke:#000000;stroke-opacity:0;" x="275.700255" xlink:href="#mc36af33d4a" y="364.351346"/>
    </g>
   </g>
   <g id="line2d_30">
    <defs>
     <path d="M 0 3 
C 0.795609 3 1.55874 2.683901 2.12132 2.12132 
C 2.683901 1.55874 3 0.795609 3 0 
C 3 -0.795609 2.683901 -1.55874 2.12132 -2.12132 
C 1.55874 -2.683901 0.795609 -3 0 -3 
C -0.795609 -3 -1.55874 -2.683901 -2.12132 -2.12132 
C -2.683901 -1.55874 -3 -0.795609 -3 0 
C -3 0.795609 -2.683901 1.55874 -2.12132 2.12132 
C -1.55874 2.683901 -0.795609 3 0 3 
z
" id="m3d7c6b3485" style="stroke:#000000;stroke-opacity:0;"/>
    </defs>
    <g clip-path="url(#p8e837f500a)">
     <use style="fill:#a67a7f;stroke:#000000;stroke-opacity:0;" x="288.538662" xlink:href="#m3d7c6b3485" y="366.585789"/>
    </g>
   </g>
  </g>
  <g id="patch_7">
   <path d="M 583.2 603.092 
L 1144.8 603.092 
L 1144.8 41.492 
L 583.2 41.492 
z
" style="fill:none;"/>
  </g>
  <g id="pane3d_1">
   <g id="patch_8">
    <path d="M 1127.130482 450.224047 
L 871.589189 439.701716 
L 871.589189 189.703905 
L 1127.130482 179.181575 
" style="fill:#f2f2f2;opacity:0.95;stroke:#f2f2f2;stroke-linejoin:miter;"/>
   </g>
  </g>
  <g id="pane3d_2">
   <g id="patch_9">
    <path d="M 616.047896 450.224047 
L 871.589189 439.701716 
L 871.589189 189.703905 
L 616.047896 179.181575 
" style="fill:#f2f2f2;opacity:0.95;stroke:#f2f2f2;stroke-linejoin:miter;"/>
   </g>
  </g>
  <g id="pane3d_3">
   <g id="patch_10">
    <path d="M 871.589189 462.680737 
L 1127.130482 450.224047 
L 871.589189 439.701716 
L 616.047896 450.224047 
" style="fill:#f2f2f2;opacity:0.95;stroke:#f2f2f2;stroke-linejoin:miter;"/>
   </g>
  </g>
  <g id="axis3d_1">
   <g id="line2d_31">
    <path d="M 1127.130482 450.224047 
L 871.589189 462.680737 
" style="fill:none;stroke:#000000;stroke-linecap:square;stroke-width:0.8;"/>
   </g>
   <g id="text_22">
    <!-- x -->
    <g transform="translate(1024.81363 485.479445)scale(0.14 -0.14)">
     <use xlink:href="#DejaVuSans-78"/>
    </g>
   </g>
   <g id="Line3DCollection_1">
    <path d="M 889.242376 461.820209 
L 633.584575 449.501945 
L 633.584575 179.903676 
" style="fill:none;stroke:#bfbfbf;stroke-width:0.8;"/>
    <path d="M 936.625198 459.510472 
L 680.739717 447.560255 
L 680.739717 181.845366 
" style="fill:none;stroke:#bfbfbf;stroke-width:0.8;"/>
    <path d="M 982.543201 457.27214 
L 726.555675 445.673708 
L 726.555675 183.731913 
" style="fill:none;stroke:#bfbfbf;stroke-width:0.8;"/>
    <path d="M 1027.063277 455.101952 
L 771.088696 443.839988 
L 771.088696 185.565633 
" style="fill:none;stroke:#bfbfbf;stroke-width:0.8;"/>
    <path d="M 1070.248307 452.996842 
L 814.391925 442.056907 
L 814.391925 187.348714 
" style="fill:none;stroke:#bfbfbf;stroke-width:0.8;"/>
    <path d="M 1112.157456 450.953926 
L 856.515608 440.322396 
L 856.515608 189.083226 
" style="fill:none;stroke:#bfbfbf;stroke-width:0.8;"/>
   </g>
   <g id="xtick_10">
    <g id="line2d_32">
     <path d="M 887.011844 461.712736 
L 893.71324 462.035627 
" style="fill:none;stroke:#000000;stroke-linecap:square;stroke-width:0.8;"/>
    </g>
    <g id="text_23">
     <!-- 0.0 -->
     <g transform="translate(890.71009 483.078723)scale(0.12 -0.12)">
      <use xlink:href="#DejaVuSans-30"/>
      <use x="63.623047" xlink:href="#DejaVuSans-2e"/>
      <use x="95.410156" xlink:href="#DejaVuSans-30"/>
     </g>
    </g>
   </g>
   <g id="xtick_11">
    <g id="line2d_33">
     <path d="M 934.395588 459.406346 
L 941.094058 459.719175 
" style="fill:none;stroke:#000000;stroke-linecap:square;stroke-width:0.8;"/>
    </g>
    <g id="text_24">
     <!-- 0.2 -->
     <g transform="translate(938.087608 480.569509)scale(0.12 -0.12)">
      <use xlink:href="#DejaVuSans-30"/>
      <use x="63.623047" xlink:href="#DejaVuSans-2e"/>
      <use x="95.410156" xlink:href="#DejaVuSans-32"/>
     </g>
    </g>
   </g>
   <g id="xtick_12">
    <g id="line2d_34">
     <path d="M 980.315522 457.171207 
L 987.008041 457.474436 
" style="fill:none;stroke:#000000;stroke-linecap:square;stroke-width:0.8;"/>
    </g>
    <g id="text_25">
     <!-- 0.4 -->
     <g transform="translate(983.995353 478.138137)scale(0.12 -0.12)">
      <use xlink:href="#DejaVuSans-30"/>
      <use x="63.623047" xlink:href="#DejaVuSans-2e"/>
      <use x="95.410156" xlink:href="#DejaVuSans-34"/>
     </g>
    </g>
   </g>
   <g id="xtick_13">
    <g id="line2d_35">
     <path d="M 1024.838446 455.004067 
L 1031.522266 455.298131 
" style="fill:none;stroke:#000000;stroke-linecap:square;stroke-width:0.8;"/>
    </g>
    <g id="text_26">
     <!-- 0.6 -->
     <g transform="translate(1028.500676 475.781041)scale(0.12 -0.12)">
      <use xlink:href="#DejaVuSans-30"/>
      <use x="63.623047" xlink:href="#DejaVuSans-2e"/>
      <use x="95.410156" xlink:href="#DejaVuSans-36"/>
     </g>
    </g>
   </g>
   <g id="xtick_14">
    <g id="line2d_36">
     <path d="M 1068.027155 452.901869 
L 1074.699784 453.187178 
" style="fill:none;stroke:#000000;stroke-linecap:square;stroke-width:0.8;"/>
    </g>
    <g id="text_27">
     <!-- 0.8 -->
     <g transform="translate(1071.666872 473.494868)scale(0.12 -0.12)">
      <use xlink:href="#DejaVuSans-30"/>
      <use x="63.623047" xlink:href="#DejaVuSans-2e"/>
      <use x="95.410156" xlink:href="#DejaVuSans-38"/>
     </g>
    </g>
   </g>
   <g id="xtick_15">
    <g id="line2d_37">
     <path d="M 1109.940737 450.861738 
L 1116.599912 451.138677 
" style="fill:none;stroke:#000000;stroke-linecap:square;stroke-width:0.8;"/>
    </g>
    <g id="text_28">
     <!-- 1.0 -->
     <g transform="translate(1113.553486 471.276464)scale(0.12 -0.12)">
      <use xlink:href="#DejaVuSans-31"/>
      <use x="63.623047" xlink:href="#DejaVuSans-2e"/>
      <use x="95.410156" xlink:href="#DejaVuSans-30"/>
     </g>
    </g>
   </g>
  </g>
  <g id="axis3d_2">
   <g id="line2d_38">
    <path d="M 616.047896 450.224047 
L 871.589189 462.680737 
" style="fill:none;stroke:#000000;stroke-linecap:square;stroke-width:0.8;"/>
   </g>
   <g id="text_29">
    <!-- y -->
    <g transform="translate(710.078498 485.479445)scale(0.14 -0.14)">
     <use xlink:href="#DejaVuSans-79"/>
    </g>
   </g>
   <g id="Line3DCollection_2">
    <path d="M 1109.593804 179.903676 
L 1109.593804 449.501945 
L 853.936002 461.820209 
" style="fill:none;stroke:#bfbfbf;stroke-width:0.8;"/>
    <path d="M 1062.438661 181.845366 
L 1062.438661 447.560255 
L 806.55318 459.510472 
" style="fill:none;stroke:#bfbfbf;stroke-width:0.8;"/>
    <path d="M 1016.622704 183.731913 
L 1016.622704 445.673708 
L 760.635178 457.27214 
" style="fill:none;stroke:#bfbfbf;stroke-width:0.8;"/>
    <path d="M 972.089682 185.565633 
L 972.089682 443.839988 
L 716.115101 455.101952 
" style="fill:none;stroke:#bfbfbf;stroke-width:0.8;"/>
    <path d="M 928.786454 187.348714 
L 928.786454 442.056907 
L 672.930071 452.996842 
" style="fill:none;stroke:#bfbfbf;stroke-width:0.8;"/>
    <path d="M 886.66277 189.083226 
L 886.66277 440.322396 
L 631.020922 450.953926 
" style="fill:none;stroke:#bfbfbf;stroke-width:0.8;"/>
   </g>
   <g id="xtick_16">
    <g id="line2d_39">
     <path d="M 856.166535 461.712736 
L 849.465138 462.035627 
" style="fill:none;stroke:#000000;stroke-linecap:square;stroke-width:0.8;"/>
    </g>
    <g id="text_30">
     <!-- 0.0 -->
     <g transform="translate(833.384538 483.078723)scale(0.12 -0.12)">
      <use xlink:href="#DejaVuSans-30"/>
      <use x="63.623047" xlink:href="#DejaVuSans-2e"/>
      <use x="95.410156" xlink:href="#DejaVuSans-30"/>
     </g>
    </g>
   </g>
   <g id="xtick_17">
    <g id="line2d_40">
     <path d="M 808.78279 459.406346 
L 802.08432 459.719175 
" style="fill:none;stroke:#000000;stroke-linecap:square;stroke-width:0.8;"/>
    </g>
    <g id="text_31">
     <!-- 0.2 -->
     <g transform="translate(786.007021 480.569509)scale(0.12 -0.12)">
      <use xlink:href="#DejaVuSans-30"/>
      <use x="63.623047" xlink:href="#DejaVuSans-2e"/>
      <use x="95.410156" xlink:href="#DejaVuSans-32"/>
     </g>
    </g>
   </g>
   <g id="xtick_18">
    <g id="line2d_41">
     <path d="M 762.862856 457.171207 
L 756.170338 457.474436 
" style="fill:none;stroke:#000000;stroke-linecap:square;stroke-width:0.8;"/>
    </g>
    <g id="text_32">
     <!-- 0.4 -->
     <g transform="translate(740.099275 478.138137)scale(0.12 -0.12)">
      <use xlink:href="#DejaVuSans-30"/>
      <use x="63.623047" xlink:href="#DejaVuSans-2e"/>
      <use x="95.410156" xlink:href="#DejaVuSans-34"/>
     </g>
    </g>
   </g>
   <g id="xtick_19">
    <g id="line2d_42">
     <path d="M 718.339933 455.004067 
L 711.656112 455.298131 
" style="fill:none;stroke:#000000;stroke-linecap:square;stroke-width:0.8;"/>
    </g>
    <g id="text_33">
     <!-- 0.6 -->
     <g transform="translate(695.593953 475.781041)scale(0.12 -0.12)">
      <use xlink:href="#DejaVuSans-30"/>
      <use x="63.623047" xlink:href="#DejaVuSans-2e"/>
      <use x="95.410156" xlink:href="#DejaVuSans-36"/>
     </g>
    </g>
   </g>
   <g id="xtick_20">
    <g id="line2d_43">
     <path d="M 675.151224 452.901869 
L 668.478595 453.187178 
" style="fill:none;stroke:#000000;stroke-linecap:square;stroke-width:0.8;"/>
    </g>
    <g id="text_34">
     <!-- 0.8 -->
     <g transform="translate(652.427756 473.494868)scale(0.12 -0.12)">
      <use xlink:href="#DejaVuSans-30"/>
      <use x="63.623047" xlink:href="#DejaVuSans-2e"/>
      <use x="95.410156" xlink:href="#DejaVuSans-38"/>
     </g>
    </g>
   </g>
   <g id="xtick_21">
    <g id="line2d_44">
     <path d="M 633.237641 450.861738 
L 626.578466 451.138677 
" style="fill:none;stroke:#000000;stroke-linecap:square;stroke-width:0.8;"/>
    </g>
    <g id="text_35">
     <!-- 1.0 -->
     <g transform="translate(610.541142 471.276464)scale(0.12 -0.12)">
      <use xlink:href="#DejaVuSans-31"/>
      <use x="63.623047" xlink:href="#DejaVuSans-2e"/>
      <use x="95.410156" xlink:href="#DejaVuSans-30"/>
     </g>
    </g>
   </g>
  </g>
  <g id="axis3d_3">
   <g id="line2d_45">
    <path d="M 616.047896 450.224047 
L 616.047896 179.181575 
" style="fill:none;stroke:#000000;stroke-linecap:square;stroke-width:0.8;"/>
   </g>
   <g id="text_36">
    <!-- Y -->
    <g transform="translate(568.090155 318.565936)scale(0.14 -0.14)">
     <defs>
      <path d="M -13 4666 
L 666 4666 
L 1959 2747 
L 3244 4666 
L 3922 4666 
L 2272 2222 
L 2272 0 
L 1638 0 
L 1638 2222 
L -13 4666 
z
" id="DejaVuSans-59" transform="scale(0.015625)"/>
     </defs>
     <use xlink:href="#DejaVuSans-59"/>
    </g>
   </g>
   <g id="Line3DCollection_3">
    <path d="M 616.047896 432.975889 
L 871.589189 423.792765 
L 1127.130482 432.975889 
" style="fill:none;stroke:#bfbfbf;stroke-width:0.8;"/>
    <path d="M 616.047896 385.666658 
L 871.589189 380.156783 
L 1127.130482 385.666658 
" style="fill:none;stroke:#bfbfbf;stroke-width:0.8;"/>
    <path d="M 616.047896 338.357427 
L 871.589189 336.520802 
L 1127.130482 338.357427 
" style="fill:none;stroke:#bfbfbf;stroke-width:0.8;"/>
    <path d="M 616.047896 291.048195 
L 871.589189 292.88482 
L 1127.130482 291.048195 
" style="fill:none;stroke:#bfbfbf;stroke-width:0.8;"/>
    <path d="M 616.047896 243.738964 
L 871.589189 249.248838 
L 1127.130482 243.738964 
" style="fill:none;stroke:#bfbfbf;stroke-width:0.8;"/>
    <path d="M 616.047896 196.429732 
L 871.589189 205.612857 
L 1127.130482 196.429732 
" style="fill:none;stroke:#bfbfbf;stroke-width:0.8;"/>
   </g>
   <g id="xtick_22">
    <g id="line2d_46">
     <path d="M 618.262825 432.896294 
L 611.609076 433.135403 
" style="fill:none;stroke:#000000;stroke-linecap:square;stroke-width:0.8;"/>
    </g>
    <g id="text_37">
     <!-- 0.0 -->
     <g transform="translate(586.412176 442.094014)scale(0.12 -0.12)">
      <use xlink:href="#DejaVuSans-30"/>
      <use x="63.623047" xlink:href="#DejaVuSans-2e"/>
      <use x="95.410156" xlink:href="#DejaVuSans-30"/>
     </g>
    </g>
   </g>
   <g id="xtick_23">
    <g id="line2d_47">
     <path d="M 618.262825 385.618901 
L 611.609076 385.762366 
" style="fill:none;stroke:#000000;stroke-linecap:square;stroke-width:0.8;"/>
    </g>
    <g id="text_38">
     <!-- 0.2 -->
     <g transform="translate(586.412176 394.784783)scale(0.12 -0.12)">
      <use xlink:href="#DejaVuSans-30"/>
      <use x="63.623047" xlink:href="#DejaVuSans-2e"/>
      <use x="95.410156" xlink:href="#DejaVuSans-32"/>
     </g>
    </g>
   </g>
   <g id="xtick_24">
    <g id="line2d_48">
     <path d="M 618.262825 338.341507 
L 611.609076 338.389329 
" style="fill:none;stroke:#000000;stroke-linecap:square;stroke-width:0.8;"/>
    </g>
    <g id="text_39">
     <!-- 0.4 -->
     <g transform="translate(586.412176 347.475552)scale(0.12 -0.12)">
      <use xlink:href="#DejaVuSans-30"/>
      <use x="63.623047" xlink:href="#DejaVuSans-2e"/>
      <use x="95.410156" xlink:href="#DejaVuSans-34"/>
     </g>
    </g>
   </g>
   <g id="xtick_25">
    <g id="line2d_49">
     <path d="M 618.262825 291.064114 
L 611.609076 291.016292 
" style="fill:none;stroke:#000000;stroke-linecap:square;stroke-width:0.8;"/>
    </g>
    <g id="text_40">
     <!-- 0.6 -->
     <g transform="translate(586.412176 300.16632)scale(0.12 -0.12)">
      <use xlink:href="#DejaVuSans-30"/>
      <use x="63.623047" xlink:href="#DejaVuSans-2e"/>
      <use x="95.410156" xlink:href="#DejaVuSans-36"/>
     </g>
    </g>
   </g>
   <g id="xtick_26">
    <g id="line2d_50">
     <path d="M 618.262825 243.786721 
L 611.609076 243.643256 
" style="fill:none;stroke:#000000;stroke-linecap:square;stroke-width:0.8;"/>
    </g>
    <g id="text_41">
     <!-- 0.8 -->
     <g transform="translate(586.412176 252.857089)scale(0.12 -0.12)">
      <use xlink:href="#DejaVuSans-30"/>
      <use x="63.623047" xlink:href="#DejaVuSans-2e"/>
      <use x="95.410156" xlink:href="#DejaVuSans-38"/>
     </g>
    </g>
   </g>
   <g id="xtick_27">
    <g id="line2d_51">
     <path d="M 618.262825 196.509328 
L 611.609076 196.270219 
" style="fill:none;stroke:#000000;stroke-linecap:square;stroke-width:0.8;"/>
    </g>
    <g id="text_42">
     <!-- 1.0 -->
     <g transform="translate(586.412176 205.547857)scale(0.12 -0.12)">
      <use xlink:href="#DejaVuSans-31"/>
      <use x="63.623047" xlink:href="#DejaVuSans-2e"/>
      <use x="95.410156" xlink:href="#DejaVuSans-30"/>
     </g>
    </g>
   </g>
  </g>
  <g id="axes_2">
   <g id="line2d_52">
    <path clip-path="url(#pb01ae7dd00)" d="M 911.993013 440.549211 
L 908.975302 440.602788 
L 887.32431 440.538715 
L 861.796169 440.126232 
L 824.733529 439.303376 
L 781.029842 438.08678 
L 743.359746 436.840037 
L 718.290228 435.818355 
L 704.480957 435.062172 
L 698.724375 434.56643 
L 697.249735 434.286053 
L 697.226413 434.163147 
L 697.631717 434.051366 
L 699.579643 433.860128 
L 704.869254 433.646719 
L 717.495728 433.416546 
L 745.752239 433.160863 
L 787.488007 433.023942 
L 894.518016 432.982354 
L 976.26931 432.975889 
L 976.26931 432.975889 
" style="fill:none;stroke:#404040;stroke-linecap:square;stroke-width:1.5;"/>
   </g>
   <g id="line2d_53">
    <path clip-path="url(#pb01ae7dd00)" d="M 911.993013 440.549211 
L 976.26931 432.975889 
" style="fill:none;stroke:#404040;stroke-dasharray:1.5,2.475;stroke-dashoffset:0;stroke-width:1.5;"/>
   </g>
   <g id="line2d_54">
    <path clip-path="url(#pb01ae7dd00)" d="M 940.900446 433.236743 
L 804.18867 433.851221 
L 892.899807 440.262914 
L 940.900446 433.236743 
" style="fill:none;stroke:#bfbfbf;stroke-linecap:square;stroke-width:1.5;"/>
   </g>
   <g id="line2d_55">
    <path clip-path="url(#pb01ae7dd00)" d="M 867.859032 436.173167 
L 940.900446 431.610916 
L 940.900446 429.985089 
L 940.900446 428.359262 
L 940.900446 426.733436 
L 940.900446 425.107609 
L 940.900446 423.481782 
L 940.900446 421.855956 
L 940.900446 420.230129 
L 940.900446 418.604302 
L 940.900446 416.978476 
L 940.900446 415.352649 
L 940.900446 413.726822 
L 940.900446 412.100995 
L 940.900446 410.475169 
L 940.900446 408.849342 
L 940.900446 407.223515 
L 940.900446 405.597689 
L 940.900446 403.971862 
L 940.900446 402.346035 
L 940.900446 400.720208 
L 940.900446 399.094382 
L 940.900446 397.468555 
L 940.900446 395.842728 
L 940.900446 394.216902 
L 940.900446 392.591075 
L 940.900446 390.965248 
L 940.900446 389.339422 
L 940.900446 387.713595 
L 940.900446 386.087768 
L 940.900446 384.461941 
L 940.900446 382.836115 
" style="fill:none;stroke:#bfbfbf;stroke-linecap:square;stroke-width:1.5;"/>
   </g>
   <g id="line2d_56">
    <path clip-path="url(#pb01ae7dd00)" d="M 892.899807 422.132035 
L 893.762328 420.303546 
L 894.594399 418.482212 
L 895.397605 416.66766 
L 896.173421 414.859544 
L 896.923226 413.057539 
L 897.648306 411.261344 
L 898.349865 409.470676 
L 899.029027 407.68527 
L 899.68685 405.904878 
L 900.324323 404.129268 
L 900.942375 402.35822 
L 901.541882 400.59153 
L 902.123666 398.829005 
L 902.688501 397.070462 
L 903.237117 395.31573 
L 903.770203 393.564647 
L 904.288408 391.81706 
L 904.792349 390.072825 
L 905.282605 388.331805 
L 905.759726 386.593872 
L 906.224234 384.858902 
L 906.676621 383.12678 
L 907.117357 381.397396 
L 907.546886 379.670645 
L 907.965629 377.946429 
L 908.373989 376.224652 
L 908.772346 374.505225 
L 909.161063 372.788063 
L 909.540487 371.073086 
L 909.910946 369.360214 
L 910.272755 367.649375 
" style="fill:none;stroke:#bfbfbf;stroke-linecap:square;stroke-width:1.5;"/>
   </g>
   <g id="line2d_57">
    <path clip-path="url(#pb01ae7dd00)" d="M 804.18867 263.421335 
L 806.543481 261.791781 
L 808.818543 260.162353 
L 811.017841 258.533044 
L 813.145098 256.90385 
L 815.203796 255.274765 
L 817.197197 253.645782 
L 819.128359 252.016899 
L 821.000152 250.388109 
L 822.815272 248.759409 
L 824.576255 247.130795 
L 826.285488 245.502262 
L 827.945218 243.873808 
L 829.557565 242.245429 
L 831.12453 240.617122 
L 832.648003 238.988883 
L 834.129769 237.360711 
L 835.571517 235.732602 
L 836.974848 234.104554 
L 838.341276 232.476564 
L 839.672239 230.848631 
L 840.969099 229.220751 
L 842.23315 227.592923 
L 843.465623 225.965146 
L 844.667685 224.337416 
L 845.840449 222.709733 
L 846.984972 221.082094 
L 848.102264 219.454499 
L 849.193283 217.826945 
L 850.258947 216.199432 
L 851.300129 214.571957 
L 852.317662 212.944519 
" style="fill:none;stroke:#bfbfbf;stroke-linecap:square;stroke-width:1.5;"/>
   </g>
   <g id="line2d_58">
    <path clip-path="url(#pb01ae7dd00)" d="M 847.589353 244.413254 
L 848.417255 242.755562 
L 849.230595 241.09843 
L 850.029754 239.441844 
L 850.815099 237.78579 
L 851.586986 236.130253 
L 852.345758 234.475222 
L 853.091746 232.820683 
L 853.825271 231.166623 
L 854.546641 229.513031 
L 855.256158 227.859895 
L 855.95411 226.207204 
L 856.640779 224.554948 
L 857.316435 222.903116 
L 857.981342 221.251697 
L 858.635753 219.600682 
L 859.279916 217.950062 
L 859.914069 216.299827 
L 860.538444 214.649969 
L 861.153265 213.000478 
L 861.75875 211.351346 
L 862.35511 209.702566 
L 862.94255 208.054129 
L 863.521268 206.406027 
L 864.091457 204.758254 
L 864.653304 203.110802 
L 865.206991 201.463664 
L 865.752695 199.816834 
L 866.290587 198.170304 
L 866.820833 196.524068 
L 867.343596 194.878121 
L 867.859032 193.232455 
" style="fill:none;stroke:#bfbfbf;stroke-linecap:square;stroke-width:1.5;"/>
   </g>
   <g id="line2d_59">
    <path clip-path="url(#pb01ae7dd00)" d="M 867.859032 436.173167 
L 804.18867 428.353483 
L 804.18867 422.855744 
L 804.18867 417.358006 
L 804.18867 411.860268 
L 804.18867 406.36253 
L 804.18867 400.864791 
L 804.18867 395.367053 
L 804.18867 389.869315 
L 804.18867 384.371577 
L 804.18867 378.873838 
L 804.18867 373.3761 
L 804.18867 367.878362 
L 804.18867 362.380624 
L 804.18867 356.882885 
L 804.18867 351.385147 
L 804.18867 345.887409 
L 804.18867 340.389671 
L 804.18867 334.891932 
L 804.18867 329.394194 
L 804.18867 323.896456 
L 804.18867 318.398718 
L 804.18867 312.900979 
L 804.18867 307.403241 
L 804.18867 301.905503 
L 804.18867 296.407765 
L 804.18867 290.910026 
L 804.18867 285.412288 
L 804.18867 279.91455 
L 804.18867 274.416812 
L 804.18867 268.919073 
L 804.18867 263.421335 
" style="fill:none;stroke:#bfbfbf;stroke-linecap:square;stroke-width:1.5;"/>
   </g>
   <g id="line2d_60">
    <path clip-path="url(#pb01ae7dd00)" d="M 892.899807 422.132035 
L 890.009571 416.169357 
L 887.301723 410.236019 
L 884.759526 404.329329 
L 882.368231 398.446913 
L 880.114788 392.586674 
L 877.987613 386.746746 
L 875.97638 380.925469 
L 874.071863 375.12136 
L 872.265788 369.333086 
L 870.550714 363.559451 
L 868.919932 357.799376 
L 867.367378 352.051885 
L 865.887554 346.316094 
L 864.475466 340.5912 
L 863.126569 334.87647 
L 861.836713 329.171239 
L 860.602105 323.474894 
L 859.41927 317.786879 
L 858.285017 312.106678 
L 857.196415 306.433821 
L 856.150761 300.767873 
L 855.145563 295.108433 
L 854.178518 289.45513 
L 853.247494 283.807622 
L 852.350515 278.165591 
L 851.485747 272.528741 
L 850.651486 266.896799 
L 849.846146 261.269509 
L 849.068248 255.646634 
L 848.316413 250.027951 
L 847.589353 244.413254 
" style="fill:none;stroke:#bfbfbf;stroke-linecap:square;stroke-width:1.5;"/>
   </g>
   <g id="line2d_61">
    <path clip-path="url(#pb01ae7dd00)" d="M 940.900446 382.836115 
L 933.238513 377.384936 
L 926.38982 371.928815 
L 920.231415 366.468499 
L 914.663944 361.004593 
L 909.606244 355.537589 
L 904.991367 350.067894 
L 900.763596 344.595846 
L 896.876184 339.121731 
L 893.289621 333.645787 
L 889.970283 328.168219 
L 886.889377 322.689203 
L 884.022105 317.208888 
L 881.346989 311.727405 
L 878.845341 306.244869 
L 876.500816 300.761378 
L 874.299063 295.277019 
L 872.227426 289.791869 
L 870.274701 284.305997 
L 868.430937 278.819463 
L 866.68726 273.33232 
L 865.035736 267.844618 
L 863.469248 262.356399 
L 861.981394 256.867702 
L 860.566396 251.378562 
L 859.219032 245.889011 
L 857.934566 240.399078 
L 856.708694 234.908789 
L 855.537496 229.418168 
L 854.417394 223.927236 
L 853.345116 218.436014 
L 852.317662 212.944519 
" style="fill:none;stroke:#bfbfbf;stroke-linecap:square;stroke-width:1.5;"/>
   </g>
   <g id="line2d_62">
    <path clip-path="url(#pb01ae7dd00)" d="M 910.272755 367.649375 
L 908.041116 361.941855 
L 905.901433 356.242979 
L 903.848139 350.552224 
L 901.876105 344.869108 
L 899.980601 339.193186 
L 898.157256 333.524047 
L 896.402027 327.861311 
L 894.711168 322.204627 
L 893.0812 316.553666 
L 891.508894 310.908126 
L 889.991241 305.267723 
L 888.525442 299.632194 
L 887.108884 294.001295 
L 885.739126 288.374795 
L 884.413886 282.752479 
L 883.131029 277.134148 
L 881.888554 271.519613 
L 880.684584 265.908698 
L 879.517356 260.301236 
L 878.385213 254.697072 
L 877.286597 249.096061 
L 876.220041 243.498062 
L 875.18416 237.902948 
L 874.177652 232.310594 
L 873.199282 226.720886 
L 872.247889 221.133714 
L 871.322372 215.548974 
L 870.421688 209.966568 
L 869.544852 204.386404 
L 868.690929 198.808394 
L 867.859032 193.232455 
" style="fill:none;stroke:#bfbfbf;stroke-linecap:square;stroke-width:1.5;"/>
   </g>
   <g id="line2d_63">
    <path clip-path="url(#pb01ae7dd00)" d="M 867.859032 436.173167 
L 892.899807 439.678047 
L 892.899807 439.09318 
L 892.899807 438.508313 
L 892.899807 437.923446 
L 892.899807 437.338579 
L 892.899807 436.753711 
L 892.899807 436.168844 
L 892.899807 435.583977 
L 892.899807 434.99911 
L 892.899807 434.414243 
L 892.899807 433.829376 
L 892.899807 433.244509 
L 892.899807 432.659642 
L 892.899807 432.074775 
L 892.899807 431.489908 
L 892.899807 430.905041 
L 892.899807 430.320174 
L 892.899807 429.735307 
L 892.899807 429.15044 
L 892.899807 428.565573 
L 892.899807 427.980706 
L 892.899807 427.395838 
L 892.899807 426.810971 
L 892.899807 426.226104 
L 892.899807 425.641237 
L 892.899807 425.05637 
L 892.899807 424.471503 
L 892.899807 423.886636 
L 892.899807 423.301769 
L 892.899807 422.716902 
L 892.899807 422.132035 
" style="fill:none;stroke:#bfbfbf;stroke-linecap:square;stroke-width:1.5;"/>
   </g>
   <g id="line2d_64">
    <path clip-path="url(#pb01ae7dd00)" d="M 804.18867 263.421335 
L 806.84755 262.782728 
L 809.351683 262.147248 
L 811.714195 261.51463 
L 813.946771 260.884639 
L 816.059843 260.257063 
L 818.062756 259.631714 
L 819.963906 259.008421 
L 821.770856 258.387033 
L 823.490437 257.76741 
L 825.128838 257.149428 
L 826.691674 256.532973 
L 828.184055 255.917943 
L 829.61064 255.304242 
L 830.975687 254.691785 
L 832.283093 254.080493 
L 833.536434 253.470294 
L 834.738995 252.861121 
L 835.893802 252.252913 
L 837.003644 251.645614 
L 838.071096 251.039172 
L 839.098541 250.433539 
L 840.088188 249.828669 
L 841.042085 249.224522 
L 841.962134 248.621059 
L 842.850105 248.018245 
L 843.707647 247.416045 
L 844.536299 246.81443 
L 845.337496 246.213369 
L 846.112579 245.612836 
L 846.862806 245.012806 
L 847.589353 244.413254 
" style="fill:none;stroke:#bfbfbf;stroke-linecap:square;stroke-width:1.5;"/>
   </g>
   <g id="line2d_65">
    <path clip-path="url(#pb01ae7dd00)" d="M 940.900446 382.836115 
L 938.317564 382.499532 
L 935.998454 382.137593 
L 933.904674 381.753994 
L 932.004905 381.351746 
L 930.273375 380.933325 
L 928.688684 380.500789 
L 927.232913 380.05586 
L 925.890944 379.599992 
L 924.649935 379.134419 
L 923.498907 378.660197 
L 922.428414 378.178233 
L 921.430291 377.689312 
L 920.497439 377.194117 
L 919.623657 376.693243 
L 918.803508 376.187215 
L 918.0322 375.676491 
L 917.305497 375.161479 
L 916.619638 374.642542 
L 915.971275 374.12 
L 915.357413 373.594141 
L 914.77537 373.065224 
L 914.222735 372.53348 
L 913.697335 371.999118 
L 913.197203 371.462327 
L 912.720561 370.923278 
L 912.265791 370.382126 
L 911.831422 369.839014 
L 911.41611 369.294069 
L 911.018629 368.74741 
L 910.637855 368.199146 
L 910.272755 367.649375 
" style="fill:none;stroke:#bfbfbf;stroke-linecap:square;stroke-width:1.5;"/>
   </g>
   <g id="line2d_66">
    <path clip-path="url(#pb01ae7dd00)" d="M 852.317662 212.944519 
L 853.114199 212.278612 
L 853.880069 211.615825 
L 854.61701 210.955981 
L 855.326631 210.298917 
L 856.010424 209.644481 
L 856.669772 208.992531 
L 857.305964 208.342938 
L 857.9202 207.695578 
L 858.513595 207.050339 
L 859.087193 206.407114 
L 859.641969 205.765804 
L 860.178834 205.126316 
L 860.698642 204.488563 
L 861.202192 203.852465 
L 861.690237 203.217944 
L 862.16348 202.584929 
L 862.622586 201.953352 
L 863.068178 201.32315 
L 863.500845 200.694263 
L 863.921141 200.066635 
L 864.329589 199.440213 
L 864.726684 198.814945 
L 865.112891 198.190785 
L 865.488652 197.567688 
L 865.854387 196.945611 
L 866.21049 196.324514 
L 866.557338 195.704358 
L 866.895286 195.085108 
L 867.224673 194.466729 
L 867.54582 193.849188 
L 867.859032 193.232455 
" style="fill:none;stroke:#bfbfbf;stroke-linecap:square;stroke-width:1.5;"/>
   </g>
   <g id="line2d_67">
    <path clip-path="url(#pb01ae7dd00)" d="M 850.734489 389.577121 
L 859.896513 386.860425 
L 867.859032 384.17386 
L 874.843136 381.511871 
L 881.018724 378.870192 
" style="fill:none;stroke:#000000;stroke-linecap:square;stroke-width:2;"/>
   </g>
   <g id="text_43">
    <!-- Protanope Confusion Line from Tabulated Coordinates -->
    <g transform="translate(648.6125 17.5755)scale(0.16 -0.16)">
     <use xlink:href="#DejaVuSans-50"/>
     <use x="58.552734" xlink:href="#DejaVuSans-72"/>
     <use x="97.416016" xlink:href="#DejaVuSans-6f"/>
     <use x="158.597656" xlink:href="#DejaVuSans-74"/>
     <use x="197.806641" xlink:href="#DejaVuSans-61"/>
     <use x="259.085938" xlink:href="#DejaVuSans-6e"/>
     <use x="322.464844" xlink:href="#DejaVuSans-6f"/>
     <use x="383.646484" xlink:href="#DejaVuSans-70"/>
     <use x="447.123047" xlink:href="#DejaVuSans-65"/>
     <use x="508.646484" xlink:href="#DejaVuSans-20"/>
     <use x="540.433594" xlink:href="#DejaVuSans-43"/>
     <use x="610.257812" xlink:href="#DejaVuSans-6f"/>
     <use x="671.439453" xlink:href="#DejaVuSans-6e"/>
     <use x="734.818359" xlink:href="#DejaVuSans-66"/>
     <use x="770.023438" xlink:href="#DejaVuSans-75"/>
     <use x="833.402344" xlink:href="#DejaVuSans-73"/>
     <use x="885.501953" xlink:href="#DejaVuSans-69"/>
     <use x="913.285156" xlink:href="#DejaVuSans-6f"/>
     <use x="974.466797" xlink:href="#DejaVuSans-6e"/>
     <use x="1037.845703" xlink:href="#DejaVuSans-20"/>
     <use x="1069.632812" xlink:href="#DejaVuSans-4c"/>
     <use x="1125.345703" xlink:href="#DejaVuSans-69"/>
     <use x="1153.128906" xlink:href="#DejaVuSans-6e"/>
     <use x="1216.507812" xlink:href="#DejaVuSans-65"/>
     <use x="1278.03125" xlink:href="#DejaVuSans-20"/>
     <use x="1309.818359" xlink:href="#DejaVuSans-66"/>
     <use x="1345.023438" xlink:href="#DejaVuSans-72"/>
     <use x="1383.886719" xlink:href="#DejaVuSans-6f"/>
     <use x="1445.068359" xlink:href="#DejaVuSans-6d"/>
     <use x="1542.480469" xlink:href="#DejaVuSans-20"/>
     <use x="1574.267578" xlink:href="#DejaVuSans-54"/>
     <use x="1618.851562" xlink:href="#DejaVuSans-61"/>
     <use x="1680.130859" xlink:href="#DejaVuSans-62"/>
     <use x="1743.607422" xlink:href="#DejaVuSans-75"/>
     <use x="1806.986328" xlink:href="#DejaVuSans-6c"/>
     <use x="1834.769531" xlink:href="#DejaVuSans-61"/>
     <use x="1896.048828" xlink:href="#DejaVuSans-74"/>
     <use x="1935.257812" xlink:href="#DejaVuSans-65"/>
     <use x="1996.78125" xlink:href="#DejaVuSans-64"/>
     <use x="2060.257812" xlink:href="#DejaVuSans-20"/>
     <use x="2092.044922" xlink:href="#DejaVuSans-43"/>
     <use x="2161.869141" xlink:href="#DejaVuSans-6f"/>
     <use x="2223.050781" xlink:href="#DejaVuSans-6f"/>
     <use x="2284.232422" xlink:href="#DejaVuSans-72"/>
     <use x="2323.595703" xlink:href="#DejaVuSans-64"/>
     <use x="2387.072266" xlink:href="#DejaVuSans-69"/>
     <use x="2414.855469" xlink:href="#DejaVuSans-6e"/>
     <use x="2478.234375" xlink:href="#DejaVuSans-61"/>
     <use x="2539.513672" xlink:href="#DejaVuSans-74"/>
     <use x="2578.722656" xlink:href="#DejaVuSans-65"/>
     <use x="2640.246094" xlink:href="#DejaVuSans-73"/>
    </g>
    <!-- Chromoluminance (x, y, Y) -->
    <g transform="translate(757.67 35.492)scale(0.16 -0.16)">
     <use xlink:href="#DejaVuSans-43"/>
     <use x="69.824219" xlink:href="#DejaVuSans-68"/>
     <use x="133.203125" xlink:href="#DejaVuSans-72"/>
     <use x="172.066406" xlink:href="#DejaVuSans-6f"/>
     <use x="233.248047" xlink:href="#DejaVuSans-6d"/>
     <use x="330.660156" xlink:href="#DejaVuSans-6f"/>
     <use x="391.841797" xlink:href="#DejaVuSans-6c"/>
     <use x="419.625" xlink:href="#DejaVuSans-75"/>
     <use x="483.003906" xlink:href="#DejaVuSans-6d"/>
     <use x="580.416016" xlink:href="#DejaVuSans-69"/>
     <use x="608.199219" xlink:href="#DejaVuSans-6e"/>
     <use x="671.578125" xlink:href="#DejaVuSans-61"/>
     <use x="732.857422" xlink:href="#DejaVuSans-6e"/>
     <use x="796.236328" xlink:href="#DejaVuSans-63"/>
     <use x="851.216797" xlink:href="#DejaVuSans-65"/>
     <use x="912.740234" xlink:href="#DejaVuSans-20"/>
     <use x="944.527344" xlink:href="#DejaVuSans-28"/>
     <use x="983.541016" xlink:href="#DejaVuSans-78"/>
     <use x="1042.720703" xlink:href="#DejaVuSans-2c"/>
     <use x="1074.507812" xlink:href="#DejaVuSans-20"/>
     <use x="1106.294922" xlink:href="#DejaVuSans-79"/>
     <use x="1165.474609" xlink:href="#DejaVuSans-2c"/>
     <use x="1197.261719" xlink:href="#DejaVuSans-20"/>
     <use x="1229.048828" xlink:href="#DejaVuSans-59"/>
     <use x="1290.132812" xlink:href="#DejaVuSans-29"/>
    </g>
   </g>
   <g id="line2d_68">
    <g clip-path="url(#pb01ae7dd00)">
     <use style="fill:#3c8580;stroke:#000000;stroke-opacity:0;" x="850.734489" xlink:href="#m02f7a9819d" y="389.577121"/>
    </g>
   </g>
   <g id="line2d_69">
    <g clip-path="url(#pb01ae7dd00)">
     <use style="fill:#658280;stroke:#000000;stroke-opacity:0;" x="859.896513" xlink:href="#mc317b24204" y="386.860425"/>
    </g>
   </g>
   <g id="line2d_70">
    <g clip-path="url(#pb01ae7dd00)">
     <use style="fill:#808080;stroke:#000000;stroke-opacity:0;" x="867.859032" xlink:href="#m6387e5d493" y="384.17386"/>
    </g>
   </g>
   <g id="line2d_71">
    <g clip-path="url(#pb01ae7dd00)">
     <use style="fill:#947d7f;stroke:#000000;stroke-opacity:0;" x="874.843136" xlink:href="#mc36af33d4a" y="381.511871"/>
    </g>
   </g>
   <g id="line2d_72">
    <g clip-path="url(#pb01ae7dd00)">
     <use style="fill:#a67a7f;stroke:#000000;stroke-opacity:0;" x="881.018724" xlink:href="#m3d7c6b3485" y="378.870192"/>
    </g>
   </g>
  </g>
 </g>
 <defs>
  <clipPath id="p8e837f500a">
   <rect height="517.93" width="517.93" x="50.87" y="63.327"/>
  </clipPath>
  <clipPath id="pb01ae7dd00">
   <rect height="561.6" width="561.6" x="583.2" y="41.492"/>
  </clipPath>
 </defs>
</svg>
